<svg width="351" height="308" viewBox="0 0 351 308" fill="none" xmlns="http://www.w3.org/2000/svg">
<path d="M43.5875 202.554C18.2875 160.154 -10.3125 100.554 3.68747 63.1537C17.6875 25.6537 57.2875 3.45372 105.487 11.4537C153.587 19.4537 176.087 35.0537 200.587 39.9537C225.087 44.7537 312.287 82.4537 332.787 130.454C353.287 178.454 348.587 212.854 340.287 241.454C331.987 270.154 307.587 281.754 263.287 297.454C218.987 313.254 164.487 313.254 123.687 274.254C82.8875 235.354 69.6875 246.454 43.5875 202.554Z" fill="#E58D00"/>
<path fill-rule="evenodd" clip-rule="evenodd" d="M349.087 221.654C348.587 222.254 348.587 222.254 348.587 222.254L347.987 225.254C347.987 225.254 347.487 226.654 346.887 227.254C346.387 227.954 344.787 227.454 344.787 227.454C344.787 227.454 341.187 232.254 338.287 232.854C335.487 233.454 321.587 240.454 321.587 240.454C321.587 240.454 316.987 242.554 313.787 244.854C310.587 247.254 307.187 250.054 301.887 250.154C296.687 250.254 293.687 249.054 291.587 245.354C289.487 241.754 285.587 233.254 283.587 229.554C281.487 225.754 272.187 209.554 272.187 209.554L269.887 199.754L261.487 219.854C261.487 219.854 265.287 231.754 263.887 236.154C262.387 240.554 257.287 247.954 253.087 249.154L261.487 249.754L263.387 251.754C263.387 251.754 268.587 252.154 270.387 254.854C270.387 254.854 290.487 258.454 293.587 258.654C296.587 258.954 304.887 261.554 306.087 262.154C307.287 262.654 310.487 265.254 309.887 267.754C309.387 270.354 307.787 272.654 302.887 271.554C302.887 271.554 308.487 273.554 309.387 275.054C310.287 276.454 307.887 280.054 307.887 280.054C307.887 280.054 308.787 283.954 307.787 284.654C306.887 285.254 305.387 285.654 305.387 285.654C305.387 285.654 302.987 288.754 301.687 288.454C300.387 288.154 300.387 288.154 300.387 288.154C300.387 288.154 298.387 290.954 296.587 290.754C294.687 290.554 292.087 290.454 289.687 288.554C287.387 286.654 274.787 281.954 274.787 281.954C274.787 281.954 267.387 279.454 266.387 278.854C265.387 278.354 260.687 278.654 260.687 278.654C260.687 278.654 235.487 284.354 210.987 280.454C186.487 276.554 179.887 272.254 179.887 272.254C179.887 272.254 168.787 263.654 166.487 259.554C164.087 255.554 162.487 249.454 162.487 249.454L160.687 251.654L149.687 246.054L140.887 233.954C140.887 233.954 124.787 231.754 121.587 230.854C118.387 229.954 98.6875 217.354 94.0875 214.554C89.4875 211.854 80.8875 191.054 80.8875 191.054C80.8875 191.054 75.3875 178.154 74.5875 170.054C73.7875 161.954 72.6875 147.654 74.4875 141.054C76.3875 134.454 88.0875 115.754 89.7875 114.054C91.3875 112.254 94.1875 107.454 95.2875 104.954C96.2875 102.454 96.0875 95.7537 96.0875 95.7537C96.0875 95.7537 91.7875 97.7537 87.3875 96.3537C82.8875 94.9537 73.4875 84.3537 72.7875 80.0537C72.0875 75.8537 72.3875 74.1537 72.3875 74.1537C72.3875 74.1537 60.9875 54.2537 59.9875 42.3537C59.0875 30.3537 62.3875 22.5537 72.3875 14.1537C82.4875 5.65372 96.8875 2.85372 102.987 2.45372C108.987 2.05372 121.487 1.65372 133.887 7.65372C146.387 13.6537 150.487 29.0537 150.487 29.0537L156.987 47.9537L164.387 61.0537C164.387 61.0537 165.887 69.4537 165.587 76.7537C165.587 76.7537 171.687 77.5537 180.987 81.5537C190.287 85.4537 220.887 101.854 220.887 101.854C220.887 101.854 236.487 111.154 247.687 120.354C258.887 129.454 260.987 133.154 261.487 133.954C261.987 134.654 268.087 138.954 271.087 140.754C273.987 142.654 281.087 143.854 284.187 145.654C287.187 147.554 293.887 155.254 296.487 159.754C299.087 164.154 302.387 174.454 303.087 174.654C303.887 174.954 307.687 192.154 307.687 192.154L311.687 212.754L315.087 214.054C315.087 214.054 327.187 210.554 329.887 210.454C332.687 210.354 343.687 212.754 343.687 212.754C343.687 212.754 344.087 213.554 346.887 214.654C346.887 214.654 348.687 215.154 348.487 217.754C348.487 217.754 349.587 221.054 349.087 221.654ZM132.287 202.754L121.187 184.954L112.687 171.954C112.687 171.954 115.387 186.754 114.387 191.354C114.387 191.354 118.087 193.954 120.987 195.454C123.887 196.954 132.287 202.754 132.287 202.754ZM162.787 247.954L162.587 240.654L162.987 236.954L153.587 234.454C153.587 234.454 153.287 239.654 155.087 241.354C156.787 242.954 162.787 247.954 162.787 247.954ZM241.687 152.654L241.287 145.854L216.387 132.454C216.387 132.454 202.887 126.154 201.587 126.154L206.787 132.854C206.787 132.854 215.087 144.854 218.687 150.654C222.287 156.554 224.487 163.754 224.487 163.754L229.087 162.354C229.087 162.354 232.787 158.454 235.687 155.954C238.587 153.354 241.687 152.654 241.687 152.654Z" fill="white"/>
<path d="M190.687 215.054C190.687 215.054 196.687 211.254 197.987 209.354C199.387 207.454 202.887 205.054 204.187 203.754C205.487 202.454 213.087 196.954 214.187 196.554C215.187 196.154 219.587 191.954 221.087 190.054C222.587 188.054 228.287 179.854 228.287 179.854C228.287 179.854 224.687 187.954 223.987 189.754C223.287 191.454 212.987 201.754 212.987 201.754L195.887 215.254L190.687 215.054Z" fill="#6BD4CD"/>
<path d="M119.187 53.5537C119.187 53.5537 119.187 57.0537 121.387 58.0537C121.387 58.0537 124.287 57.0537 125.887 55.7537C127.587 54.4537 127.587 54.4537 127.587 54.4537C127.587 54.4537 126.887 52.9537 126.587 51.9537C126.187 50.8537 124.387 50.8537 124.387 50.8537C124.387 50.8537 119.287 53.3537 119.187 53.5537Z" fill="#000631"/>
<path d="M145.587 44.3537C145.587 44.3537 145.487 46.7537 147.887 48.4537C147.887 48.4537 149.187 48.4537 150.687 47.8537C152.087 47.1537 153.287 45.6537 153.287 45.6537C153.287 45.6537 152.787 43.0537 152.187 42.7537C151.587 42.4537 148.287 42.3537 145.587 44.3537Z" fill="#000631"/>
<path d="M192.287 111.954C192.287 111.954 197.987 119.354 202.287 121.454C206.687 123.454 211.087 120.854 211.087 120.854C211.087 120.854 207.987 123.654 211.587 125.654C215.287 127.554 231.087 140.354 231.087 140.354L200.587 125.754L192.287 111.954Z" fill="#000631"/>
<path d="M236.987 189.054C236.987 189.054 245.387 193.654 250.187 197.154C255.087 200.754 262.787 213.954 262.987 216.654L261.487 219.854C261.487 219.854 257.187 207.954 249.087 200.554C240.987 193.054 236.987 189.054 236.987 189.054Z" fill="#000631"/>
<path d="M259.287 211.854L269.987 194.554L269.787 199.854L261.487 219.854L259.287 211.854Z" fill="#000631"/>
<path d="M129.888 103.054C129.888 103.054 146.988 103.954 153.288 98.2537C159.488 92.6537 160.388 93.1537 164.188 82.4537C167.988 71.7537 164.388 61.2537 163.988 59.8537C163.588 58.3537 154.488 45.6537 155.288 44.3537C156.088 43.1537 147.788 17.1537 137.688 9.55367C127.688 1.85367 104.588 0.653673 93.3879 4.15367C82.1879 7.55367 70.3879 14.2537 66.8879 19.0537C63.4879 23.7537 59.0879 30.3537 59.5879 39.1537C60.1879 47.8537 67.4879 67.7537 71.8879 73.1537" stroke="#000631" stroke-width="1.4" stroke-linecap="round" stroke-linejoin="round"/>
<path d="M81.2879 72.6537C81.2879 72.6537 73.1879 69.3537 72.0879 75.8537C71.0879 82.2537 83.1879 94.2537 86.1879 95.7537C89.1879 97.2537 96.3879 97.8537 97.3879 91.9537" stroke="#000631" stroke-width="1.4" stroke-linecap="round" stroke-linejoin="round"/>
<path d="M95.8879 95.0537C95.8879 95.0537 96.5879 101.054 95.0879 106.154C93.4879 111.354 81.2879 124.654 76.0879 136.354C70.7879 148.154 74.0879 171.954 76.7879 179.754C79.4879 187.554 85.0879 201.754 88.6879 208.354C92.2879 214.954 100.888 219.054 104.488 221.654C107.988 224.254 116.088 227.554 120.388 230.254C124.588 232.954 140.688 233.654 140.688 233.654C140.688 233.654 146.888 242.654 148.488 244.954C150.088 247.154 159.988 252.154 161.388 251.754C162.788 251.254 163.288 248.054 160.288 246.254C157.288 244.354 155.088 241.354 154.588 240.654C153.988 239.854 153.488 235.154 153.488 235.154" stroke="#000631" stroke-width="1.4" stroke-linecap="round" stroke-linejoin="round"/>
<path d="M151.788 233.454C151.788 233.454 153.588 234.454 157.988 235.854C162.488 237.254 169.088 237.654 171.588 238.154C174.188 238.554 176.888 238.354 177.988 235.854C179.088 233.354 177.088 233.054 173.988 231.854C170.888 230.654 164.388 229.554 162.588 228.654C160.688 227.654 154.588 224.654 154.588 224.654" stroke="#000631" stroke-width="1.4" stroke-linecap="round" stroke-linejoin="round"/>
<path d="M155.988 225.354C155.988 225.354 154.788 223.354 156.688 223.654C158.688 223.954 170.088 227.054 174.288 227.454C178.588 227.954 181.388 227.154 181.688 225.854C181.888 224.554 182.288 221.954 178.388 221.254C174.488 220.654 165.088 217.054 163.788 216.854C162.588 216.654 154.788 215.354 154.788 215.354" stroke="#000631" stroke-width="1.4" stroke-linecap="round" stroke-linejoin="round"/>
<path d="M156.188 214.954C156.188 214.954 164.088 215.554 167.288 216.154C170.488 216.654 177.588 218.454 179.188 216.754C180.788 215.054 177.988 211.854 174.088 211.254C170.188 210.554 158.188 206.754 154.888 206.754" stroke="#000631" stroke-width="1.4" stroke-linecap="round" stroke-linejoin="round"/>
<path d="M176.588 212.054C176.588 212.054 177.188 208.454 175.288 208.154C173.288 207.754 171.788 206.954 169.888 205.254C168.088 203.554 161.888 203.954 160.388 203.654C158.788 203.354 151.588 204.054 149.388 204.354C147.188 204.754 144.288 206.254 144.288 206.254" stroke="#000631" stroke-width="1.4" stroke-linecap="round" stroke-linejoin="round"/>
<path d="M142.988 208.654C142.988 208.654 136.088 211.554 135.188 220.754" stroke="#000631" stroke-width="1.4" stroke-linecap="round" stroke-linejoin="round"/>
<path d="M145.588 205.654C145.588 205.654 133.988 203.954 130.388 201.954C126.688 200.054 119.688 194.254 116.688 192.354C113.588 190.554 99.1879 185.454 90.3879 194.054" stroke="#000631" stroke-width="1.4" stroke-linecap="round" stroke-linejoin="round"/>
<path d="M103.188 161.554C103.188 161.554 110.488 165.354 111.488 167.554C112.388 169.754 114.188 179.354 114.288 182.654C114.388 186.054 114.388 191.354 114.388 191.354" stroke="#000631" stroke-width="1.4" stroke-linecap="round" stroke-linejoin="round"/>
<path d="M100.288 142.454C100.288 142.454 110.288 154.754 110.988 158.154C111.788 161.654 111.488 167.554 111.488 167.554" stroke="#000631" stroke-width="1.4" stroke-linecap="round" stroke-linejoin="round"/>
<path d="M108.088 151.654C108.088 151.654 107.588 142.754 106.488 141.354" stroke="#000631" stroke-width="1.4" stroke-linecap="round" stroke-linejoin="round"/>
<path d="M113.188 165.154C113.188 165.154 114.488 157.054 114.988 154.354C115.488 151.554 118.388 142.054 117.488 139.554" stroke="#000631" stroke-width="1.4" stroke-linecap="round" stroke-linejoin="round"/>
<path d="M112.488 171.154C112.488 171.154 119.088 181.454 121.688 185.854C124.288 190.354 131.888 201.154 132.288 202.754" stroke="#000631" stroke-width="1.4" stroke-linecap="round" stroke-linejoin="round"/>
<path d="M136.088 143.654C136.088 143.654 138.788 143.454 138.388 141.454" stroke="#000631" stroke-width="1.4" stroke-linecap="round" stroke-linejoin="round"/>
<path d="M181.688 113.354C181.688 113.354 183.888 112.354 184.088 111.054" stroke="#000631" stroke-width="1.4" stroke-linecap="round" stroke-linejoin="round"/>
<path d="M116.688 103.854C117.388 103.954 126.788 107.554 133.488 105.354" stroke="#000631" stroke-width="1.4" stroke-linecap="round" stroke-linejoin="round"/>
<path d="M146.788 86.9537C146.788 86.9537 151.888 84.4537 154.788 86.8537" stroke="#000631" stroke-width="1.4" stroke-linecap="round" stroke-linejoin="round"/>
<path d="M166.488 76.8537C166.488 76.8537 172.988 77.9537 177.888 80.0537C182.888 82.2537 194.588 88.1537 198.888 90.2537C203.188 92.2537 216.088 98.4537 223.388 102.954C230.588 107.454 236.588 111.754 241.288 115.254C246.088 118.754 251.888 123.654 256.388 128.454C260.988 133.154 263.088 136.154 267.288 138.854C271.488 141.554 279.188 143.554 282.888 145.454C286.488 147.354 292.288 153.054 292.188 153.654C292.088 154.354 290.488 155.354 288.688 154.454C286.888 153.454 279.488 149.554 279.488 149.554" stroke="#000631" stroke-width="1.4" stroke-linecap="round" stroke-linejoin="round"/>
<path d="M274.788 146.154C274.788 146.154 281.788 151.954 284.688 154.454C287.588 156.854 292.288 164.954 292.088 166.254C291.788 167.554 289.888 167.254 288.088 166.254C286.188 165.354 282.888 161.454 280.588 159.054C278.288 156.654 273.488 153.754 273.488 153.754" stroke="#000631" stroke-width="1.4" stroke-linecap="round" stroke-linejoin="round"/>
<path d="M270.688 150.754C270.688 150.754 277.988 162.654 280.688 166.454C283.388 170.154 284.888 173.054 283.388 174.154C281.888 175.254 276.488 171.654 273.688 168.554C270.888 165.454 266.688 160.954 266.688 160.954" stroke="#000631" stroke-width="1.4" stroke-linecap="round" stroke-linejoin="round"/>
<path d="M261.988 154.654C261.988 154.654 266.488 160.254 267.588 163.354C268.688 166.454 268.588 171.054 268.988 173.054C269.288 175.154 268.288 176.954 266.988 176.754C265.688 176.554 262.988 172.754 262.588 171.354C262.188 169.954 260.888 165.754 259.788 164.254C258.688 162.754 254.488 158.854 254.488 158.854" stroke="#000631" stroke-width="1.4" stroke-linecap="round" stroke-linejoin="round"/>
<path d="M252.688 163.054C252.688 163.054 252.988 160.054 256.188 161.454" stroke="#000631" stroke-width="1.4" stroke-linecap="round" stroke-linejoin="round"/>
<path d="M251.288 159.554C251.288 159.554 252.588 163.054 253.888 165.254C255.288 167.454 254.388 172.654 253.288 175.154C252.188 177.654 249.588 177.254 249.288 175.154C248.988 173.154 247.288 167.454 245.088 164.454C242.888 161.454 242.388 160.354 241.988 156.854C241.588 153.254 241.488 145.954 241.488 145.954C241.488 145.954 225.588 137.954 221.888 135.954C218.188 134.054 207.188 128.254 206.588 128.154C205.888 128.054 201.588 125.954 201.588 125.954" stroke="#000631" stroke-width="1.4" stroke-linecap="round" stroke-linejoin="round"/>
<path d="M215.988 103.054C215.988 103.054 212.388 125.054 206.588 128.154" stroke="#000631" stroke-width="1.4" stroke-linecap="round" stroke-linejoin="round"/>
<path d="M193.288 95.9537C193.288 95.9537 196.088 106.554 193.888 110.154" stroke="#000631" stroke-width="1.4" stroke-linecap="round" stroke-linejoin="round"/>
<path d="M179.588 90.3537C179.588 90.3537 186.788 98.8537 188.788 106.554" stroke="#000631" stroke-width="1.4" stroke-linecap="round" stroke-linejoin="round"/>
<path d="M178.488 96.8537C178.488 96.8537 185.088 101.254 189.288 107.954C193.488 114.654 196.088 119.054 197.188 120.554C198.188 122.054 208.688 135.154 211.988 139.654C215.188 144.154 221.388 155.154 223.288 159.554C225.188 163.854 225.188 171.854 225.188 171.854" stroke="#000631" stroke-width="1.4" stroke-linecap="round" stroke-linejoin="round"/>
<path d="M199.088 180.754C199.088 180.754 196.888 182.454 196.388 181.054C195.988 179.654 199.788 176.954 200.988 177.754C202.088 178.654 201.288 179.854 201.288 179.854" stroke="#000631" stroke-width="1.4" stroke-linecap="round" stroke-linejoin="round"/>
<path d="M172.888 207.354C173.588 206.454 185.188 200.454 189.588 197.854C194.088 195.254 205.088 188.554 207.488 186.554C209.788 184.554 219.088 176.754 221.388 175.154C223.588 173.554 226.588 171.354 227.588 169.554C228.588 167.754 228.488 164.454 228.488 164.454" stroke="#000631" stroke-width="1.4" stroke-linecap="round" stroke-linejoin="round"/>
<path d="M225.388 163.954C225.388 163.954 229.588 161.854 230.088 162.654C230.588 163.354 229.688 169.254 229.988 171.254C230.288 173.354 229.888 175.954 229.688 177.254C229.488 178.554 221.488 190.454 217.588 193.854C213.688 197.154 205.488 202.454 202.388 205.254C199.188 208.054 194.388 213.254 189.388 215.154C184.488 216.954 177.788 220.054 175.188 220.454" stroke="#000631" stroke-width="1.4" stroke-linecap="round" stroke-linejoin="round"/>
<path d="M189.388 215.154C189.388 215.154 204.288 213.654 212.888 218.354C221.388 223.054 226.888 230.054 228.288 233.554C229.688 237.154 231.088 240.654 230.288 241.254" stroke="#000631" stroke-width="1.4" stroke-linecap="round" stroke-linejoin="round"/>
<path d="M195.588 214.854C196.088 214.954 209.088 205.054 212.988 201.754C216.788 198.354 223.288 191.154 224.788 188.554C226.188 185.954 227.588 180.954 227.588 180.954" stroke="#000631" stroke-width="1.4" stroke-linecap="round" stroke-linejoin="round"/>
<path d="M228.288 179.854C228.588 179.654 232.788 194.354 233.888 195.854" stroke="#000631" stroke-width="1.4" stroke-linecap="round" stroke-linejoin="round"/>
<path d="M229.288 178.054C229.288 178.054 232.888 186.654 233.788 186.654" stroke="#000631" stroke-width="1.4" stroke-linecap="round" stroke-linejoin="round"/>
<path d="M254.388 248.554C258.588 247.254 263.688 236.754 263.888 235.254C264.088 233.654 263.688 224.854 259.788 216.154C255.888 207.554 245.088 196.454 240.388 192.454C235.688 188.554 231.088 185.354 231.088 185.354" stroke="#000631" stroke-width="1.4" stroke-linecap="round" stroke-linejoin="round"/>
<path d="M269.688 200.454C269.688 200.454 264.388 214.854 261.288 220.054" stroke="#000631" stroke-width="1.4" stroke-linecap="round" stroke-linejoin="round"/>
<path d="M264.788 178.354C265.388 178.454 267.688 181.554 270.188 182.254" stroke="#000631" stroke-width="1.4" stroke-linecap="round" stroke-linejoin="round"/>
<path d="M274.588 175.354C274.588 175.354 270.388 180.654 269.888 191.254C269.488 201.854 272.088 208.454 273.388 211.554C274.688 214.654 284.988 231.754 285.988 233.854C287.088 236.054 291.388 246.054 293.188 247.654C294.888 249.254 300.588 250.254 304.788 249.654C308.888 248.954 318.188 241.154 321.688 240.454C325.088 239.654 335.488 233.454 337.488 233.054C339.588 232.754 342.088 229.854 342.788 229.354C343.588 228.754 344.488 226.954 344.788 225.654C344.988 224.354 342.888 220.654 342.888 220.654" stroke="#000631" stroke-width="1.4" stroke-linecap="round" stroke-linejoin="round"/>
<path d="M330.188 217.254C330.788 217.354 334.288 220.554 336.588 222.954" stroke="#000631" stroke-width="1.4" stroke-linecap="round" stroke-linejoin="round"/>
<path d="M301.688 216.454C301.688 216.454 309.088 211.754 314.888 213.354" stroke="#000631" stroke-width="1.4" stroke-linecap="round" stroke-linejoin="round"/>
<path d="M313.688 214.454C313.688 214.454 327.388 210.054 331.888 210.854C336.388 211.654 339.088 211.354 341.088 211.754C342.988 212.054 343.088 211.354 344.088 213.554C345.088 215.754 344.288 220.254 341.488 221.154C338.688 221.954 337.988 218.554 337.988 218.554" stroke="#000631" stroke-width="1.4" stroke-linecap="round" stroke-linejoin="round"/>
<path d="M335.088 221.454L338.288 220.554" stroke="#000631" stroke-width="1.4" stroke-linecap="round" stroke-linejoin="round"/>
<path d="M344.888 214.054C344.888 214.054 347.288 214.054 348.388 215.554C349.488 217.154 347.088 219.354 346.488 219.254C345.788 219.154 344.488 218.954 344.488 218.954" stroke="#000631" stroke-width="1.4" stroke-linecap="round" stroke-linejoin="round"/>
<path d="M344.488 221.954C345.388 221.754 346.788 223.354 348.488 222.254C350.188 221.254 349.488 218.654 348.488 217.754" stroke="#000631" stroke-width="1.4" stroke-linecap="round" stroke-linejoin="round"/>
<path d="M344.988 224.354C344.988 224.354 348.188 226.854 348.488 222.254" stroke="#000631" stroke-width="1.4" stroke-linecap="round" stroke-linejoin="round"/>
<path d="M344.488 227.154C344.488 227.154 347.288 228.954 347.988 225.254" stroke="#000631" stroke-width="1.4" stroke-linecap="round" stroke-linejoin="round"/>
<path d="M292.188 153.654C292.188 153.654 299.288 162.754 301.288 168.754C303.288 174.854 308.188 191.354 308.888 197.954C309.688 204.454 311.688 212.754 311.688 212.754" stroke="#000631" stroke-width="1.4" stroke-linecap="round" stroke-linejoin="round"/>
<path d="M203.588 209.054C203.588 209.054 209.988 207.254 212.388 208.954" stroke="#000631" stroke-width="1.4" stroke-linecap="round" stroke-linejoin="round"/>
<path d="M210.988 222.054C210.888 222.054 221.388 227.054 221.488 238.454" stroke="#000631" stroke-width="1.4" stroke-linecap="round" stroke-linejoin="round"/>
<path d="M217.088 239.054C217.088 239.054 220.288 237.554 224.588 239.654C228.888 241.654 234.788 242.654 239.688 244.754C239.688 244.754 250.488 247.954 252.388 248.854C254.188 249.854 260.988 248.954 262.388 250.554C263.788 252.154 264.788 254.254 264.788 254.254" stroke="#000631" stroke-width="1.4" stroke-linecap="round" stroke-linejoin="round"/>
<path d="M263.388 251.854C263.388 251.854 266.488 251.854 268.888 253.654C271.288 255.354 281.888 257.154 283.688 257.454C285.488 257.754 296.188 259.454 298.588 259.854C301.088 260.354 305.688 261.854 307.288 262.654C309.688 263.954 310.588 266.954 309.588 269.054C308.688 270.854 307.888 271.454 305.788 271.754C303.788 272.054 299.388 270.654 299.388 270.654" stroke="#000631" stroke-width="1.4" stroke-linecap="round" stroke-linejoin="round"/>
<path d="M302.488 271.854C302.488 271.854 309.488 273.654 309.788 275.754C310.088 277.754 308.388 280.154 307.088 279.954C305.788 279.754 297.288 278.354 297.288 278.354" stroke="#000631" stroke-width="1.4" stroke-linecap="round" stroke-linejoin="round"/>
<path d="M295.988 282.754C295.988 282.754 300.288 284.854 303.588 285.354C306.788 285.854 308.388 284.154 307.988 282.754C307.088 279.954 307.088 279.954 307.088 279.954" stroke="#000631" stroke-width="1.4" stroke-linecap="round" stroke-linejoin="round"/>
<path d="M294.288 286.054C294.188 285.754 298.988 288.754 301.688 288.454C304.388 288.154 305.388 285.654 305.388 285.654" stroke="#000631" stroke-width="1.4" stroke-linecap="round" stroke-linejoin="round"/>
<path d="M300.088 288.354C300.088 288.354 300.188 289.454 297.988 290.454C295.888 291.354 291.188 289.954 290.488 289.154C289.688 288.354 284.888 285.554 281.688 284.354C278.588 283.154 272.488 280.854 269.988 279.754C267.388 278.654 263.888 278.754 262.388 278.454C260.788 278.254 247.388 282.654 229.488 282.354C211.588 282.054 187.988 275.454 183.588 274.054C179.188 272.654 170.288 265.854 166.688 259.954C162.988 253.954 161.488 243.054 163.088 237.354" stroke="#000631" stroke-width="1.4" stroke-linecap="round" stroke-linejoin="round"/>
<path d="M262.388 278.454C262.388 278.454 266.588 271.254 265.788 260.454" stroke="#000631" stroke-width="1.4" stroke-linecap="round" stroke-linejoin="round"/>
<path d="M306.988 264.654C306.988 264.654 307.088 267.854 305.988 270.754" stroke="#000631" stroke-width="0.7" stroke-linecap="round" stroke-linejoin="round"/>
<path d="M305.888 263.454C305.888 263.454 303.488 264.354 302.388 266.554C301.288 268.654 303.088 271.054 303.088 271.054" stroke="#000631" stroke-width="0.7" stroke-linecap="round" stroke-linejoin="round"/>
<path d="M229.088 162.354C229.088 162.354 236.188 153.754 241.688 152.654" stroke="#000631" stroke-width="1.4" stroke-linecap="round" stroke-linejoin="round"/>
<path d="M73.4879 76.0537C73.4879 76.0537 76.5879 73.8537 80.1879 75.8537C83.7879 77.7537 87.9879 80.4537 87.9879 80.4537C87.9879 80.4537 88.0879 83.7537 89.2879 84.6537C90.4879 85.5537 92.8879 86.2537 92.8879 86.2537" stroke="#000631" stroke-width="1.4" stroke-linecap="round" stroke-linejoin="round"/>
<path d="M83.4879 79.6537C83.4879 79.6537 81.0879 82.0537 82.6879 84.5537C84.1879 87.1537 86.7879 87.5537 86.7879 87.5537C86.7879 87.5537 90.3879 86.1537 90.7879 87.5537" stroke="#000631" stroke-width="1.4" stroke-linecap="round" stroke-linejoin="round"/>
<path d="M91.7879 89.7537C91.7879 89.7537 85.3879 88.0537 84.9879 90.5537" stroke="#000631" stroke-width="1.4" stroke-linecap="round" stroke-linejoin="round"/>
<path d="M75.4879 75.2537C75.4879 75.2537 74.1879 80.5537 77.2879 83.2537" stroke="#000631" stroke-width="1.4" stroke-linecap="round" stroke-linejoin="round"/>
<path d="M139.888 44.4537C139.888 44.4537 139.988 47.8537 142.388 49.5537C144.788 51.2537 149.588 54.0537 150.688 55.5537C151.788 57.1537 152.188 58.5537 151.188 60.6537" stroke="#000631" stroke-width="1.3" stroke-linecap="round" stroke-linejoin="round"/>
<path d="M149.488 62.7537L150.688 63.8537" stroke="#000631" stroke-width="1.3" stroke-linecap="round" stroke-linejoin="round"/>
<path d="M149.388 59.3537L148.288 61.8537" stroke="#000631" stroke-width="1.3" stroke-linecap="round" stroke-linejoin="round"/>
<path d="M141.988 64.1537C141.988 64.1537 141.788 61.7537 143.288 62.1537C144.888 62.6537 144.888 62.6537 144.888 62.6537" stroke="#000631" stroke-width="1.3" stroke-linecap="round" stroke-linejoin="round"/>
<path d="M136.588 61.0537C136.588 61.0537 136.388 65.8537 140.088 65.4537" stroke="#000631" stroke-width="1.3" stroke-linecap="round" stroke-linejoin="round"/>
<path d="M128.788 51.2537C128.788 51.2537 127.588 50.4537 126.988 50.3537C126.288 50.2537 122.188 50.8537 118.288 54.2537C115.988 56.1537 113.588 58.7537 113.588 58.7537C113.588 58.7537 119.188 58.3537 122.488 57.5537C125.888 56.7537 128.288 54.1537 128.288 54.1537" stroke="#000631" stroke-linecap="round" stroke-linejoin="round"/>
<path d="M124.688 59.0537C124.688 59.0537 128.088 57.1537 128.788 55.9537" stroke="#000631" stroke-linecap="round" stroke-linejoin="round"/>
<path d="M115.188 53.9537C115.188 53.9537 121.088 49.0537 123.488 48.9537C125.888 48.8537 128.188 49.0537 128.188 49.0537" stroke="#000631" stroke-linecap="round" stroke-linejoin="round"/>
<path d="M143.588 42.4537C143.588 42.4537 145.988 39.8537 148.588 40.4537C151.088 41.0537 151.088 41.0537 151.088 41.0537" stroke="#000631" stroke-linecap="round" stroke-linejoin="round"/>
<path d="M143.888 48.4537C143.888 48.4537 147.788 49.2537 149.888 48.2537C152.088 47.1537 154.088 44.7537 154.088 44.7537" stroke="#000631" stroke-linecap="round" stroke-linejoin="round"/>
<path d="M143.088 47.1537C143.088 47.1537 144.388 45.0537 146.688 43.5537C148.988 41.9537 151.488 41.9537 154.288 43.6537" stroke="#000631" stroke-linecap="round" stroke-linejoin="round"/>
<path d="M151.888 42.6537C152.888 42.6537 153.688 45.3537 152.988 45.9537" stroke="#000631" stroke-linecap="round" stroke-linejoin="round"/>
<path d="M145.188 44.6537C145.188 44.6537 145.788 48.4537 148.188 48.6537" stroke="#000631" stroke-linecap="round" stroke-linejoin="round"/>
<path d="M125.288 50.9537C125.288 50.9537 127.888 52.1537 127.488 54.8537" stroke="#000631" stroke-linecap="round" stroke-linejoin="round"/>
<path d="M119.288 54.3537C119.288 54.3537 119.188 57.1537 121.388 57.8537" stroke="#000631" stroke-linecap="round" stroke-linejoin="round"/>
<path d="M134.088 81.7537C134.088 81.7537 137.688 81.7537 138.888 80.5537C140.088 79.4537 143.588 76.6537 145.388 75.6537C147.188 74.6537 147.588 73.7537 147.588 73.7537C147.588 73.7537 149.388 73.6537 150.988 71.9537" stroke="#000631" stroke-width="0.9" stroke-linecap="round" stroke-linejoin="round"/>
<path d="M139.788 79.4537C139.788 79.4537 144.788 72.9537 146.588 72.1537C147.888 71.6537 150.588 70.3537 151.288 70.2537C151.988 70.1537 154.088 73.1537 155.388 73.3537" stroke="#000631" stroke-width="0.9" stroke-linecap="round" stroke-linejoin="round"/>
<path d="M154.588 74.5537C154.588 74.5537 152.088 73.4537 150.888 72.5537" stroke="#000631" stroke-width="0.9" stroke-linecap="round" stroke-linejoin="round"/>
<path d="M138.488 80.9537C138.488 80.9537 142.888 80.5537 146.788 78.8537C150.788 77.2537 152.588 74.2537 152.588 74.2537" stroke="#000631" stroke-width="0.9" stroke-linecap="round" stroke-linejoin="round"/>
<path d="M138.688 83.5537C138.688 83.5537 148.388 83.5537 150.688 81.8537C152.888 80.2537 154.588 78.1537 154.588 78.1537" stroke="#000631" stroke-width="0.9" stroke-linecap="round" stroke-linejoin="round"/>
<path d="M110.388 2.3537C110.388 2.3537 99.5879 4.6537 97.9879 12.1537" stroke="#000631" stroke-width="0.9" stroke-linecap="round" stroke-linejoin="round"/>
<path d="M105.188 1.45369C105.188 1.45369 95.3879 -1.84631 90.7879 9.35369" stroke="#000631" stroke-width="0.9" stroke-linecap="round" stroke-linejoin="round"/>
<path d="M84.1879 11.5537C84.1879 11.5537 81.8879 3.95367 90.8879 1.45367" stroke="#000631" stroke-width="0.9" stroke-linecap="round" stroke-linejoin="round"/>
<path d="M64.6879 60.5537C64.6879 60.5537 53.7879 49.4537 45.1879 47.3537C36.5879 45.2537 25.5879 47.4537 25.5879 47.4537" stroke="#000631" stroke-width="1.4" stroke-linecap="round" stroke-linejoin="round"/>
<path d="M59.9879 33.3537C59.9879 33.3537 56.0879 24.2537 50.0879 24.0537" stroke="#000631" stroke-width="1.4" stroke-linecap="round" stroke-linejoin="round"/>
<path d="M87.5879 117.954C87.5879 117.954 55.5879 99.0537 38.5879 107.154" stroke="#000631" stroke-width="1.4" stroke-linecap="round" stroke-linejoin="round"/>
<path d="M81.8879 126.054C81.8879 126.054 75.8879 126.354 69.0879 132.554" stroke="#000631" stroke-width="1.4" stroke-linecap="round" stroke-linejoin="round"/>
</svg>
