<svg width="291" height="416" viewBox="0 0 291 416" fill="none" xmlns="http://www.w3.org/2000/svg">
<path d="M1.5 0.976135H289.3V414.476H1.5V0.976135Z" fill="#FFF8E6"/>
<path d="M26.7002 25.2761L100.6 25.5761V119.376L26.7002 118.776V25.2761Z" fill="white"/>
<path d="M52.9002 89.7761C52.9002 89.7761 49.7002 97.9762 49.4002 100.876C49.0002 103.776 47.0002 109.276 46.3002 119.376L26.7002 118.776V105.276L41.3002 97.5761L41.6002 94.9761L52.9002 87.2761V89.7761Z" fill="#6BD4CD"/>
<path d="M78.7002 83.8762L79.8002 91.2761C79.8002 91.2761 82.1002 95.7761 82.4002 96.6761C82.6002 97.5761 84.3002 103.476 84.8002 105.376C85.3002 107.376 86.6002 118.576 86.6002 118.576C86.6002 118.576 86.4002 119.476 87.2002 119.376C88.0002 119.276 100.6 119.376 100.6 119.376V99.5761L92.4002 95.8762C92.4002 95.8762 91.5002 92.4761 89.9002 91.4761C88.4002 90.5761 78.7002 83.8762 78.7002 83.8762Z" fill="#6BD4CD"/>
<path d="M53.2 83.8762C53.2 83.8762 60.3 89.7762 61.5 90.3762C62.7 90.9762 70.4 90.8761 71.2 90.4761C72 90.0761 74.1 87.3761 74.4 86.9761C74.7 86.5761 78.3 82.3762 78.3 82.3762L78.7 83.8762C78.7 83.8762 73.1 91.1761 71.2 92.6761C69.4 94.0761 62.6 92.2761 61.5 92.2761C60.5 92.2761 53 85.4761 53 85.4761L53.2 83.8762Z" fill="#000631"/>
<path d="M56.0998 58.1762C56.0998 58.2762 55.8998 59.1762 56.8998 59.8762C57.8998 60.4762 58.6998 59.2762 58.9998 59.1762C59.1998 59.1762 59.5998 58.1762 59.3998 58.1762C59.1998 58.2762 58.8998 58.0762 58.5998 57.9762C58.2998 57.7762 56.0998 58.1762 56.0998 58.1762Z" fill="#000631"/>
<path d="M71.7002 58.3762C71.7002 58.3762 72.2002 59.4761 73.2002 59.9761C74.2002 60.4761 75.0002 59.3761 75.0002 58.7761C75.1002 58.2761 74.7002 58.3761 74.7002 58.2761C74.7002 58.2761 72.8002 57.6762 71.7002 58.3762Z" fill="#000631"/>
<path d="M61.3999 266.976L61.8999 214.376L76.4999 214.776V266.976H61.3999Z" fill="#344A6B"/>
<path d="M95 227.576V266.776L110.5 266.576L110.1 227.576H95Z" fill="#344A6B"/>
<path d="M128.8 200.976L143.7 201.076V266.776L128.6 266.576L128.8 200.976Z" fill="#344A6B"/>
<path d="M162.3 214.376H177.4L177.3 266.976H162.3V214.376Z" fill="#344A6B"/>
<path d="M195.8 218.876L210.9 218.776V266.976H195.8V218.876Z" fill="#344A6B"/>
<path fill-rule="evenodd" clip-rule="evenodd" d="M126.4 344.376C126.4 368.276 107 387.676 83.0998 387.676C59.1998 387.676 39.7998 368.276 39.7998 344.376C39.7998 320.476 59.1998 301.076 83.0998 301.076C107 301.076 126.4 320.476 126.4 344.376ZM104.8 344.376C104.8 332.376 95.0998 322.676 83.0998 322.676C71.0998 322.676 61.3998 332.376 61.3998 344.376C61.3998 356.376 71.0998 366.076 83.0998 366.076C95.0998 366.076 104.8 356.376 104.8 344.376Z" fill="#6BD4CD"/>
<path fill-rule="evenodd" clip-rule="evenodd" d="M251.1 344.376C251.1 368.276 231.7 387.676 207.8 387.676C183.9 387.676 164.5 368.276 164.5 344.376C164.5 320.476 183.9 301.076 207.8 301.076C231.7 301.076 251.1 320.476 251.1 344.376ZM229.5 344.376C229.5 332.376 219.8 322.676 207.8 322.676C195.8 322.676 186.1 332.376 186.1 344.376C186.1 356.376 195.8 366.076 207.8 366.076C219.8 366.076 229.5 356.376 229.5 344.376Z" fill="#6BD4CD"/>
<path d="M63.5 305.676L73.2 324.876C73.2 324.876 77.1 322.876 83.1 322.676C89.1 322.476 96.1 325.576 99 329.376L116.1 316.276C116.1 316.276 108.2 305.476 91.4 301.776C74.5 298.176 63.5 305.676 63.5 305.676Z" fill="#5EBCB3"/>
<path d="M98.9999 329.376L116.1 316.276C116.1 316.276 129.8 331.576 125.8 352.076C121.1 375.276 104.7 381.776 98.0999 385.476L89.3999 365.776C89.3999 365.776 101.2 361.776 104.1 350.676C107 339.476 101.7 331.576 98.9999 329.376Z" fill="#90F4EA"/>
<path d="M176.2 314.776L192.8 328.476C192.8 328.476 197.8 323.576 205.2 322.676C212.7 321.776 222.1 325.976 225.1 330.976L241 316.476C241 316.476 231.1 303.276 212.4 301.276C193.6 299.276 179 310.276 176.2 314.776Z" fill="#90F4EA"/>
<path d="M203.7 366.476L198.1 386.576C198.1 386.576 212 390.476 227 383.176C242.1 375.976 249.3 361.776 249.7 355.576L229.5 348.976C229.5 348.976 227.5 354.976 224.6 358.376C221.7 361.876 214.4 367.076 203.7 366.476Z" fill="#50A59B"/>
<path d="M225.1 330.976L241 316.476C241 316.476 247.1 323.776 249.4 332.876C251.6 341.676 251.7 349.576 249.7 355.576L229.5 348.976C229.5 348.976 231.4 337.476 225.1 330.976Z" fill="#5EBCB3"/>
<path d="M1.5 0.976135V414.476H289.3V0.976135H1.70001" stroke="#000631" stroke-width="1.8" stroke-linecap="round" stroke-linejoin="round"/>
<path d="M26.7002 25.2761V119.376H100.6V25.2761H27.1002" stroke="#000631" stroke-width="1.3" stroke-linecap="round" stroke-linejoin="round"/>
<path d="M119.6 44.2761H262.6" stroke="#000631" stroke-width="2.2" stroke-linecap="round" stroke-linejoin="round"/>
<path d="M119.6 79.6761H262.6" stroke="#000631" stroke-width="2.2" stroke-linecap="round" stroke-linejoin="round"/>
<path d="M26.2998 144.776H266.6" stroke="#000631" stroke-width="2.2" stroke-linecap="round" stroke-linejoin="round"/>
<path d="M26.2998 173.076H266.6" stroke="#000631" stroke-width="2.2" stroke-linecap="round" stroke-linejoin="round"/>
<path d="M41.7002 199.776V272.176" stroke="#000631" stroke-width="1.3" stroke-linecap="round" stroke-linejoin="round"/>
<path d="M36 266.776H235.4" stroke="#000631" stroke-width="1.3" stroke-linecap="round" stroke-linejoin="round"/>
<path d="M61.6001 266.776V214.376H76.5001V266.776" stroke="#000631" stroke-width="0.9" stroke-linecap="round" stroke-linejoin="round"/>
<path d="M95.2002 266.776V227.276H110.1V266.776" stroke="#000631" stroke-width="0.9" stroke-linecap="round" stroke-linejoin="round"/>
<path d="M128.8 266.776V201.176H143.7V266.776" stroke="#000631" stroke-width="0.9" stroke-linecap="round" stroke-linejoin="round"/>
<path d="M162.4 266.776V214.376H177.3V266.776" stroke="#000631" stroke-width="0.9" stroke-linecap="round" stroke-linejoin="round"/>
<path d="M196 266.776V218.876H210.9V266.776" stroke="#000631" stroke-width="0.9" stroke-linecap="round" stroke-linejoin="round"/>
<path d="M83.2998 301.076C107.2 301.176 126.4 320.476 126.4 344.376C126.4 368.276 107 387.676 83.0998 387.676C59.1998 387.676 39.7998 368.276 39.7998 344.376C39.7998 320.476 59.1998 301.076 83.0998 301.076" stroke="#000631" stroke-linecap="round" stroke-linejoin="round"/>
<path d="M83.1997 322.476C95.1997 322.476 105 332.276 105 344.376C105 356.476 95.1997 366.276 83.0997 366.276C70.9997 366.276 61.1997 356.476 61.1997 344.376C61.1997 332.276 70.9997 322.476 83.0997 322.476" stroke="#000631" stroke-linecap="round" stroke-linejoin="round"/>
<path d="M73.2 324.176L63.5 305.676" stroke="#000631" stroke-linecap="round" stroke-linejoin="round"/>
<path d="M99 329.376L116.1 316.276" stroke="#000631" stroke-linecap="round" stroke-linejoin="round"/>
<path d="M89.0996 365.376L97.8996 385.076" stroke="#000631" stroke-linecap="round" stroke-linejoin="round"/>
<path d="M208 301.076C231.9 301.176 251.1 320.476 251.1 344.376C251.1 368.276 231.7 387.676 207.8 387.676C183.9 387.676 164.5 368.276 164.5 344.376C164.5 320.476 183.9 301.076 207.8 301.076" stroke="#000631" stroke-linecap="round" stroke-linejoin="round"/>
<path d="M207.9 322.476C219.9 322.476 229.7 332.276 229.7 344.376C229.7 356.476 219.9 366.276 207.8 366.276C195.7 366.276 185.9 356.476 185.9 344.376C185.9 332.276 195.7 322.476 207.8 322.476" stroke="#000631" stroke-linecap="round" stroke-linejoin="round"/>
<path d="M192.8 328.476L176.8 314.776" stroke="#000631" stroke-linecap="round" stroke-linejoin="round"/>
<path d="M225 331.076L241 316.476" stroke="#000631" stroke-linecap="round" stroke-linejoin="round"/>
<path d="M203.8 366.076L198.1 386.376" stroke="#000631" stroke-linecap="round" stroke-linejoin="round"/>
<path d="M229.7 348.976L249.7 355.576" stroke="#000631" stroke-linecap="round" stroke-linejoin="round"/>
<path d="M48.6002 49.1761C48.6002 49.1761 48.1002 58.4761 47.7002 61.0761C47.2002 63.7761 50.6002 78.9761 51.9002 82.0761C53.0002 84.6761 59.1002 88.8761 61.0002 90.1761C61.4002 90.3761 61.8335 90.4761 62.3002 90.4761H70.5002C71.0002 90.4761 71.5002 90.2762 71.9002 89.8762C73.6002 87.9762 78.7002 82.0762 80.2002 79.8762C82.0002 77.2762 82.8002 61.2761 82.8002 61.2761" stroke="#000631" stroke-width="1.1" stroke-linecap="round" stroke-linejoin="round"/>
<path d="M53.2 83.8762C53.2 83.8762 52.3 95.3761 51 97.5761" stroke="#000631" stroke-width="1.1" stroke-linecap="round" stroke-linejoin="round"/>
<path d="M78.6001 81.9761C78.6001 81.9761 78.9001 93.1762 81.1001 95.3762" stroke="#000631" stroke-width="1.1" stroke-linecap="round" stroke-linejoin="round"/>
<path d="M78.7002 83.8762C78.7002 83.8762 89.9002 91.3762 90.4002 91.8762C90.8002 92.2762 94.3002 102.476 95.7002 104.176C95.7002 104.176 89.0002 102.876 88.2002 101.076" stroke="#000631" stroke-width="1.1" stroke-linecap="round" stroke-linejoin="round"/>
<path d="M89.9003 93.5761C89.9003 93.5761 88.2003 95.3762 87.7003 99.3762C87.4003 101.976 86.9003 110.676 87.0003 118.576" stroke="#000631" stroke-width="1.1" stroke-linecap="round" stroke-linejoin="round"/>
<path d="M100.6 99.5761C96.2003 97.6761 92.6003 96.0762 91.8003 95.3762" stroke="#000631" stroke-width="1.1" stroke-linecap="round" stroke-linejoin="round"/>
<path d="M52.5003 90.4761C52.5003 90.4761 47.7003 102.276 46.3003 118.776" stroke="#000631" stroke-width="1.1" stroke-linecap="round" stroke-linejoin="round"/>
<path d="M26.7002 105.276C33.1002 101.776 40.7002 97.5761 40.7002 97.5761" stroke="#000631" stroke-width="1.1" stroke-linecap="round" stroke-linejoin="round"/>
<path d="M52.9004 87.2761C52.9004 87.2761 41.4004 94.4762 41.3004 95.3762C41.3004 96.2762 39.1004 105.976 36.9004 109.076C36.9004 109.076 41.7004 107.276 43.5004 105.076" stroke="#000631" stroke-width="1.1" stroke-linecap="round" stroke-linejoin="round"/>
<path d="M41.3003 95.3762C41.3003 95.3762 44.4003 106.276 46.6003 115.376" stroke="#000631" stroke-width="1.1" stroke-linecap="round" stroke-linejoin="round"/>
<path d="M79.4004 90.4761C79.4004 90.4761 84.1004 97.3761 85.5004 109.976C85.9004 113.476 86.3004 116.676 86.6004 119.376" stroke="#000631" stroke-width="1.1" stroke-linecap="round" stroke-linejoin="round"/>
<path d="M49.2002 101.476C49.2002 101.476 53.0002 111.376 65.3002 112.876C77.5002 114.376 83.5002 100.276 83.5002 100.276" stroke="#000631" stroke-width="1.1" stroke-linecap="round" stroke-linejoin="round"/>
<path d="M48.1001 105.976C48.1001 105.976 54.0001 115.976 67.1001 115.376C80.2001 114.876 84.3001 103.076 84.3001 103.076" stroke="#000631" stroke-width="0.9" stroke-linecap="round" stroke-linejoin="round"/>
<path d="M47.0003 61.7761C47.0003 61.7761 45.3003 58.7761 44.0003 58.9761C42.6003 59.0761 43.9003 70.5761 44.4003 71.9761C44.8003 73.2761 48.0003 75.9761 49.7003 74.1761" stroke="#000631" stroke-width="1.1" stroke-linecap="round" stroke-linejoin="round"/>
<path d="M44 61.4761C44 61.4761 46.5 64.8761 47.7 69.4761C47.7 69.4761 45.5 67.8761 45.8 71.6761" stroke="#000631" stroke-width="1.1" stroke-linecap="round" stroke-linejoin="round"/>
<path d="M45.8002 64.5761C45.8002 64.5761 44.5002 66.2761 44.9002 67.7761" stroke="#000631" stroke-width="1.1" stroke-linecap="round" stroke-linejoin="round"/>
<path d="M82.8001 60.1762C82.8001 60.1762 83.3001 57.3762 84.6001 58.1762C85.9001 59.0762 86.4001 63.5761 86.4001 65.2761C86.4001 67.0761 85.1001 72.3762 84.2001 73.6762C83.3001 75.0762 81.6001 74.3762 81.6001 74.3762" stroke="#000631" stroke-width="1.1" stroke-linecap="round" stroke-linejoin="round"/>
<path d="M85.1003 60.4761C85.1003 60.4761 82.8003 66.5761 82.8003 70.5761C82.8003 70.5761 84.6003 67.4761 85.1003 69.2761" stroke="#000631" stroke-width="1.1" stroke-linecap="round" stroke-linejoin="round"/>
<path d="M84.3003 62.9761C84.3003 62.9761 85.9003 64.3761 85.1003 66.1761" stroke="#000631" stroke-width="1.1" stroke-linecap="round" stroke-linejoin="round"/>
<path d="M47.0004 59.9761C47.0004 59.9761 43.3004 52.5761 43.4004 50.5761C43.5004 48.4761 44.0004 45.0761 44.0004 45.0761" stroke="#000631" stroke-width="1.1" stroke-linecap="round" stroke-linejoin="round"/>
<path d="M45.3003 37.3762C45.3003 37.3762 43.7003 49.2761 48.2003 55.2761" stroke="#000631" stroke-width="0.8" stroke-linecap="round" stroke-linejoin="round"/>
<path d="M45.8003 35.8761C46.1003 35.6761 47.5003 32.1761 50.6003 31.2761C53.7003 30.3761 58.5003 31.2761 58.5003 31.2761" stroke="#000631" stroke-width="0.8" stroke-linecap="round" stroke-linejoin="round"/>
<path d="M57.7002 33.3762C58.1002 33.4762 62.1002 28.5761 63.8002 28.5761" stroke="#000631" stroke-width="0.8" stroke-linecap="round" stroke-linejoin="round"/>
<path d="M66.9004 29.4761C66.9004 29.4761 74.0004 32.1761 75.3004 35.6761" stroke="#000631" stroke-width="0.8" stroke-linecap="round" stroke-linejoin="round"/>
<path d="M69.6001 29.0761C70.0001 29.0761 84.1001 32.9761 84.8001 35.1761" stroke="#000631" stroke-width="0.8" stroke-linecap="round" stroke-linejoin="round"/>
<path d="M85.9003 38.2761C85.9003 38.2761 86.3003 51.4762 84.8003 54.8762" stroke="#000631" stroke-width="0.8" stroke-linecap="round" stroke-linejoin="round"/>
<path d="M87.5001 46.3762C87.5001 46.3762 86.4001 55.1761 84.6001 58.1761" stroke="#000631" stroke-width="0.8" stroke-linecap="round" stroke-linejoin="round"/>
<path d="M72.7002 40.9761C72.7002 40.9761 81.5002 50.7761 82.8002 51.1761C84.2002 51.5761 85.3002 52.5761 85.3002 52.5761" stroke="#000631" stroke-width="0.8" stroke-linecap="round" stroke-linejoin="round"/>
<path d="M55.4004 40.9761C55.4004 40.9761 57.6004 34.7761 61.6004 34.7761" stroke="#000631" stroke-width="0.8" stroke-linecap="round" stroke-linejoin="round"/>
<path d="M63.8003 34.7761C63.8003 34.7761 72.2003 46.7761 75.3003 47.5761" stroke="#000631" stroke-width="0.8" stroke-linecap="round" stroke-linejoin="round"/>
<path d="M56.8003 41.8762C56.8003 41.8762 63.2003 39.5761 67.9003 40.2761" stroke="#000631" stroke-width="0.8" stroke-linecap="round" stroke-linejoin="round"/>
<path d="M59.9004 40.9762C59.9004 40.9762 61.4004 36.4761 65.3004 36.7761" stroke="#000631" stroke-width="0.8" stroke-linecap="round" stroke-linejoin="round"/>
<path d="M74.4004 48.4761C74.4004 48.4761 80.2004 54.5761 84.0004 53.5761" stroke="#000631" stroke-width="0.8" stroke-linecap="round" stroke-linejoin="round"/>
<path d="M79.0001 52.1761C78.9001 52.0761 83.7001 58.1761 83.7001 58.1761" stroke="#000631" stroke-width="0.8" stroke-linecap="round" stroke-linejoin="round"/>
<path d="M80.6001 43.1761C80.6001 43.1761 82.8001 49.1761 83.7001 49.9761" stroke="#000631" stroke-width="0.8" stroke-linecap="round" stroke-linejoin="round"/>
<path d="M55.4 42.4761C55.4 42.4761 52.3 40.9761 51 40.9761" stroke="#000631" stroke-width="0.8" stroke-linecap="round" stroke-linejoin="round"/>
<path d="M52.2002 38.2761C52.2002 38.2761 49.7002 42.2761 49.2002 44.4761C48.8002 46.6761 48.2002 48.0761 48.2002 48.0761" stroke="#000631" stroke-width="0.8" stroke-linecap="round" stroke-linejoin="round"/>
<path d="M53.2 42.4761C53.2 42.4761 50.5 46.3761 49 48.0761" stroke="#000631" stroke-width="0.8" stroke-linecap="round" stroke-linejoin="round"/>
<path d="M50.2002 34.7761C50.2002 34.7761 51.3002 33.4762 56.2002 35.8762" stroke="#000631" stroke-width="0.8" stroke-linecap="round" stroke-linejoin="round"/>
<path d="M54.2002 74.5761L54.3002 78.7761" stroke="#000631" stroke-width="0.6" stroke-linecap="round" stroke-linejoin="round"/>
<path d="M54.8003 80.9761C54.8003 80.9761 54.7004 84.8761 55.4004 86.4761" stroke="#000631" stroke-width="0.6" stroke-linecap="round" stroke-linejoin="round"/>
<path d="M59.2004 80.9761C59.2004 81.4761 58.4004 87.8761 59.9004 89.7761" stroke="#000631" stroke-width="0.6" stroke-linecap="round" stroke-linejoin="round"/>
<path d="M62.4004 82.3762C62.4004 82.3762 61.4004 89.3761 62.3004 90.4761" stroke="#000631" stroke-width="0.6" stroke-linecap="round" stroke-linejoin="round"/>
<path d="M65.8003 83.1761C65.8003 83.1761 65.4003 89.8761 65.8003 90.7761" stroke="#000631" stroke-width="0.6" stroke-linecap="round" stroke-linejoin="round"/>
<path d="M68.5 83.8762C68.5 83.8762 68.5 90.2761 68.5 90.7761" stroke="#000631" stroke-width="0.6" stroke-linecap="round" stroke-linejoin="round"/>
<path d="M71.2002 83.1761C71.2002 83.1761 72.6002 88.1762 71.9002 89.8762" stroke="#000631" stroke-width="0.6" stroke-linecap="round" stroke-linejoin="round"/>
<path d="M72.7002 81.9761C72.7002 81.9761 73.3002 84.9762 73.3002 85.8762" stroke="#000631" stroke-width="0.6" stroke-linecap="round" stroke-linejoin="round"/>
<path d="M65.6001 78.7761L65.8001 80.2761" stroke="#000631" stroke-width="0.6" stroke-linecap="round" stroke-linejoin="round"/>
<path d="M67 78.7761C67.1 79.2761 67.3 80.9761 67.3 80.9761" stroke="#000631" stroke-width="0.6" stroke-linecap="round" stroke-linejoin="round"/>
<path d="M67.9004 79.4761V80.2761" stroke="#000631" stroke-width="0.6" stroke-linecap="round" stroke-linejoin="round"/>
<path d="M74.4004 78.4761C74.4004 78.4761 74.7004 79.6761 74.4004 80.9761" stroke="#000631" stroke-width="0.6" stroke-linecap="round" stroke-linejoin="round"/>
<path d="M75.3003 71.9761C75.3003 71.9761 76.3003 76.9761 76.1003 78.7761" stroke="#000631" stroke-width="0.6" stroke-linecap="round" stroke-linejoin="round"/>
<path d="M77.3003 73.8762C77.3003 73.8762 77.3003 76.9761 77.3003 78.7761" stroke="#000631" stroke-width="0.6" stroke-linecap="round" stroke-linejoin="round"/>
<path d="M52.9004 76.6761C52.9004 76.6761 53.0004 79.8762 53.2004 81.3762" stroke="#000631" stroke-width="0.6" stroke-linecap="round" stroke-linejoin="round"/>
<path d="M78.3003 76.3762V78.9761" stroke="#000631" stroke-width="0.6" stroke-linecap="round" stroke-linejoin="round"/>
<path d="M55.1001 72.6761C55.7001 72.5761 60.7001 71.4761 61.9001 71.9761" stroke="#000631" stroke-width="0.6" stroke-linecap="round" stroke-linejoin="round"/>
<path d="M56.8003 71.6761C56.8003 71.6761 58.8003 70.7761 59.9003 71.2761" stroke="#000631" stroke-width="0.6" stroke-linecap="round" stroke-linejoin="round"/>
<path d="M71.5 71.1762C71.6 71.2762 74.2 70.5762 75.3 71.1762" stroke="#000631" stroke-width="0.6" stroke-linecap="round" stroke-linejoin="round"/>
<path d="M67 71.9761L69.6 71.8762C69.6 71.8762 71.1 71.8761 73.3 71.9761" stroke="#000631" stroke-width="0.6" stroke-linecap="round" stroke-linejoin="round"/>
<path d="M64.5003 72.2761H63.3003" stroke="#000631" stroke-width="0.6" stroke-linecap="round" stroke-linejoin="round"/>
<path d="M67 76.6761C70.3 75.8761 73 73.0761 73 73.0761C71.8 73.5761 67.1 73.8762 65.6 73.8762C64.1 73.8762 57.5 73.8762 57.5 73.8762C57.5 73.8762 60.9 76.2761 64.5 76.6761" stroke="#000631" stroke-width="0.6" stroke-linecap="round" stroke-linejoin="round"/>
<path d="M59.9004 73.8762L60.2004 75.3762" stroke="#000631" stroke-width="0.6" stroke-linecap="round" stroke-linejoin="round"/>
<path d="M71.2 73.4761L71 74.7761" stroke="#000631" stroke-width="0.6" stroke-linecap="round" stroke-linejoin="round"/>
<path d="M63.2999 70.0761C63.2999 70.0761 62.6999 69.4761 63.1999 69.4761C63.5999 69.4761 64.4999 70.4761 64.4999 70.4761" stroke="#000631" stroke-width="0.6" stroke-linecap="round" stroke-linejoin="round"/>
<path d="M66.7002 70.3762C66.7002 70.3762 67.9002 69.0762 67.9002 69.4762" stroke="#000631" stroke-width="0.6" stroke-linecap="round" stroke-linejoin="round"/>
<path d="M68.9 69.9761C68.9 69.9761 69.4 68.5761 68.5 68.1761" stroke="#000631" stroke-width="0.6" stroke-linecap="round" stroke-linejoin="round"/>
<path d="M61.8001 70.3762C61.8001 70.3762 61.1001 68.6761 61.9001 68.4761" stroke="#000631" stroke-width="0.6" stroke-linecap="round" stroke-linejoin="round"/>
<path d="M64.5 66.8761C64.5 66.8761 65.5 66.4761 66.1 66.8761" stroke="#000631" stroke-width="0.6" stroke-linecap="round" stroke-linejoin="round"/>
<path d="M60.9004 58.9761C60.9004 58.9761 59.7004 57.7762 58.3004 57.8762C56.1004 57.9762 54.3004 58.4761 53.4004 59.7761" stroke="#000631" stroke-width="0.6" stroke-linecap="round" stroke-linejoin="round"/>
<path d="M53.8003 59.7761C53.8003 59.7761 56.1003 60.8761 58.5003 60.7761" stroke="#000631" stroke-width="0.6" stroke-linecap="round" stroke-linejoin="round"/>
<path d="M60 61.5761L60.9 60.7761" stroke="#000631" stroke-width="0.6" stroke-linecap="round" stroke-linejoin="round"/>
<path d="M69.6001 60.2761L70.7001 61.1761" stroke="#000631" stroke-width="0.6" stroke-linecap="round" stroke-linejoin="round"/>
<path d="M70.2002 59.3761C70.2002 59.3761 71.6002 58.0761 73.3002 58.0761C75.1002 57.9761 76.3002 59.3761 76.8002 59.7761" stroke="#000631" stroke-width="0.6" stroke-linecap="round" stroke-linejoin="round"/>
<path d="M71.1001 60.7761C71.1001 60.7761 75.1001 60.6761 76.4001 60.4761" stroke="#000631" stroke-width="0.6" stroke-linecap="round" stroke-linejoin="round"/>
<path d="M60.9004 55.5761C60.9004 55.5761 62.8004 58.6761 62.8004 61.1761" stroke="#000631" stroke-width="0.6" stroke-linecap="round" stroke-linejoin="round"/>
<path d="M68.8004 55.1761C68.8004 55.1761 67.9004 56.4761 67.9004 57.4761" stroke="#000631" stroke-width="0.6" stroke-linecap="round" stroke-linejoin="round"/>
<path d="M69.6001 54.8762C69.6001 54.8762 73.7001 53.9761 75.7001 54.2761C77.3001 54.4761 78.3001 55.4761 78.3001 55.4761" stroke="#000631" stroke-width="0.9" stroke-linecap="round" stroke-linejoin="round"/>
<path d="M59.9 54.7761C59.4 54.7761 55.9 54.2762 54.5 54.6762C53.3 55.0762 51.5 56.4762 51.5 56.4762" stroke="#000631" stroke-width="0.9" stroke-linecap="round" stroke-linejoin="round"/>
<path d="M56.1 58.1761C56.1 58.1761 55.8 59.7761 57.5 59.9761C59.2 60.1761 59.8 58.2761 59.1 57.9761" stroke="#000631" stroke-width="0.6" stroke-linecap="round" stroke-linejoin="round"/>
<path d="M71.7002 58.3762C71.7002 58.3762 72.0002 59.7761 73.3002 59.9761C74.7002 60.1761 75.3002 58.7762 75.0002 58.3762" stroke="#000631" stroke-width="0.6" stroke-linecap="round" stroke-linejoin="round"/>
</svg>
