<svg width="204" height="541" viewBox="0 0 204 541" fill="none" xmlns="http://www.w3.org/2000/svg">
<path d="M65.4998 251.876L77.9998 253.676L82.1998 253.876V254.976C82.1998 254.976 100.3 256.576 107.9 255.976C115.5 255.276 125.3 253.576 125.3 253.576L125.6 252.676L128.2 251.576C128.2 251.576 129.5 253.076 130.4 252.876C131.4 252.676 134.8 250.676 135.5 250.376C136.1 249.976 144.1 246.276 144.1 246.276C144.1 246.276 145.1 247.676 144.6 247.576C144.1 247.376 139.8 249.876 138.5 250.476C137.2 251.076 132.7 254.876 132.3 255.376C131.9 255.876 128.7 259.276 128.7 259.276C128.7 259.276 130.9 260.676 131.9 260.376C131.9 260.376 130.5 263.076 131.2 263.376C131.9 263.776 136.5 261.776 137.4 261.476C138.3 261.076 148.4 255.376 148.9 256.176C149.4 256.876 150.3 257.776 149 258.676C147.8 259.576 139.6 266.576 138.9 267.776C138.3 269.076 138.6 270.276 140.3 269.676C142 269.076 148.1 264.876 148.7 264.276C149.4 263.776 150 263.376 150 263.376C150 263.376 152.8 288.876 152.1 291.876C151.5 294.976 152.2 305.876 152.2 305.876L152.9 319.976L154.1 349.876L154.8 391.876C154.8 391.876 154.9 407.976 154.8 409.276C154.6 410.676 154 413.676 153.8 416.876C153.6 420.176 154.4 441.276 154.4 441.276C154.4 441.276 154 456.076 153.3 458.676C152.5 461.376 150.4 485.176 150.4 486.276C150.4 487.276 152.5 492.076 152.5 493.076C152.5 494.176 150.8 501.576 150.9 502.376C150.9 503.176 151.3 505.776 151.3 505.776C151.3 505.776 138.5 506.076 136.3 506.476C134 506.876 133 507.376 130.1 508.976C127.2 510.576 125.5 512.576 125.5 512.576C125.5 512.576 121.3 504.776 121.3 503.676C121.3 502.576 121.9 501.076 121.3 499.476C120.8 497.876 120.8 495.776 120.8 494.676C120.8 493.676 122.4 471.476 122.4 471.476L123.5 456.676C123.5 456.676 124 444.976 124 438.176C124 431.276 122.4 408.076 121.9 402.776C121.3 397.476 116.1 375.776 116.1 375.776L108.1 341.476L103.4 321.376L98.2998 321.776C98.2998 321.776 90.9998 355.376 89.7998 358.976C88.5998 362.576 84.1998 376.476 84.1998 376.476L79.8998 397.976C79.8998 397.976 77.4998 407.476 77.9998 409.076C78.4998 410.676 79.6998 427.276 79.3998 432.776C79.0998 438.176 77.9998 450.976 77.9998 450.976C77.9998 450.976 76.4998 472.376 76.6998 475.376C76.9998 478.276 77.9998 486.676 77.9998 488.276C77.9998 489.976 78.2998 491.776 76.7998 493.276C75.3998 494.676 73.6998 497.976 73.4998 498.676C73.2998 499.476 74.1998 501.776 73.4998 502.776C72.6998 503.676 71.5998 507.376 70.7998 508.976C70.0998 510.576 69.7998 511.776 69.3998 511.976C68.9998 512.176 54.2998 508.476 53.6998 507.876C53.1998 507.376 45.1998 507.876 43.0998 507.876C40.9998 507.876 38.1998 508.076 38.4998 507.176C38.8998 506.276 42.5998 502.576 43.6998 500.476C44.6998 498.376 43.8998 485.676 43.8998 485.676L43.6998 460.376V423.876C43.6998 423.876 44.8998 410.376 44.7998 408.976C44.6998 407.476 43.9998 406.676 44.5998 405.776C45.2998 404.876 46.7998 401.676 46.7998 401.176C46.7998 400.676 45.8998 385.676 45.8998 385.676L44.4998 354.176C44.4998 354.176 45.4998 331.976 45.3998 328.776C45.2998 325.576 47.5998 293.676 47.5998 293.676L48.9998 274.376C48.9998 274.376 55.5998 279.076 57.4998 279.576C59.4998 280.176 59.5998 278.776 59.5998 278.776C59.5998 278.776 60.5998 278.576 62.1998 278.576C63.6998 278.576 63.1998 276.976 62.6998 275.876C62.1998 274.876 50.9998 263.276 50.9998 263.276C50.9998 263.276 51.5998 262.176 53.1998 262.676C54.7998 263.276 64.7998 269.576 66.3998 270.076C67.9998 270.676 69.5998 270.576 70.0998 269.776C70.5998 269.076 66.2998 265.476 65.4998 264.676C64.7998 263.776 55.6998 258.076 55.1998 257.476C54.7998 256.876 53.8998 255.176 54.8998 254.476C55.7998 253.676 61.9998 255.576 63.0998 256.276C64.2998 256.876 70.4998 260.176 71.2998 259.576C72.1998 258.976 71.0998 257.676 69.7998 255.976C68.4998 254.276 65.4998 251.876 65.4998 251.876Z" fill="#344A6B"/>
<path d="M85.7001 93.5761L82.1001 104.876C82.1001 104.876 78.6001 120.676 78.0001 127.276C77.5001 133.776 72.8001 186.076 72.8001 186.076L67.8001 224.076C67.8001 224.076 63.9001 240.976 63.1001 243.676C62.2001 246.276 59.6001 249.676 59.6001 249.676L54.9001 248.376L52.0001 248.976L54.9001 244.376L54.2001 218.376L52.3001 187.276L48.7001 168.476L40.0001 180.276C40.0001 180.276 27.8001 173.376 22.5001 168.076C17.2001 162.776 15.1001 155.376 15.1001 155.376L35.0001 125.476C35.0001 125.476 39.1001 119.376 40.6001 119.176C42.1001 118.976 44.8001 118.976 45.8001 117.876C46.8001 116.876 71.2001 104.176 71.2001 104.176C71.2001 104.176 71.9001 100.876 72.8001 100.376C73.8001 99.9761 85.5001 91.7761 85.5001 91.7761L85.7001 93.5761Z" fill="#6BD4CD"/>
<path d="M116.4 87.7761C116.4 87.7761 116.1 94.1761 117.4 95.9761C118.7 97.7761 121.3 104.776 121.3 104.776C121.3 104.776 125.5 121.776 126.3 129.576C126.3 129.576 126.6 142.676 128.2 148.576C129.8 154.376 135 192.076 135 192.076L141.1 229.276L144.6 242.076L151.5 241.576L150.9 221.676L153.5 183.676L155.2 163.876L158.4 167.776L165.2 177.076C165.2 177.076 172.3 176.776 179.3 167.476C186.3 158.076 187.7 154.576 187.7 154.576L188.5 148.576C188.5 148.576 166.8 117.876 164.2 116.276C161.5 114.776 132.4 102.076 132.4 102.076L130.3 97.2761L116.4 87.7761Z" fill="#6BD4CD"/>
<path d="M168.1 176.376C168.1 176.376 174.4 173.076 179.3 167.476C184.2 161.776 187.7 155.376 187.7 155.376L189 157.776C189 157.776 180.8 174.176 169.8 178.276L168.1 176.376Z" fill="#000631"/>
<path d="M16.5998 159.776C16.5998 159.776 19.3998 165.976 24.0998 170.176C28.8998 174.476 35.3998 177.976 35.3998 177.976L32.9998 180.076C32.9998 180.076 19.1998 171.676 15.2998 161.976L16.5998 159.776Z" fill="#000631"/>
<path d="M85.9002 88.2761C85.9002 88.2761 93.6002 94.2761 95.8002 95.5761C98.1002 96.7761 107.5 95.9761 107.8 95.3761C108.1 94.6761 116.4 85.9761 116.4 85.9761L116.3 89.3761C116.3 89.3761 109.7 98.8761 105 99.3761C98.6002 100.176 94.1002 97.8761 91.9002 95.9761C89.6002 94.0761 85.7002 89.7761 85.7002 89.7761L85.9002 88.2761Z" fill="#000631"/>
<path d="M108.1 57.3761C108.1 57.3761 108.4 58.7761 109.6 59.2761C110.8 59.7761 111.6 58.8761 111.7 58.5761C111.8 58.1761 112.4 57.5761 112.4 57.5761C112.4 57.5761 110.8 56.7761 110 56.9761C109.2 57.1761 108.1 57.3761 108.1 57.3761Z" fill="#000631"/>
<path d="M89.4 57.1761C89.4 57.1761 89.3 58.6761 91 59.2761C92.8 59.7761 93.3 57.1761 93.3 57.1761C93.3 57.1761 92.6 56.7761 91.4 56.6761C90.2 56.5761 89.4 57.1761 89.4 57.1761Z" fill="#000631"/>
<path d="M107.5 75.3761L107.2 76.8761L109.4 74.9761L107.5 75.3761Z" fill="#000631"/>
<path d="M93.8999 75.8761L94.1999 77.4761L91.3999 75.9761L93.8999 75.8761Z" fill="#000631"/>
<path d="M80.3998 46.2761C80.3998 46.2761 79.8998 57.3761 79.2998 60.5761C78.7998 63.7761 82.7998 81.9761 84.3998 85.6761C85.6998 88.7761 92.9998 93.7761 95.2998 95.2761C95.7664 95.5428 96.2664 95.6761 96.7998 95.6761H106.5C107.2 95.6761 107.8 95.4761 108.2 94.9761C110.3 92.6761 116.4 85.6761 118.2 83.0761C120.3 79.8761 121.3 60.8762 121.3 60.8762" stroke="#000631" stroke-width="1.3" stroke-linecap="round" stroke-linejoin="round"/>
<path d="M85.8998 87.7761C85.8998 87.7761 84.8998 101.476 83.2998 104.176" stroke="#000631" stroke-width="1.3" stroke-linecap="round" stroke-linejoin="round"/>
<path d="M116.3 85.5761C116.3 85.5761 116.6 98.8761 119.2 101.476" stroke="#000631" stroke-width="1.3" stroke-linecap="round" stroke-linejoin="round"/>
<path d="M116.4 87.7761C116.4 87.7761 129.8 96.7761 130.3 97.2761C130.9 97.7761 135.1 109.976 136.7 112.076C136.7 112.076 128.7 110.476 127.7 108.376" stroke="#000631" stroke-width="1.3" stroke-linecap="round" stroke-linejoin="round"/>
<path d="M129.8 99.3762C129.8 99.3762 127.7 101.476 127.2 106.276C126.6 111.076 125.6 132.676 127.2 141.976C128.7 151.176 139.3 221.976 141.4 230.976C143.5 239.976 144.6 242.076 144.6 242.076" stroke="#000631" stroke-width="1.3" stroke-linecap="round" stroke-linejoin="round"/>
<path d="M155.2 163.876C155.2 163.876 150.4 215.176 150.9 229.976C151.5 244.776 151.5 241.576 151.5 241.576" stroke="#000631" stroke-width="1.3" stroke-linecap="round" stroke-linejoin="round"/>
<path d="M143 143.776C143 143.776 161 172.376 164.7 177.076C164.7 177.076 170.5 178.176 180.5 165.976C190.6 153.876 188.5 148.576 188.5 148.576C188.5 148.576 166.4 117.676 164.2 116.276C156.8 112.076 134.4 103.676 132.1 101.476" stroke="#000631" stroke-width="1.3" stroke-linecap="round" stroke-linejoin="round"/>
<path d="M153.5 160.276C153.5 160.276 152.4 145.776 150.9 143.776" stroke="#000631" stroke-width="1.3" stroke-linecap="round" stroke-linejoin="round"/>
<path d="M163.5 175.476C163.5 175.476 182.1 168.676 186.9 146.976" stroke="#000631" stroke-width="1.1" stroke-linecap="round" stroke-linejoin="round"/>
<path d="M149.4 179.176C149.4 179.176 150.3 208.176 150.9 212.976" stroke="#000631" stroke-width="1.3" stroke-linecap="round" stroke-linejoin="round"/>
<path d="M85.1001 95.6761C85.1001 95.6761 79.1001 110.476 77.5001 131.076C75.9001 151.776 70.6001 233.676 60.6001 248.976" stroke="#000631" stroke-width="1.3" stroke-linecap="round" stroke-linejoin="round"/>
<path d="M56.2002 151.976L52.1002 163.876C49.3002 158.576 53.0002 139.276 53.0002 139.276" stroke="#000631" stroke-width="1.3" stroke-linecap="round" stroke-linejoin="round"/>
<path d="M57.3999 157.576L54.3999 163.876" stroke="#000631" stroke-width="1.3" stroke-linecap="round" stroke-linejoin="round"/>
<path d="M52.1001 163.876L40.0001 180.276C40.0001 180.276 28.9001 175.476 22.5001 168.076C16.2001 160.676 15.1001 155.376 15.1001 155.376C15.1001 155.376 37.3001 121.576 38.9001 119.976C40.5001 118.476 42.1001 119.476 43.7001 118.976C45.3001 118.476 71.0001 104.176 71.0001 104.176" stroke="#000631" stroke-width="1.3" stroke-linecap="round" stroke-linejoin="round"/>
<path d="M85.4999 91.7761C85.4999 91.7761 71.7999 100.476 71.6999 101.476C71.6999 102.576 68.9999 114.176 66.3999 117.876C66.3999 117.876 72.1999 115.776 74.2999 113.176" stroke="#000631" stroke-width="1.3" stroke-linecap="round" stroke-linejoin="round"/>
<path d="M71.7002 101.476C71.7002 101.476 75.4002 114.576 78.0002 125.476" stroke="#000631" stroke-width="1.3" stroke-linecap="round" stroke-linejoin="round"/>
<path d="M117.2 95.6761C117.2 95.6761 122.8 103.976 124.5 118.976C126.1 132.676 127.2 141.976 127.2 141.976" stroke="#000631" stroke-width="1.3" stroke-linecap="round" stroke-linejoin="round"/>
<path d="M81.1001 108.776C81.1001 108.776 85.6001 120.676 100.3 122.476C115 124.276 122.2 107.376 122.2 107.376" stroke="#000631" stroke-width="1.3" stroke-linecap="round" stroke-linejoin="round"/>
<path d="M19.7002 148.576C19.7002 148.576 33.6002 133.776 35.2002 130.576" stroke="#000631" stroke-width="1.3" stroke-linecap="round" stroke-linejoin="round"/>
<path d="M16.2998 153.676C16.2998 153.676 22.3998 171.876 41.4998 178.176" stroke="#000631" stroke-width="1.1" stroke-linecap="round" stroke-linejoin="round"/>
<path d="M48.7002 168.476C48.7002 168.476 56.8002 204.976 58.4002 212.976" stroke="#000631" stroke-width="1.3" stroke-linecap="round" stroke-linejoin="round"/>
<path d="M52 183.676C52 183.676 55.5 229.476 54.8 244.776" stroke="#000631" stroke-width="1.3" stroke-linecap="round" stroke-linejoin="round"/>
<path d="M52 248.976C52 248.976 60.6 236.276 63.7 224.076" stroke="#000631" stroke-width="1.3" stroke-linecap="round" stroke-linejoin="round"/>
<path d="M35.8001 178.176C35.8001 178.176 23.1001 190.276 23.1001 191.876C23.1001 193.476 27.8001 201.376 30.5001 211.476C33.1001 221.476 38.7001 243.976 43.0001 250.176" stroke="#000631" stroke-width="1.3" stroke-linecap="round" stroke-linejoin="round"/>
<path d="M16.3 160.276C16.3 160.276 1.50001 185.276 0.900013 190.676C0.300013 196.076 13.6 228.276 19.7 239.476C25.7 250.576 28.3 254.276 30.5 259.576C32.6 264.776 35.2 268.476 37.9 269.076C40.5 269.576 44.2 268.476 46.8 271.676C49.5 274.876 57.9 281.476 59.5 279.076C60.6 277.476 47.9 266.376 47.9 266.376" stroke="#000631" stroke-width="1.3" stroke-linecap="round" stroke-linejoin="round"/>
<path d="M58.4 276.776C62.1 280.276 65.3001 279.076 62.0001 274.876C58.7001 270.676 51.1001 263.776 51.1001 263.776C51.1001 263.776 50.6 261.376 53.4 262.776C56.3 264.276 62.7001 268.476 64.8001 269.576C66.9001 270.676 69.6001 271.176 70.1001 269.576C70.6001 267.976 61.1001 261.076 59.0001 260.076C56.9001 258.976 53.4 255.976 53.4 255.976" stroke="#000631" stroke-width="1.3" stroke-linecap="round" stroke-linejoin="round"/>
<path d="M54.4999 256.876C54.4999 256.876 54.1999 253.676 56.2999 254.276C58.4999 254.776 62.1999 255.576 62.6999 255.976C63.1999 256.376 71.6999 261.776 71.6999 258.476C71.6999 256.876 63.6999 250.376 61.8999 250.176C60.5999 249.976 54.8999 248.376 54.8999 248.376L44.1999 250.176L39.3999 252.176" stroke="#000631" stroke-width="1.3" stroke-linecap="round" stroke-linejoin="round"/>
<path d="M69.2998 214.876C70.0998 215.176 83.3998 242.576 93.8998 248.976" stroke="#000631" stroke-width="1.3" stroke-linecap="round" stroke-linejoin="round"/>
<path d="M76.3999 215.676C76.3999 215.676 81.1999 221.976 86.9999 224.676" stroke="#000631" stroke-width="1.3" stroke-linecap="round" stroke-linejoin="round"/>
<path d="M136.8 204.076C136.8 204.076 115.5 233.076 109.7 229.376" stroke="#000631" stroke-width="1.3" stroke-linecap="round" stroke-linejoin="round"/>
<path d="M136.8 226.976C136.8 226.976 134 230.476 131.9 231.476" stroke="#000631" stroke-width="1.3" stroke-linecap="round" stroke-linejoin="round"/>
<path d="M82.8999 254.976C94.7999 256.476 110.2 257.376 125.3 253.576" stroke="#000631" stroke-width="1.3" stroke-linecap="round" stroke-linejoin="round"/>
<path d="M64.6001 251.576C64.6001 251.576 69.5001 252.876 77.2001 254.076" stroke="#000631" stroke-width="1.3" stroke-linecap="round" stroke-linejoin="round"/>
<path d="M162.6 244.776C162.6 244.776 158.3 241.576 156.8 241.576C155.2 241.576 144.5 242.276 141.4 242.776C138.3 243.176 135.1 244.776 133 246.876C130.9 248.976 128.2 251.076 128.2 251.076C128.2 251.076 129 254.276 132.8 251.576C136.7 248.976 139.3 246.276 141.4 246.276C143.5 246.276 145.1 247.076 145.1 247.076" stroke="#000631" stroke-width="1.3" stroke-linecap="round" stroke-linejoin="round"/>
<path d="M146.2 246.876C146.2 246.876 138.6 249.976 136.8 251.576C135.1 253.176 128.2 258.376 128.7 259.276C129.3 260.076 131.4 261.676 135.1 258.476C138.8 255.276 148.3 250.576 148.3 250.576" stroke="#000631" stroke-width="1.3" stroke-linecap="round" stroke-linejoin="round"/>
<path d="M131.9 260.676C131.9 260.676 129.8 263.776 133 263.276C136.1 262.676 145.7 256.476 148.3 256.176C150.9 255.876 149.1 259.076 147.6 260.376C146.2 261.676 138.2 266.776 138.5 268.976C138.8 271.176 143.5 268.476 146.7 265.876C149.9 263.276 155.7 259.576 157.3 258.976C158.9 258.476 164.7 256.376 166.3 254.776C167.9 253.176 187.4 220.276 190 216.876C192.7 213.576 202.7 193.476 202.7 190.276C202.7 187.176 196.4 169.676 187.9 155.976" stroke="#000631" stroke-width="1.3" stroke-linecap="round" stroke-linejoin="round"/>
<path d="M168.5 177.076C168.9 177.076 181.1 189.776 181.1 190.276C181.1 190.876 176.3 197.176 173.1 207.176C170 217.276 161.9 238.376 158 241.576" stroke="#000631" stroke-width="1.3" stroke-linecap="round" stroke-linejoin="round"/>
<path d="M79.8999 114.276C79.8999 114.276 86.8999 126.176 102.5 125.476C118.2 124.776 123.1 110.676 123.1 110.676" stroke="#000631" stroke-width="1.1" stroke-linecap="round" stroke-linejoin="round"/>
<path d="M82.6001 266.776C94.6001 268.276 110.8 268.676 126.3 264.276" stroke="#000631" stroke-width="1.3" stroke-linecap="round" stroke-linejoin="round"/>
<path d="M63.7002 263.276C63.7002 263.276 68.8002 264.776 76.8002 265.976" stroke="#000631" stroke-width="1.3" stroke-linecap="round" stroke-linejoin="round"/>
<path d="M111.3 266.976L110.8 255.976" stroke="#000631" stroke-width="1.3" stroke-linecap="round" stroke-linejoin="round"/>
<path d="M99.3999 268.576C99.3999 268.576 103.4 309.776 101.3 320.276" stroke="#000631" stroke-width="1.3" stroke-linecap="round" stroke-linejoin="round"/>
<path d="M101.8 304.076C101.8 304.076 106 303.876 108.1 301.276C110.3 298.676 109.7 268.476 109.7 268.476" stroke="#000631" stroke-width="1.3" stroke-linecap="round" stroke-linejoin="round"/>
<path d="M98.1001 321.376H105.1C105.1 321.376 131.9 302.876 137.7 303.376C143.5 303.876 133.5 306.576 133.5 306.576" stroke="#000631" stroke-width="1.3" stroke-linecap="round" stroke-linejoin="round"/>
<path d="M117.1 316.076C117.1 316.076 131.9 311.276 135.6 310.776" stroke="#000631" stroke-width="1.3" stroke-linecap="round" stroke-linejoin="round"/>
<path d="M75.8999 308.176C75.8999 308.176 88.5999 311.876 92.7999 314.476" stroke="#000631" stroke-width="1.3" stroke-linecap="round" stroke-linejoin="round"/>
<path d="M58.5 310.276C58.5 310.276 61.6 310.276 71.7 312.376C81.7 314.476 99.4 319.276 99.4 319.276" stroke="#000631" stroke-width="1.3" stroke-linecap="round" stroke-linejoin="round"/>
<path d="M58.5 286.276C59.5 286.976 88.1 295.476 89.1 297.076C90.2 298.676 81.2 295.976 81.2 295.976" stroke="#000631" stroke-width="1.3" stroke-linecap="round" stroke-linejoin="round"/>
<path d="M118.8 290.876C118.8 290.876 134 286.576 135.6 286.276" stroke="#000631" stroke-width="1.3" stroke-linecap="round" stroke-linejoin="round"/>
<path d="M125.5 291.876L132.7 290.876" stroke="#000631" stroke-width="1.3" stroke-linecap="round" stroke-linejoin="round"/>
<path d="M48.7999 274.876C48.8999 275.376 45.7999 319.776 44.6999 340.376C43.6999 360.976 46.7999 397.476 46.7999 400.676C46.7999 403.776 43.7999 405.276 44.4999 407.476C45.2999 409.576 44.5999 412.276 44.3999 415.976C44.1999 419.676 43.6999 461.376 43.6999 474.076C43.6999 486.776 44.6999 498.676 43.6999 501.176C42.5999 503.676 37.8999 506.876 38.3999 507.876C38.8999 508.976 50.3999 506.276 54.8999 507.876C59.4999 509.476 65.2999 511.576 67.9999 512.176C70.5999 512.676 70.5999 509.476 71.0999 507.376C71.6999 505.276 74.2999 502.576 73.7999 500.476C73.2999 498.376 73.3999 497.876 73.8999 496.876C74.2999 495.776 77.4999 493.676 77.9999 490.476C78.4999 487.276 75.8999 480.476 76.9999 466.176C77.9999 451.876 79.0999 435.476 79.5999 430.176C80.0999 424.976 77.9999 408.576 78.4999 405.376" stroke="#000631" stroke-width="1.3" stroke-linecap="round" stroke-linejoin="round"/>
<path d="M74.7998 421.276C74.7998 420.676 79.1998 402.376 79.6998 399.376C80.0998 396.376 84.8998 373.176 84.8998 373.176" stroke="#000631" stroke-width="1.3" stroke-linecap="round" stroke-linejoin="round"/>
<path d="M79.7002 389.576C79.7002 389.576 88.1002 363.676 90.2002 357.776C92.3002 351.976 98.3002 322.376 98.3002 322.376" stroke="#000631" stroke-width="1.3" stroke-linecap="round" stroke-linejoin="round"/>
<path d="M103.7 321.376C103.7 321.376 113.4 367.876 117.1 380.576C120.8 393.276 122.4 408.576 122.9 413.276C123.5 418.076 125 442.876 124 451.376C122.9 459.776 124.3 484.576 124.3 484.576" stroke="#000631" stroke-width="1.3" stroke-linecap="round" stroke-linejoin="round"/>
<path d="M123.7 455.776C123.7 455.776 119.8 496.276 120.8 498.376C121.9 500.476 121.3 502.076 121.3 503.676C121.3 505.276 125.4 512.176 125.4 512.176C125.4 512.176 132.4 506.276 137.7 506.276C143 506.276 149.9 506.276 150.9 505.776C152 505.276 150.4 504.576 150.9 501.776C151.5 498.876 152 496.776 152.5 494.176C153.1 491.576 150.9 488.876 150.4 486.276C149.9 483.576 153.1 462.976 154.1 450.276C155.2 437.576 153.1 415.276 154.1 410.576C155.2 405.876 154.7 399.376 154.4 380.476C154.1 361.476 153 317.676 152.5 312.376C152 307.076 152.4 294.476 151.9 286.276C151.5 278.076 150 263.376 150 263.376" stroke="#000631" stroke-width="1.3" stroke-linecap="round" stroke-linejoin="round"/>
<path d="M109 346.076C109 346.076 124.5 391.676 125.6 394.776" stroke="#000631" stroke-width="1.3" stroke-linecap="round" stroke-linejoin="round"/>
<path d="M137.7 414.476C137.2 413.876 128.2 406.476 130.3 406.476C132.4 406.476 140.4 408.076 142.2 406.476" stroke="#000631" stroke-width="1.3" stroke-linecap="round" stroke-linejoin="round"/>
<path d="M125 500.476C125 500.476 132.4 499.076 137.7 496.376C143 493.676 141.9 496.876 139.5 498.476C137.2 499.976 133.6 503.876 133.3 504.576" stroke="#000631" stroke-width="1.3" stroke-linecap="round" stroke-linejoin="round"/>
<path d="M149.9 496.776C149.9 496.776 145.7 501.576 146.7 502.076C147.8 502.576 148.2 503.576 148.2 503.576" stroke="#000631" stroke-width="1.3" stroke-linecap="round" stroke-linejoin="round"/>
<path d="M47.8999 492.576C48.3999 492.576 59.5999 493.276 59.5999 495.276C59.4999 497.376 51.5999 496.776 49.4999 498.876" stroke="#000631" stroke-width="1.3" stroke-linecap="round" stroke-linejoin="round"/>
<path d="M62.7002 502.076C62.7002 502.076 66.9002 503.976 68.5002 503.576C70.1002 503.176 63.7002 504.176 63.2002 505.276" stroke="#000631" stroke-width="1.3" stroke-linecap="round" stroke-linejoin="round"/>
<path d="M56 484.576C56 484.576 70.6 486.776 72.7 488.876C74.8 490.976 71.7 492.076 71.7 492.076" stroke="#000631" stroke-width="1.3" stroke-linecap="round" stroke-linejoin="round"/>
<path d="M40.5002 507.876C40.5002 507.876 35.2002 514.776 32.0002 516.876C28.9002 518.976 24.1002 520.076 22.0002 522.176C19.9002 524.276 18.8002 532.176 22.0002 535.876C22.0002 535.876 25.7002 526.376 27.8002 526.976C29.9002 527.476 31.0002 535.376 36.3002 535.376C41.6002 535.376 50.6002 529.376 53.7002 526.776C56.9002 524.276 60.0002 518.976 61.6002 516.876C63.2002 514.776 68.0002 512.176 68.0002 512.176" stroke="#000631" stroke-width="1.3" stroke-linecap="round" stroke-linejoin="round"/>
<path d="M20.5999 535.876C20.5999 535.876 19.8999 538.576 25.1999 539.076C30.4999 539.576 40.4999 540.176 45.2999 536.976C49.9999 533.776 54.7999 530.076 57.3999 524.776C57.3999 524.776 67.9999 521.776 68.7999 520.376C69.5999 518.976 69.6999 512.176 69.6999 512.176" stroke="#000631" stroke-width="1.3" stroke-linecap="round" stroke-linejoin="round"/>
<path d="M32 516.876C32 516.876 40 513.176 46.3 519.576" stroke="#000631" stroke-width="1.3" stroke-linecap="round" stroke-linejoin="round"/>
<path d="M163.6 532.776C162 533.276 161 530.676 158.9 529.576C156.8 528.476 153.6 533.276 150.9 535.376C148.3 537.476 136.1 532.176 135.6 530.076C135.1 527.976 132.4 521.076 129.3 518.476C126.1 515.876 125.4 512.176 125.4 512.176C125.4 512.176 122.6 516.576 125.4 519.976C127.2 522.176 131.9 522.176 131.9 522.176" stroke="#000631" stroke-width="1.3" stroke-linecap="round" stroke-linejoin="round"/>
<path d="M150.9 505.776C150.9 505.776 155.2 516.876 159.4 520.076C163.6 523.276 165.7 524.776 165.2 527.476C164.7 530.076 164 532.176 162.2 532.476" stroke="#000631" stroke-width="1.3" stroke-linecap="round" stroke-linejoin="round"/>
<path d="M165.3 529.076C165.3 529.076 165.9 530.876 165.3 533.676C164.7 536.476 163.1 538.576 160.5 538.576C157.8 538.576 146.5 541.476 143.4 539.476C140.4 537.476 134 533.276 135.6 530.076" stroke="#000631" stroke-width="1.3" stroke-linecap="round" stroke-linejoin="round"/>
<path d="M142.5 522.676C143 522.676 149 514.276 156.6 516.876" stroke="#000631" stroke-width="1.3" stroke-linecap="round" stroke-linejoin="round"/>
<path d="M137.7 506.276C137.7 506.276 143.5 517.976 145.9 519.576" stroke="#000631" stroke-width="1.1" stroke-linecap="round" stroke-linejoin="round"/>
<path d="M142.5 519.076C142.5 519.076 147.5 512.176 154.8 513.976" stroke="#000631" stroke-width="1.1" stroke-linecap="round" stroke-linejoin="round"/>
<path d="M140.4 515.276C140.4 515.276 147.7 509.476 153.3 511.076" stroke="#000631" stroke-width="1.1" stroke-linecap="round" stroke-linejoin="round"/>
<path d="M138.3 512.176C138.3 512.176 143.7 506.876 151.8 507.876" stroke="#000631" stroke-width="1.1" stroke-linecap="round" stroke-linejoin="round"/>
<path d="M137.2 508.976C137.2 508.976 140 506.276 143.9 506.276" stroke="#000631" stroke-width="1.1" stroke-linecap="round" stroke-linejoin="round"/>
<path d="M45.1001 517.676C45.1001 517.676 50.6001 512.176 53.7001 507.876" stroke="#000631" stroke-width="1.1" stroke-linecap="round" stroke-linejoin="round"/>
<path d="M35.7002 513.176C35.7002 513.176 44.2002 512.176 47.9002 516.376" stroke="#000631" stroke-width="1.1" stroke-linecap="round" stroke-linejoin="round"/>
<path d="M38.3999 510.576C38.3999 510.576 46.2999 509.976 50.1999 514.676" stroke="#000631" stroke-width="1.1" stroke-linecap="round" stroke-linejoin="round"/>
<path d="M39.8999 508.176C39.8999 508.176 49.4999 509.076 52.3999 512.176" stroke="#000631" stroke-width="1.1" stroke-linecap="round" stroke-linejoin="round"/>
<path d="M48.7002 507.676C48.7002 507.676 54.2002 508.776 54.5002 510.176" stroke="#000631" stroke-width="1.1" stroke-linecap="round" stroke-linejoin="round"/>
<path d="M141.5 421.276C141.5 421.276 151.5 419.476 149.9 422.476" stroke="#000631" stroke-width="1.1" stroke-linecap="round" stroke-linejoin="round"/>
<path d="M46.2998 425.476C46.2998 425.476 64.5998 411.376 64.6998 414.476C64.7998 417.576 54.6998 425.276 55.4998 426.476" stroke="#000631" stroke-width="1.1" stroke-linecap="round" stroke-linejoin="round"/>
<path d="M84.3999 328.776C84.3999 328.776 91.7999 326.076 91.1999 328.776" stroke="#000631" stroke-width="1.1" stroke-linecap="round" stroke-linejoin="round"/>
<path d="M78.1999 253.576L77.8999 266.976L81.8999 267.776L82.1999 253.876L77.9999 253.676" stroke="#000631" stroke-width="1.1" stroke-linecap="round" stroke-linejoin="round"/>
<path d="M106 263.776C107.1 262.676 107.2 260.676 105.5 259.876C103.9 258.976 102.4 260.376 102.1 261.776C101.8 263.276 103.9 265.376 106 263.776Z" stroke="#000631" stroke-width="1.3" stroke-linecap="round" stroke-linejoin="round"/>
<path d="M78.5001 61.3761C78.5001 61.3761 76.5001 57.7761 74.9001 57.9761C73.3001 58.1761 74.8001 71.9761 75.4001 73.4761C75.9001 75.0761 79.7001 78.3761 81.8001 76.1761" stroke="#000631" stroke-width="1.3" stroke-linecap="round" stroke-linejoin="round"/>
<path d="M74.8999 60.9761C74.8999 60.9761 77.8999 65.0761 79.2999 70.6761C79.2999 70.6761 76.6999 68.6761 77.0999 73.1761" stroke="#000631" stroke-width="1.3" stroke-linecap="round" stroke-linejoin="round"/>
<path d="M77.1001 64.6761C77.1001 64.6761 75.5001 66.7761 76.0001 68.5761" stroke="#000631" stroke-width="1.3" stroke-linecap="round" stroke-linejoin="round"/>
<path d="M121.3 59.4762C121.3 59.4762 121.9 56.0762 123.5 57.1762C125 58.1762 125.6 63.4761 125.6 65.5761C125.6 67.6761 124 74.0762 122.9 75.6762C121.9 77.1762 119.9 76.4762 119.9 76.4762" stroke="#000631" stroke-width="1.3" stroke-linecap="round" stroke-linejoin="round"/>
<path d="M124 59.7761C124 59.7761 121.3 67.1762 121.3 71.8762C121.3 71.8762 123.5 68.1762 124 70.3762" stroke="#000631" stroke-width="1.3" stroke-linecap="round" stroke-linejoin="round"/>
<path d="M123 62.7761C123 62.7761 125 64.4761 124 66.6761" stroke="#000631" stroke-width="1.3" stroke-linecap="round" stroke-linejoin="round"/>
<path d="M78.4998 59.2761C78.4998 59.2761 73.9998 50.3761 74.1998 47.9761C74.2998 45.4761 74.8998 41.4761 74.8998 41.4761" stroke="#000631" stroke-width="1.3" stroke-linecap="round" stroke-linejoin="round"/>
<path d="M76.5001 32.2761C76.5001 32.2761 74.5001 46.4761 80.0001 53.6761" stroke="#000631" stroke-linecap="round" stroke-linejoin="round"/>
<path d="M77.1001 30.4761C77.5001 30.1761 79.1001 25.9761 82.8001 24.8761C86.5001 23.8761 92.2001 24.8761 92.2001 24.8761" stroke="#000631" stroke-linecap="round" stroke-linejoin="round"/>
<path d="M91.2002 27.4761C91.8002 27.5761 96.5002 21.6761 98.6002 21.6761" stroke="#000631" stroke-linecap="round" stroke-linejoin="round"/>
<path d="M102.3 22.7761C102.3 22.7761 110.8 25.9761 112.4 30.1761" stroke="#000631" stroke-linecap="round" stroke-linejoin="round"/>
<path d="M105.5 22.2761C106 22.2761 122.8 26.9761 123.7 29.6761" stroke="#000631" stroke-linecap="round" stroke-linejoin="round"/>
<path d="M125 33.3762C125 33.3762 125.5 49.0761 123.7 53.0761" stroke="#000631" stroke-linecap="round" stroke-linejoin="round"/>
<path d="M127 42.9761C127 42.9761 125.6 53.4761 123.5 57.1761" stroke="#000631" stroke-linecap="round" stroke-linejoin="round"/>
<path d="M109.2 36.4761C109.2 36.4761 119.8 48.2761 121.3 48.7761C122.9 49.1761 124.3 50.3762 124.3 50.3762" stroke="#000631" stroke-linecap="round" stroke-linejoin="round"/>
<path d="M88.6001 36.4761C88.6001 36.4761 91.2001 29.0761 96.0001 29.0761" stroke="#000631" stroke-linecap="round" stroke-linejoin="round"/>
<path d="M98.6001 29.0761C98.6001 29.0761 108.7 43.3761 112.4 44.4761" stroke="#000631" stroke-linecap="round" stroke-linejoin="round"/>
<path d="M90.2002 37.5761C90.2002 37.5761 97.9002 34.8761 103.5 35.6761" stroke="#000631" stroke-linecap="round" stroke-linejoin="round"/>
<path d="M93.8999 36.4761C93.8999 36.4761 95.6999 31.1761 100.3 31.4761" stroke="#000631" stroke-linecap="round" stroke-linejoin="round"/>
<path d="M111.3 45.4761C111.3 45.4761 118.2 52.7761 122.7 51.5761" stroke="#000631" stroke-linecap="round" stroke-linejoin="round"/>
<path d="M116.7 49.9762C116.6 49.7762 122.4 57.1762 122.4 57.1762" stroke="#000631" stroke-linecap="round" stroke-linejoin="round"/>
<path d="M118.7 39.1761C118.7 39.1761 121.2 46.3761 122.4 47.2761" stroke="#000631" stroke-linecap="round" stroke-linejoin="round"/>
<path d="M88.5998 38.2761C88.5998 38.2761 84.8998 36.4761 83.2998 36.4761" stroke="#000631" stroke-linecap="round" stroke-linejoin="round"/>
<path d="M84.7 33.3762C84.7 33.3762 81.7 38.0761 81.2 40.7761C80.7 43.3761 80 45.0761 80 45.0761" stroke="#000631" stroke-linecap="round" stroke-linejoin="round"/>
<path d="M85.8999 38.2761C85.8999 38.2761 82.6999 43.0761 80.8999 45.0761" stroke="#000631" stroke-linecap="round" stroke-linejoin="round"/>
<path d="M82.2998 29.0761C82.2998 29.0761 83.5998 27.5761 89.5998 30.4761" stroke="#000631" stroke-linecap="round" stroke-linejoin="round"/>
<path d="M87.2002 76.6761L87.3002 81.6761" stroke="#000631" stroke-width="0.7" stroke-linecap="round" stroke-linejoin="round"/>
<path d="M87.8002 84.3762C87.8002 84.3762 87.7002 89.0762 88.6002 90.8762" stroke="#000631" stroke-width="0.7" stroke-linecap="round" stroke-linejoin="round"/>
<path d="M93.1003 84.3762C93.1003 84.8762 92.1002 92.5761 93.9002 94.7761" stroke="#000631" stroke-width="0.7" stroke-linecap="round" stroke-linejoin="round"/>
<path d="M96.8998 85.9761C96.8998 85.9761 95.7998 94.3761 96.7998 95.6761" stroke="#000631" stroke-width="0.7" stroke-linecap="round" stroke-linejoin="round"/>
<path d="M101 86.9761C101 86.9761 100.5 94.9761 101 95.9761" stroke="#000631" stroke-width="0.7" stroke-linecap="round" stroke-linejoin="round"/>
<path d="M104.2 87.7761C104.2 87.7761 104.2 95.4761 104.2 95.9761" stroke="#000631" stroke-width="0.7" stroke-linecap="round" stroke-linejoin="round"/>
<path d="M107.5 86.9761C107.5 86.9761 109.1 92.8761 108.2 94.9761" stroke="#000631" stroke-width="0.7" stroke-linecap="round" stroke-linejoin="round"/>
<path d="M109.2 85.5761C109.2 85.5761 110 89.0761 110 90.1761" stroke="#000631" stroke-width="0.7" stroke-linecap="round" stroke-linejoin="round"/>
<path d="M100.8 81.6761L101 83.4761" stroke="#000631" stroke-width="0.7" stroke-linecap="round" stroke-linejoin="round"/>
<path d="M102.4 81.6761C102.6 82.2761 102.8 84.3762 102.8 84.3762" stroke="#000631" stroke-width="0.7" stroke-linecap="round" stroke-linejoin="round"/>
<path d="M103.5 82.5761V83.4761" stroke="#000631" stroke-width="0.7" stroke-linecap="round" stroke-linejoin="round"/>
<path d="M111.3 81.3762C111.3 81.3762 111.6 82.7762 111.3 84.3762" stroke="#000631" stroke-width="0.7" stroke-linecap="round" stroke-linejoin="round"/>
<path d="M112.4 73.5761C112.4 73.5761 113.5 79.5761 113.3 81.6761" stroke="#000631" stroke-width="0.7" stroke-linecap="round" stroke-linejoin="round"/>
<path d="M114.7 75.8762C114.7 75.8762 114.7 79.5761 114.7 81.6761" stroke="#000631" stroke-width="0.7" stroke-linecap="round" stroke-linejoin="round"/>
<path d="M85.5 79.1761C85.5 79.1761 85.6 83.0761 85.9 84.7761" stroke="#000631" stroke-width="0.7" stroke-linecap="round" stroke-linejoin="round"/>
<path d="M115.9 78.7761V81.9761" stroke="#000631" stroke-width="0.7" stroke-linecap="round" stroke-linejoin="round"/>
<path d="M88.2002 74.3762C88.8002 74.2762 94.9002 72.8761 96.3002 73.5761" stroke="#000631" stroke-width="0.7" stroke-linecap="round" stroke-linejoin="round"/>
<path d="M90.2002 73.1761C90.2002 73.1761 92.6002 72.1761 93.9002 72.6761" stroke="#000631" stroke-width="0.7" stroke-linecap="round" stroke-linejoin="round"/>
<path d="M107.7 72.5761C107.9 72.6761 111 71.8761 112.4 72.5761" stroke="#000631" stroke-width="0.7" stroke-linecap="round" stroke-linejoin="round"/>
<path d="M102.4 73.5761L105.5 73.3762C105.5 73.3762 107.3 73.4761 110 73.5761" stroke="#000631" stroke-width="0.7" stroke-linecap="round" stroke-linejoin="round"/>
<path d="M99.4 73.8762H98" stroke="#000631" stroke-width="0.7" stroke-linecap="round" stroke-linejoin="round"/>
<path d="M102.4 79.1761C106.4 78.1761 109.6 74.8762 109.6 74.8762C108.1 75.4762 102.6 75.8762 100.8 75.8762C98.9 75.8762 91 75.8762 91 75.8762C91 75.8762 95.2 78.7761 99.4 79.1761" stroke="#000631" stroke-width="0.7" stroke-linecap="round" stroke-linejoin="round"/>
<path d="M93.8999 75.8762L94.1999 77.6761" stroke="#000631" stroke-width="0.7" stroke-linecap="round" stroke-linejoin="round"/>
<path d="M107.5 75.3762L107.2 76.8762" stroke="#000631" stroke-width="0.7" stroke-linecap="round" stroke-linejoin="round"/>
<path d="M98.0002 71.2761C98.0002 71.2761 97.3002 70.5761 97.8002 70.5761C98.4002 70.5761 99.4002 71.6761 99.4002 71.6761" stroke="#000631" stroke-width="0.7" stroke-linecap="round" stroke-linejoin="round"/>
<path d="M102.1 71.6761C102.1 71.6761 103.4 70.0761 103.5 70.5761" stroke="#000631" stroke-width="0.7" stroke-linecap="round" stroke-linejoin="round"/>
<path d="M104.7 71.1761C104.7 71.1761 105.2 69.5761 104.2 68.9761" stroke="#000631" stroke-width="0.7" stroke-linecap="round" stroke-linejoin="round"/>
<path d="M96.2002 71.6761C96.2002 71.6761 95.4002 69.6762 96.3002 69.3762" stroke="#000631" stroke-width="0.7" stroke-linecap="round" stroke-linejoin="round"/>
<path d="M99.3999 67.4761C99.3999 67.4761 100.6 66.9761 101.3 67.4761" stroke="#000631" stroke-width="0.7" stroke-linecap="round" stroke-linejoin="round"/>
<path d="M95.1002 57.9761C95.1002 57.9761 93.7002 56.5761 92.0002 56.6761C89.4002 56.8761 87.3002 57.3761 86.2002 58.9761" stroke="#000631" stroke-width="0.7" stroke-linecap="round" stroke-linejoin="round"/>
<path d="M86.6001 58.9761C86.6001 58.9761 89.3001 60.3761 92.3001 60.1761" stroke="#000631" stroke-width="0.7" stroke-linecap="round" stroke-linejoin="round"/>
<path d="M94.1001 61.1761L95.1001 60.1761" stroke="#000631" stroke-width="0.7" stroke-linecap="round" stroke-linejoin="round"/>
<path d="M105.6 59.5761L106.8 60.6761" stroke="#000631" stroke-width="0.7" stroke-linecap="round" stroke-linejoin="round"/>
<path d="M106.2 58.5761C106.2 58.5761 107.9 56.9762 110 56.9762C112.1 56.8762 113.5 58.4762 114.1 58.9762" stroke="#000631" stroke-width="0.7" stroke-linecap="round" stroke-linejoin="round"/>
<path d="M107.3 60.1761C107.3 60.1761 112.1 60.0761 113.7 59.7761" stroke="#000631" stroke-width="0.7" stroke-linecap="round" stroke-linejoin="round"/>
<path d="M95.1001 53.9761C95.1001 53.9761 97.4001 57.6761 97.4001 60.6761" stroke="#000631" stroke-width="0.7" stroke-linecap="round" stroke-linejoin="round"/>
<path d="M104.5 53.5761C104.5 53.5761 103.4 54.9761 103.5 56.1761" stroke="#000631" stroke-width="0.7" stroke-linecap="round" stroke-linejoin="round"/>
<path d="M105.6 53.0761C105.6 53.0761 110.4 52.0762 112.9 52.3762C114.7 52.6762 115.9 53.7761 115.9 53.7761" stroke="#000631" stroke-width="1.1" stroke-linecap="round" stroke-linejoin="round"/>
<path d="M93.8998 53.0761C93.3998 53.0761 89.0998 52.3762 87.4998 52.8762C85.9998 53.3762 83.7998 54.9761 83.7998 54.9761" stroke="#000631" stroke-width="1.1" stroke-linecap="round" stroke-linejoin="round"/>
<path d="M89.3998 57.1761C89.3998 57.1761 88.9998 58.9761 90.9998 59.2761C93.0998 59.4761 93.8998 57.2761 92.8998 56.7761" stroke="#000631" stroke-width="0.7" stroke-linecap="round" stroke-linejoin="round"/>
<path d="M108.1 57.3762C108.1 57.3762 108.4 58.9761 110 59.2761C111.6 59.4761 112.3 57.8762 111.9 57.3762" stroke="#000631" stroke-width="0.7" stroke-linecap="round" stroke-linejoin="round"/>
<path d="M129.2 257.376L128.2 251.576L125.6 252.676" stroke="#000631" stroke-width="1.3" stroke-linecap="round" stroke-linejoin="round"/>
<path d="M125.5 252.676L127.2 265.976L130.4 264.676L129.8 260.776" stroke="#000631" stroke-width="1.3" stroke-linecap="round" stroke-linejoin="round"/>
<path d="M134.6 250.376C134.6 250.376 140.7 247.876 142.9 246.876" stroke="#000631" stroke-width="1.3" stroke-linecap="round" stroke-linejoin="round"/>
<path d="M33 30.1761L46.6 37.3762" stroke="#000631" stroke-width="1.6" stroke-linecap="round" stroke-linejoin="round"/>
<path d="M62.4004 0.876099L68.8004 11.3761" stroke="#000631" stroke-width="1.6" stroke-linecap="round" stroke-linejoin="round"/>
<path d="M132.1 18.2761L146.5 3.97607" stroke="#000631" stroke-width="1.6" stroke-linecap="round" stroke-linejoin="round"/>
<path d="M150.1 44.4761L167 41.4761" stroke="#000631" stroke-width="1.6" stroke-linecap="round" stroke-linejoin="round"/>
<path d="M146.5 71.8761L165.4 74.8761" stroke="#000631" stroke-width="1.6" stroke-linecap="round" stroke-linejoin="round"/>
<path d="M51.1002 71.6761L30.2002 73.4761" stroke="#000631" stroke-width="1.6" stroke-linecap="round" stroke-linejoin="round"/>
</svg>
