<svg width="771" height="428" viewBox="0 0 771 428" fill="none" xmlns="http://www.w3.org/2000/svg">
<path d="M162.6 216.576C162.6 216.576 186.6 214.376 197.8 221.376C208.9 228.476 214 239.676 214.6 241.376C215.1 243.076 219.1 255.176 218 263.276C216.9 271.376 212 281.976 210.3 284.576C208.5 287.276 205.1 289.876 205.1 289.876C205.1 289.876 212.8 298.776 214.9 306.076C216.9 313.276 211.9 322.176 206.9 328.076C201.9 334.076 192.4 340.776 187.2 341.376C182 341.976 172.4 341.376 172.4 341.376C172.4 341.376 162.5 360.176 151.3 367.876C140 375.576 125.8 379.976 110.6 377.576C95.4 375.176 87 365.976 81.9 359.276C81.9 359.276 64.4 369.776 51.4 364.576C38.4 359.276 35.5 343.876 36.5 340.076C36.5 340.076 21.3 341.676 14.4 331.276C7.50001 320.776 10.2 309.776 15.5 304.076C15.5 304.076 3.40001 293.976 1.90001 282.476C0.50001 270.876 2.99999 259.476 11.5 251.276C19.9 243.076 33.6 241.776 33.6 241.776C33.6 241.776 35.2 224.076 47.4 217.476C59.6 210.876 77.5 213.176 81.8 215.776C81.8 215.776 87.9 201.076 99.4 193.576C110.9 186.076 126.7 184.676 135.6 188.276C144.5 191.876 158.6 202.476 162.6 216.576Z" fill="#FFF8E6"/>
<path d="M231.9 194.476C231.9 200.576 227 205.576 220.9 205.576C214.8 205.576 209.8 200.576 209.8 194.476C209.8 188.376 214.8 183.476 220.9 183.476C227 183.476 231.9 188.376 231.9 194.476Z" fill="#FFF8E6"/>
<path d="M263.7 177.676C263.7 182.376 260 186.076 255.3 186.076C250.7 186.076 246.9 182.376 246.9 177.676C246.9 173.076 250.7 169.276 255.3 169.276C260 169.276 263.7 173.076 263.7 177.676Z" fill="#FFF8E6"/>
<path d="M295.1 179.076C295.1 182.676 292.1 185.676 288.5 185.676C284.8 185.676 281.8 182.676 281.8 179.076C281.8 175.376 284.8 172.376 288.5 172.376C292.1 172.376 295.1 175.376 295.1 179.076Z" fill="#FFF8E6"/>
<path d="M173.8 167.376C173.8 167.376 179.3 173.576 191.9 176.476C204.5 179.476 211.9 173.676 213.7 171.976C215.6 170.176 220.3 163.276 220.3 163.276C220.3 163.276 231.4 166.376 241.6 162.576C251.8 158.676 258 148.276 259.3 139.576C260.6 130.876 255.6 120.276 255.6 120.276C255.6 120.276 270 112.676 264.5 96.7761C260.6 85.3761 251 84.0761 251 84.2761C251 84.2761 258.4 70.3761 245.3 58.0761C236.8 50.0761 220.9 54.4761 220.9 54.4761C220.9 54.4761 219.6 30.2761 191.3 24.2761C163 18.2761 144.1 38.0761 144.1 38.0761C144.1 38.0761 130.1 28.0761 111.2 37.7761C92.2998 47.3761 98.8998 65.0761 100.7 67.2761C100.7 67.2761 79.7999 76.9761 77.8999 99.0761C75.9999 121.176 87.1999 127.176 90.8999 130.776C94.4999 134.376 110.4 139.876 110.4 139.876C110.4 139.876 110 160.576 122.8 171.776C135.6 182.976 154 178.276 157.4 177.376C160.8 176.376 171.8 171.276 173.8 167.376Z" fill="#FFF8E6"/>
<path d="M292 125.576C292 130.176 288.2 133.976 283.6 133.976C279 133.976 275.2 130.176 275.2 125.576C275.2 120.976 279 117.176 283.6 117.176C288.2 117.176 292 120.976 292 125.576Z" fill="#FFF8E6"/>
<path d="M315.4 133.076C315.4 136.776 312.4 139.676 308.8 139.676C305.1 139.676 302.2 136.776 302.2 133.076C302.2 129.476 305.1 126.476 308.8 126.476C312.4 126.476 315.4 129.476 315.4 133.076Z" fill="#FFF8E6"/>
<path d="M502.2 127.376C502.2 127.376 503.6 140.176 515.7 146.976C527.9 153.876 538.7 152.076 546.1 148.576C553.5 144.976 559.3 138.376 559.3 138.376C559.3 138.376 582.3 151.976 603.8 135.176C622.4 120.676 617.1 97.2761 617.1 97.2761C617.1 97.2761 643.2 96.5761 643.4 67.2761C643.6 47.8761 626.4 39.8762 626.4 39.8762C626.4 39.8762 630.7 18.2761 609.8 8.77612C588.8 -0.723882 570.7 13.8762 570.7 13.8762C570.7 13.8762 561.9 0.57613 546 0.97613C530.1 1.47613 523.5 17.7761 523.5 17.7761C523.5 17.7761 502.5 -4.82385 474.1 15.8762C451.5 32.3762 463 58.3762 463 58.3762C463 58.3762 450.1 61.5761 449.4 74.5761C448.8 87.5761 462.1 90.6761 462.1 90.6761C462.1 90.6761 455.7 107.276 461.3 117.976C466.9 128.676 489.7 133.176 502.2 127.376Z" fill="#FFF8E6"/>
<path d="M470.9 138.176C470.9 143.176 466.8 147.176 461.8 147.176C456.8 147.176 452.8 143.176 452.8 138.176C452.8 133.176 456.8 129.076 461.8 129.076C466.8 129.076 470.9 133.176 470.9 138.176Z" fill="#FFF8E6"/>
<path d="M445.3 147.176C445.3 150.876 442.3 153.876 438.6 153.876C435 153.876 432 150.876 432 147.176C432 143.576 435 140.576 438.6 140.576C442.3 140.576 445.3 143.576 445.3 147.176Z" fill="#FFF8E6"/>
<path d="M643.4 149.576C643.4 149.576 662 127.876 685 135.776C708.1 143.676 709.1 162.176 709.1 162.176C709.1 162.176 725.5 153.776 746.2 163.776C766.8 173.776 757.3 198.376 757.3 198.376L755.3 204.376C755.3 204.376 774.4 208.776 769.2 227.676C765.5 240.876 753.1 242.176 753.1 242.176C753.1 242.176 760.7 256.676 753.6 275.976C746.5 295.176 722.7 299.876 710.1 299.976C697.5 300.076 684.4 288.776 684.4 288.776C684.4 288.776 675.9 306.076 660 307.476C644 308.876 634.7 297.576 630.8 293.476C630.8 293.476 602.7 310.476 581.6 296.676C560.6 282.876 566.2 262.876 566.2 262.876C566.2 262.876 545.9 252.376 546.6 229.376C547.3 206.376 567.7 195.076 576.9 196.776C576.9 196.776 571.9 166.276 595.6 150.776C619.3 135.276 643.4 149.576 643.4 149.576Z" fill="#FFF8E6"/>
<path d="M533.6 222.976C533.6 229.176 528.6 234.276 522.3 234.276C516.1 234.276 511.1 229.176 511.1 222.976C511.1 216.776 516.1 211.676 522.3 211.676C528.6 211.676 533.6 216.776 533.6 222.976Z" fill="#FFF8E6"/>
<path d="M500.9 227.576C500.9 232.276 497.2 235.976 492.5 235.976C487.9 235.976 484.1 232.276 484.1 227.576C484.1 222.976 487.9 219.276 492.5 219.276C497.2 219.276 500.9 222.976 500.9 227.576Z" fill="#FFF8E6"/>
<path d="M470 224.076C470 227.776 467 230.676 463.4 230.676C459.7 230.676 456.8 227.776 456.8 224.076C456.8 220.376 459.7 217.476 463.4 217.476C467 217.476 470 220.376 470 224.076Z" fill="#FFF8E6"/>
<path d="M591.9 226.776C591.9 226.776 577.8 232.076 574.3 239.576C570.7 247.076 582.6 254.576 593.7 258.076C604.7 261.676 618.4 265.576 631.2 268.276C644 270.876 667.9 269.976 667.9 269.976C667.9 269.976 692.6 266.076 700.6 263.376C700.6 263.376 724.9 258.976 734.6 249.676C744.3 240.476 733.3 230.876 723.8 228.576C723.8 228.576 723.6 227.176 723.6 226.776C723.6 226.276 722.7 224.076 722.7 223.176C722.7 222.276 720.5 217.876 720.5 217.876L715.6 204.676C715.6 204.676 714.7 203.776 713.4 203.276C712.1 202.876 705.9 201.076 705.9 201.076C705.9 201.076 699.7 200.276 698.4 200.276C697 200.276 688.2 201.076 688.2 201.076C688.2 201.076 681.6 201.976 680.7 201.976C679.8 201.976 678.1 201.976 676.7 202.476C675.4 202.876 673.6 202.876 673.6 203.276C673.6 203.776 669.7 210.776 669.7 211.276C669.7 211.676 668.3 217.876 668.3 217.876L655.4 217.676L652 214.776C652 214.776 649.3 210.876 648 210.876C646.7 210.876 641.8 209.476 641.8 209.476C641.8 209.476 638.9 209.076 638.4 209.076C637.9 209.076 634.3 210.876 633 210.376C631.7 209.976 629.9 209.476 629 209.476C628.1 209.476 625.5 210.376 625 210.376C624.6 210.376 623.5 209.476 622.3 209.976C621.1 210.376 619.5 210.776 619.2 211.276C618.9 211.676 617.1 214.776 615.3 215.676C613.6 216.576 609.5 215.276 606.5 215.676C603.4 216.176 601.8 217.076 601.1 217.676C600.3 218.376 597.7 220.576 597.2 220.976C596.8 221.476 595.7 221.676 595.2 222.376C594.6 223.176 591.9 226.776 591.9 226.776Z" fill="white"/>
<path d="M597.2 106.576C597.2 106.576 613.8 99.7761 616.8 92.1761C619.7 84.4761 613.9 78.2761 604.9 74.0761C595.9 69.8761 581.8 66.4761 581.8 66.4761L575.2 65.3762L574.7 62.4761C574.7 62.4761 572.5 60.1761 572.5 59.7761C572.5 59.2761 571.6 57.5761 570.7 57.5761C569.8 57.5761 565.9 55.4762 565 55.3762C564.1 55.3762 564 55.6761 563 55.9761C561.9 56.2761 561.4 57.5761 561 57.0761C560.6 56.6761 558.8 56.6761 558.3 57.0761C557.9 57.5761 556.1 58.6761 555.5 59.1761C554.8 59.7761 554.1 62.8762 554.1 62.8762L547.7 63.1761C547.7 63.1761 545.5 60.1761 542.4 59.7761C539.4 59.2761 536.6 60.0761 534.7 61.0761C532.7 61.9761 531.4 63.1761 531.4 63.1761C531.4 63.1761 530.8 63.0761 530.5 62.4761C530.1 61.9761 528.1 60.7761 528.1 60.7761C528.1 60.7761 527.5 59.7761 527.3 59.7761C527 59.7761 522.6 58.3762 522.6 58.3762C522.6 58.3762 521.1 59.6761 520.3 59.4761C519.5 59.2761 516.5 59.1761 515.8 59.6761C515.1 60.1761 513 62.8762 513 62.8762C513 62.8762 511.1 63.0761 510.7 62.7761C510.2 62.3761 511.1 61.5761 509.3 61.0761C507.6 60.6761 504 60.6761 501.4 61.9761C498.7 63.2761 498.2 64.7761 497.8 64.6761C497.4 64.5761 496.8 65.2762 496.7 65.3762C496.5 65.4762 496.1 66.3762 496.1 66.8762C496.1 67.2762 496.1 68.9761 496.1 68.9761C496.1 69.0761 494.3 69.8762 494.3 69.8762C494.3 69.8762 483.4 72.9761 478 77.4761C472.7 81.8761 470.9 86.2761 470.9 88.2761C470.9 90.2761 472.7 95.0761 478 99.4761C483.3 103.976 499 108.676 499 108.676C499 108.676 510.2 113.176 518.6 114.576C527 115.876 538.9 116.676 546.4 116.676C553.9 116.776 565.9 115.376 565.9 115.376C565.9 115.376 579.6 112.776 583.5 112.376C587.5 111.876 597.2 106.576 597.2 106.576Z" fill="white"/>
<path d="M115.4 109.076C115.4 109.076 109.7 112.076 108.3 114.876C106.9 117.676 105.6 121.176 110.4 125.976C115.3 130.876 129 136.576 129.9 137.476C130.8 138.376 150.6 142.776 165.2 144.176C179.8 145.476 203.2 142.776 203.2 142.776C203.2 142.776 216.9 139.676 220.4 138.876C224 137.976 232.8 133.076 233.2 133.076C233.7 133.076 247.8 126.476 248.7 121.176C249.6 115.876 245.6 112.376 237.2 107.876C228.8 103.476 210.7 100.476 210.7 100.476C210.7 100.476 193 93.7762 190.8 93.3762C188.6 92.8762 184 92.8761 181.9 93.0761C179.8 93.3761 174.9 95.0761 173.6 95.9761C172.3 96.8761 169.3 98.2761 169.3 98.2761L161.8 98.5761C161.8 98.5761 159 91.9761 157.7 90.6761C156.4 89.3761 151.1 88.8761 151.1 88.4761C151.1 88.0761 149.3 87.1761 148.4 86.6761C147.6 86.2761 144 86.2761 142.7 86.2761C141.4 86.2761 137.4 86.6761 136.5 87.1761C135.6 87.5761 125 89.9761 124.1 90.5761C123.3 91.1761 121.9 92.8761 121 94.1761C120.2 95.5761 119 97.5761 119.4 98.2761C119.7 99.0761 119 102.376 118.7 103.176C118.4 103.976 117.1 105.276 117.1 106.576C117.1 107.876 115.4 109.076 115.4 109.076Z" fill="white"/>
<path d="M176.3 279.276C176.3 279.276 188.2 285.476 190.8 292.576C193.5 299.576 191.3 303.176 189.5 305.376C187.7 307.576 178 315.476 178 315.476C178 315.476 165.6 324.776 149.5 327.476C133.4 330.076 114.4 332.476 106.5 331.276C106.5 331.276 86.2001 329.676 76.4001 326.576C66.7001 323.476 53.7 317.276 53.7 317.276C53.7 317.276 38.4001 309.676 35.8001 300.276C33.1001 290.776 48.2 281.476 48.2 281.476C48.2 281.476 61.4001 275.276 64.9001 274.876C64.9001 274.876 80.0001 266.476 80.9001 265.576C81.7001 264.676 95 258.576 95 258.576L117 258.076C117 258.076 143.1 258.076 153.3 260.276C163.5 262.476 173.2 263.376 174.5 264.676C174.5 264.676 173.2 267.776 173.6 269.176C174.1 270.476 177.1 275.376 176.9 276.176C176.7 277.076 176.3 279.276 176.3 279.276Z" fill="white"/>
<path d="M462.1 90.6762C462.1 90.6762 454.5 107.976 462.1 119.276C469.6 130.476 491.1 132.776 502.2 127.376C502.2 127.376 502.5 143.276 523.1 150.376C543.8 157.376 559.3 138.376 559.3 138.376C559.3 138.376 583.1 150.276 602.5 136.176C622 122.076 617.1 97.2762 617.1 97.2762C617.1 97.2762 637.9 97.7762 642.7 73.8762C647.6 50.0762 626.4 39.8762 626.4 39.8762C626.4 39.8762 630.3 22.6762 614 11.1762C599.7 1.07618 575.9 8.07619 570.7 13.8762C570.7 13.8762 561.9 0.176164 546 0.976164C530.1 1.87616 523.5 17.7762 523.5 17.7762C523.5 17.7762 504.9 -2.12381 478 13.3762C451 28.8762 463.4 57.9762 463.4 57.9762C463.4 57.9762 451.5 60.1762 449.7 72.1762C447.4 87.8762 462.1 90.6762 462.1 90.6762Z" stroke="#000631" stroke-width="1.6" stroke-linecap="round" stroke-linejoin="round"/>
<path d="M462.2 129.076C467 129.176 470.9 133.076 470.9 137.976C470.9 142.876 466.9 146.776 462.1 146.776C457.2 146.776 453.2 142.876 453.2 137.976C453.2 133.076 457.2 129.076 462.1 129.076" stroke="#000631" stroke-width="1.6" stroke-linecap="round" stroke-linejoin="round"/>
<path d="M438.9 140.176C442.7 140.176 445.7 143.276 445.7 146.976C445.7 150.776 442.6 153.876 438.9 153.876C435.1 153.876 432 150.776 432 146.976C432 143.176 435.1 140.176 438.9 140.176Z" stroke="#000631" stroke-width="1.6" stroke-linecap="round" stroke-linejoin="round"/>
<path d="M755.3 204.376C755.3 204.376 763.9 184.476 755.3 171.576C746.7 158.676 721.9 155.976 709.1 162.176C709.1 162.176 708.8 143.876 685 135.776C661.3 127.676 643.4 149.576 643.4 149.576C643.4 149.576 616.1 135.776 593.7 152.076C571.3 168.276 576.9 196.776 576.9 196.776C576.9 196.776 553 196.276 547.4 223.676C541.9 251.176 566.2 262.876 566.2 262.876C566.2 262.876 561.7 282.676 580.5 295.876C597 307.476 624.3 299.476 630.3 292.876C630.3 292.876 640.4 308.576 658.7 307.576C677 306.576 684.7 288.276 684.7 288.276C684.7 288.276 706 311.176 737 293.376C768 275.576 753.8 241.976 753.8 241.976C753.8 241.976 767.5 239.476 769.5 225.776C772.2 207.676 755.3 204.376 755.3 204.376Z" stroke="#000631" stroke-width="1.6" stroke-linecap="round" stroke-linejoin="round"/>
<path d="M522.4 211.876C528.6 211.976 533.6 216.976 533.6 223.176C533.6 229.376 528.5 234.476 522.3 234.476C516.1 234.476 511 229.376 511 223.176C511 216.876 516.1 211.876 522.3 211.876" stroke="#000631" stroke-width="1.6" stroke-linecap="round" stroke-linejoin="round"/>
<path d="M492.5 218.976C497.4 218.976 501.3 222.876 501.3 227.776C501.3 232.676 497.3 236.576 492.4 236.576C487.6 236.576 483.6 232.676 483.6 227.776C483.6 222.876 487.6 218.976 492.4 218.976" stroke="#000631" stroke-width="1.6" stroke-linecap="round" stroke-linejoin="round"/>
<path d="M463.3 217.176C467.1 217.176 470.2 220.276 470.2 224.176C470.2 227.976 467.1 231.176 463.2 231.176C459.3 231.176 456.2 227.976 456.2 224.176C456.2 220.276 459.3 217.176 463.2 217.176" stroke="#000631" stroke-width="1.6" stroke-linecap="round" stroke-linejoin="round"/>
<path d="M283.7 116.776C288.5 116.776 292.4 120.676 292.4 125.576C292.4 130.376 288.5 134.276 283.6 134.276C278.8 134.276 274.8 130.376 274.8 125.576C274.8 120.676 278.8 116.776 283.6 116.776" stroke="#000631" stroke-width="1.7" stroke-linecap="round" stroke-linejoin="round"/>
<path d="M308.7 126.576C312.2 126.576 315 129.476 315 132.876C315 136.476 312.1 139.276 308.6 139.276C305.1 139.276 302.2 136.476 302.2 132.876C302.2 129.376 305.1 126.576 308.6 126.576" stroke="#000631" stroke-width="1.7" stroke-linecap="round" stroke-linejoin="round"/>
<path d="M255.5 120.476C255.5 120.476 266.2 138.376 252.7 154.276C239.3 170.176 220.3 163.276 220.3 163.276C220.3 163.276 212.7 179.976 196 177.276C179.3 174.576 173.8 167.376 173.8 167.376C173.8 167.376 158.4 184.676 133.4 177.276C108.4 169.876 110.4 139.876 110.4 139.876C110.4 139.876 77.2999 132.676 77.4999 105.276C77.5999 76.8761 100.7 67.2761 100.7 67.2761C100.7 67.2761 90.7999 48.6761 110.5 38.0761C130.2 27.4761 144.1 38.0761 144.1 38.0761C144.1 38.0761 166.2 16.3761 193.1 24.7761C220.1 33.2761 221.5 54.4761 221.5 54.4761C221.5 54.4761 242.1 49.1762 249.1 62.8762C256.1 76.5762 250.9 84.2761 250.9 84.2761C250.9 84.2761 263.6 86.6762 265.5 100.876C267.4 114.976 255.6 120.276 255.6 120.276" stroke="#000631" stroke-width="1.7" stroke-linecap="round" stroke-linejoin="round"/>
<path d="M221 183.376C227 183.476 231.9 188.376 231.9 194.476C231.9 200.576 226.9 205.576 220.8 205.576C214.7 205.576 209.8 200.576 209.8 194.476C209.8 188.376 214.7 183.376 220.8 183.376" stroke="#000631" stroke-width="1.6" stroke-linecap="round" stroke-linejoin="round"/>
<path d="M255.6 169.276C260.3 169.276 264.2 173.176 264.2 177.876C264.2 182.676 260.3 186.576 255.5 186.576C250.7 186.576 246.9 182.676 246.9 177.876C246.9 173.176 250.7 169.276 255.5 169.276" stroke="#000631" stroke-width="1.6" stroke-linecap="round" stroke-linejoin="round"/>
<path d="M288.6 172.476C292.2 172.576 295.1 175.476 295.1 179.076C295.1 182.776 292.1 185.676 288.5 185.676C284.9 185.676 281.9 182.776 281.9 179.076C281.9 175.476 284.9 172.476 288.5 172.476" stroke="#000631" stroke-width="1.6" stroke-linecap="round" stroke-linejoin="round"/>
<path d="M15.2 303.176C15.2 303.176 -4.39992 288.876 2.90008 265.676C10.2001 242.376 33.7 241.276 33.7 241.276C33.7 241.276 34.3001 219.776 53.5001 215.176C72.6001 210.476 81.8001 215.776 81.8001 215.776C81.8001 215.776 90.6001 190.176 120.9 186.876C151.1 183.476 162.6 216.576 162.6 216.576C162.6 216.576 201.4 209.476 213.6 238.976C226.4 269.576 205.9 290.376 205.9 290.376C205.9 290.376 224.9 305.876 208.5 326.176C192.1 346.476 172.4 341.376 172.4 341.376C172.4 341.376 158.4 374.876 125.6 377.976C92.8 381.076 81.7 358.876 81.7 358.876C81.7 358.876 61.9 373.876 48.2 362.376C34.4 350.776 36.5001 340.076 36.5001 340.076C36.5001 340.076 21.8001 343.276 13.3001 328.876C4.9001 314.476 15.1 303.476 15.1 303.476" stroke="#000631" stroke-width="1.9" stroke-linecap="round" stroke-linejoin="round"/>
<path d="M329.1 201.376C329.1 201.376 326.1 207.176 324.5 209.476C322.9 211.676 319.7 214.776 319.7 214.776C319.7 214.776 322.4 226.276 322.9 231.176C323.4 235.976 324.8 265.576 325.6 273.776C326.4 281.976 324.9 298.076 325 300.776C325.1 303.576 321 333.476 320.2 337.076C319.4 340.676 314.7 362.076 314.7 362.076C314.7 362.076 296.7 358.776 295 359.076C293.3 359.276 288.5 358.376 288.5 358.376L296.5 332.076C296.5 332.076 275.3 331.076 269.3 329.676C263.3 328.376 248.9 322.976 247.9 322.576C246.9 322.176 240.9 317.476 240.9 317.476L253.5 266.176C253.5 266.176 262.9 237.076 263.8 235.876C264.6 234.676 266.9 233.276 267.1 231.976C267.3 230.676 266.6 229.876 267.4 229.376C268.1 228.976 277.9 226.276 280.5 224.976C283.2 223.676 309.2 209.676 309.2 209.676C309.2 209.676 312.4 202.876 316.1 200.876C319.8 198.876 328.9 197.176 328.9 197.176L329.1 201.376Z" fill="#6BD4CD"/>
<path d="M374.5 221.076L382.2 211.476C382.2 211.476 386.2 214.176 389 215.176C391.8 216.176 413.1 222.076 413.7 223.576C414.3 224.976 414.8 229.376 415 229.376C415.2 229.376 453.2 271.676 453.4 272.376C453.7 273.076 453.4 278.176 453.4 278.176L449.6 273.776C449.6 273.776 439.6 277.476 434.3 283.476C428.9 289.476 423 299.076 421.6 303.076C420.1 307.176 419.5 310.276 419.5 310.276L424 313.676C424 313.676 421.6 316.376 419.8 317.476C417.9 318.576 416.5 314.576 416.5 314.576L411 307.076C411 307.076 409.6 312.376 409.6 320.076C409.5 327.876 411 346.676 411 346.676C411 346.676 402.5 349.976 400.7 352.176C398.9 354.376 396.7 356.476 396.7 356.476L392.5 357.676C392.5 357.676 393 337.676 393.1 335.676C393.1 333.676 389.6 290.376 389.6 290.376C389.6 290.376 385.6 256.876 385.4 254.376C385.2 251.876 381.3 235.676 380 233.376C378.6 231.176 374.5 221.076 374.5 221.076Z" fill="#6BD4CD"/>
<path d="M419.5 310.276C419.5 310.276 422.7 299.376 428.9 289.976C435.1 280.576 445.5 275.276 449.6 273.776L451.2 276.676C451.2 276.676 443 279.976 434.6 289.976C426.3 300.076 424 313.676 424 313.676L419.5 310.276Z" fill="#000631"/>
<path d="M247.9 322.576C247.9 322.576 267.8 332.676 296.5 332.076L295.1 336.276C295.1 336.276 265.4 339.476 247.1 327.076L247.9 322.576Z" fill="#000631"/>
<path d="M329.1 201.376C329.1 201.376 344.4 218.076 348.2 220.676L367.5 223.476L364.2 228.676C364.2 228.676 352.5 229.876 344.1 224.976C335.7 220.076 329.1 201.376 329.1 201.376Z" fill="#000631"/>
<path d="M357.7 159.776C357.7 159.776 358.3 158.076 357.4 157.276C356.5 156.476 355.7 155.676 354.3 156.076C353 156.476 351.7 156.676 351.5 157.876C351.2 159.176 352.3 160.376 352.4 160.176C352.5 160.076 357.7 159.776 357.7 159.776Z" fill="#000631"/>
<path d="M383.4 164.776C383.4 164.776 388.7 165.476 390.1 164.476C390.1 164.476 390.1 161.876 388.1 161.376C386.1 160.876 384.8 161.976 384.3 162.576C383.9 163.176 383.4 164.776 383.4 164.776Z" fill="#000631"/>
<path d="M441 281.476C441 281.476 470 283.976 485 285.176C500 286.376 513.5 282.576 513.5 282.576C513.5 282.576 529.9 264.976 531.1 263.776C532.3 262.476 551.3 243.076 559 244.176C559 244.176 530.1 292.576 526.1 305.376C526.1 305.376 521.1 310.876 520.1 313.676C519 316.376 518.4 318.376 518.4 318.376C518.4 318.376 515 321.676 515 324.076C515.1 326.576 514.3 327.576 514.3 327.576C514.3 327.576 512.8 331.576 512.2 333.276C511.5 334.976 514.5 335.676 514.5 335.676C514.5 335.676 514 336.276 512.8 338.976C511.5 341.576 509.8 346.676 509.8 346.676L465.6 383.776L452.7 384.776C452.7 384.776 456.8 382.676 457.6 379.176C458.5 375.576 458.9 374.676 458.9 374.676C458.9 374.676 459.6 372.476 460.8 371.776C462.1 371.176 462.5 371.176 462.5 369.876C462.5 368.576 461.8 367.176 461.8 367.176C461.8 367.176 463.4 364.876 463.2 363.176C462.9 361.476 459.7 362.176 459.7 362.176C459.7 362.176 460.3 358.076 453.4 359.076C446.6 360.176 422.4 365.276 421.3 365.576C420.1 365.876 412.1 366.776 411 366.276C409.9 365.876 409.2 362.676 409.6 362.076C409.9 361.476 412.3 357.576 413.1 356.476C413.9 355.276 441 281.476 441 281.476Z" fill="#E58D00"/>
<path d="M301.5 213.876L186.7 227.576L176.5 230.076L183.2 278.176L192.4 278.576L198.7 277.576L217.8 420.076L237.4 413.076L220.6 271.276L243.6 265.576L246.7 297.076L254.2 262.576C254.2 262.576 263.6 235.976 263.8 235.876C263.9 235.776 266.7 234.776 267.1 231.976C267.5 229.176 266.2 229.576 267.5 229.176C268.8 228.676 272.6 227.776 275.1 226.876C277.6 226.076 301.5 213.876 301.5 213.876Z" fill="white"/>
<path d="M327.8 183.676C327.8 189.676 328.8 198.176 329.4 200.476C330.9 206.076 344.8 217.576 348.2 220.676C348.9 221.276 349.1 220.776 350 220.876L367.5 223.476C368.6 223.676 372.1 223.276 373 222.576C377 219.176 383.2 208.476 386.8 204.476C391.1 199.676 402.4 162.576 402.4 162.576" stroke="#000631" stroke-width="2.1" stroke-linecap="round" stroke-linejoin="round"/>
<path d="M344.1 121.676C344.1 121.676 332.5 139.676 329.7 158.876" stroke="#000631" stroke-width="2.1" stroke-linecap="round" stroke-linejoin="round"/>
<path d="M329.7 158.876C329.7 158.876 323.2 151.876 320.5 151.776C317.7 151.776 316.9 175.176 317.4 177.976C317.9 180.676 323.5 187.176 327.5 183.976" stroke="#000631" stroke-width="2.1" stroke-linecap="round" stroke-linejoin="round"/>
<path d="M319.7 156.776C319.7 156.776 329.2 162.376 326.3 175.176C326.3 175.176 320.8 170.176 320.4 177.876" stroke="#000631" stroke-width="2.1" stroke-linecap="round" stroke-linejoin="round"/>
<path d="M322.5 163.676C322.5 163.676 319.3 166.576 319.6 169.776" stroke="#000631" stroke-width="2.1" stroke-linecap="round" stroke-linejoin="round"/>
<path d="M402 162.376C404.4 164.576 404 173.576 403.5 177.076C403 180.676 398.7 190.876 396.6 193.276C394.4 195.676 392.1 194.076 392.1 194.076" stroke="#000631" stroke-width="2.1" stroke-linecap="round" stroke-linejoin="round"/>
<path d="M402.3 166.976C402.3 166.976 398.2 178.776 397.1 186.776C397.1 186.776 399.3 180.976 399.6 184.676" stroke="#000631" stroke-width="2.1" stroke-linecap="round" stroke-linejoin="round"/>
<path d="M399.9 171.776C399.9 171.776 402.9 175.176 400.6 178.476" stroke="#000631" stroke-width="2.1" stroke-linecap="round" stroke-linejoin="round"/>
<path d="M326.3 154.776C326.3 154.776 320.9 138.876 321.7 134.776C322.6 130.776 324.6 124.176 324.6 124.176" stroke="#000631" stroke-width="2.1" stroke-linecap="round" stroke-linejoin="round"/>
<path d="M329.5 109.076C329.5 109.076 322.7 132.376 330.1 145.776" stroke="#000631" stroke-width="1.6" stroke-linecap="round" stroke-linejoin="round"/>
<path d="M331 106.176C331.7 105.876 335.4 99.1761 341.9 98.2761C348.3 97.4761 357.7 100.676 357.7 100.676" stroke="#000631" stroke-width="1.6" stroke-linecap="round" stroke-linejoin="round"/>
<path d="M355.4 104.676C356.3 104.976 365.7 96.3761 369.2 96.9761" stroke="#000631" stroke-width="1.6" stroke-linecap="round" stroke-linejoin="round"/>
<path d="M375.1 99.6761C375.1 99.6761 388.5 107.076 390.1 114.476" stroke="#000631" stroke-width="1.6" stroke-linecap="round" stroke-linejoin="round"/>
<path d="M380.6 99.5761C381.5 99.6761 407.8 107.876 412.5 118.476" stroke="#000631" stroke-width="1.6" stroke-linecap="round" stroke-linejoin="round"/>
<path d="M414.9 120.576C414.9 120.576 410.2 148.776 406.2 155.076" stroke="#000631" stroke-width="1.6" stroke-linecap="round" stroke-linejoin="round"/>
<path d="M412.5 142.576C412.5 142.576 409.3 158.176 402 162.376" stroke="#000631" stroke-width="1.6" stroke-linecap="round" stroke-linejoin="round"/>
<path d="M383.2 124.376C383.2 124.376 398 146.676 400.6 147.876C403.1 148.976 405.1 151.276 405.1 151.276" stroke="#000631" stroke-width="1.6" stroke-linecap="round" stroke-linejoin="round"/>
<path d="M348.7 119.276C348.7 119.276 355 107.476 362.9 108.676" stroke="#000631" stroke-width="1.6" stroke-linecap="round" stroke-linejoin="round"/>
<path d="M367.4 109.376C367.4 109.376 380.6 135.776 386.6 138.476" stroke="#000631" stroke-width="1.6" stroke-linecap="round" stroke-linejoin="round"/>
<path d="M351.1 121.376C351.1 121.376 364.7 118.776 374 121.576" stroke="#000631" stroke-width="1.6" stroke-linecap="round" stroke-linejoin="round"/>
<path d="M357.7 120.576C357.7 120.576 361.9 111.976 369.6 113.676" stroke="#000631" stroke-width="1.6" stroke-linecap="round" stroke-linejoin="round"/>
<path d="M386.1 134.176C386.1 134.176 397.2 152.276 405 151.276" stroke="#000631" stroke-width="1.6" stroke-linecap="round" stroke-linejoin="round"/>
<path d="M396.6 147.376C396.4 146.976 402.4 162.576 402.4 162.576" stroke="#000631" stroke-width="1.6" stroke-linecap="round" stroke-linejoin="round"/>
<path d="M398.5 131.176C398.5 131.176 401 143.776 402.6 145.576" stroke="#000631" stroke-width="1.6" stroke-linecap="round" stroke-linejoin="round"/>
<path d="M348.2 122.176C348.2 122.176 342.5 118.276 339.8 117.876" stroke="#000631" stroke-width="1.6" stroke-linecap="round" stroke-linejoin="round"/>
<path d="M342.9 112.976C342.9 112.976 336.8 120.176 335.3 124.476C333.7 128.776 332.2 131.376 332.2 131.376" stroke="#000631" stroke-width="1.6" stroke-linecap="round" stroke-linejoin="round"/>
<path d="M343.8 121.576C343.8 121.576 337.3 128.676 333.7 131.676" stroke="#000631" stroke-width="1.6" stroke-linecap="round" stroke-linejoin="round"/>
<path d="M340.1 105.276C340.1 105.276 342.7 102.976 351.9 109.276" stroke="#000631" stroke-width="1.6" stroke-linecap="round" stroke-linejoin="round"/>
<path d="M339 186.476L337.9 194.976" stroke="#000631" stroke-width="1.2" stroke-linecap="round" stroke-linejoin="round"/>
<path d="M338.2 199.576C338.2 199.576 336.9 207.376 337.8 210.776" stroke="#000631" stroke-width="1.2" stroke-linecap="round" stroke-linejoin="round"/>
<path d="M347.1 200.876C346.9 201.776 343.3 214.376 345.8 218.576" stroke="#000631" stroke-width="1.2" stroke-linecap="round" stroke-linejoin="round"/>
<path d="M352.9 204.476C352.9 204.476 349 218.376 350.4 220.776" stroke="#000631" stroke-width="1.2" stroke-linecap="round" stroke-linejoin="round"/>
<path d="M359.6 207.276C359.6 207.276 356.8 220.476 357.4 222.376" stroke="#000631" stroke-width="1.2" stroke-linecap="round" stroke-linejoin="round"/>
<path d="M364.7 209.476C364.7 209.476 362.8 222.276 362.7 223.076" stroke="#000631" stroke-width="1.2" stroke-linecap="round" stroke-linejoin="round"/>
<path d="M370.4 208.876C370.4 208.876 371.8 219.076 369.8 222.376" stroke="#000631" stroke-width="1.2" stroke-linecap="round" stroke-linejoin="round"/>
<path d="M373.7 206.876C373.7 206.876 374.2 212.976 373.9 214.776" stroke="#000631" stroke-width="1.2" stroke-linecap="round" stroke-linejoin="round"/>
<path d="M360.5 198.376V201.376" stroke="#000631" stroke-width="1.2" stroke-linecap="round" stroke-linejoin="round"/>
<path d="M363.3 198.776C363.5 199.676 363.3 203.276 363.3 203.276" stroke="#000631" stroke-width="1.2" stroke-linecap="round" stroke-linejoin="round"/>
<path d="M365 200.476L364.7 201.976" stroke="#000631" stroke-width="1.2" stroke-linecap="round" stroke-linejoin="round"/>
<path d="M378.3 200.376C378.3 200.376 378.4 202.776 377.5 205.376" stroke="#000631" stroke-width="1.2" stroke-linecap="round" stroke-linejoin="round"/>
<path d="M382 187.676C382 187.676 382.4 197.976 381.6 201.476" stroke="#000631" stroke-width="1.2" stroke-linecap="round" stroke-linejoin="round"/>
<path d="M385.4 192.076C385.4 192.076 384.5 198.276 384 201.776" stroke="#000631" stroke-width="1.2" stroke-linecap="round" stroke-linejoin="round"/>
<path d="M335.7 190.276C335.7 190.276 334.9 196.876 334.9 199.776" stroke="#000631" stroke-width="1.2" stroke-linecap="round" stroke-linejoin="round"/>
<path d="M386.6 197.176L385.9 202.476" stroke="#000631" stroke-width="1.2" stroke-linecap="round" stroke-linejoin="round"/>
<path d="M341.3 182.976C342.4 182.976 352.8 182.176 355.2 183.676" stroke="#000631" stroke-width="1.2" stroke-linecap="round" stroke-linejoin="round"/>
<path d="M344.9 181.476C344.9 181.476 349.3 180.376 351.3 181.576" stroke="#000631" stroke-width="1.2" stroke-linecap="round" stroke-linejoin="round"/>
<path d="M374.5 184.776C374.7 185.076 380.2 184.376 382.2 185.876" stroke="#000631" stroke-width="1.2" stroke-linecap="round" stroke-linejoin="round"/>
<path d="M365.3 185.176L370.5 185.676C370.5 185.676 373.6 186.176 378 187.076" stroke="#000631" stroke-width="1.2" stroke-linecap="round" stroke-linejoin="round"/>
<path d="M360.2 184.976L357.9 184.576" stroke="#000631" stroke-width="1.2" stroke-linecap="round" stroke-linejoin="round"/>
<path d="M360.3 180.276C360.3 180.276 359.3 178.876 360.1 178.976C361 179.176 362.5 181.276 362.5 181.276" stroke="#000631" stroke-width="1.2" stroke-linecap="round" stroke-linejoin="round"/>
<path d="M367 181.876C367 181.876 369.7 179.476 369.7 180.476" stroke="#000631" stroke-width="1.2" stroke-linecap="round" stroke-linejoin="round"/>
<path d="M371.6 181.676C371.6 181.676 372.8 179.076 371.2 177.976" stroke="#000631" stroke-width="1.2" stroke-linecap="round" stroke-linejoin="round"/>
<path d="M357.2 180.376C357.2 180.376 356.3 176.776 358 176.476" stroke="#000631" stroke-width="1.2" stroke-linecap="round" stroke-linejoin="round"/>
<path d="M363.6 174.076C363.6 174.076 365.7 173.576 366.8 174.576" stroke="#000631" stroke-width="1.2" stroke-linecap="round" stroke-linejoin="round"/>
<path d="M355.7 163.176L357.7 161.776" stroke="#000631" stroke-width="1.2" stroke-linecap="round" stroke-linejoin="round"/>
<path d="M375.4 163.376L377.2 165.476" stroke="#000631" stroke-width="1.2" stroke-linecap="round" stroke-linejoin="round"/>
<path d="M359.2 151.376C359.2 151.376 362.1 158.076 361.3 163.076" stroke="#000631" stroke-width="1.1" stroke-linecap="round" stroke-linejoin="round"/>
<path d="M375.1 152.976C375.1 152.976 372.9 155.176 372.8 157.176C372.8 157.176 370.4 161.176 371.8 173.976" stroke="#000631" stroke-width="1.2" stroke-linecap="round" stroke-linejoin="round"/>
<path d="M382.5 144.576C382.5 144.576 387.8 152.976 395.4 155.176" stroke="#000631" stroke-width="1.8" stroke-linecap="round" stroke-linejoin="round"/>
<path d="M345.3 147.576C345.3 147.576 357.8 145.876 361.8 142.976" stroke="#000631" stroke-width="1.8" stroke-linecap="round" stroke-linejoin="round"/>
<path d="M344.2 155.476C344.2 155.476 350.1 152.576 354 154.376C357.9 156.176 359.3 159.276 359.3 159.276C359.3 159.276 353.7 161.176 349.9 159.576C346 157.976 344.5 155.976 344.5 155.976" stroke="#000631" stroke-width="0.9" stroke-linecap="round" stroke-linejoin="round"/>
<path d="M376.5 160.276C376.5 160.276 382.5 157.376 386.4 159.176C390.3 160.976 391.7 164.076 391.7 164.076C391.7 164.076 386.1 165.976 382.2 164.376C378.4 162.776 376.9 160.776 376.9 160.776" stroke="#000631" stroke-width="0.9" stroke-linecap="round" stroke-linejoin="round"/>
<path d="M362.9 231.776C362.9 231.776 364.7 226.976 367.3 223.376" stroke="#000631" stroke-width="2.1" stroke-linecap="round" stroke-linejoin="round"/>
<path d="M329.4 200.476C329.4 200.476 325.1 210.576 319.7 214.776" stroke="#000631" stroke-width="2.1" stroke-linecap="round" stroke-linejoin="round"/>
<path d="M324 203.276C324 203.276 318.1 211.176 321 220.776C324 230.476 327.4 276.476 324.6 306.476C321.8 336.476 314.7 360.376 314.7 360.376" stroke="#000631" stroke-width="2.1" stroke-linecap="round" stroke-linejoin="round"/>
<path d="M352.9 192.476C352.9 192.476 357.9 188.976 364.4 191.176C370.8 193.376 368.9 194.576 368.7 195.476C368.6 195.576 354.7 191.876 352.7 193.376" stroke="#000631" stroke-width="1.2" stroke-linecap="round" stroke-linejoin="round"/>
<path d="M383.4 164.476C383.4 164.476 384.3 160.976 386.7 161.176C389.2 161.376 390 162.376 390.1 164.476" stroke="#000631" stroke-width="0.9" stroke-linecap="round" stroke-linejoin="round"/>
<path d="M351.7 159.776C351.7 159.776 350.5 157.576 352.6 156.576C354.7 155.576 356.6 155.776 357.7 157.676C358.7 159.576 357.7 159.776 357.7 159.776" stroke="#000631" stroke-width="0.9" stroke-linecap="round" stroke-linejoin="round"/>
<path d="M327.8 197.176C327.8 197.176 319.7 198.676 316.1 200.876C312.5 203.076 307 213.076 302.5 223.076C298 233.176 288.7 254.776 288.7 254.776C288.7 254.776 308.1 247.676 312.1 249.476C316.1 251.276 323.8 257.476 324.6 266.776" stroke="#000631" stroke-width="2.1" stroke-linecap="round" stroke-linejoin="round"/>
<path d="M374.5 222.376C374.5 222.376 385.4 246.376 386.3 260.976C387.2 275.576 392.9 323.276 392.5 337.876C392 352.376 392.5 357.676 392.5 357.676" stroke="#000631" stroke-width="2.1" stroke-linecap="round" stroke-linejoin="round"/>
<path d="M381.6 211.476C381.6 211.476 394.4 220.176 396.9 223.876C399.4 227.576 408.4 253.876 408.4 255.276C408.4 256.576 389.4 246.876 388.5 247.676" stroke="#000631" stroke-width="2.1" stroke-linecap="round" stroke-linejoin="round"/>
<path d="M396.2 231.476C396.2 231.476 394.3 232.576 392.1 235.976C389.8 239.276 385.9 252.976 386.3 260.976" stroke="#000631" stroke-width="2.1" stroke-linecap="round" stroke-linejoin="round"/>
<path d="M387.8 214.776C387.8 214.776 412.4 221.876 413.7 223.576C415 225.176 412.9 226.976 415 229.376C417.2 231.776 450.8 268.076 453.4 273.376C453.4 273.376 443.7 272.476 432.7 285.276C421 298.776 419 309.576 418.5 317.476C418.5 317.476 411.9 307.776 409.7 305.576" stroke="#000631" stroke-width="2.1" stroke-linecap="round" stroke-linejoin="round"/>
<path d="M408.4 261.776C408.4 261.776 410.6 300.676 409.7 317.476C408.8 334.276 411 346.676 411 346.676" stroke="#000631" stroke-width="2.1" stroke-linecap="round" stroke-linejoin="round"/>
<path d="M420.6 310.676L427.4 316.576" stroke="#000631" stroke-width="2.1" stroke-linecap="round" stroke-linejoin="round"/>
<path d="M418.5 317.476C418.5 317.476 420.6 318.576 424 313.676" stroke="#000631" stroke-width="2.1" stroke-linecap="round" stroke-linejoin="round"/>
<path d="M449.2 273.776C449.2 273.776 456.5 281.776 457.4 282.576" stroke="#000631" stroke-width="2.1" stroke-linecap="round" stroke-linejoin="round"/>
<path d="M453.4 273.376C453.4 273.376 454.3 276.476 453.4 278.176" stroke="#000631" stroke-width="2.1" stroke-linecap="round" stroke-linejoin="round"/>
<path d="M415.2 312.776C415.2 312.776 413.2 304.676 424.3 287.876C435.3 271.176 451.2 270.176 451.2 270.176" stroke="#000631" stroke-width="1.3" stroke-linecap="round" stroke-linejoin="round"/>
<path d="M325.6 246.776C325.6 246.776 338.6 259.176 354.9 260.076C371.3 260.976 376.6 245.076 377.5 237.076C377.5 237.076 377.7 229.576 376.5 226.876" stroke="#000631" stroke-width="1.3" stroke-linecap="round" stroke-linejoin="round"/>
<path d="M323.9 240.776C323.9 240.776 337 253.676 353.7 255.376C370.4 256.976 373.6 237.976 373.9 235.376C374.4 231.376 373 225.476 369.1 224.276" stroke="#000631" stroke-width="2.1" stroke-linecap="round" stroke-linejoin="round"/>
<path d="M309.2 209.676C309.2 209.676 281.2 224.776 277.6 226.076C274.1 227.376 267 228.276 267 230.076C267 231.776 267.9 231.776 264.8 234.476C261.7 237.076 253.8 261.376 251.6 275.576C249.4 289.676 240.9 317.476 240.9 317.476C240.9 317.476 247.6 324.976 265.7 328.976C283.8 332.976 301.9 332.076 303.3 331.676C304.6 331.176 294.9 282.576 298.8 275.976C302.8 269.376 301.9 287.476 301.9 287.476" stroke="#000631" stroke-width="2.1" stroke-linecap="round" stroke-linejoin="round"/>
<path d="M314.7 279.676C314.3 280.376 303.1 325.276 303.2 328.476" stroke="#000631" stroke-width="2.1" stroke-linecap="round" stroke-linejoin="round"/>
<path d="M309.2 277.576C309.2 277.576 308.8 297.276 308.2 302.276" stroke="#000631" stroke-width="2.1" stroke-linecap="round" stroke-linejoin="round"/>
<path d="M296.5 332.076C296.5 332.076 288.2 357.676 287.4 363.476" stroke="#000631" stroke-width="2.1" stroke-linecap="round" stroke-linejoin="round"/>
<path d="M288.5 358.376C288.5 358.376 309 359.876 321.6 364.476C334.2 369.176 392.5 368.376 392.5 368.376C392.5 368.376 397.3 353.276 402.2 351.076C407.1 348.876 417.2 344.476 417.2 344.476" stroke="#000631" stroke-width="2.1" stroke-linecap="round" stroke-linejoin="round"/>
<path d="M412.4 356.476C412.4 356.476 408.8 363.076 409.7 365.676C410.6 368.276 423.4 365.176 430.5 363.476C437.5 361.676 456.2 356.776 459.4 360.376C462.7 363.876 432.7 371.376 429.1 374.076" stroke="#000631" stroke-width="2.1" stroke-linecap="round" stroke-linejoin="round"/>
<path d="M459.7 362.176C459.7 362.176 463.6 361.276 463.2 364.376C462.7 367.376 435.3 378.476 431.8 381.576" stroke="#000631" stroke-width="2.1" stroke-linecap="round" stroke-linejoin="round"/>
<path d="M460.9 366.476C460.9 366.476 463.6 368.276 462.3 370.476C461 372.676 437.5 386.176 431.8 387.676" stroke="#000631" stroke-width="2.1" stroke-linecap="round" stroke-linejoin="round"/>
<path d="M452.7 377.076C452.7 377.076 457.4 374.076 458.7 375.776C460.1 377.576 451.7 387.276 445.9 389.476C440.2 391.676 425.2 394.376 425.2 394.376C425.2 394.376 395.6 393.076 393.8 393.476C392 393.876 331.5 407.176 323.1 407.576C314.7 408.076 280.3 413.376 262.6 406.776C247.8 401.176 241.3 402.676 240.9 393.676C240.5 384.676 241 360.376 247.9 322.576" stroke="#000631" stroke-width="2.1" stroke-linecap="round" stroke-linejoin="round"/>
<path d="M449.1 379.176L444.2 383.776H440.6" stroke="#000631" stroke-width="2.1" stroke-linecap="round" stroke-linejoin="round"/>
<path d="M411 362.076L441.1 281.276C441.1 281.276 486.5 287.876 513.5 282.576C513.5 282.576 547.1 243.276 559 244.176C559 244.176 530.3 291.876 526.3 304.276" stroke="#000631" stroke-width="2.1" stroke-linecap="round" stroke-linejoin="round"/>
<path d="M453.4 384.776L465.6 383.776C465.6 383.776 506 347.976 509.5 345.776L513.5 337.376" stroke="#000631" stroke-width="2.1" stroke-linecap="round" stroke-linejoin="round"/>
<path d="M513.5 282.576C513.5 282.576 470.9 367.176 465.6 383.776" stroke="#000631" stroke-width="1.6" stroke-linecap="round" stroke-linejoin="round"/>
<path d="M528.5 303.076C528.5 303.076 520.1 310.476 519.3 316.176C518.4 321.876 522.7 318.376 523.9 316.176C525 313.976 531.6 308.676 532.5 306.476C533.4 304.276 533.8 298.076 530.3 297.676" stroke="#000631" stroke-width="2.1" stroke-linecap="round" stroke-linejoin="round"/>
<path d="M518.4 318.376C518.4 318.376 514.4 321.876 514.8 326.776C515.3 331.676 522.9 322.776 526.1 320.076C529.4 317.476 531.1 310.876 529.4 310.276" stroke="#000631" stroke-width="2.1" stroke-linecap="round" stroke-linejoin="round"/>
<path d="M514.8 326.776C514.8 326.776 510 332.976 511.7 335.176C513.5 337.376 520.3 331.076 522.4 327.576C524.6 324.176 524.1 324.076 523.4 322.576" stroke="#000631" stroke-width="2.1" stroke-linecap="round" stroke-linejoin="round"/>
<path d="M515.7 334.476C515.7 334.476 513 338.176 515.7 338.876C518.4 339.576 525.1 330.976 525.3 329.076C525.4 327.276 522.4 327.576 522.4 327.576" stroke="#000631" stroke-width="2.1" stroke-linecap="round" stroke-linejoin="round"/>
<path d="M517.3 282.376C516.3 285.376 515.8 286.876 514.8 290.276C514.8 290.209 514.833 290.176 514.9 290.176C517.7 285.476 520.6 280.876 523.6 276.276C524 275.976 524.1 275.776 524.5 275.476C521 281.976 517.8 288.676 514.7 295.476C514 296.076 513.7 296.476 513 297.076C515 292.576 516 290.476 518.1 286.176C518.033 286.243 518 286.276 518 286.276C515.6 290.176 514.4 292.076 512 296.076C512 296.076 512 296.076 511.9 296.176C512.6 293.676 512.9 292.476 513.6 290.276C513.6 290.276 513.567 290.276 513.5 290.276C511.4 294.476 510.4 296.576 508.1 301.376C507.5 301.976 507.2 302.176 506.5 302.776C509.7 296.176 513.1 289.676 516.5 283.176C516.8 282.876 517 282.676 517.3 282.376Z" fill="black"/>
<path d="M526.1 273.976C528.2 271.976 529.3 270.976 531.5 268.976C530.6 270.476 530.2 271.176 529.4 272.676C528 273.876 527.3 274.576 526 275.776C525 277.776 524.5 278.776 523.5 280.676C524.7 279.676 525.3 279.176 526.5 278.076C525.8 279.376 525.5 280.076 524.9 281.376C523.7 282.476 523.2 282.976 522 284.076C521.1 285.976 520.7 286.976 519.8 288.876C521.2 287.676 521.8 287.076 523.2 285.876C522.6 287.176 522.4 287.776 521.8 289.076C519.6 290.976 518.5 291.976 516.4 293.976C519.5 287.176 522.6 280.476 526.1 273.976Z" fill="black"/>
<path d="M531.8 275.676C533.8 270.976 536.2 266.676 538.8 262.376C539.6 261.576 540 261.176 540.9 260.476C536.9 267.176 533.7 274.176 530.5 281.276C530.2 281.576 530 281.776 529.6 282.076C529.6 279.876 529.6 278.076 530.2 274.676C530.133 274.743 530.1 274.776 530.1 274.776C527.7 279.776 526.8 282.176 525.1 286.076C524.3 286.776 523.9 287.076 523.2 287.776C526.2 280.876 529.2 274.176 532.9 267.676C533.3 267.276 533.5 267.076 533.9 266.776C532.6 270.276 532.2 272.276 531.7 275.776C531.767 275.709 531.8 275.676 531.8 275.676Z" fill="black"/>
<path d="M535.4 277.476C534.867 277.876 534.467 278.109 534.2 278.176C533.867 278.243 533.7 278.076 533.7 277.676C533.7 277.276 533.833 276.643 534.1 275.776C534.433 274.843 534.9 273.676 535.5 272.276C537.7 267.576 540.1 263.276 542.7 258.776C543.6 258.076 544.1 257.676 545 256.876C542.1 261.176 539.7 265.776 537.5 270.476C537.167 271.209 536.9 271.843 536.7 272.376C536.5 272.976 536.4 273.409 536.4 273.676C536.333 274.009 536.367 274.209 536.5 274.276C536.567 274.343 536.767 274.243 537.1 273.976C537.433 273.776 537.733 273.476 538 273.076C538.333 272.609 538.7 272.109 539.1 271.576C539.433 271.043 539.767 270.443 540.1 269.776C540.5 269.043 540.867 268.309 541.2 267.576C543.6 262.476 546.3 257.576 549.5 252.976C550.5 252.176 551 251.776 551.9 250.876C548.6 255.876 545.6 260.976 543 266.376C542.2 267.976 541.467 269.376 540.8 270.576C540.1 271.776 539.5 272.776 538.8 273.676C538.2 274.576 537.6 275.276 537 275.876C536.467 276.543 535.933 277.076 535.4 277.476Z" fill="black"/>
<path d="M303.2 212.676L186.6 226.876L176.5 229.376L183.1 277.776L192.4 278.176L254.3 262.976" stroke="#000631" stroke-width="2.1" stroke-linecap="round" stroke-linejoin="round"/>
<path d="M186.6 226.876L192.4 278.176" stroke="#000631" stroke-width="1.8" stroke-linecap="round" stroke-linejoin="round"/>
<path d="M199.4 277.576L218 419.576" stroke="#000631" stroke-width="2.1" stroke-linecap="round" stroke-linejoin="round"/>
<path d="M220.6 271.276L237.4 411.576" stroke="#000631" stroke-width="2.1" stroke-linecap="round" stroke-linejoin="round"/>
<path d="M243.6 265.576L246.7 297.076" stroke="#000631" stroke-width="2.1" stroke-linecap="round" stroke-linejoin="round"/>
<path d="M205.1 275.076L224 417.076" stroke="#000631" stroke-width="1.8" stroke-linecap="round" stroke-linejoin="round"/>
<path d="M250.2 265.576L251.2 277.576" stroke="#000631" stroke-width="1.8" stroke-linecap="round" stroke-linejoin="round"/>
<path d="M366 367.176L396.9 356.376" stroke="#000631" stroke-width="2.1" stroke-linecap="round" stroke-linejoin="round"/>
<path d="M199.4 426.676L257.3 406.076" stroke="#000631" stroke-width="2.1" stroke-linecap="round" stroke-linejoin="round"/>
<path d="M525.3 329.076L697.7 328.576" stroke="#000631" stroke-width="2.1" stroke-linecap="round" stroke-linejoin="round"/>
<path d="M242.1 313.676C242.1 313.676 257.3 328.976 303.3 328.576" stroke="#000631" stroke-width="1.3" stroke-linecap="round" stroke-linejoin="round"/>
<path d="M162.2 98.4761C164.467 98.3428 166.733 98.2428 169 98.1761" stroke="#000631" stroke-width="1.3" stroke-linecap="round" stroke-linejoin="round"/>
<path d="M211.9 100.576C234 104.276 248.9 111.276 248.9 119.376C248.9 131.276 217.1 140.776 177.8 140.776C138.5 140.776 106.7 131.276 106.7 119.376C106.7 115.576 110.1 111.876 116 108.776" stroke="#000631" stroke-width="1.3" stroke-linecap="round" stroke-linejoin="round"/>
<path d="M110.7 126.676C110.7 126.676 125 140.276 155.3 143.076C203 147.476 225.8 139.576 243.8 127.376" stroke="#000631" stroke-width="1.3" stroke-linecap="round" stroke-linejoin="round"/>
<path d="M114 120.576C114 120.576 115.3 110.076 116.3 109.376C117.3 108.576 117.3 105.476 118.6 103.276C119.9 101.076 118.7 98.9761 119.8 96.8761C120.8 94.8761 123 90.8761 124.4 90.4761C125.7 89.9761 138.1 86.4761 140.7 86.4761C143.4 86.4761 142.8 85.5761 147.7 86.4761C152.6 87.3761 148.7 87.7761 153.1 88.6761C157.5 89.5761 158.4 90.8761 158.8 91.7761C159.3 92.6761 162.1 98.3761 162.4 100.776C162.8 103.276 163.7 108.176 164.1 110.376C164.6 112.576 165 118.676 165.7 120.276C166.3 121.876 162.7 125.076 159.4 126.576C156.2 127.976 150.4 129.376 149.1 129.376C147.8 129.376 145.9 127.976 142 129.376C138.1 130.676 126.6 129.776 123.9 127.576C122.2 126.176 115.4 122.476 114.2 120.476" stroke="#000631" stroke-width="1.2" stroke-linecap="round" stroke-linejoin="round"/>
<path d="M123.5 97.0761C122 97.0761 129 102.376 135.4 102.176C138.1 102.076 142.1 99.9761 144.5 100.976C146.9 101.976 151.6 99.6761 153.2 98.1761C154.8 96.6761 155.3 97.9762 157 94.8762" stroke="#000631" stroke-width="1.2" stroke-linecap="round" stroke-linejoin="round"/>
<path d="M130.5 111.176C130.5 111.176 131.9 112.276 134.7 109.376" stroke="#000631" stroke-width="1.2" stroke-linecap="round" stroke-linejoin="round"/>
<path d="M144 114.476C144 114.476 146 116.076 148 114.476" stroke="#000631" stroke-width="1.2" stroke-linecap="round" stroke-linejoin="round"/>
<path d="M153 108.976C153 108.976 154.8 110.876 157 108.576" stroke="#000631" stroke-width="1.2" stroke-linecap="round" stroke-linejoin="round"/>
<path d="M122.3 117.876C122.3 117.876 124.1 120.976 126 119.376" stroke="#000631" stroke-width="1.2" stroke-linecap="round" stroke-linejoin="round"/>
<path d="M140.2 122.176C140.2 122.176 144.6 123.076 146 122.176" stroke="#000631" stroke-width="1.2" stroke-linecap="round" stroke-linejoin="round"/>
<path d="M156 116.776C156 116.776 159.4 118.776 160.2 116.776" stroke="#000631" stroke-width="1.2" stroke-linecap="round" stroke-linejoin="round"/>
<path d="M164.6 112.976C164.6 112.976 163.5 108.776 166 109.576C168.5 110.376 172.5 111.776 173.8 111.076C175.2 110.376 180.5 112.876 180.5 112.876C180.5 112.876 185.3 112.476 188 113.876C190.6 115.176 192.2 115.976 193 117.776C193.7 119.576 197.9 121.476 200.4 121.876C203 122.276 205.9 122.076 207.1 123.776C208.3 125.376 212.4 129.676 209.9 130.376C207.4 131.076 199 130.776 193.5 132.276C188 133.776 187.4 135.476 179.5 134.776C171.6 134.176 169.2 132.976 163.1 132.276C157 131.576 156.6 128.876 156.2 128.876" stroke="#000631" stroke-width="1.2" stroke-linecap="round" stroke-linejoin="round"/>
<path d="M168.9 126.576C168.9 126.576 178.7 129.576 182.2 128.976C185.8 128.476 189 128.676 192.5 128.976C195.9 129.376 200.4 128.176 201.7 128.776" stroke="#000631" stroke-width="1.2" stroke-linecap="round" stroke-linejoin="round"/>
<path d="M168.9 110.476C168.9 110.476 162.7 103.576 168.9 98.5761C175.2 93.5761 188 90.4762 199.9 96.1762C211.8 101.976 240 108.376 241.1 112.876C242.3 117.376 224 129.176 207.1 123.776" stroke="#000631" stroke-width="1.2" stroke-linecap="round" stroke-linejoin="round"/>
<path d="M193 117.776C192.8 117.876 204.4 123.176 217.2 121.576C229.9 120.076 235.7 116.976 236.6 113.476" stroke="#000631" stroke-width="1.2" stroke-linecap="round" stroke-linejoin="round"/>
<path d="M174.6 107.076C174.6 107.076 187.7 97.0761 198.2 99.7761" stroke="#000631" stroke-width="1.2" stroke-linecap="round" stroke-linejoin="round"/>
<path d="M191.5 109.876C191.5 109.876 201.8 103.476 213.7 104.476" stroke="#000631" stroke-width="1.2" stroke-linecap="round" stroke-linejoin="round"/>
<path d="M203.7 114.176C203.7 114.176 218.3 108.376 227.9 109.076" stroke="#000631" stroke-width="1.2" stroke-linecap="round" stroke-linejoin="round"/>
<path d="M54.6001 287.076C54.6001 287.076 56.4001 280.376 65.0001 275.076C73.6001 269.776 88.6002 260.576 94.8002 258.276C94.8002 258.276 121.5 257.876 132.7 258.276C143.8 258.776 171.2 261.876 174.7 264.976C174.7 264.976 172.5 268.276 174.7 271.276C176.9 274.176 177.4 275.176 176.5 277.576C175.6 279.976 174.7 282.576 174.7 283.476C174.7 284.376 167.6 287.476 164.1 291.876C160.6 296.276 150.9 303.776 145.6 308.676C140.3 313.576 136.3 317.076 136.3 317.076C136.3 317.076 129 317.476 122.7 317.076C116.4 316.576 94.3002 314.876 87.3002 313.576C80.2002 312.176 58.5001 311.276 58.5001 311.276C58.5001 311.276 59.4001 303.776 58.5001 301.576C57.7001 299.376 53.7001 297.576 55.0001 295.376C56.3001 293.276 55.9001 288.376 54.6001 287.076Z" stroke="#000631" stroke-width="1.3" stroke-linecap="round" stroke-linejoin="round"/>
<path d="M56.1001 286.376C56.1001 286.376 68.9002 282.876 77.8002 284.576C86.6002 286.376 114.9 291.676 123.3 293.876C131.6 296.076 132 293.876 132 293.876C132 293.876 144.9 282.876 148 280.176C151.1 277.576 160.8 268.676 166.1 268.276C171.4 267.776 174.7 264.976 174.7 264.976" stroke="#000631" stroke-width="0.9" stroke-linecap="round" stroke-linejoin="round"/>
<path d="M132 293.876C132 293.876 129 300.476 130.3 302.676C131.6 304.876 131.9 305.476 132 307.676C132.1 309.776 133 313.276 133 313.276C133 313.276 137.4 315.476 136.3 317.076" stroke="#000631" stroke-width="0.9" stroke-linecap="round" stroke-linejoin="round"/>
<path d="M56.1001 293.176C56.1001 293.176 63.8001 290.676 77.6001 293.176C91.5001 295.676 123 302.276 130 298.476C130 298.476 151.5 281.976 157.7 278.876C163.9 275.776 173.2 269.576 173.2 269.576" stroke="#000631" stroke-width="0.9" stroke-linecap="round" stroke-linejoin="round"/>
<path d="M58.5 299.576C58.5 299.576 61.9 296.576 64.1 297.376C66.3 298.276 68.9 301.876 72.9 301.376C76.9 300.976 81.4 297.876 83.1 299.576C84.8 301.376 85.7 303.576 89.2 303.576C92.8 303.576 95.9 301.376 99.4 302.276C102.9 303.176 102.1 303.576 106 304.476C110 305.376 112.6 303.176 115.7 304.476C118.8 305.776 118.4 306.676 121.9 307.576C125.5 308.476 129.6 303.376 131.7 305.476C131.7 305.476 136.5 297.876 142.3 298.276C148 298.776 147.4 296.076 150.1 293.876C152.9 291.676 155.4 283.276 159 283.276C162.7 283.276 166.5 281.076 168.3 277.576C170.4 273.276 174.1 273.976 176.5 275.076" stroke="#000631" stroke-width="0.9" stroke-linecap="round" stroke-linejoin="round"/>
<path d="M58.5 301.576C58.5 301.576 60.8 298.276 62.7 299.576C64.5 300.976 68.5 304.476 72.5 304.076C76.4 303.576 78.6 301.376 80.4 303.176C82.2 304.876 87 307.976 93.2 306.676C99.4 305.376 98.8 305.576 103.1 306.976C107.4 308.476 110.9 305.076 114.6 306.976C118.4 308.876 121.9 311.076 125.5 310.176C129 309.376 131.5 305.076 132 307.676C132 307.676 137.8 300.076 141.8 300.976C145.8 301.876 150.2 297.876 151.5 295.676C152.9 293.476 158.1 284.576 160.8 285.476C163.5 286.376 168.4 281.176 169.2 279.776C171.4 275.776 174.1 275.376 176.5 277.576" stroke="#000631" stroke-width="0.9" stroke-linecap="round" stroke-linejoin="round"/>
<path d="M58.8 308.476C58.8 308.476 67.8 307.076 75.6 308.476C83.5 309.776 124.6 314.176 133 313.276C133 313.276 142.3 307.576 147.1 303.176C152 298.776 170.2 281.476 175.2 281.276" stroke="#000631" stroke-width="0.9" stroke-linecap="round" stroke-linejoin="round"/>
<path d="M176.3 279.576C186.3 284.576 192.2 290.876 192.2 297.676C192.2 314.076 157.2 327.476 114 327.476C70.8 327.476 35.8 314.076 35.8 297.676C35.8 288.076 47.7 279.476 66.1 274.076" stroke="#000631" stroke-linecap="round" stroke-linejoin="round"/>
<path d="M45.1001 311.776C45.1001 311.776 60.1001 323.876 87.9001 329.176C115.7 334.476 149.8 328.376 161.7 324.376C173.6 320.376 181.8 312.476 181.8 312.476" stroke="#000631" stroke-linecap="round" stroke-linejoin="round"/>
<path d="M548.5 62.8762C550.167 62.9428 551.833 63.0094 553.5 63.0761" stroke="#000631" stroke-width="1.1" stroke-linecap="round" stroke-linejoin="round"/>
<path d="M576 65.3762C600.6 69.4762 617.5 78.2761 617.5 88.4761C617.5 102.676 584.7 114.076 544.2 114.076C503.7 114.076 470.9 102.676 470.9 88.4761C470.9 80.8761 480.3 74.0762 495.3 69.3762" stroke="#000631" stroke-width="1.1" stroke-linecap="round" stroke-linejoin="round"/>
<path d="M492.4 79.2761C494.7 79.1761 497.1 78.5761 498.3 78.7761" stroke="#000631" stroke-width="0.7" stroke-linecap="round" stroke-linejoin="round"/>
<path d="M487.6 79.7761C485.7 80.2761 484 80.7762 482.8 81.3762C479.4 83.0762 477.5 88.8761 486.8 93.7761C496.1 98.6761 511.5 98.1761 511.5 98.1761C511.5 98.1761 526.5 97.7762 530.5 96.8762C530.5 96.8762 532.1 96.4761 532.4 95.5761" stroke="#000631" stroke-width="0.7" stroke-linecap="round" stroke-linejoin="round"/>
<path d="M489.9 80.7761C492.1 80.4761 495.1 80.3761 497.4 80.5761" stroke="#000631" stroke-width="0.7" stroke-linecap="round" stroke-linejoin="round"/>
<path d="M486.2 81.6761C485.1 81.9761 484.2 82.3761 483.7 82.7761C481.9 84.0761 479.3 87.1761 487.7 91.9761C496.1 96.8761 505.8 96.8761 528.1 96.0761" stroke="#000631" stroke-width="0.7" stroke-linecap="round" stroke-linejoin="round"/>
<path d="M501.8 75.1761C501.8 75.1761 490.3 75.7762 486.8 81.3762C483.3 87.0762 486.4 91.6761 489.5 92.9761" stroke="#000631" stroke-width="0.7" stroke-linecap="round" stroke-linejoin="round"/>
<path d="M500.5 76.5761C500.5 76.5761 489.9 77.8761 487.7 83.1761C485.5 88.4761 488.7 91.2762 491.5 93.8762" stroke="#000631" stroke-width="0.7" stroke-linecap="round" stroke-linejoin="round"/>
<path d="M497.8 95.5761C496.4 95.6761 491.8 92.2762 489.7 88.8762C487.2 84.9762 488.6 81.6761 488.6 81.6761" stroke="#000631" stroke-width="0.7" stroke-linecap="round" stroke-linejoin="round"/>
<path d="M487.3 88.6761C487.3 88.6761 489.9 92.3762 493 94.3762" stroke="#000631" stroke-width="0.7" stroke-linecap="round" stroke-linejoin="round"/>
<path d="M514.6 71.2761C514.6 71.2761 512.9 69.8761 508.9 70.7761C504.9 71.6761 493 82.2761 493.2 92.4761" stroke="#000631" stroke-width="0.7" stroke-linecap="round" stroke-linejoin="round"/>
<path d="M495 94.2761C495 94.2761 493.1 89.2761 499.6 80.5761C507.6 69.8761 513.3 71.6762 513.3 71.6762" stroke="#000631" stroke-width="0.7" stroke-linecap="round" stroke-linejoin="round"/>
<path d="M512 72.9761C512 72.9761 508.6 72.6761 503 79.2761C497.4 85.8761 496 91.9761 496.3 95.0761" stroke="#000631" stroke-width="0.7" stroke-linecap="round" stroke-linejoin="round"/>
<path d="M502 80.4761C502 80.4761 497.5 92.2762 499.9 95.8762" stroke="#000631" stroke-width="0.7" stroke-linecap="round" stroke-linejoin="round"/>
<path d="M503.9 78.7761C503.9 78.7761 499.7 89.8761 501.2 95.9761" stroke="#000631" stroke-width="0.7" stroke-linecap="round" stroke-linejoin="round"/>
<path d="M498.5 85.9761C498.3 86.2761 497 90.2761 498.3 95.5761" stroke="#000631" stroke-width="0.7" stroke-linecap="round" stroke-linejoin="round"/>
<path d="M503.3 80.4761C503.3 80.4761 511.5 71.6761 518.2 69.4761C524.8 67.2761 528.3 70.7761 528.3 70.7761" stroke="#000631" stroke-width="0.7" stroke-linecap="round" stroke-linejoin="round"/>
<path d="M502.1 84.3761C502.1 84.3761 510.6 73.6761 517 71.5761C523.5 69.4761 526.1 70.7761 527.4 72.1761" stroke="#000631" stroke-width="0.7" stroke-linecap="round" stroke-linejoin="round"/>
<path d="M501.8 86.6761C501.8 86.6761 510.6 76.0761 515.5 73.4761C520.4 70.7761 526.5 71.6762 527.9 73.8762" stroke="#000631" stroke-width="0.7" stroke-linecap="round" stroke-linejoin="round"/>
<path d="M505.7 82.2761C505.7 82.2761 515.9 73.6761 527.9 74.8761" stroke="#000631" stroke-width="0.7" stroke-linecap="round" stroke-linejoin="round"/>
<path d="M510.1 77.7761C510.1 77.7761 518 72.7761 527.9 73.8761" stroke="#000631" stroke-width="0.7" stroke-linecap="round" stroke-linejoin="round"/>
<path d="M513.5 74.7761C513.5 74.7761 520.1 71.7762 525.7 72.3762" stroke="#000631" stroke-width="0.7" stroke-linecap="round" stroke-linejoin="round"/>
<path d="M503.9 84.8761C503.9 84.8761 512.3 78.8761 519 79.2761" stroke="#000631" stroke-width="0.7" stroke-linecap="round" stroke-linejoin="round"/>
<path d="M510.7 79.2761C510.7 79.2761 516.2 76.8761 522.3 77.7761" stroke="#000631" stroke-width="0.7" stroke-linecap="round" stroke-linejoin="round"/>
<path d="M519 75.7761C519 75.7761 523.2 75.1761 524.4 76.5761" stroke="#000631" stroke-width="0.7" stroke-linecap="round" stroke-linejoin="round"/>
<path d="M528.9 74.5761C528.9 74.5761 522 76.9762 515.2 82.8762C508.4 88.8762 510.2 95.6761 510.7 96.0761" stroke="#000631" stroke-width="0.7" stroke-linecap="round" stroke-linejoin="round"/>
<path d="M500.8 89.4761C500.8 89.4761 508.6 82.1761 516.5 82.0761" stroke="#000631" stroke-width="0.7" stroke-linecap="round" stroke-linejoin="round"/>
<path d="M508.6 82.0761C508.6 82.0761 514.5 79.9761 518.1 80.8761" stroke="#000631" stroke-width="0.7" stroke-linecap="round" stroke-linejoin="round"/>
<path d="M501 90.7761C501 90.7761 507.5 85.5762 513.5 84.8762" stroke="#000631" stroke-width="0.7" stroke-linecap="round" stroke-linejoin="round"/>
<path d="M501 91.8762C501 91.8762 508.9 89.3761 511.1 88.4761" stroke="#000631" stroke-width="0.7" stroke-linecap="round" stroke-linejoin="round"/>
<path d="M505 88.6761C505 88.6761 511 87.0761 512.1 86.4761" stroke="#000631" stroke-width="0.7" stroke-linecap="round" stroke-linejoin="round"/>
<path d="M501 93.8762C501 93.8762 508.3 93.1761 510.1 91.0761" stroke="#000631" stroke-width="0.7" stroke-linecap="round" stroke-linejoin="round"/>
<path d="M501 94.7761C501 94.7761 504.4 96.1762 509.7 93.8762" stroke="#000631" stroke-width="0.7" stroke-linecap="round" stroke-linejoin="round"/>
<path d="M501 92.4761C501 92.4761 508 90.8761 510.7 89.6761" stroke="#000631" stroke-width="0.7" stroke-linecap="round" stroke-linejoin="round"/>
<path d="M510.1 92.4761C510.1 92.4761 515.3 82.1761 528.8 76.5761" stroke="#000631" stroke-width="0.7" stroke-linecap="round" stroke-linejoin="round"/>
<path d="M511.1 91.0761C511.1 91.0761 519 80.9761 530.1 78.7761" stroke="#000631" stroke-width="0.7" stroke-linecap="round" stroke-linejoin="round"/>
<path d="M513.8 88.1761C513.8 88.1761 531.8 86.6761 536.7 82.2761" stroke="#000631" stroke-width="0.7" stroke-linecap="round" stroke-linejoin="round"/>
<path d="M515.4 86.6761C515.9 86.6761 529.2 84.0762 533.6 81.8762" stroke="#000631" stroke-width="0.7" stroke-linecap="round" stroke-linejoin="round"/>
<path d="M517.5 84.9761C517.5 84.9761 527.9 80.5761 531.4 80.5761" stroke="#000631" stroke-width="0.7" stroke-linecap="round" stroke-linejoin="round"/>
<path d="M512.5 90.1761C512.5 90.1761 523.9 88.8761 531 87.7761C538 86.6761 540.2 82.7761 540.2 82.7761" stroke="#000631" stroke-width="0.7" stroke-linecap="round" stroke-linejoin="round"/>
<path d="M541.5 82.8762C541.5 82.8762 542.4 90.3762 535.6 91.8762C528.8 93.3762 518.1 89.6761 518.1 89.6761" stroke="#000631" stroke-width="0.7" stroke-linecap="round" stroke-linejoin="round"/>
<path d="M515.4 90.1761C515.4 90.1761 522.6 93.9762 532.3 93.8762C542 93.7762 544.1 86.6762 543.3 82.8762" stroke="#000631" stroke-width="0.7" stroke-linecap="round" stroke-linejoin="round"/>
<path d="M513.3 90.7761C513.3 90.7761 518 94.1761 523.8 95.0761C529.6 95.9761 538.1 95.6762 540 93.8762C542 91.9762 542 89.4761 542 89.4761C542 89.4761 545.6 89.4761 550 88.7761" stroke="#000631" stroke-width="0.7" stroke-linecap="round" stroke-linejoin="round"/>
<path d="M510.4 92.9761C510.4 92.9761 514.6 93.3762 516.4 92.8762" stroke="#000631" stroke-width="0.7" stroke-linecap="round" stroke-linejoin="round"/>
<path d="M510.4 95.0761C510.4 95.0761 515.8 95.6761 519.6 94.2761" stroke="#000631" stroke-width="0.7" stroke-linecap="round" stroke-linejoin="round"/>
<path d="M520.4 90.2761C520.3 90.7761 529 90.3761 534.4 88.9761C539.8 87.5761 540.7 86.1761 541.6 84.6761" stroke="#000631" stroke-width="0.7" stroke-linecap="round" stroke-linejoin="round"/>
<path d="M528.9 92.1761C528.9 92.1761 537.2 91.8762 540.5 88.3762" stroke="#000631" stroke-width="0.7" stroke-linecap="round" stroke-linejoin="round"/>
<path d="M553 72.2761C553.8 70.7761 551.7 69.0761 552.2 68.1761C552.6 67.2761 550.8 65.9761 550.8 65.9761L550 64.5761C550 64.5761 547.7 62.8761 545.5 61.0761C543.3 59.2761 539.8 58.4761 533.6 61.5761C527.4 64.5761 527.9 74.7761 530.1 78.8761C532.4 82.8761 545.1 83.5761 547.3 81.6761C549.4 79.6761 553.2 75.0761 553 72.1761C553 72.1761 560.9 69.6761 569.1 70.4761C577.3 71.2761 584.6 75.9761 586.1 79.7761C587.5 83.5761 587 86.2761 587 86.2761" stroke="#000631" stroke-width="0.7" stroke-linecap="round" stroke-linejoin="round"/>
<path d="M535.3 95.3762C535.3 95.3762 539.3 96.5761 548.2 96.0761C557 95.5761 574.1 85.7761 579.3 86.4761C584.4 87.1761 594.4 90.0761 599.5 89.0761C604.7 88.0761 602.1 80.9761 599.9 80.5761" stroke="#000631" stroke-width="0.7" stroke-linecap="round" stroke-linejoin="round"/>
<path d="M538.9 94.4761C538.9 94.6761 547.3 95.2762 552.1 93.8762C557 92.4762 573.6 84.6762 576.3 84.8762C579.1 84.9762 582.7 84.8761 588.6 86.6761C594.6 88.4761 599.4 88.0761 600.3 87.1761C601.2 86.2761 601.5 83.1761 599.8 82.2761" stroke="#000631" stroke-width="0.7" stroke-linecap="round" stroke-linejoin="round"/>
<path d="M543.2 86.4761C543.3 86.2761 552.6 91.1761 562.5 89.7761" stroke="#000631" stroke-width="0.7" stroke-linecap="round" stroke-linejoin="round"/>
<path d="M543.4 84.9761C543.4 84.9761 555.9 89.8761 565.3 88.5761" stroke="#000631" stroke-width="0.7" stroke-linecap="round" stroke-linejoin="round"/>
<path d="M543.2 87.5761H545.1" stroke="#000631" stroke-width="0.7" stroke-linecap="round" stroke-linejoin="round"/>
<path d="M541.6 92.1761C541.6 92.1761 550.4 91.1761 554.4 90.0761" stroke="#000631" stroke-width="0.7" stroke-linecap="round" stroke-linejoin="round"/>
<path d="M542.2 94.7761C542.2 94.7761 547.2 93.4761 551.2 90.7761" stroke="#000631" stroke-width="0.7" stroke-linecap="round" stroke-linejoin="round"/>
<path d="M548.9 94.4761C548.9 94.4761 550 94.6761 553.5 90.6761" stroke="#000631" stroke-width="0.7" stroke-linecap="round" stroke-linejoin="round"/>
<path d="M556.2 89.8762C556.2 89.8762 555.2 93.4762 552.1 93.8762" stroke="#000631" stroke-width="0.7" stroke-linecap="round" stroke-linejoin="round"/>
<path d="M543.3 82.8762C543.3 82.8762 554.2 88.4761 567.1 87.5761" stroke="#000631" stroke-width="0.7" stroke-linecap="round" stroke-linejoin="round"/>
<path d="M546.4 82.2761C546.4 82.2761 558.6 83.8761 560.5 87.4761" stroke="#000631" stroke-width="0.7" stroke-linecap="round" stroke-linejoin="round"/>
<path d="M547.6 84.6761C547.6 84.6761 554.2 85.0761 556.7 86.9761" stroke="#000631" stroke-width="0.7" stroke-linecap="round" stroke-linejoin="round"/>
<path d="M548 80.9761C548 80.9761 560.9 83.1761 563 87.5761" stroke="#000631" stroke-width="0.7" stroke-linecap="round" stroke-linejoin="round"/>
<path d="M549.5 79.2761C549.5 79.2761 566.8 85.2761 574.1 85.2761" stroke="#000631" stroke-width="0.7" stroke-linecap="round" stroke-linejoin="round"/>
<path d="M558.7 84.1761C558.7 84.1761 564.8 86.1761 570 86.4761" stroke="#000631" stroke-width="0.7" stroke-linecap="round" stroke-linejoin="round"/>
<path d="M550.7 77.7761C550.8 77.8761 566.1 84.0761 575.5 84.9761" stroke="#000631" stroke-width="0.7" stroke-linecap="round" stroke-linejoin="round"/>
<path d="M552.9 73.5761C552.9 73.5761 569.2 69.5761 577.7 74.5761C586.2 79.6761 585.6 85.2761 585.6 85.2761" stroke="#000631" stroke-width="0.7" stroke-linecap="round" stroke-linejoin="round"/>
<path d="M557.9 93.8762C557.9 93.8762 568.6 90.1761 575.8 92.1761C583.1 94.1761 582 95.7761 588.7 94.7761C595.5 93.7761 598.3 92.1761 595.8 89.2761" stroke="#000631" stroke-width="0.7" stroke-linecap="round" stroke-linejoin="round"/>
<path d="M563.5 91.4761C563.5 91.4761 569.5 89.0761 574.8 90.2761C580 91.5761 582.3 92.7761 587.1 93.2761C591.9 93.7761 594.5 91.6761 594.3 90.7761C594.1 89.7761 592.1 89.0761 592.1 89.0761" stroke="#000631" stroke-width="0.7" stroke-linecap="round" stroke-linejoin="round"/>
<path d="M576.9 90.6761C576.9 90.6761 584.4 91.9761 586.6 91.5761C588.8 91.1761 589.8 89.1762 587.6 88.3762" stroke="#000631" stroke-width="0.7" stroke-linecap="round" stroke-linejoin="round"/>
<path d="M574.8 90.2761C574.8 90.2761 576.3 88.6761 580.3 89.2761C584.4 89.7761 588.5 91.2761 585.6 87.6761" stroke="#000631" stroke-width="0.7" stroke-linecap="round" stroke-linejoin="round"/>
<path d="M552.1 75.7761C552.1 75.7761 555 75.8761 564.9 75.7761C574.7 75.6761 578.9 75.3762 578.9 75.3762" stroke="#000631" stroke-width="0.7" stroke-linecap="round" stroke-linejoin="round"/>
<path d="M551.2 76.9761C551.2 76.9761 558.7 78.1761 567.8 77.7761C576.9 77.4761 579.8 76.5761 579.8 76.5761" stroke="#000631" stroke-width="0.7" stroke-linecap="round" stroke-linejoin="round"/>
<path d="M556.2 77.7761C556.2 77.7761 575.7 81.4761 581.8 78.5761" stroke="#000631" stroke-width="0.7" stroke-linecap="round" stroke-linejoin="round"/>
<path d="M555.2 79.2761C555.2 79.2761 568.3 82.7761 575.5 82.2761C582.6 81.8761 584.1 80.4761 584.1 80.4761" stroke="#000631" stroke-width="0.7" stroke-linecap="round" stroke-linejoin="round"/>
<path d="M571.5 84.1761C571.5 84.1761 582.4 85.3761 585.2 82.7761" stroke="#000631" stroke-width="0.7" stroke-linecap="round" stroke-linejoin="round"/>
<path d="M581.1 74.5761C581.1 74.5761 588.1 76.5761 589.8 79.6761C591.5 82.7761 592.3 85.9761 590.6 86.9761" stroke="#000631" stroke-width="0.7" stroke-linecap="round" stroke-linejoin="round"/>
<path d="M584.5 77.4761C584.5 77.4761 587.6 78.6762 588.9 81.3762C590.2 84.0762 588.5 86.6761 587.8 86.4761" stroke="#000631" stroke-width="0.7" stroke-linecap="round" stroke-linejoin="round"/>
<path d="M586.9 81.3762C586.9 81.3762 588.9 83.0762 588.9 84.8762" stroke="#000631" stroke-width="0.7" stroke-linecap="round" stroke-linejoin="round"/>
<path d="M552.5 74.5761C552.5 74.5761 568.3 74.0762 572.6 72.8762" stroke="#000631" stroke-width="0.7" stroke-linecap="round" stroke-linejoin="round"/>
<path d="M552.9 70.2761C552.9 70.2761 564.3 65.7761 571 70.2761" stroke="#000631" stroke-width="0.7" stroke-linecap="round" stroke-linejoin="round"/>
<path d="M585.6 75.8762C585.6 75.8762 593.5 75.1761 596.7 77.4761C599.9 79.6761 600.1 81.7761 599.1 83.5761C598.1 85.3761 595.5 87.5761 592.4 87.5761" stroke="#000631" stroke-width="0.7" stroke-linecap="round" stroke-linejoin="round"/>
<path d="M599.1 83.5761C599.1 83.5761 599.5 87.7761 596.1 87.6761" stroke="#000631" stroke-width="0.7" stroke-linecap="round" stroke-linejoin="round"/>
<path d="M587.2 77.1762C587.2 77.1762 595.3 75.1761 598.3 78.7761" stroke="#000631" stroke-width="0.7" stroke-linecap="round" stroke-linejoin="round"/>
<path d="M589.3 78.9761C589.3 78.9761 597.1 78.3761 598.3 79.6761C599.4 80.9761 600.3 83.6761 597.6 85.3761" stroke="#000631" stroke-width="0.7" stroke-linecap="round" stroke-linejoin="round"/>
<path d="M596.1 86.2761C597.3 85.3761 599 83.5762 597.6 81.6762C596.3 79.6762 590.3 80.5761 590.3 80.5761" stroke="#000631" stroke-width="0.7" stroke-linecap="round" stroke-linejoin="round"/>
<path d="M590.9 82.0761C590.9 82.0761 598 82.1761 597.6 84.6761" stroke="#000631" stroke-width="0.7" stroke-linecap="round" stroke-linejoin="round"/>
<path d="M594.4 86.9761C594.6 86.4761 595.9 86.2761 595.6 84.6761C595.4 83.0761 591.5 84.4761 591.5 84.4761" stroke="#000631" stroke-width="0.7" stroke-linecap="round" stroke-linejoin="round"/>
<path d="M591.5 86.2761C591.5 86.2761 593.7 84.3761 595.5 85.3761" stroke="#000631" stroke-width="0.7" stroke-linecap="round" stroke-linejoin="round"/>
<path d="M552.9 95.5761C552.9 95.5761 558.4 95.5761 564.4 97.0761C570.3 98.6761 580.5 99.0761 582.2 97.0761C584 95.0761 580.6 93.8762 580.6 93.8762" stroke="#000631" stroke-width="0.7" stroke-linecap="round" stroke-linejoin="round"/>
<path d="M555.2 94.7761C555.2 94.7761 562.6 94.6762 567.1 96.4762C571.6 98.1762 579.9 97.4762 580.7 96.1762C581.3 95.0762 577.8 92.3762 576.9 92.4762" stroke="#000631" stroke-width="0.7" stroke-linecap="round" stroke-linejoin="round"/>
<path d="M559.5 93.3762C559.5 93.3762 565.9 93.0761 569.6 94.9761C573.4 96.8761 580.5 96.3761 580.4 95.0761" stroke="#000631" stroke-width="0.7" stroke-linecap="round" stroke-linejoin="round"/>
<path d="M548.2 96.0761C548.2 96.0761 549 98.9761 552.1 99.6761C555.3 100.376 560.6 98.9761 564.4 99.6761C568.1 100.376 566.7 98.6761 563.9 98.4761C561 98.1761 554.5 98.9761 552.9 98.4761C550.8 97.7761 549.5 96.9761 550 96.0761" stroke="#000631" stroke-width="0.7" stroke-linecap="round" stroke-linejoin="round"/>
<path d="M588.9 90.1761C588.9 90.1761 592 90.6761 593.5 90.0761" stroke="#000631" stroke-width="0.7" stroke-linecap="round" stroke-linejoin="round"/>
<path d="M533.6 73.7761C533.6 73.7761 534 75.1761 534.7 75.1761" stroke="#000631" stroke-width="0.7" stroke-linecap="round" stroke-linejoin="round"/>
<path d="M540.5 74.0761C540.5 74.0761 541.4 75.1761 542.2 74.0761" stroke="#000631" stroke-width="0.7" stroke-linecap="round" stroke-linejoin="round"/>
<path d="M536 77.5761C536 77.5761 536.5 78.5761 537.9 77.7761" stroke="#000631" stroke-width="0.7" stroke-linecap="round" stroke-linejoin="round"/>
<path d="M545.1 75.8762C545.1 75.8762 546.9 76.3761 547.6 75.5761" stroke="#000631" stroke-width="0.7" stroke-linecap="round" stroke-linejoin="round"/>
<path d="M548.2 72.2761C548.2 72.2761 548.7 72.8761 549.5 71.7761" stroke="#000631" stroke-width="0.7" stroke-linecap="round" stroke-linejoin="round"/>
<path d="M534.1 70.2761C534.1 70.2761 535.3 71.2762 536 70.8762" stroke="#000631" stroke-width="0.7" stroke-linecap="round" stroke-linejoin="round"/>
<path d="M529.8 71.5761C529.8 71.5761 530.5 72.5761 531.6 72.1761" stroke="#000631" stroke-width="0.7" stroke-linecap="round" stroke-linejoin="round"/>
<path d="M540.2 68.7761C540.2 68.7761 541.4 69.9761 542.2 69.2761" stroke="#000631" stroke-width="0.7" stroke-linecap="round" stroke-linejoin="round"/>
<path d="M546.7 68.7761C546.7 68.7761 547.5 69.7761 548.5 68.7761" stroke="#000631" stroke-width="0.7" stroke-linecap="round" stroke-linejoin="round"/>
<path d="M546 79.6761C546 79.6761 548.2 81.3761 549.5 79.1761" stroke="#000631" stroke-width="0.7" stroke-linecap="round" stroke-linejoin="round"/>
<path d="M555.2 69.2761C555.2 69.2761 553.6 67.1761 554.2 66.0761C554.8 65.0761 554 63.7762 554.2 62.8762C554.4 61.9762 554.7 60.0761 555.2 59.4761C555.7 58.8761 558.2 56.5762 560.5 56.8762C562.8 57.0762 563.2 54.4761 565.9 55.7761C568.5 57.0761 570.4 57.3762 571 57.6762C571.6 57.9762 572.3 59.2761 572.6 59.9761C572.9 60.6761 574.8 61.9762 574.8 62.8762C574.7 63.7762 576.5 68.8761 574.1 70.9761" stroke="#000631" stroke-width="0.7" stroke-linecap="round" stroke-linejoin="round"/>
<path d="M556.7 65.6761C556.7 65.6761 557.8 66.7761 558.7 65.6761" stroke="#000631" stroke-width="0.7" stroke-linecap="round" stroke-linejoin="round"/>
<path d="M563.1 65.6761C563.1 65.6761 564 66.7761 564.7 66.1761C565.4 65.4761 566.3 65.6761 566.3 65.9761C566.3 66.3761 568 67.2761 568 67.2761" stroke="#000631" stroke-width="0.7" stroke-linecap="round" stroke-linejoin="round"/>
<path d="M571.5 68.2761C571.5 68.2761 571.8 66.9761 572.6 66.4761C573.4 65.9761 572.7 65.6762 573.1 64.8762" stroke="#000631" stroke-width="0.7" stroke-linecap="round" stroke-linejoin="round"/>
<path d="M569.2 64.3762C569.2 64.3762 570.4 63.9761 571 63.1761" stroke="#000631" stroke-width="0.7" stroke-linecap="round" stroke-linejoin="round"/>
<path d="M496.8 75.5761C496.8 75.5761 495 73.6761 495.3 71.5761C495.6 69.4761 496.4 68.5761 496.2 67.2761C496.1 65.9761 496.5 65.1762 497.4 64.8762C498.3 64.5762 500.5 61.9761 501.8 61.4761C503.1 61.0761 504.9 60.7761 506.2 60.6761C507.6 60.6761 510.2 60.6761 510.4 61.7761C510.6 62.8761 511.4 62.8762 512.1 62.8762C512.9 62.8762 514.2 62.4761 514.6 63.7761C515.1 65.0761 516.5 65.2761 516.5 66.4761C516.4 67.6761 516.7 68.1761 516.8 69.4761" stroke="#000631" stroke-width="0.7" stroke-linecap="round" stroke-linejoin="round"/>
<path d="M513.3 62.4761C513.3 62.4761 515.1 59.6761 516.4 59.4761C517.7 59.2761 519 59.6761 520.4 59.4761C521.7 59.2761 522.1 57.9761 523 58.4761C523.9 58.8761 525.8 59.1761 526.4 59.4761C527 59.7761 527.9 59.6762 527.9 60.3762C527.9 61.0762 531 61.9761 531 63.6761" stroke="#000631" stroke-width="0.7" stroke-linecap="round" stroke-linejoin="round"/>
<path d="M498.3 70.9761C498.3 70.9761 498.9 72.3761 499.7 71.5761" stroke="#000631" stroke-width="0.7" stroke-linecap="round" stroke-linejoin="round"/>
<path d="M503.3 70.9761C503.3 70.9761 504.2 71.5761 505 70.9761" stroke="#000631" stroke-width="0.7" stroke-linecap="round" stroke-linejoin="round"/>
<path d="M519.5 65.8762C519.5 65.8762 519.5 66.5761 521.1 66.4761" stroke="#000631" stroke-width="0.7" stroke-linecap="round" stroke-linejoin="round"/>
<path d="M526.4 62.4761C526.4 62.4761 527.5 63.2762 528.1 62.8762" stroke="#000631" stroke-width="0.7" stroke-linecap="round" stroke-linejoin="round"/>
<path d="M524.9 66.1761C524.9 66.1761 526.1 66.4761 526.8 66.1761" stroke="#000631" stroke-width="0.7" stroke-linecap="round" stroke-linejoin="round"/>
<path d="M489.7 105.276C489.7 105.276 505.5 112.876 524.4 115.476C543.3 118.076 580.8 117.176 597.6 106.576" stroke="#000631" stroke-width="1.1" stroke-linecap="round" stroke-linejoin="round"/>
<path d="M724.2 228.276C733.3 232.176 738.6 236.976 738.6 242.176C738.6 255.876 701.7 266.976 656.2 266.976C610.7 266.976 573.8 255.876 573.8 242.176C573.8 236.376 580.6 230.976 591.9 226.776" stroke="#000631" stroke-width="1.1" stroke-linecap="round" stroke-linejoin="round"/>
<path d="M655.3 217.476C659.3 217.476 664.1 217.576 667.9 217.676" stroke="#000631" stroke-width="1.1" stroke-linecap="round" stroke-linejoin="round"/>
<path d="M688.7 238.676C688.7 237.376 686 236.476 685.6 234.676C685.1 232.876 682.9 229.376 680.7 226.276C678.5 223.176 668.8 226.276 668.6 225.376C668.3 224.576 663.9 222.776 659.9 220.776C656 218.876 652.9 215.276 650.2 212.576C647.6 209.976 648 211.276 642.2 209.576C636.5 207.976 637 210.876 631.5 209.876C626 208.976 627.7 210.376 623.3 209.976C618.9 209.476 618 214.776 615.2 215.676C612.4 216.576 612.2 215.276 606.5 215.676C600.8 216.176 599.9 219.676 596.8 221.476C593.7 223.176 591 229.376 588.8 231.576C586.6 233.776 588.4 234.676 586.2 235.176C584 235.576 583.5 240.476 583.5 241.776C583.5 243.076 584 243.076 587.1 243.976C590.2 244.876 595 244.876 597.7 246.176C600.3 247.476 601.2 249.676 607.4 251.076C613.6 252.376 632.6 251.876 639.6 251.876C646.7 251.876 648.5 252.776 654.6 252.776C660.8 252.776 667.5 250.576 668.8 249.676C670.1 248.776 671.9 248.376 671.9 248.376" stroke="#000631" stroke-width="0.7" stroke-linecap="round" stroke-linejoin="round"/>
<path d="M671.9 251.876C671.9 251.876 670.5 246.176 675.4 243.476C680.3 240.876 691.3 237.376 697.9 235.976C704.6 234.676 717.4 229.876 723.1 234.676C728.9 239.576 728.9 241.776 724.9 246.576C720.9 251.476 720 255.876 701.5 256.376C682.9 256.776 670.1 257.676 671.9 251.876Z" stroke="#000631" stroke-width="0.7" stroke-linecap="round" stroke-linejoin="round"/>
<path d="M673.6 251.076C673.6 251.076 684.7 252.776 692.9 252.776C701 252.776 705.9 252.376 710.7 249.276C715.6 246.176 720 245.276 721.3 243.076C722.7 240.876 723.6 239.976 722.7 238.176" stroke="#000631" stroke-width="0.7" stroke-linecap="round" stroke-linejoin="round"/>
<path d="M625.5 232.076C625.5 232.076 622.4 234.276 625.9 236.876C629.5 239.576 634.3 237.376 634.3 235.576C634.3 233.776 630.4 232.076 630.4 232.076" stroke="#000631" stroke-width="0.7" stroke-linecap="round" stroke-linejoin="round"/>
<path d="M610 225.876C610 225.876 606.1 225.376 606.5 228.476C606.9 231.576 611.7 231.576 613.1 230.976C614.4 230.276 613.1 227.376 613.1 227.376" stroke="#000631" stroke-width="0.7" stroke-linecap="round" stroke-linejoin="round"/>
<path d="M650.1 232.076C650.1 232.076 649.8 235.176 653.3 236.476C656.9 237.776 658.7 235.376 658.2 233.276C657.7 231.176 654.2 229.876 652.9 230.276" stroke="#000631" stroke-width="0.7" stroke-linecap="round" stroke-linejoin="round"/>
<path d="M607.4 236.876C606.5 237.376 604.3 239.076 605.6 241.276C606.9 243.476 615.8 238.976 614.7 236.876C613.6 234.676 611.6 235.076 611.6 235.076" stroke="#000631" stroke-width="0.7" stroke-linecap="round" stroke-linejoin="round"/>
<path d="M600.2 231.276C600.2 231.276 596.2 232.276 595 235.076C593.7 237.776 601.1 236.376 602.7 235.076C604.3 233.776 602.7 232.076 602.7 232.076" stroke="#000631" stroke-width="0.7" stroke-linecap="round" stroke-linejoin="round"/>
<path d="M644.5 238.176C642.7 238.176 643.5 243.976 647.1 244.576C650.7 245.276 652.7 243.776 651.5 241.376C650.2 239.076 648.5 238.476 648.5 238.476" stroke="#000631" stroke-width="0.7" stroke-linecap="round" stroke-linejoin="round"/>
<path d="M634.3 222.376C634.3 222.376 637.9 225.376 641.4 224.576" stroke="#000631" stroke-width="0.7" stroke-linecap="round" stroke-linejoin="round"/>
<path d="M667.1 224.276C667.1 224.276 667.9 218.876 668.3 217.776C668.8 216.576 669.2 213.076 669.7 211.276C670.1 209.476 673.2 204.276 673.6 203.576C674.1 202.876 678.1 201.976 680.3 201.976C682.5 201.976 696.6 199.976 699.7 200.376C702.8 200.676 708.1 201.576 710.3 202.476C712.5 203.276 714.7 202.876 715.6 204.676C716.5 206.376 720.9 219.276 720.9 219.276C720.9 219.276 723.6 224.576 723.6 226.776C723.6 228.976 724.6 229.676 724.1 231.276C723.6 232.876 721.2 233.476 721.2 233.476" stroke="#000631" stroke-width="0.7" stroke-linecap="round" stroke-linejoin="round"/>
<path d="M687 236.576C687 236.576 693 237.176 694.3 236.876" stroke="#000631" stroke-width="0.7" stroke-linecap="round" stroke-linejoin="round"/>
<path d="M678.9 219.676C678.9 219.676 680.3 221.876 681.6 221.876" stroke="#000631" stroke-width="0.7" stroke-linecap="round" stroke-linejoin="round"/>
<path d="M711.8 217.476C711.8 217.476 711.4 219.676 710.2 219.676" stroke="#000631" stroke-width="0.7" stroke-linecap="round" stroke-linejoin="round"/>
<path d="M697.6 224.676C697.6 224.676 699.7 226.176 701.5 224.676" stroke="#000631" stroke-width="0.7" stroke-linecap="round" stroke-linejoin="round"/>
<path d="M689.8 221.876C690 221.876 691.4 221.476 692.3 219.676" stroke="#000631" stroke-width="0.7" stroke-linecap="round" stroke-linejoin="round"/>
<path d="M692.9 229.376C692.9 229.376 694.2 229.876 695.6 229.376" stroke="#000631" stroke-width="0.7" stroke-linecap="round" stroke-linejoin="round"/>
<path d="M714.5 228.576C714.5 228.576 716.9 227.576 717.4 226.776" stroke="#000631" stroke-width="0.7" stroke-linecap="round" stroke-linejoin="round"/>
<path d="M676.3 209.976C676.3 209.976 683.4 212.176 686.4 212.176C689.5 212.176 692.3 212.576 694.3 212.176C696.2 211.676 698.1 212.976 699.5 212.376" stroke="#000631" stroke-width="0.7" stroke-linecap="round" stroke-linejoin="round"/>
<path d="M703.2 211.276C703.2 211.276 707 210.376 708.2 209.976C709.4 209.476 711.6 208.876 711.8 208.076C712.1 207.276 713.4 206.376 713 206.376" stroke="#000631" stroke-width="0.7" stroke-linecap="round" stroke-linejoin="round"/>
<path d="M597.9 259.676C597.9 259.676 627.2 269.876 654.2 269.976C685.6 269.976 708.6 261.276 708.6 261.276" stroke="#000631" stroke-width="1.1" stroke-linecap="round" stroke-linejoin="round"/>
<path d="M614.4 176.976C614.4 176.976 622.8 185.976 628.2 195.376C628.2 195.376 641 169.976 654.1 162.576" stroke="#344A6B" stroke-width="5.5" stroke-linejoin="round"/>
<path d="M140.5 55.6761C140.5 55.6761 148.9 64.6761 154.3 74.0761C154.3 74.0761 167.2 48.7762 180.2 41.3762" stroke="#344A6B" stroke-width="5.5" stroke-linejoin="round"/>
<path d="M497.1 26.3762L522.6 50.4761" stroke="#E58D00" stroke-width="5.5" stroke-linejoin="round"/>
<path d="M522.6 26.3762L497.1 50.4761" stroke="#E58D00" stroke-width="5.5" stroke-linejoin="round"/>
<path d="M51.8999 243.176C51.8999 243.176 60.2998 252.176 65.6998 261.576C65.6998 261.576 78.5999 236.276 91.5999 228.876" stroke="#344A6B" stroke-width="5.5" stroke-linejoin="round"/>
</svg>
