<svg width="469" height="451" viewBox="0 0 469 451" fill="none" xmlns="http://www.w3.org/2000/svg">
<path d="M404.5 89.6761L456.9 95.4761L453.3 109.176L401.3 103.376L404.5 89.6761Z" fill="#000631"/>
<path d="M423.7 99.9761C423.433 99.9095 423.2 99.8762 423 99.8762C423 99.8762 423 99.8428 423 99.7761C423.067 99.4428 423.1 99.0761 423.1 98.6761C423.1 98.6095 423.1 98.5428 423.1 98.4761C423.1 98.2761 422.9 98.0761 422.7 98.0761C422.4 98.0761 422.2 98.2761 422.2 98.5761C422.133 98.9094 422.1 99.2761 422.1 99.6761C422.1 99.6761 422.1 99.7095 422.1 99.7761C421.833 99.7761 421.6 99.7428 421.4 99.6761C421.4 99.6761 421.4 99.6428 421.4 99.5761C421.467 99.2428 421.5 98.8761 421.5 98.4761C421.5 98.4095 421.5 98.3762 421.5 98.3762C421.5 98.1095 421.367 97.9428 421.1 97.8762C420.833 97.8762 420.667 98.0095 420.6 98.2761C420.6 98.3428 420.6 98.4095 420.6 98.4761C420.533 98.8095 420.467 99.1761 420.4 99.5761C420.2 99.5761 420 99.5428 419.8 99.4761C419.867 98.7428 419.933 98.0095 420 97.2761C420.067 97.2761 420.133 97.2761 420.2 97.2761C420.333 97.2761 420.433 97.2761 420.5 97.2761C420.567 97.2761 420.6 97.3095 420.6 97.3762C420.6 97.4428 420.6 97.5094 420.6 97.5761C420.6 97.5761 420.633 97.5761 420.7 97.5761C420.833 97.3761 421.033 97.3095 421.3 97.3762C421.433 97.3762 421.567 97.3762 421.7 97.3762C421.9 97.4428 422.033 97.5428 422.1 97.6761C422.1 97.7428 422.133 97.7761 422.2 97.7761C422.4 97.5761 422.6 97.4761 422.8 97.4761C423.067 97.4761 423.3 97.5428 423.5 97.6761C423.767 97.8761 423.867 98.1428 423.8 98.4761C423.8 98.9428 423.767 99.4095 423.7 99.8762C423.7 99.9428 423.7 99.9761 423.7 99.9761Z" fill="white"/>
<path fill-rule="evenodd" clip-rule="evenodd" d="M412 95.4761C412.267 95.6761 412.467 95.9095 412.6 96.1761C412.467 96.3761 412.367 96.5428 412.3 96.6761C411.9 97.3761 411.9 97.9761 412.2 98.6761C412.266 98.7428 412.3 98.8095 412.3 98.8762C412.1 99.0762 411.9 99.2428 411.7 99.3762C411.633 99.3762 411.6 99.3762 411.6 99.3762C411.467 99.1762 411.367 98.9428 411.3 98.6761C411.233 98.4095 411.167 98.1428 411.1 97.8762C411.1 97.8762 411.1 97.8428 411.1 97.7761C410.833 97.7095 410.6 97.7095 410.4 97.7761C410.333 97.7761 410.3 97.7761 410.3 97.7761C410.167 98.1095 410.033 98.4095 409.9 98.6761C409.767 98.8761 409.633 99.0428 409.5 99.1761C409.5 99.1761 409.467 99.1761 409.4 99.1761C409.267 98.9761 409.1 98.7761 408.9 98.5761C408.9 98.5761 408.9 98.5428 408.9 98.4761C409.1 98.2761 409.267 98.0762 409.4 97.8762C409.6 97.4095 409.633 96.9428 409.5 96.4761C409.4 96.2761 409.4 96.0762 409.3 95.8762C409.2 95.6762 409.2 95.7761 409.3 95.6761C409.5 95.4761 409.7 95.3428 409.9 95.2761C409.9 95.2761 409.933 95.2761 410 95.2761C410.133 95.4761 410.233 95.6762 410.3 95.8762C410.367 96.2095 410.4 96.5095 410.4 96.7761C410.4 96.8428 410.433 96.8762 410.5 96.8762C410.7 96.9428 410.933 96.9761 411.2 96.9761C411.2 96.9761 411.2 96.9428 411.2 96.8762C411.4 96.4762 411.6 96.0761 411.9 95.6761C411.967 95.6095 412 95.5428 412 95.4761ZM412 98.8762C412 98.8762 411.967 98.8428 411.9 98.7761C411.833 98.5095 411.766 98.2428 411.7 97.9761C411.633 97.4428 411.767 96.9428 412.1 96.4761C412.167 96.3428 412.233 96.2428 412.3 96.1761C412.3 96.1095 412.3 96.0761 412.3 96.0761C412.233 96.0094 412.167 95.9428 412.1 95.8762C411.967 96.0095 411.867 96.1762 411.8 96.3762C411.667 96.6428 411.567 96.9095 411.5 97.1761C411.5 97.2428 411.467 97.2761 411.4 97.2761C411 97.2095 410.6 97.1428 410.2 97.0761C410.2 97.0761 410.167 97.0761 410.1 97.0761C410.167 96.5428 410.067 96.0761 409.8 95.6761C409.733 95.6761 409.667 95.7095 409.6 95.7761C409.6 95.7761 409.6 95.8095 409.6 95.8762C409.667 96.0095 409.7 96.1762 409.7 96.3762C409.833 96.7095 409.867 97.0095 409.8 97.2761C409.733 97.7428 409.567 98.1761 409.3 98.5761C409.367 98.6428 409.433 98.7095 409.5 98.7761C409.8 98.3761 410 97.8761 410.1 97.4761C410.167 97.4761 410.2 97.4761 410.2 97.4761C410.6 97.4761 410.967 97.5094 411.3 97.5761C411.367 97.5761 411.4 97.5761 411.4 97.5761C411.4 97.7761 411.4 97.9428 411.4 98.0761C411.5 98.2761 411.5 98.5761 411.6 98.7761C411.667 98.8428 411.7 98.9428 411.7 99.0761C411.833 99.0094 411.933 98.9428 412 98.8762Z" fill="white"/>
<path d="M415.2 95.8762C415.2 96.2095 415.167 96.5761 415.1 96.9761C415.1 96.9095 415.133 96.8762 415.2 96.8762C415.5 96.6762 416.1 96.6761 416.4 96.9761C416.6 97.1761 416.7 97.3761 416.7 97.5761C416.633 97.7761 416.6 97.9761 416.6 98.1761C416.6 98.5095 416.567 98.8428 416.5 99.1761C416.3 99.1095 416.067 99.0761 415.8 99.0761C415.8 99.0761 415.8 99.0428 415.8 98.9761C415.867 98.6428 415.933 98.2762 416 97.8762C416 97.8095 416 97.7428 416 97.6761C416 97.4761 415.8 97.2761 415.5 97.2761C415.233 97.2761 415.067 97.4095 415 97.6761C415 97.7428 415 97.8095 415 97.8762C415 98.2095 414.967 98.5428 414.9 98.8762C414.9 98.9428 414.9 98.9761 414.9 98.9761C414.7 98.9761 414.467 98.9428 414.2 98.8762C414.333 97.8762 414.467 96.8428 414.6 95.7761C414.8 95.7761 415 95.8095 415.2 95.8762Z" fill="white"/>
<path fill-rule="evenodd" clip-rule="evenodd" d="M426.5 100.276C426.367 100.276 426.233 100.243 426.1 100.176C426.1 100.109 426.1 100.043 426.1 99.9761C426.033 99.9095 426 99.9095 426 99.9761C425.8 100.176 425.5 100.176 425.2 100.176C424.8 100.176 424.5 99.9761 424.3 99.5761C424 98.8761 424.3 98.0762 425 97.8762C425.333 97.7428 425.633 97.7761 425.9 97.9761C426.033 98.0428 426.133 98.1095 426.2 98.1761C426.2 98.1761 426.2 98.2094 426.2 98.2761C426.2 98.2094 426.233 98.1761 426.3 98.1761C426.3 98.1095 426.333 98.0428 426.4 97.9761C426.533 97.9761 426.667 97.9761 426.8 97.9761C426.733 98.7761 426.633 99.5428 426.5 100.276ZM426 99.0761C426.1 98.7761 425.8 98.4762 425.5 98.3762C425.1 98.3762 424.8 98.5761 424.8 98.9761C424.8 99.2761 425 99.5761 425.3 99.5761C425.7 99.6761 426 99.3761 426 99.0761Z" fill="white"/>
<path d="M417.2 96.9761C417.467 96.9761 417.7 96.9761 417.9 96.9761C417.9 97.0428 417.9 97.0761 417.9 97.0761C417.833 97.4761 417.8 97.8428 417.8 98.1761C417.8 98.2428 417.8 98.3095 417.8 98.3762C417.8 98.6762 418 98.7761 418.2 98.7761C418.467 98.7761 418.633 98.6428 418.7 98.3762C418.7 98.3762 418.7 98.3428 418.7 98.2761C418.767 97.9428 418.8 97.5761 418.8 97.1761C419.067 97.1761 419.3 97.1761 419.5 97.1761C419.433 97.9761 419.333 98.7428 419.2 99.4761C419.067 99.4095 418.9 99.3762 418.7 99.3762C418.7 99.3095 418.7 99.2428 418.7 99.1761C418.7 99.1095 418.667 99.1095 418.6 99.1761C418.4 99.3761 418 99.4762 417.7 99.3762C417.3 99.1762 417.1 98.8761 417.1 98.4761C417.1 98.3428 417.1 98.2428 417.1 98.1761C417.167 97.7761 417.2 97.4094 417.2 97.0761C417.2 97.0094 417.2 96.9761 417.2 96.9761Z" fill="white"/>
<path d="M427.7 100.376C427.5 100.376 427.3 100.343 427.1 100.276C427.167 99.5428 427.234 98.8094 427.3 98.0761C427.5 98.0761 427.667 98.0761 427.8 98.0761C427.8 98.1428 427.833 98.1761 427.9 98.1761C427.9 98.2428 427.9 98.3095 427.9 98.3762C427.9 98.3762 427.933 98.3762 428 98.3762C428 98.3095 428.033 98.2761 428.1 98.2761C428.233 98.1428 428.4 98.1095 428.6 98.1761C428.8 98.1761 429 98.1761 429.2 98.2761C429.4 98.4761 429.5 98.7761 429.5 98.9761C429.5 99.1095 429.5 99.2095 429.5 99.2761C429.433 99.6761 429.4 100.076 429.4 100.476C429.4 100.543 429.367 100.576 429.3 100.576C429.1 100.576 428.9 100.543 428.7 100.476C428.7 100.076 428.734 99.6761 428.8 99.2761C428.8 99.2095 428.8 99.1428 428.8 99.0761C428.8 98.8761 428.6 98.6761 428.3 98.6761C428.1 98.7761 427.9 98.8761 427.9 99.0761C427.9 99.1428 427.9 99.2095 427.9 99.2761C427.833 99.6095 427.767 99.9428 427.7 100.276C427.7 100.343 427.7 100.376 427.7 100.376Z" fill="white"/>
<path fill-rule="evenodd" clip-rule="evenodd" d="M430.5 99.7761C430.5 99.9095 430.533 100.009 430.6 100.076C430.733 100.209 430.867 100.276 431 100.276C431.333 100.343 431.6 100.343 431.8 100.276C431.867 100.276 431.9 100.276 431.9 100.276C431.9 100.409 431.9 100.543 431.9 100.676C431.9 100.743 431.867 100.776 431.8 100.776C431.467 100.843 431.167 100.843 430.9 100.776C430.633 100.776 430.4 100.709 430.2 100.576C429.933 100.309 429.8 100.009 429.8 99.6761C429.8 99.4095 429.867 99.1428 430 98.8762C430.267 98.5428 430.6 98.3762 431 98.3762C431.333 98.3762 431.6 98.4761 431.8 98.6761C432.133 98.9428 432.267 99.2428 432.2 99.5761C432.133 99.7094 432.1 99.8095 432.1 99.8762C432.1 99.9428 432.067 99.9428 432 99.8762C431.533 99.8762 431.033 99.8428 430.5 99.7761ZM431.6 99.4761C431.6 99.3428 431.567 99.2094 431.5 99.0761C431.3 98.8761 430.9 98.8761 430.6 99.0761C430.533 99.1428 430.5 99.2428 430.5 99.3762C430.9 99.3762 431.267 99.4095 431.6 99.4761Z" fill="white"/>
<path fill-rule="evenodd" clip-rule="evenodd" d="M411.3 99.4761C410.767 99.6095 410.233 99.5762 409.7 99.3762C409.833 99.2428 409.933 99.1428 410 99.0761C410.2 98.7428 410.367 98.4094 410.5 98.0761C410.5 98.0761 410.533 98.0761 410.6 98.0761C410.6 98.0761 410.633 98.0761 410.7 98.0761C410.8 98.0761 410.8 98.0761 410.8 98.1761C410.933 98.6428 411.1 99.0761 411.3 99.4761ZM410.9 99.3762C410.833 99.1095 410.767 98.8761 410.7 98.6761C410.7 98.5761 410.6 98.5761 410.6 98.5761C410.6 98.5761 410.567 98.6095 410.5 98.6761C410.433 98.8095 410.367 98.9428 410.3 99.0761C410.233 99.1428 410.2 99.2095 410.2 99.2761C410.4 99.3428 410.633 99.3762 410.9 99.3762Z" fill="white"/>
<path fill-rule="evenodd" clip-rule="evenodd" d="M410.2 95.1762C410.733 95.0428 411.267 95.1095 411.8 95.3762C411.733 95.4428 411.667 95.5095 411.6 95.5761C411.4 95.8428 411.233 96.1428 411.1 96.4761C411 96.4761 411 96.5761 411 96.5761C410.9 96.6761 410.9 96.5761 410.8 96.5761C410.733 96.5761 410.7 96.5761 410.7 96.5761C410.633 96.2428 410.533 95.9428 410.4 95.6762C410.4 95.5428 410.367 95.4095 410.3 95.2761C410.3 95.2095 410.267 95.1762 410.2 95.1762ZM410.6 95.4761C410.667 95.5428 410.7 95.6095 410.7 95.6762C410.767 95.8095 410.8 95.9762 410.8 96.1762C410.8 96.1762 410.833 96.1762 410.9 96.1762H411C411.067 95.9762 411.2 95.7761 411.4 95.5761C411.133 95.4428 410.867 95.4095 410.6 95.4761Z" fill="white"/>
<path d="M409 95.9761C409.133 96.2428 409.2 96.5428 409.2 96.8762C409.267 97.4095 409.133 97.8761 408.8 98.2761C408.733 98.2095 408.7 98.1428 408.7 98.0761C408.7 98.0094 408.7 97.9761 408.7 97.9761C408.833 97.7095 408.933 97.4428 409 97.1761C409 96.8428 408.967 96.5428 408.9 96.2761C408.833 96.2761 408.833 96.2428 408.9 96.1761C408.9 96.1095 408.933 96.0428 409 95.9761Z" fill="white"/>
<path d="M412.5 98.6761C412.3 98.2761 412.2 97.9761 412.3 97.5761C412.3 97.1761 412.5 96.7761 412.7 96.4761C412.7 96.4095 412.7 96.3762 412.7 96.3762C412.767 96.4428 412.8 96.5428 412.8 96.6761C412.867 96.6761 412.867 96.6761 412.8 96.6761C412.6 97.0095 412.5 97.4095 412.5 97.8762C412.5 98.0762 412.533 98.2428 412.6 98.3762C412.6 98.4428 412.6 98.4761 412.6 98.4761C412.533 98.5428 412.5 98.6095 412.5 98.6761Z" fill="white"/>
<path d="M408.3 97.9761C408.3 97.9095 408.267 97.8428 408.2 97.7761C408.2 97.7761 408.2 97.7428 408.2 97.6761C408.4 97.5428 408.5 97.3428 408.5 97.0761C408.5 96.8094 408.433 96.5762 408.3 96.3762C408.367 96.3095 408.433 96.2428 408.5 96.1761C408.567 96.3095 408.6 96.4095 408.6 96.4761C408.667 96.6095 408.7 96.7761 408.7 96.9761C408.767 97.2428 408.7 97.4761 408.5 97.6761C408.433 97.8095 408.367 97.9095 408.3 97.9761Z" fill="white"/>
<path d="M413.1 96.6761C413.167 96.7428 413.2 96.8428 413.2 96.9761C413.067 97.1095 413 97.2761 413 97.4761C412.933 97.7428 412.933 98.0095 413 98.2761C413.067 98.2761 413.067 98.3095 413 98.3762C413 98.3762 412.967 98.4095 412.9 98.4761C412.767 98.2761 412.7 98.0762 412.7 97.8762C412.7 97.5428 412.767 97.2761 412.9 97.0761C412.967 96.9428 413.033 96.8095 413.1 96.6761Z" fill="white"/>
<path d="M422.4 100.776C422.4 100.709 422.433 100.643 422.5 100.576C422.5 100.509 422.533 100.476 422.6 100.476C422.6 100.543 422.6 100.576 422.6 100.576C422.6 100.643 422.6 100.743 422.6 100.876C422.533 100.876 422.5 100.876 422.5 100.876C422.5 100.809 422.5 100.743 422.5 100.676C422.5 100.676 422.467 100.709 422.4 100.776C422.4 100.843 422.367 100.843 422.3 100.776C422.3 100.709 422.267 100.643 422.2 100.576C422.2 100.643 422.2 100.709 422.2 100.776C422.2 100.709 422.2 100.609 422.2 100.476C422.2 100.476 422.233 100.476 422.3 100.476C422.3 100.543 422.333 100.643 422.4 100.776Z" fill="white"/>
<path d="M422.8 100.676C422.867 100.676 422.933 100.676 423 100.676C423 100.743 423 100.776 423 100.776C422.933 100.776 422.9 100.776 422.9 100.776C422.8 100.776 422.8 100.776 422.8 100.876C422.867 100.876 422.933 100.876 423 100.876C423 100.943 423 100.976 423 100.976C422.933 100.976 422.867 100.943 422.8 100.876C422.733 100.876 422.7 100.876 422.7 100.876C422.767 100.743 422.8 100.643 422.8 100.576C422.8 100.509 422.8 100.509 422.8 100.576C422.867 100.576 422.933 100.576 423 100.576C423 100.576 422.967 100.576 422.9 100.576C422.8 100.576 422.8 100.576 422.8 100.676Z" fill="white"/>
<path d="M426 101.076C426.067 101.076 426.133 101.076 426.2 101.076C426.133 101.076 426.1 101.076 426.1 101.076C426.033 101.076 426 101.109 426 101.176C426.067 101.243 426.133 101.276 426.2 101.276C426.133 101.276 426.067 101.276 426 101.276C425.933 101.276 425.9 101.243 425.9 101.176C425.9 101.109 425.933 101.043 426 100.976C426 100.909 426 100.876 426 100.876C426.067 100.876 426.133 100.876 426.2 100.876C426.2 100.876 426.233 100.909 426.3 100.976C426.233 100.976 426.2 100.976 426.2 100.976C426.2 100.976 426.167 100.976 426.1 100.976C426.033 100.909 426 100.909 426 100.976C426 100.976 426 101.009 426 101.076Z" fill="white"/>
<path fill-rule="evenodd" clip-rule="evenodd" d="M424.6 100.876C424.533 101.009 424.433 101.076 424.3 101.076C424.233 101.076 424.2 101.009 424.2 100.876C424.2 100.776 424.3 100.676 424.4 100.676C424.533 100.743 424.6 100.809 424.6 100.876ZM424.3 101.076C424.4 101.076 424.5 100.976 424.5 100.876C424.5 100.809 424.467 100.776 424.4 100.776C424.333 100.776 424.267 100.809 424.2 100.876C424.2 100.976 424.3 101.076 424.3 101.076Z" fill="white"/>
<path fill-rule="evenodd" clip-rule="evenodd" d="M428.2 101.376C428.2 101.443 428.133 101.476 428 101.476C427.933 101.476 427.9 101.409 427.9 101.276C427.9 101.176 428 101.076 428.1 101.076C428.2 101.076 428.3 101.176 428.2 101.376ZM428.2 101.276C428.2 101.209 428.167 101.176 428.1 101.176C427.967 101.176 427.9 101.209 427.9 101.276C427.9 101.376 428 101.476 428 101.476C428.1 101.476 428.2 101.376 428.2 101.276Z" fill="white"/>
<path fill-rule="evenodd" clip-rule="evenodd" d="M424.9 100.976C424.967 101.043 425 101.109 425 101.176C425 101.176 424.967 101.176 424.9 101.176C424.9 101.109 424.9 101.076 424.9 101.076C424.9 101.009 424.867 100.976 424.8 100.976C424.8 101.043 424.8 101.076 424.8 101.076C424.733 101.076 424.7 101.109 424.7 101.176C424.7 101.109 424.7 101.076 424.7 101.076C424.7 101.009 424.7 100.909 424.7 100.776C424.767 100.776 424.8 100.776 424.8 100.776C424.867 100.776 424.9 100.776 424.9 100.776C424.967 100.776 425 100.809 425 100.876C425 100.943 424.967 100.976 424.9 100.976ZM424.8 100.976C424.8 100.976 424.9 100.976 424.9 100.876C424.9 100.809 424.867 100.776 424.8 100.776C424.8 100.843 424.8 100.909 424.8 100.976Z" fill="white"/>
<path fill-rule="evenodd" clip-rule="evenodd" d="M426.6 101.176C426.667 101.243 426.7 101.309 426.7 101.376C426.7 101.376 426.667 101.376 426.6 101.376C426.6 101.309 426.6 101.276 426.6 101.276C426.6 101.209 426.567 101.176 426.5 101.176C426.5 101.243 426.5 101.276 426.5 101.276C426.5 101.276 426.467 101.276 426.4 101.276C426.4 101.209 426.433 101.109 426.5 100.976C426.5 100.976 426.533 100.976 426.6 100.976C426.667 100.976 426.7 101.009 426.7 101.076C426.7 101.143 426.667 101.176 426.6 101.176ZM426.5 101.076C426.6 101.076 426.6 101.176 426.6 101.076C426.7 101.076 426.7 101.076 426.6 101.076C426.6 101.009 426.567 100.976 426.5 100.976C426.5 101.043 426.5 101.076 426.5 101.076Z" fill="white"/>
<path d="M420.6 100.676C420.533 100.676 420.467 100.643 420.4 100.576C420.467 100.576 420.5 100.576 420.5 100.576C420.5 100.643 420.533 100.643 420.6 100.576C420.667 100.576 420.7 100.576 420.7 100.576C420.7 100.576 420.667 100.543 420.6 100.476C420.6 100.476 420.567 100.476 420.5 100.476C420.433 100.476 420.4 100.443 420.4 100.376C420.467 100.309 420.5 100.276 420.5 100.276C420.633 100.276 420.7 100.309 420.7 100.376C420.633 100.309 420.567 100.309 420.5 100.376C420.5 100.376 420.5 100.409 420.5 100.476C420.567 100.476 420.6 100.476 420.6 100.476C420.667 100.476 420.7 100.509 420.7 100.576C420.7 100.643 420.667 100.676 420.6 100.676Z" fill="white"/>
<path d="M427 101.376C426.933 101.376 426.9 101.343 426.9 101.276C426.967 101.343 427.033 101.376 427.1 101.376C427.1 101.309 427.1 101.276 427.1 101.276C427.033 101.209 427 101.176 427 101.176C426.933 101.176 426.9 101.143 426.9 101.076C426.9 101.076 426.933 101.043 427 100.976C427.1 100.976 427.1 100.976 427.2 101.076C427.2 101.076 427.167 101.076 427.1 101.076C427.1 101.009 427.067 101.009 427 101.076C426.933 101.076 426.933 101.109 427 101.176C427 101.176 427.033 101.176 427.1 101.176C427.167 101.176 427.2 101.209 427.2 101.276C427.2 101.343 427.133 101.376 427 101.376Z" fill="white"/>
<path d="M423.7 100.776C423.767 100.776 423.867 100.776 424 100.776C424 100.776 424 100.743 424 100.676C424 100.809 424 100.909 424 100.976C424 101.043 424 101.076 424 101.076C423.933 101.009 423.9 100.976 423.9 100.976C423.9 100.976 423.9 100.943 423.9 100.876C423.833 100.876 423.767 100.876 423.7 100.876C423.7 100.876 423.7 100.909 423.7 100.976C423.7 100.843 423.7 100.743 423.7 100.676C423.767 100.676 423.8 100.676 423.8 100.676C423.8 100.743 423.767 100.776 423.7 100.776Z" fill="white"/>
<path fill-rule="evenodd" clip-rule="evenodd" d="M419 100.376C419 100.376 418.967 100.376 418.9 100.376C418.9 100.443 418.9 100.476 418.9 100.476C418.967 100.343 419 100.243 419 100.176C419.067 100.109 419.1 100.109 419.1 100.176C419.167 100.243 419.2 100.343 419.2 100.476C419.133 100.476 419.1 100.476 419.1 100.476C419.1 100.409 419.067 100.376 419 100.376ZM419.1 100.176C419.033 100.243 419 100.276 419 100.276C419.067 100.276 419.1 100.276 419.1 100.276C419.1 100.276 419.1 100.243 419.1 100.176Z" fill="white"/>
<path fill-rule="evenodd" clip-rule="evenodd" d="M419.6 100.576C419.667 100.443 419.734 100.309 419.8 100.176C419.8 100.176 419.833 100.209 419.9 100.276C419.9 100.343 419.933 100.443 420 100.576C419.933 100.576 419.9 100.576 419.9 100.576C419.9 100.476 419.9 100.476 419.8 100.476C419.734 100.476 419.7 100.509 419.7 100.576C419.633 100.576 419.6 100.576 419.6 100.576ZM419.8 100.376C419.8 100.376 419.833 100.376 419.9 100.376C419.9 100.376 419.867 100.343 419.8 100.276C419.8 100.343 419.8 100.376 419.8 100.376Z" fill="white"/>
<path fill-rule="evenodd" clip-rule="evenodd" d="M421.4 100.776C421.467 100.643 421.533 100.509 421.6 100.376C421.667 100.509 421.7 100.643 421.7 100.776C421.633 100.643 421.567 100.609 421.5 100.676C421.5 100.676 421.467 100.676 421.4 100.676C421.4 100.743 421.4 100.776 421.4 100.776ZM421.6 100.576C421.6 100.576 421.6 100.543 421.6 100.476C421.533 100.543 421.5 100.576 421.5 100.576C421.567 100.576 421.6 100.576 421.6 100.576Z" fill="white"/>
<path fill-rule="evenodd" clip-rule="evenodd" d="M427.7 101.476C427.7 101.476 427.667 101.476 427.6 101.476C427.6 101.476 427.6 101.443 427.6 101.376C427.6 101.276 427.6 101.276 427.5 101.276C427.5 101.276 427.467 101.309 427.4 101.376V101.476C427.4 101.409 427.4 101.376 427.4 101.376C427.467 101.243 427.5 101.143 427.5 101.076C427.5 101.076 427.533 101.076 427.6 101.076C427.6 101.209 427.633 101.309 427.7 101.376C427.7 101.443 427.7 101.476 427.7 101.476ZM427.6 101.276C427.6 101.209 427.6 101.176 427.6 101.176C427.533 101.176 427.5 101.209 427.5 101.276C427.5 101.276 427.533 101.276 427.6 101.276Z" fill="white"/>
<path d="M421.2 100.476C421.2 100.543 421.2 100.576 421.2 100.576C421.2 100.709 421.133 100.776 421 100.776C420.933 100.709 420.9 100.643 420.9 100.576C420.9 100.509 420.9 100.443 420.9 100.376C420.9 100.376 420.933 100.376 421 100.376C421 100.443 421 100.509 421 100.576C421 100.643 421 100.676 421 100.676C421.067 100.676 421.133 100.643 421.2 100.576C421.2 100.509 421.2 100.443 421.2 100.376C421.2 100.443 421.2 100.476 421.2 100.476Z" fill="white"/>
<path d="M418.6 100.376C418.6 100.309 418.633 100.209 418.7 100.076C418.7 100.076 418.7 100.109 418.7 100.176C418.7 100.243 418.667 100.309 418.6 100.376C418.6 100.443 418.6 100.476 418.6 100.476C418.533 100.476 418.5 100.443 418.5 100.376C418.5 100.309 418.467 100.209 418.4 100.076C418.467 100.076 418.5 100.076 418.5 100.076C418.5 100.143 418.533 100.243 418.6 100.376Z" fill="white"/>
<path d="M425.6 101.176C425.667 101.043 425.7 100.943 425.7 100.876C425.767 100.876 425.8 100.876 425.8 100.876C425.733 101.009 425.667 101.109 425.6 101.176C425.533 101.109 425.5 101.009 425.5 100.876C425.567 100.943 425.6 101.043 425.6 101.176Z" fill="white"/>
<path d="M417.8 100.276C417.867 100.209 417.933 100.143 418 100.076C418 100.009 418 99.9761 418 99.9761C418 100.043 418 100.076 418 100.076C417.933 100.143 417.9 100.243 417.9 100.376C417.833 100.376 417.8 100.376 417.8 100.376C417.733 100.243 417.7 100.143 417.7 100.076C417.7 100.009 417.7 99.9761 417.7 99.9761C417.767 100.109 417.8 100.209 417.8 100.276Z" fill="white"/>
<path d="M423.3 100.876C423.367 100.943 423.433 100.976 423.5 100.976C423.433 100.976 423.367 100.976 423.3 100.976C423.233 100.976 423.2 100.976 423.2 100.976C423.2 100.843 423.233 100.709 423.3 100.576C423.3 100.576 423.3 100.609 423.3 100.676C423.3 100.743 423.3 100.809 423.3 100.876Z" fill="white"/>
<path d="M427.6 100.976C427.6 100.976 427.633 100.976 427.7 100.976C427.7 100.976 427.667 101.009 427.6 101.076C427.6 101.009 427.567 100.976 427.5 100.976C427.567 100.976 427.6 100.976 427.6 100.976Z" fill="white"/>
<path d="M453.3 99.7761L444.8 98.9761L444.9 98.1761L453.3 98.9761V99.7761Z" fill="white"/>
<path d="M452.5 102.876L444.5 101.876V101.076L452.5 102.076V102.876Z" fill="white"/>
<path d="M451.5 105.876L443.5 104.876V104.076L451.5 105.076V105.876Z" fill="white"/>
<path d="M127.3 175.976C127.3 175.976 132.1 164.876 136.4 161.776C140.7 158.676 149 156.076 151.9 156.176C154.8 156.276 162.4 156.076 166.5 157.176C170.5 158.276 194.6 168.076 194.6 168.076C194.6 168.076 215.4 176.576 219.6 180.576C223.8 184.476 225.3 186.776 225.3 186.776L282.2 208.376C282.2 208.376 291.9 213.276 296.8 219.676C301.8 226.076 358.2 293.476 358.2 293.476C358.2 293.476 345.7 321.676 331.6 333.776C317.5 345.976 303.1 356.176 292.7 358.376C282.2 360.476 281.2 355.676 281.2 355.676C281.2 355.676 262.1 331.876 261.8 332.076C261.4 332.276 255.9 326.776 255.9 326.776C255.9 326.776 253 357.876 253 363.976C253 371.976 254 449.976 254 449.976C254 449.976 209.6 447.776 179 446.976C148.4 446.176 122.6 439.276 95.9999 432.976C69.3999 426.676 39.9999 427.976 39.9999 427.976L56.4999 326.176C56.4999 326.176 39.2999 323.276 32.3999 317.576C25.4999 311.876 20.4999 306.676 18.0999 304.176C15.6999 301.676 15.7999 296.776 15.7999 296.776L35.5999 253.776L61.7999 202.576C61.7999 202.576 66.1999 195.776 67.9999 194.876C69.7999 193.876 77.2999 189.476 78.4999 187.776C79.5999 186.076 79.2999 183.476 81.1999 184.176C83.0999 184.876 85.0999 184.176 86.6999 184.176C88.1999 184.176 105.1 178.276 110.8 177.076C116.4 175.876 127.3 175.976 127.3 175.976Z" fill="#6BD4CD"/>
<path d="M303.5 354.376C303.5 354.376 314.5 347.876 318.3 345.376C322.2 342.776 334.7 331.076 336.7 328.676C338.6 326.376 351.5 306.476 352.1 305.676C352.7 304.776 354.4 301.276 354.4 301.276L358.2 304.476C358.2 304.476 345.7 324.776 336.7 335.776C327.7 346.776 307.8 356.976 307.8 356.976L303.5 354.376Z" fill="#000631"/>
<path d="M23.1999 309.976C23.1999 309.976 36.5999 322.776 57.4999 326.176L56.6999 330.876C56.6999 330.876 35.9999 329.676 21.8999 313.876L23.1999 309.976Z" fill="#000631"/>
<path d="M403.4 107.576C413.5 108.976 419.7 109.676 429.7 110.676C426.6 121.876 423.4 133.076 420.8 144.376C409.1 142.976 405.7 142.276 394.6 141.176C397.5 129.976 400.5 118.776 403.4 107.576Z" fill="white"/>
<path d="M406.5 131.976C406.5 131.976 404.7 134.676 404.3 135.676C403.9 136.676 402.7 138.576 401.6 142.076C398.9 141.676 397.5 141.476 394.6 141.176C395.1 139.076 395.4 138.076 395.9 136.176C398.4 135.276 399.5 134.876 401.8 134.076C402 133.776 402 133.576 402.2 133.176C404 132.276 404.9 131.876 406.8 131.076C406.7 131.376 406.6 131.576 406.5 131.976Z" fill="#6BD4CD"/>
<path d="M415.9 131.376C415.8 132.476 415.7 132.976 415.6 134.076C415.6 134.076 416 135.676 416 136.076C416 136.376 416 138.476 416 139.076C416 139.776 415.6 143.476 415.6 143.476C415.6 143.476 415.4 143.776 415.7 143.776C416 143.776 420.8 144.376 420.8 144.376C421.3 141.976 421.6 140.676 422.3 138.076C421.2 137.376 420.7 137.076 419.6 136.376C419.6 136.376 419.6 135.076 419.1 134.676C418.7 134.276 415.9 131.376 415.9 131.376Z" fill="#6BD4CD"/>
<path d="M407.2 129.876C407.2 129.876 409.1 132.376 409.4 132.676C409.8 132.976 412.4 133.376 412.7 133.276C413 133.176 414 132.376 414.1 132.176C414.3 132.076 415.9 130.776 415.9 130.776C415.9 131.076 415.9 131.176 415.9 131.376C415.9 131.376 413.3 133.576 412.5 133.976C411.7 134.376 409.6 133.376 409.2 133.376C408.9 133.276 407 130.476 407 130.476C407.1 130.176 407.1 130.076 407.2 129.876Z" fill="#000631"/>
<path d="M410.7 120.876C410.7 120.876 410.5 121.176 410.8 121.476C411.1 121.776 411.5 121.376 411.6 121.376C411.7 121.376 411.9 120.976 411.8 120.976C411.7 120.976 411.7 120.976 411.6 120.876C411.5 120.776 410.7 120.876 410.7 120.876Z" fill="#000631"/>
<path d="M416.1 121.776C416.1 121.776 416.1 122.176 416.4 122.476C416.8 122.676 417.1 122.276 417.2 122.076C417.3 121.876 417.1 121.876 417.1 121.876C417.1 121.876 416.5 121.576 416.1 121.776Z" fill="#000631"/>
<path fill-rule="evenodd" clip-rule="evenodd" d="M420.7 144.576C409.1 143.276 405.7 142.676 394.5 141.576C394.3 141.576 394.2 141.476 394.3 141.376C397.3 130.076 400.3 118.876 403.1 107.576C403.2 107.376 403.4 107.276 403.5 107.376C403.5 107.376 403.533 107.376 403.6 107.376C413.6 108.776 419.8 109.276 429.8 110.276C429.9 110.276 430 110.476 429.9 110.576C426.8 121.776 423.7 133.076 421 144.376C421 144.476 420.9 144.576 420.7 144.576ZM394.8 141.176C405.8 142.176 409.2 142.776 420.6 144.076C423.2 132.976 426.3 121.876 429.4 110.776C419.6 109.776 413.5 109.176 403.5 107.876C400.7 118.976 397.8 130.076 394.8 141.176Z" fill="#000631"/>
<path d="M412.4 133.376C411.3 133.176 410.7 133.176 409.6 132.976C409.4 132.909 409.233 132.809 409.1 132.676C408.5 131.976 406.9 130.276 406.7 129.176C406.6 128.076 406.9 122.276 407.3 121.376C407.7 120.376 408.7 117.176 408.7 117.076C408.7 116.976 408.8 116.976 409 116.976C409.1 116.976 409.1 117.076 409.1 117.176C409 117.276 408 120.476 407.6 121.476C407.3 122.276 406.9 127.876 407.1 129.076C407.2 129.876 408.4 131.276 409.4 132.376C409.466 132.509 409.566 132.576 409.7 132.576C410.8 132.776 411.4 132.876 412.5 133.076C412.633 133.076 412.766 133.043 412.9 132.976C413.6 132.376 416 130.576 416.7 129.876C417.4 129.276 418.9 124.976 419.5 123.376C419.5 123.276 419.6 123.276 419.7 123.276C419.8 123.276 419.9 123.376 419.8 123.476C419.6 124.076 417.9 129.276 417 130.176C416.2 130.876 413.8 132.676 413.1 133.276C412.9 133.376 412.6 133.476 412.4 133.376Z" fill="#000631"/>
<path d="M405.1 134.776C405.1 134.776 405.066 134.776 405 134.776C405 134.676 405 134.576 405 134.476C405.5 133.976 406.6 130.976 407 129.876C407 129.776 407.1 129.676 407.2 129.676C407.3 129.676 407.4 129.776 407.4 129.976C407.2 130.376 406 133.976 405.3 134.776C405.233 134.776 405.166 134.776 405.1 134.776Z" fill="#000631"/>
<path d="M415.6 135.676C415.533 135.676 415.5 135.676 415.5 135.676C414.9 134.676 415.8 131.076 415.9 130.676C415.9 130.576 416 130.476 416.1 130.476C416.233 130.543 416.3 130.609 416.3 130.676C416 131.776 415.4 134.776 415.8 135.376C415.9 135.476 415.8 135.576 415.7 135.676C415.7 135.676 415.666 135.676 415.6 135.676Z" fill="#000631"/>
<path d="M420 139.476C419.6 139.376 417.6 138.576 417.4 137.976C417.4 137.876 417.5 137.776 417.6 137.676C417.7 137.676 417.8 137.776 417.8 137.776C417.9 138.176 418.9 138.676 419.8 138.976C419.6 138.376 419.4 137.276 419.3 136.276C419.2 135.676 419.1 135.076 419.1 134.976C419 134.776 417 132.776 415.8 131.476C415.7 131.476 415.7 131.276 415.8 131.276C415.9 131.176 416 131.176 416.1 131.276C416.6 131.776 419.3 134.576 419.4 134.776C419.5 134.776 419.5 135.176 419.7 136.276C419.8 137.376 420.1 138.876 420.3 139.276C420.3 139.343 420.266 139.409 420.2 139.476C420.133 139.476 420.066 139.476 420 139.476Z" fill="#000631"/>
<path d="M415.7 143.676C415.6 143.676 415.5 143.576 415.5 143.476C416.1 140.976 417.1 138.076 417.4 137.176C418 135.876 418.8 135.276 418.8 135.276C418.9 135.176 419 135.276 419.1 135.276C419.2 135.376 419.1 135.476 419 135.576C419 135.576 418.3 136.076 417.8 137.276C417.5 138.176 416.5 141.076 415.9 143.576C415.9 143.676 415.8 143.676 415.7 143.676Z" fill="#000631"/>
<path d="M422.3 138.276C422.233 138.276 422.2 138.243 422.2 138.176C420.5 137.276 419.5 136.576 419.3 136.276C419.2 136.176 419.3 136.076 419.4 135.976C419.4 135.976 419.6 135.976 419.6 136.076C419.9 136.376 421.6 137.376 422.4 137.876C422.5 137.976 422.5 138.076 422.5 138.176C422.433 138.243 422.366 138.276 422.3 138.276Z" fill="#000631"/>
<path d="M401.6 142.076C401.5 142.076 401.4 141.976 401.4 141.876C403.4 136.076 406.2 132.176 406.2 132.076C406.3 131.976 406.4 131.976 406.5 132.076C406.5 132.076 406.5 132.176 406.5 132.276C406.5 132.376 403.7 136.276 401.8 141.876C401.8 141.976 401.7 142.076 401.6 142.076Z" fill="#000631"/>
<path d="M395.8 136.376C395.733 136.309 395.7 136.243 395.7 136.176C395.7 136.076 395.7 135.976 395.8 135.976C398.5 134.976 401.6 133.876 401.6 133.876C401.6 133.976 401.6 134.076 401.7 134.276C401.7 134.276 398.6 135.376 395.9 136.376C395.9 136.376 395.866 136.376 395.8 136.376Z" fill="#000631"/>
<path d="M399.2 138.176C399.133 138.176 399.066 138.143 399 138.076C399 138.009 399.033 137.943 399.1 137.876C400.1 136.876 401.8 133.576 401.9 133.276C401.9 133.176 402 132.876 406.7 130.876C406.8 130.876 406.9 130.876 406.9 130.976C407 131.076 406.9 131.176 406.8 131.276C404.8 132.076 402.5 133.176 402.2 133.376C402 133.776 400.8 136.376 399.7 137.676C400.3 137.476 401.3 137.176 401.8 136.776C401.9 136.676 402 136.676 402 136.776C402.1 136.876 402.1 136.976 402 137.076C401.2 137.776 399.3 138.176 399.2 138.176Z" fill="#000631"/>
<path d="M402 140.876C401.933 140.876 401.9 140.809 401.9 140.676C401.9 137.476 401.9 133.376 401.9 133.276C401.9 133.176 401.9 133.076 402 133.076C402.2 133.076 402.2 133.176 402.2 133.276C402.2 133.276 402.3 137.376 402.2 140.676C402.2 140.776 402.1 140.876 402 140.876Z" fill="#000631"/>
<path d="M415.5 143.876C415.4 143.876 415.3 143.776 415.3 143.776C415.5 142.576 415.5 141.876 415.7 140.676C416.2 136.576 415.3 133.876 415.3 133.776C415.3 133.676 415.4 133.576 415.5 133.576C415.6 133.576 415.7 133.576 415.7 133.676C415.7 133.776 416.6 136.476 416.1 140.676C415.9 141.976 415.8 142.576 415.7 143.776C415.7 143.876 415.6 143.876 415.5 143.876Z" fill="#000631"/>
<path d="M409.2 140.976C409 140.909 408.8 140.876 408.6 140.876C404.5 139.776 404 135.976 404 135.876C404 135.776 404.1 135.676 404.2 135.676C404.3 135.676 404.4 135.776 404.4 135.876C404.4 135.876 404.8 139.476 408.7 140.476C412.5 141.476 415.9 137.276 415.9 137.276C416 137.176 416.1 137.076 416.2 137.176C416.3 137.276 416.3 137.376 416.2 137.376C416.2 137.476 415.3 138.576 414 139.576C412.3 140.676 410.7 141.176 409.2 140.976Z" fill="#000631"/>
<path d="M408.6 141.676C404.4 141.176 403.3 137.576 403.3 137.476C403.2 137.476 403.3 137.376 403.4 137.276C403.5 137.276 403.5 137.276 403.6 137.376C403.6 137.476 404.7 141.076 409.1 141.476C413.4 141.776 415.9 138.276 415.9 138.276C416 138.176 416.1 138.176 416.2 138.176C416.2 138.176 416.3 138.276 416.2 138.376C416.2 138.376 413.6 142.076 409 141.776C408.866 141.709 408.733 141.676 408.6 141.676Z" fill="#000631"/>
<path d="M406.3 126.476C406.233 126.476 406.166 126.476 406.1 126.476C405.6 126.276 405.1 125.576 405.1 125.076C405.1 124.576 405.6 120.876 406.1 120.376C406.2 120.176 406.3 120.176 406.4 120.176C407 120.276 407.3 121.276 407.4 121.476C407.4 121.576 407.3 121.776 407.2 121.776C407.1 121.776 407 121.776 407 121.676C406.9 121.276 406.6 120.676 406.4 120.576C406 120.976 405.4 124.476 405.5 125.076C405.5 125.376 405.9 125.876 406.3 126.076C406.5 126.209 406.666 126.209 406.8 126.076C406.9 125.976 407 125.976 407.1 126.076C407.1 126.176 407.1 126.276 407 126.376C406.8 126.509 406.566 126.543 406.3 126.476Z" fill="#000631"/>
<path d="M405.8 125.276C405.7 125.276 405.6 125.176 405.6 125.076C405.733 124.476 405.933 124.143 406.2 124.076C406.266 124.009 406.366 124.009 406.5 124.076C406.4 122.576 406 121.376 406 121.376C405.9 121.276 406 121.176 406.1 121.076C406.2 121.076 406.3 121.076 406.3 121.176C406.3 121.276 406.9 122.676 406.8 124.376C406.8 124.443 406.766 124.509 406.7 124.576C406.633 124.643 406.566 124.643 406.5 124.576C406.4 124.476 406.3 124.376 406.3 124.376C406.3 124.476 406.1 124.476 406 125.076C406 125.176 405.9 125.276 405.8 125.276Z" fill="#000631"/>
<path d="M405.8 123.776C405.733 123.776 405.7 123.743 405.7 123.676C405.7 122.976 406.3 122.376 406.4 122.376C406.5 122.276 406.6 122.276 406.6 122.376C406.7 122.476 406.7 122.576 406.6 122.676C406.6 122.676 406 123.176 406 123.576C406 123.676 406 123.776 405.8 123.776Z" fill="#000631"/>
<path d="M418.1 128.476C417.966 128.409 417.866 128.343 417.8 128.276C417.7 128.276 417.7 128.176 417.7 128.076C417.8 127.976 417.9 127.976 418 127.976C418 127.976 418.4 128.176 418.7 127.876C419.1 127.476 420.1 125.676 420.3 125.076C420.5 124.276 420.7 122.876 420.5 122.576C420.433 122.509 420.4 122.476 420.4 122.476C420.3 122.576 420.1 122.876 420 123.076C419.9 123.176 419.8 123.276 419.7 123.176C419.6 123.176 419.6 123.076 419.6 122.976C419.7 122.876 420 122.276 420.3 122.076C420.4 122.076 420.6 122.076 420.8 122.276C421.3 122.876 420.7 125.076 420.7 125.176C420.5 125.776 419.4 127.676 419 128.176C418.7 128.476 418.4 128.476 418.1 128.476Z" fill="#000631"/>
<path d="M418.6 127.076C418.6 127.076 418.6 127.043 418.6 126.976C418.533 126.976 418.5 126.909 418.5 126.776C418.9 125.376 420.3 123.276 420.4 123.176C420.4 123.076 420.6 122.976 420.6 123.076C420.7 123.076 420.7 123.276 420.7 123.376C420.7 123.376 419.7 124.876 419.1 126.176C419.3 126.076 419.5 126.076 419.6 126.076C419.7 126.076 419.8 126.176 419.8 126.476C419.8 126.576 419.7 126.676 419.6 126.676C419.5 126.676 419.4 126.576 419.4 126.476C419.3 126.476 419 126.776 418.8 126.976C418.8 127.043 418.733 127.076 418.6 127.076Z" fill="#000631"/>
<path d="M419.9 125.576C419.833 125.576 419.8 125.543 419.8 125.476C419.7 125.476 419.7 125.376 419.8 125.276C420.2 124.776 419.8 124.276 419.8 124.276C419.8 124.176 419.8 124.076 419.9 123.976C420 123.876 420.1 123.876 420.2 123.976C420.3 124.276 420.5 124.876 420.1 125.476C420.033 125.543 419.966 125.576 419.9 125.576Z" fill="#000631"/>
<path d="M407.3 121.176C407.233 121.109 407.166 121.043 407.1 120.976C407.1 120.676 406.5 118.076 406.8 117.276C407 116.576 407.5 115.476 407.5 115.376C407.5 115.276 407.6 115.276 407.7 115.276C407.8 115.276 407.9 115.376 407.8 115.476C407.8 115.476 407.3 116.676 407.1 117.376C407 117.876 407.3 119.776 407.5 120.876C407.5 120.976 407.5 121.076 407.4 121.176C407.333 121.176 407.3 121.176 407.3 121.176Z" fill="#000631"/>
<path d="M408.2 119.476C408.133 119.476 408.1 119.443 408.1 119.376C407 116.976 408.6 112.876 408.7 112.676C408.7 112.676 408.8 112.576 408.9 112.576C409 112.676 409 112.676 409 112.776C408.9 112.876 407.3 116.876 408.3 119.276C408.4 119.376 408.3 119.376 408.2 119.476Z" fill="#000631"/>
<path d="M409.1 112.376C409.033 112.376 409 112.343 409 112.276C409 112.209 409.033 112.143 409.1 112.076L409.2 111.976C409.6 111.576 410.3 110.776 411.3 110.676C412.5 110.476 414.1 110.976 414.2 110.976C414.3 111.076 414.3 111.076 414.3 111.176C414.2 111.276 414.1 111.276 414.1 111.276C414 111.276 412.4 110.776 411.3 110.976C410.4 111.076 409.8 111.776 409.4 112.176C409.3 112.276 409.3 112.376 409.2 112.376C409.2 112.376 409.166 112.376 409.1 112.376Z" fill="#000631"/>
<path d="M413.6 112.076C413.6 112.076 413.6 112.043 413.6 111.976C413.5 111.976 413.5 111.876 413.5 111.876C413.5 111.809 413.533 111.776 413.6 111.776C413.7 111.676 414 111.476 414.2 111.376C415.1 110.776 415.9 110.176 416.4 110.276C416.4 110.276 416.5 110.376 416.5 110.476C416.4 110.476 416.4 110.576 416.3 110.576C415.9 110.476 414.9 111.176 414.4 111.576C413.9 111.976 413.7 112.076 413.6 112.076Z" fill="#000631"/>
<path d="M419.7 113.676C419.633 113.676 419.6 113.643 419.6 113.576C419.5 112.276 417.3 110.976 417.3 110.976C417.2 110.976 417.2 110.876 417.2 110.776C417.3 110.776 417.4 110.676 417.4 110.776C417.5 110.776 419.8 112.076 419.9 113.476C419.9 113.576 419.8 113.676 419.7 113.676Z" fill="#000631"/>
<path d="M423.1 113.876C423.033 113.876 423 113.843 423 113.776C423 113.076 418.7 111.076 418.3 110.976C418.233 110.976 418.2 110.909 418.2 110.776C418.2 110.676 418.3 110.676 418.4 110.676C418.4 110.676 423.3 112.676 423.3 113.776C423.3 113.776 423.2 113.876 423.1 113.876Z" fill="#000631"/>
<path d="M421 121.276C421 121.276 420.967 121.276 420.9 121.276C420.9 121.276 420.9 121.176 420.9 121.076C421.8 119.976 423.1 115.076 423.1 114.976C423.1 114.876 423.2 114.876 423.2 114.876C423.266 114.876 423.3 114.876 423.3 114.876C423.3 114.876 423.4 114.876 423.3 114.976C423.3 115.176 422 120.076 421.1 121.276C421.1 121.276 421.067 121.276 421 121.276Z" fill="#000631"/>
<path d="M420.6 122.576C420.533 122.576 420.5 122.543 420.5 122.476C420.4 122.476 420.4 122.376 420.5 122.276C421.4 121.276 422.8 118.076 422.8 118.076C422.8 117.976 422.9 117.976 423 117.976C423 117.976 423.1 118.076 423 118.176C423 118.276 421.7 121.376 420.7 122.476C420.633 122.543 420.6 122.576 420.6 122.576Z" fill="#000631"/>
<path d="M421.4 120.476C421.4 120.476 421.366 120.443 421.3 120.376C421.3 120.376 421 119.976 420.7 119.876C420.2 119.576 418.5 116.176 418.1 115.476C418.1 115.376 418.1 115.276 418.2 115.276C418.2 115.176 418.3 115.276 418.4 115.276C419.4 117.276 420.6 119.476 420.8 119.576C421.3 119.776 421.6 120.176 421.6 120.176C421.6 120.276 421.6 120.376 421.5 120.476C421.5 120.476 421.466 120.476 421.4 120.476Z" fill="#000631"/>
<path d="M412 114.676C411.9 114.676 411.9 114.576 412 114.476C412 114.376 413.4 112.276 414.9 112.476C415 112.476 415.1 112.476 415.1 112.576C415 112.676 414.9 112.776 414.9 112.776C413.6 112.576 412.2 114.576 412.2 114.576C412.133 114.643 412.066 114.676 412 114.676Z" fill="#000631"/>
<path d="M418.4 118.076C417.4 117.576 415.6 112.976 415.6 112.776C415.5 112.676 415.6 112.576 415.7 112.576C415.7 112.476 415.8 112.576 415.8 112.576C416.3 113.976 417.8 117.476 418.5 117.876C418.6 117.876 418.6 117.976 418.6 118.076C418.533 118.143 418.466 118.143 418.4 118.076Z" fill="#000631"/>
<path d="M412.4 115.076C412.333 115.076 412.3 115.043 412.3 114.976C412.3 114.876 412.4 114.776 412.5 114.776C412.6 114.776 415 114.276 416.7 114.776C416.8 114.776 416.8 114.876 416.8 114.976C416.7 114.976 416.6 115.076 416.6 115.076C415 114.576 412.5 115.076 412.5 115.076C412.5 115.076 412.466 115.076 412.4 115.076Z" fill="#000631"/>
<path d="M413.6 114.876C413.5 114.876 413.5 114.776 413.6 114.676C413.6 114.676 414.6 113.076 416.1 113.276C416.1 113.376 416.2 113.376 416.2 113.476C416.133 113.543 416.067 113.576 416 113.576C414.7 113.376 413.8 114.776 413.8 114.776C413.733 114.843 413.667 114.876 413.6 114.876Z" fill="#000631"/>
<path d="M420.5 120.776C419.1 120.576 418 118.476 417.9 118.376C417.9 118.276 417.9 118.176 418 118.176C418.1 118.076 418.2 118.076 418.2 118.176C418.2 118.176 419.6 120.676 420.9 120.476C421 120.476 421 120.476 421 120.576C421 120.676 420.9 120.776 420.9 120.776C420.767 120.776 420.633 120.776 420.5 120.776Z" fill="#000631"/>
<path d="M420.2 122.476C420.2 122.476 420.166 122.443 420.1 122.376C419.8 121.476 419.2 120.076 419.1 119.976C419.1 119.876 419.2 119.776 419.2 119.776C419.3 119.676 419.3 119.676 419.4 119.776C419.4 119.843 419.4 119.876 419.4 119.876C419.6 120.176 419.8 120.776 420.4 122.276C420.4 122.376 420.4 122.476 420.3 122.476C420.3 122.476 420.266 122.476 420.2 122.476Z" fill="#000631"/>
<path d="M421.1 119.376C421.1 119.376 421.066 119.376 421 119.376C420.8 119.076 420.7 116.976 420.7 116.576C420.7 116.576 420.7 116.476 420.8 116.476C420.9 116.376 421 116.476 421 116.576C421 117.476 421.1 118.976 421.3 119.176C421.3 119.176 421.3 119.276 421.2 119.376C421.2 119.376 421.166 119.376 421.1 119.376Z" fill="#000631"/>
<path d="M411.9 115.276C411.9 115.209 411.867 115.176 411.8 115.176C411.6 114.976 410.8 114.476 410.5 114.476C410.4 114.476 410.4 114.376 410.4 114.276C410.4 114.176 410.5 114.176 410.6 114.176C411 114.276 411.9 114.876 412 114.976C412.1 114.976 412.1 115.076 412.1 115.176C412.033 115.243 411.967 115.276 411.9 115.276Z" fill="#000631"/>
<path d="M408.8 116.876C408.7 116.876 408.7 116.776 408.8 116.676C408.8 116.676 409.1 116.176 409.4 115.476C409.8 114.676 411 113.376 411.1 113.376C411.1 113.276 411.2 113.276 411.3 113.276C411.3 113.376 411.3 113.476 411.3 113.476C411.3 113.576 410 114.776 409.7 115.576C409.3 116.376 409 116.776 409 116.876C408.933 116.876 408.867 116.876 408.8 116.876Z" fill="#000631"/>
<path d="M409.1 116.976C409.033 116.976 409 116.943 409 116.876C409 116.776 409 116.776 409.1 116.676C409.7 116.176 411 114.876 411.1 114.876C411.1 114.776 411.2 114.776 411.3 114.876C411.3 114.876 411.3 114.976 411.3 115.076C411.2 115.076 409.9 116.376 409.2 116.876C409.2 116.943 409.166 116.976 409.1 116.976Z" fill="#000631"/>
<path d="M412.8 112.876C411.4 111.876 410.9 112.176 410.9 112.176C410.8 112.176 410.7 112.176 410.7 112.176C410.6 112.076 410.7 111.976 410.7 111.976C410.8 111.876 411.4 111.476 413 112.576C413 112.676 413 112.776 413 112.776C412.933 112.843 412.866 112.876 412.8 112.876Z" fill="#000631"/>
<path d="M408 128.176C407.933 128.176 407.933 128.143 408 128.076C408.1 127.476 408.2 127.176 408.3 126.576C408.366 126.509 408.433 126.476 408.5 126.476C408.5 126.476 408.6 126.576 408.5 126.576C408.4 127.176 408.3 127.576 408.2 128.176C408.133 128.243 408.066 128.243 408 128.176Z" fill="#000631"/>
<path d="M407.7 131.076C407.633 131.009 407.6 130.976 407.6 130.976C407.5 130.376 407.9 128.976 407.9 128.876C407.9 128.876 407.933 128.876 408 128.876C408.066 128.876 408.1 128.909 408.1 128.976C408.1 128.976 407.7 130.376 407.8 130.876C407.8 130.943 407.766 131.009 407.7 131.076Z" fill="#000631"/>
<path d="M408.9 132.476C408.833 132.476 408.8 132.443 408.8 132.376C408.5 131.676 409.1 129.976 409.4 129.176C409.466 129.109 409.533 129.076 409.6 129.076C409.666 129.143 409.666 129.209 409.6 129.276C409 130.776 408.8 131.876 409 132.276C409 132.343 409 132.409 409 132.476C408.933 132.476 408.9 132.476 408.9 132.476Z" fill="#000631"/>
<path d="M409.6 132.876C409.6 132.876 409.6 132.843 409.6 132.776C409.4 132.376 410.3 130.076 410.4 129.876C410.4 129.809 410.433 129.776 410.5 129.776C410.566 129.776 410.6 129.809 410.6 129.876C410.2 130.876 409.6 132.376 409.8 132.676C409.8 132.743 409.766 132.809 409.7 132.876C409.7 132.876 409.666 132.876 409.6 132.876Z" fill="#000631"/>
<path d="M410.8 133.176C410.8 133.176 410.766 133.143 410.7 133.076C410.7 132.776 411.3 130.776 411.5 130.376C411.5 130.309 411.533 130.276 411.6 130.276C411.666 130.276 411.7 130.309 411.7 130.376C411.4 131.276 410.9 132.776 410.9 132.976C410.966 133.043 410.966 133.109 410.9 133.176C410.833 133.176 410.8 133.176 410.8 133.176Z" fill="#000631"/>
<path d="M411.7 133.276C411.633 133.276 411.6 133.243 411.6 133.176C411.7 133.076 412.3 130.776 412.3 130.776C412.4 130.776 412.4 130.776 412.5 130.776C412.5 130.776 411.9 133.076 411.8 133.176C411.8 133.243 411.766 133.276 411.7 133.276Z" fill="#000631"/>
<path d="M413 133.176C412.933 133.176 412.9 133.176 412.9 133.176C412.9 133.109 412.9 133.076 412.9 133.076C413.3 132.476 413.3 130.676 413.3 130.676C413.3 130.609 413.333 130.576 413.4 130.576C413.467 130.576 413.5 130.609 413.5 130.676C413.5 130.776 413.5 132.576 413.1 133.176C413.033 133.176 413 133.176 413 133.176Z" fill="#000631"/>
<path d="M413.9 131.876C413.833 131.876 413.8 131.843 413.8 131.776C413.9 131.476 413.9 130.376 413.9 130.376C413.9 130.309 413.933 130.276 414 130.276C414.066 130.276 414.1 130.309 414.1 130.376C414.1 130.376 414.1 131.476 414 131.776C413.933 131.843 413.9 131.876 413.9 131.876Z" fill="#000631"/>
<path d="M411.8 129.476C411.733 129.409 411.733 129.343 411.8 129.276C411.8 129.076 411.8 128.976 411.8 128.776C411.866 128.709 411.9 128.676 411.9 128.676C411.966 128.676 412 128.709 412 128.776C412 128.976 412 129.076 412 129.376C411.933 129.376 411.866 129.409 411.8 129.476Z" fill="#000631"/>
<path d="M412.3 129.776C412.233 129.776 412.2 129.743 412.2 129.676C412.2 129.476 412.3 128.976 412.3 128.876C412.3 128.809 412.333 128.776 412.4 128.776C412.466 128.776 412.5 128.809 412.5 128.876C412.5 128.976 412.4 129.576 412.4 129.676C412.4 129.743 412.366 129.776 412.3 129.776Z" fill="#000631"/>
<path d="M412.6 129.576C412.533 129.576 412.5 129.543 412.5 129.476C412.5 129.376 412.5 129.276 412.6 129.176C412.6 129.109 412.633 129.076 412.7 129.076C412.766 129.076 412.8 129.109 412.8 129.176C412.7 129.276 412.7 129.376 412.7 129.476C412.633 129.543 412.6 129.576 412.6 129.576Z" fill="#000631"/>
<path d="M414.7 130.176C414.633 130.176 414.6 130.143 414.6 130.076C414.8 129.676 414.9 129.176 414.9 129.176C414.9 129.109 414.933 129.076 415 129.076C415.066 129.076 415.1 129.109 415.1 129.176C415.1 129.176 415 129.676 414.8 130.176C414.8 130.176 414.766 130.176 414.7 130.176Z" fill="#000631"/>
<path d="M415.5 129.476C415.433 129.476 415.4 129.443 415.4 129.376C415.7 128.776 415.8 126.976 415.8 126.976C415.867 126.909 415.933 126.843 416 126.776C416.067 126.776 416.067 126.809 416 126.876C416 126.976 415.9 128.776 415.6 129.476C415.6 129.476 415.567 129.476 415.5 129.476Z" fill="#000631"/>
<path d="M415.9 129.576C415.833 129.576 415.833 129.543 415.9 129.476C416 128.776 416.1 128.376 416.3 127.676C416.366 127.609 416.433 127.576 416.5 127.576C416.566 127.643 416.566 127.709 416.5 127.776C416.3 128.476 416.2 128.776 416.1 129.476C416.033 129.543 415.966 129.576 415.9 129.576Z" fill="#000631"/>
<path d="M407.4 129.076C407.333 129.076 407.3 129.043 407.3 128.976C407.4 128.476 407.7 127.276 407.7 127.276C407.7 127.209 407.733 127.176 407.8 127.176C407.866 127.176 407.9 127.209 407.9 127.276C407.9 127.276 407.6 128.476 407.5 128.976C407.5 129.043 407.466 129.076 407.4 129.076Z" fill="#000631"/>
<path d="M416.2 129.676C416.2 129.676 416.2 129.643 416.2 129.576C416.3 129.176 416.3 128.976 416.4 128.676C416.466 128.609 416.533 128.576 416.6 128.576C416.666 128.576 416.666 128.609 416.6 128.676C416.5 129.076 416.5 129.276 416.4 129.676C416.333 129.676 416.266 129.676 416.2 129.676Z" fill="#000631"/>
<path d="M408.9 126.076C408.833 126.076 408.8 126.043 408.8 125.976C408.8 125.909 408.833 125.876 408.9 125.876C408.966 125.876 409.033 125.876 409.1 125.876C410.1 125.876 411.1 125.876 411.4 126.076C411.466 126.076 411.466 126.109 411.4 126.176C411.333 126.243 411.3 126.276 411.3 126.276C411 125.976 409.6 126.076 409.1 126.076C408.966 126.076 408.9 126.076 408.9 126.076Z" fill="#000631"/>
<path d="M409.6 125.776C409.533 125.776 409.5 125.776 409.5 125.776C409.5 125.709 409.533 125.643 409.6 125.576C409.6 125.576 410.4 125.376 410.8 125.676C410.8 125.676 410.8 125.709 410.8 125.776C410.733 125.843 410.666 125.876 410.6 125.876C410.4 125.676 409.8 125.776 409.6 125.776Z" fill="#000631"/>
<path d="M414.7 126.476C414.633 126.476 414.6 126.476 414.6 126.476C414.6 126.409 414.633 126.343 414.7 126.276C414.7 126.276 414.733 126.276 414.8 126.276C414.8 126.276 414.9 126.276 415 126.276C415.3 126.276 415.9 126.276 416.1 126.476C416.166 126.543 416.166 126.609 416.1 126.676C416.033 126.743 416 126.743 416 126.676C415.8 126.476 415.2 126.476 414.9 126.476C414.833 126.476 414.766 126.476 414.7 126.476Z" fill="#000631"/>
<path d="M413 126.576C413 126.509 413 126.476 413 126.476C413 126.409 413.033 126.376 413.1 126.376C413.5 126.376 413.6 126.376 414 126.376C414 126.376 414.5 126.476 415.3 126.676C415.366 126.743 415.4 126.809 415.4 126.876C415.333 126.876 415.266 126.876 415.2 126.876C414.5 126.776 414 126.676 413.9 126.676C413.6 126.576 413.4 126.576 413 126.576Z" fill="#000631"/>
<path d="M412.2 126.476C412 126.476 411.9 126.476 411.7 126.376C411.7 126.376 411.7 126.343 411.7 126.276C411.7 126.209 411.733 126.176 411.8 126.176C412 126.276 412 126.276 412.2 126.276C412.266 126.276 412.3 126.309 412.3 126.376C412.233 126.443 412.2 126.476 412.2 126.476Z" fill="#000631"/>
<path d="M412.6 128.176C412.533 128.176 412.5 128.143 412.5 128.076C412.5 128.009 412.533 127.976 412.6 127.976C413.4 127.976 414.2 127.576 414.6 127.276C413.9 127.376 412.8 127.176 412.4 127.176C411.4 126.976 410.9 126.876 409.9 126.776C410.3 127.076 411 127.676 411.8 127.876C411.866 127.876 411.866 127.909 411.8 127.976C411.8 128.043 411.766 128.076 411.7 128.076C410.5 127.776 409.6 126.676 409.5 126.676C409.5 126.609 409.5 126.543 409.5 126.476C409.566 126.476 409.6 126.476 409.6 126.476C410.8 126.676 411.3 126.776 412.4 126.976C413 127.076 414.6 127.176 415 127.076C415.066 127.076 415.1 127.109 415.1 127.176C415.166 127.176 415.166 127.209 415.1 127.276C415 127.276 413.8 128.076 412.6 128.176Z" fill="#000631"/>
<path d="M410.4 127.376C410.333 127.376 410.3 127.343 410.3 127.276C410.3 127.076 410.3 126.976 410.3 126.676C410.366 126.609 410.4 126.576 410.4 126.576C410.466 126.576 410.5 126.609 410.5 126.676C410.5 126.876 410.5 127.076 410.5 127.276C410.5 127.343 410.466 127.376 410.4 127.376Z" fill="#000631"/>
<path d="M414.1 127.776C414.033 127.709 414.033 127.676 414.1 127.676C414.2 127.476 414.2 127.376 414.3 127.176C414.3 127.109 414.333 127.076 414.4 127.076C414.467 127.143 414.5 127.209 414.5 127.276C414.4 127.476 414.3 127.476 414.3 127.676C414.233 127.743 414.166 127.776 414.1 127.776Z" fill="#000631"/>
<path d="M412.3 125.776C412.233 125.709 412.166 125.609 412.1 125.476C412.1 125.543 412.066 125.576 412 125.576C412 125.643 411.966 125.643 411.9 125.576C411.833 125.443 411.833 125.343 411.9 125.276C411.9 125.276 411.9 125.176 412 125.176C412.2 125.276 412.4 125.576 412.5 125.676C412.5 125.743 412.466 125.776 412.4 125.776C412.4 125.843 412.366 125.843 412.3 125.776Z" fill="#000631"/>
<path fill-rule="evenodd" clip-rule="evenodd" d="M413.1 125.976C413.1 125.976 413.066 125.943 413 125.876C413 125.809 413.033 125.776 413.1 125.776C413.5 125.376 413.6 125.476 413.7 125.476C413.766 125.476 413.766 125.509 413.7 125.576C413.7 125.643 413.666 125.676 413.6 125.676C413.5 125.676 413.3 125.776 413.2 125.876C413.133 125.943 413.1 125.976 413.1 125.976Z" fill="#000631"/>
<path d="M413.9 125.876C413.833 125.876 413.833 125.843 413.9 125.776C413.9 125.776 414.1 125.376 413.9 125.176C413.833 125.176 413.833 125.143 413.9 125.076C413.966 125.009 414 125.009 414 125.076C414.4 125.276 414 125.876 414 125.876C414 125.876 413.966 125.876 413.9 125.876Z" fill="#000631"/>
<path d="M411.4 125.676C411.4 125.676 411.4 125.643 411.4 125.576C411.3 125.576 411.3 125.076 411.5 124.876C411.5 124.809 411.566 124.776 411.7 124.776C411.766 124.776 411.8 124.809 411.8 124.876C411.8 124.943 411.766 124.976 411.7 124.976C411.633 124.976 411.6 124.976 411.6 124.976C411.5 125.076 411.5 125.376 411.6 125.476C411.6 125.543 411.566 125.609 411.5 125.676C411.433 125.676 411.4 125.676 411.4 125.676Z" fill="#000631"/>
<path d="M413.2 124.676C413.2 124.609 413.2 124.576 413.2 124.576C413.1 124.476 412.8 124.476 412.7 124.576C412.633 124.576 412.6 124.543 412.6 124.476C412.6 124.409 412.633 124.376 412.7 124.376C412.7 124.276 413.2 124.176 413.4 124.476C413.4 124.476 413.366 124.509 413.3 124.576C413.3 124.643 413.266 124.676 413.2 124.676Z" fill="#000631"/>
<path d="M409.6 121.376C409.533 121.376 409.5 121.343 409.5 121.276C409.433 121.276 409.433 121.243 409.5 121.176C410 120.676 410.8 120.676 411.5 120.676C412 120.776 412.3 121.276 412.3 121.276C412.366 121.343 412.366 121.409 412.3 121.476C412.233 121.476 412.2 121.443 412.2 121.376C412.2 121.376 411.9 120.976 411.4 120.976C410.6 120.876 410 120.976 409.7 121.276C409.633 121.343 409.6 121.376 409.6 121.376Z" fill="#000631"/>
<path d="M411.1 121.976C410.3 121.876 409.7 121.376 409.6 121.376C409.6 121.31 409.6 121.243 409.6 121.176C409.666 121.109 409.733 121.109 409.8 121.176C409.8 121.176 410.4 121.676 411.3 121.776C411.3 121.776 411.4 121.876 411.3 121.876C411.3 121.943 411.266 121.976 411.2 121.976C411.2 121.976 411.166 121.976 411.1 121.976Z" fill="#000631"/>
<path d="M411.7 122.376C411.633 122.376 411.6 122.376 411.6 122.376C411.6 122.31 411.6 122.243 411.6 122.176C411.8 122.076 411.9 122.076 412 121.976C412.066 121.909 412.133 121.909 412.2 121.976C412.2 122.043 412.166 122.076 412.1 122.076C412 122.176 411.9 122.276 411.7 122.376Z" fill="#000631"/>
<path d="M415.4 122.876C415.4 122.81 415.367 122.776 415.3 122.776C415.2 122.676 415.2 122.576 415.1 122.376C415.033 122.31 415.033 122.276 415.1 122.276C415.166 122.209 415.233 122.209 415.3 122.276C415.4 122.376 415.4 122.476 415.5 122.676C415.566 122.743 415.566 122.776 415.5 122.776C415.433 122.843 415.4 122.876 415.4 122.876Z" fill="#000631"/>
<path d="M417.7 122.676C417.633 122.676 417.6 122.643 417.6 122.576C417.6 122.576 417.6 122.543 417.6 122.476C417.4 122.276 417.1 121.876 416.7 121.876C416.1 121.776 415.5 122.076 415.5 122.176C415.433 122.176 415.366 122.143 415.3 122.076C415.3 122.009 415.333 121.976 415.4 121.976C415.4 121.976 416.1 121.576 416.7 121.576C417.3 121.676 417.6 122.176 417.7 122.376C417.766 122.443 417.8 122.476 417.8 122.476C417.8 122.543 417.8 122.576 417.8 122.576C417.733 122.643 417.7 122.676 417.7 122.676Z" fill="#000631"/>
<path d="M415.6 122.676C415.533 122.676 415.5 122.643 415.5 122.576C415.566 122.509 415.633 122.476 415.7 122.476C415.7 122.476 417.1 122.676 417.5 122.676C417.566 122.676 417.6 122.709 417.6 122.776C417.6 122.843 417.566 122.876 417.5 122.876C417 122.876 415.7 122.676 415.6 122.676Z" fill="#000631"/>
<path d="M412.7 122.376C412.633 122.376 412.6 122.343 412.6 122.276C412.8 121.376 412.5 120.176 412.5 120.176C412.5 120.109 412.5 120.076 412.5 120.076C412.566 120.009 412.633 120.009 412.7 120.076C412.7 120.176 413.1 121.376 412.8 122.276C412.8 122.343 412.766 122.376 412.7 122.376Z" fill="#000631"/>
<path d="M414.8 121.276C414.8 121.276 414.8 121.243 414.8 121.176C414.8 120.776 415.3 120.376 415.3 120.376C415.366 120.31 415.433 120.31 415.5 120.376C415.5 120.443 415.466 120.476 415.4 120.476C415.4 120.476 415 120.876 415 121.176C414.933 121.243 414.866 121.276 414.8 121.276Z" fill="#000631"/>
<path d="M418.6 121.176C418.6 121.176 418.566 121.176 418.5 121.176C418.5 121.076 418.3 120.776 417.9 120.576C417.2 120.376 415.7 120.476 415.7 120.476C415.6 120.476 415.6 120.476 415.6 120.376C415.6 120.276 415.6 120.176 415.7 120.176C415.8 120.176 417.3 120.076 418 120.276C418.6 120.476 418.8 120.876 418.8 120.976C418.9 120.976 418.8 121.076 418.8 121.176C418.733 121.176 418.666 121.176 418.6 121.176Z" fill="#000631"/>
<path d="M409.2 120.076C409.133 120.076 409.1 120.043 409.1 119.976C409 119.876 409.1 119.876 409.2 119.776C409.2 119.776 409.9 119.376 410.4 119.276C410.8 119.276 411.6 119.376 412.2 119.576C412.266 119.643 412.333 119.676 412.4 119.676C412.4 119.676 412.5 119.776 412.5 119.876C412.4 119.876 412.4 119.976 412.3 119.976C412.233 119.976 412.166 119.943 412.1 119.876C411.7 119.776 410.8 119.576 410.5 119.576C410 119.676 409.3 120.076 409.3 120.076C409.233 120.076 409.2 120.076 409.2 120.076Z" fill="#000631"/>
<path d="M411 121.676C411 121.676 410.966 121.676 410.9 121.676C410.7 121.609 410.566 121.476 410.5 121.276C410.4 121.076 410.6 120.776 410.6 120.776C410.6 120.709 410.633 120.709 410.7 120.776C410.766 120.776 410.8 120.81 410.8 120.876C410.8 120.876 410.7 121.076 410.7 121.176C410.766 121.309 410.866 121.409 411 121.476C411.3 121.576 411.5 121.376 411.6 121.176C411.7 121.076 411.7 120.976 411.7 120.976C411.633 120.909 411.6 120.876 411.6 120.876C411.666 120.81 411.733 120.776 411.8 120.776C411.9 120.876 411.9 121.076 411.8 121.276C411.7 121.476 411.4 121.776 411 121.676Z" fill="#000631"/>
<path d="M416.5 122.576C416.5 122.576 416.467 122.576 416.4 122.576C415.9 122.376 416 121.776 416 121.776C416 121.709 416.033 121.676 416.1 121.676C416.166 121.676 416.2 121.709 416.2 121.776C416.2 121.776 416.2 122.176 416.5 122.376C416.8 122.376 416.9 122.276 417 122.176C417.1 122.076 417.1 121.976 417.1 121.976C417.1 121.909 417.133 121.876 417.2 121.876C417.266 121.809 417.3 121.809 417.3 121.876C417.4 121.976 417.3 122.176 417.2 122.376C417 122.509 416.767 122.576 416.5 122.576Z" fill="#000631"/>
<path d="M428.3 158.676L391.5 153.676C391.433 153.676 391.367 153.643 391.3 153.576C391.233 153.509 391.233 153.443 391.3 153.376L393.1 146.076C393.2 145.976 393.3 145.876 393.4 145.876L427.1 150.176C427.2 150.176 427.3 150.376 427.3 150.476C427.3 150.576 427.2 150.676 427 150.676L393.6 146.376L391.8 153.276L428.3 158.176C428.5 158.176 428.6 158.276 428.5 158.476C428.5 158.576 428.4 158.676 428.3 158.676Z" fill="#000631"/>
<path d="M387.4 168.876C387.333 168.876 387.3 168.876 387.3 168.876C387.2 168.876 387.1 168.676 387.1 168.576L389.3 161.376C389.3 161.276 389.4 161.176 389.5 161.276L428.5 166.276C428.7 166.276 428.8 166.376 428.7 166.476C428.7 166.676 428.6 166.776 428.5 166.676L389.7 161.776L387.6 168.676C387.6 168.876 387.5 168.876 387.4 168.876Z" fill="#000631"/>
<path d="M268.5 61.8762C268.5 61.8762 270 72.0761 269.7 75.1761C269.3 78.3761 263.4 82.2761 263.4 86.5761C263.4 90.8761 266.5 99.8761 265 108.476C263.4 117.076 259.9 124.976 257.1 139.076C254.4 153.176 254.4 162.176 251.6 166.876C248.9 171.576 235.2 171.976 232.4 170.776C229.7 169.676 216.8 166.476 215.2 165.276" stroke="#000631" stroke-width="1.6" stroke-linecap="round" stroke-linejoin="round"/>
<path d="M218.1 166.476C218.1 166.476 217.2 174.676 216.8 177.076" stroke="#000631" stroke-width="1.6" stroke-linecap="round" stroke-linejoin="round"/>
<path d="M224.6 86.9761C224.6 86.9761 230.9 80.7762 234.4 85.3762C239.5 92.0762 231.1 107.876 229.3 114.376C228.1 118.676 226.9 123.976 224.6 124.676C222.2 125.376 217.7 119.176 216.6 119.376" stroke="#000631" stroke-width="1.6" stroke-linecap="round" stroke-linejoin="round"/>
<path d="M221.5 94.3762C221.5 94.3762 222.9 101.076 218.1 108.676" stroke="#000631" stroke-width="1.6" stroke-linecap="round" stroke-linejoin="round"/>
<path d="M245.4 75.9761C246.1 76.3761 240.2 90.8761 235.3 96.5761" stroke="#000631" stroke-width="1.6" stroke-linecap="round" stroke-linejoin="round"/>
<path d="M248.9 70.0761C248.9 70.0761 249 81.2761 245.4 86.2761C245.4 86.2761 263.8 80.6762 271.6 50.8762" stroke="#000631" stroke-width="1.6" stroke-linecap="round" stroke-linejoin="round"/>
<path d="M254.4 22.6761C254.4 22.6761 276.3 34.8761 278.3 41.8761C280.2 48.9761 275.9 63.5761 268.1 68.5761" stroke="#000631" stroke-width="1.6" stroke-linecap="round" stroke-linejoin="round"/>
<path d="M196.4 17.5761C197.6 17.5761 241.1 14.8761 250.5 22.6761" stroke="#000631" stroke-width="1.6" stroke-linecap="round" stroke-linejoin="round"/>
<path d="M252.8 19.8761C252.8 19.8761 241.8 8.97616 230.1 4.67616C218.3 0.376162 193.6 -0.823838 182.4 4.67616C171.3 10.1762 139.6 21.4762 134.9 34.4762C130.2 47.3762 118.4 89.2762 132.3 104.176C132.3 104.176 145.1 117.076 149.8 127.276C154.5 137.476 152.9 146.076 150.9 150.076C150.9 150.076 158.8 148.476 160.7 144.976L159.9 150.076C159.9 150.076 163.9 153.976 175.2 146.876C186.6 139.876 192.9 128.176 196.4 120.676C199.9 113.176 205.8 98.2762 208.5 92.4762C211.3 86.5762 223.6 71.3762 229.6 83.8762" stroke="#000631" stroke-width="1.6" stroke-linecap="round" stroke-linejoin="round"/>
<path d="M155.6 67.3762C155.6 67.3762 157.6 84.1761 168.6 90.0761C168.6 90.0761 167.1 81.8761 170.2 75.9761C170.2 75.9761 170.9 85.1761 178.1 86.2761" stroke="#000631" stroke-width="1.6" stroke-linecap="round" stroke-linejoin="round"/>
<path d="M255.9 326.776C263.8 332.276 282.2 356.976 282.2 356.976C282.2 356.976 286.9 365.576 315.1 347.476C343.3 329.476 358.2 293.476 358.2 293.476C348.8 284.876 305.7 229.576 295.9 218.576C286.1 207.676 277.9 206.476 228.9 188.076C179.9 169.676 111.8 177.076 111.8 177.076C111.8 177.076 88.6 182.576 86.7 183.776C84.7 184.876 81.2 182.176 79.6 186.076C78 189.976 72.2 189.576 65.9 197.076C59.6 204.476 18 287.576 15.5 297.776C15.5 297.776 21.9 321.576 56.5 326.176" stroke="#000631" stroke-width="1.6" stroke-linecap="round" stroke-linejoin="round"/>
<path d="M264.2 297.776C264.2 297.776 249 315.976 254 449.976" stroke="#000631" stroke-width="1.6" stroke-linecap="round" stroke-linejoin="round"/>
<path d="M260 311.276C260 311.276 295.9 329.876 299.6 333.776C303.4 337.776 279.8 328.776 279.8 328.776" stroke="#000631" stroke-width="1.6" stroke-linecap="round" stroke-linejoin="round"/>
<path d="M261.8 305.676C261.8 305.676 288.5 314.176 302.6 314.176" stroke="#000631" stroke-width="1.6" stroke-linecap="round" stroke-linejoin="round"/>
<path d="M76.1001 277.376C76.1001 277.376 190.9 297.376 203 301.676" stroke="#000631" stroke-width="1.6" stroke-linecap="round" stroke-linejoin="round"/>
<path d="M226.6 280.176C226.6 280.176 236.7 249.076 244.2 246.776" stroke="#000631" stroke-width="1.6" stroke-linecap="round" stroke-linejoin="round"/>
<path d="M197.2 318.576C196.8 319.676 162.7 361.676 144.3 367.876" stroke="#000631" stroke-width="1.6" stroke-linecap="round" stroke-linejoin="round"/>
<path d="M210.1 329.876C210.1 329.876 204.6 347.576 197.2 354.976" stroke="#000631" stroke-width="1.6" stroke-linecap="round" stroke-linejoin="round"/>
<path d="M40 427.976C44.3 413.876 63.2 275.776 63.2 275.776C63.2 275.776 67.9 240.976 72.6 224.076" stroke="#000631" stroke-width="1.6" stroke-linecap="round" stroke-linejoin="round"/>
<path d="M58.9999 301.976C58.9999 301.976 49.3999 281.276 50.5999 268.776C51.7999 256.176 55.2999 272.376 55.2999 272.376" stroke="#000631" stroke-width="1.6" stroke-linecap="round" stroke-linejoin="round"/>
<path d="M23.2 309.976C23.2 309.976 1 394.676 1 398.976" stroke="#000631" stroke-width="1.6" stroke-linecap="round" stroke-linejoin="round"/>
<path d="M60.0001 246.776C60.0001 246.776 58.0001 276.976 61.8001 289.576" stroke="#000631" stroke-width="1.6" stroke-linecap="round" stroke-linejoin="round"/>
<path d="M127.3 175.976C127.3 175.976 131.7 164.176 137.6 160.976C143.5 157.876 157.9 151.976 178.1 160.976C198.3 169.976 222.8 178.776 225.3 186.776" stroke="#000631" stroke-width="1.6" stroke-linecap="round" stroke-linejoin="round"/>
<path d="M151.9 156.176L155.6 148.476" stroke="#000631" stroke-width="1.6" stroke-linecap="round" stroke-linejoin="round"/>
<path d="M263 116.576C263 116.576 263 124.476 263 124.676C263 124.976 259.6 128.376 259.6 128.376" stroke="#000631" stroke-width="1.6" stroke-linecap="round" stroke-linejoin="round"/>
<path d="M264.2 83.6761C264.2 83.6761 266.9 87.7761 264.2 92.4761" stroke="#000631" stroke-width="1.6" stroke-linecap="round" stroke-linejoin="round"/>
<path d="M236 145.576C236 145.576 236.4 162.176 238.7 165.276" stroke="#000631" stroke-width="1.6" stroke-linecap="round" stroke-linejoin="round"/>
<path d="M242.5 152.376C242.5 152.376 241.8 162.976 244.2 166.476" stroke="#000631" stroke-width="1.2" stroke-linecap="round" stroke-linejoin="round"/>
<path d="M254.4 130.976C254.4 130.976 249.7 140.676 249.3 145.776" stroke="#000631" stroke-width="1.2" stroke-linecap="round" stroke-linejoin="round"/>
<path d="M249.3 155.476C249.3 155.476 246.9 158.776 249.3 162.776" stroke="#000631" stroke-width="1.2" stroke-linecap="round" stroke-linejoin="round"/>
<path d="M245.4 134.776C245.4 134.776 249.3 125.876 254.4 126.976" stroke="#000631" stroke-width="1.2" stroke-linecap="round" stroke-linejoin="round"/>
<path d="M282.2 356.976C282.2 356.976 330.9 348.476 354.4 289.576" stroke="#000631" stroke-width="1.2" stroke-linecap="round" stroke-linejoin="round"/>
<path d="M17 293.376C17 293.376 23.2 317.576 56.5 323.476" stroke="#000631" stroke-width="1.2" stroke-linecap="round" stroke-linejoin="round"/>
<path d="M305.3 354.976C305.3 354.976 333.5 376.876 336.7 378.076C336.7 378.076 356.2 391.176 370 392.976C385.8 394.976 384.2 379.576 392 373.976C398.7 369.176 420.5 320.476 426.1 295.276C431.7 269.976 448.7 200.576 448.7 200.576C448.7 200.576 467.1 160.976 467.2 156.176C467.3 151.376 466.8 151.176 466.8 151.176C466.8 151.176 462.4 131.276 461.3 128.376C460.1 125.476 454.4 113.076 454.4 113.076" stroke="#000631" stroke-width="1.6" stroke-linecap="round" stroke-linejoin="round"/>
<path d="M354.4 301.376C354.4 301.376 382.8 324.776 389.9 329.876" stroke="#000631" stroke-width="1.6" stroke-linecap="round" stroke-linejoin="round"/>
<path d="M362.7 308.176C362.7 308.176 369.4 282.876 381.3 263.476C393.1 244.076 421.2 201.476 418.2 197.876C412.7 191.176 412.3 179.776 412.3 179.776" stroke="#000631" stroke-width="1.6" stroke-linecap="round" stroke-linejoin="round"/>
<path d="M450.3 126.876C450.7 128.076 451.1 137.576 450.7 142.976C450.3 148.376 448.1 154.876 443.6 154.376C440.9 154.076 437.4 140.276 437 136.676C436.6 133.176 436.8 119.976 431.4 122.476C426 124.976 425.6 141.476 426.4 145.576C427.2 149.676 430.3 169.676 429.9 173.576C429.5 177.476 427.7 186.476 429.4 191.376" stroke="#000631" stroke-width="1.6" stroke-linecap="round" stroke-linejoin="round"/>
<path d="M428.7 182.176L382.5 175.476L382.1 171.176L406.2 83.6761L458.5 89.6761L459.6 94.3762L443.5 152.376" stroke="#000631" stroke-width="1.6" stroke-linecap="round" stroke-linejoin="round"/>
<path d="M458.5 89.6761L441.1 150.976" stroke="#000631" stroke-width="1.1" stroke-linecap="round" stroke-linejoin="round"/>
<path d="M382.1 171.176L429.5 177.876" stroke="#000631" stroke-width="1.1" stroke-linecap="round" stroke-linejoin="round"/>
<path d="M405.5 85.9761L420.3 87.5761L421.5 89.6761L439.9 91.4761L442.3 89.6761L456.9 91.4761" stroke="#000631" stroke-width="1.1" stroke-linecap="round" stroke-linejoin="round"/>
<path d="M382.8 168.676L429.7 175.476" stroke="#000631" stroke-width="1.1" stroke-linecap="round" stroke-linejoin="round"/>
<path d="M253.3 426.776C253.3 426.776 247 402.976 245 396.976" stroke="#000631" stroke-width="1.6" stroke-linecap="round" stroke-linejoin="round"/>
</svg>
