<svg width="284" height="331" viewBox="0 0 284 331" fill="none" xmlns="http://www.w3.org/2000/svg">
<path d="M217.9 244.766C217.9 258.066 207.1 268.866 193.8 268.866C180.5 268.866 169.7 258.066 169.7 244.766C169.7 231.466 180.5 220.666 193.8 220.666C207.1 220.666 217.9 231.466 217.9 244.766Z" fill="white"/>
<path d="M82.9001 53.7662C81.5668 53.7662 80.3667 53.5995 79.3001 53.2662C78.1667 52.8662 77.2001 52.2995 76.4001 51.5662C75.6001 50.8329 74.9667 49.9329 74.5001 48.8662C74.0334 47.8662 73.7667 46.7329 73.7001 45.4662C73.6334 44.2662 73.8001 43.1329 74.2001 42.0662C74.6001 40.9995 75.1668 40.0662 75.9001 39.2662C76.6334 38.4662 77.5334 37.8329 78.6 37.3662C79.6667 36.8995 80.8667 36.6329 82.2001 36.5662C83.3334 36.5662 84.3334 36.6329 85.2001 36.7662C86.0001 36.8995 86.7334 37.0995 87.4001 37.3662L87.5001 40.7662L87.3001 40.8662C86.7001 40.5329 86.0668 40.2995 85.4001 40.1662C84.6668 39.9662 83.8667 39.8995 83.0001 39.9662C82.1334 39.9662 81.3667 40.1329 80.7001 40.4662C79.9667 40.7329 79.3668 41.0995 78.9001 41.5662C78.5001 42.0995 78.1668 42.6662 77.9001 43.2662C77.7001 43.9329 77.6 44.6329 77.6 45.3662C77.6667 46.0995 77.8334 46.7662 78.1 47.3662C78.3667 48.0329 78.7334 48.5662 79.2001 48.9662C79.7334 49.4329 80.3334 49.7662 81.0001 49.9662C81.7334 50.2329 82.5334 50.3662 83.4001 50.3662C84.2668 50.2995 85.0667 50.1662 85.8001 49.9662C86.4667 49.6995 87.0667 49.3995 87.6 49.0662H87.8001L88.0001 52.4662C87.4001 52.7995 86.7001 53.0995 85.9001 53.3662C85.0334 53.5662 84.0334 53.6995 82.9001 53.7662Z" fill="black"/>
<path d="M91.7001 36.5662L102.2 36.1662L102.3 38.9662L95.5001 39.2662L95.7001 43.2662L101.7 42.9662L101.8 45.6662L95.8 45.9662L96.0001 49.9662L102.7 49.6662L102.8 52.5662L92.4001 52.9662L91.7001 36.5662Z" fill="black"/>
<path fill-rule="evenodd" clip-rule="evenodd" d="M120.6 51.8662L116.4 51.9662L112.8 46.0662L110.8 46.1662L111 52.2662L107.4 52.3662L106.7 35.9662L113.2 35.6662C115.2 35.5995 116.733 35.9995 117.8 36.8662C118.8 37.7329 119.333 38.9995 119.4 40.6662C119.467 41.7329 119.2 42.6995 118.6 43.5662C118 44.3662 117.267 44.9329 116.4 45.2662L120.6 51.8662ZM113.3 43.2662C114.033 43.2662 114.633 43.0329 115.1 42.5662C115.5 42.1662 115.7 41.6329 115.7 40.9662C115.7 40.2329 115.433 39.6995 114.9 39.3662C114.433 39.0329 113.833 38.8662 113.1 38.8662L110.4 38.9662L110.6 43.3662L113.3 43.2662Z" fill="black"/>
<path d="M126.9 38.6662L122.3 38.7662L122.2 35.3662L135 34.7662L135.2 38.2662L130.6 38.4662L131.2 51.3662L127.4 51.5662L126.9 38.6662Z" fill="black"/>
<path d="M138.9 34.6662L142.6 34.4662L143.3 50.9662L139.5 51.0662L138.9 34.6662Z" fill="black"/>
<path fill-rule="evenodd" clip-rule="evenodd" d="M147.8 34.2662L153.9 34.0662C155.167 33.9995 156.333 34.1329 157.4 34.4662C158.467 34.8662 159.4 35.3995 160.2 36.0662C161 36.7995 161.633 37.6662 162.1 38.6662C162.567 39.6662 162.833 40.7329 162.9 41.8662C162.967 43.0662 162.8 44.1995 162.4 45.2662C162 46.2662 161.433 47.1329 160.7 47.8662C159.967 48.5995 159.067 49.1995 158 49.6662C157 50.1329 155.867 50.3995 154.6 50.4662L148.5 50.6662L147.8 34.2662ZM154.4 46.9662C155.133 46.9662 155.767 46.8329 156.3 46.5662C156.9 46.2995 157.367 45.9662 157.7 45.5662C158.1 45.0995 158.433 44.5662 158.7 43.9662C158.9 43.4329 158.967 42.7995 158.9 42.0662C158.9 41.3995 158.767 40.7995 158.5 40.2662C158.233 39.6662 157.9 39.1662 157.5 38.7662C157.1 38.3662 156.6 38.0662 156 37.8662C155.4 37.6662 154.767 37.5662 154.1 37.5662L151.6 37.6662L152 47.0662L154.4 46.9662Z" fill="black"/>
<path fill-rule="evenodd" clip-rule="evenodd" d="M176.9 47.3662L169.7 47.6662L168.9 49.8662L165 50.0662L171.8 33.3662L173.6 33.2662L181.8 49.3662L177.9 49.4662L176.9 47.3662ZM170.6 30.1662C170.2 30.1662 169.967 30.2662 169.9 30.4662C169.767 30.7329 169.7 31.0329 169.7 31.3662L167.5 31.4662C167.433 30.2662 167.667 29.3329 168.2 28.6662C168.8 27.9995 169.567 27.6329 170.5 27.5662C170.9 27.5662 171.267 27.6329 171.6 27.7662C171.933 27.8995 172.267 28.0329 172.6 28.1662C172.933 28.3662 173.233 28.5329 173.5 28.6662C173.767 28.7995 174.067 28.8329 174.4 28.7662C174.8 28.7662 175.067 28.6662 175.2 28.4662C175.267 28.2662 175.333 27.9662 175.4 27.5662L177.6 27.4662C177.667 28.6662 177.467 29.5995 177 30.2662C176.467 30.9995 175.667 31.3662 174.6 31.3662C174.133 31.3662 173.733 31.3329 173.4 31.2662C173.067 31.1329 172.733 30.9662 172.4 30.7662C172.133 30.5662 171.833 30.3995 171.5 30.2662C171.233 30.1995 170.933 30.1662 170.6 30.1662ZM175.6 44.7662L173.1 39.4662H172.9L170.8 44.9662L175.6 44.7662Z" fill="black"/>
<path fill-rule="evenodd" clip-rule="evenodd" d="M192.4 49.2662C191.133 49.3329 189.967 49.1662 188.9 48.7662C187.767 48.3662 186.8 47.7995 186 47.0662C185.2 46.3329 184.533 45.4662 184 44.4662C183.533 43.3995 183.267 42.2329 183.2 40.9662C183.2 39.7662 183.4 38.6329 183.8 37.5662C184.2 36.4995 184.767 35.5662 185.5 34.7662C186.233 33.9662 187.133 33.3329 188.2 32.8662C189.267 32.3995 190.467 32.1662 191.8 32.1662C193.067 32.0995 194.233 32.2662 195.3 32.6662C196.433 32.9995 197.4 33.5329 198.2 34.2662C199 34.9995 199.633 35.8662 200.1 36.8662C200.633 37.9329 200.9 39.0662 200.9 40.2662C200.967 41.5329 200.8 42.6995 200.4 43.7662C200 44.8329 199.433 45.7662 198.7 46.5662C197.9 47.3662 197 47.9995 196 48.4662C194.933 48.9329 193.733 49.1995 192.4 49.2662ZM192.3 45.8662C193.033 45.8662 193.7 45.6995 194.3 45.3662C194.833 45.0995 195.333 44.7329 195.8 44.2662C196.2 43.7329 196.5 43.1662 196.7 42.5662C196.967 41.8995 197.067 41.1995 197 40.4662C197 39.7329 196.867 39.0662 196.6 38.4662C196.333 37.8662 195.967 37.3329 195.5 36.8662C195.033 36.3995 194.5 36.0662 193.9 35.8662C193.3 35.5995 192.633 35.4995 191.9 35.5662C191.167 35.5662 190.5 35.6995 189.9 35.9662C189.3 36.2995 188.8 36.6995 188.4 37.1662C188 37.6329 187.667 38.1662 187.4 38.7662C187.2 39.4329 187.133 40.1329 187.2 40.8662C187.2 41.5995 187.333 42.2662 187.6 42.8662C187.867 43.5329 188.233 44.0995 188.7 44.5662C189.167 44.9662 189.7 45.2995 190.3 45.5662C190.9 45.8329 191.567 45.9329 192.3 45.8662Z" fill="black"/>
<path fill-rule="evenodd" clip-rule="evenodd" d="M212.2 31.6662L218.3 31.3662C219.567 31.3662 220.733 31.5329 221.8 31.8662C222.867 32.2662 223.8 32.7995 224.6 33.4662C225.4 34.1995 226.033 35.0329 226.5 35.9662C226.967 36.9662 227.233 38.0662 227.3 39.2662C227.367 40.4662 227.2 41.5662 226.8 42.5662C226.4 43.6329 225.833 44.5329 225.1 45.2662C224.367 45.9995 223.467 46.5995 222.4 47.0662C221.4 47.5329 220.267 47.7995 219 47.8662L212.9 48.0662L212.2 31.6662ZM218.8 44.3662C219.533 44.3662 220.167 44.2329 220.7 43.9662C221.3 43.6995 221.8 43.3662 222.2 42.9662C222.6 42.4995 222.9 41.9662 223.1 41.3662C223.3 40.7662 223.367 40.1329 223.3 39.4662C223.3 38.7995 223.167 38.1662 222.9 37.5662C222.7 37.0329 222.367 36.5662 221.9 36.1662C221.5 35.7662 221 35.4662 220.4 35.2662C219.8 34.9995 219.167 34.8995 218.5 34.9662L216.1 35.0662L216.4 44.4662L218.8 44.3662Z" fill="black"/>
<path d="M231.3 30.8662L241.8 30.4662L241.9 33.3662L235.2 33.5662L235.3 37.5662L241.4 37.3662L241.5 40.0662L235.5 40.2662L235.6 44.2662L242.4 44.0662L242.5 46.8662L232 47.2662L231.3 30.8662Z" fill="black"/>
<path d="M85.7001 75.4662L85.3001 65.4662L89.0001 65.3662L89.7001 81.7662L87.8001 81.8662L78.8001 72.5662H78.6001L79.0001 82.1662L75.3001 82.3662L74.6001 65.8662H76.5001L85.5001 75.4662H85.7001Z" fill="black"/>
<path fill-rule="evenodd" clip-rule="evenodd" d="M105 78.9662L97.9001 79.2662L97.0001 81.4662L93.1 81.6662L100 64.8662H101.8L110 80.9662L106.1 81.0662L105 78.9662ZM103.7 76.3662L101.2 70.9662H101L98.8 76.5662L103.7 76.3662Z" fill="black"/>
<path d="M118.1 80.9662C117.7 80.9662 117.233 80.9662 116.7 80.9662C116.167 80.8995 115.667 80.8328 115.2 80.7662C114.733 80.6995 114.267 80.5995 113.8 80.4662C113.267 80.3328 112.833 80.1662 112.5 79.9662L112.4 76.5662H112.6C112.933 76.6995 113.3 76.8328 113.7 76.9662C114.167 77.1662 114.633 77.2995 115.1 77.3662C115.567 77.4995 116.033 77.5995 116.5 77.6662C117.033 77.6662 117.533 77.6662 118 77.6662C118.333 77.6662 118.7 77.6328 119.1 77.5662C119.433 77.4995 119.733 77.3995 120 77.2662C120.267 77.0662 120.467 76.8662 120.6 76.6662C120.733 76.4662 120.8 76.1995 120.8 75.8662C120.8 75.3995 120.667 75.0662 120.4 74.8662C120.2 74.6662 119.9 74.4995 119.5 74.3662C119.167 74.2328 118.733 74.0995 118.2 73.9662C117.667 73.8995 117.1 73.7662 116.5 73.5662C115.9 73.4328 115.367 73.2328 114.9 72.9662C114.367 72.6995 113.9 72.3995 113.5 72.0662C113.1 71.7328 112.767 71.3328 112.5 70.8662C112.3 70.3328 112.167 69.7662 112.1 69.1662C112.1 68.2328 112.233 67.4328 112.5 66.7662C112.833 66.0995 113.3 65.5662 113.9 65.1662C114.5 64.6995 115.2 64.3662 116 64.1662C116.867 63.9662 117.8 63.8328 118.8 63.7662C119.133 63.7662 119.5 63.7662 119.9 63.7662C120.3 63.7662 120.7 63.7995 121.1 63.8662C121.5 63.9328 121.9 64.0328 122.3 64.1662C122.7 64.2328 123.067 64.3328 123.4 64.4662L123.5 67.9662H123.2C122.933 67.7662 122.6 67.6328 122.2 67.5662C121.8 67.4328 121.4 67.3328 121 67.2662C120.533 67.1328 120.1 67.0662 119.7 67.0662C119.233 66.9995 118.833 66.9662 118.5 66.9662C117.767 67.0328 117.167 67.1995 116.7 67.4662C116.3 67.6662 116.1 68.0995 116.1 68.7662C116.1 69.0995 116.2 69.3662 116.4 69.5662C116.6 69.8328 116.867 70.0328 117.2 70.1662C117.467 70.2995 117.767 70.3995 118.1 70.4662C118.5 70.5328 118.867 70.5995 119.2 70.6662C119.933 70.7995 120.633 70.9995 121.3 71.2662C121.967 71.4662 122.567 71.7662 123.1 72.1662C123.567 72.4995 123.967 72.9328 124.3 73.4662C124.633 73.9995 124.8 74.6328 124.8 75.3662C124.867 76.3662 124.733 77.1995 124.4 77.8662C124.133 78.5328 123.7 79.0995 123.1 79.5662C122.5 80.0328 121.767 80.3662 120.9 80.5662C120.1 80.8328 119.167 80.9662 118.1 80.9662Z" fill="black"/>
<path d="M137.3 80.1662C136.033 80.2328 134.833 80.0662 133.7 79.6662C132.633 79.2662 131.7 78.6995 130.9 77.9662C130.1 77.2328 129.433 76.3662 128.9 75.3662C128.433 74.3662 128.167 73.2328 128.1 71.9662C128.1 70.6995 128.3 69.5328 128.7 68.4662C129.1 67.3995 129.667 66.4662 130.4 65.6662C131.133 64.8662 132.033 64.2328 133.1 63.7662C134.167 63.3662 135.333 63.1328 136.6 63.0662C137.8 62.9995 138.8 63.0328 139.6 63.1662C140.467 63.2995 141.2 63.5328 141.8 63.8662L142 67.2662H141.7C141.167 66.9995 140.533 66.7662 139.8 66.5662C139.133 66.4328 138.333 66.3662 137.4 66.3662C136.533 66.4328 135.767 66.5995 135.1 66.8662C134.433 67.1995 133.867 67.5995 133.4 68.0662C132.933 68.5328 132.6 69.0995 132.4 69.7662C132.133 70.3662 132.033 71.0328 132.1 71.7662C132.1 72.4995 132.233 73.1995 132.5 73.8662C132.833 74.4662 133.233 74.9995 133.7 75.4662C134.167 75.8662 134.767 76.1995 135.5 76.4662C136.233 76.7328 137 76.8328 137.8 76.7662C138.733 76.6995 139.533 76.5662 140.2 76.3662C140.933 76.1662 141.567 75.8995 142.1 75.5662L142.3 75.4662L142.4 78.9662C141.8 79.2995 141.1 79.5662 140.3 79.7662C139.5 79.9662 138.5 80.0995 137.3 80.1662Z" fill="black"/>
<path d="M146.1 62.9662L149.9 62.8662L150.6 79.2662L146.8 79.4662L146.1 62.9662Z" fill="black"/>
<path d="M156.9 62.5662L164.1 71.4662H164.3L170.7 61.9662H172.5L173.2 78.3662L169.6 78.4662L169.3 69.6662H169.1L164.5 76.2662H164.2L159.2 70.0662H159L159.3 78.9662L155.8 79.0662L155.1 62.6662L156.9 62.5662Z" fill="black"/>
<path d="M177.7 61.7662L188.2 61.2662L188.3 64.1662L181.6 64.4662L181.7 68.4662L187.7 68.1662L187.9 70.8662L181.8 71.0662L182 75.1662L188.8 74.8662L188.9 77.7662L178.4 78.1662L177.7 61.7662Z" fill="black"/>
<path d="M203.8 70.6662L203.4 60.6662L207.1 60.5662L207.7 76.9662L205.9 77.0662L196.9 67.7662H196.7L197.1 77.3662L193.4 77.5662L192.7 61.0662H194.6L203.6 70.6662H203.8Z" fill="black"/>
<path d="M215.6 63.6662L211 63.8662L210.9 60.3662L223.7 59.8662L223.9 63.3662L219.3 63.5662L219.9 76.4662L216.1 76.6662L215.6 63.6662Z" fill="black"/>
<path fill-rule="evenodd" clip-rule="evenodd" d="M235.7 76.1662C234.367 76.2329 233.167 76.0662 232.1 75.6662C230.967 75.2662 230 74.6995 229.2 73.9662C228.4 73.2329 227.733 72.3662 227.2 71.3662C226.733 70.2995 226.467 69.1329 226.4 67.8662C226.4 66.6662 226.6 65.5329 227 64.4662C227.4 63.3995 227.967 62.4662 228.7 61.6662C229.433 60.8662 230.333 60.2662 231.4 59.8662C232.467 59.3995 233.667 59.1329 235 59.0662C236.267 58.9995 237.433 59.1662 238.5 59.5662C239.633 59.8995 240.6 60.4329 241.4 61.1662C242.2 61.8995 242.833 62.7662 243.3 63.7662C243.833 64.8329 244.1 65.9662 244.1 67.1662C244.167 68.4329 244 69.5995 243.6 70.6662C243.2 71.7329 242.633 72.6662 241.9 73.4662C241.1 74.2662 240.2 74.8995 239.2 75.3662C238.133 75.8329 236.967 76.0995 235.7 76.1662ZM235.5 72.7662C236.233 72.7662 236.9 72.5995 237.5 72.2662C238.033 71.9995 238.533 71.6329 239 71.1662C239.4 70.6329 239.7 70.0662 239.9 69.4662C240.167 68.7995 240.267 68.0995 240.2 67.3662C240.2 66.6329 240.067 65.9662 239.8 65.3662C239.533 64.7662 239.167 64.2329 238.7 63.7662C238.233 63.2995 237.7 62.9662 237.1 62.7662C236.5 62.4995 235.833 62.3995 235.1 62.4662C234.367 62.4662 233.7 62.5995 233.1 62.8662C232.5 63.1995 232 63.5995 231.6 64.0662C231.2 64.5329 230.9 65.0662 230.7 65.6662C230.433 66.3329 230.333 67.0329 230.4 67.7662C230.4 68.4995 230.533 69.1662 230.8 69.7662C231.067 70.4329 231.433 70.9995 231.9 71.4662C232.367 71.8662 232.9 72.1995 233.5 72.4662C234.1 72.7329 234.767 72.8329 235.5 72.7662Z" fill="black"/>
<path d="M67.4 16.4662C67.4 16.4662 127.3 14.4662 191 4.76619C254.6 -4.93381 282.3 7.16619 282.3 7.16619C282.3 7.16619 261 35.5662 258.1 99.1662C255.3 162.866 255 270.666 221.1 321.766C221.1 321.766 168.6 321.866 115.7 324.166C62.9 326.566 27.8 334.366 1 323.066C1 323.066 30.2 275.566 34.3 199.366C38.9 116.766 46.6 35.6662 67.4 16.4662Z" stroke="#000631" stroke-width="2" stroke-linecap="round" stroke-linejoin="round"/>
<path d="M60.4 108.766C60.4 108.766 197.2 99.8662 236.8 100.066" stroke="#000631" stroke-width="2" stroke-linecap="round" stroke-linejoin="round"/>
<path d="M58.6 140.366C58.6 140.366 176.8 132.966 228.8 132.466" stroke="#000631" stroke-width="2" stroke-linecap="round" stroke-linejoin="round"/>
<path d="M56.9 172.066C56.9 172.066 196.7 164.866 231.1 167.066" stroke="#000631" stroke-width="2" stroke-linecap="round" stroke-linejoin="round"/>
<path d="M55.3 201.566C55.3 201.566 187.2 193.966 229.5 199.266" stroke="#000631" stroke-width="2" stroke-linecap="round" stroke-linejoin="round"/>
<path d="M53.5 233.666C53.5 233.666 116.6 229.266 152.5 229.366" stroke="#000631" stroke-width="2" stroke-linecap="round" stroke-linejoin="round"/>
<path d="M51.7 266.566L137.4 264.066" stroke="#000631" stroke-width="2" stroke-linecap="round" stroke-linejoin="round"/>
<path d="M41.3 300.266L130.4 295.666" stroke="#000631" stroke-width="2" stroke-linecap="round" stroke-linejoin="round"/>
<path d="M198.6 213.566C215.7 216.166 227.6 232.166 225.1 249.366C222.5 266.666 206.5 278.666 189.2 276.066C171.9 273.566 159.9 257.466 162.5 240.166C165 222.966 181.1 210.966 198.3 213.466" stroke="#000631" stroke-width="1.6" stroke-linecap="round" stroke-linejoin="round"/>
<path d="M197.5 220.666C210.7 222.766 219.8 235.066 217.9 248.366C215.9 261.666 203.6 270.866 190.2 268.866C176.9 266.966 167.7 254.566 169.7 241.266C171.6 227.966 184 218.766 197.3 220.666" stroke="#000631" stroke-width="1.2" stroke-linecap="round" stroke-linejoin="round"/>
<path d="M174.7 269.966L160.4 297.166L173.9 294.466L178.4 307.166L193.9 276.366" stroke="#000631" stroke-width="1.6" stroke-linecap="round" stroke-linejoin="round"/>
<path d="M204.9 274.466L210.7 304.566L198.6 298.066L190.7 308.966L187.2 289.566" stroke="#000631" stroke-width="1.6" stroke-linecap="round" stroke-linejoin="round"/>
</svg>
