<svg width="218" height="542" viewBox="0 0 218 542" fill="none" xmlns="http://www.w3.org/2000/svg">
<path d="M154.325 194.144L165.425 237.244L183.925 204.044L192.425 190.444C192.425 190.444 186.625 186.744 176.525 187.044C166.525 187.244 160.625 189.844 158.525 190.644C156.425 191.444 154.325 194.144 154.325 194.144Z" fill="#FFF8E6"/>
<path d="M8.32495 192.444C8.32495 192.344 8.52496 192.544 8.52496 192.544C8.52496 192.544 20.625 190.644 31.225 191.344C41.825 192.044 45.9249 195.644 45.9249 195.644L51.1249 243.844L28.9249 223.444L13.4249 210.544C13.4249 210.544 9.22495 204.044 8.32495 192.444Z" fill="#FFF8E6"/>
<path d="M52.4249 304.444C52.4249 304.444 62.9249 367.544 65.0249 372.244C65.0249 372.244 75.6249 362.444 78.3249 361.744C80.9249 361.144 82.0249 361.544 84.1249 361.844C86.2249 362.144 101.525 368.844 101.525 368.844C101.525 368.844 100.025 365.744 98.1249 341.744C96.2249 317.744 94.8249 303.544 94.8249 303.544L52.4249 304.444Z" fill="#FFF8E6"/>
<path d="M97.825 278.144C97.825 278.144 111.325 274.144 114.125 275.044C116.825 276.044 117.625 277.844 118.025 279.044C118.425 280.244 129.925 335.544 129.925 335.544C129.925 335.544 136.725 369.044 139.525 372.744C139.525 372.744 152.825 355.844 155.425 354.244C158.025 352.644 177.125 358.744 177.125 358.744L174.125 337.844L167.025 292.444L131.125 299.244C131.125 299.244 124.325 262.044 116.625 249.444C108.925 236.944 100.125 246.544 99.225 254.444C98.325 262.244 96.225 276.544 97.825 278.144Z" fill="#FFF8E6"/>
<path d="M79.725 63.3436L82.625 66.0436L85.625 79.9436C85.625 79.9436 82.125 76.7437 81.525 75.7437C80.925 74.6437 79.725 63.3436 79.725 63.3436Z" fill="#000631"/>
<path d="M126.025 61.7437L123.225 64.6436L120.625 77.8436C120.625 77.8436 123.525 75.0436 124.125 73.5436C124.725 72.0436 126.025 61.7437 126.025 61.7437Z" fill="#000631"/>
<path d="M110.325 51.7436C110.125 51.9436 111.325 53.1435 112.225 53.6435C113.125 54.0435 114.325 52.7435 114.225 52.1435C114.225 51.4435 111.725 50.4436 110.325 51.7436Z" fill="#000631"/>
<path d="M91.6249 51.5436C91.6249 51.5436 90.825 53.1436 93.225 53.6436C95.725 54.0436 96.2249 51.4436 95.1249 51.1436C94.1249 50.9436 91.6249 51.5436 91.6249 51.5436Z" fill="#000631"/>
<path d="M79.7249 49.9436C79.7249 49.9436 89.3249 42.5436 93.6249 39.8436C97.8249 37.1436 101.825 35.8437 103.825 35.7437C105.725 35.5437 124.425 46.9436 126.725 51.3436V47.9436C126.725 47.9436 110.325 34.1437 106.725 32.7437C103.125 31.3437 99.9249 32.1436 93.6249 37.0436C87.2249 41.9436 79.325 48.4436 79.325 48.4436L79.7249 49.9436Z" fill="#000631"/>
<path d="M52.9249 148.144L44.9249 175.144L49.7249 182.544C49.7249 182.544 51.7249 168.744 53.3249 162.944C55.0249 157.144 55.0249 157.144 55.0249 157.144C55.0249 157.144 53.5249 150.744 52.9249 148.144Z" fill="#000631"/>
<path d="M147.425 170.044L149.025 175.744L156.225 169.844L151.725 146.944L147.425 170.044Z" fill="#000631"/>
<path d="M155.225 196.744L154.725 192.744C154.725 192.744 161.725 188.344 169.725 186.944C177.625 185.644 187.425 187.744 189.925 189.044C192.425 190.444 192.425 190.444 192.425 190.444L189.925 193.844C189.925 193.844 182.325 189.844 171.225 191.444C163.425 192.644 155.225 196.744 155.225 196.744Z" fill="#000631"/>
<path d="M8.5249 192.544C8.5249 192.544 24.3249 191.144 31.2249 191.344C38.1249 191.444 45.9249 195.644 45.9249 195.644L46.2249 198.344C46.2249 198.344 37.2249 194.444 27.3249 194.844C17.5249 195.144 8.9249 196.744 8.9249 196.744L8.5249 192.544Z" fill="#000631"/>
<path d="M28.9249 270.944C28.9249 270.944 40.0249 259.044 49.6249 255.944L52.4249 256.944C52.4249 256.944 31.9249 269.244 29.7249 275.044L28.9249 270.944Z" fill="#000631"/>
<path d="M171.025 258.044C171.025 258.044 184.325 257.344 189.925 260.344L191.325 262.844C191.325 262.844 180.625 258.944 169.325 260.344L171.025 258.044Z" fill="#000631"/>
<path d="M97.825 278.144L102.125 276.944C102.125 276.944 100.625 263.344 102.125 253.544C103.625 243.844 113.025 245.144 113.025 245.144C113.025 245.144 106.425 240.244 101.825 247.344C97.325 254.344 96.225 275.544 97.825 278.144Z" fill="#000631"/>
<path d="M52.9249 308.044L52.4249 304.444L94.8249 303.544L95.3249 309.144C95.3249 309.144 90.4249 307.044 74.5249 306.344C58.7249 305.644 52.9249 308.044 52.9249 308.044Z" fill="#000631"/>
<path d="M133.025 298.944L133.825 300.944C133.825 300.944 161.625 295.344 168.025 298.944L167.025 292.444L133.025 298.944Z" fill="#000631"/>
<path d="M72.3249 99.4436C72.3249 99.4436 70.7249 101.644 71.3249 102.144C71.9249 102.744 98.2249 112.744 103.525 113.044C108.925 113.244 134.125 98.0436 135.325 96.4436C136.425 94.7436 135.225 94.2437 135.225 94.2437L132.825 95.9436C132.825 95.9436 126.525 99.2436 120.625 102.844C114.725 106.444 103.025 110.444 103.025 110.444L72.3249 99.4436Z" fill="#000631"/>
<path d="M70.725 405.244C70.725 405.244 89.925 414.444 93.625 415.044C93.625 415.044 96.725 412.644 98.525 410.144C100.425 407.644 104.125 401.244 104.125 401.244L105.125 405.944C105.125 405.944 97.825 416.044 94.125 418.144C90.425 420.344 70.725 408.644 70.725 408.644V405.244Z" fill="#000631"/>
<path d="M150.825 407.144C150.825 407.144 168.425 411.944 170.625 411.844C172.825 411.844 174.525 411.444 177.125 407.144C179.725 402.844 183.125 395.644 183.125 395.644L184.325 401.244C184.325 401.244 178.625 411.844 174.425 414.444C170.225 417.144 150.825 409.844 150.825 409.844V407.144Z" fill="#000631"/>
<path d="M85.925 487.244C85.425 485.844 94.625 492.144 97.825 491.644C101.025 491.144 104.125 487.644 104.125 487.644V491.744C104.125 491.744 100.825 493.344 99.325 494.344C97.825 495.344 87.225 490.644 85.925 487.244Z" fill="#000631"/>
<path d="M169.725 501.444C169.725 501.444 180.325 487.344 181.325 486.344C182.325 485.344 184.125 483.744 185.125 484.244C186.025 484.744 196.525 491.944 196.525 491.944L194.825 487.644C194.825 487.644 187.125 481.044 183.125 481.544C179.225 482.144 175.125 488.244 173.525 490.744C171.825 493.244 169.725 498.444 169.725 498.444V501.444Z" fill="#000631"/>
<path d="M104.325 30.7437L104.525 22.4436" stroke="#000631" stroke-linecap="round" stroke-linejoin="round"/>
<path d="M108.425 11.7437C108.425 11.7437 127.425 23.7437 130.025 30.7437C132.725 37.7437 132.825 45.2437 132.825 45.2437" stroke="#000631" stroke-width="1.3" stroke-linecap="round" stroke-linejoin="round"/>
<path d="M107.025 22.4436C107.025 22.4436 108.025 11.7436 105.025 6.74363C102.025 1.74363 97.325 -0.556405 93.625 2.14359C89.925 4.94359 86.225 16.3436 86.225 16.3436" stroke="#000631" stroke-width="1.3" stroke-linecap="round" stroke-linejoin="round"/>
<path d="M120.425 77.4436C122.525 74.2436 124.725 51.4436 124.725 51.4436" stroke="#000631" stroke-width="1.3" stroke-linecap="round" stroke-linejoin="round"/>
<path d="M82.525 46.1437C82.525 46.1437 82.125 51.7437 81.525 54.9437C81.025 58.1437 84.125 76.2437 85.625 79.9437" stroke="#000631" stroke-width="1.3" stroke-linecap="round" stroke-linejoin="round"/>
<path d="M118.925 44.3437C118.825 44.1437 124.625 51.5437 124.625 51.5437" stroke="#000631" stroke-linecap="round" stroke-linejoin="round"/>
<path d="M89.425 71.0437L89.5251 76.0437" stroke="#000631" stroke-width="0.7" stroke-linecap="round" stroke-linejoin="round"/>
<path d="M90.025 78.7437C90.025 78.7437 89.825 81.0436 90.725 82.8436" stroke="#000631" stroke-width="0.7" stroke-linecap="round" stroke-linejoin="round"/>
<path d="M95.325 78.7437C95.325 79.2437 95.4249 82.3436 95.9249 85.0436" stroke="#000631" stroke-width="0.7" stroke-linecap="round" stroke-linejoin="round"/>
<path d="M99.125 80.3438C99.125 80.3438 98.125 83.6438 99.125 85.0438" stroke="#000631" stroke-width="0.7" stroke-linecap="round" stroke-linejoin="round"/>
<path d="M103.225 81.3438C103.225 81.3438 102.825 85.0438 103.325 86.0438" stroke="#000631" stroke-width="0.7" stroke-linecap="round" stroke-linejoin="round"/>
<path d="M106.425 82.1437C106.425 82.1437 107.025 86.0437 107.025 86.5437" stroke="#000631" stroke-width="0.7" stroke-linecap="round" stroke-linejoin="round"/>
<path d="M109.725 81.3438C109.725 81.3438 110.725 83.4438 110.225 86.5438" stroke="#000631" stroke-width="0.7" stroke-linecap="round" stroke-linejoin="round"/>
<path d="M111.425 79.9436C111.425 79.9436 112.225 83.4436 112.225 84.5436" stroke="#000631" stroke-width="0.7" stroke-linecap="round" stroke-linejoin="round"/>
<path d="M103.025 76.0437L103.225 77.8437" stroke="#000631" stroke-width="0.7" stroke-linecap="round" stroke-linejoin="round"/>
<path d="M104.625 76.0437C104.825 76.6437 105.025 78.7437 105.025 78.7437" stroke="#000631" stroke-width="0.7" stroke-linecap="round" stroke-linejoin="round"/>
<path d="M105.725 76.9436V77.8436" stroke="#000631" stroke-width="0.7" stroke-linecap="round" stroke-linejoin="round"/>
<path d="M113.525 75.7437C113.525 75.7437 113.825 77.1437 113.525 78.7437" stroke="#000631" stroke-width="0.7" stroke-linecap="round" stroke-linejoin="round"/>
<path d="M114.625 67.9436C114.625 67.9436 115.725 73.9436 115.525 76.0436" stroke="#000631" stroke-width="0.7" stroke-linecap="round" stroke-linejoin="round"/>
<path d="M116.925 70.2437C116.925 70.2437 116.925 73.9436 116.925 76.0436" stroke="#000631" stroke-width="0.7" stroke-linecap="round" stroke-linejoin="round"/>
<path d="M87.725 73.5437C87.725 73.5437 87.825 77.4437 88.125 79.1437" stroke="#000631" stroke-width="0.7" stroke-linecap="round" stroke-linejoin="round"/>
<path d="M118.125 73.1437V76.3437" stroke="#000631" stroke-width="0.7" stroke-linecap="round" stroke-linejoin="round"/>
<path d="M90.425 68.7438C91.025 68.6438 97.1251 67.2437 98.5251 67.9437" stroke="#000631" stroke-width="0.7" stroke-linecap="round" stroke-linejoin="round"/>
<path d="M92.425 67.5437C92.425 67.5437 94.825 66.5437 96.125 67.0437" stroke="#000631" stroke-width="0.7" stroke-linecap="round" stroke-linejoin="round"/>
<path d="M109.925 66.9436C110.125 67.0436 113.225 66.2436 114.625 66.9436" stroke="#000631" stroke-width="0.7" stroke-linecap="round" stroke-linejoin="round"/>
<path d="M104.625 67.9436L107.725 67.7437C107.725 67.7437 109.525 67.8436 112.225 67.9436" stroke="#000631" stroke-width="0.7" stroke-linecap="round" stroke-linejoin="round"/>
<path d="M101.625 68.2437H100.225" stroke="#000631" stroke-width="0.7" stroke-linecap="round" stroke-linejoin="round"/>
<path d="M100.225 65.6436C100.225 65.6436 99.525 64.9436 100.025 64.9436C100.625 64.9436 101.625 66.0436 101.625 66.0436" stroke="#000631" stroke-width="0.7" stroke-linecap="round" stroke-linejoin="round"/>
<path d="M104.325 66.0437C104.325 66.0437 105.625 64.4437 105.725 64.9437" stroke="#000631" stroke-width="0.7" stroke-linecap="round" stroke-linejoin="round"/>
<path d="M106.925 65.5438C106.925 65.5438 107.425 63.9438 106.425 63.3438" stroke="#000631" stroke-width="0.7" stroke-linecap="round" stroke-linejoin="round"/>
<path d="M98.425 66.0436C98.425 66.0436 97.625 64.0437 98.525 63.7437" stroke="#000631" stroke-width="0.7" stroke-linecap="round" stroke-linejoin="round"/>
<path d="M101.625 61.8437C101.625 61.8437 102.825 61.3437 103.525 61.8437" stroke="#000631" stroke-width="0.7" stroke-linecap="round" stroke-linejoin="round"/>
<path d="M97.3251 52.3437C97.3251 52.3437 95.9251 50.9437 94.2251 51.0437C91.6251 51.2437 89.525 51.7437 88.425 53.3437" stroke="#000631" stroke-width="0.7" stroke-linecap="round" stroke-linejoin="round"/>
<path d="M88.825 53.3438C88.825 53.3438 91.5249 54.7438 94.5249 54.5438" stroke="#000631" stroke-width="0.7" stroke-linecap="round" stroke-linejoin="round"/>
<path d="M96.325 55.5437L97.325 54.5437" stroke="#000631" stroke-width="0.7" stroke-linecap="round" stroke-linejoin="round"/>
<path d="M107.825 53.9436L109.025 55.0436" stroke="#000631" stroke-width="0.7" stroke-linecap="round" stroke-linejoin="round"/>
<path d="M108.425 52.9437C108.425 52.9437 110.125 51.3437 112.225 51.3437C114.325 51.2437 115.725 52.8437 116.325 53.3437" stroke="#000631" stroke-width="0.7" stroke-linecap="round" stroke-linejoin="round"/>
<path d="M109.525 54.5437C109.525 54.5437 114.325 54.4437 115.925 54.1437" stroke="#000631" stroke-width="0.7" stroke-linecap="round" stroke-linejoin="round"/>
<path d="M97.325 48.3438C97.325 48.3438 99.6249 52.0438 99.6249 55.0438" stroke="#000631" stroke-width="0.7" stroke-linecap="round" stroke-linejoin="round"/>
<path d="M106.725 47.9436C106.725 47.9436 105.625 49.3436 105.725 50.5436" stroke="#000631" stroke-width="0.7" stroke-linecap="round" stroke-linejoin="round"/>
<path d="M107.825 47.4436C107.825 47.4436 111.225 48.9436 113.625 49.3436C115.525 49.5436 118.925 51.9436 118.925 51.9436" stroke="#000631" stroke-width="1.1" stroke-linecap="round" stroke-linejoin="round"/>
<path d="M96.125 47.4436C95.625 47.4436 92.525 49.3436 90.925 49.8436C89.425 50.3436 86.225 52.5436 86.225 52.5436" stroke="#000631" stroke-width="1.1" stroke-linecap="round" stroke-linejoin="round"/>
<path d="M91.6249 51.5437C91.6249 51.5437 91.2249 53.3437 93.2249 53.6437C95.3249 53.8437 96.1249 51.6437 95.1249 51.1437" stroke="#000631" stroke-width="0.7" stroke-linecap="round" stroke-linejoin="round"/>
<path d="M110.325 51.7437C110.325 51.7437 110.625 53.3436 112.225 53.6436C113.825 53.8436 114.525 52.2437 114.125 51.7437" stroke="#000631" stroke-width="0.7" stroke-linecap="round" stroke-linejoin="round"/>
<path d="M97.525 73.3437C97.525 73.3437 98.225 71.2437 101.325 71.0437C104.425 70.7437 108.625 70.7437 109.725 73.3437C109.725 73.3437 102.325 72.3437 97.525 73.3437Z" stroke="#000631" stroke-width="0.7" stroke-linecap="round" stroke-linejoin="round"/>
<path d="M79.325 49.3438C79.325 49.3438 79.4249 72.0438 81.5249 75.7438C83.5249 79.4438 97.3249 87.7437 105.725 87.8438C105.725 87.8438 120.825 79.0438 123.525 74.7438C126.325 70.4438 126.525 50.3438 126.925 49.3438" stroke="#000631" stroke-width="1.3" stroke-linecap="round" stroke-linejoin="round"/>
<path d="M127.025 62.3437C127.025 62.3437 130.625 55.1437 130.625 54.0437C130.625 50.4437 108.925 31.3437 103.325 31.7437C97.8249 32.1437 75.6249 50.9437 75.7249 52.3437C75.8249 53.7437 78.3249 60.3437 78.3249 60.3437C78.3249 60.3437 73.0249 59.3437 72.4249 57.7437C71.9249 56.1437 73.0249 47.7437 74.0249 44.5437C75.1249 41.4437 99.5249 23.0436 104.525 22.4436C109.425 21.8436 133.725 45.1437 134.825 47.7437C135.825 50.3437 134.825 60.3437 134.825 57.7437C134.825 57.6437 127.425 63.3437 127.425 63.3437" stroke="#000631" stroke-width="1.3" stroke-linecap="round" stroke-linejoin="round"/>
<path d="M74.5249 59.3438C74.5249 59.3438 78.1249 80.5438 77.9249 82.8438C77.7249 85.2438 70.325 97.9437 70.325 98.4437C70.325 99.0437 96.2249 108.544 102.025 109.544C107.825 110.644 130.025 97.9437 133.725 95.3438C133.725 95.3438 126.225 82.0437 127.025 79.9437C127.925 77.8437 131.125 61.4437 132.725 59.3438" stroke="#000631" stroke-width="1.3" stroke-linecap="round" stroke-linejoin="round"/>
<path d="M72.825 50.5437C72.825 50.5437 69.825 36.6437 72.325 30.7437C74.825 24.7437 88.825 14.3437 88.825 14.3437C88.825 14.3437 93.425 11.3437 96.725 12.9437C99.925 14.4437 104.725 22.3437 104.725 22.3437" stroke="#000631" stroke-width="1.3" stroke-linecap="round" stroke-linejoin="round"/>
<path d="M104.325 94.2437V108.244" stroke="#000631" stroke-linecap="round" stroke-linejoin="round"/>
<path d="M79.725 63.3438C79.725 63.3438 81.725 65.4438 82.625 66.0438" stroke="#000631" stroke-width="1.3" stroke-linecap="round" stroke-linejoin="round"/>
<path d="M81.925 52.2438C81.925 52.2438 80.225 50.9438 79.725 52.5438" stroke="#000631" stroke-width="1.3" stroke-linecap="round" stroke-linejoin="round"/>
<path d="M123.225 64.6437L125.325 62.0437" stroke="#000631" stroke-width="1.3" stroke-linecap="round" stroke-linejoin="round"/>
<path d="M132.425 92.9436C132.425 92.9436 149.125 101.144 150.125 102.144" stroke="#000631" stroke-width="1.3" stroke-linecap="round" stroke-linejoin="round"/>
<path d="M60.825 130.144C60.825 130.144 56.025 103.744 34.925 99.0437C34.925 99.0437 27.025 107.944 29.625 116.944" stroke="#000631" stroke-width="1.3" stroke-linecap="round" stroke-linejoin="round"/>
<path d="M15.425 162.944C15.425 162.944 16.8251 141.244 22.2251 127.544C27.2251 114.844 36.3251 114.144 35.3251 113.044C36.5251 114.344 45.525 114.844 56.625 128.044" stroke="#000631" stroke-width="1.3" stroke-linecap="round" stroke-linejoin="round"/>
<path d="M53.425 124.544C53.425 124.544 50.225 143.944 55.025 157.144C59.725 170.344 70.325 205.244 70.325 205.244" stroke="#000631" stroke-width="1.3" stroke-linecap="round" stroke-linejoin="round"/>
<path d="M73.025 206.844C73.025 206.844 95.725 208.944 103.625 210.544" stroke="#000631" stroke-width="1.3" stroke-linecap="round" stroke-linejoin="round"/>
<path d="M110.525 210.544C110.525 210.544 138.425 206.444 140.625 205.244" stroke="#000631" stroke-width="1.3" stroke-linecap="round" stroke-linejoin="round"/>
<path d="M140.625 202.544C140.625 202.544 150.125 158.744 151.225 149.244C152.225 139.644 151.225 125.944 151.225 125.944" stroke="#000631" stroke-width="1.3" stroke-linecap="round" stroke-linejoin="round"/>
<path d="M142.225 123.344C142.225 123.344 145.925 103.244 158.025 95.8438C158.025 95.8438 168.425 101.744 170.225 113.244" stroke="#000631" stroke-width="1.3" stroke-linecap="round" stroke-linejoin="round"/>
<path d="M146.125 125.944C146.125 125.944 152.425 110.744 163.725 109.644C163.725 109.644 172.825 111.644 178.425 123.344C183.925 134.944 183.425 156.044 183.925 158.744" stroke="#000631" stroke-width="1.3" stroke-linecap="round" stroke-linejoin="round"/>
<path d="M158.125 99.0437C158.125 99.0437 162.425 101.744 163.725 109.644" stroke="#000631" stroke-linecap="round" stroke-linejoin="round"/>
<path d="M34.725 101.244C34.725 101.244 33.325 105.844 34.925 111.144" stroke="#000631" stroke-linecap="round" stroke-linejoin="round"/>
<path d="M44.925 102.844L74.7251 90.0437" stroke="#000631" stroke-width="1.3" stroke-linecap="round" stroke-linejoin="round"/>
<path d="M81.925 84.5437C81.925 84.5437 90.325 90.2437 100.925 91.6437" stroke="#000631" stroke-linecap="round" stroke-linejoin="round"/>
<path d="M109.425 90.9437C109.425 90.9437 121.625 85.7438 124.225 82.8438" stroke="#000631" stroke-linecap="round" stroke-linejoin="round"/>
<path d="M102.025 117.544C102.525 118.044 101.025 168.244 105.225 205.244" stroke="#000631" stroke-linecap="round" stroke-linejoin="round"/>
<path d="M68.1249 198.144C68.1249 198.144 55.525 221.144 50.825 241.144" stroke="#000631" stroke-width="1.3" stroke-linecap="round" stroke-linejoin="round"/>
<path d="M141.325 199.244C141.325 199.244 166.525 254.344 169.725 291.344L131.125 299.244C131.125 299.244 122.725 248.844 111.525 244.344C95.725 237.944 96.725 271.844 97.325 303.544L49.725 304.544V299.444" stroke="#000631" stroke-width="1.3" stroke-linecap="round" stroke-linejoin="round"/>
<path d="M97.825 278.144C97.825 278.144 113.625 272.844 116.825 276.044C120.025 279.244 132.725 357.444 139.025 372.744" stroke="#000631" stroke-width="1.3" stroke-linecap="round" stroke-linejoin="round"/>
<path d="M167.025 292.444C167.025 292.444 176.525 353.744 177.125 357.444" stroke="#000631" stroke-width="1.3" stroke-linecap="round" stroke-linejoin="round"/>
<path d="M4.325 193.044C4.325 193.044 40.425 186.844 48.525 198.144L52.425 187.544C52.425 187.544 43.725 168.744 32.125 162.944C32.125 162.944 21.225 161.444 19.625 161.344C19.625 161.344 3.725 170.344 2.125 174.044C0.625 177.744 0.625 191.644 2.125 193.944C3.725 196.244 8.025 196.744 8.025 196.744" stroke="#000631" stroke-width="1.3" stroke-linecap="round" stroke-linejoin="round"/>
<path d="M55.025 157.144C55.025 157.144 48.625 178.344 49.725 182.544" stroke="#000631" stroke-width="1.3" stroke-linecap="round" stroke-linejoin="round"/>
<path d="M18.625 164.944C18.625 164.944 16.425 180.344 18.525 185.144" stroke="#000631" stroke-linecap="round" stroke-linejoin="round"/>
<path d="M31.2249 166.644C31.2249 166.644 28.0249 183.944 29.1249 187.144" stroke="#000631" stroke-linecap="round" stroke-linejoin="round"/>
<path d="M8.32495 192.444C8.32495 192.444 9.42495 204.144 13.4249 210.544" stroke="#000631" stroke-width="1.3" stroke-linecap="round" stroke-linejoin="round"/>
<path d="M45.925 195.644C45.925 195.644 52.525 255.844 52.425 255.844C44.425 254.344 29.125 270.244 28.925 270.944C28.925 270.944 32.3251 291.844 33.3251 292.944C34.4251 294.044 40.7251 296.644 42.8251 297.144C44.9251 297.744 53.425 301.444 57.125 300.844C60.825 300.344 63.425 296.144 63.425 296.144C63.425 296.144 62.9251 288.044 61.3251 286.244C59.7251 284.444 58.2251 287.644 58.2251 287.644" stroke="#000631" stroke-width="1.3" stroke-linecap="round" stroke-linejoin="round"/>
<path d="M51.125 243.844C51.125 243.844 17.925 211.744 4.52502 205.244C4.52502 205.244 24.225 267.944 25.625 270.944C27.025 273.944 28.925 274.144 28.925 274.144" stroke="#000631" stroke-width="1.3" stroke-linecap="round" stroke-linejoin="round"/>
<path d="M8.32495 211.844C8.32495 211.844 26.425 254.544 31.225 259.244" stroke="#000631" stroke-linecap="round" stroke-linejoin="round"/>
<path d="M52.425 293.444C52.425 293.444 55.025 301.944 57.125 300.844" stroke="#000631" stroke-width="1.3" stroke-linecap="round" stroke-linejoin="round"/>
<path d="M43.725 293.444L46.225 298.344" stroke="#000631" stroke-width="1.3" stroke-linecap="round" stroke-linejoin="round"/>
<path d="M37.025 290.844L40.925 296.544" stroke="#000631" stroke-width="1.3" stroke-linecap="round" stroke-linejoin="round"/>
<path d="M49.625 255.944C49.625 255.944 53.025 256.644 55.825 259.244C58.725 261.744 59.525 272.144 62.025 275.144C64.525 278.144 66.125 282.944 66.125 283.944C66.125 285.044 62.925 286.044 60.225 282.844C57.625 279.744 52.525 273.044 51.125 273.244C49.725 273.344 52.325 277.744 52.325 277.744C52.325 277.744 61.325 293.344 61.325 294.244" stroke="#000631" stroke-width="1.3" stroke-linecap="round" stroke-linejoin="round"/>
<path d="M195.625 182.544C196.525 180.344 191.325 164.044 188.525 161.344C185.725 158.744 178.625 157.144 176.225 157.144C173.725 157.144 149.125 174.044 148.125 176.944C147.225 179.744 151.625 195.644 151.625 195.644L153.825 196.744" stroke="#000631" stroke-width="1.3" stroke-linecap="round" stroke-linejoin="round"/>
<path d="M48.5251 198.144L46.425 200.144" stroke="#000631" stroke-width="1.3" stroke-linecap="round" stroke-linejoin="round"/>
<path d="M151.625 195.644C151.625 195.644 158.425 188.244 170.225 187.244C181.925 186.244 189.725 188.344 192.425 190.444" stroke="#000631" stroke-width="1.3" stroke-linecap="round" stroke-linejoin="round"/>
<path d="M176.525 160.344C176.525 160.344 182.425 173.344 183.125 179.744" stroke="#000631" stroke-linecap="round" stroke-linejoin="round"/>
<path d="M189.925 170.044L190.925 179.744" stroke="#000631" stroke-linecap="round" stroke-linejoin="round"/>
<path d="M154.325 193.344L165.025 235.544" stroke="#000631" stroke-width="1.3" stroke-linecap="round" stroke-linejoin="round"/>
<path d="M196.625 182.544C196.625 182.544 173.125 222.044 165.025 237.944L169.125 258.244C169.125 258.244 186.625 256.444 191.925 261.744C191.925 261.744 200.825 202.544 196.625 182.544Z" stroke="#000631" stroke-width="1.3" stroke-linecap="round" stroke-linejoin="round"/>
<path d="M194.325 193.344C194.325 193.344 190.625 241.944 189.925 251.044" stroke="#000631" stroke-linecap="round" stroke-linejoin="round"/>
<path d="M171.025 258.044C171.025 258.044 167.425 262.744 166.425 265.144C165.425 267.544 166.425 269.544 166.425 269.544" stroke="#000631" stroke-width="1.3" stroke-linecap="round" stroke-linejoin="round"/>
<path d="M168.525 283.444C168.525 283.444 172.825 272.044 175.225 273.244C177.625 274.444 177.125 278.844 177.125 281.644C177.125 284.444 174.425 293.644 174.425 293.644C174.425 293.644 169.925 291.244 168.525 294.244" stroke="#000631" stroke-width="1.3" stroke-linecap="round" stroke-linejoin="round"/>
<path d="M168.625 296.144C171.225 296.144 173.725 298.944 177.125 297.144C179.225 296.144 182.325 287.144 182.325 287.144" stroke="#000631" stroke-width="1.3" stroke-linecap="round" stroke-linejoin="round"/>
<path d="M175.525 298.344C175.525 298.344 180.825 297.444 182.325 296.544C183.925 295.544 187.725 289.444 187.725 289.444" stroke="#000631" stroke-width="1.3" stroke-linecap="round" stroke-linejoin="round"/>
<path d="M182.325 296.544C182.325 296.544 186.425 298.244 189.925 290.844" stroke="#000631" stroke-width="1.3" stroke-linecap="round" stroke-linejoin="round"/>
<path d="M187.725 294.344C187.725 294.344 191.325 293.944 192.125 289.444C192.925 285.044 191.725 263.744 189.925 260.344" stroke="#000631" stroke-width="1.3" stroke-linecap="round" stroke-linejoin="round"/>
<path d="M81.725 210.544C81.725 210.544 69.325 261.344 70.325 298.344" stroke="#000631" stroke-linecap="round" stroke-linejoin="round"/>
<path d="M137.625 210.544C137.625 210.544 149.625 251.444 151.725 287.144" stroke="#000631" stroke-linecap="round" stroke-linejoin="round"/>
<path d="M52.425 304.444C52.425 304.444 61.3251 363.744 65.0251 371.144" stroke="#000631" stroke-width="1.3" stroke-linecap="round" stroke-linejoin="round"/>
<path d="M94.825 303.544C94.825 303.544 99.9249 363.244 100.425 367.444" stroke="#000631" stroke-width="1.3" stroke-linecap="round" stroke-linejoin="round"/>
<path d="M61.925 375.344C61.925 375.344 76.125 360.544 80.925 361.144C85.625 361.644 99.925 367.644 103.625 370.144C105.225 371.144 106.825 392.244 106.225 395.944C105.725 399.644 96.725 414.444 93.625 415.044C90.425 415.544 68.725 405.544 67.125 402.344C65.625 399.144 61.925 375.344 61.925 375.344Z" stroke="#000631" stroke-width="1.3" stroke-linecap="round" stroke-linejoin="round"/>
<path d="M137.425 375.344C137.425 375.944 142.725 402.344 144.325 404.444C145.925 406.544 169.125 412.344 172.825 411.844C176.525 411.344 186.625 389.144 186.625 386.444C186.625 383.844 182.325 361.144 180.825 360.044C179.225 359.044 158.025 353.144 155.425 354.244C152.825 355.344 137.425 375.344 137.425 375.344Z" stroke="#000631" stroke-width="1.3" stroke-linecap="round" stroke-linejoin="round"/>
<path d="M81.725 365.444C81.725 365.444 90.425 404.944 90.925 408.644" stroke="#000631" stroke-linecap="round" stroke-linejoin="round"/>
<path d="M157.925 357.444C157.925 357.444 167.525 400.744 168.625 405.244" stroke="#000631" stroke-linecap="round" stroke-linejoin="round"/>
<path d="M70.725 405.244C70.725 405.244 82.525 480.544 82.525 483.144C82.525 485.844 82.525 486.844 82.525 486.844" stroke="#000631" stroke-width="1.3" stroke-linecap="round" stroke-linejoin="round"/>
<path d="M150.825 407.144C150.825 407.144 149.625 413.944 151.725 424.544C153.825 435.144 169.725 487.444 169.725 487.444C169.725 487.444 169.725 499.544 169.725 500.344" stroke="#000631" stroke-width="1.3" stroke-linecap="round" stroke-linejoin="round"/>
<path d="M183.125 395.644C183.125 395.644 187.625 414.444 188.725 438.244C189.725 462.044 191.325 481.644 192.425 483.144C193.425 484.744 197.725 493.244 197.725 493.244" stroke="#000631" stroke-width="1.3" stroke-linecap="round" stroke-linejoin="round"/>
<path d="M74.725 493.244C76.025 492.544 83.125 483.744 85.925 487.244C89.425 491.444 96.225 493.744 98.325 494.244C100.425 494.844 104.125 491.344 104.125 491.344C103.525 490.044 106.825 447.244 107.825 435.144C108.925 422.944 104.125 401.244 104.125 401.244" stroke="#000631" stroke-width="1.3" stroke-linecap="round" stroke-linejoin="round"/>
<path d="M104.125 487.644C104.125 487.644 105.225 489.044 105.725 491.144C106.225 493.244 105.725 497.744 105.725 497.744C105.725 497.744 91.4251 520.144 89.9251 522.344C88.3251 524.444 68.2251 527.544 60.8251 527.544C60.8251 527.544 55.8251 525.444 61.9251 513.344C66.1251 504.844 74.5251 493.244 74.5251 493.244" stroke="#000631" stroke-width="1.3" stroke-linecap="round" stroke-linejoin="round"/>
<path d="M168.125 503.844C168.125 503.844 181.325 483.744 184.525 484.244C187.625 484.744 199.325 493.244 200.825 496.444C202.425 499.544 214.125 527.044 216.725 530.744C219.325 534.444 210.925 539.244 208.825 540.244C206.725 541.344 186.325 536.544 178.825 527.544C171.225 518.644 169.725 519.744 168.125 517.044C166.525 514.344 168.125 503.844 168.125 503.844Z" stroke="#000631" stroke-width="1.3" stroke-linecap="round" stroke-linejoin="round"/>
<path d="M186.625 489.544C187.125 489.544 197.725 510.644 201.425 519.144C205.125 527.544 208.225 534.944 208.225 534.944" stroke="#000631" stroke-linecap="round" stroke-linejoin="round"/>
<path d="M83.7251 489.544C83.7251 489.544 74.2251 507.144 70.7251 513.644C67.1251 520.144 63.425 524.444 63.425 524.444" stroke="#000631" stroke-linecap="round" stroke-linejoin="round"/>
<path d="M113.525 39.8436C113.525 39.8436 118.725 46.3436 123.225 45.1436" stroke="#000631" stroke-linecap="round" stroke-linejoin="round"/>
<path d="M107.025 32.9436C107.025 32.9436 110.725 41.7436 115.125 41.5436" stroke="#000631" stroke-linecap="round" stroke-linejoin="round"/>
</svg>
