<svg width="425" height="533" viewBox="0 0 425 533" fill="none" xmlns="http://www.w3.org/2000/svg">
<path d="M184.9 74.5L178.3 78.3C178.3 78.3 177.6 78 175.2 77.2C172.7 76.5 157.7 78.3 157.7 78.3C157.7 78.3 152 82.3 151.4 82.3C150.9 82.4 122.7 87.2 120.3 87.4C117.8 87.7 113.9 87.3 113.9 87.3C113.9 87.3 112.6 106.7 113.1 110.8C113.6 114.9 114.1 120.7 114.1 120.7L93.3 137.3C93.3 137.3 96.2 145.3 100.3 150.1C104.5 154.9 115.9 165.5 118 165.5C118 165.5 125.2 159.9 126.3 159.2C127.4 158.6 130.1 157 130.1 157L118.9 172.4L116.5 175.6C116.5 175.6 122.1 189.5 141 201.7L148.2 191.6L143.5 225.7L139.2 256.1C139.2 256.1 146.1 261.4 157.8 260.9C157.8 260.9 162.4 234.8 164.9 219.9C167.4 204.9 173.8 145.1 173.8 145.1L178.3 101.4C178.3 101.4 181.4 83.8 184 79.4L184.9 74.5Z" fill="#6BD4CD"/>
<path d="M216.4 70L217.3 78C217.3 78 220.3 83.4 221.3 86.6C222.3 89.8 225 104 225.8 108.4C226.6 112.8 229.7 145.1 229.7 145.1L234 192.7C234 192.7 236.1 217.5 236.4 222.2C236.7 226.8 237.2 253.4 237.2 253.4C237.2 253.4 242.5 253.4 246.3 253.4C250 253.4 255.2 250.4 257.4 249L253.7 220.5C253.7 220.5 252.2 207.2 252.2 205C252.1 202.8 252.1 191.2 252.4 188.8C252.7 186.3 253.2 182.5 253.2 182.5L264.9 195.4C264.9 195.4 275.8 186.8 279.9 181C284.1 175.1 286.8 169.5 287.8 167L274.3 153.7L284.1 158.1C284.1 158.1 288.5 151.6 292.2 141.8C295.8 131.9 300.5 120.7 300.5 120.7L283.8 116C283.8 116 285.4 108.2 286.4 97.7C287.3 87.2 286.2 82.9 286.2 82.9C286.2 82.9 254.3 77 251.6 76.5C248.9 76 245.1 74.6 244.1 74.5C243.1 74.4 223.1 74.5 223.1 74.5L216.4 70Z" fill="#6BD4CD"/>
<path d="M162.7 237.1L177.5 239.7L181.6 239.4L182.3 240.5C182.3 240.5 201.3 242.4 212.6 241.5C223.9 240.7 225.5 239.2 225.5 239.2C225.5 239.2 226.8 237.6 227.5 237.5L228.9 238.4L236.5 234.4L237.2 253.4C237.2 253.4 244.7 253.4 246.3 253.4C247.9 253.4 251.1 252.3 251.1 252.3C251.1 252.3 253.2 276 252.9 280.4C252.7 284.9 253.4 300.2 253.4 300.2L254.4 329.7L255.4 378.5C255.4 378.5 255.3 393.3 255.6 394.5C255.9 395.7 254.7 400.1 254.7 400.8C254.8 401.6 255.1 421.9 255.1 421.9C255.1 421.9 254.7 442.3 254.2 447.3C253.7 452.2 250.8 474.9 250.8 474.9C250.8 474.9 251.9 479.4 252.6 480.5C253.2 481.5 254.1 482.8 253.4 484.3C252.7 485.8 251.7 493.4 251.7 493.4C252.1 494.3 252.1 496.1 252.1 496.1C252.1 496.1 244.1 497.1 243.1 497.1C242 497 236.4 497.2 235.5 497.1C234.6 497 225.6 503.1 225.6 503.1C225.6 503.1 221.7 495.5 221.5 494.4C221.2 493.2 221.2 490.6 221.2 489.5C221.2 488.5 221.2 485.3 221.2 483.7C221.2 482.1 222.3 464.5 222.3 464.5L223.9 443.7C223.9 443.7 224.7 430.6 224.5 429.7C224.4 428.8 223.3 403.3 222.8 399.2C222.3 395.2 220.2 382.9 220.2 380.8C220.2 378.7 214.3 357.4 214.3 357.4L209.2 334.8L203.6 308.3H198L194.2 327.4C194.2 327.4 188.6 347.9 187.6 351.6C186.6 355.2 183.7 363.2 183.7 363.2L177.4 395.1C177.4 395.1 178.8 416.5 179 418.4C179.1 420.2 176.8 447.1 176.8 447.1C176.8 447.1 175.9 461.7 175.9 463.1C175.9 464.5 176.9 476.9 177.2 477.9C177.5 478.9 177.8 480.4 177.1 481.5C176.5 482.6 174.5 485.7 173.9 486.3C173.3 486.9 172.5 488.1 172.6 488.8C172.7 489.5 173 492.5 172.6 493.4C172.2 494.3 170.6 497.2 170.1 498.9C169.5 500.7 169.1 503.3 168.8 503.1C168.5 502.8 155.9 499.8 155.9 499.8C155.9 499.8 151.8 498.3 150.3 498.2C148.8 498 137.6 498.9 137.6 498.9C137.6 498.9 136.3 498.8 137.2 497.6C138.1 496.4 141.8 493.8 142.4 491.7C142.9 489.5 142.2 461.7 142.2 461.7L142.7 420.1C142.7 420.1 143.4 400.1 143.4 399.2C143.4 398.4 143.1 395.6 143 395.1C142.9 394.7 145.6 391.5 145.6 389.3C145.6 387.2 144.4 372.7 144.4 372.7L143.1 339.5C143.1 339.5 143.5 321.5 143.7 320C144 318.5 144.5 306.6 144.5 306.6L146.1 283L147.6 260.1C147.6 260.1 156.2 262 157.8 260.9L162.7 237.1Z" fill="#344A6B"/>
<path d="M298.7 126.8L286.8 153.8L289.4 154.4C289.4 154.4 298.8 134.4 300.5 127.3L298.7 126.8Z" fill="#000631"/>
<path d="M286.8 86.9C286.8 86.9 286.3 100.8 286 105.2C285.7 109.6 284 113.7 284 113.7L286.8 114C286.8 114 290.3 93.2 288.8 87.2L286.8 86.9Z" fill="#000631"/>
<path d="M267.8 193.5C267.8 193.5 276.8 185.2 279.9 181C283 176.7 286.8 171.3 286.8 171.3L288.3 173C288.3 173 282.2 182.1 277.6 187.1C272.9 192.2 269.4 194.8 269.4 194.8L267.8 193.5Z" fill="#000631"/>
<path d="M113.7 91.6C113.7 91.6 112.5 110.2 114.1 118.1L111.4 118.6C111.4 118.6 110.4 111.2 109.9 104.8C109.3 98.4 112 92.3 112 92.3L113.7 91.6Z" fill="#000631"/>
<path d="M94.4 140.3C94.4 140.3 96.8 147 101.4 151.7C106.1 156.5 111.9 161.8 111.9 161.8L109.1 163.7C109.1 163.7 101.1 157.1 97.7 152.3C94.4 147.4 92.2 142.2 92.2 142.2L94.4 140.3Z" fill="#000631"/>
<path d="M117.5 179.4C117.5 179.4 124.6 188.9 128.9 192.7C133.3 196.4 138.2 199.8 138.2 199.8L135.5 201.7C135.5 201.7 127.4 196.4 124.8 193.8C122.1 191.1 116.2 181.8 116.2 181.8L117.5 179.4Z" fill="#000631"/>
<path d="M185.4 72.6C185.4 72.6 187 76 188.7 76.5C190.3 77 202.4 76.8 203.5 76.9C204.7 77 215 68 215 68C215 68 208.1 79.4 204.8 81.2C201.5 82.9 189.6 80.4 187.8 80C186.1 79.7 184.7 75.6 184.7 75.6L185.4 72.6Z" fill="#000631"/>
<path d="M182.6 39.1C182.6 39.1 184.6 36.6 185.6 36.8C185.6 36.8 186.7 37.7 186.9 38.4C187.1 39.2 186.4 40.2 186.4 40.2L182.6 39.1Z" fill="#000631"/>
<path d="M204.8 37.1C204.8 37.1 202.4 38.5 202.5 39.1C202.5 39.1 205.9 40.3 206.9 40.3C206.9 40.3 207.2 38.7 206.7 38.2C206.3 37.6 204.8 37.1 204.8 37.1Z" fill="#000631"/>
<path d="M218.1 56.8C217.6 60.4 216.2 65.4 215.6 66.7C214.3 69.9 205 75.5 202.6 77C202.2 77.4 202.1 77 201.6 77H190.9C190.3 77 188.2 76.5 187.7 76C185.6 73.6 182.9 66.7 181.1 64C179 60.8 175.5 37.6 175.5 37.6" stroke="#000631" stroke-width="1.3" stroke-linecap="round" stroke-linejoin="round"/>
<path d="M213.8 18.4C213.8 18.4 219.2 30.2 219.2 41.9" stroke="#000631" stroke-width="1.3" stroke-linecap="round" stroke-linejoin="round"/>
<path d="M185 72.3C185 72.3 184.3 83.9 182.7 86.6" stroke="#000631" stroke-width="1.3" stroke-linecap="round" stroke-linejoin="round"/>
<path d="M215.4 66.9C215.4 66.9 216.6 81.2 219.3 83.9" stroke="#000631" stroke-width="1.3" stroke-linecap="round" stroke-linejoin="round"/>
<path d="M216.4 70C216.4 70 230.1 79.1 230.7 79.6C231.2 80.2 235.5 92.6 237.1 94.7C237.1 94.7 229 93.1 228 91" stroke="#000631" stroke-width="1.3" stroke-linecap="round" stroke-linejoin="round"/>
<path d="M230.1 81.8C230.1 81.8 228 83.9 227.4 88.8C226.9 93.7 225.8 115.7 227.4 125.2C229 134.6 236.2 209.4 236.2 218.8C236.2 231.1 237.2 253.4 237.2 253.4C237.2 253.4 250.4 255.2 257.4 249C257.4 249 252.8 218.2 252 201.7" stroke="#000631" stroke-width="1.3" stroke-linecap="round" stroke-linejoin="round"/>
<path d="M253.2 181C253.2 181 251.2 199.9 251.7 215C252.2 230.1 252.2 226.9 252.2 226.9" stroke="#000631" stroke-width="1.3" stroke-linecap="round" stroke-linejoin="round"/>
<path d="M251.1 183.6C251.1 183.6 251.1 192.8 251.6 197.7" stroke="#000631" stroke-width="1.3" stroke-linecap="round" stroke-linejoin="round"/>
<path d="M184.5 78C184.5 78 178.3 93.1 176.7 114.1C175.1 135.2 164.7 235.3 157.8 260.9C157.8 260.9 145.6 261.4 139.2 256.1C139.2 256.1 147.2 201.2 148.2 191.6" stroke="#000631" stroke-width="1.3" stroke-linecap="round" stroke-linejoin="round"/>
<path d="M184.9 74C184.9 74 170.9 82.9 170.9 83.9C170.8 85 168.1 96.9 165.4 100.7C165.4 100.7 171.3 98.5 173.5 95.8" stroke="#000631" stroke-width="1.3" stroke-linecap="round" stroke-linejoin="round"/>
<path d="M170.9 83.9C170.9 83.9 174.6 97.2 177.3 108.4" stroke="#000631" stroke-width="1.3" stroke-linecap="round" stroke-linejoin="round"/>
<path d="M217.3 78C217.3 78 223 86.4 224.7 101.7C226.3 115.8 227.4 125.2 227.4 125.2" stroke="#000631" stroke-width="1.3" stroke-linecap="round" stroke-linejoin="round"/>
<path d="M180.4 91.3C180.4 91.3 185 103.5 200 105.3C215 107.1 222.3 89.9 222.3 89.9" stroke="#000631" stroke-width="1.3" stroke-linecap="round" stroke-linejoin="round"/>
<path d="M147.3 152.3C147.3 152.3 149.8 167.5 151.4 175.6" stroke="#000631" stroke-width="1.3" stroke-linecap="round" stroke-linejoin="round"/>
<path d="M168.3 199.7C169.2 199.9 182.8 227.9 193.5 234.4" stroke="#000631" stroke-width="1.3" stroke-linecap="round" stroke-linejoin="round"/>
<path d="M175.6 200.4C175.6 200.4 180.5 206.9 186.4 209.6" stroke="#000631" stroke-width="1.3" stroke-linecap="round" stroke-linejoin="round"/>
<path d="M234 192.7C234 192.7 215.6 218.2 209.6 214.5" stroke="#000631" stroke-width="1.3" stroke-linecap="round" stroke-linejoin="round"/>
<path d="M235.6 213.5C235.6 213.5 234.4 215.5 232.3 216.6" stroke="#000631" stroke-width="1.3" stroke-linecap="round" stroke-linejoin="round"/>
<path d="M182.3 240.5C194.4 242.1 210.1 243 225.5 239.2" stroke="#000631" stroke-width="1.3" stroke-linecap="round" stroke-linejoin="round"/>
<path d="M163.5 237.1C163.5 237.1 168.6 238.4 176.4 239.7" stroke="#000631" stroke-width="1.3" stroke-linecap="round" stroke-linejoin="round"/>
<path d="M179.1 96.9001C179.1 96.9001 186.3 109.1 202.3 108.4C218.3 107.7 223.2 93.3 223.2 93.3" stroke="#000631" stroke-width="1.1" stroke-linecap="round" stroke-linejoin="round"/>
<path d="M182 252.6C194.2 254.1 210.7 254.5 226.6 250" stroke="#000631" stroke-width="1.3" stroke-linecap="round" stroke-linejoin="round"/>
<path d="M162.7 249C162.7 249 167.9 250.5 176.1 251.8" stroke="#000631" stroke-width="1.3" stroke-linecap="round" stroke-linejoin="round"/>
<path d="M211.2 252.8L210.7 241.5" stroke="#000631" stroke-width="1.3" stroke-linecap="round" stroke-linejoin="round"/>
<path d="M199.1 254.4C199.1 254.4 203.2 296.4 201 307.2" stroke="#000631" stroke-width="1.3" stroke-linecap="round" stroke-linejoin="round"/>
<path d="M201.5 290.6C201.5 290.6 205.8 290.5 208 287.8C210.2 285.1 209.6 254.4 209.6 254.4" stroke="#000631" stroke-width="1.3" stroke-linecap="round" stroke-linejoin="round"/>
<path d="M197.8 308.3H204.9C204.9 308.3 232.3 289.4 238.2 290C244.1 290.5 233.9 293.2 233.9 293.2" stroke="#000631" stroke-width="1.3" stroke-linecap="round" stroke-linejoin="round"/>
<path d="M217.2 302.9C217.2 302.9 232.3 298.1 236.1 297.5" stroke="#000631" stroke-width="1.3" stroke-linecap="round" stroke-linejoin="round"/>
<path d="M175.1 294.8C175.1 294.8 188.1 298.6 192.4 301.3" stroke="#000631" stroke-width="1.3" stroke-linecap="round" stroke-linejoin="round"/>
<path d="M157.3 297C157.3 297 160.5 297 170.8 299.1C181 301.3 199.1 306.2 199.1 306.2" stroke="#000631" stroke-width="1.3" stroke-linecap="round" stroke-linejoin="round"/>
<path d="M157.3 272.5C158.4 273.2 187.5 281.9 188.6 283.5C189.7 285.1 180.5 282.4 180.5 282.4" stroke="#000631" stroke-width="1.3" stroke-linecap="round" stroke-linejoin="round"/>
<path d="M218.9 277.2C218.9 277.2 234.4 272.8 236.1 272.5" stroke="#000631" stroke-width="1.3" stroke-linecap="round" stroke-linejoin="round"/>
<path d="M225.7 278.3L233 277.2" stroke="#000631" stroke-width="1.3" stroke-linecap="round" stroke-linejoin="round"/>
<path d="M147.5 260.9C147.6 261.4 144.4 306.7 143.3 327.7C142.2 348.8 145.4 386 145.4 389.2C145.4 392.4 142.3 393.9 143.1 396.2C143.8 398.4 143.1 401.1 142.9 404.8C142.7 408.6 142.2 451.2 142.2 464.2C142.2 477.1 143.3 489.2 142.2 491.8C141.1 494.4 136.3 497.6 136.8 498.7C137.4 499.8 149 497.1 153.7 498.7C158.4 500.3 164.3 502.5 167 503C169.7 503.5 169.7 500.3 170.3 498.1C170.8 496 173.5 493.3 172.9 491.1C172.4 489 172.6 488.5 173 487.4C173.5 486.3 176.7 484.1 177.3 480.9C177.8 477.7 175.1 470.6 176.2 456.1C177.3 441.5 178.3 424.8 178.9 419.4C179.4 414 177.3 397.3 177.8 394.1" stroke="#000631" stroke-width="1.3" stroke-linecap="round" stroke-linejoin="round"/>
<path d="M174 410.2C174 409.7 178.5 391 179 387.9C179.4 384.9 184.3 361.2 184.3 361.2" stroke="#000631" stroke-width="1.3" stroke-linecap="round" stroke-linejoin="round"/>
<path d="M179 377.9C179 377.9 187.5 351.4 189.7 345.5C191.8 339.6 198 309.4 198 309.4" stroke="#000631" stroke-width="1.3" stroke-linecap="round" stroke-linejoin="round"/>
<path d="M203.5 308.3C203.5 308.3 213.4 355.8 217.2 368.7C220.9 381.7 222.6 397.3 223.1 402.1C223.6 407 225.3 432.3 224.2 441C223.1 449.6 224.5 474.9 224.5 474.9" stroke="#000631" stroke-width="1.3" stroke-linecap="round" stroke-linejoin="round"/>
<path d="M223.9 445.5C223.9 445.5 219.9 486.8 220.9 489C222 491.1 221.5 492.8 221.5 494.4C221.5 496 225.6 503.1 225.6 503.1C225.6 503.1 232.8 497.1 238.2 497.1C243.6 497.1 250.6 497.1 251.7 496.5C252.8 496 251.2 495.3 251.7 492.4C252.2 489.5 252.8 487.4 253.3 484.7C253.8 482 251.7 479.3 251.2 476.6C250.6 473.9 253.8 452.8 254.9 439.9C256 427 253.8 404.1 254.9 399.4C256 394.6 255.5 387.9 255.2 368.6C254.9 349.3 253.8 304.5 253.3 299.1C252.8 293.7 253.2 280.9 252.7 272.5C252.2 264.1 251.1 252.9 251.1 252.9" stroke="#000631" stroke-width="1.3" stroke-linecap="round" stroke-linejoin="round"/>
<path d="M208.9 333.5C208.9 333.5 224.7 380 225.8 383.3" stroke="#000631" stroke-width="1.3" stroke-linecap="round" stroke-linejoin="round"/>
<path d="M238.2 403.3C237.7 402.7 228.5 395.1 230.7 395.1C232.8 395.1 240.9 396.8 242.8 395.1" stroke="#000631" stroke-width="1.3" stroke-linecap="round" stroke-linejoin="round"/>
<path d="M225.3 491.1C225.3 491.1 232.8 489.7 238.2 486.9C243.6 484.1 242.4 487.5 240.1 489C237.7 490.6 234 494.6 233.7 495.3" stroke="#000631" stroke-width="1.3" stroke-linecap="round" stroke-linejoin="round"/>
<path d="M250.6 487.4C250.6 487.4 246.3 492.2 247.4 492.8C248.5 493.3 248.9 494.2 248.9 494.2" stroke="#000631" stroke-width="1.3" stroke-linecap="round" stroke-linejoin="round"/>
<path d="M146.5 483C147.1 483 158.5 483.8 158.4 485.8C158.4 487.9 150.3 487.4 148.1 489.5" stroke="#000631" stroke-width="1.3" stroke-linecap="round" stroke-linejoin="round"/>
<path d="M161.6 492.8C161.6 492.8 166 494.6 167.6 494.2C169.2 493.8 162.7 494.9 162.2 496" stroke="#000631" stroke-width="1.3" stroke-linecap="round" stroke-linejoin="round"/>
<path d="M154.8 474.9C154.8 474.9 169.7 477.1 171.9 479.3C174 481.4 170.8 482.5 170.8 482.5" stroke="#000631" stroke-width="1.3" stroke-linecap="round" stroke-linejoin="round"/>
<path d="M139 498.7C139 498.7 133.6 505.7 130.3 507.9C127.1 510 122.3 511.1 120.1 513.2C117.9 515.4 116.9 523.5 120.1 527.3C120.1 527.3 123.9 517.6 126 518.1C128.2 518.6 129.3 526.7 134.7 526.7C140.1 526.7 149.3 520.6 152.5 518C155.7 515.4 158.9 510 160.5 507.9C162.2 505.7 167 503 167 503" stroke="#000631" stroke-width="1.3" stroke-linecap="round" stroke-linejoin="round"/>
<path d="M118.7 527.3C118.7 527.3 117.9 530 123.3 530.5C128.7 531 139 531.6 143.8 528.3C148.7 525.1 153.5 521.3 156.2 515.9C156.2 515.9 167 512.9 167.8 511.4C168.6 510 168.8 503.1 168.8 503.1" stroke="#000631" stroke-width="1.3" stroke-linecap="round" stroke-linejoin="round"/>
<path d="M130.3 507.9C130.3 507.9 138.4 504.1 144.9 510.5" stroke="#000631" stroke-width="1.3" stroke-linecap="round" stroke-linejoin="round"/>
<path d="M264.6 524C263 524.6 261.9 521.9 259.8 520.8C257.6 519.7 254.4 524.6 251.7 526.7C249 528.9 236.6 523.5 236.1 521.3C235.5 519.2 232.8 512.2 229.6 509.5C226.3 506.8 225.6 503.1 225.6 503.1C225.6 503.1 222.8 507.5 225.6 511C227.4 513.2 232.3 513.2 232.3 513.2" stroke="#000631" stroke-width="1.3" stroke-linecap="round" stroke-linejoin="round"/>
<path d="M251.7 496.5C251.7 496.5 256 507.9 260.3 511.1C264.6 514.3 266.8 515.9 266.3 518.6C265.7 521.3 265 523.4 263.2 523.7" stroke="#000631" stroke-width="1.3" stroke-linecap="round" stroke-linejoin="round"/>
<path d="M266.3 520.3C266.3 520.3 267 522.2 266.3 525C265.7 527.8 264.1 530 261.4 530C258.7 530 247.1 532.9 244 530.9C240.9 528.9 234.4 524.6 236.1 521.3" stroke="#000631" stroke-width="1.3" stroke-linecap="round" stroke-linejoin="round"/>
<path d="M243.1 513.8C243.6 513.8 249.7 505.2 257.4 507.9" stroke="#000631" stroke-width="1.3" stroke-linecap="round" stroke-linejoin="round"/>
<path d="M238.2 497.1C238.2 497.1 244.1 509 246.6 510.6" stroke="#000631" stroke-width="1.1" stroke-linecap="round" stroke-linejoin="round"/>
<path d="M243.1 510.1C243.1 510.1 248.2 503 255.6 504.9" stroke="#000631" stroke-width="1.1" stroke-linecap="round" stroke-linejoin="round"/>
<path d="M240.9 506.2C240.9 506.2 248.3 500.3 254.1 501.9" stroke="#000631" stroke-width="1.1" stroke-linecap="round" stroke-linejoin="round"/>
<path d="M238.8 503.1C238.8 503.1 244.3 497.6 252.6 498.7" stroke="#000631" stroke-width="1.1" stroke-linecap="round" stroke-linejoin="round"/>
<path d="M237.7 499.8C237.7 499.8 240.5 497.1 244.5 497.1" stroke="#000631" stroke-width="1.1" stroke-linecap="round" stroke-linejoin="round"/>
<path d="M143.7 508.7C143.7 508.7 149.3 503 152.5 498.7" stroke="#000631" stroke-width="1.1" stroke-linecap="round" stroke-linejoin="round"/>
<path d="M134.1 504.1C134.1 504.1 142.7 503.1 146.5 507.4" stroke="#000631" stroke-width="1.1" stroke-linecap="round" stroke-linejoin="round"/>
<path d="M136.8 501.4C136.8 501.4 144.9 500.8 148.8 505.6" stroke="#000631" stroke-width="1.1" stroke-linecap="round" stroke-linejoin="round"/>
<path d="M138.3 498.9C138.3 498.9 148.2 499.9 151.1 503.1" stroke="#000631" stroke-width="1.1" stroke-linecap="round" stroke-linejoin="round"/>
<path d="M147.3 498.4C147.3 498.4 153 499.5 153.3 501" stroke="#000631" stroke-width="1.1" stroke-linecap="round" stroke-linejoin="round"/>
<path d="M242 410.2C242 410.2 252.2 408.4 250.6 411.5" stroke="#000631" stroke-width="1.1" stroke-linecap="round" stroke-linejoin="round"/>
<path d="M144.9 414.5C144.9 414.5 163.6 400.2 163.7 403.3C163.8 406.5 153.4 414.4 154.3 415.5" stroke="#000631" stroke-width="1.1" stroke-linecap="round" stroke-linejoin="round"/>
<path d="M183.7 315.9C183.7 315.9 191.3 313.2 190.7 315.9" stroke="#000631" stroke-width="1.1" stroke-linecap="round" stroke-linejoin="round"/>
<path d="M177.5 239.2L177.2 252.8L181.3 253.6L181.6 239.4L177.3 239.3" stroke="#000631" stroke-width="1.1" stroke-linecap="round" stroke-linejoin="round"/>
<path d="M205.8 249.5C206.9 248.4 207 246.4 205.4 245.5C203.7 244.7 202.2 246.1 201.9 247.5C201.5 249 203.7 251.1 205.8 249.5Z" stroke="#000631" stroke-width="1.3" stroke-linecap="round" stroke-linejoin="round"/>
<path d="M219.2 41.9C219.2 41.9 223.6 38.3 225.3 38.5C227 38.7 225.3 52.7 224.8 54.3C224.3 55.9 220.4 59.2 218.3 57" stroke="#000631" stroke-width="1.3" stroke-linecap="round" stroke-linejoin="round"/>
<path d="M225.3 41.5C225.3 41.5 219.2 44 219.7 51.9C219.7 51.9 223.4 49.4 223 54" stroke="#000631" stroke-width="1.3" stroke-linecap="round" stroke-linejoin="round"/>
<path d="M223 45.3C223 45.3 224.7 47.4001 224.2 49.2001" stroke="#000631" stroke-width="1.3" stroke-linecap="round" stroke-linejoin="round"/>
<path d="M175.7 37.6C174.1 38.7 173.6 44 173.6 46.2C173.6 48.4 175.2 54.8 176.3 56.5C177.3 58.1 178.9 57.3 178.9 57.3" stroke="#000631" stroke-width="1.3" stroke-linecap="round" stroke-linejoin="round"/>
<path d="M175.2 40.3C175.2 40.3 176.5 47.7001 176.5 52.5001C176.5 52.5001 175.7 48.9001 175.2 51.0001" stroke="#000631" stroke-width="1.3" stroke-linecap="round" stroke-linejoin="round"/>
<path d="M176.2 43.3C176.2 43.3 174.1 45.1 175.2 47.3" stroke="#000631" stroke-width="1.3" stroke-linecap="round" stroke-linejoin="round"/>
<path d="M221.6 39.7C221.6 39.7 226.2 30.7 226 28.2C225.9 25.7 225.3 21.6 225.3 21.6" stroke="#000631" stroke-width="1.3" stroke-linecap="round" stroke-linejoin="round"/>
<path d="M223.7 12.2C223.7 12.2 225.7 26.5999 220.1 33.9999" stroke="#000631" stroke-linecap="round" stroke-linejoin="round"/>
<path d="M223 10.3C222.6 10.1 221 5.80007 217.2 4.70007C213.5 3.60007 207.6 4.70007 207.6 4.70007" stroke="#000631" stroke-linecap="round" stroke-linejoin="round"/>
<path d="M208.6 7.29999C208.1 7.39999 203.2 1.40002 201.1 1.40002" stroke="#000631" stroke-linecap="round" stroke-linejoin="round"/>
<path d="M197.3 2.5C197.3 2.5 188.7 5.79998 187 10.1" stroke="#000631" stroke-linecap="round" stroke-linejoin="round"/>
<path d="M194.1 2C193.5 2 177.1 4.60002 173.3 10.4" stroke="#000631" stroke-linecap="round" stroke-linejoin="round"/>
<path d="M171.7 11.5C171.7 11.5 172 28.7 173.9 32.8" stroke="#000631" stroke-linecap="round" stroke-linejoin="round"/>
<path d="M171.2 24.8C171.2 24.8 171.7 34.4 175.7 37.6" stroke="#000631" stroke-linecap="round" stroke-linejoin="round"/>
<path d="M190.3 16.5C190.3 16.5 179.5 28.5 177.9 29C176.3 29.5 174.9 30.7 174.9 30.7" stroke="#000631" stroke-linecap="round" stroke-linejoin="round"/>
<path d="M211.3 16.5C211.3 16.5 208.6 9 203.8 9" stroke="#000631" stroke-linecap="round" stroke-linejoin="round"/>
<path d="M201.1 9C201.1 9 190.8 23.6 187 24.6" stroke="#000631" stroke-linecap="round" stroke-linejoin="round"/>
<path d="M209.7 17.6C209.7 17.6 201.8 14.8 196.1 15.7" stroke="#000631" stroke-linecap="round" stroke-linejoin="round"/>
<path d="M205.9 16.5C205.9 16.5 204.1 11.1 199.3 11.4" stroke="#000631" stroke-linecap="round" stroke-linejoin="round"/>
<path d="M187.7 22.2C187.7 22.2 179.5 32 174.9 30.7" stroke="#000631" stroke-linecap="round" stroke-linejoin="round"/>
<path d="M180.3 29.1C180.4 28.9 175.5 37.6 175.5 37.6" stroke="#000631" stroke-linecap="round" stroke-linejoin="round"/>
<path d="M180.6 19.2C180.6 19.2 178 26.5999 176.8 27.4999" stroke="#000631" stroke-linecap="round" stroke-linejoin="round"/>
<path d="M211.3 18.4C211.3 18.4 215.1 16.5 216.7 16.5" stroke="#000631" stroke-linecap="round" stroke-linejoin="round"/>
<path d="M215.3 13.3C215.3 13.3 218.3 18.2001 218.9 20.9001C219.4 23.6001 220.1 25.3 220.1 25.3" stroke="#000631" stroke-linecap="round" stroke-linejoin="round"/>
<path d="M214 18.4C214 18.4 217.3 23.2 219.2 25.3" stroke="#000631" stroke-linecap="round" stroke-linejoin="round"/>
<path d="M217.7 9.00001C217.7 9.00001 216.3 7.4 210.3 10.3" stroke="#000631" stroke-linecap="round" stroke-linejoin="round"/>
<path d="M211.2 57.5L211.1 62.7" stroke="#000631" stroke-width="0.7" stroke-linecap="round" stroke-linejoin="round"/>
<path d="M210.5 65.4C210.5 65.4 210.6 70.1 209.7 72.1" stroke="#000631" stroke-width="0.7" stroke-linecap="round" stroke-linejoin="round"/>
<path d="M205.1 65.4C205.1 65.9 206.1 73.7 204.3 76" stroke="#000631" stroke-width="0.7" stroke-linecap="round" stroke-linejoin="round"/>
<path d="M201.3 67C201.3 67 202.4 75.6 201.3 76.9" stroke="#000631" stroke-width="0.7" stroke-linecap="round" stroke-linejoin="round"/>
<path d="M197 68C197 68 197.6 76.2 197 77.2" stroke="#000631" stroke-width="0.7" stroke-linecap="round" stroke-linejoin="round"/>
<path d="M193.8 68.9C193.8 68.9 193.8 76.7 193.8 77.2" stroke="#000631" stroke-width="0.7" stroke-linecap="round" stroke-linejoin="round"/>
<path d="M190.5 68C190.5 68 188.8 74 189.7 76.2" stroke="#000631" stroke-width="0.7" stroke-linecap="round" stroke-linejoin="round"/>
<path d="M188.7 66.6C188.7 66.6 187.9 70.2 187.9 71.3" stroke="#000631" stroke-width="0.7" stroke-linecap="round" stroke-linejoin="round"/>
<path d="M197.3 62.7L197 64.4" stroke="#000631" stroke-width="0.7" stroke-linecap="round" stroke-linejoin="round"/>
<path d="M195.6 62.7C195.4 63.2 195.2 65.4 195.2 65.4" stroke="#000631" stroke-width="0.7" stroke-linecap="round" stroke-linejoin="round"/>
<path d="M194.5 63.5V64.4" stroke="#000631" stroke-width="0.7" stroke-linecap="round" stroke-linejoin="round"/>
<path d="M186.5 62.3C186.5 62.3 186.3 63.7001 186.5 65.4001" stroke="#000631" stroke-width="0.7" stroke-linecap="round" stroke-linejoin="round"/>
<path d="M185.4 54.4C185.4 54.4 184.3 60.5 184.5 62.7" stroke="#000631" stroke-width="0.7" stroke-linecap="round" stroke-linejoin="round"/>
<path d="M183 56.7C183 56.7 183 60.5 183 62.7" stroke="#000631" stroke-width="0.7" stroke-linecap="round" stroke-linejoin="round"/>
<path d="M212.8 60.1C212.8 60.1 212.7 64 212.4 65.8" stroke="#000631" stroke-width="0.7" stroke-linecap="round" stroke-linejoin="round"/>
<path d="M181.8 59.7V62.9" stroke="#000631" stroke-width="0.7" stroke-linecap="round" stroke-linejoin="round"/>
<path d="M210.1 55.2C209.4 55.1 203.3 53.7 201.8 54.4" stroke="#000631" stroke-width="0.7" stroke-linecap="round" stroke-linejoin="round"/>
<path d="M208.1 54C208.1 54 205.6 52.9 204.3 53.5" stroke="#000631" stroke-width="0.7" stroke-linecap="round" stroke-linejoin="round"/>
<path d="M190.2 53.3C190 53.5 186.8 52.6 185.4 53.3" stroke="#000631" stroke-width="0.7" stroke-linecap="round" stroke-linejoin="round"/>
<path d="M195.6 54.4L192.5 54.2C192.5 54.2 190.6 54.2 187.9 54.4" stroke="#000631" stroke-width="0.7" stroke-linecap="round" stroke-linejoin="round"/>
<path d="M198.7 54.7H200.1" stroke="#000631" stroke-width="0.7" stroke-linecap="round" stroke-linejoin="round"/>
<path d="M200.1 52.1C200.1 52.1 200.8 51.3 200.3 51.3C199.7 51.3 198.7 52.5001 198.7 52.5001" stroke="#000631" stroke-width="0.7" stroke-linecap="round" stroke-linejoin="round"/>
<path d="M196 52.3999C196 52.3999 194.6 50.7999 194.5 51.2999" stroke="#000631" stroke-width="0.7" stroke-linecap="round" stroke-linejoin="round"/>
<path d="M193.2 51.9C193.2 51.9 192.7 50.2 193.8 49.7" stroke="#000631" stroke-width="0.7" stroke-linecap="round" stroke-linejoin="round"/>
<path d="M201.9 52.4C201.9 52.4 202.8 50.3 201.8 50" stroke="#000631" stroke-width="0.7" stroke-linecap="round" stroke-linejoin="round"/>
<path d="M198.7 48.0999C198.7 48.0999 197.4 47.5999 196.7 48.0999" stroke="#000631" stroke-width="0.7" stroke-linecap="round" stroke-linejoin="round"/>
<path d="M204.1 41.7L203.1 40.7" stroke="#000631" stroke-width="0.7" stroke-linecap="round" stroke-linejoin="round"/>
<path d="M192.4 40.1L191.1 41.2" stroke="#000631" stroke-width="0.7" stroke-linecap="round" stroke-linejoin="round"/>
<path d="M202.3 33.1C202.3 33.1 200.7 38.1 200.8 41.2" stroke="#000631" stroke-width="0.7" stroke-linecap="round" stroke-linejoin="round"/>
<path d="M193.5 33.9C193.5 33.9 194.6 35.4 194.5 36.6" stroke="#000631" stroke-width="0.7" stroke-linecap="round" stroke-linejoin="round"/>
<path d="M225.8 238.2L228.5 237.1L230.8 250.4L227.5 251.8L225.7 238.2" stroke="#000631" stroke-width="1.3" stroke-linecap="round" stroke-linejoin="round"/>
<path d="M191.2 59.2C191.2 58.5 193.9 56.5 197.7 56.7C201.5 56.9 203.4 59.7 203.4 59.7C204.5 59.4 196.8 57.7 191.2 59.2Z" stroke="#000631" stroke-width="0.7" stroke-linecap="round" stroke-linejoin="round"/>
<path d="M192 30.7C192 30.7 185.1 32.7999 182.2 31.9999" stroke="#000631" stroke-width="1.1" stroke-linecap="round" stroke-linejoin="round"/>
<path d="M212.7 33.4C212.7 33.4 205.2 32.8 202.1 30.2" stroke="#000631" stroke-width="1.1" stroke-linecap="round" stroke-linejoin="round"/>
<path d="M228.9 238.4C228.9 238.4 234.6 236.2 235.9 234.4" stroke="#000631" stroke-width="1.3" stroke-linecap="round" stroke-linejoin="round"/>
<path d="M230.8 249C230.8 249 235 247.9 236.4 246.4" stroke="#000631" stroke-width="1.3" stroke-linecap="round" stroke-linejoin="round"/>
<path d="M154.5 184C154.5 184 144 195.3 141 201.7C141 201.7 123.1 191.6 116.5 175.6C116.5 175.6 127.6 161 130.1 157" stroke="#000631" stroke-width="1.3" stroke-linecap="round" stroke-linejoin="round"/>
<path d="M145.7 147.6C145.7 147.6 125.3 159.1 117.3 165.5C117.3 165.5 98.1 153.3 93.3 137.3C93.3 137.3 111.1 122 114.1 120.7" stroke="#000631" stroke-width="1.3" stroke-linecap="round" stroke-linejoin="round"/>
<path d="M123.7 150.1C118.4 147.9 124.2 148.5 131.7 148.5C139.2 148.5 141.8 147.6 141.8 147.6" stroke="#000631" stroke-width="1.3" stroke-linecap="round" stroke-linejoin="round"/>
<path d="M116.2 142.6C116.2 142.6 145.4 146 147.3 144.8C149.3 143.7 137 139.4 137 139.4" stroke="#000631" stroke-width="1.3" stroke-linecap="round" stroke-linejoin="round"/>
<path d="M179.4 77.2C179.4 77.2 159.2 78.4999 157.7 78.2999C156.2 78.0999 153.4 81.1999 152.1 81.7999C150.9 82.3999 118.5 89.0999 113.9 87.2999C113.9 87.2999 110.4 118.9 117.8 127C117.8 127 147.6 122.7 152.5 122.5" stroke="#000631" stroke-width="1.3" stroke-linecap="round" stroke-linejoin="round"/>
<path d="M147.5 123C147.5 123 125.3 117 126.4 112.8C127.4 108.5 136 116.5 143.4 117C150.9 117.6 141.8 105.4 141.8 105.4" stroke="#000631" stroke-width="1.3" stroke-linecap="round" stroke-linejoin="round"/>
<path d="M113.1 91.6C113.1 91.6 75.8001 97.5 71.5001 97.7C67.2001 97.8 63.0001 102.4 59.8001 105.4C56.6001 108.5 28.3 139.9 25.7 141.5C23 143.1 4.9001 158.1 3.3001 160.7C1.7001 163.4 0.600029 169.2 1.10003 171.9" stroke="#000631" stroke-width="1.3" stroke-linecap="round" stroke-linejoin="round"/>
<path d="M4.90003 161.8C4.90003 161.8 -1.00005 176.2 2.19995 182" stroke="#000631" stroke-width="1.3" stroke-linecap="round" stroke-linejoin="round"/>
<path d="M9.69981 165.5C9.69981 165.5 2.79984 172.9 3.09984 176.2C3.29984 179.4 3.79989 188.1 4.89989 190.1" stroke="#000631" stroke-width="1.3" stroke-linecap="round" stroke-linejoin="round"/>
<path d="M14.3001 169.5C14.3001 169.5 9.10003 175.1 8.10003 178.8C7.00003 182.6 3.30008 191.7 4.90008 193C6.50008 194.3 10.2 189 10.7 185.8C11.3 182.6 14.4001 176.7 16.3001 175.6C18.2001 174.6 21.9001 169.8 23.0001 170.3C24.1001 170.8 21.9001 174.2 19.0001 177.8C16.1001 181.5 14.5 189 18.2 189.5C21.9 190 20 184.7 28.2 175.6C36.3 166.6 30.4 157 32.6 153.8" stroke="#000631" stroke-width="1.3" stroke-linecap="round" stroke-linejoin="round"/>
<path d="M32.7 156.9C32.7 156.9 34.8 151.3 48.3 145.1C61.9 138.9 72.5 127.1 74.7 124.5C74.3 125.2 106.3 121.2 114.1 117.5" stroke="#000631" stroke-width="1.3" stroke-linecap="round" stroke-linejoin="round"/>
<path d="M94.4 140.3C94.4 140.3 67.9999 160.3 64.0999 164C60.2999 167.6 55.4999 179.9 50.1999 194.8C44.7999 209.7 34.6999 229.5 34.6999 230.5C34.6999 231.6 20.2 247.5 16.3 251.8C12.3 256.1 13.8999 259.8 14.9999 263C16.0999 266.2 20.9 268.9 20.9 268.9" stroke="#000631" stroke-width="1.3" stroke-linecap="round" stroke-linejoin="round"/>
<path d="M20.9 255.6C20.9 255.6 17.2999 259.8 18.5999 260.9C19.7999 262 20.9 263.7 20.9 263.7" stroke="#000631" stroke-width="1.3" stroke-linecap="round" stroke-linejoin="round"/>
<path d="M21.4002 251.8C21.4002 251.8 19.8002 268.4 21.9002 271C24.1002 273.7 26.4002 275.3 26.4002 275.3C26.4002 275.3 27.4002 277.4 28.9002 275.6" stroke="#000631" stroke-width="1.3" stroke-linecap="round" stroke-linejoin="round"/>
<path d="M25.5001 255.6C25.5001 255.6 24.2001 267.6 25.5001 269.6C26.7001 271.6 27.8002 274.2 27.8002 274.2" stroke="#000631" stroke-width="1.3" stroke-linecap="round" stroke-linejoin="round"/>
<path d="M27.8001 259.7C27.8001 259.7 25.8001 271.6 28.9001 275.6C32.0001 279.6 33.6 281.2 34.7 280.6C35.8 280.1 34.7 274.8 33.1 271.6C31.5 268.4 32.7001 266.2 33.4001 264.9C34.2001 263.6 41.1 256.1 42.2 255.6C43.2 255 42.5001 261.9 41.3001 263.6C40.0001 265.2 38.9001 272.1 41.9001 274.2C44.8001 276.4 50.6 254.8 51.2 250.4C51.8 246 46 242 48.6 238.4C51.2 234.8 76.6001 203.8 79.9001 193.2C83.2001 182.6 84.1001 180.6 86.8001 177.8C89.6001 175.1 112.2 161.8 112.2 161.8" stroke="#000631" stroke-width="1.3" stroke-linecap="round" stroke-linejoin="round"/>
<path d="M116.5 88.3C116.5 88.3 113.1 111.5 120.3 127" stroke="#000631" stroke-width="1.1" stroke-linecap="round" stroke-linejoin="round"/>
<path d="M95.3999 135.5C95.3999 135.5 101.8 152.4 118.9 163.2" stroke="#000631" stroke-width="1.1" stroke-linecap="round" stroke-linejoin="round"/>
<path d="M118 173.8C118 173.8 127.9 193.6 141.8 199" stroke="#000631" stroke-width="1.1" stroke-linecap="round" stroke-linejoin="round"/>
<path d="M138.2 200.4C138.2 200.4 124.6 208.2 122.8 214.8C121 221.5 118 233.7 109.1 251.8C100.3 270 96.5001 277.4 97.6001 279C98.7001 280.6 101.9 285.9 101.9 292.3C101.9 298.7 102.4 303.5 102.9 305.1C103.5 306.7 101.6 307.7 99.3002 306.2C97.1002 304.6 96.6001 294.2 94.4001 292.5C94.4001 292.5 90.8002 301.3 91.8002 306.2C91.8002 306.2 97.6002 310.9 96.8002 314.7C96.0002 318.5 89.8002 310.4 87.3002 309.4C87.3002 309.4 86.3001 297.9 86.1001 297" stroke="#000631" stroke-width="1.3" stroke-linecap="round" stroke-linejoin="round"/>
<path d="M81.1001 297.1C81.1001 297.1 82.1001 306.2 84.4001 308.3C86.4001 310.1 92.4001 313.6 92.4001 313.6" stroke="#000631" stroke-width="1.3" stroke-linecap="round" stroke-linejoin="round"/>
<path d="M77.1 294.8C77.1 294.8 77.0001 304 79.3001 306.2C81.6001 308.3 84.4001 308.3 84.4001 308.3" stroke="#000631" stroke-width="1.3" stroke-linecap="round" stroke-linejoin="round"/>
<path d="M118 178.8C118 178.8 99.1999 202.8 97.0999 207.1C94.8999 211.3 84.1 262.4 84.4 267.5C84.4 267.5 73.7 284.4 73.9 290C74.1 295.5 74 304 76.3 305.7C78.5 307.3 79.3 306.2 79.3 306.2" stroke="#000631" stroke-width="1.3" stroke-linecap="round" stroke-linejoin="round"/>
<path d="M248.4 177.8C248.4 177.8 261.2 190 264.9 195.4C264.9 195.4 283.6 181.8 287.8 167L273.5 153.8" stroke="#000631" stroke-width="1.3" stroke-linecap="round" stroke-linejoin="round"/>
<path d="M222.7 74.5001C222.7 74.5001 239.3 74.7001 241.5 74.5001C243.6 74.4001 245.5 75.1 247.2 75.8C248.9 76.5 280.9 82.4001 286.2 82.9001C286.2 82.9001 288.4 109 280.9 120.7C280.9 120.7 254.8 111.8 248.4 110.7" stroke="#000631" stroke-width="1.3" stroke-linecap="round" stroke-linejoin="round"/>
<path d="M257.7 113.2C257.7 113.2 271.3 112.8 274 110.6C276.7 108.5 270.3 108.4 270.3 108.4" stroke="#000631" stroke-width="1.3" stroke-linecap="round" stroke-linejoin="round"/>
<path d="M249.4 108.4C249.4 108.4 262.1 105.5 266.2 103.8" stroke="#000631" stroke-width="1.3" stroke-linecap="round" stroke-linejoin="round"/>
<path d="M284.1 116C284.1 116 297.7 120.2 300.5 120.7C300.5 120.7 288.4 153.4 284.1 158.1C284.1 158.1 258.2 147.2 254.6 142.8" stroke="#000631" stroke-width="1.3" stroke-linecap="round" stroke-linejoin="round"/>
<path d="M261.4 147.4C261.7 147.4 277.7 147.4 281.4 143.7" stroke="#000631" stroke-width="1.3" stroke-linecap="round" stroke-linejoin="round"/>
<path d="M246.3 173.5C246.3 173.5 269.7 170.8 270.3 171.9C270.8 173 256.4 176.2 260.1 176.7C263.9 177.2 271.4 179.2 271.4 179.2" stroke="#000631" stroke-width="1.3" stroke-linecap="round" stroke-linejoin="round"/>
<path d="M282.5 82.9C282.5 82.9 287.3 102.6 278.5 119.9" stroke="#000631" stroke-width="1.1" stroke-linecap="round" stroke-linejoin="round"/>
<path d="M297.3 119.9C297.3 119.9 287.8 148.4 281.4 157" stroke="#000631" stroke-width="1.1" stroke-linecap="round" stroke-linejoin="round"/>
<path d="M285.7 166.6C285.7 166.6 274.6 187.9 262.8 192.7" stroke="#000631" stroke-width="1.1" stroke-linecap="round" stroke-linejoin="round"/>
<path d="M268.1 194.1C268.1 194.1 284.6 203.9 285.2 207.1C285.7 210.3 289 223.1 298.6 236.4C308.1 249.7 317.2 265.7 316.6 267.8C316.1 270 312.4 276.4 312.9 280.6C313.4 284.9 314 297.7 314.5 298.7C315 299.8 318.8 296.6 319.3 293.4C319.8 290.2 318.8 282.2 320.9 281.7C323 281.2 326.2 293.4 325.1 295.5C324.1 297.7 316.6 301.9 319.8 304.6C319.8 304.6 327.7 302.7 329.1 299.1C330.5 295.5 330.5 287 330.5 284.9" stroke="#000631" stroke-width="1.3" stroke-linecap="round" stroke-linejoin="round"/>
<path d="M335.8 285.9C335.8 285.9 332.5 300.1 329.1 299.1" stroke="#000631" stroke-width="1.3" stroke-linecap="round" stroke-linejoin="round"/>
<path d="M339 284.4C339 284.4 339 291.3 336.9 293.4C334.7 295.5 332.5 296.5 332.5 296.5" stroke="#000631" stroke-width="1.3" stroke-linecap="round" stroke-linejoin="round"/>
<path d="M286.8 171.7C286.8 171.7 306.9 189 309.1 195.4C311.3 201.7 315 211.9 318.2 223.6C321.4 235.3 328.3 258.2 328.3 258.2C328.3 258.2 339 271.7 341.1 277.7C343.3 283.8 340 291.7 338.4 292.6" stroke="#000631" stroke-width="1.3" stroke-linecap="round" stroke-linejoin="round"/>
<path d="M286.8 153.8C287.3 153.8 324.6 162.8 329.9 165.5C335.3 168.2 337 167.6 339.3 166.6C341.7 165.5 365.1 142.1 373.6 133C382.2 123.9 384.8 121.3 385.9 121.3C387 121.3 395.5 122.9 399.8 121.8C404 120.7 407.7 118.1 411.5 117.6C415.2 117 414.1 114.4 410.9 114.4C407.7 114.4 402.9 114.9 400.3 114.4C397.6 113.8 410.1 110.5 413.2 110.8C416.3 111.2 421.9 112.6 423.6 110.8C425.3 109 421.1 108 418.9 107.4C416.8 106.9 408.5 105.8 404.9 107.4" stroke="#000631" stroke-width="1.3" stroke-linecap="round" stroke-linejoin="round"/>
<path d="M404.5 103.8C404.5 103.8 412 101.6 415.2 102.6C418.4 103.7 422.5 106.2 422.8 108.4" stroke="#000631" stroke-width="1.3" stroke-linecap="round" stroke-linejoin="round"/>
<path d="M419.2 103.8C419.2 103.8 417.9 101.6 415.2 100C412.5 98.4 401.9 100 401.9 100C401.9 100 405.2 97.4 406.8 98.2C408.3 98.9 409.3 98.9 409.3 98.9" stroke="#000631" stroke-width="1.3" stroke-linecap="round" stroke-linejoin="round"/>
<path d="M298.3 126.7C301.2 127.3 334.2 138.4 334.2 138.4C339.6 135.4 376.3 111.2 378 110.8C379.7 110.5 379.5 107.4 385.8 101.9C392.1 96.3001 397.6 95.2 400.8 94.1C404 93 412.5 96.2001 412.5 96.2001C412.5 96.2001 415 96.4 415.6 97.6C416.3 98.9 415.2 100 415.2 100" stroke="#000631" stroke-width="1.3" stroke-linecap="round" stroke-linejoin="round"/>
<path d="M284 113.7C284 113.7 314.8 117.4 321.6 116.2C328.3 114.9 329.9 111.7 331 110.1C332.1 108.5 353.2 63.7 355.4 62.4C357.7 61.1 365.6 61.5999 369.9 57.2999C374.2 53.0999 383.8 43.5 384.3 41.9C384.8 40.3 380.6 39.7 378.5 41.9C376.3 44 371.5 46.6999 370.4 46.0999C369.4 45.5999 370.4 44 371 42.4C371.5 40.8 374.7 33.9 377.4 33.9C380 33.9 389.8 33.2999 390.7 29.5999C391.2 27.4999 384.3 27.9999 376.3 29.0999C376.3 29.0999 372.6 29.5999 371 31.7999" stroke="#000631" stroke-width="1.3" stroke-linecap="round" stroke-linejoin="round"/>
<path d="M366.7 29.6C366.7 29.6 372 24.3 377.4 23.8C382.7 23.2 388 24.3 389.1 24.8C390.2 25.4 389.6 28.3 386.7 28.2" stroke="#000631" stroke-width="1.3" stroke-linecap="round" stroke-linejoin="round"/>
<path d="M361.3 28.2C361.3 28.2 367.8 21.6 371.5 21.6C375.2 21.6 380.7 23.5 382.2 23.6" stroke="#000631" stroke-width="1.3" stroke-linecap="round" stroke-linejoin="round"/>
<path d="M371.5 21.6C371.5 21.6 364.4 20 361.3 21.6C358.2 23.2 352.9 33.9001 350.7 38.7001C348.6 43.5001 347.5 50.4001 344.9 54.7001C342.2 58.9001 321.9 76.0001 311.8 88.2001C309.8 90.7001 286.8 86.9001 286.8 86.9001" stroke="#000631" stroke-width="1.3" stroke-linecap="round" stroke-linejoin="round"/>
<path d="M211.7 38.2C211.7 38.2 208.4 35.9 205.9 36.6C203.4 37.3 202.3 39.1 202.3 39.1C202.3 39.1 205.5 40.7 207.9 40.1C210.4 39.5 211.4 38.4 211.4 38.4" stroke="#000631" stroke-width="0.5" stroke-linecap="round" stroke-linejoin="round"/>
<path d="M192 38.2C192 38.2 188.7 35.9 186.2 36.6C183.7 37.3 182.6 39.1 182.6 39.1C182.6 39.1 185.8 40.7 188.2 40.1C190.7 39.5 191.7 38.4 191.7 38.4" stroke="#000631" stroke-width="0.5" stroke-linecap="round" stroke-linejoin="round"/>
<path d="M185.4 36.9C185.4 36.9 188.1 38 186.4 40.1" stroke="#000631" stroke-width="0.5" stroke-linecap="round" stroke-linejoin="round"/>
<path d="M204.8 37.3C204.8 37.3 207.8 37.3 206.9 40.3" stroke="#000631" stroke-width="0.5" stroke-linecap="round" stroke-linejoin="round"/>
</svg>
