<svg width="425" height="531" viewBox="0 0 425 531" fill="none" xmlns="http://www.w3.org/2000/svg">
<path d="M185.322 68.6C185.322 68.6 195.322 76.8 197.322 76.7C199.422 76.6 207.822 77.3 209.422 76.7C211.122 76.1 211.522 76 212.122 75C212.722 74 216.122 68.5 216.122 68.5L216.322 73.6C216.322 73.6 214.822 78.2 211.622 79.8C208.422 81.4 202.022 81.9 198.322 80.3C194.622 78.7 185.322 70.8 185.222 70.2C185.022 69.7 185.322 68.6 185.322 68.6Z" fill="#000631"/>
<path d="M211.622 36.1C211.622 36.1 211.222 37.5001 211.422 37.9001C211.622 38.2001 212.922 39.8 212.922 39.8L216.822 38.6C216.822 38.6 214.322 35.5 211.622 36.1Z" fill="#000631"/>
<path d="M193.422 36.2001C193.422 36.2001 192.822 37.7001 193.222 38.2001C193.522 38.8001 194.522 39.5001 194.522 39.5001L197.022 38.6C197.022 38.6 195.022 36.3001 193.422 36.2001Z" fill="#000631"/>
<path d="M184.922 73L178.322 76.8C178.322 76.8 177.622 76.5 175.222 75.7C172.722 75 157.722 76.8 157.722 76.8C157.722 76.8 152.022 80.8 151.422 80.8C150.922 80.9 122.722 85.7 120.322 85.9C117.822 86.2 113.922 85.8 113.922 85.8C113.922 85.8 112.622 105.2 113.122 109.3C113.622 113.4 114.122 119.2 114.122 119.2L93.3218 135.8C93.3218 135.8 96.2218 143.8 100.322 148.6C104.522 153.4 115.922 164 118.022 164C118.022 164 125.222 158.4 126.322 157.7C127.422 157.1 130.122 155.5 130.122 155.5L118.922 170.9L116.522 174.1C116.522 174.1 122.122 188 141.022 200.2L148.222 190.1L143.522 224.2L139.222 254.6C139.222 254.6 146.122 259.9 157.822 259.4C157.822 259.4 162.422 233.3 164.922 218.4C167.422 203.4 173.822 143.6 173.822 143.6L178.322 99.9C178.322 99.9 181.422 82.3 184.022 77.9L184.922 73Z" fill="#6BD4CD"/>
<path d="M216.422 68.5L217.322 76.5C217.322 76.5 220.322 81.9 221.322 85.1C222.322 88.3 225.022 102.5 225.822 106.9C226.622 111.3 229.722 143.6 229.722 143.6L234.022 191.2C234.022 191.2 236.122 216 236.422 220.7C236.722 225.3 237.222 251.9 237.222 251.9C237.222 251.9 242.522 251.9 246.322 251.9C250.022 251.9 255.222 248.9 257.422 247.5L253.722 219C253.722 219 252.222 205.7 252.222 203.5C252.122 201.3 252.122 189.7 252.422 187.3C252.722 184.8 253.222 181 253.222 181L264.922 193.9C264.922 193.9 275.822 185.3 279.922 179.5C284.122 173.6 286.822 168 287.822 165.5L274.322 152.2L284.122 156.6C284.122 156.6 288.522 150.1 292.222 140.3C295.822 130.4 300.522 119.2 300.522 119.2L283.822 114.5C283.822 114.5 285.422 106.7 286.422 96.2C287.322 85.7 286.222 81.4 286.222 81.4C286.222 81.4 254.322 75.5 251.622 75C248.922 74.5 245.122 73.1 244.122 73C243.122 72.9 223.122 73 223.122 73L216.422 68.5Z" fill="#6BD4CD"/>
<path d="M162.722 235.6L177.522 238.2L181.622 237.9L182.322 239C182.322 239 201.322 240.9 212.622 240C223.922 239.2 225.522 237.7 225.522 237.7C225.522 237.7 226.822 236.1 227.522 236L228.922 236.9L236.522 232.9L237.222 251.9C237.222 251.9 244.722 251.9 246.322 251.9C247.922 251.9 251.122 250.8 251.122 250.8C251.122 250.8 253.222 274.5 252.922 278.9C252.722 283.4 253.422 298.7 253.422 298.7L254.422 328.2L255.422 377C255.422 377 255.322 391.8 255.622 393C255.922 394.2 254.722 398.6 254.722 399.3C254.822 400.1 255.122 420.4 255.122 420.4C255.122 420.4 254.722 440.8 254.222 445.8C253.722 450.7 250.822 473.4 250.822 473.4C250.822 473.4 251.922 477.9 252.622 479C253.222 480 254.122 481.3 253.422 482.8C252.722 484.3 251.722 491.9 251.722 491.9C252.122 492.8 252.122 494.6 252.122 494.6C252.122 494.6 244.122 495.6 243.122 495.6C242.022 495.5 236.422 495.7 235.522 495.6C234.622 495.5 225.622 501.6 225.622 501.6C225.622 501.6 221.722 494 221.522 492.9C221.222 491.7 221.222 489.1 221.222 488C221.222 487 221.222 483.8 221.222 482.2C221.222 480.6 222.322 463 222.322 463L223.922 442.2C223.922 442.2 224.722 429.1 224.522 428.2C224.422 427.3 223.322 401.8 222.822 397.7C222.322 393.7 220.222 381.4 220.222 379.3C220.222 377.2 214.322 355.9 214.322 355.9L209.222 333.3L203.622 306.8H198.022L194.222 325.9C194.222 325.9 188.622 346.4 187.622 350.1C186.622 353.7 183.722 361.7 183.722 361.7L177.422 393.6C177.422 393.6 178.822 415 179.022 416.9C179.122 418.7 176.822 445.6 176.822 445.6C176.822 445.6 175.922 460.2 175.922 461.6C175.922 463 176.922 475.4 177.222 476.4C177.522 477.4 177.822 478.9 177.122 480C176.522 481.1 174.522 484.2 173.922 484.8C173.322 485.4 172.522 486.6 172.622 487.3C172.722 488 173.022 491 172.622 491.9C172.222 492.8 170.622 495.7 170.122 497.4C169.522 499.2 169.122 501.8 168.822 501.6C168.522 501.3 155.922 498.3 155.922 498.3C155.922 498.3 151.822 496.8 150.322 496.7C148.822 496.5 137.622 497.4 137.622 497.4C137.622 497.4 136.322 497.3 137.222 496.1C138.122 494.9 141.822 492.3 142.422 490.2C142.922 488 142.222 460.2 142.222 460.2L142.722 418.6C142.722 418.6 143.422 398.6 143.422 397.7C143.422 396.9 143.122 394.1 143.022 393.6C142.922 393.2 145.622 390 145.622 387.8C145.622 385.7 144.422 371.2 144.422 371.2L143.122 338C143.122 338 143.522 320 143.722 318.5C144.022 317 144.522 305.1 144.522 305.1L146.122 281.5L147.622 258.6C147.622 258.6 156.222 260.5 157.822 259.4L162.722 235.6Z" fill="#344A6B"/>
<path d="M298.722 125.3L286.822 152.3L289.422 152.9C289.422 152.9 298.822 132.9 300.522 125.8L298.722 125.3Z" fill="#000631"/>
<path d="M286.822 85.4001C286.822 85.4001 286.322 99.3001 286.022 103.7C285.722 108.1 284.022 112.2 284.022 112.2L286.822 112.5C286.822 112.5 290.322 91.7001 288.822 85.7001L286.822 85.4001Z" fill="#000631"/>
<path d="M267.822 192C267.822 192 276.822 183.7 279.922 179.5C283.022 175.2 286.822 169.8 286.822 169.8L288.322 171.5C288.322 171.5 282.222 180.6 277.622 185.6C272.922 190.7 269.422 193.3 269.422 193.3L267.822 192Z" fill="#000631"/>
<path d="M113.722 90.1001C113.722 90.1001 112.522 108.7 114.122 116.6L111.422 117.1C111.422 117.1 110.422 109.7 109.922 103.3C109.322 96.9001 112.022 90.8001 112.022 90.8001L113.722 90.1001Z" fill="#000631"/>
<path d="M94.4218 138.8C94.4218 138.8 96.8218 145.5 101.422 150.2C106.122 155 111.922 160.3 111.922 160.3L109.122 162.2C109.122 162.2 101.122 155.6 97.7217 150.8C94.4217 145.9 92.2217 140.7 92.2217 140.7L94.4218 138.8Z" fill="#000631"/>
<path d="M117.522 177.9C117.522 177.9 124.622 187.4 128.922 191.2C133.322 194.9 138.222 198.3 138.222 198.3L135.522 200.2C135.522 200.2 127.422 194.9 124.822 192.3C122.122 189.6 116.222 180.3 116.222 180.3L117.522 177.9Z" fill="#000631"/>
<path d="M181.322 56.4C181.822 60 183.222 64.8999 183.722 66.2999C185.122 69.3999 194.422 75.0999 196.722 76.5999C197.222 76.8999 197.222 76.5999 197.822 76.5999H208.422C209.122 76.5999 211.222 75.9999 211.622 75.4999C213.722 73.1999 216.522 66.1999 218.322 63.5999C220.422 60.2999 223.922 37.2 223.922 37.2" stroke="#000631" stroke-width="1.3" stroke-linecap="round" stroke-linejoin="round"/>
<path d="M185.522 18C185.522 18 180.222 29.7 180.222 41.4" stroke="#000631" stroke-width="1.3" stroke-linecap="round" stroke-linejoin="round"/>
<path d="M185.322 68.5C185.322 68.5 184.322 82.4 182.722 85.1" stroke="#000631" stroke-width="1.3" stroke-linecap="round" stroke-linejoin="round"/>
<path d="M216.422 68.6C216.422 68.6 216.622 79.7 219.322 82.4" stroke="#000631" stroke-width="1.3" stroke-linecap="round" stroke-linejoin="round"/>
<path d="M216.422 68.5C216.422 68.5 230.122 77.6 230.722 78.1C231.222 78.7 235.522 91.1 237.122 93.2C237.122 93.2 229.022 91.6 228.022 89.5" stroke="#000631" stroke-width="1.3" stroke-linecap="round" stroke-linejoin="round"/>
<path d="M230.122 80.3C230.122 80.3 228.022 82.4 227.422 87.3C226.922 92.2 225.822 114.2 227.422 123.7C229.022 133.1 236.222 207.9 236.222 217.3C236.222 229.6 237.222 251.9 237.222 251.9C237.222 251.9 250.422 253.7 257.422 247.5C257.422 247.5 252.822 216.7 252.022 200.2" stroke="#000631" stroke-width="1.3" stroke-linecap="round" stroke-linejoin="round"/>
<path d="M253.222 179.5C253.222 179.5 251.222 198.4 251.722 213.5C252.222 228.6 252.222 225.4 252.222 225.4" stroke="#000631" stroke-width="1.3" stroke-linecap="round" stroke-linejoin="round"/>
<path d="M251.122 182.1C251.122 182.1 251.122 191.3 251.622 196.2" stroke="#000631" stroke-width="1.3" stroke-linecap="round" stroke-linejoin="round"/>
<path d="M184.522 76.5C184.522 76.5 178.322 91.6 176.722 112.6C175.122 133.7 164.722 233.8 157.822 259.4C157.822 259.4 145.622 259.9 139.222 254.6C139.222 254.6 147.222 199.7 148.222 190.1" stroke="#000631" stroke-width="1.3" stroke-linecap="round" stroke-linejoin="round"/>
<path d="M184.922 72.5C184.922 72.5 170.922 81.4 170.922 82.4C170.822 83.5 168.122 95.4 165.422 99.2C165.422 99.2 171.322 97 173.522 94.3" stroke="#000631" stroke-width="1.3" stroke-linecap="round" stroke-linejoin="round"/>
<path d="M170.922 82.4C170.922 82.4 174.622 95.7 177.322 106.9" stroke="#000631" stroke-width="1.3" stroke-linecap="round" stroke-linejoin="round"/>
<path d="M217.322 76.5C217.322 76.5 223.022 84.9 224.722 100.2C226.322 114.3 227.422 123.7 227.422 123.7" stroke="#000631" stroke-width="1.3" stroke-linecap="round" stroke-linejoin="round"/>
<path d="M180.422 89.8C180.422 89.8 185.022 102 200.022 103.8C215.022 105.6 222.322 88.4 222.322 88.4" stroke="#000631" stroke-width="1.3" stroke-linecap="round" stroke-linejoin="round"/>
<path d="M147.322 150.8C147.322 150.8 149.822 166 151.422 174.1" stroke="#000631" stroke-width="1.3" stroke-linecap="round" stroke-linejoin="round"/>
<path d="M168.322 198.2C169.222 198.4 182.822 226.4 193.522 232.9" stroke="#000631" stroke-width="1.3" stroke-linecap="round" stroke-linejoin="round"/>
<path d="M175.622 198.9C175.622 198.9 180.522 205.4 186.422 208.1" stroke="#000631" stroke-width="1.3" stroke-linecap="round" stroke-linejoin="round"/>
<path d="M234.022 191.2C234.022 191.2 215.622 216.7 209.622 213" stroke="#000631" stroke-width="1.3" stroke-linecap="round" stroke-linejoin="round"/>
<path d="M235.622 212C235.622 212 234.422 214 232.322 215.1" stroke="#000631" stroke-width="1.3" stroke-linecap="round" stroke-linejoin="round"/>
<path d="M182.322 239C194.422 240.6 210.122 241.5 225.522 237.7" stroke="#000631" stroke-width="1.3" stroke-linecap="round" stroke-linejoin="round"/>
<path d="M163.522 235.6C163.522 235.6 168.622 236.9 176.422 238.2" stroke="#000631" stroke-width="1.3" stroke-linecap="round" stroke-linejoin="round"/>
<path d="M179.122 95.4001C179.122 95.4001 186.322 107.6 202.322 106.9C218.322 106.2 223.222 91.8 223.222 91.8" stroke="#000631" stroke-width="1.1" stroke-linecap="round" stroke-linejoin="round"/>
<path d="M182.022 251.1C194.222 252.6 210.722 253 226.622 248.5" stroke="#000631" stroke-width="1.3" stroke-linecap="round" stroke-linejoin="round"/>
<path d="M162.722 247.5C162.722 247.5 167.922 249 176.122 250.3" stroke="#000631" stroke-width="1.3" stroke-linecap="round" stroke-linejoin="round"/>
<path d="M211.222 251.3L210.722 240" stroke="#000631" stroke-width="1.3" stroke-linecap="round" stroke-linejoin="round"/>
<path d="M199.122 252.9C199.122 252.9 203.222 294.9 201.022 305.7" stroke="#000631" stroke-width="1.3" stroke-linecap="round" stroke-linejoin="round"/>
<path d="M201.522 289.1C201.522 289.1 205.822 289 208.022 286.3C210.222 283.6 209.622 252.9 209.622 252.9" stroke="#000631" stroke-width="1.3" stroke-linecap="round" stroke-linejoin="round"/>
<path d="M197.822 306.8H204.922C204.922 306.8 232.322 287.9 238.222 288.5C244.122 289 233.922 291.7 233.922 291.7" stroke="#000631" stroke-width="1.3" stroke-linecap="round" stroke-linejoin="round"/>
<path d="M217.222 301.4C217.222 301.4 232.322 296.6 236.122 296" stroke="#000631" stroke-width="1.3" stroke-linecap="round" stroke-linejoin="round"/>
<path d="M175.122 293.3C175.122 293.3 188.122 297.1 192.422 299.8" stroke="#000631" stroke-width="1.3" stroke-linecap="round" stroke-linejoin="round"/>
<path d="M157.322 295.5C157.322 295.5 160.522 295.5 170.822 297.6C181.022 299.8 199.122 304.7 199.122 304.7" stroke="#000631" stroke-width="1.3" stroke-linecap="round" stroke-linejoin="round"/>
<path d="M157.322 271C158.422 271.7 187.522 280.4 188.622 282C189.722 283.6 180.522 280.9 180.522 280.9" stroke="#000631" stroke-width="1.3" stroke-linecap="round" stroke-linejoin="round"/>
<path d="M218.922 275.7C218.922 275.7 234.422 271.3 236.122 271" stroke="#000631" stroke-width="1.3" stroke-linecap="round" stroke-linejoin="round"/>
<path d="M225.722 276.8L233.022 275.7" stroke="#000631" stroke-width="1.3" stroke-linecap="round" stroke-linejoin="round"/>
<path d="M147.522 259.4C147.622 259.9 144.422 305.2 143.322 326.2C142.222 347.3 145.422 384.5 145.422 387.7C145.422 390.9 142.322 392.4 143.122 394.7C143.822 396.9 143.122 399.6 142.922 403.3C142.722 407.1 142.222 449.7 142.222 462.7C142.222 475.6 143.322 487.7 142.222 490.3C141.122 492.9 136.322 496.1 136.822 497.2C137.422 498.3 149.022 495.6 153.722 497.2C158.422 498.8 164.322 501 167.022 501.5C169.722 502 169.722 498.8 170.322 496.6C170.822 494.5 173.522 491.8 172.922 489.6C172.422 487.5 172.622 487 173.022 485.9C173.522 484.8 176.722 482.6 177.322 479.4C177.822 476.2 175.122 469.1 176.222 454.6C177.322 440 178.322 423.3 178.922 417.9C179.422 412.5 177.322 395.8 177.822 392.6" stroke="#000631" stroke-width="1.3" stroke-linecap="round" stroke-linejoin="round"/>
<path d="M174.022 408.7C174.022 408.2 178.522 389.5 179.022 386.4C179.422 383.4 184.322 359.7 184.322 359.7" stroke="#000631" stroke-width="1.3" stroke-linecap="round" stroke-linejoin="round"/>
<path d="M179.022 376.4C179.022 376.4 187.522 349.9 189.722 344C191.822 338.1 198.022 307.9 198.022 307.9" stroke="#000631" stroke-width="1.3" stroke-linecap="round" stroke-linejoin="round"/>
<path d="M203.522 306.8C203.522 306.8 213.422 354.3 217.222 367.2C220.922 380.2 222.622 395.8 223.122 400.6C223.622 405.5 225.322 430.8 224.222 439.5C223.122 448.1 224.522 473.4 224.522 473.4" stroke="#000631" stroke-width="1.3" stroke-linecap="round" stroke-linejoin="round"/>
<path d="M223.922 444C223.922 444 219.922 485.3 220.922 487.5C222.022 489.6 221.522 491.3 221.522 492.9C221.522 494.5 225.622 501.6 225.622 501.6C225.622 501.6 232.822 495.6 238.222 495.6C243.622 495.6 250.622 495.6 251.722 495C252.822 494.5 251.222 493.8 251.722 490.9C252.222 488 252.822 485.9 253.322 483.2C253.822 480.5 251.722 477.8 251.222 475.1C250.622 472.4 253.822 451.3 254.922 438.4C256.022 425.5 253.822 402.6 254.922 397.9C256.022 393.1 255.522 386.4 255.222 367.1C254.922 347.8 253.822 303 253.322 297.6C252.822 292.2 253.222 279.4 252.722 271C252.222 262.6 251.122 251.4 251.122 251.4" stroke="#000631" stroke-width="1.3" stroke-linecap="round" stroke-linejoin="round"/>
<path d="M208.922 332C208.922 332 224.722 378.5 225.822 381.8" stroke="#000631" stroke-width="1.3" stroke-linecap="round" stroke-linejoin="round"/>
<path d="M238.222 401.8C237.722 401.2 228.522 393.6 230.722 393.6C232.822 393.6 240.922 395.3 242.822 393.6" stroke="#000631" stroke-width="1.3" stroke-linecap="round" stroke-linejoin="round"/>
<path d="M225.322 489.6C225.322 489.6 232.822 488.2 238.222 485.4C243.622 482.6 242.422 486 240.122 487.5C237.722 489.1 234.022 493.1 233.722 493.8" stroke="#000631" stroke-width="1.3" stroke-linecap="round" stroke-linejoin="round"/>
<path d="M250.622 485.9C250.622 485.9 246.322 490.7 247.422 491.3C248.522 491.8 248.922 492.7 248.922 492.7" stroke="#000631" stroke-width="1.3" stroke-linecap="round" stroke-linejoin="round"/>
<path d="M146.522 481.5C147.122 481.5 158.522 482.3 158.422 484.3C158.422 486.4 150.322 485.9 148.122 488" stroke="#000631" stroke-width="1.3" stroke-linecap="round" stroke-linejoin="round"/>
<path d="M161.622 491.3C161.622 491.3 166.022 493.1 167.622 492.7C169.222 492.3 162.722 493.4 162.222 494.5" stroke="#000631" stroke-width="1.3" stroke-linecap="round" stroke-linejoin="round"/>
<path d="M154.822 473.4C154.822 473.4 169.722 475.6 171.922 477.8C174.022 479.9 170.822 481 170.822 481" stroke="#000631" stroke-width="1.3" stroke-linecap="round" stroke-linejoin="round"/>
<path d="M139.022 497.2C139.022 497.2 133.622 504.2 130.322 506.4C127.122 508.5 122.322 509.6 120.122 511.7C117.922 513.9 116.922 522 120.122 525.8C120.122 525.8 123.922 516.1 126.022 516.6C128.222 517.1 129.322 525.2 134.722 525.2C140.122 525.2 149.322 519.1 152.522 516.5C155.722 513.9 158.922 508.5 160.522 506.4C162.222 504.2 167.022 501.5 167.022 501.5" stroke="#000631" stroke-width="1.3" stroke-linecap="round" stroke-linejoin="round"/>
<path d="M118.722 525.8C118.722 525.8 117.922 528.5 123.322 529C128.722 529.5 139.022 530.1 143.822 526.8C148.722 523.6 153.522 519.8 156.222 514.4C156.222 514.4 167.022 511.4 167.822 509.9C168.622 508.5 168.822 501.6 168.822 501.6" stroke="#000631" stroke-width="1.3" stroke-linecap="round" stroke-linejoin="round"/>
<path d="M130.322 506.4C130.322 506.4 138.422 502.6 144.922 509" stroke="#000631" stroke-width="1.3" stroke-linecap="round" stroke-linejoin="round"/>
<path d="M264.622 522.5C263.022 523.1 261.922 520.4 259.822 519.3C257.622 518.2 254.422 523.1 251.722 525.2C249.022 527.4 236.622 522 236.122 519.8C235.522 517.7 232.822 510.7 229.622 508C226.322 505.3 225.622 501.6 225.622 501.6C225.622 501.6 222.822 506 225.622 509.5C227.422 511.7 232.322 511.7 232.322 511.7" stroke="#000631" stroke-width="1.3" stroke-linecap="round" stroke-linejoin="round"/>
<path d="M251.722 495C251.722 495 256.022 506.4 260.322 509.6C264.622 512.8 266.822 514.4 266.322 517.1C265.722 519.8 265.022 521.9 263.222 522.2" stroke="#000631" stroke-width="1.3" stroke-linecap="round" stroke-linejoin="round"/>
<path d="M266.322 518.8C266.322 518.8 267.022 520.7 266.322 523.5C265.722 526.3 264.122 528.5 261.422 528.5C258.722 528.5 247.122 531.4 244.022 529.4C240.922 527.4 234.422 523.1 236.122 519.8" stroke="#000631" stroke-width="1.3" stroke-linecap="round" stroke-linejoin="round"/>
<path d="M243.122 512.3C243.622 512.3 249.722 503.7 257.422 506.4" stroke="#000631" stroke-width="1.3" stroke-linecap="round" stroke-linejoin="round"/>
<path d="M238.222 495.6C238.222 495.6 244.122 507.5 246.622 509.1" stroke="#000631" stroke-width="1.1" stroke-linecap="round" stroke-linejoin="round"/>
<path d="M243.122 508.6C243.122 508.6 248.222 501.5 255.622 503.4" stroke="#000631" stroke-width="1.1" stroke-linecap="round" stroke-linejoin="round"/>
<path d="M240.922 504.7C240.922 504.7 248.322 498.8 254.122 500.4" stroke="#000631" stroke-width="1.1" stroke-linecap="round" stroke-linejoin="round"/>
<path d="M238.822 501.6C238.822 501.6 244.322 496.1 252.622 497.2" stroke="#000631" stroke-width="1.1" stroke-linecap="round" stroke-linejoin="round"/>
<path d="M237.722 498.3C237.722 498.3 240.522 495.6 244.522 495.6" stroke="#000631" stroke-width="1.1" stroke-linecap="round" stroke-linejoin="round"/>
<path d="M143.722 507.2C143.722 507.2 149.322 501.5 152.522 497.2" stroke="#000631" stroke-width="1.1" stroke-linecap="round" stroke-linejoin="round"/>
<path d="M134.122 502.6C134.122 502.6 142.722 501.6 146.522 505.9" stroke="#000631" stroke-width="1.1" stroke-linecap="round" stroke-linejoin="round"/>
<path d="M136.822 499.9C136.822 499.9 144.922 499.3 148.822 504.1" stroke="#000631" stroke-width="1.1" stroke-linecap="round" stroke-linejoin="round"/>
<path d="M138.322 497.4C138.322 497.4 148.222 498.4 151.122 501.6" stroke="#000631" stroke-width="1.1" stroke-linecap="round" stroke-linejoin="round"/>
<path d="M147.322 496.9C147.322 496.9 153.022 498 153.322 499.5" stroke="#000631" stroke-width="1.1" stroke-linecap="round" stroke-linejoin="round"/>
<path d="M242.022 408.7C242.022 408.7 252.222 406.9 250.622 410" stroke="#000631" stroke-width="1.1" stroke-linecap="round" stroke-linejoin="round"/>
<path d="M144.922 413C144.922 413 163.622 398.7 163.722 401.8C163.822 405 153.422 412.9 154.322 414" stroke="#000631" stroke-width="1.1" stroke-linecap="round" stroke-linejoin="round"/>
<path d="M183.722 314.4C183.722 314.4 191.322 311.7 190.722 314.4" stroke="#000631" stroke-width="1.1" stroke-linecap="round" stroke-linejoin="round"/>
<path d="M177.522 237.7L177.222 251.3L181.322 252.1L181.622 237.9L177.322 237.8" stroke="#000631" stroke-width="1.1" stroke-linecap="round" stroke-linejoin="round"/>
<path d="M205.822 248C206.922 246.9 207.022 244.9 205.422 244C203.722 243.2 202.222 244.6 201.922 246C201.522 247.5 203.722 249.6 205.822 248Z" stroke="#000631" stroke-width="1.3" stroke-linecap="round" stroke-linejoin="round"/>
<path d="M180.222 41.4C180.222 41.4 175.722 37.8 174.122 38C172.422 38.2 174.022 52.2 174.622 53.9C175.122 55.5 179.022 58.8 181.122 56.6" stroke="#000631" stroke-width="1.3" stroke-linecap="round" stroke-linejoin="round"/>
<path d="M174.122 41.1C174.122 41.1 180.222 43.6 179.622 51.4C179.622 51.4 175.922 48.9 176.322 53.6" stroke="#000631" stroke-width="1.3" stroke-linecap="round" stroke-linejoin="round"/>
<path d="M176.322 44.9C176.322 44.9 174.722 46.9 175.222 48.8" stroke="#000631" stroke-width="1.3" stroke-linecap="round" stroke-linejoin="round"/>
<path d="M223.622 37.1C225.322 38.2 225.822 43.6 225.822 45.8C225.822 47.9 224.222 54.4 223.122 56C222.022 57.6 220.522 56.9 220.522 56.9" stroke="#000631" stroke-width="1.3" stroke-linecap="round" stroke-linejoin="round"/>
<path d="M224.222 39.8C224.222 39.8 222.822 47.2 222.822 52.1C222.822 52.1 223.622 48.4 224.222 50.6" stroke="#000631" stroke-width="1.3" stroke-linecap="round" stroke-linejoin="round"/>
<path d="M223.222 42.9C223.222 42.9 225.322 44.7 224.222 46.8" stroke="#000631" stroke-width="1.3" stroke-linecap="round" stroke-linejoin="round"/>
<path d="M177.822 39.2999C177.822 39.2999 173.222 30.2999 173.322 27.7999C173.522 25.2999 174.122 21.2 174.122 21.2" stroke="#000631" stroke-width="1.3" stroke-linecap="round" stroke-linejoin="round"/>
<path d="M175.722 11.7C175.722 11.7 173.722 26.1999 179.322 33.5999" stroke="#000631" stroke-linecap="round" stroke-linejoin="round"/>
<path d="M176.322 9.90007C176.722 9.60007 178.322 5.30006 182.122 4.20006C185.922 3.20006 191.822 4.20006 191.822 4.20006" stroke="#000631" stroke-linecap="round" stroke-linejoin="round"/>
<path d="M190.822 6.79999C191.322 6.89999 196.122 1 198.322 1" stroke="#000631" stroke-linecap="round" stroke-linejoin="round"/>
<path d="M202.122 2.09998C202.122 2.09998 210.722 5.29998 212.322 9.59998" stroke="#000631" stroke-linecap="round" stroke-linejoin="round"/>
<path d="M205.322 1.5C205.822 1.5 222.322 4.1 226.022 10" stroke="#000631" stroke-linecap="round" stroke-linejoin="round"/>
<path d="M227.622 11.1C227.622 11.1 227.322 28.3 225.522 32.4" stroke="#000631" stroke-linecap="round" stroke-linejoin="round"/>
<path d="M228.222 24.4C228.222 24.4 227.622 34 223.622 37.1" stroke="#000631" stroke-linecap="round" stroke-linejoin="round"/>
<path d="M209.122 16.1C209.122 16.1 219.922 28.1 221.522 28.6C223.122 29.1 224.522 30.2 224.522 30.2" stroke="#000631" stroke-linecap="round" stroke-linejoin="round"/>
<path d="M188.022 16.1C188.022 16.1 190.722 8.59998 195.622 8.59998" stroke="#000631" stroke-linecap="round" stroke-linejoin="round"/>
<path d="M198.322 8.59998C198.322 8.59998 208.522 23.2 212.322 24.2" stroke="#000631" stroke-linecap="round" stroke-linejoin="round"/>
<path d="M189.722 17.2C189.722 17.2 197.522 14.4 203.322 15.3" stroke="#000631" stroke-linecap="round" stroke-linejoin="round"/>
<path d="M193.522 16.1C193.522 16.1 195.322 10.6 200.022 10.9" stroke="#000631" stroke-linecap="round" stroke-linejoin="round"/>
<path d="M211.622 21.7C211.622 21.7 219.822 31.4999 224.422 30.2999" stroke="#000631" stroke-linecap="round" stroke-linejoin="round"/>
<path d="M219.122 28.7C218.922 28.4 223.922 37.2 223.922 37.2" stroke="#000631" stroke-linecap="round" stroke-linejoin="round"/>
<path d="M218.822 18.8C218.822 18.8 221.422 26.1 222.522 27.1" stroke="#000631" stroke-linecap="round" stroke-linejoin="round"/>
<path d="M188.022 17.9C188.022 17.9 184.222 16.1 182.622 16.1" stroke="#000631" stroke-linecap="round" stroke-linejoin="round"/>
<path d="M184.022 12.9C184.022 12.9 181.022 17.7 180.522 20.4C180.022 23.1 179.322 24.8 179.322 24.8" stroke="#000631" stroke-linecap="round" stroke-linejoin="round"/>
<path d="M185.322 17.9C185.322 17.9 182.122 22.8 180.222 24.8" stroke="#000631" stroke-linecap="round" stroke-linejoin="round"/>
<path d="M181.722 8.6C181.722 8.6 183.022 6.90005 189.022 9.90005" stroke="#000631" stroke-linecap="round" stroke-linejoin="round"/>
<path d="M188.222 57L188.322 62.2" stroke="#000631" stroke-width="0.7" stroke-linecap="round" stroke-linejoin="round"/>
<path d="M188.822 64.9C188.822 64.9 188.822 69.7 189.622 71.6" stroke="#000631" stroke-width="0.7" stroke-linecap="round" stroke-linejoin="round"/>
<path d="M194.322 64.9C194.222 65.5 193.222 73.3 195.122 75.6" stroke="#000631" stroke-width="0.7" stroke-linecap="round" stroke-linejoin="round"/>
<path d="M198.122 66.5C198.122 66.5 197.022 75.2 198.022 76.5" stroke="#000631" stroke-width="0.7" stroke-linecap="round" stroke-linejoin="round"/>
<path d="M202.322 67.6C202.322 67.6 201.822 75.7 202.322 76.8" stroke="#000631" stroke-width="0.7" stroke-linecap="round" stroke-linejoin="round"/>
<path d="M205.622 68.5C205.622 68.5 205.622 76.3 205.622 76.8" stroke="#000631" stroke-width="0.7" stroke-linecap="round" stroke-linejoin="round"/>
<path d="M208.922 67.6C208.922 67.6 210.622 73.6 209.722 75.7" stroke="#000631" stroke-width="0.7" stroke-linecap="round" stroke-linejoin="round"/>
<path d="M210.722 66.1C210.722 66.1 211.522 69.8 211.522 70.8" stroke="#000631" stroke-width="0.7" stroke-linecap="round" stroke-linejoin="round"/>
<path d="M202.122 62.2L202.322 63.9999" stroke="#000631" stroke-width="0.7" stroke-linecap="round" stroke-linejoin="round"/>
<path d="M203.722 62.2C203.922 62.8 204.122 64.9 204.122 64.9" stroke="#000631" stroke-width="0.7" stroke-linecap="round" stroke-linejoin="round"/>
<path d="M204.922 63.1V64" stroke="#000631" stroke-width="0.7" stroke-linecap="round" stroke-linejoin="round"/>
<path d="M212.822 61.9C212.822 61.9 213.122 63.3 212.822 64.9" stroke="#000631" stroke-width="0.7" stroke-linecap="round" stroke-linejoin="round"/>
<path d="M213.922 54C213.922 54 215.122 60.1 214.922 62.2" stroke="#000631" stroke-width="0.7" stroke-linecap="round" stroke-linejoin="round"/>
<path d="M216.322 56.3C216.322 56.3 216.322 60.1001 216.322 62.2001" stroke="#000631" stroke-width="0.7" stroke-linecap="round" stroke-linejoin="round"/>
<path d="M186.522 59.6C186.522 59.6 186.622 63.6 186.922 65.3" stroke="#000631" stroke-width="0.7" stroke-linecap="round" stroke-linejoin="round"/>
<path d="M217.522 59.3V62.5001" stroke="#000631" stroke-width="0.7" stroke-linecap="round" stroke-linejoin="round"/>
<path d="M189.222 54.8C189.922 54.7 196.122 53.2 197.622 54" stroke="#000631" stroke-width="0.7" stroke-linecap="round" stroke-linejoin="round"/>
<path d="M191.322 53.5999C191.322 53.5999 193.822 52.4999 195.122 52.9999" stroke="#000631" stroke-width="0.7" stroke-linecap="round" stroke-linejoin="round"/>
<path d="M209.222 52.9001C209.322 53.1001 212.622 52.2001 213.922 52.9001" stroke="#000631" stroke-width="0.7" stroke-linecap="round" stroke-linejoin="round"/>
<path d="M203.722 54.0001L206.922 53.8C206.922 53.8 208.822 53.8001 211.522 54.0001" stroke="#000631" stroke-width="0.7" stroke-linecap="round" stroke-linejoin="round"/>
<path d="M200.722 54.3H199.322" stroke="#000631" stroke-width="0.7" stroke-linecap="round" stroke-linejoin="round"/>
<path d="M199.322 51.6C199.322 51.6 198.522 50.9 199.122 50.9C199.622 50.9 200.722 52 200.722 52" stroke="#000631" stroke-width="0.7" stroke-linecap="round" stroke-linejoin="round"/>
<path d="M203.422 52C203.422 52 204.822 50.4 204.922 50.9" stroke="#000631" stroke-width="0.7" stroke-linecap="round" stroke-linejoin="round"/>
<path d="M206.122 51.5001C206.122 51.5001 206.622 49.8 205.622 49.3" stroke="#000631" stroke-width="0.7" stroke-linecap="round" stroke-linejoin="round"/>
<path d="M197.522 52C197.522 52 196.622 49.9 197.622 49.6" stroke="#000631" stroke-width="0.7" stroke-linecap="round" stroke-linejoin="round"/>
<path d="M200.722 47.7C200.722 47.7 201.922 47.2 202.722 47.7" stroke="#000631" stroke-width="0.7" stroke-linecap="round" stroke-linejoin="round"/>
<path d="M195.222 41.3L196.322 40.3" stroke="#000631" stroke-width="0.7" stroke-linecap="round" stroke-linejoin="round"/>
<path d="M207.022 39.6L208.322 40.8" stroke="#000631" stroke-width="0.7" stroke-linecap="round" stroke-linejoin="round"/>
<path d="M196.322 34C196.322 34 198.722 37.7 198.622 40.8" stroke="#000631" stroke-width="0.7" stroke-linecap="round" stroke-linejoin="round"/>
<path d="M205.922 33.5C205.922 33.5 204.822 35 204.922 36.2" stroke="#000631" stroke-width="0.7" stroke-linecap="round" stroke-linejoin="round"/>
<path d="M225.822 236.7L228.522 235.6L230.822 248.9L227.522 250.3L225.722 236.7" stroke="#000631" stroke-width="1.3" stroke-linecap="round" stroke-linejoin="round"/>
<path d="M208.222 58.8C208.122 58.1 205.522 56.1 201.722 56.3C197.822 56.5 195.922 59.3 195.922 59.3C194.922 59 202.622 57.3 208.222 58.8Z" stroke="#000631" stroke-width="0.7" stroke-linecap="round" stroke-linejoin="round"/>
<path d="M207.422 30.3C207.422 30.3 214.322 32.4 217.222 31.6" stroke="#000631" stroke-width="1.1" stroke-linecap="round" stroke-linejoin="round"/>
<path d="M187.722 32.9C187.722 32.9 195.122 31.9 197.222 29.7" stroke="#000631" stroke-width="1.1" stroke-linecap="round" stroke-linejoin="round"/>
<path d="M228.922 236.9C228.922 236.9 234.622 234.7 235.922 232.9" stroke="#000631" stroke-width="1.3" stroke-linecap="round" stroke-linejoin="round"/>
<path d="M230.822 247.5C230.822 247.5 235.022 246.4 236.422 244.9" stroke="#000631" stroke-width="1.3" stroke-linecap="round" stroke-linejoin="round"/>
<path d="M154.522 182.5C154.522 182.5 144.022 193.8 141.022 200.2C141.022 200.2 123.122 190.1 116.522 174.1C116.522 174.1 127.622 159.5 130.122 155.5" stroke="#000631" stroke-width="1.3" stroke-linecap="round" stroke-linejoin="round"/>
<path d="M145.722 146.1C145.722 146.1 125.322 157.6 117.322 164C117.322 164 98.1218 151.8 93.3218 135.8C93.3218 135.8 111.122 120.5 114.122 119.2" stroke="#000631" stroke-width="1.3" stroke-linecap="round" stroke-linejoin="round"/>
<path d="M123.722 148.6C118.422 146.4 124.222 147 131.722 147C139.222 147 141.822 146.1 141.822 146.1" stroke="#000631" stroke-width="1.3" stroke-linecap="round" stroke-linejoin="round"/>
<path d="M116.222 141.1C116.222 141.1 145.422 144.5 147.322 143.3C149.322 142.2 137.022 137.9 137.022 137.9" stroke="#000631" stroke-width="1.3" stroke-linecap="round" stroke-linejoin="round"/>
<path d="M179.422 75.7C179.422 75.7 159.222 76.9999 157.722 76.7999C156.222 76.5999 153.422 79.6999 152.122 80.2999C150.922 80.8999 118.522 87.5999 113.922 85.7999C113.922 85.7999 110.422 117.4 117.822 125.5C117.822 125.5 147.622 121.2 152.522 121" stroke="#000631" stroke-width="1.3" stroke-linecap="round" stroke-linejoin="round"/>
<path d="M147.522 121.5C147.522 121.5 125.322 115.5 126.422 111.3C127.422 107 136.022 115 143.422 115.5C150.922 116.1 141.822 103.9 141.822 103.9" stroke="#000631" stroke-width="1.3" stroke-linecap="round" stroke-linejoin="round"/>
<path d="M113.122 90.1C113.122 90.1 75.8218 96 71.5218 96.2C67.2218 96.3 63.0218 100.9 59.8218 103.9C56.6218 107 28.3217 138.4 25.7217 140C23.0217 141.6 4.92183 156.6 3.32183 159.2C1.72183 161.9 0.621758 167.7 1.12176 170.4" stroke="#000631" stroke-width="1.3" stroke-linecap="round" stroke-linejoin="round"/>
<path d="M4.92175 160.3C4.92175 160.3 -0.978319 174.7 2.22168 180.5" stroke="#000631" stroke-width="1.3" stroke-linecap="round" stroke-linejoin="round"/>
<path d="M9.72179 164C9.72179 164 2.82181 171.4 3.12181 174.7C3.32181 177.9 3.82186 186.6 4.92186 188.6" stroke="#000631" stroke-width="1.3" stroke-linecap="round" stroke-linejoin="round"/>
<path d="M14.3218 168C14.3218 168 9.12176 173.6 8.12176 177.3C7.02176 181.1 3.32181 190.2 4.92181 191.5C6.52181 192.8 10.2217 187.5 10.7217 184.3C11.3217 181.1 14.4218 175.2 16.3218 174.1C18.2218 173.1 21.9218 168.3 23.0218 168.8C24.1218 169.3 21.9218 172.7 19.0218 176.3C16.1218 180 14.5217 187.5 18.2217 188C21.9217 188.5 20.0217 183.2 28.2217 174.1C36.3217 165.1 30.4218 155.5 32.6218 152.3" stroke="#000631" stroke-width="1.3" stroke-linecap="round" stroke-linejoin="round"/>
<path d="M32.7217 155.4C32.7217 155.4 34.8218 149.8 48.3218 143.6C61.9218 137.4 72.5217 125.6 74.7217 123C74.3217 123.7 106.322 119.7 114.122 116" stroke="#000631" stroke-width="1.3" stroke-linecap="round" stroke-linejoin="round"/>
<path d="M94.4217 138.8C94.4217 138.8 68.0217 158.8 64.1217 162.5C60.3217 166.1 55.5216 178.4 50.2216 193.3C44.8216 208.2 34.7216 228 34.7216 229C34.7216 230.1 20.2217 246 16.3217 250.3C12.3217 254.6 13.9217 258.3 15.0217 261.5C16.1217 264.7 20.9217 267.4 20.9217 267.4" stroke="#000631" stroke-width="1.3" stroke-linecap="round" stroke-linejoin="round"/>
<path d="M20.9217 254.1C20.9217 254.1 17.3217 258.3 18.6217 259.4C19.8217 260.5 20.9217 262.2 20.9217 262.2" stroke="#000631" stroke-width="1.3" stroke-linecap="round" stroke-linejoin="round"/>
<path d="M21.4216 250.3C21.4216 250.3 19.8216 266.9 21.9216 269.5C24.1216 272.2 26.4216 273.8 26.4216 273.8C26.4216 273.8 27.4216 275.9 28.9216 274.1" stroke="#000631" stroke-width="1.3" stroke-linecap="round" stroke-linejoin="round"/>
<path d="M25.5216 254.1C25.5216 254.1 24.2216 266.1 25.5216 268.1C26.7216 270.1 27.8217 272.7 27.8217 272.7" stroke="#000631" stroke-width="1.3" stroke-linecap="round" stroke-linejoin="round"/>
<path d="M27.8218 258.2C27.8218 258.2 25.8218 270.1 28.9218 274.1C32.0218 278.1 33.6217 279.7 34.7217 279.1C35.8217 278.6 34.7217 273.3 33.1217 270.1C31.5217 266.9 32.7218 264.7 33.4218 263.4C34.2218 262.1 41.1217 254.6 42.2217 254.1C43.2217 253.5 42.5218 260.4 41.3218 262.1C40.0218 263.7 38.9218 270.6 41.9218 272.7C44.8218 274.9 50.6217 253.3 51.2217 248.9C51.8217 244.5 46.0217 240.5 48.6217 236.9C51.2217 233.3 76.6218 202.3 79.9218 191.7C83.2218 181.1 84.1218 179.1 86.8218 176.3C89.6218 173.6 112.222 160.3 112.222 160.3" stroke="#000631" stroke-width="1.3" stroke-linecap="round" stroke-linejoin="round"/>
<path d="M116.522 86.8C116.522 86.8 113.122 110 120.322 125.5" stroke="#000631" stroke-width="1.1" stroke-linecap="round" stroke-linejoin="round"/>
<path d="M95.4219 134C95.4219 134 101.822 150.9 118.922 161.7" stroke="#000631" stroke-width="1.1" stroke-linecap="round" stroke-linejoin="round"/>
<path d="M118.022 172.3C118.022 172.3 127.922 192.1 141.822 197.5" stroke="#000631" stroke-width="1.1" stroke-linecap="round" stroke-linejoin="round"/>
<path d="M138.222 198.9C138.222 198.9 124.622 206.7 122.822 213.3C121.022 220 118.022 232.2 109.122 250.3C100.322 268.5 96.5216 275.9 97.6216 277.5C98.7216 279.1 101.922 284.4 101.922 290.8C101.922 297.2 102.422 302 102.922 303.6C103.522 305.2 101.622 306.2 99.3217 304.7C97.1217 303.1 96.6216 292.7 94.4216 291C94.4216 291 90.8217 299.8 91.8217 304.7C91.8217 304.7 97.6217 309.4 96.8217 313.2C96.0217 317 89.8217 308.9 87.3217 307.9C87.3217 307.9 86.3216 296.4 86.1216 295.5" stroke="#000631" stroke-width="1.3" stroke-linecap="round" stroke-linejoin="round"/>
<path d="M81.1216 295.6C81.1216 295.6 82.1216 304.7 84.4216 306.8C86.4216 308.6 92.4216 312.1 92.4216 312.1" stroke="#000631" stroke-width="1.3" stroke-linecap="round" stroke-linejoin="round"/>
<path d="M77.1217 293.3C77.1217 293.3 77.0218 302.5 79.3218 304.7C81.6218 306.8 84.4218 306.8 84.4218 306.8" stroke="#000631" stroke-width="1.3" stroke-linecap="round" stroke-linejoin="round"/>
<path d="M118.022 177.3C118.022 177.3 99.2217 201.3 97.1217 205.6C94.9217 209.8 84.1217 260.9 84.4217 266C84.4217 266 73.7217 282.9 73.9217 288.5C74.1217 294 74.0217 302.5 76.3217 304.2C78.5217 305.8 79.3217 304.7 79.3217 304.7" stroke="#000631" stroke-width="1.3" stroke-linecap="round" stroke-linejoin="round"/>
<path d="M248.422 176.3C248.422 176.3 261.222 188.5 264.922 193.9C264.922 193.9 283.622 180.3 287.822 165.5L273.522 152.3" stroke="#000631" stroke-width="1.3" stroke-linecap="round" stroke-linejoin="round"/>
<path d="M222.722 73.0001C222.722 73.0001 239.322 73.2001 241.522 73.0001C243.622 72.9001 245.522 73.6 247.222 74.3C248.922 75 280.922 80.9001 286.222 81.4001C286.222 81.4001 288.422 107.5 280.922 119.2C280.922 119.2 254.822 110.3 248.422 109.2" stroke="#000631" stroke-width="1.3" stroke-linecap="round" stroke-linejoin="round"/>
<path d="M257.722 111.7C257.722 111.7 271.322 111.3 274.022 109.1C276.722 107 270.322 106.9 270.322 106.9" stroke="#000631" stroke-width="1.3" stroke-linecap="round" stroke-linejoin="round"/>
<path d="M249.422 106.9C249.422 106.9 262.122 104 266.222 102.3" stroke="#000631" stroke-width="1.3" stroke-linecap="round" stroke-linejoin="round"/>
<path d="M284.122 114.5C284.122 114.5 297.722 118.7 300.522 119.2C300.522 119.2 288.422 151.9 284.122 156.6C284.122 156.6 258.222 145.7 254.622 141.3" stroke="#000631" stroke-width="1.3" stroke-linecap="round" stroke-linejoin="round"/>
<path d="M261.422 145.9C261.722 145.9 277.722 145.9 281.422 142.2" stroke="#000631" stroke-width="1.3" stroke-linecap="round" stroke-linejoin="round"/>
<path d="M246.322 172C246.322 172 269.722 169.3 270.322 170.4C270.822 171.5 256.422 174.7 260.122 175.2C263.922 175.7 271.422 177.7 271.422 177.7" stroke="#000631" stroke-width="1.3" stroke-linecap="round" stroke-linejoin="round"/>
<path d="M282.522 81.4C282.522 81.4 287.322 101.1 278.522 118.4" stroke="#000631" stroke-width="1.1" stroke-linecap="round" stroke-linejoin="round"/>
<path d="M297.322 118.4C297.322 118.4 287.822 146.9 281.422 155.5" stroke="#000631" stroke-width="1.1" stroke-linecap="round" stroke-linejoin="round"/>
<path d="M285.722 165.1C285.722 165.1 274.622 186.4 262.822 191.2" stroke="#000631" stroke-width="1.1" stroke-linecap="round" stroke-linejoin="round"/>
<path d="M268.122 192.6C268.122 192.6 284.622 202.4 285.222 205.6C285.722 208.8 289.022 221.6 298.622 234.9C308.122 248.2 317.222 264.2 316.622 266.3C316.122 268.5 312.422 274.9 312.922 279.1C313.422 283.4 314.022 296.2 314.522 297.2C315.022 298.3 318.822 295.1 319.322 291.9C319.822 288.7 318.822 280.7 320.922 280.2C323.022 279.7 326.222 291.9 325.122 294C324.122 296.2 316.622 300.4 319.822 303.1C319.822 303.1 327.722 301.2 329.122 297.6C330.522 294 330.522 285.5 330.522 283.4" stroke="#000631" stroke-width="1.3" stroke-linecap="round" stroke-linejoin="round"/>
<path d="M335.822 284.4C335.822 284.4 332.522 298.6 329.122 297.6" stroke="#000631" stroke-width="1.3" stroke-linecap="round" stroke-linejoin="round"/>
<path d="M339.022 282.9C339.022 282.9 339.022 289.8 336.922 291.9C334.722 294 332.522 295 332.522 295" stroke="#000631" stroke-width="1.3" stroke-linecap="round" stroke-linejoin="round"/>
<path d="M286.822 170.2C286.822 170.2 306.922 187.5 309.122 193.9C311.322 200.2 315.022 210.4 318.222 222.1C321.422 233.8 328.322 256.7 328.322 256.7C328.322 256.7 339.022 270.2 341.122 276.2C343.322 282.3 340.022 290.2 338.422 291.1" stroke="#000631" stroke-width="1.3" stroke-linecap="round" stroke-linejoin="round"/>
<path d="M286.822 152.3C287.322 152.3 324.622 161.3 329.922 164C335.322 166.7 337.022 166.1 339.322 165.1C341.722 164 365.122 140.6 373.622 131.5C382.222 122.4 384.822 119.8 385.922 119.8C387.022 119.8 395.522 121.4 399.822 120.3C404.022 119.2 407.722 116.6 411.522 116.1C415.222 115.5 414.122 112.9 410.922 112.9C407.722 112.9 402.922 113.4 400.322 112.9C397.622 112.3 410.122 109 413.222 109.3C416.322 109.7 421.922 111.1 423.622 109.3C425.322 107.5 421.122 106.5 418.922 105.9C416.822 105.4 408.522 104.3 404.922 105.9" stroke="#000631" stroke-width="1.3" stroke-linecap="round" stroke-linejoin="round"/>
<path d="M404.522 102.3C404.522 102.3 412.022 100.1 415.222 101.1C418.422 102.2 422.522 104.7 422.822 106.9" stroke="#000631" stroke-width="1.3" stroke-linecap="round" stroke-linejoin="round"/>
<path d="M419.222 102.3C419.222 102.3 417.922 100.1 415.222 98.5C412.522 96.9 401.922 98.5 401.922 98.5C401.922 98.5 405.222 95.9 406.822 96.7C408.322 97.4 409.322 97.4 409.322 97.4" stroke="#000631" stroke-width="1.3" stroke-linecap="round" stroke-linejoin="round"/>
<path d="M298.322 125.2C301.222 125.8 334.222 136.9 334.222 136.9C339.622 133.9 376.322 109.7 378.022 109.3C379.722 109 379.522 105.9 385.822 100.4C392.122 94.8001 397.622 93.7 400.822 92.6C404.022 91.5 412.522 94.7001 412.522 94.7001C412.522 94.7001 415.022 94.9 415.622 96.1C416.322 97.4 415.222 98.5001 415.222 98.5001" stroke="#000631" stroke-width="1.3" stroke-linecap="round" stroke-linejoin="round"/>
<path d="M284.022 112.2C284.022 112.2 314.822 115.9 321.622 114.7C328.322 113.4 329.922 110.2 331.022 108.6C332.122 107 353.222 62.2 355.422 60.9C357.722 59.6 365.622 60.0999 369.922 55.7999C374.222 51.5999 383.822 42 384.322 40.4C384.822 38.8 380.622 38.2 378.522 40.4C376.322 42.5 371.522 45.1999 370.422 44.5999C369.422 44.0999 370.422 42.5 371.022 40.9C371.522 39.3 374.722 32.4 377.422 32.4C380.022 32.4 389.822 31.7999 390.722 28.0999C391.222 25.9999 384.322 26.4999 376.322 27.5999C376.322 27.5999 372.622 28.0999 371.022 30.2999" stroke="#000631" stroke-width="1.3" stroke-linecap="round" stroke-linejoin="round"/>
<path d="M366.722 28.1C366.722 28.1 372.022 22.8 377.422 22.3C382.722 21.7 388.022 22.8 389.122 23.3C390.222 23.9 389.622 26.8 386.722 26.7" stroke="#000631" stroke-width="1.3" stroke-linecap="round" stroke-linejoin="round"/>
<path d="M361.322 26.7C361.322 26.7 367.822 20.1 371.522 20.1C375.222 20.1 380.722 22 382.222 22.1" stroke="#000631" stroke-width="1.3" stroke-linecap="round" stroke-linejoin="round"/>
<path d="M371.522 20.1C371.522 20.1 364.422 18.5 361.322 20.1C358.222 21.7 352.922 32.4001 350.722 37.2001C348.622 42.0001 347.522 48.9001 344.922 53.2001C342.222 57.4001 321.922 74.5001 311.822 86.7001C309.822 89.2001 286.822 85.4001 286.822 85.4001" stroke="#000631" stroke-width="1.3" stroke-linecap="round" stroke-linejoin="round"/>
<path d="M187.722 37.7C187.722 37.7 191.022 35.5 193.422 36.2C195.922 36.9 197.022 38.6 197.022 38.6C197.022 38.6 193.922 40.2 191.422 39.6C189.022 39 187.922 38 187.922 38" stroke="#000631" stroke-width="0.5" stroke-linecap="round" stroke-linejoin="round"/>
<path d="M207.422 37.7C207.422 37.7 210.722 35.5 213.222 36.2C215.622 36.9 216.822 38.6 216.822 38.6C216.822 38.6 213.622 40.2 211.222 39.6C208.722 39 207.622 38 207.622 38" stroke="#000631" stroke-width="0.5" stroke-linecap="round" stroke-linejoin="round"/>
<path d="M193.422 36.2C193.422 36.2 192.122 38.9999 194.522 39.4999" stroke="#000631" stroke-width="0.5" stroke-linecap="round" stroke-linejoin="round"/>
<path d="M211.622 36.2C211.622 36.2 210.722 38.3999 212.622 39.4999" stroke="#000631" stroke-width="0.5" stroke-linecap="round" stroke-linejoin="round"/>
</svg>
