<svg width="351" height="493" viewBox="0 0 351 493" fill="none" xmlns="http://www.w3.org/2000/svg">
<path d="M203.027 34.2194C203.027 34.2194 201.127 31.4194 200.727 32.0194C200.227 32.6194 199.127 35.0194 199.227 36.3194C199.227 37.6194 198.127 45.9194 199.227 47.0194C200.227 48.0194 201.427 49.9194 202.027 49.9194C202.727 50.0194 204.927 49.7194 204.927 49.7194C204.927 49.7194 206.027 58.2194 206.327 59.8194C206.727 61.3194 213.127 67.0194 213.127 67.0194C213.127 67.0194 200.427 76.0194 200.127 77.1194C199.727 78.2194 199.227 80.1194 199.227 80.1194C199.227 80.1194 174.727 95.7194 174.327 95.6194C174.027 95.5194 170.827 95.0194 170.427 96.0194C170.027 97.0194 166.327 100.519 165.427 101.719C164.627 103.019 148.227 116.819 148.227 116.819L148.727 123.819L136.327 132.719L111.727 104.919C111.727 104.919 96.7271 88.1194 96.2271 87.6194C95.7271 87.1194 89.0271 73.5194 87.7271 71.4194C86.3271 69.3194 80.3271 67.2194 80.3271 67.2194C80.3271 67.2194 74.327 65.0194 72.627 65.1194C70.927 65.3194 68.7271 64.4194 67.8271 65.1194C67.0271 65.8194 65.7271 66.3194 64.8271 66.0194C64.0271 65.8194 60.227 65.8194 58.627 66.1194C57.127 66.3194 54.027 66.8194 54.027 66.8194L61.927 71.4194C61.927 71.4194 70.627 73.5194 71.527 74.9194C72.427 76.2194 74.927 80.7194 74.927 81.9194C74.927 83.1194 71.1271 86.1194 70.7271 86.3194C70.4271 86.6194 66.5271 85.9194 64.3271 85.3194C62.0271 84.6194 58.527 83.1194 57.627 83.1194C56.627 83.1194 53.327 85.1194 53.427 85.8194C53.627 86.6194 55.4271 87.9194 55.7271 88.2194C56.1271 88.6194 71.2271 97.1194 74.3271 98.3194C77.4271 99.5194 81.427 98.8194 82.627 98.9194C83.827 99.0194 87.4271 100.119 89.3271 103.019C91.2271 105.919 103.427 125.419 106.527 133.719C109.627 142.119 126.127 160.919 126.127 160.919C126.127 160.919 131.327 167.319 132.327 167.319C133.427 167.419 136.327 167.319 141.027 164.119C145.727 160.919 154.727 154.719 154.727 154.719L162.827 147.819L168.027 151.019L185.927 136.219C185.927 136.219 189.627 156.219 189.027 156.619C188.327 157.019 189.827 183.219 189.827 183.219C189.827 183.219 189.227 214.719 189.327 215.319C189.327 215.919 187.427 239.219 187.427 239.219C187.427 239.219 191.827 241.919 192.127 242.019L191.427 257.619L188.827 296.219C188.827 296.219 188.927 314.519 188.427 320.419C187.927 326.419 189.027 336.519 189.027 336.519L189.927 351.119C189.927 351.119 190.327 358.719 190.327 360.119C190.327 361.619 188.027 363.519 188.227 364.519C188.327 365.519 188.827 366.819 188.527 368.419C188.327 370.019 188.027 381.419 188.027 381.419L187.627 407.719L187.327 436.819C187.327 436.819 188.127 451.419 187.827 453.019C187.427 454.719 183.627 458.019 183.027 458.619C182.427 459.219 182.627 459.819 183.227 460.019C183.927 460.219 183.627 459.719 183.227 460.719C182.927 461.719 178.127 467.919 176.627 468.519C175.027 469.119 170.127 471.419 168.327 472.219C166.527 473.019 165.627 475.119 165.627 476.619C165.627 478.019 164.927 482.919 166.027 483.919C167.027 484.919 166.527 485.919 166.527 485.919C166.527 485.919 165.627 486.619 166.127 487.319C166.527 487.919 169.227 489.019 172.827 489.219C176.527 489.419 183.427 489.319 186.627 488.119C189.827 486.919 193.027 484.219 193.927 483.319C194.827 482.519 198.427 478.019 199.127 477.819C199.727 477.519 200.427 476.119 200.827 475.819C201.227 475.519 208.827 472.819 208.827 472.819C208.827 472.819 210.927 471.219 211.327 470.619C211.627 470.119 212.427 463.819 212.427 463.819C212.427 463.819 213.127 462.019 212.827 461.119C212.627 460.219 213.327 458.419 214.027 457.519C214.627 456.719 215.927 454.119 215.827 453.419C215.627 452.719 215.127 450.819 215.627 449.819C216.127 448.819 218.327 445.219 219.427 444.319C220.627 443.319 219.627 438.419 219.627 438.419C219.627 438.419 217.627 435.419 218.127 426.519C218.627 417.619 220.127 399.919 220.127 399.919C220.127 399.919 221.427 385.419 221.227 383.719C221.027 381.919 220.127 365.519 220.127 365.519L222.727 350.219C222.727 350.219 225.827 334.619 225.927 334.519C226.027 334.319 231.627 316.719 232.527 313.819C233.427 311.019 239.227 284.919 239.227 284.919L244.327 285.219L247.227 301.219L252.027 322.619C252.027 322.619 256.627 339.219 256.427 340.719C256.227 342.319 260.727 355.519 260.727 355.519C260.727 355.519 264.127 370.419 264.627 372.219C265.127 374.019 268.127 395.819 268.127 395.819C268.127 395.819 271.327 424.719 271.727 425.619C272.127 426.519 272.527 443.519 272.527 443.519C272.527 443.519 272.927 455.219 273.727 455.719C274.627 456.219 274.827 457.919 274.727 458.819C274.627 459.719 274.927 461.419 275.427 462.019C276.027 462.619 279.427 468.319 279.427 468.319C279.427 468.319 278.327 472.219 279.427 473.919C280.527 475.519 284.127 477.119 286.827 476.519C286.827 476.519 289.827 481.219 290.627 482.319C291.427 483.519 291.327 485.519 291.627 486.019C291.927 486.419 298.527 490.919 300.927 491.719C303.327 492.419 313.727 488.819 314.727 488.619C315.727 488.419 317.327 487.819 318.027 486.919C318.627 485.919 319.227 482.319 319.227 481.219C319.127 480.019 318.327 478.719 318.327 478.719C318.327 478.719 318.327 476.719 317.527 475.119C316.727 473.519 310.427 470.519 309.127 468.819C307.727 467.119 302.927 459.119 302.927 459.119C302.927 459.119 302.327 457.219 302.327 456.219C302.327 455.219 303.027 448.319 302.927 447.019C302.827 445.819 300.627 441.719 300.627 441.719C300.627 441.719 299.827 439.919 299.327 434.919C298.827 429.919 297.527 402.419 297.527 402.419L293.827 370.219C293.827 370.219 293.427 365.019 293.427 364.319C293.427 363.619 291.627 349.319 291.527 346.519C291.427 343.719 290.427 316.019 290.427 316.019L289.827 281.619L288.927 251.119L287.927 235.719C287.927 235.719 292.427 230.519 292.927 230.119C293.427 229.819 291.227 220.019 291.227 220.019L286.927 191.519L282.927 160.619L281.527 140.119C281.527 140.119 285.927 147.119 286.427 147.119C286.927 147.119 288.527 146.819 288.527 146.719C288.427 146.619 300.727 171.119 301.227 173.219C301.827 175.319 304.527 190.219 306.627 195.919C308.727 201.619 312.827 208.319 312.827 208.319C312.827 208.319 319.227 221.819 319.227 223.119C319.127 224.319 316.427 233.219 317.027 235.019C317.727 236.719 319.027 242.219 319.127 242.719C319.127 243.219 321.027 256.919 321.527 257.219C322.127 257.519 323.527 255.719 324.627 253.419C325.627 251.119 324.727 246.419 324.427 244.819C324.127 243.219 323.427 240.519 324.527 240.419C325.627 240.219 326.727 242.019 327.627 243.119C328.627 244.219 331.427 252.719 331.527 254.419C331.527 256.119 330.727 264.419 331.927 264.919C333.027 265.519 333.827 263.619 333.827 263.619C333.827 263.619 333.927 266.819 335.427 267.619C337.027 268.419 337.427 266.819 337.727 266.419C338.027 266.019 338.827 263.719 338.827 263.719C338.827 263.719 339.527 266.719 341.027 266.119C342.427 265.519 344.127 258.619 344.127 258.619C344.127 258.619 345.427 262.119 346.427 262.519C347.427 263.019 349.027 261.819 348.927 260.619C348.927 259.519 349.527 248.219 348.927 245.419C348.427 242.719 345.827 234.319 344.927 232.819C343.927 231.319 334.527 220.919 334.527 220.919L324.727 178.519C324.727 178.519 320.427 162.919 320.027 160.719C319.627 158.519 312.827 140.119 312.827 140.119L308.127 127.419C308.127 127.419 310.527 123.019 310.627 120.919C310.727 118.819 307.627 115.619 307.627 115.619C307.627 115.619 289.127 87.8194 287.827 87.0194C286.427 86.1194 256.227 74.7194 256.227 74.7194C256.227 74.7194 254.127 70.0194 253.227 69.6194C252.327 69.3194 239.927 61.3194 239.927 61.3194L239.527 58.0194L240.527 54.5194C240.527 54.5194 241.627 54.4194 242.727 54.2194C243.827 53.9194 245.927 48.9194 246.627 47.4194C247.327 46.0194 247.427 40.5194 247.127 39.1194C246.827 37.6194 245.927 36.9194 245.927 36.9194C245.927 36.9194 248.627 30.6194 249.727 28.1194C250.827 25.7194 250.427 23.5194 250.927 19.9194C251.327 16.3194 249.927 11.7194 248.827 10.5194C247.827 9.31938 237.127 3.91941 236.027 3.41941C234.927 2.91941 229.527 1.11938 229.027 1.01938C228.527 0.919383 226.427 1.21936 225.227 1.61936C224.027 1.91936 222.027 3.71939 222.027 3.71939C222.027 3.71939 215.627 1.21938 212.627 2.01938C209.727 2.91938 207.227 4.21938 206.527 6.01938C205.727 7.81938 204.327 9.91937 204.227 11.3194C204.227 12.8194 203.927 15.9194 203.927 15.9194C203.927 15.9194 202.627 17.0194 202.127 18.4194C201.727 19.7194 201.227 22.5194 201.227 24.1194C201.227 25.7194 203.827 34.3194 203.027 34.2194Z" fill="white"/>
<path d="M269.127 242.219C269.127 242.219 268.127 225.319 268.227 224.919C268.327 224.419 267.527 221.319 267.527 221.319L266.927 219.519L264.527 220.419L264.227 221.819C264.227 221.819 255.227 223.419 254.227 223.419C253.227 223.419 244.327 224.319 239.727 223.819C235.127 223.219 226.527 222.419 224.827 222.619C223.027 222.819 223.527 221.919 223.527 221.919C223.527 221.919 222.027 221.419 221.627 221.319C221.127 221.319 219.827 221.819 219.827 221.819C219.827 221.819 210.127 220.419 208.227 219.919C206.227 219.419 205.227 219.519 205.227 219.519C205.227 219.519 203.727 240.219 203.727 241.219C203.727 242.219 203.227 243.219 202.727 244.219C202.227 245.219 201.227 245.219 199.627 244.919C197.927 244.619 193.327 243.219 192.127 242.019L191.427 257.619L188.827 296.219C188.827 296.219 188.927 314.519 188.427 320.419C187.927 326.419 189.027 336.519 189.027 336.519L189.927 351.119C189.927 351.119 190.327 358.719 190.327 360.119C190.327 361.619 188.027 363.519 188.227 364.519C188.327 365.519 188.827 366.819 188.527 368.419C188.327 370.019 188.027 381.419 188.027 381.419L187.627 407.719L187.327 436.819C187.327 436.819 188.127 451.419 187.827 453.019C187.427 454.719 183.627 458.019 183.027 458.619C182.427 459.219 182.627 459.819 183.227 460.019C183.927 460.219 183.627 459.819 183.327 460.619C184.027 460.419 184.427 460.219 184.427 460.219C184.427 460.219 189.327 459.719 190.827 459.219C192.327 458.719 196.827 459.219 197.627 459.519C198.427 459.819 210.127 463.619 212.427 463.819C212.427 463.819 213.127 462.019 212.827 461.119C212.627 460.219 213.327 458.419 214.027 457.519C214.627 456.719 215.927 454.119 215.827 453.419C215.627 452.719 215.127 450.819 215.627 449.819C216.127 448.819 218.327 445.219 219.427 444.319C220.627 443.319 219.627 438.419 219.627 438.419C219.627 438.419 217.627 435.419 218.127 426.519C218.627 417.619 220.127 399.919 220.127 399.919C220.127 399.919 221.427 385.419 221.227 383.719C221.027 381.919 220.127 365.519 220.127 365.519L222.727 350.219C222.727 350.219 225.827 334.619 225.927 334.519C226.027 334.319 231.627 316.719 232.527 313.819C233.427 311.019 239.227 284.919 239.227 284.919L244.327 285.219L247.227 301.219L252.027 322.619C252.027 322.619 256.627 339.219 256.427 340.719C256.227 342.319 260.727 355.519 260.727 355.519C260.727 355.519 264.127 370.419 264.627 372.219C265.127 374.019 268.127 395.819 268.127 395.819C268.127 395.819 271.327 424.719 271.727 425.619C272.127 426.519 272.527 443.519 272.527 443.519C272.527 443.519 272.927 455.219 273.727 455.719C274.627 456.219 274.827 457.919 274.727 458.819C274.627 459.719 274.927 461.419 275.427 462.019C276.027 462.619 279.427 468.319 279.427 468.319C281.827 467.919 283.027 464.619 284.627 463.619C286.327 462.719 287.927 462.119 288.927 461.719C289.927 461.219 293.927 460.719 294.927 460.419C296.027 460.219 302.827 459.219 302.927 459.119C302.927 459.119 302.327 457.219 302.327 456.219C302.327 455.219 303.027 448.319 302.927 447.019C302.827 445.819 300.627 441.719 300.627 441.719C300.627 441.719 299.827 439.919 299.327 434.919C298.827 429.919 297.527 402.419 297.527 402.419L293.827 370.219C293.827 370.219 293.427 365.019 293.427 364.319C293.427 363.619 291.627 349.319 291.527 346.519C291.427 343.719 290.427 316.019 290.427 316.019L289.827 281.619L288.927 251.119L287.927 235.719C287.927 235.719 285.927 237.719 277.327 240.219C268.727 242.819 269.127 242.219 269.127 242.219Z" fill="#344A6B"/>
<path d="M192.127 242.019C191.994 241.953 191.86 241.886 191.727 241.819C191.927 241.953 192.06 242.019 192.127 242.019Z" fill="#344A6B"/>
<path d="M187.427 239.219C187.427 239.219 196.827 246.119 202.727 244.219C202.727 244.219 205.227 235.419 205.227 219.519C205.227 203.519 206.227 162.919 206.227 162.919C206.227 162.919 206.727 102.019 206.727 101.519C206.727 101.019 207.727 89.6194 208.227 87.6194C208.727 85.6194 210.927 76.2194 210.927 76.2194L212.527 72.0194L213.127 70.3194V67.0194L200.127 77.1194L199.227 80.1194L174.327 95.6194C174.327 95.6194 170.327 96.0194 170.427 96.0194C170.527 96.0194 166.827 100.019 165.427 101.719C164.127 103.519 148.227 116.819 148.227 116.819C148.227 116.819 148.927 127.719 152.327 134.419C155.627 141.119 163.827 151.019 168.027 151.019L185.927 136.219L188.227 154.519C188.227 154.519 188.727 168.819 189.027 171.019C189.327 173.319 189.827 200.319 189.627 206.919C189.327 213.419 188.327 237.219 187.427 239.219Z" fill="#6BD4CD"/>
<path d="M269.127 242.219C269.127 242.219 284.427 241.419 292.927 230.119L287.227 193.619L282.927 160.619L281.527 140.119L286.427 147.119C286.427 147.119 293.427 145.119 300.327 137.619C307.227 130.219 310.027 124.019 310.627 120.919L305.727 112.719C305.727 112.719 289.627 88.3193 287.827 87.0193C285.927 85.6193 256.227 74.7194 256.227 74.7194C256.227 74.7194 255.127 70.5193 253.227 69.6193C251.327 68.8193 239.927 61.3193 239.927 61.3193L241.327 71.4194L242.527 74.3193L246.827 101.519C246.827 101.519 251.827 121.319 255.227 138.619C258.727 156.019 264.327 191.019 265.927 193.319C267.627 195.619 267.627 209.419 267.627 209.419L269.127 242.219Z" fill="#6BD4CD"/>
<path d="M213.127 70.3194C213.127 70.3194 215.127 73.6194 219.327 74.7194C223.527 75.7194 229.527 73.7194 232.227 70.8194C234.927 67.8194 237.827 60.6194 237.827 60.6194C237.827 60.6194 228.827 69.8194 226.227 70.8194C226.227 70.8194 216.627 69.8194 215.627 69.3194C214.627 68.8194 213.127 67.0194 213.127 67.0194V70.3194Z" fill="#000631"/>
<path d="M231.027 35.5194C231.027 35.6194 230.527 36.9194 231.227 37.5194C231.927 38.1194 232.827 38.0194 232.827 38.0194C232.827 38.0194 233.627 36.8194 233.727 36.4194C233.927 36.1194 232.927 35.1194 232.927 35.1194C232.927 35.1194 231.027 34.9194 231.027 35.5194Z" fill="#000631"/>
<path d="M212.927 33.1194C212.927 33.1194 212.727 33.6194 212.727 34.3194C212.627 35.1194 213.927 35.5194 213.927 35.5194C213.927 35.5194 214.827 34.8194 215.227 34.2194C215.627 33.6194 214.927 32.9194 214.927 32.9194L212.927 33.1194Z" fill="#000631"/>
<path d="M289.327 148.019C289.327 148.019 295.427 146.119 300.327 141.619C305.327 137.119 308.727 129.719 308.727 129.719C308.727 129.719 308.127 128.019 308.127 128.119C308.227 128.219 301.727 136.319 299.027 139.419C296.427 142.619 288.527 146.819 288.527 146.719C288.427 146.619 289.327 148.019 289.327 148.019Z" fill="#000631"/>
<path d="M149.227 123.419C149.227 123.419 150.727 132.719 153.727 137.619C156.627 142.619 162.827 147.819 162.827 147.819L160.627 149.019C160.627 149.019 154.227 145.119 150.727 138.119C147.227 131.219 146.727 125.819 146.727 125.819L149.227 123.419Z" fill="#6BD4CD"/>
<path d="M2.62683 72.3194C2.62683 72.3194 2.92693 70.3194 4.72693 69.0194C6.52693 67.8194 14.5269 62.1194 14.5269 62.1194C14.5269 62.1194 15.7269 56.8194 16.8269 56.1194C17.9269 55.4194 22.4269 54.4194 23.9269 54.4194C25.4269 54.4194 34.1269 54.5194 36.7269 54.9194C39.2269 55.4194 41.1269 55.8194 41.7269 56.9194C42.2269 57.9194 44.4269 62.6194 44.4269 62.6194L57.6268 68.5194C57.6268 68.5194 64.0269 71.5194 65.0269 74.4194C66.0269 77.2194 67.9269 84.1194 67.9269 86.1194C67.9269 86.1194 59.5268 84.1194 57.6268 83.1194C55.6268 82.2194 53.3269 84.6194 53.4269 85.8194C53.6269 87.1194 61.4269 91.6194 62.0269 91.8194C62.5269 92.1194 69.8269 96.5194 69.8269 96.5194L74.9269 129.219L69.9269 132.019L70.5269 166.919L71.9269 221.919C71.9269 221.919 66.1269 232.319 48.9269 235.019C48.9269 235.019 39.0269 236.819 34.2269 234.019C29.3269 231.319 14.9269 220.919 14.9269 220.919L13.5269 165.919L11.1268 122.519C11.1268 122.519 8.6269 123.019 5.8269 121.719C3.1269 120.319 1.02686 117.819 1.02686 117.819L1.52686 82.8194L2.62683 72.3194Z" fill="#6BD4CD"/>
<path d="M37.2268 62.1194L33.3268 65.8194C33.3268 65.8194 29.4267 66.2195 28.1267 65.5195C26.8267 64.8195 19.2268 66.0195 19.2268 66.0195L18.9268 61.6194L23.9268 60.9195C23.9268 60.9195 23.9267 56.4195 24.6267 54.4195C25.4267 52.4195 26.3268 51.8194 26.3268 51.1194C26.3268 50.5194 31.0267 47.8195 32.1267 45.9195C33.3267 44.0195 35.2267 39.4195 31.0267 38.0195C26.8267 36.6195 24.7267 39.4195 23.5267 40.5195C22.4267 41.5195 20.9268 41.6194 20.7268 41.1194C20.4268 40.5194 19.6268 39.4195 20.2268 39.0195C20.9268 38.6195 22.5268 35.0194 27.2268 33.8194C31.8268 32.6194 35.5267 35.6194 37.6267 38.1194C39.7267 40.5194 37.7268 46.5195 37.2268 47.0195C36.7268 47.5195 34.8268 50.0195 32.3268 51.9195C29.8268 53.9195 28.8268 57.4195 28.8268 58.9195C28.8268 60.4195 29.3268 61.3194 29.3268 61.3194L37.2268 62.1194Z" fill="#E58D00"/>
<path d="M207.227 21.8193C207.227 21.8193 205.427 32.0194 204.527 34.9194C203.627 37.8194 205.227 55.2193 206.227 58.8193C207.127 61.9193 213.327 67.4193 215.327 69.0193C215.727 69.3527 216.16 69.5527 216.627 69.6193L225.727 70.8193C226.327 70.9193 226.927 70.7193 227.427 70.3193C229.527 68.4193 236.127 62.6193 238.027 60.3193C240.327 57.6193 243.527 40.1193 243.527 40.1193" stroke="#000631" stroke-width="1.2" stroke-linecap="round" stroke-linejoin="round"/>
<path d="M240.827 62.3193C240.827 62.3193 253.927 69.9194 254.427 70.4194C254.927 70.9194 259.527 82.0194 261.127 83.9194C261.127 83.9194 253.627 82.8194 252.527 80.9194" stroke="#000631" stroke-width="1.2" stroke-linecap="round" stroke-linejoin="round"/>
<path d="M254.027 72.4194C254.027 72.4194 252.127 74.5194 251.927 79.0194C251.727 83.5194 249.827 111.719 251.827 120.319C253.827 128.919 263.227 184.319 265.627 192.619C268.127 200.919 268.627 242.719 268.627 242.719C268.627 242.719 285.427 240.719 292.927 230.519C292.927 230.519 282.027 162.919 282.027 148.519" stroke="#000631" stroke-width="1.2" stroke-linecap="round" stroke-linejoin="round"/>
<path d="M281.527 140.119C281.527 140.119 282.727 180.319 284.027 194.119C285.327 207.919 285.527 208.519 285.527 208.519" stroke="#000631" stroke-width="1.2" stroke-linecap="round" stroke-linejoin="round"/>
<path d="M270.127 121.319C270.127 121.319 282.727 142.819 286.427 147.119C286.427 147.119 296.427 143.919 305.127 132.019C313.827 120.019 309.627 118.719 309.627 118.719C309.627 118.719 289.327 87.5194 287.127 86.4194C279.927 82.8194 258.527 76.1193 256.327 74.3193" stroke="#000631" stroke-width="1.2" stroke-linecap="round" stroke-linejoin="round"/>
<path d="M280.027 130.719C280.027 130.719 277.727 114.619 276.227 112.719" stroke="#000631" stroke-width="1.2" stroke-linecap="round" stroke-linejoin="round"/>
<path d="M285.527 145.119C285.527 145.119 303.827 137.619 309.727 118.819" stroke="#000631" stroke-linecap="round" stroke-linejoin="round"/>
<path d="M188.027 125.619L184.727 137.019C181.927 132.219 184.327 113.919 184.327 113.919" stroke="#000631" stroke-width="1.2" stroke-linecap="round" stroke-linejoin="round"/>
<path d="M189.427 130.719L187.027 136.819" stroke="#000631" stroke-width="1.2" stroke-linecap="round" stroke-linejoin="round"/>
<path d="M184.727 137.019L167.527 151.019C167.527 151.019 159.627 147.119 153.727 137.119C149.427 130.119 148.227 116.819 148.227 116.819C148.227 116.819 169.027 99.5194 170.127 96.6194C170.827 94.7194 173.027 96.0194 174.527 95.4194C175.927 94.8194 199.227 80.1194 199.227 80.1194" stroke="#000631" stroke-width="1.2" stroke-linecap="round" stroke-linejoin="round"/>
<path d="M212.227 67.7195C212.227 67.7195 199.827 76.5195 199.827 77.5195C199.827 78.5195 197.927 89.6195 195.727 93.2195C195.727 93.2195 201.027 90.9195 202.827 88.3195" stroke="#000631" stroke-width="1.2" stroke-linecap="round" stroke-linejoin="round"/>
<path d="M199.827 77.5194C199.827 77.5194 203.927 89.5194 207.027 99.6194" stroke="#000631" stroke-width="1.2" stroke-linecap="round" stroke-linejoin="round"/>
<path d="M242.027 69.6194C242.027 69.6194 242.927 79.6194 245.327 93.6194C247.627 106.319 253.227 126.319 253.227 126.319" stroke="#000631" stroke-width="1.2" stroke-linecap="round" stroke-linejoin="round"/>
<path d="M208.927 83.8193C208.927 83.8193 213.827 94.7193 227.727 95.6193C235.327 96.1193 240.427 91.4193 243.527 87.1193" stroke="#000631" stroke-width="1.2" stroke-linecap="round" stroke-linejoin="round"/>
<path d="M153.727 117.819C153.727 117.819 164.727 106.519 166.127 103.519" stroke="#000631" stroke-width="1.2" stroke-linecap="round" stroke-linejoin="round"/>
<path d="M149.727 115.819C149.727 115.819 151.727 139.619 169.527 149.519" stroke="#000631" stroke-linecap="round" stroke-linejoin="round"/>
<path d="M185.927 135.219C185.927 135.219 191.427 175.219 193.427 182.619" stroke="#000631" stroke-width="1.2" stroke-linecap="round" stroke-linejoin="round"/>
<path d="M187.927 148.019C187.927 148.019 192.327 200.619 187.427 239.219C187.427 239.219 197.327 246.219 202.727 244.719C206.227 243.719 206.427 124.319 206.827 104.919C207.127 85.6194 212.527 71.4194 212.527 71.4194" stroke="#000631" stroke-width="1.2" stroke-linecap="round" stroke-linejoin="round"/>
<path d="M207.227 191.219C208.027 191.319 218.427 209.019 228.627 214.319" stroke="#000631" stroke-width="1.2" stroke-linecap="round" stroke-linejoin="round"/>
<path d="M210.427 184.119C210.427 184.119 215.227 189.819 220.827 192.019" stroke="#000631" stroke-width="1.2" stroke-linecap="round" stroke-linejoin="round"/>
<path d="M261.727 182.719C261.727 182.719 247.927 198.319 242.327 195.219" stroke="#000631" stroke-width="1.2" stroke-linecap="round" stroke-linejoin="round"/>
<path d="M265.627 192.619C265.627 192.619 259.627 198.019 257.727 199.119" stroke="#000631" stroke-width="1.2" stroke-linecap="round" stroke-linejoin="round"/>
<path d="M224.327 222.619C235.427 224.019 249.827 224.919 264.027 221.319" stroke="#000631" stroke-width="1.2" stroke-linecap="round" stroke-linejoin="round"/>
<path d="M205.227 218.919C205.227 218.919 211.727 220.719 218.927 221.819" stroke="#000631" stroke-width="1.2" stroke-linecap="round" stroke-linejoin="round"/>
<path d="M208.127 89.0194C208.127 89.0194 215.327 99.8194 229.927 98.3194C237.027 97.6194 241.527 94.0194 244.327 90.6194" stroke="#000631" stroke-linecap="round" stroke-linejoin="round"/>
<path d="M224.027 233.719C235.227 235.119 250.427 235.419 264.927 231.319" stroke="#000631" stroke-width="1.2" stroke-linecap="round" stroke-linejoin="round"/>
<path d="M204.727 229.819C204.727 229.819 211.027 231.819 218.527 233.019" stroke="#000631" stroke-width="1.2" stroke-linecap="round" stroke-linejoin="round"/>
<path d="M250.927 233.819L250.327 223.519" stroke="#000631" stroke-width="1.2" stroke-linecap="round" stroke-linejoin="round"/>
<path d="M239.727 235.319C239.727 235.319 243.427 274.019 241.527 283.919" stroke="#000631" stroke-width="1.2" stroke-linecap="round" stroke-linejoin="round"/>
<path d="M241.927 268.619C241.927 268.619 245.927 268.519 247.927 266.019C249.927 263.619 249.427 235.319 249.427 235.319" stroke="#000631" stroke-width="1.2" stroke-linecap="round" stroke-linejoin="round"/>
<path d="M238.527 284.919H245.027C245.027 284.919 270.227 267.519 275.627 268.019C281.127 268.519 271.727 271.019 271.727 271.019" stroke="#000631" stroke-width="1.2" stroke-linecap="round" stroke-linejoin="round"/>
<path d="M256.327 279.919C256.327 279.919 270.227 275.519 273.727 275.019" stroke="#000631" stroke-width="1.2" stroke-linecap="round" stroke-linejoin="round"/>
<path d="M217.727 272.519C217.727 272.519 229.627 275.919 233.527 278.419" stroke="#000631" stroke-width="1.2" stroke-linecap="round" stroke-linejoin="round"/>
<path d="M201.327 274.519C201.327 274.519 204.327 274.519 213.727 276.419C223.127 278.419 239.727 282.919 239.727 282.919" stroke="#000631" stroke-width="1.2" stroke-linecap="round" stroke-linejoin="round"/>
<path d="M201.327 252.019C202.327 252.719 229.127 260.619 230.127 262.119C231.027 263.619 222.627 261.119 222.627 261.119" stroke="#000631" stroke-width="1.2" stroke-linecap="round" stroke-linejoin="round"/>
<path d="M257.927 256.319C257.927 256.319 272.227 252.319 273.727 252.019" stroke="#000631" stroke-width="1.2" stroke-linecap="round" stroke-linejoin="round"/>
<path d="M264.227 257.319L270.927 256.319" stroke="#000631" stroke-width="1.2" stroke-linecap="round" stroke-linejoin="round"/>
<path d="M192.327 242.719C192.327 245.119 189.427 283.419 188.427 302.719C187.527 322.019 190.427 356.219 190.427 359.219C190.427 362.219 187.527 363.519 188.227 365.619C188.927 367.619 188.327 370.119 188.127 373.519C187.927 377.019 187.527 416.219 187.527 428.019C187.527 439.919 188.427 451.019 187.527 453.419C186.527 455.819 182.027 458.819 182.527 459.819C183.027 460.719 193.727 458.319 198.027 459.819C202.327 461.219 207.827 463.219 210.227 463.719C212.727 464.219 212.727 461.219 213.227 459.319C213.727 457.319 216.227 454.819 215.727 452.819C215.227 450.819 215.327 450.419 215.827 449.419C216.227 448.419 219.227 446.419 219.727 443.419C220.127 440.419 217.727 434.019 218.727 420.619C219.727 407.219 220.627 391.919 221.127 386.919C221.627 382.019 219.727 366.619 220.127 363.619" stroke="#000631" stroke-width="1.2" stroke-linecap="round" stroke-linejoin="round"/>
<path d="M216.727 378.519C216.727 378.019 220.827 360.819 221.227 358.019C221.627 355.219 226.127 333.419 226.127 333.419" stroke="#000631" stroke-width="1.2" stroke-linecap="round" stroke-linejoin="round"/>
<path d="M221.227 348.819C221.227 348.819 229.127 324.519 231.027 319.019C233.027 313.619 238.727 285.819 238.727 285.819" stroke="#000631" stroke-width="1.2" stroke-linecap="round" stroke-linejoin="round"/>
<path d="M243.827 284.919C243.827 284.919 252.827 328.519 256.327 340.419C259.427 350.819 263.027 363.219 264.127 369.019C264.127 369.019 268.627 397.719 269.627 408.619C270.327 416.619 275.427 442.419 275.427 442.419" stroke="#000631" stroke-width="1.2" stroke-linecap="round" stroke-linejoin="round"/>
<path d="M287.927 235.719C287.927 235.719 288.527 244.219 288.927 252.019C289.427 259.719 289.027 271.519 289.527 276.419C290.027 281.419 291.027 322.519 291.327 340.319C291.527 355.919 293.827 362.719 293.427 367.019C293.427 367.019 296.827 392.319 297.827 406.219C298.727 418.119 299.127 438.619 299.927 441.019C300.627 443.419 302.927 445.619 302.727 448.119C302.527 450.619 302.327 452.719 302.127 455.419C302.027 458.019 303.527 458.519 302.627 459.119C301.727 459.719 295.327 460.519 290.327 461.119C285.427 461.719 279.527 468.019 279.527 468.019C279.527 468.019 275.027 462.019 274.827 460.519C274.627 459.119 274.927 457.519 273.727 455.719C272.527 453.819 271.627 421.519 271.627 421.519" stroke="#000631" stroke-width="1.2" stroke-linecap="round" stroke-linejoin="round"/>
<path d="M248.727 308.019C248.727 308.019 263.327 350.819 264.227 353.719" stroke="#000631" stroke-width="1.2" stroke-linecap="round" stroke-linejoin="round"/>
<path d="M279.827 375.719C279.327 375.119 270.127 369.319 272.027 369.019C274.027 368.819 281.627 369.419 283.127 367.719" stroke="#000631" stroke-width="1.2" stroke-linecap="round" stroke-linejoin="round"/>
<path d="M277.927 457.219C277.927 457.219 284.627 455.019 289.227 451.919C293.827 448.719 293.127 451.919 291.127 453.619C289.127 455.319 286.227 459.419 286.027 460.019" stroke="#000631" stroke-width="1.2" stroke-linecap="round" stroke-linejoin="round"/>
<path d="M300.627 450.919C300.627 450.919 297.227 455.819 298.227 456.219C299.327 456.519 299.827 457.319 299.827 457.319" stroke="#000631" stroke-width="1.2" stroke-linecap="round" stroke-linejoin="round"/>
<path d="M191.427 445.419C191.927 445.419 202.427 446.119 202.427 447.919C202.327 449.819 194.927 449.319 192.927 451.319" stroke="#000631" stroke-width="1.2" stroke-linecap="round" stroke-linejoin="round"/>
<path d="M205.327 454.319C205.327 454.319 209.327 456.019 210.727 455.719C212.227 455.319 206.327 456.319 205.827 457.319" stroke="#000631" stroke-width="1.2" stroke-linecap="round" stroke-linejoin="round"/>
<path d="M199.027 437.919C199.027 437.919 212.727 439.919 214.727 441.919C216.727 443.919 213.727 444.919 213.727 444.919" stroke="#000631" stroke-width="1.2" stroke-linecap="round" stroke-linejoin="round"/>
<path d="M184.527 459.819C184.527 459.819 179.527 466.219 176.627 468.219C173.627 470.219 169.127 471.119 167.127 473.119C165.227 475.119 164.227 482.519 167.127 486.019C167.127 486.019 170.627 477.119 172.627 477.619C174.627 478.119 175.627 485.519 180.527 485.519C185.527 485.519 193.927 479.819 196.927 477.519C199.827 475.119 202.827 470.219 204.327 468.219C205.827 466.219 210.227 463.719 210.227 463.719" stroke="#000631" stroke-width="1.2" stroke-linecap="round" stroke-linejoin="round"/>
<path d="M165.827 486.019C165.827 486.019 165.227 488.519 170.127 489.019C175.127 489.519 184.527 490.019 188.927 487.019C193.427 484.019 197.927 480.619 200.327 475.619C200.327 475.619 210.227 472.819 211.027 471.519C211.727 470.219 211.927 463.819 211.927 463.819" stroke="#000631" stroke-width="1.2" stroke-linecap="round" stroke-linejoin="round"/>
<path d="M176.627 468.219C176.627 468.219 184.027 464.719 189.927 470.619" stroke="#000631" stroke-width="1.2" stroke-linecap="round" stroke-linejoin="round"/>
<path d="M317.527 482.719C316.127 483.419 314.827 481.12 312.727 480.32C310.627 479.62 308.227 484.419 306.027 486.719C303.827 488.919 291.827 485.42 291.127 483.52C290.427 481.62 287.127 475.52 283.927 473.42C280.627 471.32 279.527 468.02 279.527 468.02C279.527 468.02 277.527 472.419 280.427 475.219C282.327 477.119 286.827 476.52 286.827 476.52" stroke="#000631" stroke-width="1.2" stroke-linecap="round" stroke-linejoin="round"/>
<path d="M302.627 459.119C302.627 459.119 307.827 469.019 312.127 471.419C316.427 473.919 318.527 475.119 318.327 477.619C318.127 480.219 317.727 482.119 316.127 482.619" stroke="#000631" stroke-width="1.2" stroke-linecap="round" stroke-linejoin="round"/>
<path d="M318.627 479.119C318.627 479.119 319.427 480.819 319.127 483.419C318.927 486.119 317.627 488.219 315.227 488.519C312.727 488.819 302.527 492.819 299.427 491.319C296.427 489.819 290.027 486.619 291.127 483.519" stroke="#000631" stroke-width="1.2" stroke-linecap="round" stroke-linejoin="round"/>
<path d="M296.627 475.82C297.127 475.82 301.727 467.22 309.127 468.82" stroke="#000631" stroke-width="1.2" stroke-linecap="round" stroke-linejoin="round"/>
<path d="M290.327 461.119C290.327 461.119 297.127 471.319 299.527 472.519" stroke="#000631" stroke-linecap="round" stroke-linejoin="round"/>
<path d="M296.227 472.519C296.227 472.519 300.127 465.419 307.127 466.319" stroke="#000631" stroke-linecap="round" stroke-linejoin="round"/>
<path d="M293.827 469.219C293.827 469.219 299.927 462.919 305.327 463.819" stroke="#000631" stroke-linecap="round" stroke-linejoin="round"/>
<path d="M291.627 466.519C291.627 466.519 296.027 460.919 303.627 461.019" stroke="#000631" stroke-linecap="round" stroke-linejoin="round"/>
<path d="M290.227 463.619C290.227 463.619 292.527 460.919 296.127 460.419" stroke="#000631" stroke-linecap="round" stroke-linejoin="round"/>
<path d="M188.827 468.919C188.827 468.919 193.927 463.719 196.927 459.819" stroke="#000631" stroke-linecap="round" stroke-linejoin="round"/>
<path d="M180.027 464.719C180.027 464.719 187.927 463.819 191.427 467.719" stroke="#000631" stroke-linecap="round" stroke-linejoin="round"/>
<path d="M182.527 462.219C182.527 462.219 189.927 461.719 193.527 466.119" stroke="#000631" stroke-linecap="round" stroke-linejoin="round"/>
<path d="M183.927 460.02C183.927 460.02 192.927 460.92 195.627 463.82" stroke="#000631" stroke-linecap="round" stroke-linejoin="round"/>
<path d="M192.127 459.52C192.127 459.52 197.327 460.52 197.627 461.92" stroke="#000631" stroke-linecap="round" stroke-linejoin="round"/>
<path d="M284.127 381.519C284.127 381.519 293.227 378.719 292.127 381.719" stroke="#000631" stroke-linecap="round" stroke-linejoin="round"/>
<path d="M189.927 382.519C189.927 382.519 207.127 369.319 207.227 372.119C207.327 375.019 197.827 382.319 198.627 383.419" stroke="#000631" stroke-linecap="round" stroke-linejoin="round"/>
<path d="M225.627 291.819C225.627 291.819 232.527 289.319 232.027 291.819" stroke="#000631" stroke-linecap="round" stroke-linejoin="round"/>
<path d="M219.827 221.319L219.627 233.819L223.327 234.619L223.627 221.619L219.727 221.519" stroke="#000631" stroke-linecap="round" stroke-linejoin="round"/>
<path d="M245.927 230.919C246.927 229.919 247.027 228.019 245.527 227.219C243.927 226.419 242.527 227.719 242.227 229.019C241.927 230.419 243.927 232.419 245.927 230.919Z" stroke="#000631" stroke-width="1.2" stroke-linecap="round" stroke-linejoin="round"/>
<path d="M203.727 35.5194C203.727 35.5194 202.227 32.0194 200.727 32.0194C199.127 32.0194 199.027 44.9194 199.327 46.5194C199.627 48.0194 202.827 51.5194 204.927 49.7194" stroke="#000631" stroke-width="1.2" stroke-linecap="round" stroke-linejoin="round"/>
<path d="M200.327 34.8193C200.327 34.8193 202.727 39.0193 203.327 44.3193C203.327 44.3193 201.127 42.1194 200.927 46.4194" stroke="#000631" stroke-width="1.2" stroke-linecap="round" stroke-linejoin="round"/>
<path d="M201.927 38.5194C201.927 38.5194 200.227 40.2194 200.427 41.9194" stroke="#000631" stroke-width="1.2" stroke-linecap="round" stroke-linejoin="round"/>
<path d="M243.727 38.8194C243.727 38.8194 244.627 35.7194 245.927 36.9194C247.327 38.0194 247.227 43.0194 246.927 45.0194C246.727 47.0194 244.527 52.7194 243.327 54.0194C242.127 55.4194 240.327 54.4194 240.327 54.4194" stroke="#000631" stroke-width="1.2" stroke-linecap="round" stroke-linejoin="round"/>
<path d="M246.127 39.4194C246.127 39.4194 242.827 46.0194 242.227 50.4194C242.227 50.4194 244.727 47.2194 244.927 49.2194" stroke="#000631" stroke-width="1.2" stroke-linecap="round" stroke-linejoin="round"/>
<path d="M244.927 42.1194C244.927 42.1194 246.627 43.9194 245.327 45.8194" stroke="#000631" stroke-width="1.2" stroke-linecap="round" stroke-linejoin="round"/>
<path d="M203.927 33.6194C203.927 33.6194 200.827 24.8194 201.227 22.6194C201.627 20.3194 202.627 16.6194 202.627 16.6194" stroke="#000631" stroke-width="1.2" stroke-linecap="round" stroke-linejoin="round"/>
<path d="M205.227 8.21948C205.227 8.21948 201.727 21.2195 205.927 28.5195" stroke="#000631" stroke-width="0.9" stroke-linecap="round" stroke-linejoin="round"/>
<path d="M205.927 6.61937C206.327 6.41937 208.327 2.71937 211.927 2.11937C215.427 1.61937 220.727 3.2194 220.727 3.2194" stroke="#000631" stroke-width="0.9" stroke-linecap="round" stroke-linejoin="round"/>
<path d="M219.527 5.51939C219.927 5.61939 225.027 0.819387 227.027 1.01939" stroke="#000631" stroke-width="0.9" stroke-linecap="round" stroke-linejoin="round"/>
<path d="M230.327 2.41943C230.327 2.41943 237.827 6.41941 238.827 10.5194" stroke="#000631" stroke-width="0.9" stroke-linecap="round" stroke-linejoin="round"/>
<path d="M233.327 2.31934C233.827 2.41934 248.927 8.81934 249.427 11.3193" stroke="#000631" stroke-width="0.9" stroke-linecap="round" stroke-linejoin="round"/>
<path d="M250.227 14.9194C250.227 14.9194 248.727 29.6194 246.627 33.2194" stroke="#000631" stroke-width="0.9" stroke-linecap="round" stroke-linejoin="round"/>
<path d="M250.927 24.1194C250.927 24.1194 248.327 33.7194 245.927 36.9194" stroke="#000631" stroke-width="0.9" stroke-linecap="round" stroke-linejoin="round"/>
<path d="M235.127 16.0194C235.127 16.0194 243.527 28.2194 245.027 28.8194C246.427 29.4194 247.527 30.7194 247.527 30.7194" stroke="#000631" stroke-width="0.9" stroke-linecap="round" stroke-linejoin="round"/>
<path d="M215.927 13.6194C215.927 13.6194 219.227 7.01937 223.727 7.61937" stroke="#000631" stroke-width="0.9" stroke-linecap="round" stroke-linejoin="round"/>
<path d="M226.127 7.91943C226.127 7.91943 233.827 22.4194 237.127 23.8194" stroke="#000631" stroke-width="0.9" stroke-linecap="round" stroke-linejoin="round"/>
<path d="M217.327 14.8195C217.327 14.8195 224.827 13.2195 229.927 14.6195" stroke="#000631" stroke-width="0.9" stroke-linecap="round" stroke-linejoin="round"/>
<path d="M220.927 14.2195C220.927 14.2195 223.127 9.51944 227.427 10.3194" stroke="#000631" stroke-width="0.9" stroke-linecap="round" stroke-linejoin="round"/>
<path d="M236.027 24.6194C236.027 24.6194 241.527 32.2194 245.927 31.6194" stroke="#000631" stroke-width="0.9" stroke-linecap="round" stroke-linejoin="round"/>
<path d="M240.527 29.4195C240.427 29.2195 244.927 36.7194 244.927 36.7194" stroke="#000631" stroke-width="0.9" stroke-linecap="round" stroke-linejoin="round"/>
<path d="M243.627 19.6194C243.627 19.6194 245.127 26.6194 246.127 27.6194" stroke="#000631" stroke-width="0.9" stroke-linecap="round" stroke-linejoin="round"/>
<path d="M215.727 15.3194C215.727 15.3194 212.527 13.2194 211.027 13.0194" stroke="#000631" stroke-width="0.9" stroke-linecap="round" stroke-linejoin="round"/>
<path d="M212.627 10.2195C212.627 10.2195 209.327 14.3195 208.527 16.7195C207.727 19.1195 206.927 20.6194 206.927 20.6194" stroke="#000631" stroke-width="0.9" stroke-linecap="round" stroke-linejoin="round"/>
<path d="M213.227 15.0194C213.227 15.0194 209.727 19.0194 207.827 20.7194" stroke="#000631" stroke-width="0.9" stroke-linecap="round" stroke-linejoin="round"/>
<path d="M211.027 6.01939C211.027 6.01939 212.427 4.71936 217.527 8.11936" stroke="#000631" stroke-width="0.9" stroke-linecap="round" stroke-linejoin="round"/>
<path d="M209.927 50.8193L209.427 55.5193" stroke="#000631" stroke-width="0.6" stroke-linecap="round" stroke-linejoin="round"/>
<path d="M209.627 58.0194C209.627 58.0194 209.027 62.4194 209.527 64.2194" stroke="#000631" stroke-width="0.6" stroke-linecap="round" stroke-linejoin="round"/>
<path d="M214.627 58.6194C214.427 59.1194 212.627 66.2194 214.127 68.5194" stroke="#000631" stroke-width="0.6" stroke-linecap="round" stroke-linejoin="round"/>
<path d="M217.827 60.6194C217.827 60.6194 215.827 68.3194 216.627 69.6194" stroke="#000631" stroke-width="0.6" stroke-linecap="round" stroke-linejoin="round"/>
<path d="M221.627 62.0194C221.627 62.0194 220.127 69.4194 220.527 70.4194" stroke="#000631" stroke-width="0.6" stroke-linecap="round" stroke-linejoin="round"/>
<path d="M224.427 63.2195C224.427 63.2195 223.527 70.3195 223.527 70.8195" stroke="#000631" stroke-width="0.6" stroke-linecap="round" stroke-linejoin="round"/>
<path d="M227.627 62.8193C227.627 62.8193 228.427 68.4193 227.427 70.3193" stroke="#000631" stroke-width="0.6" stroke-linecap="round" stroke-linejoin="round"/>
<path d="M229.327 61.6194C229.327 61.6194 229.727 65.0194 229.527 66.0194" stroke="#000631" stroke-width="0.6" stroke-linecap="round" stroke-linejoin="round"/>
<path d="M222.027 57.1194V58.7194" stroke="#000631" stroke-width="0.6" stroke-linecap="round" stroke-linejoin="round"/>
<path d="M223.527 57.3193C223.627 57.8193 223.527 59.8193 223.527 59.8193" stroke="#000631" stroke-width="0.6" stroke-linecap="round" stroke-linejoin="round"/>
<path d="M224.427 58.2195L224.327 59.0195" stroke="#000631" stroke-width="0.6" stroke-linecap="round" stroke-linejoin="round"/>
<path d="M231.827 58.0194C231.827 58.0194 231.927 59.3194 231.527 60.8194" stroke="#000631" stroke-width="0.6" stroke-linecap="round" stroke-linejoin="round"/>
<path d="M233.727 50.9194C233.727 50.9194 234.027 56.6194 233.627 58.5194" stroke="#000631" stroke-width="0.6" stroke-linecap="round" stroke-linejoin="round"/>
<path d="M235.627 53.3193C235.627 53.3193 235.227 56.7194 235.027 58.7194" stroke="#000631" stroke-width="0.6" stroke-linecap="round" stroke-linejoin="round"/>
<path d="M208.127 52.9194C208.127 52.9194 207.727 56.5194 207.827 58.2194" stroke="#000631" stroke-width="0.6" stroke-linecap="round" stroke-linejoin="round"/>
<path d="M236.427 56.1194L236.027 59.1194" stroke="#000631" stroke-width="0.6" stroke-linecap="round" stroke-linejoin="round"/>
<path d="M211.127 48.8194C211.727 48.8194 217.527 48.2194 218.827 49.0194" stroke="#000631" stroke-width="0.6" stroke-linecap="round" stroke-linejoin="round"/>
<path d="M213.127 47.9195C213.127 47.9195 215.527 47.3195 216.627 47.9195" stroke="#000631" stroke-width="0.6" stroke-linecap="round" stroke-linejoin="round"/>
<path d="M229.527 49.4194C229.627 49.5194 232.727 49.1194 233.827 49.9194" stroke="#000631" stroke-width="0.6" stroke-linecap="round" stroke-linejoin="round"/>
<path d="M224.427 49.7195L227.327 49.9195C227.327 49.9195 229.027 50.2194 231.527 50.6194" stroke="#000631" stroke-width="0.6" stroke-linecap="round" stroke-linejoin="round"/>
<path d="M221.627 49.7194L220.327 49.5194" stroke="#000631" stroke-width="0.6" stroke-linecap="round" stroke-linejoin="round"/>
<path d="M220.627 47.1194C220.627 47.1194 220.027 46.3194 220.527 46.4194C221.027 46.5194 221.927 47.6194 221.927 47.6194" stroke="#000631" stroke-width="0.6" stroke-linecap="round" stroke-linejoin="round"/>
<path d="M224.327 47.9194C224.327 47.9194 225.827 46.6193 225.827 47.1193" stroke="#000631" stroke-width="0.6" stroke-linecap="round" stroke-linejoin="round"/>
<path d="M226.927 47.7195C226.927 47.7195 227.527 46.3195 226.627 45.7195" stroke="#000631" stroke-width="0.6" stroke-linecap="round" stroke-linejoin="round"/>
<path d="M218.927 47.2194C218.927 47.2194 218.427 45.2194 219.327 45.1194" stroke="#000631" stroke-width="0.6" stroke-linecap="round" stroke-linejoin="round"/>
<path d="M222.427 43.7195C222.427 43.7195 223.627 43.3195 224.227 43.9195" stroke="#000631" stroke-width="0.6" stroke-linecap="round" stroke-linejoin="round"/>
<path d="M219.427 34.3194C219.427 34.3194 218.327 32.9194 216.827 32.8194C214.327 32.6194 212.227 32.9195 211.127 34.2195" stroke="#000631" stroke-width="0.6" stroke-linecap="round" stroke-linejoin="round"/>
<path d="M211.527 34.3193C211.527 34.3193 213.827 35.9193 216.627 36.1193" stroke="#000631" stroke-width="0.6" stroke-linecap="round" stroke-linejoin="round"/>
<path d="M218.127 37.2194L219.227 36.4194" stroke="#000631" stroke-width="0.6" stroke-linecap="round" stroke-linejoin="round"/>
<path d="M229.027 37.1194L230.027 38.2194" stroke="#000631" stroke-width="0.6" stroke-linecap="round" stroke-linejoin="round"/>
<path d="M229.727 36.2193C229.727 36.2193 231.527 34.9193 233.427 35.1193C235.427 35.3193 236.527 36.9193 237.027 37.5193" stroke="#000631" stroke-width="0.6" stroke-linecap="round" stroke-linejoin="round"/>
<path d="M230.627 37.8193C230.627 37.8193 235.027 38.2194 236.527 38.2194" stroke="#000631" stroke-width="0.6" stroke-linecap="round" stroke-linejoin="round"/>
<path d="M219.927 30.7195C219.927 30.7195 222.327 35.3195 220.327 40.3195" stroke="#000631" stroke-width="0.6" stroke-linecap="round" stroke-linejoin="round"/>
<path d="M228.727 31.3193C228.727 31.3193 227.627 32.6194 227.527 33.7194" stroke="#000631" stroke-width="0.6" stroke-linecap="round" stroke-linejoin="round"/>
<path d="M229.827 31.0194C229.827 31.0194 234.427 30.6194 236.627 31.2194C238.427 31.7194 239.327 32.9194 239.327 32.9194" stroke="#000631" stroke-linecap="round" stroke-linejoin="round"/>
<path d="M218.927 29.6194C218.427 29.5194 214.627 28.4194 213.027 28.7194C211.627 29.0194 209.327 30.3194 209.327 30.3194" stroke="#000631" stroke-linecap="round" stroke-linejoin="round"/>
<path d="M267.627 224.919L266.727 219.519L264.227 220.519" stroke="#000631" stroke-width="1.2" stroke-linecap="round" stroke-linejoin="round"/>
<path d="M264.227 220.519L265.827 233.019L268.127 231.819" stroke="#000631" stroke-width="1.2" stroke-linecap="round" stroke-linejoin="round"/>
<path d="M213.327 76.2194L213.127 67.8193" stroke="#000631" stroke-width="1.2" stroke-linecap="round" stroke-linejoin="round"/>
<path d="M239.527 57.1194C239.527 57.1194 239.827 66.0194 241.327 73.1194" stroke="#000631" stroke-width="1.2" stroke-linecap="round" stroke-linejoin="round"/>
<path d="M214.927 52.9195C214.927 52.9195 220.627 52.2195 223.927 52.9195C227.227 53.7195 229.627 53.6195 228.727 54.2195C228.627 54.2195 216.727 53.8195 214.927 53.2195" stroke="#000631" stroke-width="0.6" stroke-linecap="round" stroke-linejoin="round"/>
<path d="M212.927 33.1194C212.927 33.1194 212.027 33.7194 212.927 34.8194" stroke="#000631" stroke-width="0.6" stroke-linecap="round" stroke-linejoin="round"/>
<path d="M214.027 35.5194C214.027 35.5194 216.027 34.4194 214.927 32.9194" stroke="#000631" stroke-width="0.6" stroke-linecap="round" stroke-linejoin="round"/>
<path d="M231.027 35.5194C231.027 35.5194 230.227 36.7194 231.727 37.8194" stroke="#000631" stroke-width="0.6" stroke-linecap="round" stroke-linejoin="round"/>
<path d="M232.827 35.1194C232.827 35.1194 234.927 36.3194 232.827 37.8194" stroke="#000631" stroke-width="0.6" stroke-linecap="round" stroke-linejoin="round"/>
<path d="M148.227 124.119L136.327 132.719C131.327 126.719 96.2267 87.6194 96.2267 87.6194C96.2267 87.6194 90.0266 74.5194 87.4266 71.4194C84.8266 68.3194 74.7266 64.9194 73.0266 65.1194C71.4266 65.3194 67.8267 65.1194 67.8267 65.1194L64.3267 66.2194" stroke="#000631" stroke-width="1.2" stroke-linecap="round" stroke-linejoin="round"/>
<path d="M54.2268 66.5194C54.2268 66.5194 61.5268 65.5194 64.3268 66.2194C72.4268 68.3194 77.9268 73.2194 77.9268 73.2194" stroke="#000631" stroke-width="1.2" stroke-linecap="round" stroke-linejoin="round"/>
<path d="M61.9268 71.4194C61.9268 71.4194 67.8268 72.8194 70.6268 74.3194C73.4268 75.7194 75.0268 80.8194 74.9268 81.7194C74.8268 82.8194 71.4268 86.1194 71.4268 86.1194C69.4268 87.1194 63.0268 85.6194 59.8268 83.9194C56.6268 82.2194 51.6268 85.1194 54.1268 87.1194C56.6268 89.1194 67.0268 94.4194 69.9268 96.5194C73.4268 99.0194 79.9269 99.0194 81.2269 98.4194C82.6269 97.9194 87.8268 101.019 87.8268 101.019C87.8268 101.019 95.2268 109.919 103.127 127.219C111.127 144.619 129.927 165.419 131.427 166.919C132.927 168.419 137.927 166.319 146.027 161.119C154.727 155.519 162.827 147.819 162.827 147.819" stroke="#000631" stroke-width="1.2" stroke-linecap="round" stroke-linejoin="round"/>
<path d="M80.3269 68.5194C80.3269 68.5194 76.1269 65.9194 73.0269 65.1194" stroke="#000631" stroke-width="1.2" stroke-linecap="round" stroke-linejoin="round"/>
<path d="M30.3268 54.4194C30.3268 54.4194 41.7268 54.4194 42.3268 57.9194C42.8268 61.5194 48.2268 67.7194 48.2268 67.7194C46.3268 74.5194 37.2268 86.1194 37.2268 86.1194C36.6268 83.4194 29.6267 73.2194 29.6267 73.2194C26.4267 78.7194 30.5267 98.9194 30.5267 98.9194L26.3268 98.0194C23.9268 94.5194 23.9268 75.7194 23.9268 75.7194C24.4268 75.2194 30.0267 69.1194 33.1267 66.0194C36.3267 62.8194 39.7268 60.4194 38.2268 58.9194C37.6268 58.2194 33.8267 58.0194 30.0267 57.9194" stroke="#000631" stroke-width="1.2" stroke-linecap="round" stroke-linejoin="round"/>
<path d="M26.3266 73.2195C26.3266 73.2195 19.2265 67.6195 18.9265 65.8195C18.7265 64.0195 18.4265 59.9195 19.1265 58.9195C19.3265 58.6195 21.5266 58.4195 23.2266 58.2195" stroke="#000631" stroke-width="1.2" stroke-linecap="round" stroke-linejoin="round"/>
<path d="M23.4268 54.4194C23.4268 54.4194 17.9268 54.9194 16.4268 56.4194C14.9268 57.9194 13.4268 67.7194 13.4268 67.7194C13.4268 67.7194 14.5267 80.7194 14.5267 85.1194C14.5267 85.1194 20.4268 74.7194 23.9268 75.7194" stroke="#000631" stroke-width="1.2" stroke-linecap="round" stroke-linejoin="round"/>
<path d="M18.7266 61.6194L24.0265 61.1194C24.0265 61.1194 22.9265 52.4195 27.3265 50.0195C31.8265 47.5195 34.1265 44.1194 33.4265 40.6194C32.8265 37.1194 27.9265 37.3195 26.1265 38.5195C23.9265 40.0195 20.8265 43.4194 19.9265 39.6194C19.9265 39.6194 23.9265 31.6194 32.3265 34.1194C42.4265 37.1194 37.2265 47.5195 35.3265 49.5195C33.3265 51.4195 28.5265 53.4194 28.9265 61.3194L36.7266 62.1194" stroke="#000631" stroke-width="1.2" stroke-linecap="round" stroke-linejoin="round"/>
<path d="M18.9268 65.8194C18.9268 65.8194 29.5267 65.1194 33.1267 66.0194" stroke="#000631" stroke-width="1.2" stroke-linecap="round" stroke-linejoin="round"/>
<path d="M44.7266 63.1194C44.7266 63.1194 61.6265 69.8194 64.3265 73.2194C67.0265 76.7194 68.0265 86.3194 68.0265 86.3194" stroke="#000631" stroke-width="1.2" stroke-linecap="round" stroke-linejoin="round"/>
<path d="M69.9265 96.5194C70.9265 98.5194 73.9265 125.819 74.9265 129.219C74.9265 129.219 62.3265 137.319 51.0265 137.019C51.0265 137.019 49.3266 101.219 48.2266 97.6194" stroke="#000631" stroke-width="1.2" stroke-linecap="round" stroke-linejoin="round"/>
<path d="M48.2266 93.2195C48.2266 93.2195 52.8265 114.519 53.4265 124.319" stroke="#000631" stroke-width="1.2" stroke-linecap="round" stroke-linejoin="round"/>
<path d="M57.6265 116.819C59.0265 124.319 62.5265 127.219 63.5265 128.219" stroke="#000631" stroke-width="1.2" stroke-linecap="round" stroke-linejoin="round"/>
<path d="M14.5266 62.1194C14.5266 62.1194 5.22666 67.0194 2.92666 71.4194C0.626659 75.7194 1.02663 117.819 1.02663 117.819C1.02663 117.819 6.42671 123.719 10.2267 122.519" stroke="#000631" stroke-width="1.2" stroke-linecap="round" stroke-linejoin="round"/>
<path d="M9.52661 90.6194C9.52661 90.6194 12.8266 154.919 13.4266 165.419C14.0266 175.819 14.9266 220.919 14.9266 220.919C14.9266 220.919 27.3267 231.319 35.8267 234.719C44.2267 238.219 66.0266 232.319 71.9266 221.919C71.9266 221.919 69.4266 136.719 69.9266 132.719" stroke="#000631" stroke-width="1.2" stroke-linecap="round" stroke-linejoin="round"/>
<path d="M63.5266 145.019C63.5266 145.019 51.3267 209.419 38.3267 216.119" stroke="#000631" stroke-width="1.2" stroke-linecap="round" stroke-linejoin="round"/>
<path d="M49.0266 122.519C49.0266 122.519 36.3267 160.819 28.8267 161.119" stroke="#000631" stroke-width="1.2" stroke-linecap="round" stroke-linejoin="round"/>
<path d="M33.8267 146.619C33.8267 146.619 31.2267 151.519 25.3267 151.019" stroke="#000631" stroke-width="1.2" stroke-linecap="round" stroke-linejoin="round"/>
<path d="M10.0267 99.9194C10.0267 99.9194 6.02665 110.419 6.52665 112.419" stroke="#000631" stroke-width="1.2" stroke-linecap="round" stroke-linejoin="round"/>
<path d="M288.527 147.119C288.527 147.119 301.227 170.819 301.527 174.319C301.827 177.819 304.827 194.219 309.727 202.819C314.727 211.519 319.527 220.819 319.027 223.519C318.627 226.319 315.727 233.319 317.727 237.719C319.627 242.219 320.627 253.119 321.127 256.319C321.627 259.519 325.627 254.119 325.127 249.119C324.627 244.219 322.727 240.019 325.127 240.319C327.627 240.719 331.527 251.619 331.527 255.119C331.527 258.519 330.527 266.019 332.527 265.019C334.527 264.019 335.227 260.219 335.827 254.119C336.527 248.119 335.827 242.719 335.827 242.719" stroke="#000631" stroke-width="1.2" stroke-linecap="round" stroke-linejoin="round"/>
<path d="M340.526 242.719C340.526 242.719 341.526 250.219 340.526 255.619C339.526 261.019 337.726 268.619 336.126 268.019C334.526 267.419 333.426 264.219 334.026 263.419" stroke="#000631" stroke-width="1.2" stroke-linecap="round" stroke-linejoin="round"/>
<path d="M344.427 242.719C344.427 242.719 345.427 253.019 344.427 257.319C343.427 261.519 342.027 266.219 341.027 266.119C339.927 266.019 338.827 263.119 338.827 263.119" stroke="#000631" stroke-width="1.2" stroke-linecap="round" stroke-linejoin="round"/>
<path d="M308.126 127.419C308.126 127.419 321.126 162.919 322.126 167.419C323.126 171.819 334.626 221.319 334.626 221.319C334.626 221.319 344.727 231.019 346.327 235.319C347.927 239.719 349.427 246.119 349.427 249.619C349.427 253.119 349.427 262.019 348.427 262.019C347.427 262.019 344.927 264.919 344.427 257.319" stroke="#000631" stroke-width="1.2" stroke-linecap="round" stroke-linejoin="round"/>
</svg>
