<svg width="464" height="330" viewBox="0 0 464 330" fill="none" xmlns="http://www.w3.org/2000/svg">
<path d="M97.9455 166.625C97.9455 166.625 112.368 164.935 119.098 170.312C125.768 175.765 128.833 184.368 129.193 185.674C129.494 186.98 131.897 196.273 131.236 202.495C130.575 208.716 127.631 216.858 126.609 218.855C125.528 220.929 123.484 222.926 123.484 222.926C123.484 222.926 128.111 229.762 129.373 235.369C130.575 240.899 127.571 247.735 124.566 252.267C121.561 256.875 115.853 262.022 112.728 262.482C109.603 262.943 103.834 262.482 103.834 262.482C103.834 262.482 97.8854 276.922 91.1552 282.837C84.3648 288.751 75.8318 292.13 66.6979 290.287C57.564 288.444 52.5163 281.377 49.4516 276.231C49.4516 276.231 38.9356 284.296 31.1237 280.302C23.3118 276.231 21.5691 264.403 22.17 261.484C22.17 261.484 13.0361 262.713 8.88982 254.725C4.74351 246.66 6.36596 238.211 9.55082 233.833C9.55082 233.833 2.27975 226.075 1.37838 217.242C0.537096 208.332 2.03937 199.576 7.14715 193.278C12.1948 186.98 20.4274 185.981 20.4274 185.981C20.4274 185.981 21.3889 172.386 28.72 167.317C36.0512 162.247 46.8076 164.014 49.3915 166.011C49.3915 166.011 53.0571 154.72 59.9676 148.959C66.8782 143.199 76.3726 142.123 81.7208 144.888C87.0689 147.654 95.5418 155.795 97.9455 166.625Z" fill="#FFF8E6"/>
<path d="M139.589 149.65C139.589 154.336 136.644 158.176 132.979 158.176C129.313 158.176 126.309 154.336 126.309 149.65C126.309 144.965 129.313 141.202 132.979 141.202C136.644 141.202 139.589 144.965 139.589 149.65Z" fill="#FFF8E6"/>
<path d="M158.697 136.747C158.697 140.357 156.474 143.199 153.65 143.199C150.886 143.199 148.602 140.357 148.602 136.747C148.602 133.213 150.886 130.295 153.65 130.295C156.474 130.295 158.697 133.213 158.697 136.747Z" fill="#FFF8E6"/>
<path d="M177.566 137.822C177.566 140.587 175.764 142.891 173.6 142.891C171.377 142.891 169.574 140.587 169.574 137.822C169.574 134.98 171.377 132.676 173.6 132.676C175.764 132.676 177.566 134.98 177.566 137.822Z" fill="#FFF8E6"/>
<path d="M104.676 128.835C104.676 128.835 107.981 133.597 115.552 135.825C123.124 138.129 127.57 133.674 128.652 132.368C129.794 130.986 132.618 125.686 132.618 125.686C132.618 125.686 139.288 128.067 145.418 125.148C151.547 122.153 155.273 114.165 156.054 107.482C156.835 100.8 153.831 92.6584 153.831 92.6584C153.831 92.6584 162.484 86.821 159.179 74.6084C156.835 65.8522 151.066 64.8537 151.066 65.0073C151.066 65.0073 155.513 54.3309 147.641 44.8835C142.533 38.7388 132.979 42.1184 132.979 42.1184C132.979 42.1184 132.198 23.5307 115.192 18.9222C98.1858 14.3137 86.8284 29.5217 86.8284 29.5217C86.8284 29.5217 78.4156 21.8409 67.0583 29.2913C55.701 36.665 59.667 50.2601 60.7487 51.9499C60.7487 51.9499 48.1896 59.4003 47.0478 76.375C45.9061 93.3497 52.6363 97.9582 54.8597 100.723C57.023 103.488 66.5776 107.713 66.5776 107.713C66.5776 107.713 66.3372 123.612 74.029 132.215C81.7207 140.817 92.7775 137.207 94.8206 136.516C96.8637 135.748 103.474 131.831 104.676 128.835Z" fill="#FFF8E6"/>
<path d="M175.704 96.7294C175.704 100.263 173.42 103.181 170.656 103.181C167.892 103.181 165.608 100.263 165.608 96.7294C165.608 93.1962 167.892 90.2775 170.656 90.2775C173.42 90.2775 175.704 93.1962 175.704 96.7294Z" fill="#FFF8E6"/>
<path d="M189.765 102.49C189.765 105.332 187.962 107.559 185.799 107.559C183.576 107.559 181.833 105.332 181.833 102.49C181.833 99.7249 183.576 97.4207 185.799 97.4207C187.962 97.4207 189.765 99.7249 189.765 102.49Z" fill="#FFF8E6"/>
<path d="M302.016 98.1119C302.016 98.1119 302.857 107.943 310.128 113.166C317.46 118.466 323.949 117.084 328.396 114.395C332.843 111.63 336.328 106.561 336.328 106.561C336.328 106.561 350.149 117.007 363.069 104.103C374.246 92.9657 371.061 74.9925 371.061 74.9925C371.061 74.9925 386.745 74.4548 386.865 51.9499C386.986 37.0491 376.65 30.9044 376.65 30.9044C376.65 30.9044 379.234 14.3137 366.675 7.0169C354.055 -0.279919 343.179 10.9342 343.179 10.9342C343.179 10.9342 337.891 0.718602 328.336 1.02584C318.782 1.40988 314.816 13.9297 314.816 13.9297C314.816 13.9297 302.196 -3.42904 285.13 12.4703C271.55 25.1438 278.46 45.114 278.46 45.114C278.46 45.114 270.708 47.5718 270.288 57.5569C269.927 67.542 277.919 69.9231 277.919 69.9231C277.919 69.9231 274.074 82.6734 277.439 90.8919C280.804 99.1104 294.505 102.567 302.016 98.1119Z" fill="#FFF8E6"/>
<path d="M283.208 106.407C283.208 110.248 280.744 113.32 277.739 113.32C274.735 113.32 272.331 110.248 272.331 106.407C272.331 102.567 274.735 99.4177 277.739 99.4177C280.744 99.4177 283.208 102.567 283.208 106.407Z" fill="#FFF8E6"/>
<path d="M267.824 113.32C267.824 116.162 266.021 118.466 263.798 118.466C261.634 118.466 259.832 116.162 259.832 113.32C259.832 110.555 261.634 108.251 263.798 108.251C266.021 108.251 267.824 110.555 267.824 113.32Z" fill="#FFF8E6"/>
<path d="M386.866 115.163C386.866 115.163 398.043 98.4959 411.864 104.564C425.745 110.632 426.346 124.841 426.346 124.841C426.346 124.841 436.201 118.389 448.64 126.07C461.019 133.751 455.31 152.646 455.31 152.646L454.108 157.255C454.108 157.255 465.586 160.634 462.461 175.151C460.238 185.29 452.786 186.288 452.786 186.288C452.786 186.288 457.353 197.425 453.087 212.249C448.82 226.997 434.518 230.607 426.947 230.684C419.375 230.76 411.503 222.081 411.503 222.081C411.503 222.081 406.396 235.369 396.841 236.444C387.226 237.52 381.638 228.84 379.294 225.691C379.294 225.691 362.409 238.748 349.729 228.149C337.11 217.549 340.475 202.188 340.475 202.188C340.475 202.188 328.277 194.123 328.697 176.457C329.118 158.791 341.377 150.111 346.905 151.417C346.905 151.417 343.9 127.99 358.142 116.085C372.384 104.18 386.866 115.163 386.866 115.163Z" fill="#FFF8E6"/>
<path d="M320.885 171.541C320.885 176.303 317.88 180.22 314.095 180.22C310.369 180.22 307.364 176.303 307.364 171.541C307.364 166.779 310.369 162.862 314.095 162.862C317.88 162.862 320.885 166.779 320.885 171.541Z" fill="#FFF8E6"/>
<path d="M301.235 175.074C301.235 178.684 299.012 181.526 296.187 181.526C293.423 181.526 291.14 178.684 291.14 175.074C291.14 171.541 293.423 168.699 296.187 168.699C299.012 168.699 301.235 171.541 301.235 175.074Z" fill="#FFF8E6"/>
<path d="M282.666 172.386C282.666 175.228 280.864 177.455 278.7 177.455C276.477 177.455 274.734 175.228 274.734 172.386C274.734 169.544 276.477 167.317 278.7 167.317C280.864 167.317 282.666 169.544 282.666 172.386Z" fill="#FFF8E6"/>
<path d="M355.919 174.46C355.919 174.46 347.446 178.53 345.343 184.291C343.179 190.052 350.33 195.812 357 198.501C363.61 201.266 371.843 204.261 379.535 206.335C387.226 208.332 401.588 207.641 401.588 207.641C401.588 207.641 416.431 204.645 421.238 202.572C421.238 202.572 435.84 199.192 441.669 192.049C447.498 184.982 440.888 177.609 435.179 175.842C435.179 175.842 435.059 174.767 435.059 174.46C435.059 174.076 434.518 172.386 434.518 171.695C434.518 171.003 433.196 167.624 433.196 167.624L430.252 157.485C430.252 157.485 429.711 156.794 428.93 156.41C428.149 156.102 424.423 154.72 424.423 154.72C424.423 154.72 420.697 154.105 419.916 154.105C419.075 154.105 413.787 154.72 413.787 154.72C413.787 154.72 409.821 155.411 409.28 155.411C408.739 155.411 407.717 155.411 406.876 155.795C406.095 156.102 405.013 156.102 405.013 156.41C405.013 156.794 402.67 162.17 402.67 162.554C402.67 162.862 401.829 167.624 401.829 167.624L394.077 167.47L392.034 165.243C392.034 165.243 390.411 162.247 389.63 162.247C388.849 162.247 385.904 161.172 385.904 161.172C385.904 161.172 384.162 160.864 383.861 160.864C383.561 160.864 381.397 162.247 380.616 161.863C379.835 161.556 378.753 161.172 378.213 161.172C377.672 161.172 376.109 161.863 375.809 161.863C375.569 161.863 374.908 161.172 374.186 161.556C373.465 161.863 372.504 162.17 372.324 162.554C372.143 162.862 371.062 165.243 369.98 165.934C368.958 166.625 366.495 165.627 364.692 165.934C362.829 166.318 361.868 167.009 361.447 167.47C360.966 168.008 359.404 169.697 359.103 170.005C358.863 170.389 358.202 170.542 357.902 171.08C357.541 171.695 355.919 174.46 355.919 174.46Z" fill="white"/>
<path d="M359.103 82.1357C359.103 82.1357 369.078 76.9127 370.881 71.0752C372.624 65.161 369.138 60.3988 363.73 57.1729C358.322 53.9469 349.849 51.3354 349.849 51.3354L345.883 50.4906L345.583 48.2631C345.583 48.2631 344.261 46.4965 344.261 46.1892C344.261 45.8052 343.72 44.4994 343.179 44.4994C342.638 44.4994 340.294 42.8865 339.754 42.8097C339.213 42.8097 339.153 43.0401 338.552 43.2705C337.891 43.501 337.59 44.4994 337.35 44.1154C337.11 43.8082 336.028 43.8082 335.728 44.1154C335.487 44.4994 334.406 45.3444 334.045 45.7284C333.624 46.1893 333.204 48.5703 333.204 48.5703L329.358 48.8008C329.358 48.8008 328.036 46.4965 326.173 46.1892C324.37 45.8052 322.688 46.4197 321.546 47.1877C320.344 47.879 319.563 48.8008 319.563 48.8008C319.563 48.8008 319.202 48.7239 319.022 48.2631C318.782 47.879 317.58 46.9573 317.58 46.9573C317.58 46.9573 317.219 46.1892 317.099 46.1892C316.919 46.1892 314.275 45.114 314.275 45.114C314.275 45.114 313.373 46.1124 312.893 45.9588C312.412 45.8052 310.609 45.7284 310.189 46.1125C309.768 46.4965 308.506 48.5703 308.506 48.5703C308.506 48.5703 307.364 48.7239 307.124 48.4935C306.823 48.1863 307.364 47.5718 306.283 47.1877C305.261 46.8805 303.098 46.8805 301.535 47.879C299.913 48.8776 299.613 50.0297 299.372 49.9529C299.132 49.8761 298.771 50.4137 298.711 50.4906C298.591 50.5674 298.351 51.2586 298.351 51.6427C298.351 51.9499 298.351 53.2556 298.351 53.2556C298.351 53.3325 297.269 53.9469 297.269 53.9469C297.269 53.9469 290.719 56.328 287.474 59.7844C284.289 63.1639 283.208 66.5435 283.208 68.0797C283.208 69.6159 284.289 73.3027 287.474 76.6823C290.659 80.1386 300.093 83.7487 300.093 83.7487C300.093 83.7487 306.823 87.205 311.871 88.2803C316.919 89.2789 324.07 89.8933 328.577 89.8933C333.084 89.9702 340.295 88.8948 340.295 88.8948C340.295 88.8948 348.527 86.8978 350.871 86.5906C353.274 86.2065 359.103 82.1357 359.103 82.1357Z" fill="white"/>
<path d="M69.5821 84.0559C69.5821 84.0559 66.1569 86.3602 65.3156 88.5109C64.4743 90.6615 63.6931 93.3498 66.5775 97.0366C69.522 100.8 77.7545 105.178 78.2953 105.87C78.8362 106.561 90.7342 109.94 99.5076 111.016C108.281 112.014 122.342 109.94 122.342 109.94C122.342 109.94 130.575 107.559 132.678 106.945C134.842 106.254 140.13 102.49 140.37 102.49C140.67 102.49 149.143 97.4206 149.684 93.3498C150.225 89.2789 147.821 86.5906 142.774 83.1343C137.726 79.7547 126.849 77.4504 126.849 77.4504C126.849 77.4504 116.213 72.3043 114.891 71.997C113.569 71.613 110.805 71.6129 109.543 71.7666C108.281 71.997 105.337 73.3027 104.555 73.994C103.774 74.6853 101.971 75.7606 101.971 75.7606L97.4646 75.991C97.4646 75.991 95.7819 70.9217 95.0007 69.9232C94.2196 68.9247 91.0347 68.5406 91.0347 68.2334C91.0347 67.9261 89.9531 67.2349 89.4123 66.8508C88.9315 66.5436 86.7682 66.5436 85.987 66.5436C85.2058 66.5436 82.8022 66.8508 82.2614 67.2349C81.7205 67.5421 75.3508 69.3855 74.81 69.8463C74.3293 70.3072 73.488 71.613 72.9472 72.6115C72.4664 73.6868 71.7454 75.2229 71.9857 75.7606C72.166 76.3751 71.7453 78.9098 71.565 79.5242C71.3848 80.1387 70.6036 81.1372 70.6036 82.1357C70.6036 83.1342 69.5821 84.0559 69.5821 84.0559Z" fill="white"/>
<path d="M106.178 214.784C106.178 214.784 113.329 219.546 114.891 225C116.514 230.376 115.192 233.141 114.11 234.831C113.028 236.521 107.2 242.589 107.2 242.589C107.2 242.589 99.7483 249.732 90.0735 251.806C80.3988 253.803 68.9814 255.646 64.2341 254.725C64.2341 254.725 52.0356 253.496 46.1466 251.115C40.3177 248.734 32.5058 243.971 32.5058 243.971C32.5058 243.971 23.3118 238.134 21.7494 230.914C20.127 223.617 29.2007 216.474 29.2007 216.474C29.2007 216.474 37.1329 211.712 39.2361 211.405C39.2361 211.405 48.3099 204.953 48.8507 204.261C49.3315 203.57 57.3236 198.885 57.3236 198.885L70.5438 198.501C70.5438 198.501 86.2277 198.501 92.357 200.191C98.4864 201.88 104.315 202.572 105.096 203.57C105.096 203.57 104.315 205.951 104.556 207.027C104.856 208.025 106.659 211.789 106.539 212.403C106.418 213.094 106.178 214.784 106.178 214.784Z" fill="white"/>
<path d="M277.919 69.9232C277.919 69.9232 273.352 83.2111 277.919 91.8905C282.426 100.493 295.346 102.26 302.016 98.112C302.016 98.112 302.196 110.325 314.575 115.778C327.014 121.155 336.328 106.561 336.328 106.561C336.328 106.561 350.63 115.701 362.288 104.871C374.006 94.0411 371.061 74.9926 371.061 74.9926C371.061 74.9926 383.56 75.3766 386.445 57.0194C389.389 38.7389 376.65 30.9045 376.65 30.9045C376.65 30.9045 378.993 17.6934 369.199 8.86039C360.605 1.10272 346.304 6.47933 343.179 10.9342C343.179 10.9342 337.891 0.411432 328.336 1.0259C318.782 1.71718 314.816 13.9297 314.816 13.9297C314.816 13.9297 303.639 -1.35515 287.474 10.5502C271.249 22.4555 278.701 44.8068 278.701 44.8068C278.701 44.8068 271.55 46.4966 270.468 55.7136C269.086 67.7726 277.919 69.9232 277.919 69.9232Z" stroke="#000631" stroke-width="1.6" stroke-linecap="round" stroke-linejoin="round"/>
<path d="M277.979 99.4177C280.863 99.4945 283.207 102.49 283.207 106.254C283.207 110.017 280.803 113.013 277.919 113.013C274.974 113.013 272.571 110.017 272.571 106.254C272.571 102.49 274.974 99.4177 277.919 99.4177" stroke="#000631" stroke-width="1.6" stroke-linecap="round" stroke-linejoin="round"/>
<path d="M263.978 107.943C266.261 107.943 268.064 110.324 268.064 113.166C268.064 116.085 266.201 118.466 263.978 118.466C261.694 118.466 259.832 116.085 259.832 113.166C259.832 110.248 261.694 107.943 263.978 107.943Z" stroke="#000631" stroke-width="1.6" stroke-linecap="round" stroke-linejoin="round"/>
<path d="M454.108 157.255C454.108 157.255 459.276 141.97 454.108 132.061C448.94 122.153 434.037 120.079 426.345 124.841C426.345 124.841 426.165 110.785 411.863 104.564C397.622 98.3423 386.865 115.163 386.865 115.163C386.865 115.163 370.46 104.564 357 117.084C343.539 129.527 346.904 151.417 346.904 151.417C346.904 151.417 332.542 151.033 329.177 172.079C325.872 193.201 340.475 202.188 340.475 202.188C340.475 202.188 337.77 217.396 349.068 227.534C358.983 236.444 375.388 230.3 378.993 225.23C378.993 225.23 385.062 237.289 396.059 236.521C407.056 235.753 411.683 221.697 411.683 221.697C411.683 221.697 424.483 239.286 443.111 225.614C461.739 211.942 453.206 186.135 453.206 186.135C453.206 186.135 461.439 184.214 462.641 173.692C464.263 159.789 454.108 157.255 454.108 157.255Z" stroke="#000631" stroke-width="1.6" stroke-linecap="round" stroke-linejoin="round"/>
<path d="M314.154 163.015C317.88 163.092 320.884 166.932 320.884 171.695C320.884 176.457 317.82 180.374 314.094 180.374C310.368 180.374 307.304 176.457 307.304 171.695C307.304 166.856 310.368 163.015 314.094 163.015" stroke="#000631" stroke-width="1.6" stroke-linecap="round" stroke-linejoin="round"/>
<path d="M296.188 168.469C299.132 168.469 301.476 171.464 301.476 175.228C301.476 178.991 299.072 181.987 296.127 181.987C293.243 181.987 290.839 178.991 290.839 175.228C290.839 171.464 293.243 168.469 296.127 168.469" stroke="#000631" stroke-width="1.6" stroke-linecap="round" stroke-linejoin="round"/>
<path d="M278.641 167.086C280.924 167.086 282.787 169.467 282.787 172.463C282.787 175.381 280.924 177.839 278.58 177.839C276.237 177.839 274.374 175.381 274.374 172.463C274.374 169.467 276.237 167.086 278.58 167.086" stroke="#000631" stroke-width="1.6" stroke-linecap="round" stroke-linejoin="round"/>
<path d="M170.716 89.9702C173.6 89.9702 175.944 92.9657 175.944 96.7294C175.944 100.416 173.6 103.412 170.656 103.412C167.771 103.412 165.368 100.416 165.368 96.7294C165.368 92.9657 167.771 89.9702 170.656 89.9702" stroke="#000631" stroke-width="1.7" stroke-linecap="round" stroke-linejoin="round"/>
<path d="M185.739 97.4974C187.842 97.4974 189.525 99.7249 189.525 102.336C189.525 105.102 187.782 107.252 185.679 107.252C183.576 107.252 181.833 105.102 181.833 102.336C181.833 99.6481 183.576 97.4974 185.679 97.4974" stroke="#000631" stroke-width="1.7" stroke-linecap="round" stroke-linejoin="round"/>
<path d="M153.77 92.8122C153.77 92.8122 160.2 106.561 152.088 118.773C144.035 130.986 132.618 125.686 132.618 125.686C132.618 125.686 128.051 138.513 118.016 136.439C107.98 134.366 104.675 128.835 104.675 128.835C104.675 128.835 95.4213 142.123 80.3984 136.439C65.3755 130.756 66.5773 107.713 66.5773 107.713C66.5773 107.713 46.687 102.183 46.8072 81.1373C46.8673 59.3236 60.7484 51.95 60.7484 51.95C60.7484 51.95 54.7994 37.6636 66.6374 29.5219C78.4754 21.3802 86.8282 29.5219 86.8282 29.5219C86.8282 29.5219 100.108 12.8544 116.273 19.3063C132.498 25.8351 133.339 42.1185 133.339 42.1185C133.339 42.1185 145.718 38.0477 149.924 48.5704C154.131 59.0932 151.006 65.0074 151.006 65.0074C151.006 65.0074 158.638 66.8509 159.779 77.7577C160.921 88.5877 153.83 92.6585 153.83 92.6585" stroke="#000631" stroke-width="1.7" stroke-linecap="round" stroke-linejoin="round"/>
<path d="M133.039 141.125C136.644 141.202 139.589 144.965 139.589 149.65C139.589 154.336 136.584 158.176 132.919 158.176C129.253 158.176 126.309 154.336 126.309 149.65C126.309 144.965 129.253 141.125 132.919 141.125" stroke="#000631" stroke-width="1.6" stroke-linecap="round" stroke-linejoin="round"/>
<path d="M153.83 130.295C156.654 130.295 158.998 133.29 158.998 136.9C158.998 140.587 156.654 143.583 153.77 143.583C150.886 143.583 148.602 140.587 148.602 136.9C148.602 133.29 150.886 130.295 153.77 130.295" stroke="#000631" stroke-width="1.6" stroke-linecap="round" stroke-linejoin="round"/>
<path d="M173.661 132.753C175.824 132.829 177.567 135.057 177.567 137.822C177.567 140.664 175.764 142.891 173.601 142.891C171.437 142.891 169.635 140.664 169.635 137.822C169.635 135.057 171.437 132.753 173.601 132.753" stroke="#000631" stroke-width="1.6" stroke-linecap="round" stroke-linejoin="round"/>
<path d="M9.37016 233.141C9.37016 233.141 -2.40774 222.158 1.97894 204.338C6.36562 186.442 20.4871 185.597 20.4871 185.597C20.4871 185.597 20.8477 169.083 32.3853 165.55C43.8627 161.94 49.3912 166.011 49.3912 166.011C49.3912 166.011 54.6792 146.348 72.887 143.813C91.0346 141.202 97.9451 166.625 97.9451 166.625C97.9451 166.625 121.261 161.172 128.592 183.83C136.284 207.334 123.965 223.31 123.965 223.31C123.965 223.31 135.382 235.215 125.527 250.807C115.672 266.4 103.834 262.482 103.834 262.482C103.834 262.482 95.4213 288.213 75.7113 290.594C56.0012 292.975 49.331 275.924 49.331 275.924C49.331 275.924 37.4329 287.445 29.2004 278.612C20.9077 269.702 22.1697 261.484 22.1697 261.484C22.1697 261.484 13.3363 263.942 8.22848 252.881C3.18079 241.821 9.31008 233.372 9.31008 233.372" stroke="#000631" stroke-width="1.9" stroke-linecap="round" stroke-linejoin="round"/>
<path d="M197.997 154.95C197.997 154.95 196.195 159.405 195.233 161.172C194.272 162.862 192.349 165.243 192.349 165.243C192.349 165.243 193.971 174.076 194.272 177.839C194.572 181.526 195.413 204.261 195.894 210.56C196.375 216.858 195.473 229.224 195.534 231.298C195.594 233.449 193.13 256.414 192.649 259.179C192.168 261.945 189.344 278.382 189.344 278.382C189.344 278.382 178.528 275.847 177.506 276.077C176.485 276.231 173.6 275.54 173.6 275.54L178.407 255.339C178.407 255.339 165.668 254.571 162.063 253.496C158.457 252.497 149.804 248.349 149.203 248.042C148.602 247.735 144.997 244.125 144.997 244.125L152.568 204.722C152.568 204.722 158.217 182.371 158.758 181.449C159.238 180.528 160.62 179.452 160.741 178.454C160.861 177.455 160.44 176.841 160.921 176.457C161.341 176.149 167.23 174.076 168.793 173.077C170.415 172.079 186.039 161.325 186.039 161.325C186.039 161.325 187.962 156.102 190.185 154.566C192.409 153.03 197.877 151.724 197.877 151.724L197.997 154.95Z" fill="#6BD4CD"/>
<path d="M225.279 170.081L229.906 162.708C229.906 162.708 232.31 164.782 233.992 165.55C235.675 166.318 248.474 170.85 248.835 172.002C249.195 173.077 249.496 176.457 249.616 176.457C249.736 176.457 272.571 208.947 272.691 209.484C272.871 210.022 272.691 213.939 272.691 213.939L270.408 210.56C270.408 210.56 264.398 213.402 261.214 218.01C257.969 222.619 254.423 229.992 253.582 233.065C252.681 236.214 252.32 238.595 252.32 238.595L255.024 241.206C255.024 241.206 253.582 243.28 252.5 244.125C251.359 244.97 250.517 241.898 250.517 241.898L247.212 236.137C247.212 236.137 246.371 240.208 246.371 246.122C246.311 252.113 247.212 266.553 247.212 266.553C247.212 266.553 242.104 269.088 241.023 270.778C239.941 272.467 238.619 274.08 238.619 274.08L236.095 275.002C236.095 275.002 236.396 259.64 236.456 258.104C236.456 256.568 234.353 223.31 234.353 223.31C234.353 223.31 231.949 197.579 231.829 195.659C231.709 193.739 229.365 181.296 228.584 179.529C227.743 177.839 225.279 170.081 225.279 170.081Z" fill="#6BD4CD"/>
<path d="M252.32 238.595C252.32 238.595 254.243 230.223 257.969 223.003C261.695 215.783 267.944 211.712 270.408 210.56L271.369 212.787C271.369 212.787 266.442 215.322 261.394 223.003C256.407 230.76 255.024 241.206 255.024 241.206L252.32 238.595Z" fill="#000631"/>
<path d="M149.203 248.042C149.203 248.042 161.162 255.8 178.408 255.339L177.567 258.565C177.567 258.565 159.719 261.023 148.723 251.499L149.203 248.042Z" fill="#000631"/>
<path d="M197.998 154.95C197.998 154.95 207.192 167.777 209.475 169.774L221.073 171.925L219.09 175.919C219.09 175.919 212.059 176.841 207.011 173.077C201.964 169.313 197.998 154.95 197.998 154.95Z" fill="#000631"/>
<path d="M215.184 122.998C215.184 122.998 215.545 121.692 215.004 121.078C214.463 120.463 213.982 119.849 213.141 120.156C212.36 120.463 211.578 120.617 211.458 121.539C211.278 122.537 211.939 123.459 211.999 123.305C212.059 123.228 215.184 122.998 215.184 122.998Z" fill="#000631"/>
<path d="M230.627 126.838C230.627 126.838 233.812 127.376 234.654 126.608C234.654 126.608 234.654 124.611 233.452 124.227C232.25 123.843 231.469 124.688 231.168 125.148C230.928 125.609 230.627 126.838 230.627 126.838Z" fill="#000631"/>
<path d="M265.24 216.474C265.24 216.474 282.666 218.394 291.68 219.316C300.694 220.238 308.806 217.319 308.806 217.319C308.806 217.319 318.661 203.8 319.382 202.879C320.103 201.88 331.521 186.979 336.148 187.824C336.148 187.824 318.781 225 316.378 234.831C316.378 234.831 313.373 239.056 312.772 241.206C312.111 243.28 311.751 244.816 311.751 244.816C311.751 244.816 309.708 247.351 309.708 249.194C309.768 251.115 309.287 251.883 309.287 251.883C309.287 251.883 308.386 254.955 308.025 256.261C307.604 257.567 309.407 258.104 309.407 258.104C309.407 258.104 309.107 258.565 308.386 260.639C307.604 262.636 306.583 266.553 306.583 266.553L280.022 295.049L272.271 295.817C272.271 295.817 274.734 294.204 275.215 291.516C275.756 288.751 275.996 288.06 275.996 288.06C275.996 288.06 276.417 286.37 277.138 285.832C277.919 285.371 278.16 285.371 278.16 284.373C278.16 283.374 277.739 282.299 277.739 282.299C277.739 282.299 278.7 280.532 278.58 279.227C278.4 277.921 276.477 278.458 276.477 278.458C276.477 278.458 276.838 275.309 272.691 276.077C268.605 276.922 254.063 280.839 253.402 281.07C252.681 281.3 247.873 281.992 247.212 281.608C246.551 281.3 246.131 278.842 246.371 278.382C246.551 277.921 247.994 274.925 248.474 274.08C248.955 273.159 265.24 216.474 265.24 216.474Z" fill="#E58D00"/>
<path d="M181.412 164.551L112.427 175.074L106.298 176.994L110.324 213.939L115.852 214.247L119.638 213.478L131.116 322.931L142.894 317.554L132.798 208.639L146.619 204.261L148.482 228.456L152.989 201.957C152.989 201.957 158.638 181.526 158.758 181.449C158.818 181.372 160.5 180.604 160.741 178.454C160.981 176.303 160.2 176.61 160.981 176.303C161.762 175.919 164.046 175.228 165.548 174.537C167.05 173.922 181.412 164.551 181.412 164.551Z" fill="white"/>
<path d="M197.217 141.355C197.217 145.964 197.818 152.492 198.178 154.259C199.08 158.56 207.432 167.393 209.475 169.774C209.896 170.235 210.016 169.851 210.557 169.928L221.073 171.925C221.734 172.079 223.837 171.771 224.378 171.234C226.782 168.622 230.508 160.404 232.671 157.331C235.255 153.645 242.045 125.148 242.045 125.148" stroke="#000631" stroke-width="2.1" stroke-linecap="round" stroke-linejoin="round"/>
<path d="M207.011 93.7338C207.011 93.7338 200.04 107.559 198.358 122.307" stroke="#000631" stroke-width="2.1" stroke-linecap="round" stroke-linejoin="round"/>
<path d="M198.358 122.307C198.358 122.307 194.452 116.93 192.83 116.853C191.147 116.853 190.667 134.826 190.967 136.977C191.268 139.051 194.633 144.043 197.036 141.586" stroke="#000631" stroke-width="2.1" stroke-linecap="round" stroke-linejoin="round"/>
<path d="M192.349 120.694C192.349 120.694 198.057 124.995 196.315 134.826C196.315 134.826 193.01 130.986 192.769 136.9" stroke="#000631" stroke-width="2.1" stroke-linecap="round" stroke-linejoin="round"/>
<path d="M194.031 125.993C194.031 125.993 192.109 128.221 192.289 130.679" stroke="#000631" stroke-width="2.1" stroke-linecap="round" stroke-linejoin="round"/>
<path d="M241.805 124.995C243.247 126.685 243.006 133.597 242.706 136.286C242.405 139.051 239.822 146.885 238.56 148.729C237.238 150.572 235.855 149.343 235.855 149.343" stroke="#000631" stroke-width="2.1" stroke-linecap="round" stroke-linejoin="round"/>
<path d="M241.985 128.528C241.985 128.528 239.521 137.591 238.86 143.736C238.86 143.736 240.182 139.281 240.362 142.123" stroke="#000631" stroke-width="2.1" stroke-linecap="round" stroke-linejoin="round"/>
<path d="M240.542 132.215C240.542 132.215 242.345 134.826 240.963 137.361" stroke="#000631" stroke-width="2.1" stroke-linecap="round" stroke-linejoin="round"/>
<path d="M196.315 119.157C196.315 119.157 193.07 106.945 193.551 103.796C194.091 100.723 195.293 95.6541 195.293 95.6541" stroke="#000631" stroke-width="2.1" stroke-linecap="round" stroke-linejoin="round"/>
<path d="M198.238 84.0559C198.238 84.0559 194.152 101.952 198.599 112.245" stroke="#000631" stroke-width="1.6" stroke-linecap="round" stroke-linejoin="round"/>
<path d="M199.139 81.8285C199.56 81.5981 201.783 76.4519 205.689 75.7606C209.535 75.1461 215.184 77.604 215.184 77.604" stroke="#000631" stroke-width="1.6" stroke-linecap="round" stroke-linejoin="round"/>
<path d="M213.801 80.6763C214.342 80.9068 219.991 74.3012 222.094 74.7621" stroke="#000631" stroke-width="1.6" stroke-linecap="round" stroke-linejoin="round"/>
<path d="M225.64 76.8359C225.64 76.8359 233.692 82.5198 234.654 88.2036" stroke="#000631" stroke-width="1.6" stroke-linecap="round" stroke-linejoin="round"/>
<path d="M228.944 76.759C229.485 76.8358 245.289 83.1342 248.114 91.2759" stroke="#000631" stroke-width="1.6" stroke-linecap="round" stroke-linejoin="round"/>
<path d="M249.556 92.8889C249.556 92.8889 246.732 114.549 244.328 119.388" stroke="#000631" stroke-width="1.6" stroke-linecap="round" stroke-linejoin="round"/>
<path d="M248.114 109.787C248.114 109.787 246.191 121.769 241.804 124.995" stroke="#000631" stroke-width="1.6" stroke-linecap="round" stroke-linejoin="round"/>
<path d="M230.507 95.8076C230.507 95.8076 239.4 112.936 240.963 113.858C242.465 114.703 243.667 116.469 243.667 116.469" stroke="#000631" stroke-width="1.6" stroke-linecap="round" stroke-linejoin="round"/>
<path d="M209.775 91.8904C209.775 91.8904 213.561 82.827 218.308 83.7487" stroke="#000631" stroke-width="1.6" stroke-linecap="round" stroke-linejoin="round"/>
<path d="M221.012 84.2864C221.012 84.2864 228.944 104.564 232.55 106.638" stroke="#000631" stroke-width="1.6" stroke-linecap="round" stroke-linejoin="round"/>
<path d="M211.218 93.5034C211.218 93.5034 219.39 91.5064 224.979 93.657" stroke="#000631" stroke-width="1.6" stroke-linecap="round" stroke-linejoin="round"/>
<path d="M215.184 92.8889C215.184 92.8889 217.707 86.2834 222.335 87.5891" stroke="#000631" stroke-width="1.6" stroke-linecap="round" stroke-linejoin="round"/>
<path d="M232.25 103.335C232.25 103.335 238.92 117.237 243.607 116.469" stroke="#000631" stroke-width="1.6" stroke-linecap="round" stroke-linejoin="round"/>
<path d="M238.56 113.474C238.439 113.166 242.045 125.149 242.045 125.149" stroke="#000631" stroke-width="1.6" stroke-linecap="round" stroke-linejoin="round"/>
<path d="M239.701 101.031C239.701 101.031 241.203 110.708 242.165 112.091" stroke="#000631" stroke-width="1.6" stroke-linecap="round" stroke-linejoin="round"/>
<path d="M209.475 94.1178C209.475 94.1178 206.05 91.1223 204.428 90.8151" stroke="#000631" stroke-width="1.6" stroke-linecap="round" stroke-linejoin="round"/>
<path d="M206.291 87.0515C206.291 87.0515 202.625 92.5817 201.724 95.8845C200.762 99.1873 199.861 101.184 199.861 101.184" stroke="#000631" stroke-width="1.6" stroke-linecap="round" stroke-linejoin="round"/>
<path d="M206.831 93.657C206.831 93.657 202.925 99.1104 200.762 101.415" stroke="#000631" stroke-width="1.6" stroke-linecap="round" stroke-linejoin="round"/>
<path d="M204.608 81.1373C204.608 81.1373 206.17 79.3707 211.699 84.2096" stroke="#000631" stroke-width="1.6" stroke-linecap="round" stroke-linejoin="round"/>
<path d="M203.947 143.506L203.286 150.035" stroke="#000631" stroke-width="1.2" stroke-linecap="round" stroke-linejoin="round"/>
<path d="M203.465 153.568C203.465 153.568 202.686 159.559 203.225 162.17" stroke="#000631" stroke-width="1.2" stroke-linecap="round" stroke-linejoin="round"/>
<path d="M208.814 154.566C208.694 155.258 206.53 164.935 208.033 168.161" stroke="#000631" stroke-width="1.2" stroke-linecap="round" stroke-linejoin="round"/>
<path d="M212.299 157.331C212.299 157.331 209.956 168.008 210.797 169.851" stroke="#000631" stroke-width="1.2" stroke-linecap="round" stroke-linejoin="round"/>
<path d="M216.325 159.482C216.325 159.482 214.643 169.621 215.003 171.08" stroke="#000631" stroke-width="1.2" stroke-linecap="round" stroke-linejoin="round"/>
<path d="M219.39 161.172C219.39 161.172 218.248 171.003 218.188 171.618" stroke="#000631" stroke-width="1.2" stroke-linecap="round" stroke-linejoin="round"/>
<path d="M222.816 160.711C222.816 160.711 223.657 168.545 222.455 171.08" stroke="#000631" stroke-width="1.2" stroke-linecap="round" stroke-linejoin="round"/>
<path d="M224.798 159.175C224.798 159.175 225.098 163.86 224.918 165.243" stroke="#000631" stroke-width="1.2" stroke-linecap="round" stroke-linejoin="round"/>
<path d="M216.867 152.646V154.95" stroke="#000631" stroke-width="1.2" stroke-linecap="round" stroke-linejoin="round"/>
<path d="M218.549 152.953C218.669 153.644 218.549 156.41 218.549 156.41" stroke="#000631" stroke-width="1.2" stroke-linecap="round" stroke-linejoin="round"/>
<path d="M219.57 154.259L219.39 155.411" stroke="#000631" stroke-width="1.2" stroke-linecap="round" stroke-linejoin="round"/>
<path d="M227.563 154.182C227.563 154.182 227.623 156.026 227.082 158.023" stroke="#000631" stroke-width="1.2" stroke-linecap="round" stroke-linejoin="round"/>
<path d="M229.786 144.427C229.786 144.427 230.026 152.339 229.546 155.027" stroke="#000631" stroke-width="1.2" stroke-linecap="round" stroke-linejoin="round"/>
<path d="M231.83 147.807C231.83 147.807 231.289 152.569 230.988 155.258" stroke="#000631" stroke-width="1.2" stroke-linecap="round" stroke-linejoin="round"/>
<path d="M201.964 146.424C201.964 146.424 201.483 151.494 201.483 153.721" stroke="#000631" stroke-width="1.2" stroke-linecap="round" stroke-linejoin="round"/>
<path d="M232.55 151.724L232.13 155.795" stroke="#000631" stroke-width="1.2" stroke-linecap="round" stroke-linejoin="round"/>
<path d="M205.329 140.817C205.99 140.817 212.24 140.203 213.682 141.355" stroke="#000631" stroke-width="1.2" stroke-linecap="round" stroke-linejoin="round"/>
<path d="M207.492 139.665C207.492 139.665 210.136 138.82 211.338 139.742" stroke="#000631" stroke-width="1.2" stroke-linecap="round" stroke-linejoin="round"/>
<path d="M225.279 142.2C225.399 142.43 228.704 141.893 229.906 143.045" stroke="#000631" stroke-width="1.2" stroke-linecap="round" stroke-linejoin="round"/>
<path d="M219.751 142.507L222.876 142.891C222.876 142.891 224.739 143.275 227.383 143.967" stroke="#000631" stroke-width="1.2" stroke-linecap="round" stroke-linejoin="round"/>
<path d="M216.686 142.354L215.304 142.046" stroke="#000631" stroke-width="1.2" stroke-linecap="round" stroke-linejoin="round"/>
<path d="M216.746 138.744C216.746 138.744 216.145 137.668 216.626 137.745C217.167 137.899 218.068 139.512 218.068 139.512" stroke="#000631" stroke-width="1.2" stroke-linecap="round" stroke-linejoin="round"/>
<path d="M220.772 139.973C220.772 139.973 222.395 138.129 222.395 138.897" stroke="#000631" stroke-width="1.2" stroke-linecap="round" stroke-linejoin="round"/>
<path d="M223.536 139.819C223.536 139.819 224.257 137.822 223.296 136.977" stroke="#000631" stroke-width="1.2" stroke-linecap="round" stroke-linejoin="round"/>
<path d="M214.883 138.82C214.883 138.82 214.342 136.055 215.364 135.825" stroke="#000631" stroke-width="1.2" stroke-linecap="round" stroke-linejoin="round"/>
<path d="M218.729 133.982C218.729 133.982 219.991 133.597 220.652 134.366" stroke="#000631" stroke-width="1.2" stroke-linecap="round" stroke-linejoin="round"/>
<path d="M213.982 125.609L215.184 124.534" stroke="#000631" stroke-width="1.2" stroke-linecap="round" stroke-linejoin="round"/>
<path d="M225.82 125.763L226.901 127.376" stroke="#000631" stroke-width="1.2" stroke-linecap="round" stroke-linejoin="round"/>
<path d="M216.084 116.546C216.084 116.546 217.827 121.692 217.346 125.533" stroke="#000631" stroke-width="1.1" stroke-linecap="round" stroke-linejoin="round"/>
<path d="M225.64 117.775C225.64 117.775 224.318 119.465 224.258 121.001C224.258 121.001 222.816 124.073 223.657 133.905" stroke="#000631" stroke-width="1.2" stroke-linecap="round" stroke-linejoin="round"/>
<path d="M230.087 111.323C230.087 111.323 233.272 117.775 237.839 119.465" stroke="#000631" stroke-width="1.8" stroke-linecap="round" stroke-linejoin="round"/>
<path d="M207.732 113.627C207.732 113.627 215.244 112.322 217.648 110.094" stroke="#000631" stroke-width="1.8" stroke-linecap="round" stroke-linejoin="round"/>
<path d="M207.071 119.695C207.071 119.695 210.617 117.468 212.96 118.85C215.304 120.233 216.145 122.614 216.145 122.614C216.145 122.614 212.78 124.073 210.497 122.844C208.153 121.615 207.252 120.079 207.252 120.079" stroke="#000631" stroke-width="0.9" stroke-linecap="round" stroke-linejoin="round"/>
<path d="M226.481 123.382C226.481 123.382 230.087 121.154 232.431 122.537C234.774 123.92 235.615 126.301 235.615 126.301C235.615 126.301 232.25 127.76 229.907 126.531C227.623 125.302 226.722 123.766 226.722 123.766" stroke="#000631" stroke-width="0.9" stroke-linecap="round" stroke-linejoin="round"/>
<path d="M218.308 178.3C218.308 178.3 219.39 174.613 220.952 171.848" stroke="#000631" stroke-width="2.1" stroke-linecap="round" stroke-linejoin="round"/>
<path d="M198.178 154.259C198.178 154.259 195.594 162.017 192.349 165.243" stroke="#000631" stroke-width="2.1" stroke-linecap="round" stroke-linejoin="round"/>
<path d="M194.933 156.41C194.933 156.41 191.387 162.477 193.13 169.851C194.933 177.302 196.976 212.634 195.293 235.676C193.611 258.719 189.344 277.076 189.344 277.076" stroke="#000631" stroke-width="2.1" stroke-linecap="round" stroke-linejoin="round"/>
<path d="M212.299 148.114C212.299 148.114 215.304 145.426 219.21 147.116C223.056 148.806 221.914 149.727 221.794 150.418C221.734 150.495 213.381 147.653 212.179 148.806" stroke="#000631" stroke-width="1.2" stroke-linecap="round" stroke-linejoin="round"/>
<path d="M230.627 126.608C230.627 126.608 231.168 123.92 232.61 124.073C234.113 124.227 234.593 124.995 234.654 126.608" stroke="#000631" stroke-width="0.9" stroke-linecap="round" stroke-linejoin="round"/>
<path d="M211.579 122.998C211.579 122.998 210.858 121.308 212.119 120.54C213.381 119.772 214.523 119.926 215.184 121.385C215.785 122.844 215.184 122.998 215.184 122.998" stroke="#000631" stroke-width="0.9" stroke-linecap="round" stroke-linejoin="round"/>
<path d="M197.217 151.724C197.217 151.724 192.349 152.876 190.186 154.566C188.023 156.256 184.717 163.937 182.013 171.618C179.309 179.375 173.721 195.966 173.721 195.966C173.721 195.966 185.378 190.513 187.782 191.895C190.186 193.278 194.813 198.04 195.294 205.183" stroke="#000631" stroke-width="2.1" stroke-linecap="round" stroke-linejoin="round"/>
<path d="M225.279 171.08C225.279 171.08 231.829 189.514 232.37 200.728C232.91 211.942 236.336 248.58 236.095 259.794C235.795 270.931 236.095 275.002 236.095 275.002" stroke="#000631" stroke-width="2.1" stroke-linecap="round" stroke-linejoin="round"/>
<path d="M229.546 162.708C229.546 162.708 237.238 169.39 238.74 172.232C240.242 175.074 245.65 195.275 245.65 196.35C245.65 197.349 234.233 189.898 233.692 190.513" stroke="#000631" stroke-width="2.1" stroke-linecap="round" stroke-linejoin="round"/>
<path d="M238.319 178.07C238.319 178.07 237.177 178.915 235.855 181.526C234.473 184.061 232.13 194.583 232.37 200.728" stroke="#000631" stroke-width="2.1" stroke-linecap="round" stroke-linejoin="round"/>
<path d="M233.272 165.243C233.272 165.243 248.054 170.696 248.836 172.002C249.617 173.231 248.355 174.613 249.617 176.457C250.939 178.3 271.13 206.182 272.692 210.252C272.692 210.252 266.863 209.561 260.253 219.393C253.222 229.762 252.021 238.057 251.72 244.125C251.72 244.125 247.754 236.675 246.432 234.985" stroke="#000631" stroke-width="2.1" stroke-linecap="round" stroke-linejoin="round"/>
<path d="M245.65 201.343C245.65 201.343 246.972 231.221 246.432 244.125C245.891 257.029 247.213 266.553 247.213 266.553" stroke="#000631" stroke-width="2.1" stroke-linecap="round" stroke-linejoin="round"/>
<path d="M252.981 238.902L257.068 243.434" stroke="#000631" stroke-width="2.1" stroke-linecap="round" stroke-linejoin="round"/>
<path d="M251.719 244.125C251.719 244.125 252.981 244.97 255.024 241.206" stroke="#000631" stroke-width="2.1" stroke-linecap="round" stroke-linejoin="round"/>
<path d="M270.167 210.56C270.167 210.56 274.554 216.704 275.095 217.319" stroke="#000631" stroke-width="2.1" stroke-linecap="round" stroke-linejoin="round"/>
<path d="M272.691 210.252C272.691 210.252 273.231 212.633 272.691 213.939" stroke="#000631" stroke-width="2.1" stroke-linecap="round" stroke-linejoin="round"/>
<path d="M249.736 240.515C249.736 240.515 248.534 234.294 255.205 221.39C261.815 208.563 271.369 207.795 271.369 207.795" stroke="#000631" stroke-width="1.3" stroke-linecap="round" stroke-linejoin="round"/>
<path d="M195.895 189.821C195.895 189.821 203.706 199.346 213.501 200.037C223.356 200.728 226.541 188.516 227.082 182.371C227.082 182.371 227.202 176.61 226.481 174.536" stroke="#000631" stroke-width="1.3" stroke-linecap="round" stroke-linejoin="round"/>
<path d="M194.873 185.213C194.873 185.213 202.745 195.121 212.78 196.427C222.815 197.656 224.738 183.062 224.918 181.065C225.219 177.993 224.377 173.461 222.034 172.539" stroke="#000631" stroke-width="2.1" stroke-linecap="round" stroke-linejoin="round"/>
<path d="M186.039 161.325C186.039 161.325 169.213 172.923 167.05 173.922C164.947 174.92 160.68 175.612 160.68 176.994C160.68 178.3 161.221 178.3 159.358 180.374C157.496 182.371 152.748 201.035 151.426 211.942C150.104 222.772 144.997 244.125 144.997 244.125C144.997 244.125 149.023 249.886 159.899 252.958C170.776 256.03 181.652 255.339 182.494 255.032C183.275 254.648 177.446 217.319 179.79 212.249C182.193 207.18 181.652 221.082 181.652 221.082" stroke="#000631" stroke-width="2.1" stroke-linecap="round" stroke-linejoin="round"/>
<path d="M189.344 215.091C189.104 215.629 182.373 250.116 182.434 252.574" stroke="#000631" stroke-width="2.1" stroke-linecap="round" stroke-linejoin="round"/>
<path d="M186.039 213.478C186.039 213.478 185.799 228.61 185.438 232.45" stroke="#000631" stroke-width="2.1" stroke-linecap="round" stroke-linejoin="round"/>
<path d="M178.408 255.339C178.408 255.339 173.42 275.002 172.939 279.457" stroke="#000631" stroke-width="2.1" stroke-linecap="round" stroke-linejoin="round"/>
<path d="M173.601 275.54C173.601 275.54 185.919 276.692 193.491 280.225C201.062 283.835 236.096 283.221 236.096 283.221C236.096 283.221 238.98 271.622 241.925 269.933C244.869 268.243 250.938 264.863 250.938 264.863" stroke="#000631" stroke-width="2.1" stroke-linecap="round" stroke-linejoin="round"/>
<path d="M248.055 274.08C248.055 274.08 245.891 279.15 246.432 281.147C246.973 283.144 254.665 280.763 258.931 279.457C263.137 278.074 274.375 274.311 276.298 277.076C278.281 279.764 260.253 285.525 258.09 287.599" stroke="#000631" stroke-width="2.1" stroke-linecap="round" stroke-linejoin="round"/>
<path d="M276.477 278.458C276.477 278.458 278.821 277.767 278.581 280.148C278.28 282.452 261.815 290.978 259.712 293.359" stroke="#000631" stroke-width="2.1" stroke-linecap="round" stroke-linejoin="round"/>
<path d="M277.199 281.761C277.199 281.761 278.821 283.144 278.04 284.834C277.259 286.523 263.137 296.893 259.712 298.045" stroke="#000631" stroke-width="2.1" stroke-linecap="round" stroke-linejoin="round"/>
<path d="M272.271 289.903C272.271 289.903 275.095 287.599 275.876 288.904C276.718 290.287 271.67 297.737 268.185 299.427C264.76 301.117 255.746 303.191 255.746 303.191C255.746 303.191 237.959 302.192 236.877 302.5C235.795 302.807 199.44 313.022 194.392 313.33C189.345 313.714 168.673 317.784 158.037 312.715C149.143 308.414 145.237 309.566 144.997 302.653C144.757 295.74 145.057 277.076 149.203 248.042" stroke="#000631" stroke-width="2.1" stroke-linecap="round" stroke-linejoin="round"/>
<path d="M270.108 291.516L267.163 295.049H265" stroke="#000631" stroke-width="2.1" stroke-linecap="round" stroke-linejoin="round"/>
<path d="M247.212 278.382L265.3 216.32C265.3 216.32 292.582 221.39 308.806 217.319C308.806 217.319 328.997 187.133 336.148 187.824C336.148 187.824 318.902 224.462 316.498 233.986" stroke="#000631" stroke-width="2.1" stroke-linecap="round" stroke-linejoin="round"/>
<path d="M272.691 295.817L280.023 295.049C280.023 295.049 304.3 267.552 306.403 265.862L308.806 259.41" stroke="#000631" stroke-width="2.1" stroke-linecap="round" stroke-linejoin="round"/>
<path d="M308.807 217.319C308.807 217.319 283.208 282.299 280.023 295.049" stroke="#000631" stroke-width="1.6" stroke-linecap="round" stroke-linejoin="round"/>
<path d="M317.82 233.065C317.82 233.065 312.773 238.748 312.292 243.127C311.751 247.505 314.335 244.816 315.056 243.127C315.717 241.437 319.683 237.366 320.224 235.676C320.765 233.986 321.005 229.224 318.902 228.917" stroke="#000631" stroke-width="2.1" stroke-linecap="round" stroke-linejoin="round"/>
<path d="M311.751 244.816C311.751 244.816 309.347 247.505 309.588 251.268C309.888 255.032 314.455 248.196 316.378 246.122C318.361 244.125 319.383 239.056 318.361 238.595" stroke="#000631" stroke-width="2.1" stroke-linecap="round" stroke-linejoin="round"/>
<path d="M309.588 251.268C309.588 251.268 306.703 256.03 307.725 257.72C308.806 259.41 312.893 254.571 314.155 251.883C315.477 249.271 315.176 249.194 314.756 248.042" stroke="#000631" stroke-width="2.1" stroke-linecap="round" stroke-linejoin="round"/>
<path d="M310.128 257.182C310.128 257.182 308.506 260.024 310.128 260.562C311.751 261.1 315.777 254.494 315.897 253.035C315.957 251.652 314.155 251.883 314.155 251.883" stroke="#000631" stroke-width="2.1" stroke-linecap="round" stroke-linejoin="round"/>
<path d="M311.09 217.165C310.489 219.469 310.189 220.622 309.588 223.233C309.588 223.182 309.608 223.156 309.648 223.156C311.33 219.546 313.073 216.013 314.876 212.48C315.116 212.249 315.176 212.096 315.417 211.865C313.313 216.858 311.39 222.004 309.528 227.227C309.107 227.688 308.927 227.995 308.506 228.456C309.708 225 310.309 223.387 311.571 220.084C311.531 220.135 311.511 220.161 311.511 220.161C310.068 223.156 309.347 224.616 307.905 227.688C307.905 227.688 307.905 227.688 307.845 227.765C308.266 225.845 308.446 224.923 308.867 223.233C308.867 223.233 308.847 223.233 308.807 223.233C307.545 226.459 306.944 228.072 305.562 231.759C305.201 232.22 305.021 232.373 304.6 232.834C306.523 227.765 308.566 222.772 310.609 217.78C310.79 217.549 310.91 217.396 311.09 217.165Z" fill="black"/>
<path d="M316.378 210.713C317.64 209.177 318.301 208.409 319.623 206.873C319.082 208.025 318.841 208.563 318.361 209.715C317.519 210.636 317.099 211.174 316.318 212.096C315.717 213.632 315.416 214.4 314.815 215.859C315.536 215.091 315.897 214.707 316.618 213.862C316.197 214.861 316.017 215.399 315.657 216.397C314.936 217.242 314.635 217.626 313.914 218.471C313.373 219.93 313.133 220.698 312.592 222.158C313.433 221.236 313.794 220.775 314.635 219.853C314.274 220.852 314.154 221.313 313.794 222.311C312.472 223.771 311.811 224.539 310.549 226.075C312.412 220.852 314.274 215.706 316.378 210.713Z" fill="black"/>
<path d="M319.803 212.019C321.005 208.409 322.447 205.106 324.009 201.803C324.49 201.189 324.73 200.882 325.271 200.344C322.867 205.49 320.944 210.867 319.021 216.32C318.841 216.551 318.721 216.704 318.481 216.935C318.481 215.245 318.481 213.862 318.841 211.251C318.801 211.302 318.781 211.328 318.781 211.328C317.339 215.168 316.798 217.012 315.777 220.007C315.296 220.545 315.055 220.775 314.635 221.313C316.438 216.013 318.24 210.867 320.464 205.874C320.704 205.567 320.824 205.413 321.065 205.183C320.283 207.871 320.043 209.408 319.743 212.096C319.783 212.045 319.803 212.019 319.803 212.019Z" fill="black"/>
<path d="M321.966 213.402C321.646 213.709 321.406 213.888 321.245 213.939C321.045 213.99 320.945 213.862 320.945 213.555C320.945 213.248 321.025 212.761 321.185 212.096C321.386 211.379 321.666 210.483 322.027 209.407C323.349 205.797 324.791 202.495 326.353 199.038C326.894 198.501 327.194 198.193 327.735 197.579C325.993 200.882 324.55 204.415 323.228 208.025C323.028 208.588 322.868 209.075 322.748 209.484C322.627 209.945 322.567 210.278 322.567 210.483C322.527 210.739 322.547 210.892 322.627 210.944C322.667 210.995 322.788 210.918 322.988 210.713C323.188 210.56 323.369 210.329 323.529 210.022C323.729 209.663 323.949 209.279 324.19 208.87C324.39 208.46 324.59 207.999 324.791 207.487C325.031 206.924 325.251 206.361 325.452 205.797C326.894 201.88 328.516 198.117 330.439 194.583C331.04 193.969 331.341 193.662 331.882 192.97C329.899 196.811 328.096 200.728 326.533 204.876C326.053 206.105 325.612 207.18 325.211 208.102C324.791 209.023 324.43 209.792 324.01 210.483C323.649 211.174 323.288 211.712 322.928 212.173C322.607 212.685 322.287 213.094 321.966 213.402Z" fill="black"/>
<path d="M182.434 163.63L112.367 174.536L106.298 176.457L110.264 213.632L115.852 213.939L153.049 202.264" stroke="#000631" stroke-width="2.1" stroke-linecap="round" stroke-linejoin="round"/>
<path d="M112.367 174.536L115.853 213.939" stroke="#000631" stroke-width="1.8" stroke-linecap="round" stroke-linejoin="round"/>
<path d="M120.059 213.478L131.236 322.547" stroke="#000631" stroke-width="2.1" stroke-linecap="round" stroke-linejoin="round"/>
<path d="M132.798 208.639L142.894 316.402" stroke="#000631" stroke-width="2.1" stroke-linecap="round" stroke-linejoin="round"/>
<path d="M146.62 204.261L148.482 228.456" stroke="#000631" stroke-width="2.1" stroke-linecap="round" stroke-linejoin="round"/>
<path d="M123.484 211.558L134.842 320.626" stroke="#000631" stroke-width="1.8" stroke-linecap="round" stroke-linejoin="round"/>
<path d="M150.585 204.261L151.186 213.478" stroke="#000631" stroke-width="1.8" stroke-linecap="round" stroke-linejoin="round"/>
<path d="M220.171 282.299L238.74 274.004" stroke="#000631" stroke-width="2.1" stroke-linecap="round" stroke-linejoin="round"/>
<path d="M120.059 328L154.852 312.177" stroke="#000631" stroke-width="2.1" stroke-linecap="round" stroke-linejoin="round"/>
<path d="M315.897 253.035L419.495 252.651" stroke="#000631" stroke-width="2.1" stroke-linecap="round" stroke-linejoin="round"/>
<path d="M145.718 241.206C145.718 241.206 154.852 252.958 182.494 252.651" stroke="#000631" stroke-width="1.3" stroke-linecap="round" stroke-linejoin="round"/>
<path d="M97.7046 75.9143C99.0667 75.8118 100.429 75.735 101.791 75.6838" stroke="#000631" stroke-width="1.3" stroke-linecap="round" stroke-linejoin="round"/>
<path d="M127.57 77.5272C140.851 80.3691 149.804 85.7458 149.804 91.9673C149.804 101.107 130.695 108.404 107.079 108.404C83.4632 108.404 64.354 101.107 64.354 91.9673C64.354 89.0485 66.3971 86.2066 69.9425 83.8255" stroke="#000631" stroke-width="1.3" stroke-linecap="round" stroke-linejoin="round"/>
<path d="M66.7573 97.5743C66.7573 97.5743 75.3505 108.02 93.5582 110.171C122.222 113.55 135.923 107.483 146.739 98.1119" stroke="#000631" stroke-width="1.3" stroke-linecap="round" stroke-linejoin="round"/>
<path d="M68.7402 92.8888C68.7402 92.8888 69.5215 84.824 70.1224 84.2863C70.7233 83.6718 70.7232 81.2907 71.5044 79.601C72.2856 77.9112 71.5646 76.2982 72.2256 74.6852C72.8265 73.1491 74.1485 70.0767 74.9898 69.7695C75.771 69.3854 83.2223 66.6971 84.7847 66.6971C86.4071 66.6971 86.0466 66.0058 88.9911 66.6971C91.9355 67.3884 89.592 67.6956 92.236 68.3869C94.8801 69.0782 95.4209 70.0767 95.6613 70.768C95.9617 71.4593 97.6443 75.8373 97.8246 77.6807C98.0649 79.601 98.6057 83.3646 98.8461 85.0544C99.1466 86.7442 99.3869 91.4295 99.8075 92.6584C100.168 93.8874 98.0048 96.3452 96.0218 97.4974C94.0989 98.5727 90.6136 99.648 89.8324 99.648C89.0512 99.648 87.9094 98.5727 85.5659 99.648C83.2223 100.647 76.3118 99.9552 74.6893 98.2654C73.6678 97.1901 69.5815 94.3482 68.8604 92.812" stroke="#000631" stroke-width="1.2" stroke-linecap="round" stroke-linejoin="round"/>
<path d="M74.449 74.8389C73.5477 74.8389 77.7541 78.9098 81.5999 78.7562C83.2224 78.6794 85.6261 77.0664 87.0683 77.8345C88.5105 78.6026 91.3347 76.836 92.2962 75.6838C93.2577 74.5317 93.5581 75.5302 94.5797 73.1492" stroke="#000631" stroke-width="1.2" stroke-linecap="round" stroke-linejoin="round"/>
<path d="M78.6553 85.6689C78.6553 85.6689 79.4965 86.5138 81.1791 84.2864" stroke="#000631" stroke-width="1.2" stroke-linecap="round" stroke-linejoin="round"/>
<path d="M86.7676 88.2036C86.7676 88.2036 87.9694 89.4326 89.1712 88.2036" stroke="#000631" stroke-width="1.2" stroke-linecap="round" stroke-linejoin="round"/>
<path d="M92.1758 83.9791C92.1758 83.9791 93.2574 85.4385 94.5794 83.6719" stroke="#000631" stroke-width="1.2" stroke-linecap="round" stroke-linejoin="round"/>
<path d="M73.728 90.8152C73.728 90.8152 74.8096 93.1963 75.9514 91.9673" stroke="#000631" stroke-width="1.2" stroke-linecap="round" stroke-linejoin="round"/>
<path d="M84.4844 94.1179C84.4844 94.1179 87.1284 94.8092 87.9697 94.1179" stroke="#000631" stroke-width="1.2" stroke-linecap="round" stroke-linejoin="round"/>
<path d="M93.9785 89.9702C93.9785 89.9702 96.0216 91.5064 96.5023 89.9702" stroke="#000631" stroke-width="1.2" stroke-linecap="round" stroke-linejoin="round"/>
<path d="M99.1473 87.0515C99.1473 87.0515 98.4863 83.8255 99.9886 84.44C101.491 85.0545 103.895 86.1298 104.676 85.5921C105.517 85.0545 108.702 86.9747 108.702 86.9747C108.702 86.9747 111.586 86.6675 113.209 87.7428C114.771 88.7413 115.733 89.3558 116.213 90.7383C116.634 92.1209 119.158 93.5803 120.66 93.8875C122.223 94.1947 123.965 94.0411 124.686 95.3468C125.407 96.5758 127.871 99.8786 126.369 100.416C124.867 100.954 119.819 100.723 116.514 101.876C113.209 103.028 112.848 104.333 108.101 103.796C103.354 103.335 101.912 102.413 98.2459 101.876C94.5804 101.338 94.34 99.2641 94.0996 99.2641" stroke="#000631" stroke-width="1.2" stroke-linecap="round" stroke-linejoin="round"/>
<path d="M101.731 97.4974C101.731 97.4974 107.62 99.8017 109.724 99.3409C111.887 98.9568 113.81 99.1104 115.913 99.3409C117.956 99.6481 120.66 98.7264 121.441 99.1872" stroke="#000631" stroke-width="1.2" stroke-linecap="round" stroke-linejoin="round"/>
<path d="M101.731 85.1313C101.731 85.1313 98.0049 79.8315 101.731 75.9911C105.516 72.1507 113.208 69.7696 120.359 74.1477C127.51 78.6026 144.456 83.5184 145.117 86.9748C145.838 90.4312 134.841 99.4945 124.686 95.3469" stroke="#000631" stroke-width="1.2" stroke-linecap="round" stroke-linejoin="round"/>
<path d="M116.213 90.7383C116.093 90.8151 123.063 94.886 130.755 93.657C138.387 92.5049 141.872 90.1238 142.413 87.4355" stroke="#000631" stroke-width="1.2" stroke-linecap="round" stroke-linejoin="round"/>
<path d="M105.156 82.5197C105.156 82.5197 113.028 74.8389 119.337 76.9127" stroke="#000631" stroke-width="1.2" stroke-linecap="round" stroke-linejoin="round"/>
<path d="M115.312 84.6704C115.312 84.6704 121.501 79.7547 128.652 80.5228" stroke="#000631" stroke-width="1.2" stroke-linecap="round" stroke-linejoin="round"/>
<path d="M122.643 87.9733C122.643 87.9733 131.416 83.5184 137.185 84.056" stroke="#000631" stroke-width="1.2" stroke-linecap="round" stroke-linejoin="round"/>
<path d="M33.0459 220.775C33.0459 220.775 34.1276 215.629 39.2954 211.558C44.4633 207.487 53.4771 200.421 57.2028 198.654C57.2028 198.654 73.2471 198.347 79.9774 198.654C86.6476 199.038 103.113 201.419 105.216 203.801C105.216 203.801 103.894 206.335 105.216 208.639C106.538 210.867 106.838 211.635 106.298 213.478C105.757 215.322 105.216 217.319 105.216 218.01C105.216 218.701 100.949 221.083 98.8462 224.462C96.743 227.842 90.9141 233.602 87.7292 237.366C84.5444 241.13 82.1407 243.818 82.1407 243.818C82.1407 243.818 77.754 244.125 73.9682 243.818C70.1825 243.434 56.9023 242.128 52.6959 241.13C48.4294 240.054 35.3895 239.363 35.3895 239.363C35.3895 239.363 35.9303 233.602 35.3895 231.912C34.9088 230.223 32.5051 228.84 33.2863 227.15C34.0675 225.537 33.8271 221.774 33.0459 220.775Z" stroke="#000631" stroke-width="1.3" stroke-linecap="round" stroke-linejoin="round"/>
<path d="M33.9478 220.238C33.9478 220.238 41.6395 217.549 46.9877 218.855C52.2757 220.238 69.2816 224.309 74.3293 225.998C79.3169 227.688 79.5573 225.998 79.5573 225.998C79.5573 225.998 87.3091 217.549 89.1719 215.476C91.0348 213.478 96.8636 206.643 100.048 206.335C103.233 205.951 105.216 203.801 105.216 203.801" stroke="#000631" stroke-width="0.9" stroke-linecap="round" stroke-linejoin="round"/>
<path d="M79.5572 225.998C79.5572 225.998 77.7545 231.068 78.5356 232.757C79.3168 234.447 79.4971 234.908 79.5572 236.598C79.6173 238.211 80.1581 240.899 80.1581 240.899C80.1581 240.899 82.8021 242.589 82.1411 243.818" stroke="#000631" stroke-width="0.9" stroke-linecap="round" stroke-linejoin="round"/>
<path d="M33.9478 225.461C33.9478 225.461 38.5748 223.54 46.8674 225.461C55.2202 227.381 74.149 232.45 78.3554 229.531C78.3554 229.531 91.2751 216.858 95.0008 214.477C98.7264 212.096 104.315 207.334 104.315 207.334" stroke="#000631" stroke-width="0.9" stroke-linecap="round" stroke-linejoin="round"/>
<path d="M35.3901 230.376C35.3901 230.376 37.4332 228.072 38.7552 228.687C40.0773 229.378 41.6397 232.143 44.0433 231.759C46.447 231.452 49.1511 229.071 50.1726 230.376C51.1942 231.759 51.735 233.449 53.8382 233.449C56.0015 233.449 57.8644 231.759 59.9676 232.45C62.0708 233.141 61.5901 233.449 63.9336 234.14C66.3373 234.831 67.8996 233.141 69.7625 234.14C71.6253 235.139 71.385 235.83 73.4882 236.521C75.6515 237.212 78.1152 233.295 79.3771 234.908C79.3771 234.908 82.2616 229.071 85.7469 229.378C89.1721 229.762 88.8115 227.688 90.434 225.998C92.1166 224.309 93.6189 217.857 95.7822 217.857C98.0055 217.857 100.289 216.167 101.371 213.478C102.633 210.176 104.856 210.713 106.298 211.558" stroke="#000631" stroke-width="0.9" stroke-linecap="round" stroke-linejoin="round"/>
<path d="M35.3901 231.913C35.3901 231.913 36.7722 229.378 37.914 230.376C38.9956 231.452 41.3993 234.14 43.803 233.833C46.1465 233.449 47.4686 231.759 48.5502 233.141C49.6319 234.447 52.5162 236.828 56.2419 235.83C59.9676 234.831 59.607 234.985 62.191 236.06C64.7749 237.212 66.8781 234.601 69.1015 236.06C71.385 237.52 73.4882 239.209 75.6515 238.518C77.7547 237.904 79.257 234.601 79.5574 236.598C79.5574 236.598 83.0428 230.76 85.4464 231.452C87.8501 232.143 90.4941 229.071 91.2753 227.381C92.1166 225.691 95.2414 218.855 96.8638 219.546C98.4863 220.238 101.431 216.244 101.911 215.168C103.233 212.096 104.856 211.789 106.298 213.478" stroke="#000631" stroke-width="0.9" stroke-linecap="round" stroke-linejoin="round"/>
<path d="M35.5703 237.212C35.5703 237.212 40.9785 236.137 45.6657 237.212C50.4129 238.211 75.1105 241.59 80.1582 240.899C80.1582 240.899 85.7467 236.521 88.6311 233.141C91.5756 229.762 102.512 216.474 105.517 216.32" stroke="#000631" stroke-width="0.9" stroke-linecap="round" stroke-linejoin="round"/>
<path d="M106.178 215.015C112.187 218.855 115.732 223.694 115.732 228.917C115.732 241.514 94.7002 251.806 68.7406 251.806C42.781 251.806 21.749 241.514 21.749 228.917C21.749 221.543 28.8999 214.938 39.9567 210.79" stroke="#000631" stroke-linecap="round" stroke-linejoin="round"/>
<path d="M27.3379 239.747C27.3379 239.747 36.3517 249.041 53.0571 253.112C69.7626 257.183 90.2537 252.497 97.4046 249.425C104.556 246.353 109.483 240.285 109.483 240.285" stroke="#000631" stroke-linecap="round" stroke-linejoin="round"/>
<path d="M329.839 48.5704C330.84 48.6216 331.842 48.6728 332.843 48.724" stroke="#000631" stroke-width="1.1" stroke-linecap="round" stroke-linejoin="round"/>
<path d="M346.364 50.4907C361.146 53.6399 371.302 60.399 371.302 68.2335C371.302 79.1403 351.592 87.8965 327.255 87.8965C302.918 87.8965 283.208 79.1403 283.208 68.2335C283.208 62.396 288.856 57.1731 297.87 53.5631" stroke="#000631" stroke-width="1.1" stroke-linecap="round" stroke-linejoin="round"/>
<path d="M296.127 61.167C297.509 61.0902 298.951 60.6293 299.672 60.783" stroke="#000631" stroke-width="0.7" stroke-linecap="round" stroke-linejoin="round"/>
<path d="M293.243 61.551C292.101 61.9351 291.079 62.3191 290.358 62.78C288.315 64.0857 287.173 68.5406 292.762 72.3042C298.35 76.0678 307.604 75.6838 307.604 75.6838C307.604 75.6838 316.618 75.3766 319.022 74.6853C319.022 74.6853 319.983 74.3781 320.164 73.6868" stroke="#000631" stroke-width="0.7" stroke-linecap="round" stroke-linejoin="round"/>
<path d="M294.625 62.3191C295.947 62.0887 297.75 62.0119 299.132 62.1655" stroke="#000631" stroke-width="0.7" stroke-linecap="round" stroke-linejoin="round"/>
<path d="M292.402 63.0105C291.741 63.2409 291.2 63.5481 290.899 63.8554C289.818 64.8539 288.255 67.235 293.303 70.9218C298.351 74.6854 304.18 74.6854 317.58 74.0709" stroke="#000631" stroke-width="0.7" stroke-linecap="round" stroke-linejoin="round"/>
<path d="M301.776 58.0179C301.776 58.0179 294.865 58.4788 292.762 62.7801C290.659 67.1582 292.522 70.6914 294.384 71.6899" stroke="#000631" stroke-width="0.7" stroke-linecap="round" stroke-linejoin="round"/>
<path d="M300.995 59.0933C300.995 59.0933 294.625 60.0918 293.303 64.1627C291.981 68.2335 293.904 70.3842 295.586 72.3812" stroke="#000631" stroke-width="0.7" stroke-linecap="round" stroke-linejoin="round"/>
<path d="M299.372 73.6869C298.53 73.7637 295.766 71.1522 294.504 68.5407C293.002 65.5452 293.843 63.0105 293.843 63.0105" stroke="#000631" stroke-width="0.7" stroke-linecap="round" stroke-linejoin="round"/>
<path d="M293.062 68.3871C293.062 68.3871 294.625 71.229 296.488 72.7652" stroke="#000631" stroke-width="0.7" stroke-linecap="round" stroke-linejoin="round"/>
<path d="M309.467 55.0223C309.467 55.0223 308.446 53.947 306.042 54.6383C303.638 55.3295 296.487 63.4713 296.607 71.3057" stroke="#000631" stroke-width="0.7" stroke-linecap="round" stroke-linejoin="round"/>
<path d="M297.69 72.6884C297.69 72.6884 296.548 68.848 300.454 62.1656C305.261 53.9471 308.686 55.3297 308.686 55.3297" stroke="#000631" stroke-width="0.7" stroke-linecap="round" stroke-linejoin="round"/>
<path d="M307.906 56.3281C307.906 56.3281 305.862 56.0977 302.497 61.1671C299.132 66.2364 298.291 70.9218 298.471 73.3028" stroke="#000631" stroke-width="0.7" stroke-linecap="round" stroke-linejoin="round"/>
<path d="M301.896 62.0887C301.896 62.0887 299.192 71.1522 300.634 73.9173" stroke="#000631" stroke-width="0.7" stroke-linecap="round" stroke-linejoin="round"/>
<path d="M303.037 60.783C303.037 60.783 300.513 69.3087 301.415 73.994" stroke="#000631" stroke-width="0.7" stroke-linecap="round" stroke-linejoin="round"/>
<path d="M299.792 66.3132C299.672 66.5437 298.891 69.616 299.672 73.6868" stroke="#000631" stroke-width="0.7" stroke-linecap="round" stroke-linejoin="round"/>
<path d="M302.677 62.0888C302.677 62.0888 307.604 55.3296 311.63 53.6398C315.596 51.95 317.7 54.6383 317.7 54.6383" stroke="#000631" stroke-width="0.7" stroke-linecap="round" stroke-linejoin="round"/>
<path d="M301.956 65.0844C301.956 65.0844 307.064 56.8658 310.91 55.2528C314.816 53.6399 316.378 54.6384 317.159 55.7137" stroke="#000631" stroke-width="0.7" stroke-linecap="round" stroke-linejoin="round"/>
<path d="M301.775 66.8509C301.775 66.8509 307.063 58.7092 310.008 56.7121C312.952 54.6383 316.618 55.3296 317.459 57.0194" stroke="#000631" stroke-width="0.7" stroke-linecap="round" stroke-linejoin="round"/>
<path d="M304.12 63.4714C304.12 63.4714 310.249 56.8658 317.46 57.7875" stroke="#000631" stroke-width="0.7" stroke-linecap="round" stroke-linejoin="round"/>
<path d="M306.763 60.0149C306.763 60.0149 311.51 56.1745 317.46 57.0194" stroke="#000631" stroke-width="0.7" stroke-linecap="round" stroke-linejoin="round"/>
<path d="M308.807 57.7106C308.807 57.7106 312.773 55.4064 316.138 55.8672" stroke="#000631" stroke-width="0.7" stroke-linecap="round" stroke-linejoin="round"/>
<path d="M303.038 65.4684C303.038 65.4684 308.085 60.8598 312.111 61.167" stroke="#000631" stroke-width="0.7" stroke-linecap="round" stroke-linejoin="round"/>
<path d="M307.124 61.1671C307.124 61.1671 310.429 59.3237 314.095 60.015" stroke="#000631" stroke-width="0.7" stroke-linecap="round" stroke-linejoin="round"/>
<path d="M312.111 58.4788C312.111 58.4788 314.635 58.0179 315.356 59.0932" stroke="#000631" stroke-width="0.7" stroke-linecap="round" stroke-linejoin="round"/>
<path d="M318.06 57.557C318.06 57.557 313.914 59.4005 309.828 63.9322C305.742 68.5407 306.823 73.7636 307.124 74.0709" stroke="#000631" stroke-width="0.7" stroke-linecap="round" stroke-linejoin="round"/>
<path d="M301.175 69.0015C301.175 69.0015 305.862 63.3944 310.609 63.3176" stroke="#000631" stroke-width="0.7" stroke-linecap="round" stroke-linejoin="round"/>
<path d="M305.862 63.3178C305.862 63.3178 309.407 61.7048 311.571 62.3961" stroke="#000631" stroke-width="0.7" stroke-linecap="round" stroke-linejoin="round"/>
<path d="M301.295 70.0001C301.295 70.0001 305.201 66.006 308.806 65.4684" stroke="#000631" stroke-width="0.7" stroke-linecap="round" stroke-linejoin="round"/>
<path d="M301.295 70.8449C301.295 70.8449 306.042 68.9247 307.364 68.2334" stroke="#000631" stroke-width="0.7" stroke-linecap="round" stroke-linejoin="round"/>
<path d="M303.699 68.3871C303.699 68.3871 307.304 67.1581 307.965 66.6973" stroke="#000631" stroke-width="0.7" stroke-linecap="round" stroke-linejoin="round"/>
<path d="M301.295 72.3811C301.295 72.3811 305.682 71.8434 306.763 70.2305" stroke="#000631" stroke-width="0.7" stroke-linecap="round" stroke-linejoin="round"/>
<path d="M301.295 73.0724C301.295 73.0724 303.338 74.1477 306.523 72.3811" stroke="#000631" stroke-width="0.7" stroke-linecap="round" stroke-linejoin="round"/>
<path d="M301.295 71.3059C301.295 71.3059 305.501 70.077 307.124 69.1553" stroke="#000631" stroke-width="0.7" stroke-linecap="round" stroke-linejoin="round"/>
<path d="M306.763 71.3058C306.763 71.3058 309.888 63.3945 318 59.0933" stroke="#000631" stroke-width="0.7" stroke-linecap="round" stroke-linejoin="round"/>
<path d="M307.364 70.2304C307.364 70.2304 312.111 62.4727 318.782 60.783" stroke="#000631" stroke-width="0.7" stroke-linecap="round" stroke-linejoin="round"/>
<path d="M308.986 68.003C308.986 68.003 319.803 66.8509 322.747 63.4713" stroke="#000631" stroke-width="0.7" stroke-linecap="round" stroke-linejoin="round"/>
<path d="M309.948 66.8509C310.249 66.8509 318.241 64.8539 320.885 63.1641" stroke="#000631" stroke-width="0.7" stroke-linecap="round" stroke-linejoin="round"/>
<path d="M311.21 65.5452C311.21 65.5452 317.46 62.1656 319.563 62.1656" stroke="#000631" stroke-width="0.7" stroke-linecap="round" stroke-linejoin="round"/>
<path d="M308.206 69.5392C308.206 69.5392 315.056 68.5407 319.323 67.6958C323.529 66.8509 324.851 63.8553 324.851 63.8553" stroke="#000631" stroke-width="0.7" stroke-linecap="round" stroke-linejoin="round"/>
<path d="M325.632 63.9321C325.632 63.9321 326.173 69.6928 322.087 70.8449C318.001 71.997 311.571 69.1551 311.571 69.1551" stroke="#000631" stroke-width="0.7" stroke-linecap="round" stroke-linejoin="round"/>
<path d="M309.948 69.5391C309.948 69.5391 314.275 72.4579 320.104 72.3811C325.933 72.3043 327.195 66.8509 326.714 63.9321" stroke="#000631" stroke-width="0.7" stroke-linecap="round" stroke-linejoin="round"/>
<path d="M308.686 70C308.686 70 311.51 72.6115 314.996 73.3028C318.481 73.9941 323.589 73.7637 324.73 72.3811C325.932 70.9218 325.932 69.0015 325.932 69.0015C325.932 69.0015 328.096 69.0015 330.74 68.4639" stroke="#000631" stroke-width="0.7" stroke-linecap="round" stroke-linejoin="round"/>
<path d="M306.944 71.6898C306.944 71.6898 309.468 71.9971 310.549 71.613" stroke="#000631" stroke-width="0.7" stroke-linecap="round" stroke-linejoin="round"/>
<path d="M306.944 73.3028C306.944 73.3028 310.189 73.7637 312.472 72.6884" stroke="#000631" stroke-width="0.7" stroke-linecap="round" stroke-linejoin="round"/>
<path d="M312.953 69.616C312.893 70 318.121 69.6928 321.365 68.6175C324.61 67.5421 325.151 66.4668 325.692 65.3147" stroke="#000631" stroke-width="0.7" stroke-linecap="round" stroke-linejoin="round"/>
<path d="M318.061 71.0753C318.061 71.0753 323.048 70.8449 325.031 68.1566" stroke="#000631" stroke-width="0.7" stroke-linecap="round" stroke-linejoin="round"/>
<path d="M332.543 55.7904C333.024 54.6383 331.762 53.3325 332.062 52.6413C332.302 51.95 331.221 50.9515 331.221 50.9515L330.74 49.8761C330.74 49.8761 329.358 48.5704 328.036 47.1878C326.714 45.8053 324.611 45.1908 320.885 47.5719C317.159 49.8761 317.46 57.7106 318.782 60.8598C320.164 63.9321 327.796 64.4698 329.118 63.0104C330.38 61.4742 332.663 57.941 332.543 55.7136C332.543 55.7136 337.29 53.7934 342.218 54.4078C347.145 55.0223 351.532 58.6323 352.433 61.551C353.274 64.4698 352.974 66.5436 352.974 66.5436" stroke="#000631" stroke-width="0.7" stroke-linecap="round" stroke-linejoin="round"/>
<path d="M321.907 73.5334C321.907 73.5334 324.31 74.455 329.658 74.071C334.947 73.6869 345.222 66.1597 348.347 66.6974C351.412 67.235 357.421 69.4625 360.485 68.6944C363.61 67.9263 362.048 62.4729 360.726 62.1656" stroke="#000631" stroke-width="0.7" stroke-linecap="round" stroke-linejoin="round"/>
<path d="M324.07 72.842C324.07 72.9956 329.117 73.4565 332.002 72.3811C334.946 71.3058 344.922 65.3147 346.544 65.4684C348.227 65.5452 350.39 65.4684 353.935 66.8509C357.541 68.2335 360.425 67.9262 360.966 67.235C361.507 66.5437 361.687 64.1626 360.666 63.4713" stroke="#000631" stroke-width="0.7" stroke-linecap="round" stroke-linejoin="round"/>
<path d="M326.654 66.6972C326.714 66.5436 332.302 70.3072 338.252 69.2319" stroke="#000631" stroke-width="0.7" stroke-linecap="round" stroke-linejoin="round"/>
<path d="M326.774 65.5452C326.774 65.5452 334.285 69.3088 339.934 68.3103" stroke="#000631" stroke-width="0.7" stroke-linecap="round" stroke-linejoin="round"/>
<path d="M326.654 67.5422H327.796" stroke="#000631" stroke-width="0.7" stroke-linecap="round" stroke-linejoin="round"/>
<path d="M325.692 71.0753C325.692 71.0753 330.98 70.3072 333.384 69.4623" stroke="#000631" stroke-width="0.7" stroke-linecap="round" stroke-linejoin="round"/>
<path d="M326.053 73.0723C326.053 73.0723 329.057 72.0738 331.461 70" stroke="#000631" stroke-width="0.7" stroke-linecap="round" stroke-linejoin="round"/>
<path d="M330.079 72.8419C330.079 72.8419 330.74 72.9956 332.843 69.9232" stroke="#000631" stroke-width="0.7" stroke-linecap="round" stroke-linejoin="round"/>
<path d="M334.466 69.3087C334.466 69.3087 333.865 72.0738 332.002 72.3811" stroke="#000631" stroke-width="0.7" stroke-linecap="round" stroke-linejoin="round"/>
<path d="M326.714 63.9321C326.714 63.9321 333.264 68.2334 341.016 67.5421" stroke="#000631" stroke-width="0.7" stroke-linecap="round" stroke-linejoin="round"/>
<path d="M328.577 63.4713C328.577 63.4713 335.908 64.7003 337.05 67.4654" stroke="#000631" stroke-width="0.7" stroke-linecap="round" stroke-linejoin="round"/>
<path d="M329.298 65.3147C329.298 65.3147 333.264 65.6219 334.766 67.0813" stroke="#000631" stroke-width="0.7" stroke-linecap="round" stroke-linejoin="round"/>
<path d="M329.538 62.4728C329.538 62.4728 337.29 64.1625 338.552 67.5421" stroke="#000631" stroke-width="0.7" stroke-linecap="round" stroke-linejoin="round"/>
<path d="M330.439 61.167C330.439 61.167 340.835 65.7755 345.222 65.7755" stroke="#000631" stroke-width="0.7" stroke-linecap="round" stroke-linejoin="round"/>
<path d="M335.968 64.9307C335.968 64.9307 339.633 66.4668 342.758 66.6973" stroke="#000631" stroke-width="0.7" stroke-linecap="round" stroke-linejoin="round"/>
<path d="M331.161 60.015C331.221 60.0918 340.415 64.854 346.063 65.5452" stroke="#000631" stroke-width="0.7" stroke-linecap="round" stroke-linejoin="round"/>
<path d="M332.482 56.789C332.482 56.789 342.277 53.7166 347.385 57.5571C352.493 61.4743 352.132 65.7756 352.132 65.7756" stroke="#000631" stroke-width="0.7" stroke-linecap="round" stroke-linejoin="round"/>
<path d="M335.487 72.3811C335.487 72.3811 341.917 69.5392 346.244 71.0754C350.63 72.6115 349.969 73.8405 353.995 73.0724C358.082 72.3043 359.764 71.0753 358.262 68.8479" stroke="#000631" stroke-width="0.7" stroke-linecap="round" stroke-linejoin="round"/>
<path d="M338.853 70.5378C338.853 70.5378 342.458 68.6943 345.643 69.616C348.768 70.6146 350.15 71.5363 353.034 71.9203C355.919 72.3043 357.481 70.6914 357.361 70.0001C357.241 69.232 356.039 68.6943 356.039 68.6943" stroke="#000631" stroke-width="0.7" stroke-linecap="round" stroke-linejoin="round"/>
<path d="M346.904 69.9232C346.904 69.9232 351.411 70.9217 352.733 70.6145C354.055 70.3072 354.656 68.7711 353.334 68.1566" stroke="#000631" stroke-width="0.7" stroke-linecap="round" stroke-linejoin="round"/>
<path d="M345.643 69.616C345.643 69.616 346.544 68.3871 348.948 68.8479C351.412 69.232 353.876 70.3841 352.133 67.619" stroke="#000631" stroke-width="0.7" stroke-linecap="round" stroke-linejoin="round"/>
<path d="M332.002 58.4787C332.002 58.4787 333.745 58.5555 339.694 58.4787C345.583 58.4019 348.107 58.1715 348.107 58.1715" stroke="#000631" stroke-width="0.7" stroke-linecap="round" stroke-linejoin="round"/>
<path d="M331.461 59.4005C331.461 59.4005 335.968 60.3222 341.436 60.015C346.905 59.7845 348.647 59.0933 348.647 59.0933" stroke="#000631" stroke-width="0.7" stroke-linecap="round" stroke-linejoin="round"/>
<path d="M334.465 60.015C334.465 60.015 346.183 62.8569 349.849 60.6295" stroke="#000631" stroke-width="0.7" stroke-linecap="round" stroke-linejoin="round"/>
<path d="M333.865 61.167C333.865 61.167 341.737 63.8553 346.063 63.4712C350.33 63.164 351.231 62.0887 351.231 62.0887" stroke="#000631" stroke-width="0.7" stroke-linecap="round" stroke-linejoin="round"/>
<path d="M343.66 64.9307C343.66 64.9307 350.21 65.8524 351.892 63.8553" stroke="#000631" stroke-width="0.7" stroke-linecap="round" stroke-linejoin="round"/>
<path d="M349.429 57.557C349.429 57.557 353.635 59.0932 354.657 61.4743C355.678 63.8553 356.159 66.3132 355.137 67.0813" stroke="#000631" stroke-width="0.7" stroke-linecap="round" stroke-linejoin="round"/>
<path d="M351.472 59.7845C351.472 59.7845 353.335 60.7063 354.116 62.7801C354.897 64.8539 353.875 66.8509 353.455 66.6973" stroke="#000631" stroke-width="0.7" stroke-linecap="round" stroke-linejoin="round"/>
<path d="M352.914 62.78C352.914 62.78 354.115 64.0858 354.115 65.4683" stroke="#000631" stroke-width="0.7" stroke-linecap="round" stroke-linejoin="round"/>
<path d="M332.242 57.5571C332.242 57.5571 341.737 57.173 344.321 56.2513" stroke="#000631" stroke-width="0.7" stroke-linecap="round" stroke-linejoin="round"/>
<path d="M332.482 54.2543C332.482 54.2543 339.333 50.7979 343.359 54.2543" stroke="#000631" stroke-width="0.7" stroke-linecap="round" stroke-linejoin="round"/>
<path d="M352.133 58.5556C352.133 58.5556 356.88 58.0179 358.803 59.7845C360.726 61.4743 360.846 63.0873 360.245 64.4698C359.644 65.8524 358.082 67.5422 356.219 67.5422" stroke="#000631" stroke-width="0.7" stroke-linecap="round" stroke-linejoin="round"/>
<path d="M360.245 64.4698C360.245 64.4698 360.485 67.6958 358.442 67.619" stroke="#000631" stroke-width="0.7" stroke-linecap="round" stroke-linejoin="round"/>
<path d="M353.094 59.5541C353.094 59.5541 357.961 58.0179 359.764 60.783" stroke="#000631" stroke-width="0.7" stroke-linecap="round" stroke-linejoin="round"/>
<path d="M354.355 60.9366C354.355 60.9366 359.043 60.4758 359.764 61.4743C360.425 62.4728 360.965 64.5466 359.343 65.8524" stroke="#000631" stroke-width="0.7" stroke-linecap="round" stroke-linejoin="round"/>
<path d="M358.442 66.5437C359.163 65.8524 360.185 64.4699 359.344 63.0105C358.562 61.4743 354.957 62.1656 354.957 62.1656" stroke="#000631" stroke-width="0.7" stroke-linecap="round" stroke-linejoin="round"/>
<path d="M355.317 63.3176C355.317 63.3176 359.584 63.3945 359.343 65.3147" stroke="#000631" stroke-width="0.7" stroke-linecap="round" stroke-linejoin="round"/>
<path d="M357.42 67.0813C357.541 66.6972 358.322 66.5436 358.141 65.3147C358.021 64.0857 355.678 65.161 355.678 65.161" stroke="#000631" stroke-width="0.7" stroke-linecap="round" stroke-linejoin="round"/>
<path d="M355.678 66.5436C355.678 66.5436 357 65.0843 358.081 65.8524" stroke="#000631" stroke-width="0.7" stroke-linecap="round" stroke-linejoin="round"/>
<path d="M332.482 73.6868C332.482 73.6868 335.787 73.6868 339.393 74.8389C342.938 76.0679 349.068 76.3751 350.089 74.8389C351.171 73.3028 349.128 72.3811 349.128 72.3811" stroke="#000631" stroke-width="0.7" stroke-linecap="round" stroke-linejoin="round"/>
<path d="M333.865 73.0724C333.865 73.0724 338.312 72.9956 341.016 74.3781C343.72 75.6839 348.707 75.1462 349.188 74.1477C349.549 73.3028 347.445 71.229 346.905 71.3058" stroke="#000631" stroke-width="0.7" stroke-linecap="round" stroke-linejoin="round"/>
<path d="M336.449 71.9972C336.449 71.9972 340.295 71.7667 342.518 73.2261C344.801 74.6854 349.068 74.3014 349.008 73.3029" stroke="#000631" stroke-width="0.7" stroke-linecap="round" stroke-linejoin="round"/>
<path d="M329.658 74.0709C329.658 74.0709 330.139 76.2984 332.002 76.8361C333.925 77.3737 337.11 76.2984 339.393 76.8361C341.616 77.3737 340.775 76.068 339.093 75.9143C337.35 75.6839 333.444 76.2984 332.483 75.9143C331.221 75.3767 330.439 74.7622 330.74 74.0709" stroke="#000631" stroke-width="0.7" stroke-linecap="round" stroke-linejoin="round"/>
<path d="M354.115 69.5391C354.115 69.5391 355.978 69.9231 356.879 69.4623" stroke="#000631" stroke-width="0.7" stroke-linecap="round" stroke-linejoin="round"/>
<path d="M320.885 56.9426C320.885 56.9426 321.125 58.018 321.546 58.018" stroke="#000631" stroke-width="0.7" stroke-linecap="round" stroke-linejoin="round"/>
<path d="M325.031 57.173C325.031 57.173 325.572 58.0179 326.053 57.173" stroke="#000631" stroke-width="0.7" stroke-linecap="round" stroke-linejoin="round"/>
<path d="M322.327 59.8613C322.327 59.8613 322.627 60.6294 323.468 60.015" stroke="#000631" stroke-width="0.7" stroke-linecap="round" stroke-linejoin="round"/>
<path d="M327.795 58.5555C327.795 58.5555 328.877 58.9395 329.298 58.3251" stroke="#000631" stroke-width="0.7" stroke-linecap="round" stroke-linejoin="round"/>
<path d="M329.658 55.7904C329.658 55.7904 329.959 56.2513 330.439 55.4064" stroke="#000631" stroke-width="0.7" stroke-linecap="round" stroke-linejoin="round"/>
<path d="M321.185 54.2543C321.185 54.2543 321.906 55.0224 322.327 54.7152" stroke="#000631" stroke-width="0.7" stroke-linecap="round" stroke-linejoin="round"/>
<path d="M318.601 55.2528C318.601 55.2528 319.022 56.0209 319.683 55.7137" stroke="#000631" stroke-width="0.7" stroke-linecap="round" stroke-linejoin="round"/>
<path d="M324.851 53.1022C324.851 53.1022 325.572 54.0239 326.053 53.4862" stroke="#000631" stroke-width="0.7" stroke-linecap="round" stroke-linejoin="round"/>
<path d="M328.757 53.1022C328.757 53.1022 329.238 53.8703 329.839 53.1022" stroke="#000631" stroke-width="0.7" stroke-linecap="round" stroke-linejoin="round"/>
<path d="M328.336 61.4744C328.336 61.4744 329.658 62.7801 330.44 61.0903" stroke="#000631" stroke-width="0.7" stroke-linecap="round" stroke-linejoin="round"/>
<path d="M333.864 53.4862C333.864 53.4862 332.903 51.8732 333.264 51.0283C333.624 50.2602 333.143 49.2617 333.264 48.5704C333.384 47.8792 333.564 46.4198 333.864 45.9589C334.165 45.4981 335.667 43.7315 337.049 43.9619C338.431 44.1155 338.672 42.1185 340.294 43.117C341.857 44.1155 342.998 44.346 343.359 44.5764C343.719 44.8068 344.14 45.8053 344.32 46.343C344.501 46.8806 345.642 47.8792 345.642 48.5704C345.582 49.2617 346.664 53.1789 345.222 54.7919" stroke="#000631" stroke-width="0.7" stroke-linecap="round" stroke-linejoin="round"/>
<path d="M334.766 50.7211C334.766 50.7211 335.427 51.566 335.968 50.7211" stroke="#000631" stroke-width="0.7" stroke-linecap="round" stroke-linejoin="round"/>
<path d="M338.612 50.7211C338.612 50.7211 339.153 51.566 339.574 51.1051C339.994 50.5675 340.535 50.7211 340.535 50.9515C340.535 51.2587 341.557 51.95 341.557 51.95" stroke="#000631" stroke-width="0.7" stroke-linecap="round" stroke-linejoin="round"/>
<path d="M343.66 52.7182C343.66 52.7182 343.84 51.7197 344.321 51.3356C344.801 50.9516 344.381 50.7212 344.621 50.1067" stroke="#000631" stroke-width="0.7" stroke-linecap="round" stroke-linejoin="round"/>
<path d="M342.277 49.7226C342.277 49.7226 342.998 49.4154 343.359 48.8009" stroke="#000631" stroke-width="0.7" stroke-linecap="round" stroke-linejoin="round"/>
<path d="M298.771 58.3252C298.771 58.3252 297.69 56.8658 297.87 55.2528C298.05 53.6399 298.531 52.9486 298.411 51.9501C298.351 50.9516 298.591 50.3371 299.132 50.1067C299.673 49.8763 300.995 47.8792 301.776 47.4952C302.557 47.188 303.639 46.9575 304.42 46.8807C305.261 46.8807 306.824 46.8807 306.944 47.7256C307.064 48.5705 307.545 48.5705 307.965 48.5705C308.446 48.5705 309.227 48.2633 309.468 49.2618C309.768 50.2603 310.609 50.4139 310.609 51.3356C310.549 52.2573 310.729 52.6414 310.79 53.6399" stroke="#000631" stroke-width="0.7" stroke-linecap="round" stroke-linejoin="round"/>
<path d="M308.686 48.2633C308.686 48.2633 309.768 46.1126 310.549 45.959C311.33 45.8054 312.111 46.1126 312.953 45.959C313.734 45.8054 313.974 44.8069 314.515 45.1909C315.056 45.4982 316.197 45.7286 316.558 45.959C316.919 46.1894 317.459 46.1126 317.459 46.6503C317.459 47.188 319.322 47.8792 319.322 49.185" stroke="#000631" stroke-width="0.7" stroke-linecap="round" stroke-linejoin="round"/>
<path d="M299.672 54.792C299.672 54.792 300.033 55.8673 300.514 55.2528" stroke="#000631" stroke-width="0.7" stroke-linecap="round" stroke-linejoin="round"/>
<path d="M302.677 54.792C302.677 54.792 303.218 55.2528 303.698 54.792" stroke="#000631" stroke-width="0.7" stroke-linecap="round" stroke-linejoin="round"/>
<path d="M312.412 50.8748C312.412 50.8748 312.412 51.4124 313.373 51.3356" stroke="#000631" stroke-width="0.7" stroke-linecap="round" stroke-linejoin="round"/>
<path d="M316.559 48.2632C316.559 48.2632 317.22 48.8777 317.58 48.5704" stroke="#000631" stroke-width="0.7" stroke-linecap="round" stroke-linejoin="round"/>
<path d="M315.657 51.1051C315.657 51.1051 316.378 51.3355 316.798 51.1051" stroke="#000631" stroke-width="0.7" stroke-linecap="round" stroke-linejoin="round"/>
<path d="M294.505 81.1373C294.505 81.1373 303.999 86.9748 315.357 88.9718C326.714 90.9688 349.248 90.2775 359.344 82.1358" stroke="#000631" stroke-width="1.1" stroke-linecap="round" stroke-linejoin="round"/>
<path d="M435.42 175.612C440.888 178.607 444.073 182.294 444.073 186.288C444.073 196.811 421.899 205.337 394.557 205.337C367.216 205.337 345.042 196.811 345.042 186.288C345.042 181.833 349.128 177.686 355.919 174.46" stroke="#000631" stroke-width="1.1" stroke-linecap="round" stroke-linejoin="round"/>
<path d="M394.017 167.316C396.42 167.316 399.305 167.393 401.588 167.47" stroke="#000631" stroke-width="1.1" stroke-linecap="round" stroke-linejoin="round"/>
<path d="M414.087 183.6C414.087 182.601 412.464 181.91 412.224 180.528C411.924 179.145 410.602 176.457 409.28 174.076C407.958 171.695 402.129 174.076 402.009 173.384C401.828 172.77 399.184 171.387 396.781 169.851C394.437 168.392 392.574 165.627 390.952 163.553C389.389 161.556 389.63 162.554 386.144 161.249C382.719 160.02 383.02 162.247 379.715 161.479C376.41 160.788 377.431 161.863 374.787 161.556C372.143 161.172 371.602 165.243 369.92 165.934C368.237 166.625 368.117 165.627 364.692 165.934C361.266 166.318 360.726 169.006 358.863 170.389C357 171.695 355.378 176.457 354.055 178.146C352.733 179.836 353.815 180.528 352.493 180.912C351.171 181.219 350.871 184.982 350.871 185.981C350.871 186.979 351.171 186.979 353.034 187.671C354.897 188.362 357.781 188.362 359.404 189.361C360.966 190.359 361.507 192.049 365.233 193.124C368.958 194.123 380.376 193.739 384.582 193.739C388.848 193.739 389.93 194.43 393.596 194.43C397.321 194.43 401.348 192.74 402.129 192.049C402.91 191.358 403.992 191.05 403.992 191.05" stroke="#000631" stroke-width="0.7" stroke-linecap="round" stroke-linejoin="round"/>
<path d="M403.992 193.739C403.992 193.739 403.15 189.361 406.095 187.287C409.039 185.29 415.649 182.601 419.615 181.526C423.642 180.528 431.333 176.841 434.758 180.528C438.244 184.291 438.244 185.981 435.84 189.668C433.436 193.431 432.896 196.811 421.779 197.195C410.602 197.502 402.91 198.194 403.992 193.739Z" stroke="#000631" stroke-width="0.7" stroke-linecap="round" stroke-linejoin="round"/>
<path d="M405.013 193.124C405.013 193.124 411.683 194.43 416.611 194.43C421.478 194.43 424.423 194.123 427.307 191.742C430.252 189.361 432.896 188.669 433.677 186.979C434.518 185.29 435.059 184.598 434.518 183.216" stroke="#000631" stroke-width="0.7" stroke-linecap="round" stroke-linejoin="round"/>
<path d="M376.109 178.531C376.109 178.531 374.246 180.22 376.35 182.217C378.513 184.291 381.397 182.601 381.397 181.219C381.397 179.836 379.054 178.531 379.054 178.531" stroke="#000631" stroke-width="0.7" stroke-linecap="round" stroke-linejoin="round"/>
<path d="M366.795 173.768C366.795 173.768 364.451 173.384 364.692 175.765C364.932 178.146 367.816 178.146 368.658 177.686C369.439 177.148 368.658 174.921 368.658 174.921" stroke="#000631" stroke-width="0.7" stroke-linecap="round" stroke-linejoin="round"/>
<path d="M390.892 178.53C390.892 178.53 390.711 180.912 392.815 181.91C394.978 182.909 396.059 181.065 395.759 179.452C395.458 177.839 393.355 176.841 392.574 177.148" stroke="#000631" stroke-width="0.7" stroke-linecap="round" stroke-linejoin="round"/>
<path d="M365.233 182.217C364.692 182.601 363.37 183.907 364.151 185.597C364.932 187.287 370.28 183.83 369.619 182.217C368.958 180.528 367.757 180.835 367.757 180.835" stroke="#000631" stroke-width="0.7" stroke-linecap="round" stroke-linejoin="round"/>
<path d="M360.906 177.916C360.906 177.916 358.503 178.684 357.782 180.835C357 182.909 361.447 181.833 362.409 180.835C363.37 179.836 362.409 178.531 362.409 178.531" stroke="#000631" stroke-width="0.7" stroke-linecap="round" stroke-linejoin="round"/>
<path d="M387.526 183.216C386.445 183.216 386.926 187.671 389.089 188.132C391.252 188.669 392.454 187.517 391.733 185.674C390.952 183.907 389.93 183.446 389.93 183.446" stroke="#000631" stroke-width="0.7" stroke-linecap="round" stroke-linejoin="round"/>
<path d="M381.397 171.08C381.397 171.08 383.561 173.384 385.664 172.77" stroke="#000631" stroke-width="0.7" stroke-linecap="round" stroke-linejoin="round"/>
<path d="M401.107 172.539C401.107 172.539 401.588 168.392 401.829 167.547C402.129 166.625 402.369 163.937 402.67 162.554C402.91 161.172 404.773 157.178 405.013 156.64C405.314 156.102 407.718 155.411 409.04 155.411C410.362 155.411 418.834 153.875 420.697 154.182C422.56 154.413 425.745 155.104 427.067 155.795C428.389 156.41 429.711 156.102 430.252 157.485C430.793 158.791 433.437 168.699 433.437 168.699C433.437 168.699 435.059 172.77 435.059 174.46C435.059 176.149 435.66 176.687 435.36 177.916C435.059 179.145 433.617 179.606 433.617 179.606" stroke="#000631" stroke-width="0.7" stroke-linecap="round" stroke-linejoin="round"/>
<path d="M413.066 181.987C413.066 181.987 416.671 182.448 417.453 182.217" stroke="#000631" stroke-width="0.7" stroke-linecap="round" stroke-linejoin="round"/>
<path d="M408.198 169.006C408.198 169.006 409.039 170.696 409.821 170.696" stroke="#000631" stroke-width="0.7" stroke-linecap="round" stroke-linejoin="round"/>
<path d="M427.968 167.316C427.968 167.316 427.727 169.006 427.006 169.006" stroke="#000631" stroke-width="0.7" stroke-linecap="round" stroke-linejoin="round"/>
<path d="M419.435 172.847C419.435 172.847 420.697 173.999 421.779 172.847" stroke="#000631" stroke-width="0.7" stroke-linecap="round" stroke-linejoin="round"/>
<path d="M414.748 170.696C414.868 170.696 415.71 170.389 416.25 169.006" stroke="#000631" stroke-width="0.7" stroke-linecap="round" stroke-linejoin="round"/>
<path d="M416.611 176.457C416.611 176.457 417.392 176.841 418.233 176.457" stroke="#000631" stroke-width="0.7" stroke-linecap="round" stroke-linejoin="round"/>
<path d="M429.591 175.842C429.591 175.842 431.034 175.074 431.334 174.46" stroke="#000631" stroke-width="0.7" stroke-linecap="round" stroke-linejoin="round"/>
<path d="M406.636 161.556C406.636 161.556 410.902 163.246 412.705 163.246C414.568 163.246 416.25 163.553 417.452 163.246C418.594 162.862 419.736 163.86 420.577 163.399" stroke="#000631" stroke-width="0.7" stroke-linecap="round" stroke-linejoin="round"/>
<path d="M422.801 162.554C422.801 162.554 425.084 161.863 425.805 161.556C426.526 161.172 427.849 160.711 427.969 160.096C428.149 159.482 428.93 158.791 428.69 158.791" stroke="#000631" stroke-width="0.7" stroke-linecap="round" stroke-linejoin="round"/>
<path d="M359.524 199.73C359.524 199.73 377.131 207.564 393.355 207.641C412.224 207.641 426.045 200.959 426.045 200.959" stroke="#000631" stroke-width="1.1" stroke-linecap="round" stroke-linejoin="round"/>
<path d="M369.438 136.209C369.438 136.209 374.486 143.122 377.731 150.342C377.731 150.342 385.423 130.832 393.295 125.148" stroke="#344A6B" stroke-width="5.5" stroke-linejoin="round"/>
<path d="M84.665 43.0401C84.665 43.0401 89.7128 49.9529 92.9577 57.1729C92.9577 57.1729 100.709 37.7404 108.521 32.0565" stroke="#344A6B" stroke-width="5.5" stroke-linejoin="round"/>
<path d="M298.952 20.5353L314.275 39.0461" stroke="#E58D00" stroke-width="5.5" stroke-linejoin="round"/>
<path d="M314.275 20.5353L298.952 39.0461" stroke="#E58D00" stroke-width="5.5" stroke-linejoin="round"/>
<path d="M31.4238 187.056C31.4238 187.056 36.4715 193.969 39.7164 201.189C39.7164 201.189 47.4682 181.757 55.2801 176.073" stroke="#344A6B" stroke-width="5.5" stroke-linejoin="round"/>
</svg>
