<svg width="500" height="362" viewBox="0 0 500 362" fill="none" xmlns="http://www.w3.org/2000/svg">
<path d="M362.224 120.413C361.169 120.413 360.22 120.617 359.375 120.922C356.844 107.685 344.925 97.7061 330.474 97.7061C316.023 97.7061 304.104 107.685 301.573 120.922C300.663 120.588 299.697 120.415 298.724 120.413C294.716 120.413 291.34 123.57 291.34 127.541C291.334 128.479 291.521 129.408 291.89 130.276C292.258 131.143 292.802 131.931 293.489 132.594C294.176 133.257 294.992 133.782 295.891 134.138C296.79 134.494 297.752 134.675 298.724 134.669C299.902 134.678 301.063 134.397 302.099 133.854C305.58 145.869 316.866 154.626 330.369 154.626C343.87 154.626 355.261 145.869 358.638 133.854C359.693 134.363 360.852 134.669 362.012 134.669C366.021 134.669 369.396 131.512 369.396 127.541C369.396 123.57 366.231 120.413 362.224 120.413ZM382.584 217.146H278.474V216.434C278.474 189.45 301.153 167.659 329 167.659H331.953C359.905 167.659 382.479 189.551 382.479 216.434V217.146H382.584ZM164.445 120.413C163.39 120.413 162.441 120.617 161.598 120.922C159.066 107.685 147.146 97.7061 132.695 97.7061C118.245 97.7061 106.325 107.685 103.794 120.922C102.884 120.588 101.92 120.415 100.946 120.413C96.9375 120.413 93.5625 123.57 93.5625 127.541C93.5564 128.479 93.7432 129.408 94.1121 130.276C94.481 131.143 95.0246 131.931 95.7115 132.594C96.3984 133.257 97.2148 133.782 98.1134 134.138C99.012 134.494 99.9749 134.675 100.946 134.669C102.211 134.669 103.371 134.363 104.321 133.854C107.803 145.869 119.089 154.626 132.59 154.626C146.091 154.626 157.484 145.869 160.859 133.854C161.914 134.363 163.074 134.669 164.234 134.669C168.243 134.669 171.618 131.512 171.618 127.541C171.618 123.57 168.454 120.413 164.445 120.413ZM184.805 217.146H80.6963V216.434C80.6963 189.45 103.374 167.659 131.221 167.659H134.175C162.128 167.659 184.7 189.551 184.7 216.434V217.146H184.805Z" stroke="#DEDFEA" stroke-width="0.844" stroke-miterlimit="10"/>
<path d="M405.893 120.413C404.92 120.415 403.955 120.588 403.045 120.922C400.514 107.685 388.594 97.7061 374.144 97.7061C359.693 97.7061 347.773 107.685 345.242 120.922C344.332 120.588 343.367 120.415 342.394 120.413C338.385 120.413 335.01 123.57 335.01 127.541C335.004 128.479 335.191 129.408 335.56 130.276C335.929 131.143 336.472 131.931 337.159 132.594C337.846 133.257 338.663 133.782 339.561 134.138C340.46 134.494 341.423 134.675 342.394 134.669C343.572 134.677 344.734 134.397 345.769 133.854C349.25 145.869 360.537 154.626 374.038 154.626C387.539 154.626 398.932 145.869 402.307 133.854C403.362 134.363 404.522 134.669 405.683 134.669C409.69 134.669 413.067 131.512 413.067 127.541C413.067 123.57 409.902 120.413 405.893 120.413ZM426.252 217.146H322.142V216.434C322.142 189.45 344.82 167.659 372.667 167.659H375.62C403.573 167.659 426.145 189.551 426.145 216.434V217.146H426.252Z" stroke="#DEDFEA" stroke-width="0.844" stroke-miterlimit="10" stroke-dasharray="1.69 1.69"/>
<path d="M309.59 50.8672H125.315V308.89H309.697V52.2923C309.59 51.8856 309.59 51.3752 309.59 50.8672Z" fill="white" stroke="black" stroke-width="0.844" stroke-miterlimit="10"/>
<path d="M125.21 310.111C125.21 323.655 136.602 334.651 150.631 334.651H284.17C298.199 334.651 309.591 323.655 309.591 310.111V308.89H125.21V310.111ZM284.169 27.7534H150.63C137.129 27.7534 126.054 37.9353 125.315 50.8671H309.59C308.746 38.0378 297.671 27.7534 284.169 27.7534Z" fill="#000631" stroke="black" stroke-width="0.844" stroke-miterlimit="10"/>
<path d="M291.87 65.4292H142.825V223.155H291.87V65.4292Z" fill="#DEDFEA" stroke="black" stroke-width="0.844" stroke-miterlimit="10" stroke-linecap="round" stroke-linejoin="round"/>
<path d="M247.149 122.349C246.199 122.349 245.355 122.552 244.511 122.857C242.191 110.435 230.904 101.067 217.402 101.067C203.901 101.067 192.615 110.434 190.294 122.857C189.45 122.552 188.606 122.349 187.657 122.349C186.756 122.347 185.864 122.517 185.031 122.849C184.199 123.181 183.442 123.669 182.805 124.284C182.168 124.898 181.663 125.629 181.319 126.433C180.975 127.236 180.799 128.098 180.801 128.967C180.799 129.837 180.976 130.698 181.32 131.502C181.664 132.306 182.169 133.036 182.806 133.651C183.443 134.266 184.199 134.753 185.032 135.085C185.864 135.417 186.757 135.588 187.657 135.586C188.817 135.586 189.872 135.28 190.821 134.772C194.091 145.972 204.745 154.321 217.402 154.321C230.06 154.321 240.714 146.073 243.984 134.772C244.934 135.28 245.987 135.586 247.149 135.586C248.049 135.588 248.942 135.417 249.774 135.085C250.607 134.753 251.363 134.266 252 133.651C252.637 133.036 253.142 132.306 253.486 131.502C253.83 130.698 254.007 129.837 254.005 128.967C254.11 125.302 250.946 122.349 247.149 122.349ZM273.412 223.154H161.286V218.673C161.286 191.69 183.965 169.9 211.812 169.9H222.782C250.735 169.9 273.307 191.793 273.307 218.673V223.154H273.412Z" fill="white" stroke="black" stroke-width="0.844" stroke-miterlimit="10" stroke-linecap="round" stroke-linejoin="round"/>
<path d="M142.19 249.12H292.607M142.19 260.626H185.015M181.745 320.805H258.537" stroke="black" stroke-width="0.844" stroke-miterlimit="10"/>
<path d="M214.867 41.8072C215.172 41.8072 215.474 41.7493 215.755 41.6367C216.037 41.5241 216.293 41.359 216.509 41.1509C216.724 40.9429 216.895 40.6958 217.012 40.424C217.128 40.1521 217.188 39.8607 217.188 39.5665C217.188 39.2722 217.128 38.9808 217.012 38.709C216.895 38.4371 216.724 38.1901 216.509 37.982C216.293 37.7739 216.037 37.6089 215.755 37.4963C215.474 37.3836 215.172 37.3257 214.867 37.3257C214.252 37.3257 213.661 37.5618 213.226 37.982C212.79 38.4022 212.546 38.9722 212.546 39.5665C212.546 40.1608 212.79 40.7307 213.226 41.1509C213.661 41.5712 214.252 41.8072 214.867 41.8072Z" fill="black"/>
<path d="M125.104 75.103H121.411V103.818H125.104V75.103ZM125.104 112.778H121.411V141.491H125.104V112.778Z" fill="#DEDFEA" stroke="black" stroke-width="0.844" stroke-miterlimit="10" stroke-linecap="round" stroke-linejoin="round"/>
<path d="M181.219 208.898L188.285 194.949" stroke="black" stroke-width="0.844" stroke-miterlimit="10" stroke-linecap="round" stroke-linejoin="round"/>
<path d="M397.879 334.652H410.536M75 334.652H371.824" stroke="black" stroke-width="0.844" stroke-miterlimit="10"/>
<path d="M218.98 224.07L170.987 204.826L168.349 210.018C164.13 219.284 164.447 226.31 166.239 235.271L170.987 265.003H225.837L218.98 224.07Z" fill="#000631" stroke="black" stroke-width="0.844" stroke-miterlimit="10"/>
<path d="M176.68 334.548H247.563C247.563 331.901 246.402 329.457 244.398 327.624L234.905 319.478L225.833 265.002H170.983L179.633 319.579L177.84 328.337C177.101 330.373 176.68 332.41 176.68 334.548Z" fill="#FFC7DE" stroke="black" stroke-width="0.844" stroke-miterlimit="10"/>
<path d="M218.98 224.07L170.987 204.826L168.349 210.018C164.13 219.284 164.447 226.31 166.239 235.271L170.987 265.003H225.837L218.98 224.07Z" fill="#000631" stroke="black" stroke-width="0.844" stroke-miterlimit="10"/>
<path d="M177.844 328.339C177.106 330.376 176.79 332.411 176.79 334.55H247.673C247.673 331.902 246.513 329.459 244.509 327.626L235.015 319.479H179.638L177.844 328.339Z" fill="#DEDFEA" stroke="black" stroke-width="0.844" stroke-miterlimit="10" stroke-linecap="round" stroke-linejoin="round"/>
<path d="M172.147 166.131L148.097 180.59L136.177 176.008C134.912 175.397 133.54 175.907 132.802 177.026L132.485 176.925C131.869 176.633 131.158 176.587 130.507 176.797C129.856 177.006 129.316 177.455 129.004 178.045C128.899 178.35 128.793 178.554 128.793 178.859C128.477 178.655 128.16 178.554 127.949 178.451C127 177.942 125.734 178.146 124.997 178.859C123.942 179.878 124.047 181.405 125.102 182.423L139.658 195.354V195.457L129.215 196.983C127.844 197.187 126.684 198.307 126.578 199.631C126.576 199.992 126.649 200.351 126.792 200.685C126.934 201.019 127.144 201.323 127.409 201.579C127.674 201.834 127.988 202.037 128.335 202.174C128.681 202.312 129.052 202.382 129.427 202.381L140.713 202.278C144.615 202.278 148.413 201.464 151.26 199.835L185.015 181.303L172.147 166.131Z" fill="#FFC7DE" stroke="black" stroke-width="0.844" stroke-miterlimit="10"/>
<path d="M262.65 192.913C263.149 192.913 263.643 192.818 264.103 192.634C264.564 192.45 264.983 192.18 265.335 191.84C265.688 191.499 265.968 191.095 266.158 190.65C266.349 190.205 266.448 189.729 266.448 189.247C266.448 188.766 266.349 188.289 266.158 187.845C265.968 187.4 265.688 186.996 265.335 186.655C264.983 186.315 264.564 186.045 264.103 185.861C263.643 185.676 263.149 185.582 262.65 185.582C261.643 185.582 260.677 185.968 259.965 186.655C259.253 187.343 258.853 188.275 258.853 189.247C258.853 190.22 259.253 191.152 259.965 191.84C260.677 192.527 261.643 192.913 262.65 192.913Z" fill="#000631" stroke="black" stroke-width="0.844" stroke-miterlimit="10"/>
<path d="M225.625 191.181L230.055 215.925C231.005 221.424 235.963 225.395 241.658 225.395C246.51 225.395 250.94 222.441 252.628 218.063C256.848 207.371 264.125 188.636 264.125 188.636L266.024 185.581C267.29 183.544 267.29 181.1 266.13 179.065L263.493 171.02C261.91 167.253 257.375 167.253 254.316 168.576L253.577 168.882L253.261 168.983C251.467 167.15 249.252 167.966 247.881 169.696C246.717 171.141 246.187 172.969 246.405 174.787L247.038 180.388L241.341 189.552C241.341 189.45 225.625 191.181 225.625 191.181Z" fill="#FFC7DE" stroke="black" stroke-width="0.844" stroke-miterlimit="10"/>
<path d="M255.794 169.187L250.098 157.987C261.49 150.451 265.815 135.89 259.591 123.467C252.735 109.824 235.858 104.121 221.724 110.739C207.589 117.358 201.683 133.65 208.539 147.294C215.184 160.634 231.639 166.437 245.563 160.43L251.153 171.529C251.357 171.927 251.673 172.263 252.064 172.497C252.456 172.731 252.907 172.854 253.368 172.853C253.79 172.853 254.211 172.75 254.634 172.547C256.005 171.936 256.533 170.408 255.794 169.187ZM211.703 145.767C205.796 133.853 210.965 119.497 223.306 113.795C235.648 108.092 250.52 113.082 256.426 124.995C262.334 136.908 257.165 151.265 244.824 156.968C232.483 162.67 217.715 157.68 211.703 145.767Z" fill="#000631" stroke="black" stroke-width="0.844" stroke-miterlimit="10"/>
<path d="M213.179 145.057C214.298 145.057 215.372 144.628 216.163 143.864C216.954 143.1 217.399 142.064 217.399 140.983C217.399 139.903 216.954 138.867 216.163 138.103C215.372 137.339 214.298 136.91 213.179 136.91C212.06 136.91 210.986 137.339 210.195 138.103C209.404 138.867 208.959 139.903 208.959 140.983C208.959 142.064 209.404 143.1 210.195 143.864C210.986 144.628 212.06 145.057 213.179 145.057ZM243.663 154.628C244.782 154.628 245.855 154.199 246.646 153.436C247.437 152.672 247.881 151.636 247.881 150.556C247.881 149.476 247.437 148.44 246.646 147.676C245.855 146.912 244.782 146.483 243.663 146.483C242.544 146.483 241.471 146.912 240.68 147.676C239.888 148.44 239.444 149.476 239.444 150.556C239.444 151.636 239.888 152.672 240.68 153.436C241.471 154.199 242.544 154.628 243.663 154.628Z" fill="#FFC7DE" stroke="black" stroke-width="0.844" stroke-miterlimit="10"/>
<path d="M228.581 161.143C237.61 161.143 244.93 154.077 244.93 145.361C244.93 136.644 237.61 129.578 228.581 129.578C219.551 129.578 212.231 136.644 212.231 145.361C212.231 154.077 219.551 161.143 228.581 161.143Z" fill="black" stroke="black" stroke-width="0.844" stroke-miterlimit="10"/>
<path d="M205.058 334.55L192.294 242.195L188.392 240.973" stroke="black" stroke-width="0.844" stroke-miterlimit="10"/>
<path d="M182.485 183.034L168.245 209.917L218.981 224.07L228.053 202.687L248.199 197.189C248.199 197.189 245.668 184.766 244.403 180.082C241.026 166.947 232.694 158.393 220.036 154.626C208.116 150.96 195.143 152.589 184.489 158.902L172.148 166.234L182.485 183.034Z" fill="#F3BC33" stroke="black" stroke-width="0.844" stroke-miterlimit="10"/>
<path d="M182.482 183.036L191.237 167.966M248.199 197.188L249.886 207.575M128.479 178.86L140.187 186.191M132.49 177.027L143.987 183.035M147.675 180.591L146.409 181.406" stroke="black" stroke-width="0.844" stroke-miterlimit="10" stroke-linecap="round" stroke-linejoin="round"/>
<path d="M176.895 332.003H246.512" stroke="black" stroke-width="0.844" stroke-miterlimit="10"/>
<path d="M228.051 202.687L231.638 194.644" stroke="black" stroke-width="0.844" stroke-miterlimit="10" stroke-linecap="round" stroke-linejoin="round"/>
<path d="M231.638 194.644L230.161 213.887L227.735 203.706L231.638 194.644ZM168.245 209.916L219.403 227.939L218.981 224.069L168.245 209.916Z" fill="black"/>
<path d="M263.071 261.441L254.316 267.245L263.071 273.355M353.679 273.353L362.54 267.549L353.679 261.44M255.371 267.347H361.38" stroke="#E48D00" stroke-width="0.844" stroke-miterlimit="10" stroke-linecap="round" stroke-linejoin="round"/>
</svg>
