<svg width="544" height="408" viewBox="0 0 544 408" fill="none" xmlns="http://www.w3.org/2000/svg">
<path d="M376.258 17.7208L324.666 110.709L433.102 108.959L376.258 17.7208Z" fill="#DEDFEA"/>
<path d="M269.881 209.157C311.057 209.157 344.437 175.776 344.437 134.599C344.437 93.4238 311.057 60.0439 269.881 60.0439C228.704 60.0439 195.324 93.4238 195.324 134.599C195.324 175.776 228.704 209.157 269.881 209.157Z" stroke="black" stroke-width="0.379" stroke-miterlimit="10"/>
<path d="M269.88 182.176C296.157 182.176 317.457 160.876 317.457 134.601C317.457 108.325 296.157 87.0237 269.88 87.0237C243.605 87.0237 222.305 108.324 222.305 134.601C222.305 160.876 243.605 182.176 269.88 182.176Z" stroke="black" stroke-width="0.379" stroke-miterlimit="10"/>
<path d="M335.477 13.6001C348.863 20.8081 360.81 30.2832 371.107 41.3019M269.883 235.723C325.732 235.723 371.007 190.449 371.007 134.599C371.007 78.7495 325.732 33.4738 269.883 33.4738C214.033 33.4738 168.757 78.7482 168.757 134.599C168.757 190.449 214.033 235.723 269.883 235.723ZM138.688 134.599H126.021C126.021 92.2761 144.557 52.3193 176.893 24.8255L185.13 34.5047C155.576 59.5287 138.688 95.9821 138.688 134.599ZM383.158 227.074L377.701 222.646C393.56 203.183 403.96 179.91 407.564 155.092L414.566 156.123C410.766 182.196 399.905 206.732 383.158 227.074Z" stroke="black" stroke-width="0.379" stroke-miterlimit="10"/>
<path d="M276.884 288.656H243.107C233.53 288.656 228.793 284.537 226.013 275.99C223.747 269.09 227.146 248.185 227.146 248.185H275.546H264.218H312.618C312.618 248.185 316.017 269.193 313.751 275.99C310.971 284.537 306.233 288.656 296.657 288.656H262.88H276.884Z" fill="#B6BBE2" stroke="black" stroke-width="0.757" stroke-miterlimit="10"/>
<path d="M307.466 275.369C307.466 275.369 307.569 287.52 312.615 278.974C312.615 278.974 310.556 283.711 307.466 285.77V275.369ZM243.518 248.184C263.495 248.698 262.877 249.934 271.837 249.831C279.971 249.727 279.559 248.698 293.668 248.698C305.819 248.698 312.615 248.286 314.058 260.335L312.615 248.286L243.518 248.184Z" fill="black"/>
<path d="M211.798 288.758H336.299M269.879 246.743V200.506" stroke="black" stroke-width="0.757" stroke-miterlimit="10" stroke-linecap="round"/>
<path d="M363.179 243.448H176.479V248.185H363.179V243.448Z" fill="white" stroke="black" stroke-width="0.757" stroke-miterlimit="10"/>
<path d="M255.259 133.672C255.259 133.672 251.963 148.707 254.435 155.606C254.435 155.606 285.844 149.634 303.658 162.3C303.658 162.3 303.658 157.358 297.273 151.899C291.198 146.648 285.02 144.999 284.608 135.525C284.608 135.525 265.145 125.64 255.259 133.672Z" fill="black"/>
<path d="M286.355 129.654C285.427 129.345 284.603 129.552 283.882 129.861C282.853 123.064 277.086 117.811 269.98 117.709C262.876 117.606 257.006 122.755 255.873 129.552C255.152 129.14 254.328 128.933 253.401 129.242C252.268 129.552 251.342 130.582 251.136 131.715C250.724 133.774 252.268 135.524 254.328 135.524C254.74 135.524 255.152 135.422 255.563 135.319C255.873 135.215 256.182 135.319 256.284 135.627C257.932 141.6 263.39 145.925 269.775 146.029C276.159 146.132 281.72 141.806 283.47 135.937C283.574 135.627 283.882 135.524 284.191 135.627C284.603 135.834 285.015 135.834 285.427 135.936C287.384 135.936 288.929 134.186 288.619 132.127C288.414 130.994 287.488 130.066 286.355 129.654Z" fill="#F3BC33" stroke="black" stroke-width="0.757" stroke-miterlimit="10"/>
<path d="M269.983 117.811C269.983 117.811 258.964 117.194 255.565 129.861C255.874 130.065 256.183 130.272 256.39 130.478C256.802 130.889 257.522 130.684 257.728 130.066C258.345 128.006 259.788 124.609 261.641 124.504C263.084 124.402 263.186 130.889 271.63 130.889C277.603 130.889 282.855 131.096 283.369 130.684C283.576 130.478 283.885 130.272 284.193 130.066C281.002 117.296 269.983 117.811 269.983 117.811Z" fill="black"/>
<path d="M270.085 150.766C279.457 150.766 287.489 151.795 299.33 159.313C318.588 171.567 330.636 189.588 338.36 200.402C345.671 210.699 349.07 219.349 347.628 229.132C346.29 238.4 337.022 243.344 328.165 243.344H209.018C202.428 243.344 193.571 238.297 192.13 229.132C190.688 219.349 194.087 210.699 201.398 200.402C209.122 189.588 221.17 171.463 240.428 159.313C252.27 151.795 260.303 150.766 269.673 150.766H270.085Z" fill="#000631" stroke="black" stroke-width="0.757" stroke-miterlimit="10"/>
<path d="M253.709 153.135C256.385 158.078 262.462 160.858 269.568 160.858C276.673 160.858 282.851 157.768 285.529 153.031C285.529 153.031 271.422 147.162 253.709 153.135Z" fill="#F3BC33" stroke="black" stroke-width="0.757" stroke-miterlimit="10"/>
<path d="M261.948 151.28C261.948 151.28 257.004 152 256.592 153.545C256.078 155.296 258.241 158.077 265.552 160.445C265.655 160.445 257.108 159.518 253.916 153.031C252.885 151.28 261.948 151.28 261.948 151.28Z" fill="black"/>
<path d="M215.711 209.256H226.628M312.51 209.256H323.426" stroke="black" stroke-width="0.757" stroke-miterlimit="10" stroke-linecap="round" stroke-linejoin="round"/>
<path d="M316.631 243.445H313.129V209.256V236.958C313.129 239.533 314.469 242.004 316.631 243.445Z" fill="black"/>
<path d="M312.925 243.448H227.145V196.902C227.145 192.886 230.336 189.694 234.353 189.694H305.717C309.733 189.694 312.925 192.886 312.925 196.902V243.448Z" fill="white" stroke="black" stroke-width="0.757" stroke-miterlimit="10" stroke-linecap="round" stroke-linejoin="round"/>
<path d="M270.084 223.677C271.996 223.677 273.829 222.917 275.181 221.565C276.533 220.213 277.292 218.38 277.292 216.468C277.292 214.556 276.533 212.722 275.181 211.371C273.829 210.019 271.996 209.259 270.084 209.259C268.172 209.259 266.338 210.019 264.986 211.371C263.634 212.722 262.875 214.556 262.875 216.468C262.875 218.38 263.634 220.213 264.986 221.565C266.338 222.917 268.172 223.677 270.084 223.677ZM277.91 209.156C278.238 209.156 278.553 209.026 278.785 208.794C279.016 208.562 279.147 208.247 279.147 207.92C279.147 207.592 279.016 207.277 278.785 207.045C278.553 206.814 278.238 206.683 277.91 206.683C277.583 206.683 277.268 206.814 277.036 207.045C276.805 207.277 276.674 207.592 276.674 207.92C276.674 208.247 276.805 208.562 277.036 208.794C277.268 209.026 277.583 209.156 277.91 209.156Z" fill="#0C296E" stroke="black" stroke-width="0.757" stroke-miterlimit="10" stroke-linecap="round" stroke-linejoin="round"/>
<path d="M232.295 275.371C232.295 275.371 231.574 251.996 252.375 253.643C262.673 255.084 269.059 264.044 267.822 275.063L262.982 375.878L264.836 379.792L229.205 386.279V375.878L232.295 275.371Z" fill="#F3BC33" stroke="black" stroke-width="0.757" stroke-miterlimit="10"/>
<path d="M242.281 251.584C242.281 251.584 258.759 251.172 266.276 261.161M298.714 251.582C298.714 251.582 282.341 250.759 275.751 260.233" stroke="black" stroke-width="0.757" stroke-miterlimit="10" stroke-linecap="round" stroke-linejoin="round"/>
<path d="M256.7 254.57H257.009C262.365 256.733 267.203 259.821 269.881 266.824C270.293 267.853 271.735 267.957 272.147 266.927C272.868 265.486 273.485 264.044 273.383 264.353C271.838 267.957 272.352 274.651 272.456 277.225L273.383 288.758H266.998C266.998 288.758 268.852 271.149 266.793 265.382C264.32 258.792 256.7 254.57 256.7 254.57Z" fill="black"/>
<path d="M237.549 273.62L238.99 277.018" stroke="black" stroke-width="0.757" stroke-miterlimit="10" stroke-linecap="round" stroke-linejoin="round"/>
<path d="M230.44 395.239H267.1C268.439 395.239 269.572 394.106 269.572 392.768V391.12C269.572 389.575 262.982 375.879 262.982 375.879L263.908 377.938C263.29 376.702 262.054 375.879 260.716 375.879H237.751C236.192 375.884 234.676 376.389 233.426 377.321L232.5 378.042C231.676 378.659 230.44 378.351 229.926 377.423L229.205 375.879L227.968 392.768C227.865 394.106 228.998 395.239 230.44 395.239Z" fill="#DEDFEA" stroke="black" stroke-width="0.757" stroke-miterlimit="10"/>
<path d="M269.571 391.942H228.07" stroke="black" stroke-width="0.757" stroke-miterlimit="10" stroke-linecap="round" stroke-linejoin="round"/>
<path d="M307.47 275.371C307.47 275.371 308.191 251.996 287.389 253.643C277.091 255.084 270.706 264.044 271.942 275.063L276.783 375.878L274.929 379.792L310.56 386.279V375.878L307.47 275.371Z" fill="#F3BC33" stroke="black" stroke-width="0.757" stroke-miterlimit="10"/>
<path d="M302.216 273.62L300.774 277.018" stroke="black" stroke-width="0.757" stroke-miterlimit="10" stroke-linecap="round" stroke-linejoin="round"/>
<path d="M309.323 395.239H272.663C272.01 395.23 271.387 394.967 270.925 394.505C270.464 394.044 270.201 393.42 270.191 392.768V391.12C270.191 389.575 276.782 375.879 276.782 375.879L275.854 377.938C276.473 376.702 277.708 375.879 279.048 375.879H302.011C303.556 375.879 305.101 376.393 306.336 377.321L307.264 378.042C308.088 378.659 309.323 378.351 309.838 377.423L310.559 375.879L311.795 392.768C311.795 394.106 310.764 395.239 309.323 395.239Z" fill="#DEDFEA" stroke="black" stroke-width="0.757" stroke-miterlimit="10"/>
<path d="M270.191 391.942H311.176" stroke="black" stroke-width="0.757" stroke-miterlimit="10" stroke-linecap="round" stroke-linejoin="round"/>
<path d="M310.97 381.748V388.235C310.979 389.022 310.685 389.782 310.148 390.358C309.611 390.933 308.873 391.28 308.087 391.325C304.895 391.531 299.54 391.943 294.699 391.943H311.898L310.97 381.748ZM228.69 381.748L228.792 388.133C228.784 388.92 229.078 389.68 229.615 390.255C230.152 390.83 230.89 391.176 231.676 391.222C234.869 391.429 240.223 391.839 245.063 391.839H227.866L228.69 381.748Z" fill="black"/>
<path d="M278.843 380.717H296.555M244.137 380.717H261.848M344.437 288.759H349.894" stroke="black" stroke-width="0.757" stroke-miterlimit="10" stroke-linecap="round" stroke-linejoin="round"/>
<path d="M127.049 212.556C136.376 212.556 143.937 204.994 143.937 195.667C143.937 186.339 136.376 178.779 127.049 178.779C117.722 178.779 110.16 186.339 110.16 195.667C110.16 204.994 117.722 212.556 127.049 212.556Z" fill="#DEDFEA"/>
<path d="M204.181 27.5033C205.492 27.5033 206.749 26.9825 207.676 26.0555C208.603 25.1285 209.124 23.8713 209.124 22.5603C209.124 21.2494 208.603 19.9922 207.676 19.0652C206.749 18.1382 205.492 17.6174 204.181 17.6174C202.87 17.6174 201.613 18.1382 200.686 19.0652C199.759 19.9922 199.238 21.2494 199.238 22.5603C199.238 23.8713 199.759 25.1285 200.686 26.0555C201.613 26.9825 202.87 27.5033 204.181 27.5033ZM394.587 286.492C396.553 286.492 398.439 285.712 399.829 284.322C401.22 282.932 402.001 281.046 402.001 279.08C402.002 277.114 401.221 275.228 399.831 273.838C398.441 272.447 396.556 271.666 394.589 271.665C393.616 271.665 392.652 271.857 391.752 272.229C390.853 272.602 390.035 273.148 389.347 273.836C388.658 274.524 388.112 275.341 387.739 276.241C387.367 277.14 387.175 278.104 387.175 279.077C387.174 280.051 387.366 281.015 387.738 281.914C388.111 282.814 388.657 283.631 389.345 284.32C390.033 285.008 390.85 285.555 391.75 285.927C392.649 286.3 393.613 286.492 394.587 286.492Z" fill="#B6BBE2"/>
<path d="M160.619 395.239H387.172" stroke="black" stroke-width="0.757" stroke-miterlimit="10" stroke-linecap="round"/>
</svg>
