<svg width="474" height="356" viewBox="0 0 474 356" fill="none" xmlns="http://www.w3.org/2000/svg">
<path d="M212.418 303.096L71.0996 187.474L109.172 140.748L207.933 221.587L360.987 65.3545L403.927 107.59L212.418 303.096Z" stroke="#000631" stroke-width="0.805" stroke-miterlimit="10"/>
<path d="M262.036 50.1615C261.75 50.6398 261.273 51.0219 260.604 51.0219C258.219 51.2117 256.215 52.6464 254.689 55.5122C253.448 57.806 253.067 60.0987 253.067 60.0987C252.876 61.0551 252.017 61.6283 251.063 61.5322C250.109 61.3423 249.537 60.482 249.631 59.5267C249.631 59.4306 250.109 56.7547 251.54 53.9838C253.639 50.0654 256.597 47.8677 260.319 47.5817C261.273 47.4868 262.132 48.2498 262.132 49.2063C262.323 49.4923 262.227 49.8744 262.036 50.1615Z" fill="#FFC7DE" stroke="black" stroke-width="0.805" stroke-miterlimit="10"/>
<path d="M260.604 45.9573C260.413 46.2433 260.223 46.5305 259.937 46.6266C259.65 46.7215 254.307 49.7796 251.922 58.9525C251.793 59.387 251.505 59.7566 251.116 59.9871C250.726 60.2176 250.264 60.2919 249.822 60.195C249.388 60.0663 249.019 59.7781 248.789 59.3883C248.559 58.9984 248.485 58.5358 248.581 58.0934C251.444 47.3896 258.028 43.7584 258.315 43.5686C259.173 43.0903 260.223 43.4736 260.7 44.3328C260.891 44.9059 260.891 45.4791 260.604 45.9573Z" fill="#FFC7DE" stroke="black" stroke-width="0.805" stroke-miterlimit="10"/>
<path d="M253.638 50.927C253.638 50.927 252.494 54.4621 253.542 54.4621L252.779 55.9905C252.779 55.9905 252.588 53.5068 253.638 50.927ZM253.257 55.0352C253.257 55.0352 252.779 56.5637 254.02 57.2329L253.353 59.2384C253.353 59.2384 252.875 57.3279 252.779 55.9905L253.257 55.0352Z" fill="black"/>
<path d="M258.409 57.4228C257.965 57.2862 257.486 57.318 257.064 57.5121C256.642 57.7062 256.305 58.049 256.119 58.4754L254.402 62.3926C253.352 59.6217 252.493 56.4687 252.684 54.1749C253.352 49.9706 253.924 46.0534 254.306 43.7595C254.497 42.7082 253.733 41.7529 252.78 41.5618C251.73 41.3708 250.68 42.135 250.585 43.1864C250.013 46.7227 248.867 53.7928 248.294 54.8442C246.768 57.8061 233.027 92.3974 233.027 92.3974L214.42 97.7481L219.192 120.873L244.477 113.419C246.386 112.846 247.818 111.316 248.39 109.406L259.745 59.8128C260.127 58.8575 259.459 57.7088 258.409 57.4228Z" fill="#FFC7DE" stroke="black" stroke-width="0.805" stroke-miterlimit="10" stroke-linecap="round" stroke-linejoin="round"/>
<path d="M254.402 62.3926L251.635 66.1187" stroke="black" stroke-width="0.805" stroke-miterlimit="10" stroke-linecap="round" stroke-linejoin="round"/>
<path d="M348.201 192.635L319.192 215.759L338.658 232.29L366.903 210.026L348.201 192.635Z" fill="#FFC7DE" stroke="black" stroke-width="0.805" stroke-miterlimit="10"/>
<path d="M360.319 215.089L381.024 220.727C382.361 221.205 383.887 220.918 384.937 219.963L385.415 219.581C385.796 219.199 385.891 218.529 385.51 218.147L357.17 185.946C357.061 185.816 356.926 185.709 356.773 185.633C356.621 185.557 356.455 185.513 356.285 185.504C356.115 185.495 355.945 185.521 355.785 185.581C355.626 185.64 355.48 185.732 355.357 185.85L344.765 195.405L360.319 215.089Z" fill="#B6BBE2" stroke="black" stroke-width="0.805" stroke-miterlimit="10"/>
<path d="M384.841 219.963L354.975 186.041" stroke="black" stroke-width="0.403" stroke-miterlimit="10"/>
<path d="M277.401 63.1579C276.351 65.9288 282.839 68.6047 284.079 65.2595C285.32 61.9154 287.133 58.2842 288.183 55.1313C288.659 53.7939 288.278 52.3604 287.037 51.6911C286.452 51.3785 285.768 51.3033 285.129 51.4811C284.49 51.659 283.943 52.0762 283.603 52.6464L277.401 63.1579Z" fill="#FFC7DE" stroke="black" stroke-width="0.805" stroke-miterlimit="10"/>
<path d="M277.878 60.1962C277.305 62.6798 283.221 64.3044 283.984 61.3425C284.747 58.2844 285.893 54.9404 286.56 52.0746C286.847 50.831 286.37 49.5885 285.225 49.2064C284.08 48.7294 282.839 49.3026 282.267 50.4489L277.878 60.1962Z" fill="#FFC7DE" stroke="black" stroke-width="0.805" stroke-miterlimit="10"/>
<path d="M283.888 61.2463L283.316 76.8225L274.538 102.622L256.026 111.127C255.512 110.285 255.217 109.329 255.167 108.344C255.117 107.36 255.313 106.378 255.739 105.489L276.923 59.0486C277.399 58.0934 278.545 57.6163 279.499 58.0934" fill="#FFC7DE"/>
<path d="M283.888 61.2463L283.316 76.8225L274.538 102.622L256.026 111.127C255.512 110.285 255.217 109.329 255.167 108.344C255.117 107.36 255.313 106.378 255.739 105.489L276.923 59.0486C277.399 58.0934 278.545 57.6163 279.499 58.0934" stroke="black" stroke-width="0.805" stroke-miterlimit="10" stroke-linecap="round" stroke-linejoin="round"/>
<path d="M279.022 70.5154L278.737 68.6048C278.546 66.8842 278.737 65.1647 279.309 63.5401L280.454 60.4821C280.74 59.5268 280.358 58.5716 279.5 58.1895" fill="#FFC7DE"/>
<path d="M279.022 70.5154L278.737 68.6048C278.546 66.8842 278.737 65.1647 279.309 63.5401L280.454 60.4821C280.74 59.5268 280.358 58.5716 279.5 58.1895M149.822 147.245L136.367 132.243" stroke="black" stroke-width="0.805" stroke-miterlimit="10" stroke-linecap="round" stroke-linejoin="round"/>
<path d="M136.366 132.243L128.734 139.506C128.734 139.506 121.1 146.768 117.95 150.399C115.279 153.456 118.524 155.081 119.763 154.508C119.763 154.508 116.805 157.279 118.428 159.476C119.572 161.101 121.767 161.006 123.104 159.954C123.104 159.954 121.576 161.77 123.485 163.586C124.917 164.923 126.825 164.35 128.256 163.204C131.023 160.91 137.607 155.081 137.607 155.081C137.607 155.081 136.558 159.763 135.985 162.343C135.317 165.974 139.325 167.312 140.947 164.254C142.474 161.388 145.527 150.876 145.527 150.876L149.917 147.15" fill="#FFC7DE"/>
<path d="M136.366 132.243L128.734 139.506C128.734 139.506 121.1 146.768 117.95 150.399C115.279 153.456 118.524 155.081 119.763 154.508C119.763 154.508 116.805 157.279 118.428 159.476C119.572 161.101 121.767 161.006 123.104 159.954C123.104 159.954 121.576 161.77 123.485 163.586C124.917 164.923 126.825 164.35 128.256 163.204C131.023 160.91 137.607 155.081 137.607 155.081C137.607 155.081 136.558 159.763 135.985 162.343C135.317 165.974 139.325 167.312 140.947 164.254C142.474 161.388 145.527 150.876 145.527 150.876L149.917 147.15M119.763 154.604L129.115 145.717M123.009 160.049L132.456 151.546" stroke="black" stroke-width="0.805" stroke-miterlimit="10" stroke-linecap="round" stroke-linejoin="round"/>
<path d="M137.513 155.177C137.513 155.177 133.124 152.215 136.082 146.29" stroke="black" stroke-width="0.805" stroke-miterlimit="10" stroke-linecap="round" stroke-linejoin="round"/>
<path d="M149.822 147.245L162.704 136.353L231.407 112.655L218.334 96.4097L158.219 115.426C156.884 115.903 155.63 116.58 154.498 117.433L136.367 132.243" fill="#FFC7DE"/>
<path d="M149.822 147.245L162.704 136.353L231.407 112.655L218.334 96.4097L158.219 115.426C156.884 115.903 155.63 116.58 154.498 117.433L136.367 132.243" stroke="black" stroke-width="0.805" stroke-miterlimit="10" stroke-linecap="round" stroke-linejoin="round"/>
<path d="M323.011 292.203L302.496 261.147L284.271 279.493L304.213 309.498L323.011 292.203Z" fill="#FFC7DE" stroke="black" stroke-width="0.805" stroke-miterlimit="10"/>
<path d="M299.728 302.523L292.476 322.684C292.196 323.336 292.093 324.051 292.177 324.755C292.261 325.46 292.528 326.13 292.953 326.698L293.335 327.176C293.716 327.654 294.289 327.654 294.766 327.367L329.117 301.663C329.691 301.186 329.786 300.42 329.308 299.847L320.625 288.571L299.728 302.523Z" fill="#B6BBE2" stroke="black" stroke-width="0.805" stroke-miterlimit="10"/>
<path d="M292.952 326.698L329.021 299.465" stroke="black" stroke-width="0.403" stroke-miterlimit="10"/>
<path d="M275.299 196.361L310.032 246.813C314.803 251.114 322.055 251.209 326.826 247.005L358.028 220.823L340.567 198.368L319.192 215.758L302.113 183.843L275.299 196.361Z" fill="#000631" stroke="black" stroke-width="0.805" stroke-miterlimit="10" stroke-linecap="round" stroke-linejoin="round"/>
<path d="M294.671 190.054V244.521L320.053 282.551L293.908 299.847C293.908 299.847 266.712 258.854 265.854 255.222V195.787L294.671 190.054Z" fill="#000631" stroke="black" stroke-width="0.805" stroke-miterlimit="10" stroke-linecap="round" stroke-linejoin="round"/>
<path d="M114.61 182.697L97.4346 225.124L99.5332 225.983C101.728 226.843 104.209 226.557 106.213 225.219L123.961 212.988L124.342 204.101C124.533 199.61 126.728 195.31 130.259 192.539L133.217 190.15L114.61 182.697Z" fill="#B6BBE2" stroke="black" stroke-width="0.805" stroke-miterlimit="10" stroke-linecap="round" stroke-linejoin="round"/>
<path d="M116.614 183.557L99.4385 225.983" stroke="black" stroke-width="0.805" stroke-miterlimit="10" stroke-linecap="round" stroke-linejoin="round"/>
<path d="M127.872 188.047L111.842 195.692L116.613 183.557L127.872 188.047Z" fill="white" stroke="black" stroke-width="0.805" stroke-miterlimit="10" stroke-linecap="round" stroke-linejoin="round"/>
<path d="M123.865 212.988L148.293 222.926L157.549 200.088L133.121 190.15L129.495 192.826C125.678 195.597 123.484 200.088 123.675 204.77L123.865 212.988Z" fill="#FFC7DE" stroke="black" stroke-width="0.805" stroke-miterlimit="10" stroke-linecap="round" stroke-linejoin="round"/>
<path d="M213.179 173.715L202.015 227.991C199.534 237.068 189.801 242.228 180.927 239.17L124.152 219.295L135.22 190.438L174.343 205.534L181.881 165.115L213.179 173.715Z" fill="#000631" stroke="black" stroke-width="0.805" stroke-miterlimit="10" stroke-linecap="round" stroke-linejoin="round"/>
<path d="M108.696 220.823L112.417 266.498L114.612 266.307C116.997 266.116 119.097 264.779 120.242 262.676L130.643 243.757L126.922 235.73C125.013 231.621 125.109 226.843 127.017 222.735L128.544 219.199L108.696 220.823Z" fill="#B6BBE2" stroke="black" stroke-width="0.805" stroke-miterlimit="10" stroke-linecap="round" stroke-linejoin="round"/>
<path d="M110.987 220.632L114.708 266.307" stroke="black" stroke-width="0.805" stroke-miterlimit="10" stroke-linecap="round" stroke-linejoin="round"/>
<path d="M123.01 219.677L112.132 233.627L110.987 220.632L123.01 219.677Z" fill="white" stroke="black" stroke-width="0.805" stroke-miterlimit="10" stroke-linecap="round" stroke-linejoin="round"/>
<path d="M130.641 243.661L156.882 241.463L154.878 216.906L128.638 219.104L126.634 223.117C124.534 227.321 124.534 232.29 126.825 236.494L130.641 243.661Z" fill="#FFC7DE" stroke="black" stroke-width="0.805" stroke-miterlimit="10" stroke-linecap="round" stroke-linejoin="round"/>
<path d="M206.883 170.561L208.696 221.205C208.983 230.665 202.207 238.883 192.762 240.126L134.077 248.247L130.547 218.434L176.922 212.702L175.394 170.753L206.883 170.561Z" fill="#000631" stroke="black" stroke-width="0.805" stroke-miterlimit="10" stroke-linecap="round" stroke-linejoin="round"/>
<path d="M350.777 132.339L355.644 124.313C355.644 124.313 360.415 116.286 362.228 112.368C363.754 109.12 360.605 108.451 359.746 109.215C359.746 109.215 361.559 106.157 359.651 104.628C358.316 103.577 356.503 104.055 355.548 105.298C355.548 105.298 356.407 103.291 354.308 102.24C352.781 101.475 351.255 102.335 350.395 103.673C348.582 106.253 344.289 112.846 344.289 112.846C344.289 112.846 343.716 109.406 343.525 107.399C343.048 104.15 339.041 103.673 338.85 107.686C338.754 110.839 338.468 118.197 338.468 118.197L335.605 122.497L350.777 132.339Z" fill="#FFC7DE" stroke="black" stroke-width="0.805" stroke-miterlimit="10" stroke-linecap="round" stroke-linejoin="round"/>
<path d="M359.745 109.31L353.829 119.057M355.645 105.393L349.633 114.949M344.384 113.037C344.384 113.037 348.869 114.471 347.723 120.299" stroke="black" stroke-width="0.805" stroke-miterlimit="10" stroke-linecap="round" stroke-linejoin="round"/>
<path d="M205.357 100.233C213.42 100.233 219.956 93.6872 219.956 85.6131C219.956 77.5391 213.42 70.9934 205.357 70.9934C197.293 70.9934 190.758 77.5391 190.758 85.6131C190.758 93.6872 197.293 100.233 205.357 100.233Z" fill="#FFC7DE" stroke="black" stroke-width="0.805" stroke-miterlimit="10"/>
<path d="M199.535 72.0448C196.863 72.904 188.466 78.4469 191.233 89.6265C192.377 94.3091 196.1 96.6017 196.1 96.6017C201.729 94.6912 201.634 86.5684 202.111 86.6646C205.165 87.1416 208.123 84.5618 210.03 80.5485C212.034 76.2492 210.986 71.9487 210.986 71.9487C209.267 71.4705 205.832 69.8459 199.535 72.0436V72.0448Z" fill="black"/>
<path d="M200.489 91.8243C201.578 91.8243 202.622 91.3914 203.391 90.6207C204.161 89.85 204.593 88.8048 204.593 87.7149C204.593 86.625 204.161 85.5798 203.391 84.8091C202.622 84.0384 201.578 83.6055 200.489 83.6055C199.401 83.6055 198.357 84.0384 197.588 84.8091C196.818 85.5798 196.386 86.625 196.386 87.7149C196.386 88.8048 196.818 89.85 197.588 90.6207C198.357 91.3914 199.401 91.8243 200.489 91.8243Z" fill="#FFC7DE"/>
<path d="M216.234 76.1531C216.234 76.1531 210.89 75.1978 208.886 73.4783L210.604 71.9487C210.508 71.9487 214.802 73.7643 216.234 76.1531Z" fill="black"/>
<path d="M198.485 87.1416L201.825 87.7159" stroke="black" stroke-width="0.805" stroke-miterlimit="10" stroke-linecap="round" stroke-linejoin="round"/>
<path d="M352.016 131.67L335.413 121.35L319.955 145.335L288.561 130.524C284.65 128.612 281.405 125.459 279.496 121.542L273.866 109.884L287.989 78.0638L270.527 70.1333L255.737 102.813C253.742 107.178 253.536 112.153 255.165 116.668L264.23 141.895V203.719L312.798 199.036L307.359 161.579L318.237 166.357C323.867 168.841 330.451 166.739 333.696 161.579L352.016 131.67Z" fill="#F3BC33" stroke="black" stroke-width="0.805" stroke-miterlimit="10" stroke-linecap="round" stroke-linejoin="round"/>
<path d="M311.179 122.02L335.416 130.715C340.09 132.34 341.999 137.882 339.423 142.087C336.56 146.768 329.786 147.151 326.541 142.66L311.179 122.02Z" fill="black"/>
<path d="M227.302 332.623H390.949M202.686 332.623H216.235M253.925 25.5097L260.414 38.4088M276.35 22.5466L271.865 39.173M283.222 41.6579L294.1 34.3955" stroke="black" stroke-width="0.805" stroke-miterlimit="10" stroke-linecap="round" stroke-linejoin="round"/>
<path d="M297.056 127.657C304.75 127.657 310.988 121.411 310.988 113.706C310.988 106.001 304.75 99.7546 297.056 99.7546C289.362 99.7546 283.125 106.001 283.125 113.706C283.125 121.411 289.362 127.657 297.056 127.657Z" fill="#FFC7DE" stroke="black" stroke-width="0.805" stroke-miterlimit="10"/>
<path d="M305.548 102.527C307.742 103.959 314.327 110.935 309.27 120.778C307.17 124.886 303.258 126.128 303.258 126.128C298.488 123.07 300.395 115.617 300.014 115.522C297.056 115.331 294.861 112.177 294.098 108.068C293.239 103.577 295.147 99.9469 295.147 99.9469C296.674 99.7547 300.205 99.0866 305.548 102.527Z" fill="black"/>
<path d="M301.062 120.682C301.576 120.682 302.085 120.581 302.559 120.384C303.034 120.187 303.465 119.898 303.829 119.535C304.192 119.171 304.48 118.739 304.677 118.264C304.874 117.788 304.975 117.279 304.975 116.765C304.975 116.25 304.874 115.741 304.677 115.265C304.481 114.79 304.193 114.358 303.829 113.994C303.466 113.63 303.035 113.342 302.56 113.145C302.086 112.948 301.577 112.846 301.063 112.846C300.026 112.846 299.031 113.259 298.297 113.993C297.563 114.728 297.151 115.724 297.15 116.763C297.15 117.802 297.562 118.799 298.296 119.534C299.029 120.269 300.024 120.682 301.062 120.682Z" fill="#FFC7DE"/>
<path d="M289.135 102.526C289.135 102.526 294.287 102.909 296.578 101.666L295.337 99.8508C295.337 99.9458 291.044 100.615 289.135 102.526Z" fill="black"/>
<path d="M303.068 116.668L299.824 116.477" stroke="black" stroke-width="0.805" stroke-miterlimit="10" stroke-linecap="round" stroke-linejoin="round"/>
<path d="M313.087 203.815L294.958 204.865L294.862 202.667L265.76 203.91L310.702 199.132L313.087 203.815Z" fill="black"/>
<path d="M164.135 138.645L176.254 135.971L160.223 174.192L214.899 188.335L218.62 123.452L240.567 116.859L232.552 91.8242L189.231 104.055C186.558 104.819 183.982 105.68 181.31 106.539L156.979 115.14L164.135 138.645Z" fill="#F3BC33" stroke="black" stroke-width="0.805" stroke-miterlimit="10" stroke-linecap="round" stroke-linejoin="round"/>
<path d="M219.004 122.879L206.408 126.223L218.526 128.803L219.004 122.879Z" fill="black"/>
<path d="M176.35 135.875L186.941 110.743" stroke="black" stroke-width="0.805" stroke-miterlimit="10" stroke-linecap="round" stroke-linejoin="round"/>
<path d="M326.731 326.124L344.575 290.387" stroke="#000631" stroke-width="0.805" stroke-miterlimit="10"/>
<path d="M175.491 178.302L175.682 179.353L207.266 188.526L208.029 197.413L210.319 186.805L175.491 178.302ZM175.682 190.724L173.01 212.606L177.017 212.701L175.682 190.724Z" fill="black"/>
<path d="M363.757 287.234L340.569 315.423M268.333 306.918L279.021 322.112" stroke="#000631" stroke-width="0.805" stroke-miterlimit="10"/>
</svg>
