<svg width="360" height="359" viewBox="0 0 360 359" fill="none" xmlns="http://www.w3.org/2000/svg">
<path d="M266.069 72.4761C266.069 72.4761 263.469 78.1761 263.969 81.2761C264.469 84.4761 266.569 100.576 268.669 102.576C270.669 104.676 272.769 105.776 274.869 105.176C276.969 104.676 285.269 101.576 289.369 95.3761L292.569 90.6761C292.569 90.6761 293.069 90.6761 294.069 90.6761" stroke="#000631" stroke-width="0.8" stroke-linecap="round" stroke-linejoin="round"/>
<path d="M294.569 100.876C295.669 98.0761 294.069 97.9761 293.069 95.3761C291.969 92.7761 294.569 92.7761 294.569 88.8761C294.569 85.0761 292.569 85.4761 291.469 82.8761C290.469 80.2761 292.569 78.1761 291.969 76.6761C291.469 75.0761 288.869 74.0761 289.969 71.4761C290.969 68.8761 288.369 66.2761 285.269 64.6761C282.169 63.1761 281.069 60.5761 281.069 60.5761C281.069 60.5761 286.769 52.7761 290.969 52.7761C290.969 52.7761 293.569 53.2761 295.669 54.7761C297.769 56.3761 301.369 58.4761 301.369 61.5761C301.369 64.6761 301.869 64.6761 302.869 66.2761C303.969 67.7761 306.069 68.8761 305.469 71.9761C304.969 75.0761 303.569 74.9761 305.569 77.0761C307.569 79.2761 312.269 81.2761 311.269 84.4761C310.169 87.5761 306.569 88.5761 308.669 90.6761C310.669 92.7761 316.469 94.7761 316.469 98.9761C316.469 103.176 314.369 105.176 316.469 106.276C318.469 107.276 320.669 110.676 318.069 112.976" stroke="#000631" stroke-width="0.8" stroke-linecap="round" stroke-linejoin="round"/>
<path d="M289.369 95.3761C289.369 95.3761 288.869 100.376 289.369 101.776" stroke="#000631" stroke-width="0.8" stroke-linecap="round" stroke-linejoin="round"/>
<path d="M289.469 99.176C289.469 99.176 293.669 101.276 299.169 102.976C304.769 104.676 313.069 106.276 316.369 110.176C319.669 114.076 324.169 130.676 326.369 137.876C328.569 145.076 328.569 159.576 329.169 161.776C329.669 163.976 327.969 171.176 326.369 176.176C324.669 181.176 321.869 182.276 320.269 181.676C318.569 181.176 314.669 179.476 310.869 177.276C306.969 175.076 296.969 172.276 290.269 167.876C283.669 163.376 281.969 161.776 281.969 161.776C281.969 161.776 284.769 151.776 288.069 151.776C288.069 151.776 310.269 160.676 311.369 160.676C312.469 160.676 311.969 159.576 314.169 159.576C316.369 159.576 315.269 160.076 316.969 160.676C318.569 161.176 321.369 163.976 322.469 167.276" stroke="#000631" stroke-width="0.8" stroke-linecap="round" stroke-linejoin="round"/>
<path d="M315.769 162.276C315.769 162.276 320.769 166.776 320.769 171.776" stroke="#000631" stroke-width="0.8" stroke-linecap="round" stroke-linejoin="round"/>
<path d="M317.469 158.976C317.469 158.976 324.669 161.176 325.269 162.276C325.769 163.376 321.369 161.576 321.369 161.576" stroke="#000631" stroke-width="0.8" stroke-linecap="round" stroke-linejoin="round"/>
<path d="M303.569 131.776C303.569 131.776 308.069 148.976 309.169 155.076" stroke="#000631" stroke-width="0.8" stroke-linecap="round" stroke-linejoin="round"/>
<path d="M302.469 132.876C302.469 132.876 304.469 135.076 304.869 136.776" stroke="#000631" stroke-width="0.8" stroke-linecap="round" stroke-linejoin="round"/>
<path d="M311.369 155.076C311.369 155.076 311.969 144.576 310.869 141.276" stroke="#000631" stroke-width="0.8" stroke-linecap="round" stroke-linejoin="round"/>
<path d="M296.369 155.076C296.369 155.076 302.069 153.976 305.569 154.576C309.169 155.076 314.169 159.576 314.169 159.576" stroke="#000631" stroke-width="0.8" stroke-linecap="round" stroke-linejoin="round"/>
<path d="M308.069 157.876L311.869 159.576" stroke="#000631" stroke-width="0.8" stroke-linecap="round" stroke-linejoin="round"/>
<path d="M277.569 169.476L287.669 166.976" stroke="#000631" stroke-width="0.8" stroke-linecap="round" stroke-linejoin="round"/>
<path d="M268.769 158.676C268.769 158.676 274.169 152.276 275.369 151.776C276.469 151.176 283.269 152.676 286.469 152.476" stroke="#000631" stroke-width="0.8" stroke-linecap="round" stroke-linejoin="round"/>
<path d="M276.469 158.976L282.569 157.876" stroke="#000631" stroke-width="0.8" stroke-linecap="round" stroke-linejoin="round"/>
<path d="M259.569 103.876C259.569 103.876 260.869 113.476 270.369 119.076C279.769 124.576 300.769 107.676 304.169 106.476C307.469 105.176 309.969 106.476 309.969 106.476" stroke="#000631" stroke-width="0.8" stroke-linecap="round" stroke-linejoin="round"/>
<path d="M273.069 119.976C273.069 119.976 271.369 135.376 271.669 140.476H274.969C274.969 140.476 274.769 125.376 276.469 119.976" stroke="#000631" stroke-width="0.6" stroke-linecap="round" stroke-linejoin="round"/>
<path d="M254.269 127.876C254.269 127.876 250.969 141.276 253.169 145.676C255.369 150.076 259.269 154.576 260.369 160.076" stroke="#000631" stroke-width="0.8" stroke-linecap="round" stroke-linejoin="round"/>
<path d="M256.269 151.076C256.469 151.176 254.369 158.376 255.169 158.976C255.869 159.576 256.669 160.476 256.269 160.776" stroke="#000631" stroke-width="0.8" stroke-linecap="round" stroke-linejoin="round"/>
<path d="M253.969 161.176C253.969 161.176 239.269 156.176 238.669 157.876C238.169 159.576 244.269 159.376 244.269 159.376" stroke="#000631" stroke-width="0.8" stroke-linecap="round" stroke-linejoin="round"/>
<path d="M247.569 155.976C248.169 156.176 250.469 157.576 252.369 159.376" stroke="#000631" stroke-width="0.8" stroke-linecap="round" stroke-linejoin="round"/>
<path d="M238.169 186.176C235.369 185.576 235.369 183.376 233.769 179.476C232.069 175.576 232.669 168.976 233.769 157.876C234.869 146.776 238.169 132.876 238.169 130.676C238.169 128.476 239.269 122.376 240.369 119.076C241.469 115.676 244.269 107.676 247.569 106.476C250.969 105.176 268.069 102.376 268.069 102.376" stroke="#000631" stroke-width="0.8" stroke-linecap="round" stroke-linejoin="round"/>
<path d="M244.769 168.276C244.769 168.276 251.269 162.876 254.969 161.776C258.669 160.676 276.069 157.876 275.969 157.876C275.969 157.876 274.369 162.376 275.969 165.976C277.569 169.476 277.669 170.776 277.669 170.776C277.669 170.776 266.869 176.576 258.369 180.476" stroke="#000631" stroke-width="0.8" stroke-linecap="round" stroke-linejoin="round"/>
<path d="M248.169 136.276C248.169 136.276 249.969 147.376 252.369 150.376" stroke="#000631" stroke-width="0.8" stroke-linecap="round" stroke-linejoin="round"/>
<path d="M266.769 176.376C266.769 176.376 265.369 179.476 264.769 180.076" stroke="#000631" stroke-width="0.8" stroke-linecap="round" stroke-linejoin="round"/>
<path d="M310.869 196.176C310.869 196.176 276.969 185.476 266.969 182.776C257.069 180.176 249.269 180.576 249.269 180.576C249.269 180.576 243.169 181.176 238.169 186.176C236.869 187.476 231.469 195.576 229.869 207.776C228.169 219.976 222.069 251.576 222.069 251.576C222.069 251.576 225.969 251.576 233.169 254.876C240.369 258.276 242.669 262.076 242.669 262.076C242.669 262.076 243.169 260.476 244.069 257.876" stroke="#000631" stroke-width="0.8" stroke-linecap="round" stroke-linejoin="round"/>
<path d="M290.669 189.176C290.669 189.176 304.469 188.876 311.469 183.376C311.469 183.376 308.969 178.276 309.069 176.376" stroke="#000631" stroke-width="0.8" stroke-linecap="round" stroke-linejoin="round"/>
<path d="M306.369 175.276C306.369 175.276 300.269 181.676 291.969 183.976" stroke="#000631" stroke-width="0.8" stroke-linecap="round" stroke-linejoin="round"/>
<path d="M302.469 173.776C302.469 173.776 299.769 175.576 298.069 175.576" stroke="#000631" stroke-width="0.8" stroke-linecap="round" stroke-linejoin="round"/>
<path d="M309.169 184.876C309.169 184.876 318.069 198.876 319.169 204.976C320.269 211.076 319.669 216.676 316.969 221.676C315.369 224.476 304.169 231.576 298.069 232.176C291.969 232.776 269.269 233.276 269.269 233.276" stroke="#000631" stroke-width="0.8" stroke-linecap="round" stroke-linejoin="round"/>
<path d="M273.669 222.776C273.669 222.776 269.269 227.776 269.269 230.476C269.269 233.276 269.869 236.976 271.469 252.876C273.069 268.776 269.769 303.176 269.769 303.176C269.769 303.176 257.569 305.376 253.169 302.076C253.169 302.076 251.469 289.876 247.569 271.576C243.669 253.276 242.569 249.376 242.569 249.376" stroke="#000631" stroke-width="0.8" stroke-linecap="round" stroke-linejoin="round"/>
<path d="M267.569 208.376C267.569 208.376 280.269 210.576 281.969 213.276C283.669 216.076 283.669 227.176 290.869 232.776" stroke="#000631" stroke-width="0.8" stroke-linecap="round" stroke-linejoin="round"/>
<path d="M291.969 232.776C291.969 232.776 297.469 225.276 299.169 224.976C300.869 224.676 311.869 225.676 312.469 225.476" stroke="#000631" stroke-width="0.6" stroke-linecap="round" stroke-linejoin="round"/>
<path d="M242.569 249.376C241.269 253.576 239.869 258.776 239.869 258.776" stroke="#000631" stroke-width="0.6" stroke-linecap="round" stroke-linejoin="round"/>
<path d="M319.169 216.676C319.169 216.676 309.169 215.576 270.869 199.676C267.569 198.276 262.769 194.076 261.969 196.676C260.869 200.576 260.869 198.876 260.869 198.876C258.669 199.676 257.569 195.576 257.569 198.376C257.569 199.476 255.269 206.376 253.669 209.476" stroke="#000631" stroke-width="0.6" stroke-linecap="round" stroke-linejoin="round"/>
<path d="M261.969 200.576C261.969 200.576 261.969 203.576 261.469 204.476C260.869 205.376 260.169 203.876 258.169 208.376" stroke="#000631" stroke-width="0.8" stroke-linecap="round" stroke-linejoin="round"/>
<path d="M258.169 201.676C258.169 201.676 250.369 203.876 246.469 204.476" stroke="#000631" stroke-width="0.8" stroke-linecap="round" stroke-linejoin="round"/>
<path d="M305.069 194.176C305.069 194.176 311.669 194.576 312.369 195.076" stroke="#000631" stroke-width="0.8" stroke-linecap="round" stroke-linejoin="round"/>
<path d="M294.069 190.276C294.069 190.276 301.869 190.776 309.969 186.276" stroke="#000631" stroke-width="0.6" stroke-linecap="round" stroke-linejoin="round"/>
<path d="M302.069 189.376C302.069 189.376 306.069 192.076 313.469 192.176" stroke="#000631" stroke-width="0.6" stroke-linecap="round" stroke-linejoin="round"/>
<path d="M242.569 249.376C242.569 249.376 240.269 223.076 243.669 215.376C247.069 207.776 267.569 208.376 267.569 208.376" stroke="#000631" stroke-width="0.8" stroke-linecap="round" stroke-linejoin="round"/>
<path d="M254.969 302.976C254.969 302.976 257.569 323.076 257.069 324.276C256.469 325.376 252.069 328.676 249.269 329.776" stroke="#000631" stroke-width="0.8" stroke-linecap="round" stroke-linejoin="round"/>
<path d="M268.369 303.876C268.369 303.876 267.969 319.176 268.369 322.476C268.669 325.876 271.469 328.076 270.369 333.076" stroke="#000631" stroke-width="0.8" stroke-linecap="round" stroke-linejoin="round"/>
<path d="M271.969 332.576C272.569 333.076 273.069 334.176 271.969 335.176C270.869 336.076 258.669 340.876 249.269 342.576C239.869 344.276 234.269 343.676 232.069 343.076C229.869 342.576 230.369 340.876 230.969 340.276C231.469 339.776 233.769 341.376 237.569 341.376C241.469 341.376 248.169 340.876 257.069 338.676C266.069 336.576 271.969 332.576 271.969 332.576ZM271.969 332.576L270.569 331.876" stroke="#000631" stroke-width="0.8" stroke-linecap="round" stroke-linejoin="round"/>
<path d="M247.569 336.476C247.569 336.476 244.269 336.476 242.569 336.476C240.969 336.476 238.369 338.976 240.769 341.276" stroke="#000631" stroke-width="0.8" stroke-linecap="round" stroke-linejoin="round"/>
<path d="M240.669 337.376C240.669 337.376 236.469 338.676 237.569 341.376" stroke="#000631" stroke-width="0.8" stroke-linecap="round" stroke-linejoin="round"/>
<path d="M241.469 336.476C241.469 336.476 235.369 336.976 234.869 340.276" stroke="#000631" stroke-width="0.8" stroke-linecap="round" stroke-linejoin="round"/>
<path d="M238.169 336.476C238.169 336.476 236.469 336.076 234.869 337.376C233.169 338.676 232.569 339.576 233.169 340.776" stroke="#000631" stroke-width="0.8" stroke-linecap="round" stroke-linejoin="round"/>
<path d="M231.369 339.376C231.369 339.376 232.669 336.676 234.869 337.376" stroke="#000631" stroke-width="0.8" stroke-linecap="round" stroke-linejoin="round"/>
<path d="M253.169 339.376C247.169 331.776 234.069 336.476 234.069 336.476C234.069 336.476 242.069 330.876 244.869 330.376C247.569 329.776 259.369 328.076 262.069 337.276" stroke="#000631" stroke-width="0.8" stroke-linecap="round" stroke-linejoin="round"/>
<path d="M241.469 336.476C242.569 336.176 245.469 337.776 245.469 337.776L248.669 336.976" stroke="#000631" stroke-width="0.6" stroke-linecap="round" stroke-linejoin="round"/>
<path d="M265.869 326.476C265.869 326.476 267.569 326.476 267.569 321.976" stroke="#000631" stroke-width="0.8" stroke-linecap="round" stroke-linejoin="round"/>
<path d="M224.769 251.976C224.769 251.976 218.169 280.376 217.669 282.676C217.069 284.876 216.569 285.376 216.569 285.376H214.069" stroke="#000631" stroke-width="0.8" stroke-linecap="round" stroke-linejoin="round"/>
<path d="M240.369 259.576C240.369 259.576 228.769 284.876 228.769 287.076C228.769 289.276 229.869 295.376 228.169 298.176" stroke="#000631" stroke-width="0.8" stroke-linecap="round" stroke-linejoin="round"/>
<path d="M227.069 288.776C227.069 288.776 227.669 288.776 229.269 282.076" stroke="#000631" stroke-width="0.8" stroke-linecap="round" stroke-linejoin="round"/>
<path d="M192.069 288.776C192.069 288.776 193.769 288.776 198.769 290.376C203.769 292.076 228.169 300.576 228.169 301.276C228.169 302.076 198.769 293.776 195.469 292.076C192.169 290.376 189.969 289.276 191.569 287.676C193.269 285.976 228.769 297.776 229.269 299.376C229.869 300.976 228.169 301.476 228.169 301.476" stroke="#000631" stroke-width="0.8" stroke-linecap="round" stroke-linejoin="round"/>
<path d="M200.669 288.776C200.469 288.776 202.369 286.776 203.369 287.476C204.369 288.176 206.569 289.276 206.569 289.276" stroke="#000631" stroke-width="0.8" stroke-linecap="round" stroke-linejoin="round"/>
<path d="M198.469 288.276C198.469 288.276 199.269 286.676 200.669 286.576C202.169 286.476 203.369 287.476 203.369 287.476" stroke="#000631" stroke-width="0.8" stroke-linecap="round" stroke-linejoin="round"/>
<path d="M195.969 287.276C195.969 287.276 197.669 285.576 199.669 286.576" stroke="#000631" stroke-width="0.8" stroke-linecap="round" stroke-linejoin="round"/>
<path d="M193.769 287.676C193.769 287.676 195.469 284.876 198.469 286.276" stroke="#000631" stroke-width="0.8" stroke-linecap="round" stroke-linejoin="round"/>
<path d="M192.269 286.776C192.269 286.776 192.169 284.276 193.269 284.276C194.369 284.276 198.269 285.576 199.669 285.776" stroke="#000631" stroke-width="0.8" stroke-linecap="round" stroke-linejoin="round"/>
<path d="M196.469 284.976C196.469 284.976 197.769 284.376 201.369 286.276C204.869 288.176 209.569 290.576 210.569 292.176" stroke="#000631" stroke-width="0.8" stroke-linecap="round" stroke-linejoin="round"/>
<path d="M196.469 284.276C196.469 284.276 193.769 282.076 211.569 284.276C211.569 284.276 220.169 286.676 219.469 295.176" stroke="#000631" stroke-width="0.8" stroke-linecap="round" stroke-linejoin="round"/>
<path d="M222.069 251.576C222.069 251.576 222.269 253.276 224.169 254.676" stroke="#000631" stroke-width="0.8" stroke-linecap="round" stroke-linejoin="round"/>
<path d="M242.669 262.076C242.669 262.076 241.969 262.676 239.269 262.076" stroke="#000631" stroke-width="0.8" stroke-linecap="round" stroke-linejoin="round"/>
<path d="M284.169 220.576C284.169 220.576 267.669 217.176 267.569 219.376C267.469 221.676 270.869 221.476 267.569 222.776C264.269 224.076 264.269 221.076 264.769 222.776C265.369 224.376 263.669 226.876 263.669 226.876C263.669 226.876 267.569 278.576 266.469 303.876" stroke="#000631" stroke-width="0.6" stroke-linecap="round" stroke-linejoin="round"/>
<path d="M293.569 85.676L293.069 87.076L294.069 86.776" stroke="#000631" stroke-width="0.8" stroke-linecap="round" stroke-linejoin="round"/>
<path d="M281.069 60.576C281.069 60.576 279.569 62.576 276.469 62.576C273.269 62.576 273.269 65.776 271.769 66.776C270.169 67.776 268.669 66.776 267.569 68.376C266.569 69.876 268.069 71.476 264.469 72.976C260.869 74.576 262.369 78.1761 262.369 78.1761" stroke="#000631" stroke-width="0.8" stroke-linecap="round" stroke-linejoin="round"/>
<path d="M289.369 53.0761C289.369 53.0761 289.369 51.1761 285.269 50.6761C281.069 50.1761 277.169 51.6761 275.469 52.7761C273.869 53.7761 273.969 54.7761 271.569 55.0761C269.169 55.3761 271.269 59.4761 268.069 59.9761C264.969 60.5761 261.869 62.5761 260.869 65.1761C259.769 67.7761 260.769 68.3761 257.969 69.3761C255.169 70.3761 254.069 75.0761 254.569 77.1761C255.169 79.2761 257.769 81.2761 257.169 83.8761C256.669 86.4761 250.469 90.1761 251.469 92.7761C252.569 95.3761 255.169 96.3761 253.069 97.9761C250.969 99.4761 249.369 103.176 250.969 105.276" stroke="#000631" stroke-width="0.8" stroke-linecap="round" stroke-linejoin="round"/>
<path d="M265.169 88.8761C265.169 88.8761 265.469 90.1761 263.469 91.1761C261.369 92.2761 261.769 93.3761 262.069 94.3761C262.369 95.3761 265.069 95.1761 263.469 97.3761C261.869 99.4761 262.669 102.076 263.669 102.976" stroke="#000631" stroke-width="0.8" stroke-linecap="round" stroke-linejoin="round"/>
<path d="M267.169 74.7761C267.169 74.7761 272.969 77.5761 274.169 77.6761" stroke="#000631" stroke-width="0.8" stroke-linecap="round" stroke-linejoin="round"/>
<path d="M277.969 78.676C277.969 78.676 285.769 80.776 288.369 80.276" stroke="#000631" stroke-width="0.8" stroke-linecap="round" stroke-linejoin="round"/>
<path d="M274.769 77.6761C274.769 77.6761 274.369 76.076 274.869 75.576" stroke="#000631" stroke-width="0.5" stroke-linecap="round" stroke-linejoin="round"/>
<path d="M277.469 78.176C277.469 78.176 277.969 76.376 278.169 76.176" stroke="#000631" stroke-width="0.5" stroke-linecap="round" stroke-linejoin="round"/>
<path d="M274.569 78.176C274.569 78.176 274.869 82.676 274.569 83.276" stroke="#000631" stroke-width="0.4" stroke-linecap="round" stroke-linejoin="round"/>
<path d="M271.569 87.4761C271.569 87.4761 270.869 87.6761 271.369 88.8761C271.369 88.8761 272.269 90.1761 272.269 90.6761C272.269 90.6761 273.269 91.1761 273.869 91.1761" stroke="#000631" stroke-width="0.4" stroke-linecap="round" stroke-linejoin="round"/>
<path d="M274.669 90.4761C274.669 90.4761 276.569 90.2761 276.769 90.4761C276.969 90.6761 275.869 90.6761 275.869 90.6761" stroke="#000631" stroke-width="0.4" stroke-linecap="round" stroke-linejoin="round"/>
<path d="M277.869 91.1761C277.869 91.1761 278.769 90.5761 277.869 89.2761" stroke="#000631" stroke-width="0.4" stroke-linecap="round" stroke-linejoin="round"/>
<path d="M277.869 83.7761C277.869 83.7761 277.469 81.8761 277.969 81.8761" stroke="#000631" stroke-width="0.4" stroke-linecap="round" stroke-linejoin="round"/>
<path d="M267.769 77.1761C267.769 77.1761 270.669 76.6761 273.269 79.7761C273.269 79.7761 271.669 80.8761 269.169 79.7761C268.069 79.2761 267.569 77.1761 267.569 77.1761" stroke="#000631" stroke-width="0.4" stroke-linecap="round" stroke-linejoin="round"/>
<path d="M280.069 81.8761C280.069 81.8761 282.769 79.5761 287.669 83.2761C287.669 83.2761 285.069 84.0761 282.169 83.3761C280.069 82.8761 280.069 81.8761 280.069 81.8761Z" stroke="#000631" stroke-width="0.4" stroke-linecap="round" stroke-linejoin="round"/>
<path d="M268.769 77.176C268.769 77.176 268.269 77.776 268.469 79.076" stroke="#000631" stroke-width="0.4" stroke-linecap="round" stroke-linejoin="round"/>
<path d="M269.169 79.776C269.169 79.776 271.269 79.176 270.169 77.676" stroke="#000631" stroke-width="0.4" stroke-linecap="round" stroke-linejoin="round"/>
<path d="M281.569 81.176C281.569 81.176 280.569 81.376 281.369 83.176" stroke="#000631" stroke-width="0.4" stroke-linecap="round" stroke-linejoin="round"/>
<path d="M282.169 83.376C282.169 83.376 283.869 83.076 282.769 81.176" stroke="#000631" stroke-width="0.4" stroke-linecap="round" stroke-linejoin="round"/>
<path d="M271.169 93.176C271.169 93.176 271.169 96.276 270.669 97.076" stroke="#000631" stroke-width="0.4" stroke-linecap="round" stroke-linejoin="round"/>
<path d="M270.969 99.8761C270.969 99.8761 269.569 98.7761 269.869 97.3761" stroke="#000631" stroke-width="0.4" stroke-linecap="round" stroke-linejoin="round"/>
<path d="M270.669 97.5761C270.669 97.5761 272.369 98.9761 274.169 99.2761C275.869 99.4761 278.969 96.6761 278.969 96.6761C278.969 96.6761 274.869 94.9761 273.869 94.3761C272.769 93.7761 270.069 93.1761 269.869 92.1761C269.869 92.1761 270.369 91.6761 271.569 92.1761C272.769 92.7761 273.269 93.3761 273.269 93.3761C273.269 93.3761 275.369 93.2761 276.969 94.2761C278.469 95.3761 279.569 96.6761 279.569 96.6761C279.569 96.6761 277.669 99.6761 275.769 100.876C273.869 102.076 271.769 100.576 271.769 100.576" stroke="#000631" stroke-width="0.4" stroke-linecap="round" stroke-linejoin="round"/>
<path d="M271.369 98.076C271.369 98.076 274.369 96.076 277.469 97.576" stroke="#000631" stroke-width="0.4" stroke-linecap="round" stroke-linejoin="round"/>
<path d="M273.669 130.676C273.069 130.676 272.769 129.576 273.469 128.976C274.169 128.476 274.769 130.676 273.669 130.676Z" stroke="#000631" stroke-width="0.6" stroke-linecap="round" stroke-linejoin="round"/>
<path d="M273.069 137.876C272.569 137.876 272.169 136.776 272.969 136.176C273.669 135.676 274.169 137.876 273.069 137.876Z" stroke="#000631" stroke-width="0.6" stroke-linecap="round" stroke-linejoin="round"/>
<path d="M274.369 123.676C273.769 123.676 273.469 122.576 274.169 121.976C274.869 121.476 275.469 123.676 274.369 123.676Z" stroke="#000631" stroke-width="0.6" stroke-linecap="round" stroke-linejoin="round"/>
<path d="M286.769 58.9761C286.769 58.9761 291.469 61.8761 293.069 65.3761C294.569 68.8761 291.469 70.6761 293.069 72.8761C294.569 75.0761 298.269 75.6761 297.269 79.5761C296.169 83.3761 294.669 84.0761 297.969 86.3761C301.369 88.5761 300.469 90.4761 299.069 93.1761C297.769 95.8761 302.469 100.176 299.769 102.976" stroke="#000631" stroke-width="0.4" stroke-linecap="round" stroke-linejoin="round"/>
<path d="M289.169 58.176C289.169 58.176 296.669 61.576 297.169 65.776C297.769 69.876 297.269 72.476 299.769 74.776C302.369 77.176 302.369 81.276 302.369 83.876C302.369 86.476 304.569 87.576 304.269 91.976C303.969 96.376 303.469 98.476 304.969 99.476C306.569 100.576 309.569 102.076 310.169 105.776" stroke="#000631" stroke-width="0.4" stroke-linecap="round" stroke-linejoin="round"/>
<path d="M291.969 55.8761C292.569 55.8761 298.969 56.5761 301.469 63.4761" stroke="#000631" stroke-width="0.4" stroke-linecap="round" stroke-linejoin="round"/>
<path d="M302.869 66.2761C302.869 66.2761 304.969 69.3761 303.669 72.4761C302.369 75.5761 305.669 77.0761 305.569 77.0761" stroke="#000631" stroke-width="0.4" stroke-linecap="round" stroke-linejoin="round"/>
<path d="M308.669 90.676C308.669 90.676 308.369 94.976 311.869 96.976C315.369 98.976 314.169 101.176 314.269 102.976C314.369 104.676 316.469 106.276 316.469 106.276" stroke="#000631" stroke-width="0.4" stroke-linecap="round" stroke-linejoin="round"/>
<path d="M306.769 78.176C306.769 78.176 310.669 81.976 309.669 86.376" stroke="#000631" stroke-width="0.4" stroke-linecap="round" stroke-linejoin="round"/>
<path d="M282.169 58.9761C282.169 58.9761 273.769 58.4761 272.469 60.5761C271.269 62.5761 269.169 62.5761 266.069 64.1761C262.869 65.7761 264.869 69.1761 261.769 70.8761C258.769 72.4761 256.269 75.9761 257.569 78.0761C258.769 80.2761 260.069 83.1761 256.769 84.8761" stroke="#000631" stroke-width="0.4" stroke-linecap="round" stroke-linejoin="round"/>
<path d="M284.769 56.3761C284.769 56.3761 286.269 53.6761 281.069 54.4761C275.869 55.3761 276.969 56.9761 274.869 56.9761C272.769 56.8761 271.469 56.3761 269.769 58.1761" stroke="#000631" stroke-width="0.4" stroke-linecap="round" stroke-linejoin="round"/>
<path d="M263.969 81.2761C263.969 81.2761 261.469 88.1761 259.069 88.8761C256.669 89.6761 255.869 91.3761 256.769 93.5761C257.769 95.8761 256.669 97.3761 255.169 98.9761C253.569 100.576 252.869 103.376 253.969 104.276" stroke="#000631" stroke-width="0.4" stroke-linecap="round" stroke-linejoin="round"/>
<path d="M263.469 91.176C263.469 91.176 259.769 93.276 260.569 95.376C261.369 97.376 262.169 97.576 260.469 98.576C258.769 99.476 256.969 101.776 258.169 103.476" stroke="#000631" stroke-width="0.4" stroke-linecap="round" stroke-linejoin="round"/>
<path d="M113.369 70.6761C113.369 70.6761 113.969 79.3761 113.869 81.8761C113.769 84.4761 118.669 98.2761 120.269 100.976C121.669 103.276 127.869 106.476 129.769 107.376C130.169 107.576 130.569 107.643 130.969 107.576L138.569 106.676C139.069 106.576 139.569 106.276 139.869 105.876C141.269 103.876 145.269 97.7761 146.469 95.5761C147.769 92.8761 146.669 77.9761 146.669 77.9761" stroke="#000631" stroke-linecap="round" stroke-linejoin="round"/>
<path d="M121.669 102.576C121.669 102.576 122.369 104.276 121.369 106.476" stroke="#000631" stroke-linecap="round" stroke-linejoin="round"/>
<path d="M147.669 105.276C145.369 103.476 145.169 97.7761 145.169 97.7761L156.369 101.076L163.269 105.876C163.269 105.876 155.469 105.576 154.569 107.176C153.569 108.776 152.069 117.776 152.069 117.776" stroke="#000631" stroke-linecap="round" stroke-linejoin="round"/>
<path d="M120.169 101.076C120.169 101.076 111.069 105.776 110.969 106.576C110.869 107.376 108.869 116.576 106.769 119.476C106.769 119.476 111.369 117.776 112.969 115.676" stroke="#000631" stroke-linecap="round" stroke-linejoin="round"/>
<path d="M110.969 106.576C110.969 106.576 113.869 116.776 115.969 125.376" stroke="#000631" stroke-linecap="round" stroke-linejoin="round"/>
<path d="M146.669 101.976C146.669 101.976 150.469 108.576 152.469 120.276C153.069 123.776 151.069 144.776 149.569 154.476C148.069 164.276 144.569 201.676 148.069 213.576" stroke="#000631" stroke-linecap="round" stroke-linejoin="round"/>
<path d="M113.369 82.5761C113.369 82.5761 111.469 80.0761 110.169 80.3761C108.969 80.6761 111.569 91.1761 112.069 92.3761C112.669 93.5761 115.969 95.7761 117.369 93.8761" stroke="#000631" stroke-linecap="round" stroke-linejoin="round"/>
<path d="M110.469 82.6761C110.469 82.6761 113.269 85.5761 114.869 89.7761C114.869 89.7761 112.669 88.4761 113.369 91.9761" stroke="#000631" stroke-linecap="round" stroke-linejoin="round"/>
<path d="M112.569 85.3761C112.569 85.3761 111.569 87.0761 112.069 88.4761" stroke="#000631" stroke-linecap="round" stroke-linejoin="round"/>
<path d="M146.569 76.8761C146.569 76.8761 146.669 74.1761 147.969 74.8761C149.369 75.5761 150.269 79.5761 150.469 81.2761C150.669 82.8761 150.069 87.9761 149.369 89.3761C148.769 90.6761 147.069 90.2761 147.069 90.2761" stroke="#000631" stroke-linecap="round" stroke-linejoin="round"/>
<path d="M148.669 76.8761C148.669 76.8761 147.369 82.8761 147.769 86.5761C147.769 86.5761 149.069 83.4761 149.669 85.0761" stroke="#000631" stroke-linecap="round" stroke-linejoin="round"/>
<path d="M148.169 79.2761C148.169 79.2761 149.969 80.4761 149.369 82.2761" stroke="#000631" stroke-linecap="round" stroke-linejoin="round"/>
<path d="M113.169 80.9761C113.169 80.9761 108.769 74.4761 108.669 72.5761C108.469 70.6761 108.569 67.4761 108.569 67.4761" stroke="#000631" stroke-linecap="round" stroke-linejoin="round"/>
<path d="M108.869 60.0762C108.869 60.0762 108.769 71.3762 113.769 76.4762" stroke="#000631" stroke-width="0.7" stroke-linecap="round" stroke-linejoin="round"/>
<path d="M109.169 58.6761C109.469 58.3761 110.269 54.9761 113.069 53.7761C115.869 52.5761 120.469 52.8761 120.469 52.8761" stroke="#000631" stroke-width="0.7" stroke-linecap="round" stroke-linejoin="round"/>
<path d="M119.869 54.8761C120.369 54.9761 123.469 49.9761 125.069 49.6761" stroke="#000631" stroke-width="0.7" stroke-linecap="round" stroke-linejoin="round"/>
<path d="M128.069 50.1761C128.069 50.1761 134.969 51.7761 136.669 54.9761" stroke="#000631" stroke-width="0.7" stroke-linecap="round" stroke-linejoin="round"/>
<path d="M130.569 49.4761C130.969 49.3761 144.469 51.4761 145.469 53.3761" stroke="#000631" stroke-width="0.7" stroke-linecap="round" stroke-linejoin="round"/>
<path d="M146.869 56.1761C146.869 56.1761 148.769 68.3761 147.769 71.6761" stroke="#000631" stroke-width="0.7" stroke-linecap="round" stroke-linejoin="round"/>
<path d="M149.269 63.4761C149.269 63.4761 149.269 71.7761 147.969 74.8761" stroke="#000631" stroke-width="0.7" stroke-linecap="round" stroke-linejoin="round"/>
<path d="M134.769 60.1761C134.769 60.1761 144.269 68.3761 145.469 68.5761C146.769 68.7761 147.969 69.4761 147.969 69.4761" stroke="#000631" stroke-width="0.7" stroke-linecap="round" stroke-linejoin="round"/>
<path d="M118.769 62.2761C118.769 62.2761 120.069 56.1761 123.769 55.7761" stroke="#000631" stroke-width="0.7" stroke-linecap="round" stroke-linejoin="round"/>
<path d="M125.869 55.4761C125.869 55.4761 135.069 65.6761 138.069 66.0761" stroke="#000631" stroke-width="0.7" stroke-linecap="round" stroke-linejoin="round"/>
<path d="M120.069 62.8762C120.069 62.8762 125.869 60.0762 130.369 60.0762" stroke="#000631" stroke-width="0.7" stroke-linecap="round" stroke-linejoin="round"/>
<path d="M122.869 61.6761C122.869 61.6761 123.769 57.3761 127.369 57.1761" stroke="#000631" stroke-width="0.7" stroke-linecap="round" stroke-linejoin="round"/>
<path d="M137.369 66.9761C137.369 66.9761 143.469 71.9761 146.769 70.5761" stroke="#000631" stroke-width="0.7" stroke-linecap="round" stroke-linejoin="round"/>
<path d="M142.069 69.9761C141.869 69.7761 147.169 74.9761 147.169 74.9761" stroke="#000631" stroke-width="0.7" stroke-linecap="round" stroke-linejoin="round"/>
<path d="M142.469 61.3761C142.469 61.3761 145.169 66.6761 146.169 67.2761" stroke="#000631" stroke-width="0.7" stroke-linecap="round" stroke-linejoin="round"/>
<path d="M118.869 63.6762C118.869 63.6762 115.869 62.5761 114.569 62.7761" stroke="#000631" stroke-width="0.7" stroke-linecap="round" stroke-linejoin="round"/>
<path d="M115.369 60.1761C115.369 60.1761 113.569 64.1761 113.369 66.2761C113.269 68.3761 112.869 69.7761 112.869 69.7761" stroke="#000631" stroke-width="0.7" stroke-linecap="round" stroke-linejoin="round"/>
<path d="M116.869 63.8761C116.869 63.8761 114.869 67.8761 113.569 69.6761" stroke="#000631" stroke-width="0.7" stroke-linecap="round" stroke-linejoin="round"/>
<path d="M113.169 57.0761C113.169 57.0761 113.969 55.7761 118.869 57.3761" stroke="#000631" stroke-width="0.7" stroke-linecap="round" stroke-linejoin="round"/>
<path d="M121.569 93.6761L122.169 97.5761" stroke="#000631" stroke-width="0.5" stroke-linecap="round" stroke-linejoin="round"/>
<path d="M122.869 99.6761C122.869 99.6761 123.269 103.276 124.069 104.676" stroke="#000631" stroke-width="0.5" stroke-linecap="round" stroke-linejoin="round"/>
<path d="M127.069 99.0762C127.069 99.4762 127.069 105.576 128.669 107.176" stroke="#000631" stroke-width="0.5" stroke-linecap="round" stroke-linejoin="round"/>
<path d="M130.069 99.9761C130.069 99.9761 130.069 106.676 130.969 107.576" stroke="#000631" stroke-width="0.5" stroke-linecap="round" stroke-linejoin="round"/>
<path d="M133.469 100.376C133.469 100.376 133.769 106.676 134.269 107.376" stroke="#000631" stroke-width="0.5" stroke-linecap="round" stroke-linejoin="round"/>
<path d="M135.969 100.676C135.969 100.676 136.769 106.676 136.769 107.076" stroke="#000631" stroke-width="0.5" stroke-linecap="round" stroke-linejoin="round"/>
<path d="M138.469 99.7761C138.469 99.7761 140.369 104.176 139.869 105.876" stroke="#000631" stroke-width="0.5" stroke-linecap="round" stroke-linejoin="round"/>
<path d="M139.669 98.4761C139.669 98.4761 140.669 101.176 140.769 101.976" stroke="#000631" stroke-width="0.5" stroke-linecap="round" stroke-linejoin="round"/>
<path d="M132.669 96.2761L133.069 97.6761" stroke="#000631" stroke-width="0.5" stroke-linecap="round" stroke-linejoin="round"/>
<path d="M133.969 96.0762C134.169 96.4762 134.569 98.1762 134.569 98.1762" stroke="#000631" stroke-width="0.5" stroke-linecap="round" stroke-linejoin="round"/>
<path d="M134.969 96.6761L135.069 97.3761" stroke="#000631" stroke-width="0.5" stroke-linecap="round" stroke-linejoin="round"/>
<path d="M140.869 94.9761C140.869 94.9761 141.269 96.0761 141.169 97.2761" stroke="#000631" stroke-width="0.5" stroke-linecap="round" stroke-linejoin="round"/>
<path d="M140.969 88.7761C140.969 88.7761 142.469 93.3761 142.469 95.0761" stroke="#000631" stroke-width="0.5" stroke-linecap="round" stroke-linejoin="round"/>
<path d="M143.069 90.3761C143.069 90.3761 143.369 93.2761 143.569 94.8761" stroke="#000631" stroke-width="0.5" stroke-linecap="round" stroke-linejoin="round"/>
<path d="M120.569 95.7761C120.569 95.7761 121.069 98.7761 121.469 100.176" stroke="#000631" stroke-width="0.5" stroke-linecap="round" stroke-linejoin="round"/>
<path d="M144.269 92.4761L144.569 94.9761" stroke="#000631" stroke-width="0.5" stroke-linecap="round" stroke-linejoin="round"/>
<path d="M122.169 91.8761C122.669 91.6761 127.269 89.9761 128.469 90.3761" stroke="#000631" stroke-width="0.5" stroke-linecap="round" stroke-linejoin="round"/>
<path d="M123.569 90.6761C123.569 90.6761 125.469 89.6761 126.469 89.9761" stroke="#000631" stroke-width="0.5" stroke-linecap="round" stroke-linejoin="round"/>
<path d="M137.269 88.4761C137.369 88.5761 139.769 87.5761 140.869 87.9761" stroke="#000631" stroke-width="0.5" stroke-linecap="round" stroke-linejoin="round"/>
<path d="M133.169 89.7762L135.569 89.3762C135.569 89.3762 137.069 89.1762 139.069 89.0762" stroke="#000631" stroke-width="0.5" stroke-linecap="round" stroke-linejoin="round"/>
<path d="M130.869 90.3761L129.769 90.4761" stroke="#000631" stroke-width="0.5" stroke-linecap="round" stroke-linejoin="round"/>
<path d="M129.569 88.4761C129.569 88.4761 128.869 87.9761 129.369 87.8761C129.769 87.8761 130.669 88.6761 130.669 88.6761" stroke="#000631" stroke-width="0.5" stroke-linecap="round" stroke-linejoin="round"/>
<path d="M132.769 88.2761C132.769 88.2761 133.669 86.9761 133.769 87.3761" stroke="#000631" stroke-width="0.5" stroke-linecap="round" stroke-linejoin="round"/>
<path d="M134.769 87.6762C134.769 87.6762 134.969 86.3762 134.069 86.0762" stroke="#000631" stroke-width="0.5" stroke-linecap="round" stroke-linejoin="round"/>
<path d="M128.169 88.8762C128.169 88.8762 127.369 87.3762 128.069 87.0762" stroke="#000631" stroke-width="0.5" stroke-linecap="round" stroke-linejoin="round"/>
<path d="M130.269 85.2761C130.269 85.2761 131.169 84.7761 131.769 85.0761" stroke="#000631" stroke-width="0.5" stroke-linecap="round" stroke-linejoin="round"/>
<path d="M125.969 78.3761C125.969 78.3761 124.669 77.3761 123.469 77.6761C121.369 78.0761 119.769 78.6761 119.069 79.9761" stroke="#000631" stroke-width="0.5" stroke-linecap="round" stroke-linejoin="round"/>
<path d="M119.469 79.9761C119.469 79.9761 121.669 80.7761 123.969 80.3761" stroke="#000631" stroke-width="0.5" stroke-linecap="round" stroke-linejoin="round"/>
<path d="M125.469 80.9762L126.169 80.0762" stroke="#000631" stroke-width="0.5" stroke-linecap="round" stroke-linejoin="round"/>
<path d="M134.269 78.5762L135.369 79.2762" stroke="#000631" stroke-width="0.5" stroke-linecap="round" stroke-linejoin="round"/>
<path d="M134.669 77.6761C134.669 77.6761 135.769 76.2761 137.469 76.0761C139.069 75.7761 140.369 76.8761 140.869 77.2761" stroke="#000631" stroke-width="0.5" stroke-linecap="round" stroke-linejoin="round"/>
<path d="M135.669 78.7761C135.669 78.7761 139.369 78.2761 140.569 77.8761" stroke="#000631" stroke-width="0.5" stroke-linecap="round" stroke-linejoin="round"/>
<path d="M125.569 75.2761C125.569 75.2761 127.769 77.8761 127.969 80.2761" stroke="#000631" stroke-width="0.5" stroke-linecap="round" stroke-linejoin="round"/>
<path d="M132.869 73.9761C132.869 73.9761 132.169 75.1761 132.369 76.0761" stroke="#000631" stroke-width="0.5" stroke-linecap="round" stroke-linejoin="round"/>
<path d="M128.469 95.3761C128.469 95.3761 132.169 92.9761 138.169 93.1761" stroke="#000631" stroke-width="0.5" stroke-linecap="round" stroke-linejoin="round"/>
<path d="M127.969 95.0761C127.969 95.0761 128.269 94.0761 129.969 92.8761C131.669 91.6761 132.969 91.2761 133.769 91.2761" stroke="#000631" stroke-width="0.5" stroke-linecap="round" stroke-linejoin="round"/>
<path d="M134.669 91.2761C134.669 91.2761 137.169 91.2761 138.169 92.4761" stroke="#000631" stroke-width="0.5" stroke-linecap="round" stroke-linejoin="round"/>
<path d="M128.769 93.8761L129.169 94.9761" stroke="#000631" stroke-width="0.5" stroke-linecap="round" stroke-linejoin="round"/>
<path d="M137.269 91.8761L137.469 92.9761" stroke="#000631" stroke-width="0.5" stroke-linecap="round" stroke-linejoin="round"/>
<path d="M117.369 74.1761C117.369 74.1761 119.569 71.8761 122.869 72.4761" stroke="#000631" stroke-width="0.8" stroke-linecap="round" stroke-linejoin="round"/>
<path d="M133.969 69.476C133.969 69.476 137.669 66.876 139.669 68.276" stroke="#000631" stroke-width="0.8" stroke-linecap="round" stroke-linejoin="round"/>
<path d="M121.469 78.3761C121.469 78.3761 122.669 78.7761 122.169 80.3761" stroke="#000631" stroke-width="0.5" stroke-linecap="round" stroke-linejoin="round"/>
<path d="M135.369 77.0762C135.369 77.0762 135.569 78.2762 136.369 78.6762" stroke="#000631" stroke-width="0.5" stroke-linecap="round" stroke-linejoin="round"/>
<path d="M137.469 76.0762C137.469 76.0762 138.269 77.5762 137.769 78.3762" stroke="#000631" stroke-width="0.5" stroke-linecap="round" stroke-linejoin="round"/>
<path d="M121.769 105.276C121.769 105.276 118.269 107.976 117.369 118.376C116.469 128.776 107.569 179.176 103.169 185.876" stroke="#000631" stroke-linecap="round" stroke-linejoin="round"/>
<path d="M80.3689 190.876L76.5688 201.976C76.5688 201.976 90.9689 199.776 98.1689 201.976" stroke="#000631" stroke-linecap="round" stroke-linejoin="round"/>
<path d="M104.769 163.676C104.769 163.676 103.669 178.676 101.469 184.176" stroke="#000631" stroke-linecap="round" stroke-linejoin="round"/>
<path d="M110.469 135.876C110.369 137.076 100.369 157.576 100.369 162.576C100.369 162.576 83.6688 160.376 77.5688 151.476C77.5688 151.476 90.9688 122.676 92.5688 120.176C94.2688 117.676 96.5689 113.776 98.1689 114.376C99.7689 114.876 107.069 111.876 110.369 110.976" stroke="#000631" stroke-linecap="round" stroke-linejoin="round"/>
<path d="M101.469 155.476C101.469 154.776 98.6691 136.276 101.469 134.176C104.269 132.076 102.569 140.376 102.569 140.376" stroke="#000631" stroke-linecap="round" stroke-linejoin="round"/>
<path d="M104.769 140.876C105.869 139.876 107.069 129.876 107.569 129.276" stroke="#000631" stroke-linecap="round" stroke-linejoin="round"/>
<path d="M158.469 102.576L169.069 100.376C169.069 100.376 175.769 109.376 176.869 122.676C176.869 122.676 161.369 130.976 159.169 135.976C159.169 135.976 146.269 194.776 146.969 205.276" stroke="#000631" stroke-linecap="round" stroke-linejoin="round"/>
<path d="M159.169 135.976C159.169 135.976 165.769 124.876 169.169 123.176" stroke="#000631" stroke-linecap="round" stroke-linejoin="round"/>
<path d="M163.269 125.976C163.269 125.976 168.869 121.276 171.269 117.776C173.569 114.376 170.269 115.476 170.269 115.476" stroke="#000631" stroke-linecap="round" stroke-linejoin="round"/>
<path d="M159.169 125.976C159.169 125.976 168.069 111.576 169.169 110.176" stroke="#000631" stroke-linecap="round" stroke-linejoin="round"/>
<path d="M171.269 102.576C171.269 102.576 182.269 98.5761 187.969 97.7761C193.669 97.0761 196.869 94.9761 199.369 96.3761C201.969 97.8761 202.769 98.7761 206.769 102.076C210.669 105.376 225.369 127.276 226.969 134.176C228.469 140.976 227.069 151.576 227.069 151.576L225.169 153.576" stroke="#000631" stroke-linecap="round" stroke-linejoin="round"/>
<path d="M224.769 145.076C224.769 145.076 224.369 155.376 224.269 156.376C224.169 157.276 216.669 159.976 216.669 159.976" stroke="#000631" stroke-linecap="round" stroke-linejoin="round"/>
<path d="M221.769 144.776C221.769 144.776 220.069 153.576 220.069 154.076C219.969 154.676 213.569 161.676 213.069 161.776C212.669 161.776 212.069 159.476 213.569 157.176" stroke="#000631" stroke-linecap="round" stroke-linejoin="round"/>
<path d="M221.269 150.176L221.169 153.676L220.069 154.076" stroke="#000631" stroke-linecap="round" stroke-linejoin="round"/>
<path d="M218.269 143.176C218.769 143.976 218.069 152.776 217.069 153.276C216.169 153.776 210.569 158.776 210.069 159.276C209.469 159.776 208.469 157.176 210.469 155.076C212.369 152.876 213.769 150.176 214.069 149.976C214.369 149.676 214.369 140.776 214.369 140.776" stroke="#000631" stroke-linecap="round" stroke-linejoin="round"/>
<path d="M176.869 121.476C176.869 121.476 186.769 115.276 189.869 113.976C192.969 112.676 194.669 110.176 195.169 110.576C195.569 110.976 198.969 118.976 203.669 121.476C208.369 124.076 213.569 127.876 213.569 127.876C213.569 127.876 211.869 128.276 210.769 131.676C209.569 134.976 209.169 139.176 209.269 142.376C209.269 145.576 206.469 150.576 207.669 151.276C208.869 151.976 212.269 147.776 212.469 145.576C212.669 143.376 214.669 137.576 214.669 137.576" stroke="#000631" stroke-linecap="round" stroke-linejoin="round"/>
<path d="M119.469 109.576C119.469 109.576 124.069 116.276 133.269 117.776C142.469 119.376 150.969 110.076 149.169 107.776" stroke="#000631" stroke-linecap="round" stroke-linejoin="round"/>
<path d="M118.669 111.176C118.669 111.176 122.669 117.376 131.169 119.576C141.669 122.376 150.069 113.776 150.369 111.176" stroke="#000631" stroke-width="0.6" stroke-linecap="round" stroke-linejoin="round"/>
<path d="M97.7689 162.576L92.5688 175.376C92.5688 175.376 94.1689 175.276 97.7689 179.776C101.469 184.176 119.269 201.376 120.869 201.976C122.569 202.476 139.169 208.076 140.269 209.176C141.369 210.276 143.069 216.976 143.069 218.076" stroke="#000631" stroke-linecap="round" stroke-linejoin="round"/>
<path d="M79.8689 154.076C79.8689 154.076 76.5689 168.176 75.3689 173.076C74.2689 178.076 73.1689 183.676 73.1689 184.776C73.1689 184.776 73.8689 186.976 75.7689 187.776C77.6689 188.676 89.1689 197.476 98.1689 201.976C107.069 206.376 118.669 209.676 119.269 210.876C119.769 211.976 119.369 213.076 121.769 214.176C124.169 215.276 131.969 219.176 132.569 219.676" stroke="#000631" stroke-linecap="round" stroke-linejoin="round"/>
<path d="M133.669 215.276C133.669 215.276 135.969 219.176 136.169 219.676" stroke="#000631" stroke-linecap="round" stroke-linejoin="round"/>
<path d="M136.169 213.876C136.169 213.876 138.669 218.576 138.669 219.176" stroke="#000631" stroke-linecap="round" stroke-linejoin="round"/>
<path d="M139.269 213.876L140.869 218.576" stroke="#000631" stroke-linecap="round" stroke-linejoin="round"/>
<path d="M128.069 220.776C128.069 220.776 128.869 219.676 130.669 219.676" stroke="#000631" stroke-linecap="round" stroke-linejoin="round"/>
<path d="M114.369 196.376C114.369 196.376 124.169 198.676 131.469 199.776C138.669 200.876 141.969 200.576 141.969 200.576C141.969 200.576 142.469 198.676 142.469 196.976C142.469 195.276 142.469 193.676 141.969 190.876C141.369 188.076 148.069 166.876 148.069 166.876" stroke="#000631" stroke-linecap="round" stroke-linejoin="round"/>
<path d="M106.669 175.476C106.669 175.476 112.569 189.876 117.269 192.576C121.969 195.276 117.269 188.776 117.269 188.776" stroke="#000631" stroke-linecap="round" stroke-linejoin="round"/>
<path d="M109.069 169.676C109.069 169.676 113.469 180.876 114.369 181.176" stroke="#000631" stroke-linecap="round" stroke-linejoin="round"/>
<path d="M149.469 146.676C149.469 146.676 133.769 169.476 131.269 171.576C128.669 173.676 128.069 170.376 128.069 170.376" stroke="#000631" stroke-linecap="round" stroke-linejoin="round"/>
<path d="M145.169 159.476C145.169 159.476 148.569 153.676 149.469 151.476" stroke="#000631" stroke-linecap="round" stroke-linejoin="round"/>
<path d="M78.869 201.976C78.869 201.976 73.169 220.276 73.169 229.676C73.169 239.076 72.669 247.576 73.169 252.276C73.769 256.876 85.9689 260.176 92.5689 258.776C99.2689 257.376 115.369 250.076 128.069 247.376C140.869 244.676 170.769 236.376 175.269 237.476C175.269 237.476 177.969 232.876 175.269 224.376C172.469 215.776 162.469 215.276 162.469 215.276C162.469 215.276 149.069 215.776 144.969 217.476C140.869 219.176 118.669 222.576 117.269 222.776C115.869 223.076 105.969 222.476 95.169 228.576" stroke="#000631" stroke-linecap="round" stroke-linejoin="round"/>
<path d="M88.769 232.976C88.769 232.976 92.569 224.676 97.569 224.176C102.569 223.576 105.469 224.176 105.469 224.176" stroke="#000631" stroke-linecap="round" stroke-linejoin="round"/>
<path d="M88.0688 228.576C88.0688 228.576 94.2689 220.376 98.1689 221.676" stroke="#000631" stroke-linecap="round" stroke-linejoin="round"/>
<path d="M111.769 212.776C111.769 212.776 107.469 220.876 107.569 223.876" stroke="#000631" stroke-linecap="round" stroke-linejoin="round"/>
<path d="M110.469 215.276C110.469 215.276 121.569 214.176 121.769 214.176" stroke="#000631" stroke-linecap="round" stroke-linejoin="round"/>
<path d="M114.369 214.676C114.369 214.676 118.969 220.176 119.369 222.476" stroke="#000631" stroke-linecap="round" stroke-linejoin="round"/>
<path d="M123.769 248.476C123.769 248.476 125.069 253.576 126.269 261.276C127.569 269.076 127.669 284.076 129.269 296.476C130.869 308.976 133.569 316.176 134.469 315.376" stroke="#000631" stroke-linecap="round" stroke-linejoin="round"/>
<path d="M125.669 257.476C125.869 258.476 125.869 273.476 125.369 277.376C124.269 284.576 120.869 325.076 120.869 325.076C126.969 335.576 145.269 332.276 145.269 332.276C145.269 332.276 145.269 330.076 148.069 312.876C150.869 295.676 160.769 256.876 160.269 249.076C159.669 241.376 157.469 240.176 157.469 240.176" stroke="#000631" stroke-linecap="round" stroke-linejoin="round"/>
<path d="M129.069 254.276C129.069 254.276 128.669 271.876 131.969 279.576" stroke="#000631" stroke-linecap="round" stroke-linejoin="round"/>
<path d="M133.369 246.176L134.469 248.476" stroke="#000631" stroke-linecap="round" stroke-linejoin="round"/>
<path d="M128.069 247.376C128.069 247.476 130.269 257.776 131.969 262.576" stroke="#000631" stroke-linecap="round" stroke-linejoin="round"/>
<path d="M123.269 346.076C122.769 349.676 122.569 352.576 123.069 353.376C124.769 355.576 132.769 354.976 133.169 353.376C133.669 351.676 133.269 348.876 133.169 347.776" stroke="#000631" stroke-linecap="round" stroke-linejoin="round"/>
<path d="M126.369 330.176C126.369 330.176 125.669 332.376 125.369 333.976" stroke="#000631" stroke-linecap="round" stroke-linejoin="round"/>
<path d="M124.569 348.376C124.569 348.376 126.869 346.876 127.069 346.976C130.669 347.876 131.169 350.876 131.169 350.876C128.669 347.776 124.569 350.876 124.569 350.876" stroke="#000631" stroke-width="0.6" stroke-linecap="round" stroke-linejoin="round"/>
<path d="M121.969 346.176L124.569 334.776C133.269 332.276 144.169 336.176 145.269 336.676C146.369 337.276 146.969 346.176 146.969 346.176C146.969 346.176 143.069 343.376 134.469 342.476C125.869 341.576 121.969 346.176 121.969 346.176ZM121.969 346.176C121.969 346.176 122.969 347.076 122.769 347.676" stroke="#000631" stroke-linecap="round" stroke-linejoin="round"/>
<path d="M143.869 332.776L144.769 336.176" stroke="#000631" stroke-linecap="round" stroke-linejoin="round"/>
<path d="M145.669 345.476C145.669 345.476 147.369 349.476 146.569 350.876C145.869 352.276 143.869 351.876 143.869 351.876" stroke="#000631" stroke-linecap="round" stroke-linejoin="round"/>
<path d="M142.369 346.176C142.369 346.176 143.669 352.276 143.069 352.776C142.469 353.376 140.469 352.776 140.469 352.776" stroke="#000631" stroke-linecap="round" stroke-linejoin="round"/>
<path d="M139.069 345.476C139.069 345.476 140.869 352.476 139.769 353.776C138.669 354.976 136.969 354.476 136.969 353.876" stroke="#000631" stroke-linecap="round" stroke-linejoin="round"/>
<path d="M136.569 346.176C136.569 346.176 137.569 354.076 136.169 354.776C134.769 355.576 132.969 355.076 133.069 354.476" stroke="#000631" stroke-linecap="round" stroke-linejoin="round"/>
<path d="M123.069 353.376C123.069 353.376 122.769 356.876 123.769 357.376C124.769 357.776 129.669 357.976 137.469 357.376C145.269 356.676 146.869 354.476 147.469 353.376C148.069 352.276 146.969 346.176 146.969 346.176" stroke="#000631" stroke-linecap="round" stroke-linejoin="round"/>
<path d="M138.169 354.476C138.169 354.476 143.969 354.476 146.569 350.876" stroke="#000631" stroke-linecap="round" stroke-linejoin="round"/>
<path d="M128.769 355.176L133.069 354.976" stroke="#000631" stroke-linecap="round" stroke-linejoin="round"/>
<path d="M171.269 218.676C171.269 218.676 175.269 218.576 178.569 217.476C181.869 216.376 183.969 214.676 186.469 215.276C189.069 215.776 196.269 225.776 199.069 227.976C201.869 230.276 206.869 244.676 206.869 247.976C206.869 251.276 204.069 254.676 202.969 252.376C201.869 250.176 199.869 247.776 198.669 247.276" stroke="#000631" stroke-linecap="round" stroke-linejoin="round"/>
<path d="M197.369 249.076C197.369 249.076 200.769 252.376 201.269 253.576C201.869 254.676 204.069 253.176 204.069 253.176" stroke="#000631" stroke-linecap="round" stroke-linejoin="round"/>
<path d="M196.669 251.476C196.869 251.276 198.569 255.176 201.269 254.076" stroke="#000631" stroke-linecap="round" stroke-linejoin="round"/>
<path d="M195.769 252.376C195.769 252.376 197.269 254.476 198.969 254.276" stroke="#000631" stroke-linecap="round" stroke-linejoin="round"/>
<path d="M193.569 251.876C193.569 251.876 195.369 253.776 196.669 253.976" stroke="#000631" stroke-linecap="round" stroke-linejoin="round"/>
<path d="M192.969 251.876C192.969 251.876 201.069 241.776 205.569 242.376" stroke="#000631" stroke-linecap="round" stroke-linejoin="round"/>
<path d="M193.569 251.876C193.569 251.876 192.969 252.376 191.269 250.776C189.669 249.076 187.169 243.376 186.169 242.376C185.169 241.376 194.169 230.376 202.169 233.076" stroke="#000631" stroke-linecap="round" stroke-linejoin="round"/>
<path d="M176.469 233.776C176.469 233.776 177.969 233.576 180.269 234.676C182.469 235.776 186.569 240.976 186.569 240.976" stroke="#000631" stroke-linecap="round" stroke-linejoin="round"/>
<path d="M203.169 251.476C203.169 251.476 204.669 249.676 204.469 248.476C204.469 248.476 202.969 246.376 201.669 246.176" stroke="#000631" stroke-width="0.6" stroke-linecap="round" stroke-linejoin="round"/>
<path d="M139.269 200.576L148.969 216.476" stroke="#000631" stroke-linecap="round" stroke-linejoin="round"/>
<path d="M186.469 215.276C186.469 215.276 188.369 213.076 190.969 213.576C193.569 214.176 202.369 223.676 206.869 234.976C211.269 246.276 208.469 251.276 205.769 252.976C202.969 254.676 196.869 254.076 196.869 254.076" stroke="#000631" stroke-linecap="round" stroke-linejoin="round"/>
<path d="M177.969 219.676C177.969 219.676 181.669 218.076 183.469 219.676" stroke="#000631" stroke-linecap="round" stroke-linejoin="round"/>
<path d="M78.3691 149.876C78.3691 149.876 85.4692 158.476 100.269 160.976" stroke="#000631" stroke-width="0.6" stroke-linecap="round" stroke-linejoin="round"/>
<path d="M167.269 101.076C167.269 101.076 174.069 108.476 175.869 123.176" stroke="#000631" stroke-width="0.6" stroke-linecap="round" stroke-linejoin="round"/>
<path d="M320.469 117.076C325.669 119.776 329.269 125.176 329.269 131.476V182.976" stroke="#000631" stroke-width="1.1" stroke-linecap="round" stroke-linejoin="round"/>
<path d="M217.169 115.276H241.069" stroke="#000631" stroke-width="1.1" stroke-linecap="round" stroke-linejoin="round"/>
<path d="M187.369 115.276H197.269" stroke="#000631" stroke-width="1.1" stroke-linecap="round" stroke-linejoin="round"/>
<path d="M55.469 171.476L55.269 131.476C55.269 122.476 62.569 115.276 71.469 115.276H94.969" stroke="#000631" stroke-width="1.1" stroke-linecap="round" stroke-linejoin="round"/>
<path d="M75.9689 212.776H67.1689" stroke="#000631" stroke-width="1.1" stroke-linecap="round" stroke-linejoin="round"/>
<path d="M229.069 212.776H148.469" stroke="#000631" stroke-width="1.1" stroke-linecap="round" stroke-linejoin="round"/>
<path d="M305.069 230.576H326.969" stroke="#000631" stroke-width="1.1" stroke-linecap="round" stroke-linejoin="round"/>
<path d="M205.569 230.576H225.869" stroke="#000631" stroke-width="1.1" stroke-linecap="round" stroke-linejoin="round"/>
<path d="M57.0688 230.576H72.6689" stroke="#000631" stroke-width="1.1" stroke-linecap="round" stroke-linejoin="round"/>
<path d="M120.869 318.476H56.6689" stroke="#000631" stroke-width="1.1" stroke-linecap="round" stroke-linejoin="round"/>
<path d="M255.969 318.476H147.669" stroke="#000631" stroke-width="1.1" stroke-linecap="round" stroke-linejoin="round"/>
<path d="M326.969 318.476H268.669" stroke="#000631" stroke-width="1.1" stroke-linecap="round" stroke-linejoin="round"/>
<path d="M56.4688 230.576L67.0687 212.776" stroke="#000631" stroke-width="1.1" stroke-linecap="round" stroke-linejoin="round"/>
<path d="M326.969 230.576L318.869 215.776" stroke="#000631" stroke-width="1.1" stroke-linecap="round" stroke-linejoin="round"/>
<path d="M358.769 206.376V317.076C358.769 319.676 356.669 321.776 354.069 321.776H331.869C329.269 321.776 327.169 319.676 327.169 317.076V206.376" stroke="#000631" stroke-width="1.1" stroke-linecap="round" stroke-linejoin="round"/>
<path d="M327.169 206.376L319.669 190.376C319.669 190.376 320.769 188.076 323.469 185.876C326.069 183.676 332.369 182.276 341.169 184.876C349.869 187.576 358.769 203.076 358.769 206.376" stroke="#000631" stroke-width="1.1" stroke-linecap="round" stroke-linejoin="round"/>
<path d="M354.569 206.376C354.569 206.376 348.469 200.276 331.769 205.276" stroke="#000631" stroke-width="1.1" stroke-linecap="round" stroke-linejoin="round"/>
<path d="M24.9688 206.376V317.076C24.9688 319.676 27.0688 321.776 29.6688 321.776H51.8688C54.4688 321.776 56.5687 319.676 56.5687 317.076V206.376L57.0687 204.476" stroke="#000631" stroke-width="1.1" stroke-linecap="round" stroke-linejoin="round"/>
<path d="M27.1688 200.876C24.9688 202.476 24.9688 205.476 24.9688 206.376" stroke="#000631" stroke-width="1.1" stroke-linecap="round" stroke-linejoin="round"/>
<path d="M64.069 189.776C64.069 189.776 62.369 188.076 59.769 185.876" stroke="#000631" stroke-width="1.1" stroke-linecap="round" stroke-linejoin="round"/>
<path d="M29.1689 206.376C29.1689 206.376 35.2689 200.276 51.9689 205.276" stroke="#000631" stroke-width="1.1" stroke-linecap="round" stroke-linejoin="round"/>
<path d="M319.669 190.376V196.776" stroke="#000631" stroke-width="1.1" stroke-linecap="round" stroke-linejoin="round"/>
<path d="M60.469 189.176L78.1691 191.076C80.3691 191.876 79.8691 194.376 79.8691 194.376L62.3691 205.276L13.8691 198.076L1.26909 159.476C0.369087 155.876 2.16911 155.376 2.16911 155.376C2.16911 155.376 45.4691 160.376 49.6691 161.176C53.8691 162.076 53.6691 164.976 53.6691 164.976L63.469 201.976C63.169 201.976 77.6691 193.076 77.6691 193.076" stroke="#000631" stroke-width="1.1" stroke-linecap="round" stroke-linejoin="round"/>
<path d="M50.9688 165.376L60.9688 202.476" stroke="#000631" stroke-width="1.1" stroke-linecap="round" stroke-linejoin="round"/>
<path d="M24.6689 180.476C22.7689 177.576 23.4688 170.676 28.0688 171.576C32.6688 172.576 37.4689 181.676 33.6689 184.076C29.9689 186.476 26.5689 183.676 24.3689 180.376" stroke="#000631" stroke-width="1.1" stroke-linecap="round" stroke-linejoin="round"/>
<path d="M97.0693 36.6761L108.569 43.6761" stroke="#000631" stroke-width="1.3" stroke-linecap="round" stroke-linejoin="round"/>
<path d="M115.969 24.7761L118.669 38.3761" stroke="#000631" stroke-width="1.3" stroke-linecap="round" stroke-linejoin="round"/>
<path d="M139.069 26.1761L134.069 37.7761" stroke="#000631" stroke-width="1.3" stroke-linecap="round" stroke-linejoin="round"/>
<path d="M242.569 62.4762C244.169 63.6762 247.369 65.3761 253.469 66.2761C253.469 66.2761 248.369 64.6762 246.069 59.5762C252.669 53.3762 256.769 44.5761 256.769 34.7761C256.769 15.8761 241.469 0.676147 222.669 0.676147C203.769 0.676147 188.569 15.8761 188.569 34.7761C188.569 53.5761 203.769 68.8761 222.669 68.8761C229.969 68.8761 236.769 66.5762 242.269 62.5762" stroke="#000631" stroke-width="1.3" stroke-linecap="round" stroke-linejoin="round"/>
<path fill-rule="evenodd" clip-rule="evenodd" d="M209.469 20.9761C209.136 21.1094 208.769 21.2761 208.369 21.4761V21.6761C209.036 21.9428 209.603 22.3761 210.069 22.9761C210.269 23.2428 210.369 23.5094 210.369 23.7761C210.369 24.0428 210.269 24.3094 210.069 24.5761C209.736 25.0428 209.303 25.4428 208.769 25.7761C208.169 26.1094 207.569 26.3761 206.969 26.5761C206.303 26.7761 205.636 26.9428 204.969 27.0761C204.369 27.1428 203.836 27.1761 203.369 27.1761H203.169C202.903 27.1761 202.636 27.1428 202.369 27.0761C202.103 27.0094 201.836 26.8761 201.569 26.6761H201.469L201.269 26.4761C201.203 26.4094 201.169 26.3095 201.169 26.1761C201.103 26.0428 201.069 25.8761 201.069 25.6761V25.5761C201.069 25.5761 201.069 25.5094 201.069 25.3761C201.069 25.3761 201.069 25.3428 201.069 25.2761C201.069 25.2094 201.069 25.0761 201.069 24.8761C201.136 24.7428 201.203 24.5094 201.269 24.1761C201.336 23.8428 201.436 23.4094 201.569 22.8761C201.703 22.3428 201.869 21.6761 202.069 20.8761C202.269 20.0761 202.536 19.1094 202.869 17.9761C202.869 17.9094 202.869 17.8428 202.869 17.7761C202.936 17.6428 203.036 17.4761 203.169 17.2761C203.436 16.7428 203.836 16.4761 204.369 16.4761C204.569 16.4761 204.736 16.4428 204.869 16.3761C205.069 16.3761 205.236 16.3761 205.369 16.3761C205.836 16.3761 206.269 16.4094 206.669 16.4761C207.069 16.4761 207.403 16.5094 207.669 16.5761C208.136 16.6428 208.569 16.7428 208.969 16.8761C209.369 17.0094 209.736 17.1761 210.069 17.3761C210.336 17.5761 210.569 17.8094 210.769 18.0761C210.969 18.3428 211.069 18.6428 211.069 18.9761C211.069 19.1094 211.069 19.2428 211.069 19.3761C211.003 19.5094 210.936 19.6428 210.869 19.7761C210.803 19.9761 210.669 20.1428 210.469 20.2761C210.203 20.5428 209.869 20.7761 209.469 20.9761ZM203.269 25.2761L203.169 25.8761C203.236 25.8761 203.303 25.8761 203.369 25.8761C203.503 25.8761 203.603 25.8761 203.669 25.8761C203.869 25.8761 204.036 25.8761 204.169 25.8761C204.303 25.8761 204.403 25.8428 204.469 25.7761C204.803 25.7094 205.169 25.5761 205.569 25.3761C205.969 25.2428 206.369 25.0761 206.769 24.8761C207.169 24.6761 207.503 24.4428 207.769 24.1761C208.103 23.9094 208.303 23.6761 208.369 23.4761V23.3761C208.303 23.3094 208.269 23.2428 208.269 23.1761C208.203 23.1094 208.136 23.0428 208.069 22.9761C207.603 22.7094 206.969 22.5761 206.169 22.5761C205.503 22.5761 204.769 22.6761 203.969 22.8761H203.869L203.269 25.2761ZM204.569 21.0761L204.669 21.1761C205.136 21.1761 205.636 21.1094 206.169 20.9761C206.703 20.7761 207.203 20.5761 207.669 20.3761C208.136 20.1761 208.503 19.9428 208.769 19.6761C209.036 19.4094 209.169 19.1428 209.169 18.8761C209.169 18.6761 209.036 18.4761 208.769 18.2761C208.503 18.1428 208.036 18.0428 207.369 17.9761C206.636 17.9761 206.003 18.0761 205.469 18.2761L205.269 18.3761C205.203 18.5094 205.136 18.6428 205.069 18.7761C205.003 18.9094 204.936 19.0428 204.869 19.1761C204.803 19.3761 204.736 19.6094 204.669 19.8761C204.603 20.1428 204.536 20.4761 204.469 20.8761V21.0761H204.569Z" fill="#000631"/>
<path d="M213.169 25.2761V25.3761V25.4761H213.269L213.369 25.5761C213.769 25.5094 214.069 25.4761 214.269 25.4761C214.536 25.4761 214.736 25.4761 214.869 25.4761C215.069 25.4761 215.236 25.4427 215.369 25.3761C215.569 25.3761 215.803 25.3761 216.069 25.3761C216.136 25.3761 216.169 25.3427 216.169 25.2761C216.303 25.2761 216.403 25.2761 216.469 25.2761C216.603 25.2761 216.736 25.2761 216.869 25.2761C217.003 25.2761 217.136 25.2428 217.269 25.1761C217.469 25.1761 217.703 25.1761 217.969 25.1761C217.969 25.1761 218.003 25.1761 218.069 25.1761C218.203 25.1761 218.336 25.2427 218.469 25.3761C218.603 25.4427 218.669 25.6094 218.669 25.8761C218.669 25.9427 218.669 26.0094 218.669 26.0761C218.603 26.1427 218.569 26.2094 218.569 26.2761C218.036 26.4094 217.536 26.5094 217.069 26.5761C216.603 26.6427 216.103 26.7094 215.569 26.7761C215.103 26.8427 214.603 26.9094 214.069 26.9761C213.603 26.9761 213.003 27.0428 212.269 27.1761C212.136 27.1761 212.003 27.1427 211.869 27.0761C211.736 27.0761 211.569 27.0094 211.369 26.8761C211.236 26.8094 211.136 26.7094 211.069 26.5761C211.069 26.4427 211.069 26.2761 211.069 26.0761C211.069 25.9427 211.069 25.8094 211.069 25.6761C211.069 25.5428 211.103 25.4094 211.169 25.2761C211.169 25.1427 211.169 25.0094 211.169 24.8761C211.236 24.7427 211.269 24.6094 211.269 24.4761C211.403 23.8761 211.536 23.3427 211.669 22.8761C211.736 22.4094 211.803 22.0094 211.869 21.6761C211.936 21.3427 212.003 21.0427 212.069 20.7761C212.136 20.5094 212.203 20.2427 212.269 19.9761C212.336 19.7761 212.403 19.5094 212.469 19.1761C212.536 18.9094 212.603 18.5761 212.669 18.1761C212.669 17.9761 212.703 17.8094 212.769 17.6761C212.769 17.5427 212.803 17.4094 212.869 17.2761C212.936 17.0094 213.069 16.8094 213.269 16.6761C213.403 16.6094 213.669 16.5427 214.069 16.4761C214.269 16.4761 214.436 16.4761 214.569 16.4761C214.969 16.4761 215.236 16.5427 215.369 16.6761C215.503 16.8094 215.569 17.0094 215.569 17.2761C215.569 17.4094 215.536 17.5761 215.469 17.7761C215.469 17.9761 215.436 18.1761 215.369 18.3761C215.303 18.5094 215.203 18.6761 215.069 18.8761C215.003 19.0761 214.936 19.2761 214.869 19.4761L213.269 24.8761V24.9761L213.169 25.1761V25.2761Z" fill="#000631"/>
<path fill-rule="evenodd" clip-rule="evenodd" d="M225.769 24.5761L225.669 24.4761L225.569 24.3761H225.369C225.103 24.3761 224.769 24.3761 224.369 24.3761C223.903 24.4427 223.436 24.4761 222.969 24.4761C222.703 24.4761 222.436 24.5094 222.169 24.5761C222.169 24.5761 222.136 24.5761 222.069 24.5761H221.969H221.869C221.736 24.6427 221.636 24.7427 221.569 24.8761C221.503 25.0094 221.436 25.1427 221.369 25.2761C221.303 25.4094 221.236 25.5761 221.169 25.7761C221.103 25.9094 221.003 26.1094 220.869 26.3761C220.736 26.7094 220.569 26.9094 220.369 26.9761C220.169 27.1094 219.936 27.1761 219.669 27.1761C219.536 27.1761 219.436 27.1427 219.369 27.0761C219.236 27.0761 219.136 27.0427 219.069 26.9761C218.936 26.9094 218.836 26.8094 218.769 26.6761C218.703 26.6094 218.669 26.5094 218.669 26.3761V26.1761C218.669 25.9761 218.703 25.8094 218.769 25.6761C218.836 25.5428 218.903 25.4094 218.969 25.2761C219.169 24.8094 219.403 24.3427 219.669 23.8761C219.936 23.3427 220.203 22.8094 220.469 22.2761C220.803 21.7427 221.136 21.2094 221.469 20.6761C221.736 20.2094 222.003 19.7427 222.269 19.2761C222.469 19.0761 222.636 18.8427 222.769 18.5761C222.903 18.3094 223.003 18.0761 223.069 17.8761C223.203 17.6094 223.336 17.3761 223.469 17.1761C223.536 16.9761 223.669 16.8094 223.869 16.6761C224.003 16.5427 224.236 16.4094 224.569 16.2761C224.836 16.1427 225.203 16.0427 225.669 15.9761H225.769C225.836 15.9761 225.903 16.0094 225.969 16.0761C226.036 16.0761 226.136 16.0761 226.269 16.0761C226.603 16.2094 227.203 19.3427 228.069 25.4761C228.069 25.6094 228.069 25.7427 228.069 25.8761C228.069 26.0094 228.036 26.1761 227.969 26.3761C227.903 26.5094 227.803 26.6094 227.669 26.6761C227.536 26.7428 227.436 26.7761 227.369 26.7761C227.303 26.8427 227.236 26.8761 227.169 26.8761C226.969 26.8094 226.803 26.7761 226.669 26.7761C226.536 26.7094 226.436 26.6427 226.369 26.5761C226.303 26.5094 226.236 26.4094 226.169 26.2761C226.103 26.1427 226.036 25.9761 225.969 25.7761L225.869 24.9761L225.769 24.5761ZM225.169 22.9761L225.269 22.8761L225.369 22.7761L224.969 19.4761H224.869L224.669 19.3761L224.569 19.4761L222.669 22.7761V22.9761H222.769H225.169ZM224.469 15.6761C224.336 15.6094 224.236 15.5761 224.169 15.5761C224.036 15.5094 223.969 15.4094 223.969 15.2761C223.969 15.1427 224.036 14.9427 224.169 14.6761C224.236 14.5427 224.336 14.3761 224.469 14.1761C224.603 14.0427 224.736 13.8761 224.869 13.6761C225.003 13.4761 225.136 13.3094 225.269 13.1761C225.403 13.0427 225.536 12.9094 225.669 12.7761C225.869 12.7094 226.036 12.6427 226.169 12.5761C226.303 12.5094 226.436 12.4761 226.569 12.4761C226.703 12.4761 226.836 12.5094 226.969 12.5761C227.036 12.7094 227.069 12.8761 227.069 13.0761C227.069 13.1427 227.069 13.2094 227.069 13.2761C227.069 13.2761 227.069 13.3094 227.069 13.3761C227.003 13.5761 226.936 13.7094 226.869 13.7761C226.803 13.9094 226.736 14.0427 226.669 14.1761C226.536 14.2427 226.436 14.3094 226.369 14.3761C226.236 14.5094 226.069 14.6427 225.869 14.7761C225.736 14.8427 225.603 14.9427 225.469 15.0761C225.336 15.1427 225.269 15.2094 225.269 15.2761C225.069 15.4761 224.936 15.6094 224.869 15.6761C224.736 15.7427 224.636 15.7761 224.569 15.7761L224.469 15.6761Z" fill="#000631"/>
<path fill-rule="evenodd" clip-rule="evenodd" d="M218.969 34.3761C218.569 34.5761 218.203 34.7428 217.869 34.8761L217.769 34.9761V35.0761L217.869 35.1761C218.536 35.3761 219.069 35.7761 219.469 36.3761C219.736 36.6428 219.869 36.9095 219.869 37.1761C219.869 37.4428 219.769 37.7095 219.569 37.9761C219.169 38.4428 218.703 38.8428 218.169 39.1761C217.636 39.5095 217.036 39.7761 216.369 39.9761C215.703 40.1761 215.069 40.3428 214.469 40.4761C213.803 40.6095 213.236 40.6761 212.769 40.6761H212.669C212.403 40.6761 212.136 40.6428 211.869 40.5761C211.603 40.5095 211.336 40.3428 211.069 40.0761H210.969L210.769 39.8761C210.703 39.8761 210.636 39.7761 210.569 39.5761C210.503 39.4428 210.469 39.2761 210.469 39.0761C210.469 39.0095 210.469 38.9428 210.469 38.8761C210.469 38.8095 210.469 38.7428 210.469 38.6761C210.469 38.6095 210.503 38.4761 210.569 38.2761C210.569 38.1428 210.603 37.9095 210.669 37.5761C210.803 37.2428 210.936 36.8095 211.069 36.2761C211.203 35.7428 211.369 35.1095 211.569 34.3761C211.769 33.5761 212.003 32.5761 212.269 31.3761C212.269 31.3761 212.303 31.3095 212.369 31.1761C212.436 31.0428 212.503 30.8761 212.569 30.6761C212.903 30.1428 213.336 29.8761 213.869 29.8761C214.003 29.8761 214.169 29.8761 214.369 29.8761C214.503 29.8095 214.669 29.7761 214.869 29.7761C215.269 29.7761 215.669 29.8095 216.069 29.8761C216.469 29.8761 216.836 29.9095 217.169 29.9761C217.569 30.0428 217.969 30.1428 218.369 30.2761C218.769 30.4095 219.136 30.5761 219.469 30.7761C219.803 30.9761 220.069 31.2095 220.269 31.4761C220.469 31.7428 220.569 32.0428 220.569 32.3761C220.569 32.5095 220.536 32.6428 220.469 32.7761C220.469 32.9095 220.436 33.0761 220.369 33.2761C220.236 33.4095 220.103 33.5428 219.969 33.6761C219.703 33.9428 219.369 34.1761 218.969 34.3761ZM212.669 38.7761V39.2761C212.736 39.3428 212.803 39.3761 212.869 39.3761C212.936 39.3761 213.003 39.3761 213.069 39.3761C213.269 39.3761 213.436 39.3428 213.569 39.2761C213.703 39.2761 213.836 39.2428 213.969 39.1761C214.236 39.1095 214.603 39.0095 215.069 38.8761C215.469 38.6761 215.869 38.4761 216.269 38.2761C216.669 38.0761 217.003 37.8428 217.269 37.5761C217.536 37.3761 217.703 37.1428 217.769 36.8761V36.7761C217.769 36.7095 217.736 36.6428 217.669 36.5761C217.669 36.5095 217.636 36.4761 217.569 36.4761C217.103 36.1428 216.436 35.9761 215.569 35.9761C214.969 35.9761 214.269 36.0761 213.469 36.2761L213.369 36.3761L212.669 38.7761ZM213.969 34.5761C214.503 34.5761 215.036 34.5095 215.569 34.3761C216.103 34.2428 216.569 34.0428 216.969 33.7761C217.436 33.5761 217.803 33.3428 218.069 33.0761C218.403 32.8095 218.569 32.5428 218.569 32.2761C218.569 32.0761 218.403 31.9095 218.069 31.7761C217.803 31.5761 217.336 31.4428 216.669 31.3761C216.003 31.3761 215.403 31.4761 214.869 31.6761L214.669 31.7761C214.603 31.9095 214.536 32.0428 214.469 32.1761C214.403 32.3095 214.336 32.4761 214.269 32.6761C214.203 32.8095 214.136 33.0095 214.069 33.2761C214.003 33.5428 213.903 33.9095 213.769 34.3761L213.869 34.4761L213.969 34.5761Z" fill="#000631"/>
<path d="M222.569 38.7761L222.669 38.8761V38.9761H222.869H222.769C223.169 38.9761 223.503 38.9761 223.769 38.9761C223.969 38.9094 224.169 38.8761 224.369 38.8761C224.503 38.8761 224.669 38.8761 224.869 38.8761C225.003 38.8094 225.236 38.7761 225.569 38.7761C225.703 38.7094 225.836 38.6761 225.969 38.6761C226.036 38.6761 226.136 38.6761 226.269 38.6761C226.403 38.6761 226.569 38.6761 226.769 38.6761C226.903 38.6761 227.103 38.6428 227.369 38.5761C227.436 38.5761 227.469 38.5761 227.469 38.5761C227.669 38.5761 227.836 38.6428 227.969 38.7761C228.036 38.9094 228.069 39.0761 228.069 39.2761C228.069 39.3428 228.069 39.4094 228.069 39.4761C228.069 39.5428 228.036 39.6095 227.969 39.6761C227.503 39.8095 227.003 39.9094 226.469 39.9761C226.003 40.0428 225.536 40.1095 225.069 40.1761C224.603 40.2428 224.103 40.3094 223.569 40.3761C223.036 40.4428 222.436 40.5094 221.769 40.5761C221.569 40.5761 221.403 40.5761 221.269 40.5761C221.136 40.5094 220.969 40.4428 220.769 40.3761V40.2761C220.636 40.2094 220.569 40.1094 220.569 39.9761C220.503 39.8428 220.469 39.6761 220.469 39.4761C220.469 39.4094 220.469 39.3095 220.469 39.1761C220.536 39.0428 220.569 38.8761 220.569 38.6761C220.569 38.5428 220.603 38.4094 220.669 38.2761C220.669 38.1428 220.703 38.0094 220.769 37.8761C220.903 37.2761 221.003 36.7428 221.069 36.2761C221.136 35.8761 221.236 35.4761 221.369 35.0761C221.436 34.7428 221.469 34.4428 221.469 34.1761C221.536 33.9761 221.603 33.7428 221.669 33.4761C221.736 33.2094 221.803 32.9094 221.869 32.5761C221.936 32.3094 222.036 31.9761 222.169 31.5761C222.169 31.4428 222.169 31.2761 222.169 31.0761C222.169 30.9428 222.236 30.8428 222.369 30.7761V30.6761C222.369 30.4095 222.469 30.2094 222.669 30.0761C222.869 30.0094 223.136 29.9761 223.469 29.9761C223.669 29.9094 223.869 29.8761 224.069 29.8761C224.403 29.8761 224.636 29.9428 224.769 30.0761C224.903 30.2761 224.969 30.4761 224.969 30.6761C224.969 30.8095 224.969 30.9761 224.969 31.1761C224.903 31.3761 224.836 31.5761 224.769 31.7761C224.703 31.9761 224.636 32.1428 224.569 32.2761C224.503 32.4761 224.436 32.6761 224.369 32.8761L224.269 32.9761L222.669 38.2761V38.3761L222.569 38.6761C222.569 38.6761 222.569 38.7094 222.569 38.7761Z" fill="#000631"/>
<path fill-rule="evenodd" clip-rule="evenodd" d="M235.169 37.9761V37.8761H235.069L234.969 37.7761H234.769C234.569 37.7761 234.236 37.8095 233.769 37.8761C233.303 37.8761 232.869 37.8761 232.469 37.8761C232.136 37.9428 231.869 37.9761 231.669 37.9761C231.603 37.9761 231.569 37.9761 231.569 37.9761H231.369H231.269C231.203 38.1095 231.136 38.2095 231.069 38.2761C231.003 38.4095 230.936 38.5428 230.869 38.6761C230.803 38.8095 230.736 38.9761 230.669 39.1761C230.536 39.3095 230.436 39.5095 230.369 39.7761C230.236 40.1095 230.036 40.3095 229.769 40.3761C229.569 40.5095 229.336 40.5761 229.069 40.5761C229.003 40.5761 228.903 40.5428 228.769 40.4761C228.636 40.4761 228.536 40.4428 228.469 40.3761C228.403 40.3095 228.336 40.2095 228.269 40.0761C228.203 40.0095 228.169 39.9095 228.169 39.7761V39.5761C228.169 39.4428 228.169 39.3095 228.169 39.1761C228.236 38.9761 228.303 38.8095 228.369 38.6761C228.569 38.2761 228.803 37.8095 229.069 37.2761C229.336 36.7428 229.636 36.2095 229.969 35.6761C230.236 35.1428 230.536 34.6428 230.869 34.1761C231.203 33.6428 231.503 33.1761 231.769 32.7761C231.903 32.5095 232.036 32.2428 232.169 31.9761C232.303 31.7761 232.436 31.5428 232.569 31.2761C232.636 31.0761 232.736 30.8761 232.869 30.6761C233.003 30.4761 233.136 30.2761 233.269 30.0761C233.469 29.9428 233.703 29.8095 233.969 29.6761C234.236 29.6095 234.636 29.5095 235.169 29.3761V29.4761C235.303 29.4761 235.403 29.4761 235.469 29.4761C235.536 29.4761 235.603 29.4761 235.669 29.4761C236.003 29.6095 236.603 32.7428 237.469 38.8761C237.536 39.0095 237.569 39.1428 237.569 39.2761C237.569 39.4761 237.536 39.6428 237.469 39.7761C237.403 39.9095 237.269 40.0428 237.069 40.1761C236.936 40.1761 236.836 40.2095 236.769 40.2761C236.703 40.2761 236.636 40.2761 236.569 40.2761C236.369 40.2095 236.236 40.1761 236.169 40.1761C236.036 40.1761 235.903 40.1095 235.769 39.9761C235.703 39.9095 235.636 39.8095 235.569 39.6761C235.503 39.6095 235.469 39.4428 235.469 39.1761L235.269 38.4761L235.169 37.9761ZM234.669 36.2761L234.769 36.1761V36.0761L234.369 32.8761L234.269 32.7761L234.169 32.6761L234.069 32.7761L232.069 36.0761V36.1761L232.169 36.2761H234.569H234.669ZM234.069 29.0761C233.869 29.0095 233.736 28.9428 233.669 28.8761C233.603 28.8095 233.569 28.7095 233.569 28.5761C233.569 28.4428 233.603 28.2761 233.669 28.0761C233.803 27.8761 233.903 27.7095 233.969 27.5761C234.103 27.3761 234.236 27.1761 234.369 26.9761C234.503 26.7761 234.636 26.6095 234.769 26.4761C234.969 26.3428 235.136 26.2428 235.269 26.1761C235.403 26.0428 235.536 25.9428 235.669 25.8761C235.869 25.8095 236.003 25.7761 236.069 25.7761C236.269 25.7761 236.403 25.8428 236.469 25.9761C236.536 26.0428 236.569 26.1761 236.569 26.3761C236.569 26.4428 236.569 26.5095 236.569 26.5761C236.569 26.6428 236.569 26.6761 236.569 26.6761C236.503 26.8761 236.436 27.0428 236.369 27.1761C236.303 27.2428 236.236 27.3428 236.169 27.4761C236.103 27.5428 236.003 27.6428 235.869 27.7761C235.736 27.8428 235.603 27.9428 235.469 28.0761C235.269 28.2095 235.136 28.3095 235.069 28.3761C234.936 28.4428 234.836 28.5428 234.769 28.6761C234.569 28.8761 234.436 28.9761 234.369 28.9761C234.303 29.0428 234.236 29.0761 234.169 29.0761H234.069Z" fill="#000631"/>
<path fill-rule="evenodd" clip-rule="evenodd" d="M224.969 49.2761C224.569 49.4761 224.169 49.6428 223.769 49.7761V49.8761V49.9761V50.0761C224.503 50.2761 225.069 50.7095 225.469 51.3761C225.669 51.5761 225.769 51.8095 225.769 52.0761C225.769 52.3428 225.669 52.6095 225.469 52.8761C225.136 53.3428 224.703 53.7428 224.169 54.0761C223.569 54.4095 222.969 54.6761 222.369 54.8761C221.703 55.1428 221.069 55.3095 220.469 55.3761C219.803 55.5095 219.236 55.5761 218.769 55.5761H218.569C218.303 55.5761 218.036 55.5428 217.769 55.4761C217.503 55.4095 217.236 55.2761 216.969 55.0761L216.869 54.9761L216.769 54.7761C216.636 54.7761 216.569 54.6761 216.569 54.4761C216.503 54.3428 216.469 54.1761 216.469 53.9761C216.469 53.9095 216.469 53.8428 216.469 53.7761C216.469 53.7095 216.469 53.6428 216.469 53.5761C216.469 53.5095 216.469 53.3761 216.469 53.1761C216.536 53.0428 216.603 52.8095 216.669 52.4761C216.736 52.2095 216.836 51.8095 216.969 51.2761C217.103 50.7428 217.269 50.0761 217.469 49.2761C217.669 48.4761 217.936 47.5095 218.269 46.3761C218.269 46.3095 218.303 46.2095 218.369 46.0761C218.369 45.9428 218.436 45.7761 218.569 45.5761C218.903 45.1095 219.303 44.8428 219.769 44.7761H219.869C220.003 44.7761 220.136 44.7761 220.269 44.7761C220.469 44.7761 220.636 44.7761 220.769 44.7761C221.236 44.7761 221.669 44.7761 222.069 44.7761C222.469 44.8428 222.836 44.8761 223.169 44.8761C223.569 44.9428 223.969 45.0428 224.369 45.1761C224.769 45.3095 225.136 45.4761 225.469 45.6761C225.803 45.8761 226.036 46.1095 226.169 46.3761C226.369 46.6428 226.469 46.9428 226.469 47.2761C226.469 47.4095 226.469 47.5428 226.469 47.6761C226.469 47.8095 226.403 47.9761 226.269 48.1761C226.203 48.3095 226.103 48.4428 225.969 48.5761C225.636 48.8428 225.303 49.0761 224.969 49.2761ZM218.669 53.6761L218.569 54.2761C218.636 54.2761 218.736 54.2761 218.869 54.2761C218.936 54.2761 219.003 54.2761 219.069 54.2761C219.269 54.2761 219.436 54.2428 219.569 54.1761C219.703 54.1761 219.803 54.1428 219.869 54.0761C220.203 54.0095 220.569 53.9095 220.969 53.7761C221.436 53.5761 221.836 53.3761 222.169 53.1761C222.569 52.9761 222.936 52.7428 223.269 52.4761C223.536 52.2761 223.703 52.0428 223.769 51.7761V51.6761C223.769 51.6095 223.736 51.5428 223.669 51.4761C223.603 51.4095 223.536 51.3761 223.469 51.3761C223.003 51.0428 222.369 50.8761 221.569 50.8761C220.903 50.8761 220.203 50.9761 219.469 51.1761L219.269 51.2761L218.669 53.6761ZM219.969 49.4761H220.069C220.603 49.4761 221.136 49.4095 221.669 49.2761C222.136 49.1428 222.603 48.9428 223.069 48.6761C223.536 48.4761 223.903 48.2428 224.169 47.9761C224.436 47.7095 224.569 47.4428 224.569 47.1761C224.569 46.9761 224.436 46.8095 224.169 46.6761C223.903 46.4761 223.436 46.3428 222.769 46.2761C222.036 46.2761 221.403 46.3761 220.869 46.5761L220.769 46.7761C220.636 46.9095 220.536 47.0095 220.469 47.0761C220.403 47.2095 220.336 47.3761 220.269 47.5761C220.269 47.7095 220.236 47.9095 220.169 48.1761C220.103 48.4428 220.003 48.8095 219.869 49.2761V49.3761L219.969 49.4761Z" fill="#000631"/>
<path d="M228.569 53.6761V53.7761L228.669 53.8761H228.769C229.169 53.8761 229.469 53.8761 229.669 53.8761C229.936 53.8761 230.136 53.8428 230.269 53.7761C230.469 53.7761 230.669 53.7761 230.869 53.7761C231.003 53.7095 231.203 53.6761 231.469 53.6761C231.536 53.6761 231.569 53.6761 231.569 53.6761C231.703 53.6761 231.803 53.6428 231.869 53.5761C232.003 53.5761 232.136 53.5761 232.269 53.5761C232.403 53.5761 232.536 53.5761 232.669 53.5761C232.869 53.5761 233.103 53.5428 233.369 53.4761C233.369 53.4761 233.403 53.4761 233.469 53.4761C233.603 53.4761 233.736 53.5428 233.869 53.6761C234.003 53.8095 234.069 53.9761 234.069 54.1761C234.069 54.2428 234.069 54.3095 234.069 54.3761C234.003 54.4428 233.969 54.5095 233.969 54.5761C233.436 54.7095 232.936 54.8095 232.469 54.8761C232.003 55.0095 231.503 55.0761 230.969 55.0761C230.503 55.1428 230.003 55.2095 229.469 55.2761C229.003 55.3428 228.403 55.4095 227.669 55.4761C227.536 55.4761 227.403 55.4761 227.269 55.4761C227.136 55.4095 226.969 55.3428 226.769 55.2761V55.1761C226.636 55.1095 226.569 55.0095 226.569 54.8761C226.503 54.7428 226.469 54.5761 226.469 54.3761C226.469 54.3095 226.469 54.2095 226.469 54.0761C226.469 53.9428 226.503 53.8095 226.569 53.6761C226.569 53.4761 226.603 53.3095 226.669 53.1761C226.669 53.0428 226.669 52.9428 226.669 52.8761C226.803 52.2095 226.936 51.6428 227.069 51.1761C227.136 50.7761 227.203 50.4095 227.269 50.0761C227.336 49.7428 227.403 49.4428 227.469 49.1761C227.536 48.9095 227.603 48.6428 227.669 48.3761C227.736 48.1095 227.803 47.8095 227.869 47.4761C227.936 47.2095 228.003 46.8761 228.069 46.4761C228.069 46.3428 228.103 46.2095 228.169 46.0761C228.169 45.8761 228.203 45.7428 228.269 45.6761V45.5761C228.336 45.3095 228.469 45.1428 228.669 45.0761C228.803 44.9428 229.069 44.8761 229.469 44.8761C229.669 44.8095 229.836 44.7761 229.969 44.7761C230.369 44.7761 230.636 44.8428 230.769 44.9761C230.903 45.1761 230.969 45.3761 230.969 45.5761C230.969 45.7761 230.936 45.9428 230.869 46.0761C230.869 46.2761 230.836 46.4761 230.769 46.6761C230.703 46.8761 230.636 47.0761 230.569 47.2761C230.503 47.4095 230.436 47.5761 230.369 47.7761L230.269 47.8761L228.669 53.2761L228.569 53.5761C228.569 53.6428 228.569 53.6761 228.569 53.6761Z" fill="#000631"/>
<path fill-rule="evenodd" clip-rule="evenodd" d="M241.169 52.8761L241.069 52.7761H240.969H240.769C240.503 52.7761 240.169 52.7761 239.769 52.7761C239.303 52.7761 238.869 52.7761 238.469 52.7761C238.136 52.8428 237.836 52.8761 237.569 52.8761C237.569 52.8761 237.536 52.8761 237.469 52.8761H237.369H237.269C237.203 53.0095 237.103 53.1095 236.969 53.1761C236.903 53.3095 236.836 53.4428 236.769 53.5761C236.703 53.7095 236.636 53.8761 236.569 54.0761C236.503 54.2761 236.403 54.4761 236.269 54.6761C236.136 55.0095 235.969 55.2428 235.769 55.3761C235.569 55.4428 235.336 55.4761 235.069 55.4761C234.936 55.4761 234.836 55.4761 234.769 55.4761C234.636 55.4095 234.536 55.3428 234.469 55.2761C234.336 55.2095 234.236 55.1428 234.169 55.0761C234.169 54.9428 234.169 54.8095 234.169 54.6761V54.4761C234.169 54.3428 234.169 54.2095 234.169 54.0761C234.236 53.9428 234.303 53.7761 234.369 53.5761C234.569 53.1761 234.803 52.7095 235.069 52.1761C235.336 51.6428 235.636 51.1095 235.969 50.5761C236.236 50.0428 236.536 49.5428 236.869 49.0761C237.203 48.5428 237.469 48.0761 237.669 47.6761C237.869 47.4095 238.036 47.1428 238.169 46.8761C238.303 46.6761 238.403 46.4761 238.469 46.2761C238.603 46.0095 238.736 45.7761 238.869 45.5761C238.936 45.3761 239.069 45.1761 239.269 44.9761C239.403 44.8428 239.636 44.7095 239.969 44.5761C240.236 44.5095 240.603 44.4428 241.069 44.3761H241.169C241.236 44.3761 241.303 44.3761 241.369 44.3761C241.436 44.3761 241.536 44.4095 241.669 44.4761C242.003 44.6095 242.603 47.7095 243.469 53.7761C243.536 53.9095 243.569 54.0428 243.569 54.1761C243.569 54.3761 243.503 54.5428 243.369 54.6761C243.303 54.8761 243.203 55.0095 243.069 55.0761C242.936 55.0761 242.836 55.1095 242.769 55.1761C242.703 55.1761 242.636 55.1761 242.569 55.1761C242.369 55.1761 242.203 55.1428 242.069 55.0761C241.936 55.0761 241.836 55.0428 241.769 54.9761C241.703 54.9095 241.636 54.8095 241.569 54.6761C241.503 54.5428 241.436 54.3428 241.369 54.0761L241.269 53.3761L241.169 52.8761ZM240.569 51.1761L240.769 51.0761L240.369 47.7761L240.269 47.6761H240.169H239.969L238.069 50.9761V51.0761L238.169 51.1761V51.2761H240.569L240.669 51.1761H240.569ZM239.869 43.9761C239.736 43.9095 239.636 43.8428 239.569 43.7761C239.436 43.7095 239.369 43.6095 239.369 43.4761C239.369 43.4095 239.436 43.2428 239.569 42.9761C239.636 42.7761 239.736 42.6095 239.869 42.4761C240.003 42.2761 240.136 42.0761 240.269 41.8761C240.403 41.7428 240.536 41.5761 240.669 41.3761C240.803 41.2428 240.936 41.1428 241.069 41.0761C241.269 40.9428 241.436 40.8428 241.569 40.7761C241.703 40.7095 241.836 40.6761 241.969 40.6761C242.103 40.6761 242.236 40.7428 242.369 40.8761C242.436 40.9428 242.469 41.0761 242.469 41.2761C242.469 41.4095 242.469 41.4761 242.469 41.4761C242.469 41.5428 242.469 41.6095 242.469 41.6761C242.403 41.8095 242.336 41.9428 242.269 42.0761C242.203 42.2095 242.136 42.3095 242.069 42.3761C241.936 42.4428 241.836 42.5428 241.769 42.6761C241.636 42.7428 241.503 42.8428 241.369 42.9761C241.169 43.1095 241.003 43.2095 240.869 43.2761C240.736 43.4095 240.669 43.5095 240.669 43.5761C240.469 43.7761 240.336 43.8761 240.269 43.8761C240.203 43.9428 240.136 43.9761 240.069 43.9761H239.969H239.869Z" fill="#000631"/>
<path d="M145.169 97.7761C145.169 97.7761 156.369 101.176 156.369 101.076L158.469 102.576L169.069 100.376C169.069 100.376 172.269 107.076 174.569 111.476C176.869 115.976 176.869 122.676 176.869 122.676C176.869 122.676 165.669 128.676 163.269 130.976C160.769 133.176 159.169 135.976 159.169 135.976L155.969 150.976C155.969 150.976 151.569 174.376 150.369 179.576C149.169 184.776 146.969 203.376 146.969 203.376L147.869 214.676L139.269 200.576H141.969C141.969 200.576 142.469 197.476 142.469 195.276C142.469 193.076 141.969 189.776 141.969 189.776L148.169 166.876C148.169 166.876 151.369 142.576 151.669 136.776C151.969 130.976 152.569 120.176 152.569 120.176C152.569 120.176 148.769 106.876 148.669 105.876C148.569 104.876 147.469 104.576 146.969 103.876C146.369 103.276 145.069 100.576 145.169 97.7761Z" fill="#6BD4CD"/>
<path d="M121.769 105.276C121.769 105.276 119.669 108.176 119.169 109.576C118.669 110.976 117.369 119.676 116.369 126.176C115.369 132.676 111.169 155.476 111.169 155.476L106.169 177.576L103.169 185.876C103.169 185.876 96.3694 177.576 95.2694 176.976C94.2694 176.476 92.5693 175.376 92.5693 175.376L97.7694 162.576C97.7694 162.576 87.6693 159.576 84.5693 157.476C81.4693 155.376 77.5693 151.776 77.5693 151.776L85.6694 134.176C85.6694 134.176 92.3694 120.476 93.8694 118.276C95.3694 115.976 96.7694 114.376 97.4694 114.376C98.1694 114.376 100.369 114.376 100.969 114.376C101.469 114.376 109.969 111.176 109.969 111.176C109.969 111.176 110.469 105.776 111.269 105.876C111.969 105.976 120.169 101.076 120.169 101.076C120.169 101.076 121.869 102.376 121.969 102.776C121.969 103.276 121.769 105.276 121.769 105.276Z" fill="#6BD4CD"/>
<path d="M80.3694 190.876L76.5693 201.976C76.5693 201.976 88.8693 199.776 97.0693 201.476L80.3694 190.876Z" fill="#6BD4CD"/>
<path fill-rule="evenodd" clip-rule="evenodd" d="M327.469 172.476C324.969 179.176 324.469 181.676 321.369 181.776C318.269 181.976 309.069 176.376 309.069 176.376C309.069 176.376 309.869 179.576 310.169 180.476C310.569 181.476 311.469 183.376 311.469 183.376C311.469 183.376 307.169 186.976 301.069 187.776C294.969 188.676 289.369 189.476 289.369 189.476C289.369 189.476 267.669 183.076 265.769 182.476C263.969 181.976 258.169 181.076 258.169 181.076C258.169 181.076 250.069 179.876 246.469 181.176C242.869 182.576 240.069 184.476 239.569 184.876C238.969 185.276 238.169 186.176 238.169 186.176C238.169 186.176 235.169 184.776 235.169 184.176C235.169 183.676 234.569 181.976 234.069 180.576C233.469 179.176 232.269 177.176 232.869 175.976C233.469 174.776 232.269 169.276 233.669 158.376C235.169 147.576 237.869 132.876 237.869 132.876C237.869 132.876 238.769 125.276 239.169 123.676C239.569 122.076 242.369 113.376 243.469 111.376C244.569 109.376 246.169 106.876 247.569 106.476C248.969 105.976 259.569 103.876 259.569 103.876C259.569 103.876 260.069 109.876 266.169 115.976C272.269 122.076 277.369 120.476 282.569 118.476C287.769 116.576 297.269 110.976 297.269 110.976C297.269 110.976 303.869 104.876 308.069 105.776C308.069 105.776 313.869 106.676 316.669 110.576C319.369 114.376 322.969 126.476 322.969 126.476C322.969 126.476 327.769 140.676 328.269 151.076C328.869 161.476 329.969 165.676 327.469 172.476ZM260.369 160.576C260.369 160.576 259.369 155.076 256.669 151.676C256.669 151.676 254.869 155.776 254.969 156.976C255.069 158.176 255.069 158.876 255.669 159.376C256.169 159.776 256.369 161.376 256.369 161.376L260.369 160.576ZM288.369 166.476L282.069 161.976C282.069 161.976 283.869 156.176 285.069 154.376C286.169 152.576 286.169 152.576 286.169 152.576L275.769 151.676L268.169 159.176L275.869 157.876C275.869 157.876 274.569 162.076 275.069 163.676C275.669 165.376 277.369 169.576 277.369 169.576L288.369 166.476ZM313.969 159.376C313.969 159.376 309.469 155.376 306.369 154.676C303.369 154.076 296.469 155.176 296.469 155.176C296.469 155.176 309.469 159.776 310.869 160.476C312.269 161.176 311.669 160.376 312.369 160.076C313.169 159.676 313.969 159.376 313.969 159.376Z" fill="#E58D00"/>
<path d="M288.369 189.376C288.369 189.376 292.069 188.876 292.469 189.076C292.769 189.176 304.569 187.276 309.169 184.876C309.169 184.876 317.169 200.276 318.869 203.076C320.569 205.876 318.869 216.676 318.869 216.676C318.869 216.676 317.769 223.876 310.869 226.776C303.869 229.676 303.869 231.376 299.669 231.876C295.569 232.476 279.169 232.976 279.169 232.976L269.269 233.276C269.269 233.276 271.969 254.476 271.869 259.576C271.769 264.576 271.469 278.876 271.469 278.876L269.769 303.176C269.769 303.176 261.369 304.376 258.769 303.876C256.169 303.476 253.169 302.076 253.169 302.076L247.869 272.776L244.469 257.076L243.269 260.276L242.669 262.076H239.269L240.369 259.576C240.369 259.576 235.169 255.776 231.269 254.076C227.369 252.376 224.769 251.976 224.769 251.976L224.169 254.676C224.169 254.676 221.269 252.976 222.069 251.076L227.969 219.676L231.069 201.676C231.069 201.676 234.569 189.776 238.169 186.176C241.769 182.576 248.469 180.776 248.469 180.776C248.469 180.776 255.669 180.676 261.169 181.576C266.769 182.576 288.369 189.376 288.369 189.376Z" fill="#6BD4CD"/>
<path d="M269.869 97.3762C269.869 97.3762 269.569 97.2762 270.369 97.1762C271.169 97.1762 270.969 97.6762 271.369 97.9762C271.769 98.2762 273.169 98.9762 273.869 99.1762C274.469 99.3762 275.969 98.7762 275.969 98.7762L278.569 96.9762L278.969 96.6762L273.269 94.1762L270.369 92.8762C270.369 92.8762 269.269 91.7762 270.469 91.9762C271.769 92.1762 273.269 93.0762 273.269 93.3762C273.269 93.3762 274.469 93.0762 276.469 93.9762C278.369 94.9762 279.569 96.6762 279.569 96.6762C279.569 96.6762 277.369 99.6762 276.769 100.076C276.169 100.476 275.669 101.176 273.969 101.376C272.269 101.576 269.969 99.2762 270.069 98.7762C270.069 98.2762 269.669 98.0762 269.869 97.3762Z" fill="#000631"/>
<path d="M288.569 96.4761C288.569 96.4761 283.669 100.876 279.969 103.176C276.169 105.476 273.569 105.276 272.969 105.376C272.269 105.476 269.469 103.776 269.469 103.776C269.469 103.776 270.569 105.976 272.269 107.176C273.969 108.276 278.969 105.976 281.169 104.376C283.369 102.676 285.569 100.476 288.569 96.4761Z" fill="#000631"/>
<path d="M281.369 81.2761C281.369 81.2761 281.069 81.8761 281.069 82.2761C281.169 82.7761 281.569 83.2761 281.569 83.2761H282.669C282.669 83.2761 282.969 82.9761 283.169 82.2761C283.369 81.5761 282.769 81.1761 282.769 81.1761L281.369 81.2761Z" fill="#000631"/>
<path d="M268.769 77.1761C268.769 77.1761 268.369 78.1761 268.369 78.4761C268.369 78.8761 269.069 79.6761 269.069 79.6761C269.069 79.6761 269.369 79.8761 269.969 79.3761C270.569 78.8761 270.269 77.9761 270.469 78.0761C270.569 78.2761 270.069 77.4761 270.069 77.4761L268.769 77.1761Z" fill="#000631"/>
<path d="M119.469 79.4761C119.469 79.4761 120.569 78.1761 121.269 78.2761C121.969 78.2761 122.369 79.5761 122.169 79.4761C121.969 79.3761 122.169 80.4761 122.169 80.4761C122.169 80.4761 119.669 80.1761 119.469 79.4761Z" fill="#000631"/>
<path d="M135.369 77.0762L136.369 78.6762L137.969 78.4762C137.969 78.4762 137.569 76.0762 137.269 76.0762C137.269 76.0762 135.369 76.2762 135.369 77.0762Z" fill="#000631"/>
<path d="M128.669 93.6761L129.169 94.9761L128.169 95.3761C128.169 95.3761 127.569 95.1761 128.669 93.6761Z" fill="#000631"/>
<path d="M137.269 91.8761L137.469 93.1761H138.469C138.469 93.1761 138.669 92.1761 137.269 91.8761Z" fill="#000631"/>
<path d="M121.969 102.776C121.969 102.676 128.969 106.976 130.469 107.576C131.969 108.276 140.069 106.676 139.969 106.076C139.769 105.476 145.169 98.1761 145.169 98.1761C145.169 98.1761 144.069 105.676 141.569 107.776C139.169 109.876 133.069 111.576 130.269 110.476C127.569 109.376 121.969 102.776 121.969 102.776Z" fill="#000631"/>
<path d="M172.069 102.276C171.869 102.176 173.569 103.476 176.869 109.176C180.269 114.876 179.469 120.176 179.469 120.176L176.869 121.476C176.869 121.476 175.469 113.076 172.869 108.176C170.269 103.276 170.569 102.776 170.569 102.776L172.069 102.276Z" fill="#000631"/>
<path d="M79.769 154.276C79.769 154.276 87.069 160.876 97.569 162.076L97.069 164.476C97.069 164.476 85.269 163.276 79.269 156.576L79.769 154.276Z" fill="#000631"/>
<path fill-rule="evenodd" clip-rule="evenodd" d="M176.469 232.676C176.369 233.576 175.269 237.476 175.269 237.476C175.269 237.476 170.769 237.176 169.369 237.876C168.069 238.576 157.969 240.176 157.969 240.176C157.969 240.176 160.869 245.976 160.269 250.276C159.669 254.676 156.369 272.876 156.369 272.876L147.369 317.276C146.969 320.076 145.269 332.276 145.269 332.276C145.269 332.276 134.769 333.776 130.069 331.676C125.369 329.476 122.569 327.876 120.869 325.076L124.169 288.276L125.869 271.876L125.969 259.076L123.769 248.476C123.769 248.476 106.269 254.576 102.169 255.776C98.1694 256.876 91.9693 259.576 87.5693 259.076C83.1693 258.476 74.8694 257.576 73.1694 252.276V229.676C73.1694 229.676 74.1693 220.476 75.0693 216.476C75.9693 212.476 78.8694 201.976 78.8694 201.976C78.8694 201.976 85.9694 200.276 89.2694 200.576C91.6694 200.776 97.0693 201.476 97.0693 201.476C97.0693 201.476 116.969 210.276 117.869 209.976C118.669 209.676 119.569 211.976 119.669 212.176C119.769 212.476 123.469 214.676 123.469 214.676L131.369 218.976C131.369 218.976 129.269 219.676 128.669 220.276C128.069 220.776 133.669 220.276 133.669 220.276C133.669 220.276 140.269 218.076 143.069 218.076C143.069 218.076 141.369 209.676 140.269 209.176C139.169 208.576 120.869 201.976 120.869 201.976L114.369 196.376L128.069 199.176L139.269 200.576L148.969 216.476C148.969 216.476 162.069 214.676 163.669 215.276C165.269 215.776 170.469 216.976 173.369 220.776C176.369 224.676 176.569 231.676 176.469 232.676ZM119.369 222.476C119.369 222.476 117.169 218.076 116.569 217.476C115.869 216.976 114.769 214.676 114.769 214.676H110.769C110.769 214.676 108.669 221.376 108.169 221.876C107.569 222.476 107.569 223.876 107.569 223.876L119.369 222.476Z" fill="#344A6B"/>
</svg>
