<svg width="331" height="379" viewBox="0 0 331 379" fill="none" xmlns="http://www.w3.org/2000/svg">
<path d="M17.7694 81.7761C17.7694 81.7761 21.8694 83.2761 24.8694 85.9761C27.8694 88.7761 31.6694 95.3761 31.6694 95.3761L30.7694 96.2761C30.7694 96.2761 27.6694 90.4761 23.8694 87.9761C20.1694 85.3761 16.5693 83.2761 16.5693 83.2761L17.7694 81.7761Z" fill="#000631"/>
<path d="M96.269 96.9761C96.269 96.9761 100.169 95.3761 102.869 93.6761C105.569 92.0761 109.069 88.4761 109.069 88.4761L109.469 90.0761C109.469 90.0761 106.069 93.6761 103.269 95.3761C100.569 97.0761 96.369 98.0761 96.369 98.0761L96.269 96.9761Z" fill="#000631"/>
<path d="M63.8691 42.4761C63.8691 42.4761 68.0692 48.4761 69.6692 48.8761C71.1692 49.3761 76.1692 49.2761 77.2692 49.3761C78.3692 49.3761 80.2692 47.8761 80.2692 47.8761L79.6692 50.3761C79.6692 50.3761 77.4692 51.8761 73.1692 51.4761C68.9692 50.9761 67.2692 49.3761 66.1692 48.2761C65.0692 47.1761 63.8691 42.4761 63.8691 42.4761Z" fill="#000631"/>
<path d="M70.0693 26.0761C70.0693 26.0761 69.1693 25.6761 69.3693 25.0761C69.4693 24.3761 69.7694 23.8761 69.7694 23.8761C69.7694 23.8761 70.6693 24.0761 71.4693 24.4761C72.2693 24.9761 70.8693 26.4761 70.0693 26.0761Z" fill="#000631"/>
<path d="M82.769 26.8762C82.769 26.8762 82.369 26.7762 82.269 26.0762C82.269 25.4762 83.369 25.0762 83.369 25.0762L84.369 25.5762C84.369 25.5762 83.869 27.0762 82.769 26.8762Z" fill="#000631"/>
<path d="M53.9691 131.376C53.9691 131.376 57.4692 132.076 58.1692 132.076C58.9692 131.976 67.6691 132.976 71.3691 132.476C75.0691 131.976 84.7691 129.976 84.7691 129.976L90.3691 128.176C90.3691 128.176 90.3691 137.276 90.7691 137.376C91.0691 137.576 92.5691 175.876 92.5691 175.876L94.3691 201.976L95.8691 222.276L98.7691 260.076L100.169 275.276C100.169 275.276 96.9691 281.076 89.3691 279.976C89.3691 279.976 79.5691 279.676 79.7691 278.476V251.776L79.5691 237.376L77.5691 222.276L72.0691 190.676L70.2691 180.076L65.0691 204.576C65.0691 204.576 60.7691 227.676 60.4691 234.476C60.0691 241.276 58.3691 257.776 58.3691 257.776L56.2691 289.276C56.2691 289.276 45.6691 291.576 39.5691 288.576C39.5691 288.576 35.6691 284.676 35.9691 282.976C35.9691 282.976 39.4691 254.376 39.5691 250.076C39.5691 245.676 40.1692 239.076 40.1692 239.076L40.9691 215.876L41.1692 189.976L42.8691 153.476L43.2691 145.376C43.2691 145.376 47.3692 148.676 51.1692 149.476C55.0692 150.276 54.9691 147.276 54.9691 147.276C54.9691 147.276 57.0691 146.076 57.4691 145.376C57.8691 144.776 60.5691 138.076 60.5691 138.076L61.7691 136.376C61.7691 136.376 55.6691 131.876 53.9691 131.376Z" fill="#344A6B"/>
<path d="M70.3691 60.2762L71.6692 63.1762L72.5691 76.7762L71.9691 94.7762L70.8691 112.976C70.8691 112.976 76.5692 122.176 78.2692 123.176L80.1692 118.776L82.9691 111.776L81.4691 93.7762C81.4691 93.7762 80.6691 84.1762 80.0691 81.1762C79.4691 78.1762 77.2692 65.9762 77.2692 65.9762L76.0691 63.1762C76.0691 63.1762 76.6692 61.2762 76.6692 60.2762C76.6692 59.3762 73.5691 55.7762 73.5691 55.7762C73.5691 55.7762 72.4691 55.2762 72.0691 56.7762C71.6691 58.2762 70.3691 60.2762 70.3691 60.2762Z" fill="#6BD4CD"/>
<path d="M78.3691 39.0761L78.7692 37.8761L79.1692 39.1761L78.3691 39.0761Z" fill="#000631"/>
<path d="M251.369 202.476C251.369 202.476 249.869 203.976 249.769 205.376C249.669 206.876 249.569 222.276 249.569 222.276C249.569 222.276 256.369 225.276 261.069 226.876C265.769 228.476 271.469 227.876 271.469 227.876C271.469 227.876 271.069 215.976 271.769 213.376C272.469 210.776 272.469 205.976 274.369 203.376C276.369 200.776 277.769 200.976 277.769 200.976L281.569 202.476C281.569 202.476 279.669 202.576 278.269 204.976C276.869 207.376 276.369 213.376 276.369 213.376V227.876C276.369 227.876 276.869 227.676 277.169 231.976H279.069L279.569 242.176C279.569 242.176 277.369 242.476 274.569 243.776C271.869 245.076 263.269 252.576 263.269 252.576C263.269 252.576 259.169 250.576 257.769 250.376C256.369 250.076 253.769 252.576 253.769 252.576H252.169C252.169 252.576 250.869 249.576 249.469 249.876C248.069 250.076 246.669 250.376 246.669 250.376C246.669 250.376 243.769 241.476 243.169 240.576C242.469 239.576 241.569 238.376 241.569 238.376L242.669 234.376L249.069 235.076L246.169 227.576C246.169 227.576 244.769 224.376 244.469 220.276C244.469 220.276 245.269 208.576 245.769 205.776C246.369 202.976 248.069 199.276 248.869 199.476L251.369 202.476Z" fill="#6BD4CD"/>
<path d="M232.969 231.976C232.969 231.976 232.469 240.876 232.269 241.376C231.969 241.776 234.569 245.876 234.569 245.876L240.269 251.976L242.969 254.876L244.469 257.476C244.469 257.476 243.969 258.676 243.269 260.276C242.469 261.776 242.569 263.876 242.569 263.876L240.269 263.276L236.169 261.176V260.276C236.169 260.276 222.369 252.676 220.769 250.876C219.169 248.976 218.869 244.276 218.769 241.076C218.669 237.876 221.969 234.776 223.069 234.376C224.169 233.976 228.869 231.676 232.969 231.976Z" fill="#6BD4CD"/>
<path d="M254.469 261.976C254.469 261.976 254.269 266.476 254.769 268.876C255.269 271.176 256.369 272.876 256.369 272.876C256.369 272.876 261.669 274.476 263.769 274.476C265.769 274.476 266.869 275.076 267.169 274.476C267.469 273.976 268.069 273.876 268.069 273.876L284.569 273.776C284.569 273.776 290.269 274.476 292.469 270.676C294.669 266.776 293.769 261.376 293.069 259.076C292.469 256.776 290.069 252.276 289.069 250.676C287.969 248.976 286.869 248.776 286.869 248.776C286.869 248.776 280.869 252.876 278.569 253.976C276.369 255.076 266.869 258.376 266.869 258.376C266.869 258.376 264.169 261.676 263.269 262.776C262.469 263.976 261.869 263.576 261.069 263.776C260.269 263.976 257.769 263.676 257.769 263.676C257.769 263.676 258.569 263.576 256.969 262.976C255.303 262.309 254.469 261.976 254.469 261.976Z" fill="#6BD4CD"/>
<path d="M272.169 178.876L274.969 181.576C274.969 181.576 278.069 175.276 278.069 173.276C278.069 173.276 272.469 176.376 272.169 178.876Z" fill="#E58D00"/>
<path d="M258.969 206.076L259.569 207.376C259.569 207.376 263.069 207.576 265.569 206.076C267.969 204.676 268.769 202.876 268.769 202.876C268.769 202.876 262.669 205.876 258.969 206.076Z" fill="#000631"/>
<path d="M262.469 188.376C262.369 188.476 262.469 189.076 263.269 189.976C264.169 190.776 265.469 188.976 265.369 189.076C265.269 189.076 265.569 188.276 265.569 188.276C265.569 188.276 262.969 187.676 262.469 188.376Z" fill="#000631"/>
<path d="M251.669 183.476C251.669 183.476 251.369 183.976 251.669 184.576C251.969 185.176 251.969 185.776 252.769 185.776C253.569 185.776 253.769 185.076 253.969 184.576C254.169 184.076 253.869 183.876 253.869 183.876C253.869 183.876 252.469 182.776 251.669 183.476Z" fill="#000631"/>
<path d="M150.269 234.176C150.269 234.176 155.469 227.776 160.469 225.376C165.469 222.976 168.569 221.776 170.569 222.376C170.569 222.376 171.669 223.776 172.169 223.676C172.669 223.476 173.469 223.176 173.469 223.176C173.469 223.176 178.069 227.176 179.769 231.976C181.469 236.776 181.669 240.176 181.069 242.376C181.069 242.376 176.269 251.176 164.769 247.876C153.269 244.576 151.169 237.576 150.269 234.176Z" fill="#E58D00"/>
<path d="M163.369 214.176C163.369 214.176 167.069 214.876 171.269 220.276C171.269 220.276 172.669 219.576 173.469 220.976C173.469 220.976 176.069 218.976 177.669 218.776C177.669 218.776 174.469 215.976 170.269 214.776C165.969 213.476 163.369 214.176 163.369 214.176Z" fill="#E58D00"/>
<path d="M187.369 192.676L186.269 208.276L229.169 217.176L229.669 200.976L187.369 192.676Z" fill="#FFF8E6"/>
<path d="M269.769 302.276C269.769 302.276 274.869 313.176 275.069 322.676C275.269 332.176 274.669 335.476 273.869 338.576C273.869 338.576 282.769 336.476 287.869 328.176C292.969 319.976 290.669 315.876 290.669 315.876C290.669 315.876 286.369 303.376 272.969 300.576C272.969 300.576 273.169 302.276 269.769 302.276Z" fill="#FFF8E6"/>
<path d="M267.769 299.176C267.769 299.176 266.569 297.476 261.469 296.776C261.469 296.776 265.069 295.576 268.169 295.276C271.369 295.076 273.569 295.676 273.569 295.676C273.569 295.676 270.369 297.276 269.769 298.876L267.769 299.176Z" fill="#6BD4CD"/>
<path d="M269.769 298.876C269.769 298.876 272.369 299.176 272.669 299.876C272.969 300.576 272.969 300.576 272.969 300.576C272.969 300.576 275.269 300.376 279.969 303.276C284.669 306.076 289.469 311.076 290.969 316.576C290.969 316.576 291.769 308.176 283.769 300.776C275.769 293.376 272.169 296.476 272.169 296.476C272.169 296.476 270.369 297.776 269.769 298.876Z" fill="#E58D00"/>
<path d="M219.469 334.976C219.469 338.976 216.269 342.176 212.269 342.176C208.269 342.176 205.069 338.976 205.069 334.976C205.069 330.976 208.269 327.776 212.269 327.776C216.269 327.776 219.469 330.976 219.469 334.976Z" fill="#344A6B"/>
<path d="M242.469 343.876C242.469 346.876 240.069 349.376 236.969 349.376C233.869 349.376 231.369 346.876 231.369 343.876C231.369 340.776 233.869 338.276 236.969 338.276C240.069 338.276 242.469 340.776 242.469 343.876Z" fill="#E58D00"/>
<path d="M138.069 306.276C138.069 306.276 138.569 305.376 138.469 304.876C138.269 304.476 137.869 303.276 138.569 302.476C139.369 301.676 139.469 299.076 139.469 299.076L140.169 296.976C140.169 296.976 136.869 298.376 135.369 300.276C133.769 302.276 133.669 304.276 134.069 306.276C134.369 308.376 140.169 314.276 140.169 314.276C140.169 314.276 141.569 318.876 143.569 319.976C145.469 321.076 152.669 322.176 159.869 322.176C167.069 322.176 174.269 321.976 178.969 319.276C183.769 316.676 188.469 309.576 188.469 309.576C188.469 309.576 192.869 303.776 193.569 300.776C194.269 297.776 194.569 295.776 193.369 294.576C192.069 293.376 191.769 293.076 191.769 293.076C191.769 293.076 190.969 293.876 189.869 293.876C188.669 293.876 182.969 293.876 182.269 293.576C181.469 293.376 178.969 293.076 178.969 293.076C178.969 293.076 179.869 298.976 180.669 299.776C180.669 299.776 177.169 307.576 163.169 309.976C150.469 312.176 142.169 307.776 142.169 307.776L138.069 306.276Z" fill="#344A6B"/>
<path d="M138.069 306.276C138.069 306.276 145.469 310.876 157.969 310.676C170.369 310.576 178.769 303.376 180.669 299.776C180.669 299.776 179.269 293.776 178.669 290.276C178.169 286.676 178.469 282.676 178.469 282.676C178.469 282.676 182.569 282.876 183.969 282.276C185.369 281.676 190.369 280.076 192.369 278.076C192.369 278.076 189.969 272.376 189.369 270.976C188.669 269.476 186.069 261.076 183.269 257.776C180.369 254.576 178.769 254.176 176.869 254.076C174.869 253.976 169.069 254.376 169.069 254.376L165.869 254.976C165.869 254.976 161.069 254.676 158.869 254.276C156.569 253.976 151.969 254.376 151.969 254.376C151.969 254.376 143.669 254.976 141.269 256.076C138.769 257.276 136.969 259.276 136.569 259.676C136.069 260.076 134.569 262.976 134.469 264.276C134.369 265.676 133.669 268.076 133.469 268.476C133.269 268.976 132.169 271.776 132.469 271.976C132.669 272.276 131.069 278.676 131.069 278.676L130.169 280.376C130.169 280.376 137.169 284.176 141.069 282.376L140.169 296.976C140.169 296.976 138.469 302.176 138.569 302.476C138.769 302.776 138.069 306.276 138.069 306.276Z" fill="#FFF8E6"/>
<path d="M132.669 281.676C132.669 281.676 137.269 283.576 140.769 282.676L140.669 283.976C140.669 283.976 134.569 284.576 132.869 282.876L132.669 281.676Z" fill="#000631"/>
<path d="M180.069 282.676L180.369 283.976C180.369 283.976 189.869 282.976 190.969 280.376L190.469 279.476C190.469 279.476 184.669 283.076 180.069 282.676Z" fill="#000631"/>
<path d="M178.669 286.476L180.069 284.176V282.676H178.469L178.669 286.476Z" fill="#000631"/>
<path d="M60.0693 24.9762C60.0693 24.9762 58.8693 23.0762 56.9693 23.0762C54.9693 23.0762 56.2693 26.8762 56.2693 29.3762C56.2693 31.9762 58.1693 36.3762 60.7693 35.1762" stroke="#000631" stroke-width="0.8" stroke-linecap="round" stroke-linejoin="round"/>
<path d="M60.7692 35.6761C60.7692 35.6761 60.0691 43.3762 58.8691 45.9762" stroke="#000631" stroke-width="0.8" stroke-linecap="round" stroke-linejoin="round"/>
<path d="M80.4689 47.8761L79.1689 52.8761" stroke="#000631" stroke-width="0.8" stroke-linecap="round" stroke-linejoin="round"/>
<path d="M58.2694 32.3762C57.7694 29.5762 59.7694 30.7762 59.7694 30.7762C59.4694 25.7762 57.5693 25.5762 57.5693 25.5762V28.9762" stroke="#000631" stroke-width="0.8" stroke-linecap="round" stroke-linejoin="round"/>
<path d="M58.2694 23.3761C58.2694 23.3761 56.9693 16.5761 57.5693 13.4761C58.1693 10.3761 61.3694 2.67612 62.6694 2.67612C63.8694 2.67612 68.9694 2.67612 69.6694 3.97612C69.6694 3.97612 73.4694 -0.42388 77.2694 1.47612C81.0694 3.37612 85.4693 5.87612 88.0693 7.17612C90.5693 8.47612 91.2694 13.4761 91.2694 15.4761C91.2694 17.3761 90.5694 20.5761 89.9694 23.3761C89.3694 26.2761 88.6694 26.2761 88.6694 26.2761" stroke="#000631" stroke-width="0.8" stroke-linecap="round" stroke-linejoin="round"/>
<path d="M61.9692 24.2761C61.9692 24.2761 62.6693 19.2761 63.8693 16.6761C65.1693 14.1761 66.4693 9.0761 68.3693 9.6761" stroke="#000631" stroke-width="0.8" stroke-linecap="round" stroke-linejoin="round"/>
<path d="M68.3691 10.9761C68.3691 10.9761 66.5691 9.97611 65.8691 12.0761" stroke="#000631" stroke-width="0.8" stroke-linecap="round" stroke-linejoin="round"/>
<path d="M70.6693 9.67611C70.6693 9.67611 72.7692 5.87611 75.9692 7.17611C79.1692 8.47611 80.7693 11.1761 81.2693 13.5761C81.6693 16.0761 90.1693 23.0761 88.8693 23.0761C88.6693 23.0761 87.3693 26.2761 87.3693 28.7761C87.3693 31.2761 85.4693 37.6761 84.8693 39.5761C84.2693 41.4761 80.4692 48.4761 78.5692 49.0761C76.5692 49.7761 72.1693 49.0761 70.2693 49.0761C68.3693 49.0761 62.6692 41.4761 61.9692 38.8761" stroke="#000631" stroke-width="0.8" stroke-linecap="round" stroke-linejoin="round"/>
<path d="M73.9692 9.17612C73.9692 9.17612 76.2693 6.27612 78.3693 8.57612" stroke="#000631" stroke-width="0.8" stroke-linecap="round" stroke-linejoin="round"/>
<path d="M75.3691 10.3762C75.9691 10.3762 79.1692 8.07615 79.7692 10.1762" stroke="#000631" stroke-width="0.8" stroke-linecap="round" stroke-linejoin="round"/>
<path d="M65.769 20.4761C65.769 20.4761 67.769 20.4761 68.969 21.1761C70.269 21.7761 71.5691 22.3761 72.1691 21.7761" stroke="#000631" stroke-width="0.8" stroke-linecap="round" stroke-linejoin="round"/>
<path d="M79.1689 22.7761C79.1689 22.7761 81.0689 22.3761 82.3689 21.7761C83.5689 21.1761 85.4689 22.7761 85.4689 22.7761" stroke="#000631" stroke-width="0.8" stroke-linecap="round" stroke-linejoin="round"/>
<path d="M72.1694 24.8761C70.2694 22.9761 66.5693 24.2761 66.5693 24.2761C66.5693 24.2761 67.3693 26.2761 70.0693 26.2761" stroke="#000631" stroke-width="0.4" stroke-linecap="round" stroke-linejoin="round"/>
<path d="M71.3691 24.2761C71.3691 24.2761 71.7691 24.9761 71.3691 25.5761" stroke="#000631" stroke-width="0.4" stroke-linecap="round" stroke-linejoin="round"/>
<path d="M69.7692 23.8761C69.7692 23.8761 68.6692 24.9761 69.7692 25.5761" stroke="#000631" stroke-width="0.4" stroke-linecap="round" stroke-linejoin="round"/>
<path d="M72.769 22.1761C72.769 22.1761 74.069 20.4761 73.469 19.8761" stroke="#000631" stroke-width="0.4" stroke-linecap="round" stroke-linejoin="round"/>
<path d="M78.5693 20.4761C78.5693 20.4761 79.1693 22.3761 78.5693 23.0761" stroke="#000631" stroke-width="0.4" stroke-linecap="round" stroke-linejoin="round"/>
<path d="M77.9689 24.2761C77.9689 24.2761 77.369 26.8761 77.669 28.1761C77.869 29.3761 77.9689 30.9761 77.9689 30.9761" stroke="#000631" stroke-width="0.4" stroke-linecap="round" stroke-linejoin="round"/>
<path d="M84.8689 26.2761C84.8689 26.2761 84.2689 24.9761 82.2689 24.7761C80.3689 24.5761 79.1689 25.9761 79.1689 25.9761C79.1689 25.9761 81.0688 26.8761 83.5688 26.8761" stroke="#000631" stroke-width="0.4" stroke-linecap="round" stroke-linejoin="round"/>
<path d="M84.3694 25.5762C84.3694 25.5762 84.2693 26.2762 83.5693 26.8762" stroke="#000631" stroke-width="0.4" stroke-linecap="round" stroke-linejoin="round"/>
<path d="M83.269 24.9761C83.269 24.9761 82.269 25.4761 82.269 26.7761" stroke="#000631" stroke-width="0.4" stroke-linecap="round" stroke-linejoin="round"/>
<path d="M73.1689 33.1761C73.1689 33.1761 73.9689 33.3762 74.6689 33.8762" stroke="#000631" stroke-width="0.4" stroke-linecap="round" stroke-linejoin="round"/>
<path d="M76.5693 33.8761C76.5693 33.8761 77.4693 33.0761 77.5693 33.1761C77.8693 33.1761 77.2694 33.8761 77.2694 33.8761" stroke="#000631" stroke-width="0.4" stroke-linecap="round" stroke-linejoin="round"/>
<path d="M72.4693 33.3761C72.4693 33.3761 71.5693 32.5761 72.4693 31.8761" stroke="#000631" stroke-width="0.4" stroke-linecap="round" stroke-linejoin="round"/>
<path d="M75.269 30.9761C75.269 30.9761 76.369 30.5761 76.869 31.2761" stroke="#000631" stroke-width="0.4" stroke-linecap="round" stroke-linejoin="round"/>
<path d="M77.9692 33.8762C77.9692 33.8762 78.7692 32.9761 77.9692 32.1761" stroke="#000631" stroke-width="0.4" stroke-linecap="round" stroke-linejoin="round"/>
<path d="M73.1689 23.8761C73.1689 23.8761 73.5689 24.9761 73.1689 25.5761" stroke="#000631" stroke-width="0.4" stroke-linecap="round" stroke-linejoin="round"/>
<path d="M70.8691 39.1762C70.8691 39.1762 75.3692 38.1762 79.1692 39.1762C79.1692 39.1762 79.1692 38.2762 78.7692 37.8762C78.4692 37.4762 76.5692 36.3762 74.6692 36.6762C72.7692 36.8762 70.8691 38.2762 70.8691 38.2762" stroke="#000631" stroke-width="0.4" stroke-linecap="round" stroke-linejoin="round"/>
<path d="M78.7692 37.8761L78.3691 39.0761" stroke="#000631" stroke-width="0.4" stroke-linecap="round" stroke-linejoin="round"/>
<path d="M76.8691 5.27612C76.8691 5.27612 81.3692 6.77613 82.7692 9.87613C84.2692 12.8761 89.2691 17.3761 90.5691 20.4761" stroke="#000631" stroke-width="0.4" stroke-linecap="round" stroke-linejoin="round"/>
<path d="M85.9692 11.3761C85.9692 11.3761 91.8693 14.7761 91.2693 17.6761" stroke="#000631" stroke-width="0.4" stroke-linecap="round" stroke-linejoin="round"/>
<path d="M67.069 8.37618C67.069 8.37618 65.0691 7.87618 64.1691 10.6762C63.2691 13.4762 59.769 19.2762 57.769 19.8762" stroke="#000631" stroke-width="0.4" stroke-linecap="round" stroke-linejoin="round"/>
<path d="M63.2692 9.27612C63.2692 9.27612 59.7691 16.0761 57.3691 17.6761" stroke="#000631" stroke-width="0.4" stroke-linecap="round" stroke-linejoin="round"/>
<path d="M79.1694 43.3761C79.1694 43.3761 79.1693 47.8761 78.5693 49.0761" stroke="#000631" stroke-width="0.4" stroke-linecap="round" stroke-linejoin="round"/>
<path d="M80.4692 42.2761C80.4692 42.2761 80.7692 44.2761 80.4692 45.5761" stroke="#000631" stroke-width="0.4" stroke-linecap="round" stroke-linejoin="round"/>
<path d="M76.569 44.4761C76.569 44.4761 76.969 48.0761 76.269 49.3761" stroke="#000631" stroke-width="0.4" stroke-linecap="round" stroke-linejoin="round"/>
<path d="M75.0688 41.8762C75.0688 41.7762 75.0689 48.0762 74.6689 49.3762" stroke="#000631" stroke-width="0.4" stroke-linecap="round" stroke-linejoin="round"/>
<path d="M72.4692 42.8761C72.4692 42.8761 73.1692 48.1761 72.4692 49.0761" stroke="#000631" stroke-width="0.4" stroke-linecap="round" stroke-linejoin="round"/>
<path d="M70.5689 42.4761C69.9689 42.4761 70.5689 47.4761 70.5689 47.8761" stroke="#000631" stroke-width="0.4" stroke-linecap="round" stroke-linejoin="round"/>
<path d="M68.7691 36.5762C68.7691 36.5762 67.369 38.5762 68.069 41.7762" stroke="#000631" stroke-width="0.4" stroke-linecap="round" stroke-linejoin="round"/>
<path d="M66.769 40.5762C66.769 40.5762 66.769 43.0762 67.369 44.3762" stroke="#000631" stroke-width="0.4" stroke-linecap="round" stroke-linejoin="round"/>
<path d="M76.269 35.4761C76.269 35.4761 80.6691 35.1761 81.6691 35.6761" stroke="#000631" stroke-width="0.4" stroke-linecap="round" stroke-linejoin="round"/>
<path d="M81.3691 36.6761C81.3691 36.6761 83.1692 42.2761 81.6692 45.5761" stroke="#000631" stroke-width="0.4" stroke-linecap="round" stroke-linejoin="round"/>
<path d="M82.769 37.5762C82.769 37.5762 83.769 40.5762 83.569 42.4762" stroke="#000631" stroke-width="0.4" stroke-linecap="round" stroke-linejoin="round"/>
<path d="M74.369 36.0761C73.469 35.9761 70.269 36.1761 70.269 36.1761" stroke="#000631" stroke-width="0.4" stroke-linecap="round" stroke-linejoin="round"/>
<path d="M78.1693 34.7761C77.9693 34.5761 79.1693 34.5761 80.5693 34.9761" stroke="#000631" stroke-width="0.4" stroke-linecap="round" stroke-linejoin="round"/>
<path d="M57.7693 45.1761C57.7693 45.1761 60.0692 53.2761 72.4692 55.9761C72.4692 55.9761 68.9692 62.3761 68.9692 64.9761C68.9692 64.9761 54.9692 59.8761 52.4692 52.2761C52.4692 52.2761 55.5693 46.6761 56.2693 45.6761C56.9693 44.6761 57.0693 43.1761 59.1693 43.8761" stroke="#000631" stroke-width="0.8" stroke-linecap="round" stroke-linejoin="round"/>
<path d="M79.7689 50.3761C80.4689 50.3761 82.3689 56.0761 82.3689 56.0761C81.6689 59.3761 78.1689 63.5761 78.1689 63.5761C77.7689 60.2761 73.1689 55.6761 73.1689 55.6761C73.4689 55.4761 77.5689 54.7761 79.1689 52.8761" stroke="#000631" stroke-width="0.8" stroke-linecap="round" stroke-linejoin="round"/>
<path d="M70.4692 60.9761C70.4692 60.9761 72.6693 64.3761 74.2693 64.0761C75.9693 63.6761 77.0692 62.7761 76.4692 59.7761" stroke="#000631" stroke-width="0.8" stroke-linecap="round" stroke-linejoin="round"/>
<path d="M81.0693 52.5762C81.0693 52.8762 93.1694 56.0762 94.3694 55.4762C95.6694 54.7762 96.9693 57.3762 97.5693 57.9762M97.5693 57.9762C96.9693 57.3762 98.2693 58.6762 97.5693 57.9762ZM97.5693 57.9762C98.2693 58.6762 110.269 85.2762 110.269 86.5762" stroke="#000631" stroke-width="0.8" stroke-linecap="round" stroke-linejoin="round"/>
<path d="M95.6689 89.2762C95.6689 89.2762 99.4689 73.8762 98.8689 71.9762C98.2689 70.0762 97.2689 71.2762 97.2689 71.2762" stroke="#000631" stroke-width="0.8" stroke-linecap="round" stroke-linejoin="round"/>
<path d="M100.169 77.0762C100.169 77.0762 97.069 83.1762 97.269 83.9762" stroke="#000631" stroke-width="0.8" stroke-linecap="round" stroke-linejoin="round"/>
<path d="M100.769 82.1761L98.9692 86.7762" stroke="#000631" stroke-width="0.8" stroke-linecap="round" stroke-linejoin="round"/>
<path d="M94.3693 77.6761C94.3693 77.6761 93.7693 94.1761 93.7693 101.176C93.7693 108.176 93.1692 120.376 94.0692 122.276C95.0692 124.076 94.3692 125.976 92.4692 127.276C90.5692 128.576 67.7692 136.176 54.9692 131.076" stroke="#000631" stroke-width="0.8" stroke-linecap="round" stroke-linejoin="round"/>
<path d="M93.8691 96.1762L94.3691 97.3762C94.3691 97.3762 98.5691 96.9762 103.969 92.9762C109.069 89.1762 110.269 86.5762 110.269 86.5762" stroke="#000631" stroke-width="0.8" stroke-linecap="round" stroke-linejoin="round"/>
<path d="M96.269 96.7761C96.269 96.7761 96.269 100.576 98.269 103.776C100.169 106.876 119.869 132.376 123.669 136.176C123.669 136.176 123.669 139.376 124.269 141.276C124.869 143.176 136.369 159.676 136.969 161.576C137.569 163.476 138.869 159.676 137.569 157.076C136.369 154.576 133.769 151.376 133.769 150.176" stroke="#000631" stroke-width="0.8" stroke-linecap="round" stroke-linejoin="round"/>
<path d="M136.369 149.476C136.369 149.476 137.569 152.676 139.569 155.176C141.469 157.776 140.769 161.576 140.169 161.576C139.569 161.576 137.569 157.076 137.569 157.076" stroke="#000631" stroke-width="0.8" stroke-linecap="round" stroke-linejoin="round"/>
<path d="M138.869 148.176C138.869 148.176 140.169 152.076 141.469 153.976C142.669 155.876 143.969 159.676 142.669 160.976C141.469 162.176 141.969 160.276 141.069 159.076" stroke="#000631" stroke-width="0.8" stroke-linecap="round" stroke-linejoin="round"/>
<path d="M138.569 141.976C138.569 141.976 141.469 148.176 142.669 150.176C143.969 152.076 145.869 157.076 145.269 158.376C144.569 159.676 143.569 158.076 142.469 155.976" stroke="#000631" stroke-width="0.8" stroke-linecap="round" stroke-linejoin="round"/>
<path d="M129.369 137.376C129.369 137.376 133.769 141.276 133.769 144.376" stroke="#000631" stroke-width="0.8" stroke-linecap="round" stroke-linejoin="round"/>
<path d="M109.069 88.4761C109.069 88.4761 110.269 94.1761 112.169 96.0761C114.069 98.0761 116.669 101.876 119.869 110.776C122.969 119.676 132.069 132.776 132.069 132.776C132.069 132.776 136.369 132.976 137.569 134.876C138.869 136.776 142.669 143.776 144.569 145.676C146.469 147.576 148.269 148.876 146.169 149.476C143.969 150.176 140.969 146.676 140.569 146.176" stroke="#000631" stroke-width="0.8" stroke-linecap="round" stroke-linejoin="round"/>
<path d="M76.0691 63.1762C76.0691 63.1762 79.7691 74.7762 81.0691 89.2762C82.3691 103.776 82.9691 111.976 82.9691 111.976C82.9691 111.976 79.1691 120.876 78.5691 123.476C78.5691 123.476 72.7691 117.076 70.8691 113.276C70.8691 113.276 72.1691 95.0762 72.4691 81.5762C72.7691 68.1762 71.6691 62.5762 71.9691 62.7762" stroke="#000631" stroke-width="0.8" stroke-linecap="round" stroke-linejoin="round"/>
<path d="M50.269 89.2761C50.269 89.2761 54.369 100.576 58.869 102.476" stroke="#000631" stroke-width="0.8" stroke-linecap="round" stroke-linejoin="round"/>
<path d="M42.269 88.4761C42.269 88.4761 44.869 113.276 43.569 117.776C42.269 122.176 42.969 125.076 43.569 126.576" stroke="#000631" stroke-width="0.8" stroke-linecap="round" stroke-linejoin="round"/>
<path d="M49.269 122.776C49.969 123.476 66.4691 131.076 69.6691 129.776C72.7691 128.576 63.969 126.176 64.269 126.376" stroke="#000631" stroke-width="0.8" stroke-linecap="round" stroke-linejoin="round"/>
<path d="M44.1691 87.2761C44.1691 87.2761 35.9691 86.5761 34.6691 84.0761C33.3691 81.4761 37.2691 83.3761 37.2691 83.3761" stroke="#000631" stroke-width="0.8" stroke-linecap="round" stroke-linejoin="round"/>
<path d="M39.1689 81.4761C39.1689 81.4761 46.7689 87.2761 47.3689 87.2761" stroke="#000631" stroke-width="0.8" stroke-linecap="round" stroke-linejoin="round"/>
<path d="M53.3694 50.6761C53.3694 50.6761 37.8694 57.2762 35.9694 57.3762C34.0694 57.4762 33.7694 60.1761 32.7694 61.1761C31.7694 62.1761 18.5694 79.8761 14.9694 82.1761C14.9694 82.1761 13.4694 84.1762 14.9694 85.2762" stroke="#000631" stroke-width="0.8" stroke-linecap="round" stroke-linejoin="round"/>
<path d="M14.9692 82.1761C14.9692 82.1761 16.8693 79.9761 23.2693 84.6761C29.5693 89.3761 33.3693 98.0761 32.7693 98.6761C32.1693 99.2761 30.2693 98.0761 30.2693 98.0761" stroke="#000631" stroke-width="0.8" stroke-linecap="round" stroke-linejoin="round"/>
<path d="M32.769 98.6762C32.769 98.6762 42.4691 87.1762 44.1691 87.2762" stroke="#000631" stroke-width="0.8" stroke-linecap="round" stroke-linejoin="round"/>
<path d="M31.6691 95.0762C31.6691 95.0762 23.269 104.976 23.269 106.276" stroke="#000631" stroke-width="0.8" stroke-linecap="round" stroke-linejoin="round"/>
<path d="M17.5691 82.1761C17.5691 82.1761 12.1691 87.8762 7.96908 96.7762C3.76908 105.676 2.36915 105.176 1.66915 106.876C0.969153 108.676 0.369128 112.676 2.26913 114.576C4.16913 116.476 28.5692 130.076 33.1692 132.776C37.8692 135.476 39.1691 135.476 39.7691 136.776C40.3691 138.076 39.7692 139.976 41.6692 141.876C43.5692 143.776 49.2691 145.476 50.2691 146.876" stroke="#000631" stroke-width="0.8" stroke-linecap="round" stroke-linejoin="round"/>
<path d="M44.1693 143.576C44.1693 143.576 41.6693 143.876 43.2693 145.376C44.8693 146.976 51.8693 150.176 53.7693 149.476C55.6693 148.876 54.3692 147.376 55.9692 146.876C57.5692 146.276 58.1693 144.776 58.8693 142.676C59.4693 140.576 60.7693 138.076 61.3693 136.776C61.9693 135.476 56.9692 132.376 53.0692 131.076C49.2692 129.776 44.4692 127.976 43.9692 127.676C43.5692 127.276 30.2692 111.376 24.4692 106.876C18.7692 102.476 14.9692 100.576 14.9692 100.576" stroke="#000631" stroke-width="0.8" stroke-linecap="round" stroke-linejoin="round"/>
<path d="M4.76904 108.176C4.76904 108.176 6.06904 110.076 6.76904 110.776" stroke="#000631" stroke-width="0.8" stroke-linecap="round" stroke-linejoin="round"/>
<path d="M68.9692 35.1761C68.9692 35.1761 72.1693 35.2762 72.6693 35.3762" stroke="#000631" stroke-width="0.4" stroke-linecap="round" stroke-linejoin="round"/>
<path d="M90.3691 128.176C90.3691 128.176 91.4692 156.276 91.6692 162.076C91.8692 167.876 93.9691 195.076 94.5691 204.676C95.0691 214.276 95.6692 249.876 96.2692 253.076" stroke="#000631" stroke-width="0.8" stroke-linecap="round" stroke-linejoin="round"/>
<path d="M95.2694 214.376C95.2694 214.376 99.4694 271.476 100.169 275.276C100.169 275.276 96.4694 280.076 90.3694 280.176C84.2694 280.376 79.7694 278.476 79.7694 278.476C79.7694 278.476 79.7694 255.976 79.7694 244.676C79.7694 233.376 78.5693 228.276 78.5693 228.276" stroke="#000631" stroke-width="0.8" stroke-linecap="round" stroke-linejoin="round"/>
<path d="M70.269 179.976C70.269 179.976 81.0691 241.676 81.6691 248.576C82.3691 255.576 82.369 258.776 83.569 260.076" stroke="#000631" stroke-width="0.8" stroke-linecap="round" stroke-linejoin="round"/>
<path d="M73.4692 176.776C73.4692 176.776 75.3693 188.876 79.7693 196.476" stroke="#000631" stroke-width="0.8" stroke-linecap="round" stroke-linejoin="round"/>
<path d="M76.5693 165.076C76.5693 165.076 82.5694 161.776 85.9694 161.376" stroke="#000631" stroke-width="0.8" stroke-linecap="round" stroke-linejoin="round"/>
<path d="M73.4692 166.076C73.4692 166.076 63.8693 206.676 61.3693 226.376C58.8693 246.076 56.2693 286.776 56.2693 289.276C56.2693 289.276 51.1693 290.576 44.1693 289.876C37.2693 289.276 35.9692 282.976 35.9692 282.976C35.9692 282.976 40.3693 251.176 39.7693 239.676" stroke="#000631" stroke-width="0.8" stroke-linecap="round" stroke-linejoin="round"/>
<path d="M41.2692 260.076C38.9692 243.576 41.0691 214.976 41.0691 214.976C41.0691 214.976 40.8692 195.576 41.2692 187.476C41.6692 179.376 43.2692 145.376 43.2692 145.376" stroke="#000631" stroke-width="0.8" stroke-linecap="round" stroke-linejoin="round"/>
<path d="M61.3691 136.776C61.3691 136.776 80.1691 137.276 90.4691 131.576" stroke="#000631" stroke-width="0.8" stroke-linecap="round" stroke-linejoin="round"/>
<path d="M79.769 131.576V134.676" stroke="#000631" stroke-width="0.8" stroke-linecap="round" stroke-linejoin="round"/>
<path d="M74.7693 136.776C74.7693 136.776 73.4692 158.476 73.4692 162.576C73.4692 162.576 63.8693 159.676 59.7693 158.876C55.6693 157.976 58.1693 159.076 58.1693 158.876" stroke="#000631" stroke-width="0.8" stroke-linecap="round" stroke-linejoin="round"/>
<path d="M74.0693 157.076C74.0693 157.076 74.7694 157.676 76.9694 155.176C78.5694 153.276 78.6694 135.376 78.6694 135.376" stroke="#000631" stroke-width="0.8" stroke-linecap="round" stroke-linejoin="round"/>
<path d="M38.5693 287.476C38.5693 287.476 37.8694 291.776 39.7694 295.676C41.6694 299.476 40.3693 310.876 48.0693 313.476C55.6693 315.976 62.6694 312.176 63.2694 310.276C63.8694 308.376 54.3694 293.676 54.6694 289.576" stroke="#000631" stroke-width="0.8" stroke-linecap="round" stroke-linejoin="round"/>
<path d="M41.769 289.376L42.269 293.076L44.1691 289.876" stroke="#000631" stroke-width="0.8" stroke-linecap="round" stroke-linejoin="round"/>
<path d="M38.3692 291.276C38.3692 291.276 37.6692 294.976 38.3692 295.976C39.1692 296.876 40.9692 300.876 40.9692 300.876" stroke="#000631" stroke-width="0.8" stroke-linecap="round" stroke-linejoin="round"/>
<path d="M41.8691 305.476C41.8691 305.476 42.7691 312.576 45.0691 314.276C47.3691 315.976 56.9692 316.576 60.7692 314.676C60.7692 314.676 63.2692 313.476 63.2692 310.276" stroke="#000631" stroke-width="0.8" stroke-linecap="round" stroke-linejoin="round"/>
<path d="M81.0689 279.776C81.0689 279.776 80.4689 288.076 81.0689 291.276C81.0689 291.276 88.6689 293.776 92.4689 293.776C96.2689 293.776 98.5689 294.576 102.469 296.076C106.469 297.576 119.269 297.076 120.769 296.076C122.369 294.976 120.469 291.276 112.169 287.476C103.969 283.576 97.969 280.276 97.769 277.476" stroke="#000631" stroke-width="0.8" stroke-linecap="round" stroke-linejoin="round"/>
<path d="M85.9692 279.976L87.3693 284.176L89.3693 279.976" stroke="#000631" stroke-width="0.8" stroke-linecap="round" stroke-linejoin="round"/>
<path d="M81.069 291.276C81.069 291.276 80.4691 292.976 80.7691 293.676C81.0691 294.376 92.2691 296.476 92.6691 296.076C93.1691 295.676 94.369 292.776 95.369 293.876C96.269 294.976 98.269 296.876 101.369 297.576C104.569 298.176 115.769 300.676 121.269 297.576V294.776" stroke="#000631" stroke-width="0.8" stroke-linecap="round" stroke-linejoin="round"/>
<path d="M107.269 296.076C107.269 296.076 108.369 289.376 112.169 287.476" stroke="#000631" stroke-width="0.5" stroke-linecap="round" stroke-linejoin="round"/>
<path d="M43.269 309.276C43.269 309.276 52.469 302.076 61.369 305.176" stroke="#000631" stroke-width="0.5" stroke-linecap="round" stroke-linejoin="round"/>
<path d="M80.769 284.976C80.769 284.976 84.269 288.276 84.569 292.276" stroke="#000631" stroke-width="0.5" stroke-linecap="round" stroke-linejoin="round"/>
<path d="M249.97 177.176C249.97 177.176 248.87 179.376 248.87 182.176C248.87 184.976 248.87 186.076 247.27 188.876C245.57 191.576 246.67 199.876 253.87 204.376C261.07 208.776 272.77 201.576 274.97 197.676L276.37 195.776" stroke="#000631" stroke-width="0.7" stroke-linecap="round" stroke-linejoin="round"/>
<path d="M275.469 180.476C275.469 180.476 276.569 181.076 277.169 182.576C277.769 184.176 275.469 186.076 274.969 187.376C274.369 188.776 277.169 190.476 277.169 190.476C277.169 190.476 279.969 184.976 282.169 186.576C284.369 188.276 283.269 195.476 280.469 196.576C277.769 197.676 275.469 194.976 275.469 194.976" stroke="#000631" stroke-width="0.7" stroke-linecap="round" stroke-linejoin="round"/>
<path d="M281.569 188.276C281.569 188.276 279.369 189.976 277.169 193.776C277.169 193.776 279.669 192.176 280.369 193.776" stroke="#000631" stroke-width="0.7" stroke-linecap="round" stroke-linejoin="round"/>
<path d="M280.769 189.076C280.769 189.076 281.869 191.376 281.169 191.476C280.469 191.576 279.469 191.476 279.469 191.476" stroke="#000631" stroke-width="0.7" stroke-linecap="round" stroke-linejoin="round"/>
<path d="M272.169 178.876L274.969 181.576C274.969 181.576 277.769 176.676 278.269 173.276C278.269 173.276 273.269 176.076 272.169 178.876Z" stroke="#000631" stroke-width="0.7" stroke-linecap="round" stroke-linejoin="round"/>
<path d="M258.869 171.676C258.869 171.676 259.469 173.276 261.669 174.376C263.869 175.476 265.569 174.976 266.669 176.676C267.769 178.276 272.169 177.976 272.169 177.976" stroke="#000631" stroke-width="0.7" stroke-linecap="round" stroke-linejoin="round"/>
<path d="M258.869 169.576C258.869 169.576 258.969 172.776 255.569 173.276C252.169 173.876 253.369 174.976 251.669 176.076C249.969 177.176 249.469 177.176 248.869 176.676" stroke="#000631" stroke-width="0.7" stroke-linecap="round" stroke-linejoin="round"/>
<path d="M252.769 167.176C252.769 167.176 249.169 166.876 246.569 168.376C243.869 169.976 242.769 173.076 244.469 174.876C246.069 176.676 244.469 177.076 243.669 177.476C242.769 177.776 238.369 180.476 241.169 182.776C241.169 182.776 236.169 183.276 235.569 187.176C235.069 191.076 238.269 190.476 238.569 193.776C238.869 197.176 236.169 198.276 240.569 200.476" stroke="#000631" stroke-width="0.7" stroke-linecap="round" stroke-linejoin="round"/>
<path d="M253.869 166.776C253.869 166.776 255.569 161.376 258.869 161.476C262.169 161.676 262.169 163.276 262.169 163.276C262.169 163.276 264.969 161.076 266.069 163.276C266.069 163.276 269.969 160.576 273.869 162.776C277.769 164.976 279.069 167.976 279.069 167.976C279.069 167.976 287.169 168.876 288.769 171.076C290.469 173.276 289.469 176.676 291.969 177.976C294.369 179.376 297.169 182.176 294.869 184.976C292.669 187.676 291.369 188.976 293.669 190.276C296.069 191.576 297.169 193.776 294.869 196.076C292.669 198.276 292.669 198.776 293.769 202.176C294.869 205.476 288.769 202.176 288.269 204.376C287.669 206.576 290.469 208.776 287.669 209.376" stroke="#000631" stroke-width="0.7" stroke-linecap="round" stroke-linejoin="round"/>
<path d="M258.869 205.776C258.869 205.976 259.969 208.276 259.969 208.276" stroke="#000631" stroke-width="0.7" stroke-linecap="round" stroke-linejoin="round"/>
<path d="M256.269 205.376C256.269 205.376 256.069 209.876 261.069 210.976C266.069 212.076 271.669 207.176 272.169 203.776C272.669 200.476 272.169 201.076 272.169 201.076" stroke="#000631" stroke-width="0.7" stroke-linecap="round" stroke-linejoin="round"/>
<path d="M273.069 200.476L276.469 201.276" stroke="#000631" stroke-width="0.7" stroke-linecap="round" stroke-linejoin="round"/>
<path d="M281.569 202.476C281.569 202.476 284.369 203.776 286.069 207.676C287.669 211.576 291.569 224.276 292.169 225.476C292.169 225.476 282.669 232.376 277.169 231.976C277.169 231.976 276.369 224.076 276.169 222.276" stroke="#000631" stroke-width="0.7" stroke-linecap="round" stroke-linejoin="round"/>
<path d="M276.369 220.776C276.369 220.776 281.069 224.276 282.669 225.976" stroke="#000631" stroke-width="0.7" stroke-linecap="round" stroke-linejoin="round"/>
<path d="M276.169 218.976C276.169 218.976 280.469 222.176 281.569 221.876C282.669 221.576 279.569 219.676 279.569 219.676" stroke="#000631" stroke-width="0.7" stroke-linecap="round" stroke-linejoin="round"/>
<path d="M279.069 231.976L279.569 242.176C279.569 242.176 275.569 242.876 273.069 244.676C270.469 246.476 263.869 252.576 263.269 252.576C262.769 252.576 260.569 250.876 258.869 250.376C257.169 249.876 254.969 252.076 254.469 252.076C253.869 252.076 253.869 252.076 253.869 252.076" stroke="#000631" stroke-width="0.7" stroke-linecap="round" stroke-linejoin="round"/>
<path d="M289.069 227.476C289.069 227.476 289.97 243.776 288.27 247.576C288.27 247.576 282.67 252.576 277.17 254.776C271.67 257.076 266.77 257.976 266.67 258.576C266.67 259.276 263.27 263.176 262.17 263.676C261.07 264.276 257.77 263.676 257.77 263.676" stroke="#000631" stroke-width="0.7" stroke-linecap="round" stroke-linejoin="round"/>
<path d="M254.469 261.076C254.469 261.076 257.169 261.576 259.469 260.676" stroke="#000631" stroke-width="0.7" stroke-linecap="round" stroke-linejoin="round"/>
<path d="M260.469 262.576C258.869 263.676 255.569 262.576 255.569 262.576C255.569 262.576 254.469 262.576 254.469 260.876" stroke="#000631" stroke-width="0.7" stroke-linecap="round" stroke-linejoin="round"/>
<path d="M252.169 252.576C252.169 252.576 251.069 249.876 249.469 249.876C247.769 249.876 246.669 250.376 246.669 250.376C246.669 250.376 244.969 244.876 243.369 240.976C242.369 238.776 239.469 237.076 239.469 237.076" stroke="#000631" stroke-width="0.7" stroke-linecap="round" stroke-linejoin="round"/>
<path d="M243.869 230.376L241.569 238.376" stroke="#000631" stroke-width="0.7" stroke-linecap="round" stroke-linejoin="round"/>
<path d="M233.869 225.476C233.869 225.476 231.469 239.176 232.469 242.576C233.369 245.976 242.069 253.176 243.369 255.376C244.569 257.576 246.069 261.376 248.269 261.976C250.569 262.576 254.469 261.476 254.469 259.776" stroke="#000631" stroke-width="0.7" stroke-linecap="round" stroke-linejoin="round"/>
<path d="M251.369 202.476C251.369 202.476 249.669 202.676 249.569 208.276C249.469 213.776 249.569 222.276 249.569 222.276" stroke="#000631" stroke-width="0.7" stroke-linecap="round" stroke-linejoin="round"/>
<path d="M244.969 219.876C244.969 219.876 260.569 230.376 276.369 227.876C276.369 227.876 275.469 210.476 277.769 205.976C279.969 201.576 281.569 202.476 281.569 202.476C281.569 202.476 278.869 201.076 277.769 200.976C275.469 200.876 273.269 203.776 272.169 210.376C270.869 218.276 271.469 227.876 271.469 227.876" stroke="#000631" stroke-width="0.7" stroke-linecap="round" stroke-linejoin="round"/>
<path d="M248.869 199.476C248.869 199.476 247.169 199.376 245.769 205.776C244.469 212.076 244.469 221.376 244.969 224.276C245.569 227.076 249.969 235.676 248.869 236.676C247.769 237.676 245.969 239.876 246.869 240.476C247.769 240.976 248.369 243.176 248.369 243.176C248.369 243.176 246.069 247.176 245.769 247.676" stroke="#000631" stroke-width="0.7" stroke-linecap="round" stroke-linejoin="round"/>
<path d="M269.969 232.676C262.769 233.176 252.169 229.276 252.169 229.276C252.169 229.276 252.169 242.176 252.769 243.476C253.369 244.876 257.769 248.576 259.969 248.376C262.169 248.176 266.369 247.776 268.469 245.776L269.969 232.676Z" stroke="#000631" stroke-width="0.7" stroke-linecap="round" stroke-linejoin="round"/>
<path d="M247.87 197.576C247.87 197.576 242.769 197.776 239.469 202.476C236.169 207.176 234.97 220.376 232.27 222.876C232.27 222.876 238.869 229.876 244.969 229.876L245.77 228.276" stroke="#000631" stroke-width="0.7" stroke-linecap="round" stroke-linejoin="round"/>
<path d="M244.669 221.876C244.669 221.876 240.969 225.476 240.469 225.976" stroke="#000631" stroke-width="0.7" stroke-linecap="round" stroke-linejoin="round"/>
<path d="M244.469 218.276C244.469 218.276 238.369 221.876 236.669 222.276C235.069 222.676 237.469 221.176 238.169 220.776" stroke="#000631" stroke-width="0.7" stroke-linecap="round" stroke-linejoin="round"/>
<path d="M243.369 234.376L248.869 235.076" stroke="#000631" stroke-width="0.7" stroke-linecap="round" stroke-linejoin="round"/>
<path d="M232.969 231.976C232.969 231.976 223.969 232.076 220.569 236.476C217.269 240.976 218.969 247.076 220.069 249.876C221.169 252.576 235.669 259.776 235.669 259.776" stroke="#000631" stroke-width="0.7" stroke-linecap="round" stroke-linejoin="round"/>
<path d="M241.169 263.676L236.169 261.176C236.169 261.176 236.169 255.176 240.269 251.976" stroke="#000631" stroke-width="0.7" stroke-linecap="round" stroke-linejoin="round"/>
<path d="M242.569 263.076C242.769 263.176 243.369 257.976 244.469 257.476" stroke="#000631" stroke-width="0.7" stroke-linecap="round" stroke-linejoin="round"/>
<path d="M232.269 240.576C232.269 240.576 229.869 238.476 227.169 238.376" stroke="#000631" stroke-width="0.7" stroke-linecap="round" stroke-linejoin="round"/>
<path d="M229.169 237.076L232.269 239.476" stroke="#000631" stroke-width="0.7" stroke-linecap="round" stroke-linejoin="round"/>
<path d="M246.869 245.776C246.869 245.776 252.769 250.376 256.969 250.676" stroke="#000631" stroke-width="0.7" stroke-linecap="round" stroke-linejoin="round"/>
<path d="M269.969 257.476C269.969 257.476 281.769 260.076 284.169 262.176" stroke="#000631" stroke-width="0.7" stroke-linecap="round" stroke-linejoin="round"/>
<path d="M272.869 259.876C272.869 259.876 282.669 263.176 283.269 265.376C283.869 267.576 279.569 264.476 279.569 264.476" stroke="#000631" stroke-width="0.7" stroke-linecap="round" stroke-linejoin="round"/>
<path d="M263.27 263.176C263.27 263.176 263.37 271.176 266.67 273.676C266.67 273.676 281.669 274.276 287.469 273.676C293.269 273.076 293.27 268.176 293.77 265.376C294.37 262.576 292.17 252.076 286.87 248.776" stroke="#000631" stroke-width="0.7" stroke-linecap="round" stroke-linejoin="round"/>
<path d="M254.469 261.976C254.469 261.976 253.869 270.876 256.669 273.076C256.669 273.076 267.169 275.876 267.569 273.876" stroke="#000631" stroke-width="0.7" stroke-linecap="round" stroke-linejoin="round"/>
<path d="M254.969 269.976C254.969 269.976 249.969 270.376 245.769 270.876C241.669 271.476 240.569 271.276 239.469 271.976C238.369 272.776 237.269 275.376 236.169 273.676" stroke="#000631" stroke-width="0.7" stroke-linecap="round" stroke-linejoin="round"/>
<path d="M247.069 261.376C247.069 261.376 245.569 262.776 243.869 263.476C242.269 264.276 237.069 263.076 234.969 263.976C232.769 264.776 230.269 267.376 230.669 268.276C231.169 269.276 232.669 270.676 233.569 269.976C234.469 269.276 233.869 268.576 236.169 267.776" stroke="#000631" stroke-width="0.7" stroke-linecap="round" stroke-linejoin="round"/>
<path d="M232.27 270.176C232.27 270.176 232.27 271.976 233.37 271.976C234.47 271.976 235.57 270.376 236.67 269.276" stroke="#000631" stroke-width="0.7" stroke-linecap="round" stroke-linejoin="round"/>
<path d="M233.369 271.976C233.369 271.976 233.769 273.376 234.969 272.976C236.169 272.576 236.669 270.676 236.669 270.676" stroke="#000631" stroke-width="0.7" stroke-linecap="round" stroke-linejoin="round"/>
<path d="M234.969 272.976C234.969 272.976 235.169 275.376 237.369 271.976" stroke="#000631" stroke-width="0.7" stroke-linecap="round" stroke-linejoin="round"/>
<path d="M250.469 263.976C250.469 263.976 251.069 261.876 253.869 264.476" stroke="#000631" stroke-width="0.7" stroke-linecap="round" stroke-linejoin="round"/>
<path d="M252.169 179.976C252.169 179.976 254.969 178.276 257.469 179.976" stroke="#000631" stroke-width="0.7" stroke-linecap="round" stroke-linejoin="round"/>
<path d="M264.969 182.176C264.969 182.176 267.669 180.476 269.869 183.776" stroke="#000631" stroke-width="0.7" stroke-linecap="round" stroke-linejoin="round"/>
<path d="M259.469 251.976L261.069 254.276C261.069 254.276 259.969 257.176 259.469 258.476C258.869 259.776 254.469 259.276 254.469 259.776" stroke="#000631" stroke-width="0.7" stroke-linecap="round" stroke-linejoin="round"/>
<path d="M250.469 256.476L259.969 255.876L259.469 251.976L250.469 252.776V256.476ZM250.469 256.476L254.469 259.776" stroke="#000631" stroke-width="0.7" stroke-linecap="round" stroke-linejoin="round"/>
<path d="M249.969 259.276C249.969 259.276 251.969 260.376 253.769 259.276" stroke="#000631" stroke-width="0.7" stroke-linecap="round" stroke-linejoin="round"/>
<path d="M250.469 252.776C250.469 252.776 249.469 252.576 249.469 253.176C249.469 253.676 250.469 255.276 250.469 255.276" stroke="#000631" stroke-width="0.7" stroke-linecap="round" stroke-linejoin="round"/>
<path d="M249.469 261.176C249.469 261.176 250.869 261.776 252.669 261.376" stroke="#000631" stroke-width="0.7" stroke-linecap="round" stroke-linejoin="round"/>
<path d="M252.77 258.176C252.77 258.176 254.469 257.476 255.569 257.776C256.669 258.176 254.47 259.776 253.37 258.676" stroke="#000631" stroke-width="0.7" stroke-linecap="round" stroke-linejoin="round"/>
<path d="M259.469 258.476C259.469 258.476 257.169 258.976 257.469 257.776C257.769 256.476 259.969 257.076 259.969 257.076" stroke="#000631" stroke-width="0.7" stroke-linecap="round" stroke-linejoin="round"/>
<path d="M250.569 183.876C250.569 183.876 252.769 182.776 253.869 183.876C254.969 184.976 255.569 187.176 255.569 187.176C255.569 187.176 253.369 186.976 252.169 186.076C251.069 185.176 250.569 183.876 250.569 183.876Z" stroke="#000631" stroke-width="0.4" stroke-linecap="round" stroke-linejoin="round"/>
<path d="M261.869 188.676C261.869 188.676 263.269 187.676 265.569 188.276C267.769 188.876 268.769 191.076 268.769 191.076C268.769 191.076 264.269 192.576 262.069 189.576" stroke="#000631" stroke-width="0.4" stroke-linecap="round" stroke-linejoin="round"/>
<path d="M262.469 188.376C262.469 188.376 262.169 189.176 263.269 189.976C264.369 190.676 265.569 189.376 265.569 188.276" stroke="#000631" stroke-width="0.4" stroke-linecap="round" stroke-linejoin="round"/>
<path d="M251.669 183.476C251.669 183.476 251.069 184.276 252.169 185.476C253.369 186.576 254.469 184.376 253.869 183.876" stroke="#000631" stroke-width="0.4" stroke-linecap="round" stroke-linejoin="round"/>
<path d="M256.669 186.076C256.669 186.076 256.969 188.376 256.269 188.876C255.569 189.376 254.569 190.176 254.569 190.176" stroke="#000631" stroke-width="0.4" stroke-linecap="round" stroke-linejoin="round"/>
<path d="M253.87 190.876C253.87 190.876 252.77 192.176 253.37 193.276" stroke="#000631" stroke-width="0.4" stroke-linecap="round" stroke-linejoin="round"/>
<path d="M254.069 192.876L255.269 193.776" stroke="#000631" stroke-width="0.4" stroke-linecap="round" stroke-linejoin="round"/>
<path d="M256.869 193.776C256.869 193.776 257.769 193.776 258.269 193.776C258.869 193.776 257.769 194.376 257.769 194.376" stroke="#000631" stroke-width="0.4" stroke-linecap="round" stroke-linejoin="round"/>
<path d="M259.369 194.376C259.369 194.376 259.969 193.276 259.469 192.676" stroke="#000631" stroke-width="0.4" stroke-linecap="round" stroke-linejoin="round"/>
<path d="M253.169 196.876C253.169 196.876 258.269 196.276 259.169 199.476C259.169 199.476 254.969 197.776 253.069 198.876" stroke="#000631" stroke-width="0.4" stroke-linecap="round" stroke-linejoin="round"/>
<path d="M254.069 196.776L254.469 198.276" stroke="#000631" stroke-width="0.4" stroke-linecap="round" stroke-linejoin="round"/>
<path d="M150.669 238.276C150.669 238.276 149.369 236.276 148.369 238.376C147.369 240.376 148.669 246.376 152.469 245.876" stroke="#000631" stroke-width="0.7" stroke-linecap="round" stroke-linejoin="round"/>
<path d="M151.569 240.576C151.569 240.576 150.869 243.576 152.469 244.176" stroke="#000631" stroke-width="0.7" stroke-linecap="round" stroke-linejoin="round"/>
<path d="M155.669 244.176C155.669 244.176 155.769 248.676 156.869 250.376C156.869 250.376 162.969 254.776 169.069 252.576" stroke="#000631" stroke-width="0.7" stroke-linecap="round" stroke-linejoin="round"/>
<path d="M173.769 248.476C173.769 248.476 169.769 251.476 168.869 252.576C167.969 253.676 167.969 254.276 167.969 254.276" stroke="#000631" stroke-width="0.7" stroke-linecap="round" stroke-linejoin="round"/>
<path d="M148.069 241.276C148.069 241.276 147.369 247.576 149.069 249.276C150.769 250.976 152.969 251.476 152.969 251.476" stroke="#000631" stroke-width="0.7" stroke-linecap="round" stroke-linejoin="round"/>
<path d="M152.969 249.276C152.969 249.276 153.369 252.776 152.969 254.276" stroke="#000631" stroke-width="0.7" stroke-linecap="round" stroke-linejoin="round"/>
<path d="M149.669 227.376C149.669 227.376 148.469 241.076 159.569 245.976C170.669 250.976 176.069 247.476 177.869 245.876C179.569 244.276 187.169 237.676 182.569 225.976C177.869 214.376 167.369 213.776 164.069 214.376C160.669 214.876 154.869 218.776 150.569 225.476" stroke="#000631" stroke-width="0.7" stroke-linecap="round" stroke-linejoin="round"/>
<path d="M153.969 220.276C153.969 220.276 147.269 217.276 145.369 218.276C143.569 219.376 142.869 222.676 143.169 225.976C143.569 229.276 146.869 235.976 148.869 237.076" stroke="#000631" stroke-width="0.7" stroke-linecap="round" stroke-linejoin="round"/>
<path d="M150.269 234.176C150.269 234.176 159.969 221.976 170.569 222.376" stroke="#000631" stroke-width="0.4" stroke-linecap="round" stroke-linejoin="round"/>
<path d="M173.469 223.176C173.469 223.176 183.169 231.876 181.069 241.676" stroke="#000631" stroke-width="0.4" stroke-linecap="round" stroke-linejoin="round"/>
<path d="M171.269 220.276C171.269 220.276 166.369 213.976 162.669 214.676" stroke="#000631" stroke-width="0.4" stroke-linecap="round" stroke-linejoin="round"/>
<path d="M173.469 220.976C173.469 220.976 176.269 218.776 177.669 218.776" stroke="#000631" stroke-width="0.4" stroke-linecap="round" stroke-linejoin="round"/>
<path d="M172.869 220.276C172.369 219.876 171.269 219.876 170.669 220.976C170.169 222.076 171.169 224.076 172.869 223.576C174.069 223.176 174.069 220.476 172.869 220.476" stroke="#000631" stroke-width="0.4" stroke-linecap="round" stroke-linejoin="round"/>
<path d="M140.769 282.576C136.869 284.176 130.169 280.376 130.169 280.376C131.869 278.676 131.869 271.976 133.369 269.276C134.869 266.476 133.169 262.176 138.569 257.576C142.369 254.276 154.569 254.276 154.569 254.276C154.569 254.276 163.469 254.276 165.669 254.776C165.669 254.776 175.169 253.176 179.569 254.776C183.969 256.476 188.169 265.676 189.069 269.976C190.069 274.276 192.369 278.076 192.369 278.076C192.369 278.076 188.969 280.876 185.069 281.976C181.269 283.076 177.869 282.576 177.869 282.576" stroke="#000631" stroke-width="0.7" stroke-linecap="round" stroke-linejoin="round"/>
<path d="M140.369 280.476C140.369 280.476 138.669 272.276 138.069 269.976" stroke="#000631" stroke-width="0.7" stroke-linecap="round" stroke-linejoin="round"/>
<path d="M140.369 274.676C140.169 274.276 140.469 267.376 139.269 266.076" stroke="#000631" stroke-width="0.7" stroke-linecap="round" stroke-linejoin="round"/>
<path d="M155.169 306.976C155.169 306.976 145.869 303.976 144.969 299.076" stroke="#000631" stroke-width="0.7" stroke-linecap="round" stroke-linejoin="round"/>
<path d="M143.569 286.476C143.569 286.476 149.669 300.276 156.869 303.576" stroke="#000631" stroke-width="0.7" stroke-linecap="round" stroke-linejoin="round"/>
<path d="M177.869 285.276C177.869 285.276 173.769 301.876 170.569 303.076" stroke="#000631" stroke-width="0.7" stroke-linecap="round" stroke-linejoin="round"/>
<path d="M177.369 271.476C177.369 271.476 178.469 289.176 178.969 293.076C179.569 296.976 180.669 299.776 180.669 299.776C178.969 304.176 167.969 310.876 157.369 310.876C146.869 310.876 138.069 306.276 138.069 306.276C138.069 306.276 138.569 305.276 138.569 303.576C138.569 301.976 139.069 300.276 139.869 297.876C140.569 295.376 140.969 271.776 140.969 271.776" stroke="#000631" stroke-width="0.7" stroke-linecap="round" stroke-linejoin="round"/>
<path d="M178.069 280.476C178.069 280.476 180.169 270.376 181.269 270.376C182.369 270.376 181.269 272.976 181.269 272.976" stroke="#000631" stroke-width="0.7" stroke-linecap="round" stroke-linejoin="round"/>
<path d="M178.969 281.476C178.969 281.476 184.569 276.976 185.069 275.876" stroke="#000631" stroke-width="0.7" stroke-linecap="round" stroke-linejoin="round"/>
<path d="M190.569 279.376C191.169 279.776 192.869 290.876 191.769 293.076C190.669 295.276 178.969 293.076 178.969 293.076" stroke="#000631" stroke-width="0.7" stroke-linecap="round" stroke-linejoin="round"/>
<path d="M179.869 282.676C179.869 282.676 180.669 288.676 181.269 289.176" stroke="#000631" stroke-width="0.7" stroke-linecap="round" stroke-linejoin="round"/>
<path d="M132.669 281.976C132.669 281.976 130.769 294.276 132.669 296.976C134.669 299.776 140.169 295.176 140.169 295.176" stroke="#000631" stroke-width="0.7" stroke-linecap="round" stroke-linejoin="round"/>
<path d="M151.369 254.376C151.269 254.276 161.669 257.276 169.769 254.376" stroke="#000631" stroke-width="0.7" stroke-linecap="round" stroke-linejoin="round"/>
<path d="M139.269 306.976C139.269 306.976 139.069 315.776 142.369 319.176C145.769 322.476 157.969 322.476 162.369 322.476C166.769 322.476 175.669 321.776 180.169 318.576C184.569 315.376 188.969 308.576 190.369 306.976C191.769 305.276 197.169 296.276 191.769 293.076" stroke="#000631" stroke-width="0.7" stroke-linecap="round" stroke-linejoin="round"/>
<path d="M185.569 306.976C184.969 305.876 179.869 301.076 179.869 301.076L185.069 303.076" stroke="#000631" stroke-width="0.7" stroke-linecap="round" stroke-linejoin="round"/>
<path d="M140.169 296.976C140.169 296.976 134.369 299.176 133.669 303.576C132.969 308.076 139.969 314.076 139.969 314.076" stroke="#000631" stroke-width="0.7" stroke-linecap="round" stroke-linejoin="round"/>
<path d="M212.869 288.076V284.176M212.869 288.076L217.869 286.976V283.076L212.869 284.176M212.869 288.076L202.469 284.876V281.476L212.869 284.176" stroke="#000631" stroke-width="0.6" stroke-linecap="round" stroke-linejoin="round"/>
<path d="M202.469 281.476L206.169 280.876" stroke="#000631" stroke-width="0.6" stroke-linecap="round" stroke-linejoin="round"/>
<path d="M206.769 280.876C206.769 280.876 210.669 280.876 209.869 280.576C208.369 280.076 206.569 280.576 206.569 280.576V281.476C206.569 281.476 208.169 281.876 209.969 281.376L210.069 280.876L212.469 281.476" stroke="#000631" stroke-width="0.6" stroke-linecap="round" stroke-linejoin="round"/>
<path d="M211.269 281.976C211.269 281.976 215.169 281.976 214.369 281.776C212.969 281.176 211.169 281.776 211.169 281.776V282.576C211.169 282.576 212.769 282.976 214.469 282.476L214.669 281.976" stroke="#000631" stroke-width="0.6" stroke-linecap="round" stroke-linejoin="round"/>
<path d="M214.469 281.876L217.469 282.976" stroke="#000631" stroke-width="0.6" stroke-linecap="round" stroke-linejoin="round"/>
<path d="M215.669 306.576L215.969 302.376M215.669 306.576L221.169 305.876L221.469 301.676L215.969 302.376M215.669 306.576L204.769 302.176L205.069 298.376L215.969 302.376" stroke="#000631" stroke-width="0.6" stroke-linecap="round" stroke-linejoin="round"/>
<path d="M205.069 298.376L209.169 298.176" stroke="#000631" stroke-width="0.6" stroke-linecap="round" stroke-linejoin="round"/>
<path d="M209.769 298.176C209.769 298.176 213.969 298.576 213.169 298.276C211.569 297.576 209.669 297.876 209.669 297.876L209.569 298.776C209.569 298.776 211.169 299.376 213.169 299.076L213.369 298.576L215.869 299.376" stroke="#000631" stroke-width="0.6" stroke-linecap="round" stroke-linejoin="round"/>
<path d="M214.569 299.876C214.569 299.876 218.769 300.276 217.969 299.876C216.369 299.176 214.469 299.576 214.469 299.576L214.369 300.476C214.369 300.476 215.969 301.076 217.969 300.676L218.169 300.176" stroke="#000631" stroke-width="0.6" stroke-linecap="round" stroke-linejoin="round"/>
<path d="M218.069 300.076L221.169 301.476" stroke="#000631" stroke-width="0.6" stroke-linecap="round" stroke-linejoin="round"/>
<path d="M115.369 241.276L115.069 237.076M115.369 241.276L120.669 239.676L120.369 235.476L115.069 237.076M115.369 241.276L103.869 238.576L103.669 234.876L115.069 237.076" stroke="#000631" stroke-width="0.6" stroke-linecap="round" stroke-linejoin="round"/>
<path d="M103.669 234.876L107.669 233.976" stroke="#000631" stroke-width="0.6" stroke-linecap="round" stroke-linejoin="round"/>
<path d="M108.269 233.876C108.269 233.876 112.469 233.576 111.569 233.376C109.969 232.976 108.069 233.676 108.069 233.676L108.169 234.476C108.169 234.476 109.869 234.876 111.769 234.176L111.869 233.676L114.469 234.076" stroke="#000631" stroke-width="0.6" stroke-linecap="round" stroke-linejoin="round"/>
<path d="M113.269 234.776C113.269 234.776 117.469 234.476 116.569 234.276C114.969 233.776 113.069 234.476 113.069 234.476L113.169 235.376C113.169 235.376 114.869 235.676 116.769 235.076L116.869 234.476" stroke="#000631" stroke-width="0.6" stroke-linecap="round" stroke-linejoin="round"/>
<path d="M116.769 234.476L120.069 235.376" stroke="#000631" stroke-width="0.6" stroke-linecap="round" stroke-linejoin="round"/>
<path d="M107.569 257.576L106.669 257.376" stroke="#000631" stroke-width="0.5" stroke-linecap="round" stroke-linejoin="round"/>
<path d="M112.869 258.276L111.069 257.976" stroke="#000631" stroke-width="0.5" stroke-linecap="round" stroke-linejoin="round"/>
<path d="M118.569 259.076L116.769 258.876" stroke="#000631" stroke-width="0.5" stroke-linecap="round" stroke-linejoin="round"/>
<path d="M106.769 257.476L101.969 262.376L119.869 264.976L125.069 259.976L122.569 259.676" stroke="#000631" stroke-width="0.5" stroke-linecap="round" stroke-linejoin="round"/>
<path d="M101.969 262.376L101.669 266.776L119.569 269.776L124.769 264.376L125.069 259.976" stroke="#000631" stroke-width="0.5" stroke-linecap="round" stroke-linejoin="round"/>
<path d="M119.869 264.976L119.569 269.776" stroke="#000631" stroke-width="0.5" stroke-linecap="round" stroke-linejoin="round"/>
<path d="M104.969 260.576V261.876C104.969 261.876 106.569 263.176 108.669 262.076V260.976M108.669 260.976C108.669 260.976 108.669 259.576 106.069 260.076C103.869 260.576 106.069 261.876 108.669 260.976Z" stroke="#000631" stroke-width="0.5" stroke-linecap="round" stroke-linejoin="round"/>
<path d="M107.169 257.976V259.276C107.169 259.276 108.769 260.576 110.869 259.376V258.276M110.869 258.276C110.869 258.276 110.869 256.876 108.269 257.476C106.069 257.876 108.269 259.176 110.869 258.276Z" stroke="#000631" stroke-width="0.5" stroke-linecap="round" stroke-linejoin="round"/>
<path d="M110.769 261.076V262.276C110.769 262.276 112.269 263.576 114.369 262.476V261.376C114.369 261.376 114.369 259.976 111.769 260.576C109.569 260.976 111.769 262.276 114.469 261.376" stroke="#000631" stroke-width="0.5" stroke-linecap="round" stroke-linejoin="round"/>
<path d="M112.969 258.376V259.676C112.969 259.676 114.469 260.976 116.569 259.876V258.776C116.569 258.776 116.569 257.376 113.969 257.876C111.769 258.276 113.969 259.676 116.669 258.776" stroke="#000631" stroke-width="0.5" stroke-linecap="round" stroke-linejoin="round"/>
<path d="M116.469 261.976V263.176C116.469 263.176 118.069 264.476 120.169 263.376V262.276M120.169 262.276C120.169 262.276 120.069 260.876 117.469 261.376C115.369 261.876 117.469 263.176 120.169 262.276Z" stroke="#000631" stroke-width="0.5" stroke-linecap="round" stroke-linejoin="round"/>
<path d="M118.669 259.276V260.576C118.669 260.576 120.269 261.876 122.369 260.776V259.676M122.369 259.676C122.369 259.676 122.269 258.276 119.669 258.776C117.569 259.176 119.669 260.576 122.369 259.676Z" stroke="#000631" stroke-width="0.5" stroke-linecap="round" stroke-linejoin="round"/>
<path d="M120.869 245.876L119.969 245.776" stroke="#000631" stroke-width="0.5" stroke-linecap="round" stroke-linejoin="round"/>
<path d="M126.169 246.676L124.369 246.376" stroke="#000631" stroke-width="0.5" stroke-linecap="round" stroke-linejoin="round"/>
<path d="M131.869 247.476L130.069 247.176" stroke="#000631" stroke-width="0.5" stroke-linecap="round" stroke-linejoin="round"/>
<path d="M120.069 245.876L115.27 250.776L133.17 253.276L138.37 248.376L135.87 247.976" stroke="#000631" stroke-width="0.5" stroke-linecap="round" stroke-linejoin="round"/>
<path d="M115.269 250.776L114.969 255.176L132.869 258.176L138.069 252.676L138.369 248.376" stroke="#000631" stroke-width="0.5" stroke-linecap="round" stroke-linejoin="round"/>
<path d="M133.169 253.276L132.869 258.176" stroke="#000631" stroke-width="0.5" stroke-linecap="round" stroke-linejoin="round"/>
<path d="M118.27 248.976V250.276C118.27 250.276 119.869 251.576 121.969 250.376V249.276M121.969 249.276C121.969 249.276 121.97 247.876 119.37 248.476C117.17 248.876 119.369 250.176 121.969 249.276Z" stroke="#000631" stroke-width="0.5" stroke-linecap="round" stroke-linejoin="round"/>
<path d="M120.569 246.276V247.576C120.569 247.576 122.069 248.876 124.169 247.776V246.676C124.169 246.676 124.169 245.276 121.569 245.776C119.369 246.276 121.569 247.576 124.269 246.676" stroke="#000631" stroke-width="0.5" stroke-linecap="round" stroke-linejoin="round"/>
<path d="M124.069 249.376V250.676C124.069 250.676 125.569 251.976 127.669 250.876V249.776C127.669 249.776 127.669 248.376 125.069 248.876C122.869 249.276 125.069 250.676 127.769 249.776" stroke="#000631" stroke-width="0.5" stroke-linecap="round" stroke-linejoin="round"/>
<path d="M126.27 246.776V247.976C126.27 247.976 127.77 249.276 129.87 248.176V247.076C129.87 247.076 129.87 245.676 127.27 246.276C125.17 246.676 127.269 247.976 129.969 247.076" stroke="#000631" stroke-width="0.5" stroke-linecap="round" stroke-linejoin="round"/>
<path d="M129.77 250.276V251.576C129.77 251.576 131.369 252.876 133.469 251.776V250.676M133.469 250.676C133.469 250.676 133.37 249.276 130.77 249.776C128.67 250.176 130.769 251.576 133.469 250.676Z" stroke="#000631" stroke-width="0.5" stroke-linecap="round" stroke-linejoin="round"/>
<path d="M131.969 247.676V248.876C131.969 248.876 133.569 250.176 135.669 249.076V247.976M135.669 247.976C135.669 247.976 135.569 246.576 132.969 247.076C130.869 247.576 132.969 248.876 135.669 247.976Z" stroke="#000631" stroke-width="0.5" stroke-linecap="round" stroke-linejoin="round"/>
<path d="M198.469 259.776L197.669 259.676" stroke="#000631" stroke-width="0.5" stroke-linecap="round" stroke-linejoin="round"/>
<path d="M203.769 260.476L201.969 260.276" stroke="#000631" stroke-width="0.5" stroke-linecap="round" stroke-linejoin="round"/>
<path d="M209.569 261.276L207.77 261.076" stroke="#000631" stroke-width="0.5" stroke-linecap="round" stroke-linejoin="round"/>
<path d="M197.669 259.676L192.869 264.576L210.869 267.176L216.069 262.176L213.569 261.876" stroke="#000631" stroke-width="0.5" stroke-linecap="round" stroke-linejoin="round"/>
<path d="M192.869 264.576L192.569 268.976L210.469 271.976L215.769 266.576L216.069 262.176" stroke="#000631" stroke-width="0.5" stroke-linecap="round" stroke-linejoin="round"/>
<path d="M210.869 267.176L210.469 271.976" stroke="#000631" stroke-width="0.5" stroke-linecap="round" stroke-linejoin="round"/>
<path d="M195.969 262.876V264.076C195.969 264.076 197.469 265.376 199.569 264.276V263.176C199.569 263.176 199.569 261.776 196.969 262.276C194.769 262.776 196.969 264.076 199.669 263.176" stroke="#000631" stroke-width="0.5" stroke-linecap="round" stroke-linejoin="round"/>
<path d="M198.169 260.176V261.476C198.169 261.476 199.669 262.776 201.769 261.676V260.576C201.769 260.576 201.769 259.076 199.169 259.676C197.069 260.076 199.169 261.376 201.869 260.576" stroke="#000631" stroke-width="0.5" stroke-linecap="round" stroke-linejoin="round"/>
<path d="M201.669 263.276V264.576C201.669 264.576 203.269 265.876 205.369 264.676V263.676M205.369 263.676C205.369 263.676 205.269 262.176 202.669 262.776C200.569 263.176 202.669 264.476 205.369 263.676Z" stroke="#000631" stroke-width="0.5" stroke-linecap="round" stroke-linejoin="round"/>
<path d="M203.869 260.676V261.876C203.869 261.876 205.469 263.176 207.569 262.076V260.976M207.569 260.976C207.569 260.976 207.469 259.576 204.869 260.076C202.769 260.576 204.869 261.876 207.569 260.976Z" stroke="#000631" stroke-width="0.5" stroke-linecap="round" stroke-linejoin="round"/>
<path d="M207.469 264.176V265.376C207.469 265.376 208.969 266.676 211.069 265.576V264.476C211.069 264.476 211.069 263.076 208.469 263.676C206.269 264.076 208.469 265.376 211.169 264.476" stroke="#000631" stroke-width="0.5" stroke-linecap="round" stroke-linejoin="round"/>
<path d="M209.669 261.476V262.776C209.669 262.776 211.169 264.076 213.269 262.976V261.876C213.269 261.876 213.269 260.476 210.669 260.976C208.469 261.376 210.669 262.776 213.369 261.876" stroke="#000631" stroke-width="0.5" stroke-linecap="round" stroke-linejoin="round"/>
<path d="M187.169 192.676L186.269 208.276L229.169 217.176L229.669 200.976L187.369 192.676L212.369 181.576L235.469 185.776" stroke="#000631" stroke-width="0.7" stroke-linecap="round" stroke-linejoin="round"/>
<path d="M187.369 192.676H173.769V209.376L186.269 208.276L177.369 215.776C177.369 215.776 175.069 214.376 173.769 215.776" stroke="#000631" stroke-width="0.7" stroke-linecap="round" stroke-linejoin="round"/>
<path d="M177.369 215.776C177.369 215.776 222.269 227.076 222.569 225.976C222.869 224.876 229.169 217.176 229.169 217.176L233.869 219.876" stroke="#000631" stroke-width="0.7" stroke-linecap="round" stroke-linejoin="round"/>
<path d="M222.569 225.976C222.569 225.976 220.769 228.076 219.569 228.176L175.569 217.476" stroke="#000631" stroke-width="0.7" stroke-linecap="round" stroke-linejoin="round"/>
<path d="M237.869 204.276C237.469 204.076 229.469 201.076 229.669 200.976L237.869 197.576" stroke="#000631" stroke-width="0.7" stroke-linecap="round" stroke-linejoin="round"/>
<path d="M269.369 295.276C257.469 295.276 247.769 304.976 247.769 316.976C247.769 328.876 257.469 338.576 269.369 338.576C281.369 338.576 291.069 328.876 291.069 316.976C291.069 304.976 281.369 295.376 269.469 295.276" stroke="#000631" stroke-width="0.8" stroke-linecap="round" stroke-linejoin="round"/>
<path d="M269.769 298.876C271.569 298.876 272.969 299.676 272.969 300.576C272.969 301.476 271.569 302.276 269.769 302.276C267.969 302.276 266.469 301.476 266.469 300.576C266.469 299.676 267.969 298.876 269.769 298.876Z" stroke="#000631" stroke-width="0.4" stroke-linecap="round" stroke-linejoin="round"/>
<path d="M272.969 300.576C272.969 300.576 286.069 302.476 291.069 316.976" stroke="#000631" stroke-width="0.4" stroke-linecap="round" stroke-linejoin="round"/>
<path d="M269.769 302.276C269.769 302.276 278.069 319.076 274.269 337.176" stroke="#000631" stroke-width="0.4" stroke-linecap="round" stroke-linejoin="round"/>
<path d="M266.469 300.576C266.469 300.576 249.769 306.676 250.469 327.276" stroke="#000631" stroke-width="0.4" stroke-linecap="round" stroke-linejoin="round"/>
<path d="M273.869 295.876C273.869 295.876 271.669 295.876 269.969 298.676" stroke="#000631" stroke-width="0.4" stroke-linecap="round" stroke-linejoin="round"/>
<path d="M260.969 296.976C260.969 296.976 265.569 296.976 267.769 299.176" stroke="#000631" stroke-width="0.4" stroke-linecap="round" stroke-linejoin="round"/>
<path d="M212.569 327.776C208.569 327.776 205.369 330.976 205.369 334.976C205.369 338.976 208.569 342.176 212.569 342.176C216.569 342.176 219.769 338.976 219.769 334.976C219.769 330.976 216.569 327.776 212.569 327.776Z" stroke="#000631" stroke-width="0.8" stroke-linecap="round" stroke-linejoin="round"/>
<path d="M236.969 338.276C233.869 338.276 231.469 340.776 231.469 343.776C231.469 346.876 233.869 349.376 236.969 349.376C240.069 349.376 242.469 346.876 242.469 343.776C242.469 340.776 240.069 338.276 236.969 338.276Z" stroke="#000631" stroke-width="0.8" stroke-linecap="round" stroke-linejoin="round"/>
<path d="M186.269 208.276L210.169 197.176" stroke="#000631" stroke-width="0.7" stroke-linecap="round" stroke-linejoin="round"/>
<path d="M290.569 219.876C305.469 224.576 318.869 230.376 330.269 236.976" stroke="#000631" stroke-width="1.1" stroke-linecap="round" stroke-linejoin="round"/>
<path d="M96.269 219.076C119.069 212.076 145.269 207.576 173.469 206.176" stroke="#000631" stroke-width="1.1" stroke-linecap="round" stroke-linejoin="round"/>
<path d="M60.769 233.276C66.169 230.476 71.9356 227.843 78.069 225.376" stroke="#000631" stroke-width="1.1" stroke-linecap="round" stroke-linejoin="round"/>
<path d="M312.569 355.276C280.769 369.176 238.469 377.676 192.069 377.676C93.1692 377.676 12.9692 339.176 12.9692 291.676C12.9692 275.276 22.4692 259.976 39.0692 246.976" stroke="#000631" stroke-width="1.1" stroke-linecap="round" stroke-linejoin="round"/>
<path d="M266.469 300.576C266.469 300.576 250.069 306.376 250.469 327.276C250.469 327.276 254.269 334.976 262.569 337.476C270.769 339.976 273.869 337.976 273.869 337.976C273.869 337.976 276.569 332.576 274.769 319.076C272.969 305.576 269.769 302.276 269.769 302.276C269.769 302.276 267.169 302.776 266.469 300.576Z" fill="#344A6B"/>
</svg>
