<svg width="463" height="330" viewBox="0 0 463 330" fill="none" xmlns="http://www.w3.org/2000/svg">
<path d="M106.369 116.076C106.369 116.076 103.769 114.376 102.869 115.576C101.869 116.676 101.569 121.876 102.869 124.776C104.069 127.776 106.369 128.876 107.469 127.776C107.469 127.776 109.069 134.976 108.569 142.676" stroke="#000631" stroke-width="0.8" stroke-linecap="round" stroke-linejoin="round"/>
<path d="M102.869 115.576C102.869 115.576 100.269 108.876 99.6691 104.976C99.0691 101.076 101.169 95.5762 101.569 94.1762C101.869 92.7762 105.169 89.8762 106.869 89.9762C108.569 89.9762 112.369 89.9762 112.369 89.9762" stroke="#000631" stroke-width="0.8" stroke-linecap="round" stroke-linejoin="round"/>
<path d="M112.369 91.1761C112.369 91.1761 113.569 86.6761 118.569 87.2761C123.469 87.7761 126.269 91.6761 129.069 92.7761" stroke="#000631" stroke-width="0.8" stroke-linecap="round" stroke-linejoin="round"/>
<path d="M123.469 89.0762C123.469 89.0762 136.169 92.2762 137.069 92.7762C137.969 93.3762 139.269 98.7762 138.869 102.776C137.969 110.576 135.669 114.376 135.669 114.376" stroke="#000631" stroke-width="0.8" stroke-linecap="round" stroke-linejoin="round"/>
<path d="M107.469 115.576C107.469 115.576 109.069 110.576 109.069 106.676C109.069 102.776 107.469 98.3761 111.269 98.3761" stroke="#000631" stroke-width="0.8" stroke-linecap="round" stroke-linejoin="round"/>
<path d="M112.369 98.3762C112.369 98.3762 115.169 91.6762 118.769 92.7762C122.369 93.8762 127.369 101.676 130.169 103.376C132.969 104.976 135.669 106.676 135.669 108.876" stroke="#000631" stroke-width="0.8" stroke-linecap="round" stroke-linejoin="round"/>
<path d="M115.169 97.2761C115.169 97.2761 118.969 91.8761 121.269 94.2761" stroke="#000631" stroke-width="0.8" stroke-linecap="round" stroke-linejoin="round"/>
<path d="M111.269 90.6761C111.269 90.6761 112.269 93.3761 112.369 95.8761" stroke="#000631" stroke-width="0.8" stroke-linecap="round" stroke-linejoin="round"/>
<path d="M125.769 93.8761C126.269 94.4761 131.869 98.3761 135.169 101.676C138.469 104.976 138.369 105.576 137.569 108.876" stroke="#000631" stroke-width="0.4" stroke-linecap="round" stroke-linejoin="round"/>
<path d="M109.369 93.8761C109.369 93.8761 103.569 90.6761 100.969 96.5761" stroke="#000631" stroke-width="0.4" stroke-linecap="round" stroke-linejoin="round"/>
<path d="M107.469 94.8761C107.469 94.8761 103.469 95.2761 101.969 98.3761C100.469 101.376 101.069 107.276 101.269 110.176" stroke="#000631" stroke-width="0.4" stroke-linecap="round" stroke-linejoin="round"/>
<path d="M106.869 97.2761C106.869 97.2761 104.669 98.0761 105.669 101.376C106.569 104.676 105.269 107.676 105.369 109.276" stroke="#000631" stroke-width="0.4" stroke-linecap="round" stroke-linejoin="round"/>
<path d="M119.969 96.5762C119.969 96.5762 121.269 93.9762 122.969 95.8762" stroke="#000631" stroke-width="0.8" stroke-linecap="round" stroke-linejoin="round"/>
<path d="M110.169 134.376C110.169 134.976 117.869 139.276 120.669 140.476C123.469 141.576 127.969 140.476 129.069 139.076C130.169 137.676 133.469 131.576 134.569 125.476C135.669 119.376 134.069 117.576 134.569 114.376C135.169 111.276 134.169 106.076 134.169 106.076" stroke="#000631" stroke-width="0.8" stroke-linecap="round" stroke-linejoin="round"/>
<path d="M134.569 114.376C134.569 114.376 135.369 113.676 136.069 115.176C136.869 116.676 135.069 122.376 135.069 122.376" stroke="#000631" stroke-width="0.8" stroke-linecap="round" stroke-linejoin="round"/>
<path d="M104.169 117.276C104.169 117.276 107.969 120.376 107.469 124.076C107.469 124.076 105.569 122.076 105.369 124.076" stroke="#000631" stroke-width="0.8" stroke-linecap="round" stroke-linejoin="round"/>
<path d="M105.169 118.276C105.169 118.276 102.969 119.976 103.569 121.676" stroke="#000631" stroke-width="0.8" stroke-linecap="round" stroke-linejoin="round"/>
<path d="M129.869 137.876V142.376" stroke="#000631" stroke-width="0.8" stroke-linecap="round" stroke-linejoin="round"/>
<path d="M108.069 141.876C108.069 141.876 111.869 147.176 121.869 149.376C121.869 149.376 123.469 149.876 125.169 148.776C126.869 147.676 130.769 142.176 130.769 141.576" stroke="#000631" stroke-width="0.8" stroke-linecap="round" stroke-linejoin="round"/>
<path d="M108.669 140.076C108.669 140.076 107.169 140.876 106.169 142.376C105.169 143.776 104.469 149.976 103.469 152.476C103.469 152.476 113.569 159.376 121.269 160.976C121.269 160.976 121.169 151.576 124.069 149.376" stroke="#000631" stroke-width="0.8" stroke-linecap="round" stroke-linejoin="round"/>
<path d="M125.169 148.776C125.169 148.776 127.969 150.976 129.869 157.876C130.169 158.776 133.469 147.676 133.469 147.176C133.469 146.576 131.969 142.776 131.869 141.576C131.869 139.976 130.169 140.276 129.869 140.376" stroke="#000631" stroke-width="0.8" stroke-linecap="round" stroke-linejoin="round"/>
<path d="M122.069 156.276C122.069 156.276 122.969 157.276 125.169 157.476C127.369 157.676 127.969 152.676 127.969 152.676" stroke="#000631" stroke-width="0.8" stroke-linecap="round" stroke-linejoin="round"/>
<path d="M103.869 149.076C103.869 148.276 93.5692 153.276 90.2692 155.976C88.0692 157.776 86.8692 158.276 85.7692 159.876C84.6692 161.576 82.4691 184.876 81.3691 190.376C81.3691 190.376 95.4691 196.176 105.369 193.576C105.369 193.576 104.069 179.276 104.669 175.976C105.169 172.676 106.369 168.776 106.369 168.776" stroke="#000631" stroke-width="0.8" stroke-linecap="round" stroke-linejoin="round"/>
<path d="M101.369 171.676C101.369 171.676 103.569 183.176 104.069 184.276" stroke="#000631" stroke-width="0.8" stroke-linecap="round" stroke-linejoin="round"/>
<path d="M98.569 176.576C98.569 176.576 101.569 182.076 101.969 184.276C102.469 186.476 98.569 181.476 95.269 181.476" stroke="#000631" stroke-width="0.8" stroke-linecap="round" stroke-linejoin="round"/>
<path d="M132.469 143.876C132.969 143.776 145.169 146.576 146.269 146.576C147.369 146.576 148.469 146.576 149.069 147.676C149.569 148.776 161.769 159.376 163.969 162.076" stroke="#000631" stroke-width="0.8" stroke-linecap="round" stroke-linejoin="round"/>
<path d="M150.169 160.976C150.169 160.976 151.269 182.076 151.769 185.376" stroke="#000631" stroke-width="0.8" stroke-linecap="round" stroke-linejoin="round"/>
<path d="M150.969 171.276C151.769 170.976 154.569 161.576 154.569 162.676C154.569 163.776 153.469 168.176 153.469 168.176" stroke="#000631" stroke-width="0.8" stroke-linecap="round" stroke-linejoin="round"/>
<path d="M151.469 178.676C151.469 178.676 155.569 184.276 156.169 184.276C156.169 184.276 159.569 173.776 163.969 171.576" stroke="#000631" stroke-width="0.8" stroke-linecap="round" stroke-linejoin="round"/>
<path d="M102.769 194.076L103.469 199.076" stroke="#000631" stroke-width="0.8" stroke-linecap="round" stroke-linejoin="round"/>
<path d="M85.769 191.976C85.769 191.976 87.469 206.476 89.669 214.276C91.869 221.976 98.569 224.776 100.269 224.176C101.869 223.676 110.169 215.876 114.069 209.776C117.969 203.676 124.069 191.276 124.069 191.276" stroke="#000631" stroke-width="0.8" stroke-linecap="round" stroke-linejoin="round"/>
<path d="M96.0693 207.776C96.0693 207.776 102.969 198.676 108.569 193.676C114.069 188.776 119.669 184.276 119.669 184.276C119.669 184.276 120.569 182.076 122.569 181.476C122.569 181.476 125.169 178.776 127.969 178.776C130.769 178.776 141.269 180.376 142.969 180.376C144.569 180.376 149.169 181.276 150.169 182.476C150.169 182.476 152.269 184.076 147.369 183.676" stroke="#000631" stroke-width="0.8" stroke-linecap="round" stroke-linejoin="round"/>
<path d="M122.069 188.276C122.369 189.276 123.469 190.976 126.869 191.476C130.169 192.076 140.069 193.276 141.269 193.676C142.469 194.176 141.769 190.976 138.869 190.776C136.369 190.576 135.169 189.876 134.069 187.576C132.969 185.376 128.469 182.076 126.269 182.676" stroke="#000631" stroke-width="0.8" stroke-linecap="round" stroke-linejoin="round"/>
<path d="M135.669 189.776C135.669 189.776 144.969 189.576 147.869 190.976C150.869 192.276 151.269 189.776 147.369 188.176C143.469 186.476 139.069 186.476 139.069 186.476" stroke="#000631" stroke-width="0.8" stroke-linecap="round" stroke-linejoin="round"/>
<path d="M139.569 184.276C139.569 184.276 144.069 184.076 148.269 185.876C152.369 187.576 152.669 188.276 152.769 189.076C152.869 189.876 150.069 189.476 148.769 188.876" stroke="#000631" stroke-width="0.8" stroke-linecap="round" stroke-linejoin="round"/>
<path d="M140.869 182.576C140.869 182.576 147.069 183.176 149.169 184.276C151.269 185.376 152.769 186.776 151.469 187.476" stroke="#000631" stroke-width="0.8" stroke-linecap="round" stroke-linejoin="round"/>
<path d="M127.269 155.876C127.269 155.876 131.569 168.776 133.069 178.776" stroke="#000631" stroke-width="0.8" stroke-linecap="round" stroke-linejoin="round"/>
<path d="M123.369 157.076C123.369 157.076 125.769 172.676 125.169 179.276" stroke="#000631" stroke-width="0.8" stroke-linecap="round" stroke-linejoin="round"/>
<path d="M125.869 191.276C125.869 191.276 125.769 200.876 125.769 205.876" stroke="#000631" stroke-width="0.8" stroke-linecap="round" stroke-linejoin="round"/>
<path d="M134.269 192.576C134.269 192.576 136.069 199.676 136.269 202.076" stroke="#000631" stroke-width="0.8" stroke-linecap="round" stroke-linejoin="round"/>
<path d="M151.769 189.476L152.369 195.376" stroke="#000631" stroke-width="0.8" stroke-linecap="round" stroke-linejoin="round"/>
<path d="M104.869 187.476C104.869 187.476 107.169 191.376 108.669 192.576" stroke="#000631" stroke-width="0.8" stroke-linecap="round" stroke-linejoin="round"/>
<path d="M157.269 183.276C157.269 183.276 163.469 189.476 167.369 191.076C171.169 192.576 172.569 192.576 174.169 192.576C175.669 192.576 176.169 188.176 176.769 186.476C177.269 184.876 178.969 178.776 178.369 169.276C177.869 159.876 175.669 148.976 176.169 145.576C176.769 142.176 179.569 138.776 180.669 134.976C181.769 131.076 179.569 124.376 178.969 123.876C178.369 123.276 173.969 124.376 173.469 125.476C172.869 126.576 172.869 130.476 173.469 132.176C173.969 133.876 177.269 133.276 177.869 131.076C178.369 128.876 177.869 128.276 176.769 128.276" stroke="#000631" stroke-width="0.8" stroke-linecap="round" stroke-linejoin="round"/>
<path d="M176.169 129.976L176.769 127.176" stroke="#000631" stroke-width="0.8" stroke-linecap="round" stroke-linejoin="round"/>
<path d="M173.169 130.776C173.169 130.776 169.969 132.176 170.069 128.576C170.069 124.976 171.769 121.676 173.169 121.676C174.569 121.676 176.269 121.076 177.369 121.676C178.369 122.176 178.969 123.876 178.969 123.876" stroke="#000631" stroke-width="0.8" stroke-linecap="round" stroke-linejoin="round"/>
<path d="M163.969 128.276C163.969 128.276 166.569 131.076 170.269 129.976" stroke="#000631" stroke-width="0.8" stroke-linecap="round" stroke-linejoin="round"/>
<path d="M170.069 126.176C170.069 126.176 167.369 124.476 165.669 123.876C163.969 123.276 162.369 123.276 161.769 124.976C161.269 126.576 160.069 136.576 161.769 138.276C163.469 139.976 165.469 143.376 166.169 144.876C166.169 144.876 162.369 173.376 164.569 180.176" stroke="#000631" stroke-width="0.8" stroke-linecap="round" stroke-linejoin="round"/>
<path d="M168.269 142.376C168.269 142.376 166.169 134.976 171.169 133.876" stroke="#000631" stroke-width="0.8" stroke-linecap="round" stroke-linejoin="round"/>
<path d="M166.569 129.976L167.069 131.076" stroke="#000631" stroke-width="0.8" stroke-linecap="round" stroke-linejoin="round"/>
<path d="M167.869 124.076C167.869 124.076 167.869 120.576 169.569 119.976C171.169 119.376 173.369 120.076 174.469 121.376" stroke="#000631" stroke-width="0.8" stroke-linecap="round" stroke-linejoin="round"/>
<path d="M170.669 119.776C170.669 119.776 170.169 110.976 170.669 107.776C170.669 107.776 168.969 107.176 167.869 109.176C166.769 111.076 167.269 114.576 167.069 116.476C166.769 118.276 165.969 122.476 165.869 123.676" stroke="#000631" stroke-width="0.8" stroke-linecap="round" stroke-linejoin="round"/>
<path d="M156.169 184.276H157.769" stroke="#000631" stroke-width="0.8" stroke-linecap="round" stroke-linejoin="round"/>
<path d="M112.369 108.876C112.369 108.876 115.469 105.476 118.669 106.076" stroke="#000631" stroke-width="0.8" stroke-linecap="round" stroke-linejoin="round"/>
<path d="M127.069 105.976C127.069 105.976 130.869 104.876 132.469 107.476" stroke="#000631" stroke-width="0.8" stroke-linecap="round" stroke-linejoin="round"/>
<path d="M125.769 110.176C125.769 110.176 124.869 113.476 125.169 116.876" stroke="#000631" stroke-width="0.4" stroke-linecap="round" stroke-linejoin="round"/>
<path d="M124.669 123.676L125.969 122.976" stroke="#000631" stroke-width="0.4" stroke-linecap="round" stroke-linejoin="round"/>
<path d="M125.969 121.276C125.969 121.276 126.469 121.876 126.569 122.976" stroke="#000631" stroke-width="0.4" stroke-linecap="round" stroke-linejoin="round"/>
<path d="M123.069 124.076C122.869 123.476 121.069 122.976 121.069 122.976C121.069 122.976 121.169 123.876 121.669 123.676" stroke="#000631" stroke-width="0.4" stroke-linecap="round" stroke-linejoin="round"/>
<path d="M119.769 123.576C119.769 123.576 119.669 122.876 120.069 122.176" stroke="#000631" stroke-width="0.4" stroke-linecap="round" stroke-linejoin="round"/>
<path d="M122.469 120.676C122.469 120.676 123.769 120.576 124.369 120.676" stroke="#000631" stroke-width="0.4" stroke-linecap="round" stroke-linejoin="round"/>
<path d="M119.769 113.276C119.769 113.276 120.069 114.676 120.269 115.576" stroke="#000631" stroke-width="0.4" stroke-linecap="round" stroke-linejoin="round"/>
<path d="M112.669 114.176C112.669 114.176 114.969 115.776 118.269 114.176" stroke="#000631" stroke-width="0.4" stroke-linecap="round" stroke-linejoin="round"/>
<path d="M127.069 114.176C127.069 114.176 129.969 114.576 131.869 113.276" stroke="#000631" stroke-width="0.4" stroke-linecap="round" stroke-linejoin="round"/>
<path d="M131.269 113.276V112.276" stroke="#000631" stroke-width="0.4" stroke-linecap="round" stroke-linejoin="round"/>
<path d="M117.669 114.376V112.776" stroke="#000631" stroke-width="0.4" stroke-linecap="round" stroke-linejoin="round"/>
<path d="M119.169 130.576C119.869 130.776 125.469 129.876 126.869 129.776C128.269 129.676 125.969 127.976 123.969 127.676C122.169 127.476 119.369 128.876 119.369 130.276" stroke="#000631" stroke-width="0.4" stroke-linecap="round" stroke-linejoin="round"/>
<path d="M126.569 128.776L126.269 129.776" stroke="#000631" stroke-width="0.4" stroke-linecap="round" stroke-linejoin="round"/>
<path d="M121.569 125.776C121.569 125.776 117.169 126.376 116.069 126.876" stroke="#000631" stroke-width="0.4" stroke-linecap="round" stroke-linejoin="round"/>
<path d="M111.269 128.976C111.269 128.976 111.069 131.576 111.269 132.876" stroke="#000631" stroke-width="0.4" stroke-linecap="round" stroke-linejoin="round"/>
<path d="M112.369 127.276C112.369 127.276 112.469 129.176 112.369 131.076" stroke="#000631" stroke-width="0.4" stroke-linecap="round" stroke-linejoin="round"/>
<path d="M113.069 132.876C113.069 132.876 113.669 136.176 113.769 136.576" stroke="#000631" stroke-width="0.4" stroke-linecap="round" stroke-linejoin="round"/>
<path d="M117.169 133.576C117.169 133.576 117.169 137.376 117.669 138.776" stroke="#000631" stroke-width="0.4" stroke-linecap="round" stroke-linejoin="round"/>
<path d="M119.169 134.676C119.369 135.176 119.469 139.376 120.269 140.076" stroke="#000631" stroke-width="0.4" stroke-linecap="round" stroke-linejoin="round"/>
<path d="M121.569 135.076C121.569 135.076 121.369 137.176 122.069 140.976" stroke="#000631" stroke-width="0.4" stroke-linecap="round" stroke-linejoin="round"/>
<path d="M123.469 134.376C123.469 134.376 122.669 138.476 123.469 139.576" stroke="#000631" stroke-width="0.4" stroke-linecap="round" stroke-linejoin="round"/>
<path d="M125.169 136.176C125.169 136.176 125.169 140.576 125.369 140.976" stroke="#000631" stroke-width="0.4" stroke-linecap="round" stroke-linejoin="round"/>
<path d="M127.069 134.176C127.069 134.176 127.769 139.176 127.169 140.276" stroke="#000631" stroke-width="0.4" stroke-linecap="round" stroke-linejoin="round"/>
<path d="M128.669 133.576C128.669 133.576 129.369 135.876 129.369 137.176" stroke="#000631" stroke-width="0.4" stroke-linecap="round" stroke-linejoin="round"/>
<path d="M130.069 130.576C130.069 130.576 130.269 132.476 130.069 133.576" stroke="#000631" stroke-width="0.4" stroke-linecap="round" stroke-linejoin="round"/>
<path d="M114.269 132.076C114.269 132.076 114.369 134.376 114.969 135.876" stroke="#000631" stroke-width="0.4" stroke-linecap="round" stroke-linejoin="round"/>
<path d="M113.469 127.376C113.469 127.376 115.469 126.276 117.469 126.076" stroke="#000631" stroke-width="0.4" stroke-linecap="round" stroke-linejoin="round"/>
<path d="M120.269 126.776C120.269 126.776 121.469 126.376 121.769 126.376" stroke="#000631" stroke-width="0.4" stroke-linecap="round" stroke-linejoin="round"/>
<path d="M124.869 125.776C124.869 125.776 129.869 125.276 130.169 126.376" stroke="#000631" stroke-width="0.4" stroke-linecap="round" stroke-linejoin="round"/>
<path d="M129.069 124.676C129.069 124.676 130.869 125.176 131.469 126.076" stroke="#000631" stroke-width="0.4" stroke-linecap="round" stroke-linejoin="round"/>
<path d="M131.869 127.376C131.869 127.376 132.269 131.176 132.469 132.076" stroke="#000631" stroke-width="0.4" stroke-linecap="round" stroke-linejoin="round"/>
<path d="M133.269 126.876C133.269 126.876 133.269 128.676 133.469 129.776" stroke="#000631" stroke-width="0.4" stroke-linecap="round" stroke-linejoin="round"/>
<path d="M195.069 98.8762C197.269 94.9762 197.269 85.0762 197.269 85.0762C197.269 85.0762 201.969 91.3762 211.369 89.1762C211.369 89.1762 207.569 89.1762 206.469 87.5762C206.469 87.5762 210.269 88.6762 214.769 88.0762C219.169 87.5762 221.369 86.9762 223.069 89.7762" stroke="#000631" stroke-width="0.6" stroke-linecap="round" stroke-linejoin="round"/>
<path d="M220.669 87.7761C220.669 87.7761 221.969 89.7761 221.969 94.1761C221.969 98.5761 222.469 103.376 221.969 106.576C221.369 109.676 218.669 116.876 218.069 118.076C217.469 119.176 214.069 120.376 212.169 119.776C210.269 119.176 202.569 116.876 200.869 115.276C199.169 113.576 196.469 108.576 195.869 106.376C195.869 106.376 194.069 106.376 191.969 103.876C189.769 101.376 188.669 96.3761 189.769 95.2761C190.869 94.1761 192.569 95.8761 195.369 99.1761" stroke="#000631" stroke-width="0.6" stroke-linecap="round" stroke-linejoin="round"/>
<path d="M194.269 104.176C192.569 101.976 194.769 101.376 194.769 101.376C194.769 99.7761 190.869 95.8761 190.869 95.8761C190.869 95.8761 190.869 98.5761 191.469 99.7761" stroke="#000631" stroke-width="0.6" stroke-linecap="round" stroke-linejoin="round"/>
<path d="M218.769 116.476C218.869 118.776 220.869 129.076 223.069 133.576C225.269 137.976 223.569 141.876 223.569 141.876C226.969 140.176 225.269 131.876 225.269 131.876C226.969 139.076 224.169 144.676 224.169 144.676C229.169 143.576 230.869 131.376 229.669 126.176C228.469 121.076 228.569 107.476 227.469 99.9761C226.369 92.4761 225.269 84.7762 219.169 77.5762C213.069 70.3762 204.169 70.3761 199.769 70.8761C195.369 71.4761 195.069 74.1761 195.069 74.1761C195.069 74.1761 193.669 73.6762 191.469 77.5762C189.269 81.4762 187.569 87.5761 188.169 96.9761C188.669 106.376 190.069 113.576 189.369 118.576C188.669 123.576 190.369 131.676 194.769 134.576C194.769 134.576 191.269 130.776 191.969 127.176C191.969 127.176 191.969 131.876 196.469 134.676C200.869 137.476 205.269 145.176 203.069 150.776C203.069 150.776 206.469 149.076 206.969 141.876C207.569 134.676 205.769 129.276 205.769 129.276C205.769 129.276 208.369 133.176 208.169 138.076C208.169 138.076 209.369 131.676 207.869 126.176C206.469 120.776 202.969 117.876 202.969 116.576" stroke="#000631" stroke-width="0.6" stroke-linecap="round" stroke-linejoin="round"/>
<path d="M197.569 78.6761C197.569 78.6761 208.069 81.4762 215.869 83.0762C223.569 84.7762 225.069 88.7761 225.769 90.6761" stroke="#000631" stroke-width="0.4" stroke-linecap="round" stroke-linejoin="round"/>
<path d="M196.969 80.2761C196.969 80.2761 205.869 84.7761 211.369 84.7761C216.969 84.7761 219.869 84.3761 221.769 85.3761" stroke="#000631" stroke-width="0.4" stroke-linecap="round" stroke-linejoin="round"/>
<path d="M198.069 74.7761C198.069 74.7761 211.969 71.4761 219.169 77.5761" stroke="#000631" stroke-width="0.4" stroke-linecap="round" stroke-linejoin="round"/>
<path d="M195.869 80.2761C195.869 80.2761 191.469 83.0761 190.869 94.6761" stroke="#000631" stroke-width="0.4" stroke-linecap="round" stroke-linejoin="round"/>
<path d="M195.869 81.6761C195.869 81.6761 191.469 89.7761 192.869 95.8761" stroke="#000631" stroke-width="0.4" stroke-linecap="round" stroke-linejoin="round"/>
<path d="M193.369 105.276C193.369 105.276 193.669 109.076 197.569 114.676C201.469 120.276 207.369 133.176 206.869 142.776" stroke="#000631" stroke-width="0.4" stroke-linecap="round" stroke-linejoin="round"/>
<path d="M191.969 103.876C191.969 103.876 191.969 112.576 194.769 118.876C197.569 125.276 201.469 130.776 202.569 136.876C203.669 142.976 203.669 146.876 203.669 146.876" stroke="#000631" stroke-width="0.4" stroke-linecap="round" stroke-linejoin="round"/>
<path d="M222.169 99.9762C222.169 99.9762 223.069 109.676 225.269 116.376C227.469 122.976 230.069 135.676 227.369 141.876" stroke="#000631" stroke-width="0.4" stroke-linecap="round" stroke-linejoin="round"/>
<path d="M221.369 108.776C221.369 108.776 220.269 112.476 221.969 118.576C223.569 124.676 228.469 127.776 228.569 135.076" stroke="#000631" stroke-width="0.4" stroke-linecap="round" stroke-linejoin="round"/>
<path d="M196.969 106.076C197.569 105.876 200.869 109.176 200.869 109.676" stroke="#000631" stroke-width="0.4" stroke-linecap="round" stroke-linejoin="round"/>
<path d="M199.169 98.0762C199.169 98.0762 204.169 96.3761 208.069 96.9762" stroke="#000631" stroke-width="0.4" stroke-linecap="round" stroke-linejoin="round"/>
<path d="M214.169 96.3762C214.169 96.3762 216.869 91.9762 218.569 91.9762C220.269 91.9762 220.869 92.4762 220.869 92.4762" stroke="#000631" stroke-width="0.4" stroke-linecap="round" stroke-linejoin="round"/>
<path d="M209.369 98.8761C209.369 98.8761 210.269 100.276 210.269 101.376" stroke="#000631" stroke-width="0.4" stroke-linecap="round" stroke-linejoin="round"/>
<path d="M213.069 97.4762C213.069 97.4762 212.669 99.7762 213.369 101.376C214.169 103.076 215.869 106.376 215.869 106.976C215.869 107.476 214.769 108.076 214.769 108.576" stroke="#000631" stroke-width="0.4" stroke-linecap="round" stroke-linejoin="round"/>
<path d="M210.869 108.076C210.869 108.076 211.369 107.476 211.969 108.076C212.569 108.576 213.569 108.576 213.569 108.576" stroke="#000631" stroke-width="0.4" stroke-linecap="round" stroke-linejoin="round"/>
<path d="M210.269 108.576C210.269 108.576 209.169 106.776 210.269 106.876" stroke="#000631" stroke-width="0.4" stroke-linecap="round" stroke-linejoin="round"/>
<path d="M209.769 112.776C209.769 112.776 212.669 110.576 213.469 110.676C214.169 110.776 214.169 110.976 214.169 110.976C214.169 110.976 215.269 109.976 215.869 110.176C216.369 110.276 216.969 111.376 216.969 111.376" stroke="#000631" stroke-width="0.4" stroke-linecap="round" stroke-linejoin="round"/>
<path d="M210.269 113.076C210.869 112.476 213.069 112.176 213.569 112.076C214.169 111.976 214.869 112.076 215.669 111.476H216.369" stroke="#000631" stroke-width="0.4" stroke-linecap="round" stroke-linejoin="round"/>
<path d="M210.869 112.776C210.869 112.776 212.669 113.076 213.969 113.076C215.269 113.076 215.669 111.476 215.669 111.476" stroke="#000631" stroke-width="0.4" stroke-linecap="round" stroke-linejoin="round"/>
<path d="M210.269 114.176C210.269 114.176 211.969 115.276 213.669 115.276C215.869 115.276 215.869 113.576 215.869 113.576" stroke="#000631" stroke-width="0.4" stroke-linecap="round" stroke-linejoin="round"/>
<path d="M201.469 99.7761C201.469 99.7761 202.769 98.8761 204.769 98.5761C206.769 98.3761 207.569 99.2761 207.569 99.2761" stroke="#000631" stroke-width="0.6" stroke-linecap="round" stroke-linejoin="round"/>
<path d="M219.469 96.8761C219.469 96.8761 218.669 95.8761 216.469 96.3761C214.369 96.9761 213.069 98.5761 213.069 98.5761" stroke="#000631" stroke-width="0.6" stroke-linecap="round" stroke-linejoin="round"/>
<path d="M201.669 99.7762C201.669 99.7762 202.069 101.976 204.769 101.376C207.569 100.876 207.169 98.9762 207.169 98.9762" stroke="#000631" stroke-width="0.4" stroke-linecap="round" stroke-linejoin="round"/>
<path d="M213.369 98.4762C213.369 98.4762 214.369 99.6762 216.469 99.1762C218.669 98.5762 219.169 96.5762 219.169 96.5762" stroke="#000631" stroke-width="0.4" stroke-linecap="round" stroke-linejoin="round"/>
<path d="M215.269 96.9761C215.269 96.9761 215.269 97.4761 216.669 97.4761C218.069 97.4761 218.069 96.2761 218.069 96.2761" stroke="#000631" stroke-width="0.4" stroke-linecap="round" stroke-linejoin="round"/>
<path d="M203.269 98.9762C203.269 98.9762 203.669 99.7762 204.769 99.7762C205.869 99.7762 206.269 98.6761 206.269 98.6761" stroke="#000631" stroke-width="0.4" stroke-linecap="round" stroke-linejoin="round"/>
<path d="M190.069 127.176C190.069 127.176 186.969 133.576 186.469 136.376L191.969 134.276L188.869 142.376C188.869 142.376 203.069 151.276 209.769 159.576" stroke="#000631" stroke-width="0.6" stroke-linecap="round" stroke-linejoin="round"/>
<path d="M211.369 159.076C211.369 159.076 207.569 146.276 206.969 144.076" stroke="#000631" stroke-width="0.6" stroke-linecap="round" stroke-linejoin="round"/>
<path d="M228.069 155.176C228.369 156.276 228.569 145.776 228.569 139.676" stroke="#000631" stroke-width="0.6" stroke-linecap="round" stroke-linejoin="round"/>
<path d="M228.869 119.776C229.169 119.676 234.869 124.376 235.869 125.376L231.969 128.276L238.569 132.476C238.569 132.476 230.869 152.276 229.969 155.976" stroke="#000631" stroke-width="0.6" stroke-linecap="round" stroke-linejoin="round"/>
<path d="M228.769 118.476C228.769 118.476 239.169 122.476 240.269 122.476C241.369 122.476 241.769 123.376 242.369 124.076C243.069 124.676 251.369 142.976 252.469 145.176C253.569 147.376 253.569 147.376 253.569 149.076C253.569 150.776 253.569 150.176 254.669 152.376C255.769 154.676 257.469 156.276 257.469 158.476C257.469 160.776 256.869 163.876 257.469 166.176C257.969 168.476 252.969 170.176 249.169 169.576C245.269 169.076 211.969 167.376 211.969 167.376C211.969 167.376 211.369 160.176 214.169 156.276C214.169 156.276 230.569 155.576 233.769 155.976C236.969 156.276 242.269 155.776 245.669 159.576" stroke="#000631" stroke-width="0.6" stroke-linecap="round" stroke-linejoin="round"/>
<path d="M237.369 155.976C237.369 155.976 239.569 154.276 242.069 155.276C244.669 156.276 245.769 156.876 247.969 157.376" stroke="#000631" stroke-width="0.6" stroke-linecap="round" stroke-linejoin="round"/>
<path d="M250.769 148.576C250.769 148.576 244.669 151.276 245.269 152.376" stroke="#000631" stroke-width="0.6" stroke-linecap="round" stroke-linejoin="round"/>
<path d="M235.669 141.176C235.669 141.176 238.669 148.576 239.469 150.776C240.269 152.976 239.869 154.976 239.869 154.976" stroke="#000631" stroke-width="0.6" stroke-linecap="round" stroke-linejoin="round"/>
<path d="M247.969 160.476C247.969 160.776 252.969 164.076 254.669 165.676" stroke="#000631" stroke-width="0.6" stroke-linecap="round" stroke-linejoin="round"/>
<path d="M239.469 150.776C239.469 150.776 243.069 133.376 243.569 135.076C244.169 136.876 242.669 142.776 242.669 142.776" stroke="#000631" stroke-width="0.6" stroke-linecap="round" stroke-linejoin="round"/>
<path d="M239.469 143.676C239.669 142.976 239.469 137.876 239.469 137.876" stroke="#000631" stroke-width="0.6" stroke-linecap="round" stroke-linejoin="round"/>
<path d="M241.269 154.976C241.269 154.976 245.569 155.376 246.769 155.276C247.969 155.176 250.269 152.976 249.169 152.976C247.969 152.976 245.369 154.076 245.369 154.076" stroke="#000631" stroke-width="0.6" stroke-linecap="round" stroke-linejoin="round"/>
<path d="M193.069 149.076C193.069 149.076 190.869 163.476 191.469 163.476C191.969 163.476 193.669 163.976 193.369 164.876C193.069 165.676 195.569 166.476 195.469 166.876" stroke="#000631" stroke-width="0.6" stroke-linecap="round" stroke-linejoin="round"/>
<path d="M186.969 175.176C186.969 174.576 193.669 166.876 196.969 166.876C200.369 166.876 211.369 166.476 211.369 166.476" stroke="#000631" stroke-width="0.6" stroke-linecap="round" stroke-linejoin="round"/>
<path d="M191.969 167.976C191.969 167.976 182.069 171.776 181.469 175.676C180.869 179.576 184.769 174.076 184.769 174.076" stroke="#000631" stroke-width="0.6" stroke-linecap="round" stroke-linejoin="round"/>
<path d="M189.269 121.976C189.269 121.976 181.769 127.476 180.469 128.576" stroke="#000631" stroke-width="0.6" stroke-linecap="round" stroke-linejoin="round"/>
<path d="M177.769 162.576C177.769 162.576 184.769 143.676 186.469 145.576C188.169 147.376 183.169 154.976 183.169 154.976" stroke="#000631" stroke-width="0.6" stroke-linecap="round" stroke-linejoin="round"/>
<path d="M182.269 159.576C182.269 159.576 186.469 156.676 186.469 157.076" stroke="#000631" stroke-width="0.6" stroke-linecap="round" stroke-linejoin="round"/>
<path d="M177.769 184.876C177.769 184.876 178.169 185.476 179.769 187.376C181.369 189.176 195.369 184.576 203.669 180.676C211.969 176.776 218.969 170.776 218.969 170.776C218.969 170.776 218.469 169.476 216.369 167.576" stroke="#000631" stroke-width="0.6" stroke-linecap="round" stroke-linejoin="round"/>
<path d="M178.069 140.776L176.769 152.976" stroke="#000631" stroke-width="0.6" stroke-linecap="round" stroke-linejoin="round"/>
<path d="M207.169 140.076C207.169 140.076 220.169 142.676 224.169 136.976" stroke="#000631" stroke-width="0.6" stroke-linecap="round" stroke-linejoin="round"/>
<path d="M222.169 164.776C222.169 164.776 233.669 167.276 237.769 168.176" stroke="#000631" stroke-width="0.6" stroke-linecap="round" stroke-linejoin="round"/>
<path d="M212.869 159.076C212.869 159.076 205.369 160.176 203.669 162.076C201.969 164.076 198.369 166.476 198.369 166.476" stroke="#000631" stroke-width="0.6" stroke-linecap="round" stroke-linejoin="round"/>
<path d="M49.169 124.976C49.169 124.976 51.969 128.276 53.669 131.076C55.269 133.876 55.269 134.976 55.869 136.076C56.369 137.176 56.169 139.176 56.569 140.076C56.969 141.076 58.369 145.276 58.469 148.976C58.669 152.676 59.769 162.676 59.169 164.376C58.669 165.976 57.169 166.976 54.269 167.076C51.469 167.076 45.869 166.576 44.769 165.476" stroke="#000631" stroke-width="0.8" stroke-linecap="round" stroke-linejoin="round"/>
<path d="M49.2693 167.076C49.2693 167.076 49.8693 170.576 49.2693 171.676C48.6693 172.676 48.0693 175.976 48.0693 175.976L54.7693 182.076C54.7693 182.076 54.1693 172.076 54.1693 170.976C54.1693 169.876 53.2693 169.876 52.6693 168.776C51.9693 167.676 51.6693 167.076 51.6693 167.076" stroke="#000631" stroke-width="0.8" stroke-linecap="round" stroke-linejoin="round"/>
<path d="M26.4692 156.576C26.4692 156.576 28.9693 164.776 28.8693 167.076C28.6693 169.276 28.8693 168.676 28.8693 168.676" stroke="#000631" stroke-width="0.8" stroke-linecap="round" stroke-linejoin="round"/>
<path d="M27.6689 168.076C27.6689 168.076 30.369 172.076 35.369 173.776C40.369 175.376 47.1689 176.576 47.1689 176.576C47.1689 176.576 45.369 184.776 44.769 188.976C44.769 188.976 27.0689 185.976 23.6689 179.876C23.6689 179.876 25.869 173.176 25.869 170.476C25.869 167.676 27.369 165.576 28.869 166.376" stroke="#000631" stroke-width="0.8" stroke-linecap="round" stroke-linejoin="round"/>
<path d="M45.769 183.276C45.769 183.276 47.569 184.876 49.769 184.276C51.969 183.776 51.469 179.076 51.469 179.076" stroke="#000631" stroke-width="0.8" stroke-linecap="round" stroke-linejoin="round"/>
<path d="M47.1689 176.576L48.069 175.976" stroke="#000631" stroke-width="0.8" stroke-linecap="round" stroke-linejoin="round"/>
<path d="M52.269 168.076C52.269 168.076 66.469 171.676 68.369 171.676C70.269 171.576 70.869 172.076 71.369 173.176C71.969 174.276 77.469 182.076 78.569 189.276C79.669 196.476 86.869 219.776 87.469 220.876" stroke="#000631" stroke-width="0.8" stroke-linecap="round" stroke-linejoin="round"/>
<path d="M66.3691 186.476C66.3691 186.476 69.7692 202.076 70.2692 208.676C70.8692 215.376 70.8691 223.076 71.3691 224.176" stroke="#000631" stroke-width="0.8" stroke-linecap="round" stroke-linejoin="round"/>
<path d="M69.8693 201.776C69.8693 201.776 68.5693 188.776 70.2693 189.876C71.9693 190.976 71.6693 192.776 71.4693 193.276" stroke="#000631" stroke-width="0.8" stroke-linecap="round" stroke-linejoin="round"/>
<path d="M71.5693 221.676C71.9693 220.876 74.6693 210.876 76.9693 209.276" stroke="#000631" stroke-width="0.8" stroke-linecap="round" stroke-linejoin="round"/>
<path d="M75.0693 215.476C75.0693 215.476 76.9693 211.976 78.5693 208.676" stroke="#000631" stroke-width="0.8" stroke-linecap="round" stroke-linejoin="round"/>
<path d="M51.4692 183.076C51.4692 183.076 60.8692 210.376 62.4692 221.476" stroke="#000631" stroke-width="0.8" stroke-linecap="round" stroke-linejoin="round"/>
<path d="M47.769 184.276C47.769 184.276 52.569 217.576 52.269 223.676" stroke="#000631" stroke-width="0.8" stroke-linecap="round" stroke-linejoin="round"/>
<path d="M31.4692 203.976C31.4692 203.976 29.2692 208.676 29.2692 213.676C29.2692 218.676 30.7692 218.676 28.9692 220.876C27.0692 223.076 25.3692 224.776 25.8692 225.376C26.4692 225.876 26.4692 229.776 27.0692 230.876C27.5692 231.976 25.8692 232.576 26.4692 233.676C27.0692 234.776 29.7692 233.076 29.7692 234.176" stroke="#000631" stroke-width="0.8" stroke-linecap="round" stroke-linejoin="round"/>
<path d="M23.669 235.876C23.669 235.876 19.269 238.076 17.069 243.676C14.869 249.176 14.269 249.176 14.269 246.976C14.269 244.776 20.969 233.976 23.669 233.876" stroke="#000631" stroke-width="0.8" stroke-linecap="round" stroke-linejoin="round"/>
<path d="M24.2691 230.876C24.2691 230.876 19.269 227.576 15.969 230.276C12.569 233.076 18.169 231.976 18.169 231.976" stroke="#000631" stroke-width="0.8" stroke-linecap="round" stroke-linejoin="round"/>
<path d="M20.3691 210.876C20.3691 210.876 22.5691 220.776 23.6691 221.676" stroke="#000631" stroke-width="0.8" stroke-linecap="round" stroke-linejoin="round"/>
<path d="M23.6693 206.076C23.6693 206.076 22.5693 215.376 23.1693 217.576" stroke="#000631" stroke-width="0.8" stroke-linecap="round" stroke-linejoin="round"/>
<path d="M29.769 209.276C29.769 208.676 33.669 207.076 34.269 205.376" stroke="#000631" stroke-width="0.8" stroke-linecap="round" stroke-linejoin="round"/>
<path d="M25.3692 173.976C25.3692 173.976 14.2692 181.476 12.0692 183.776C9.86922 185.976 6.46918 185.976 6.46918 187.076C6.46918 188.176 7.06918 190.376 5.96918 192.076C4.86918 193.676 2.66919 210.376 3.16919 218.076C3.76919 225.876 2.66922 227.576 2.06922 231.976C1.46922 236.376 0.369179 235.276 1.46918 236.976C2.66918 238.676 3.16919 241.976 2.66919 247.476C2.06919 253.076 0.969228 256.976 3.76923 258.576C6.46923 260.276 13.2692 259.676 17.6692 258.576" stroke="#000631" stroke-width="0.8" stroke-linecap="round" stroke-linejoin="round"/>
<path d="M24.769 236.976C24.769 236.976 25.869 234.376 31.969 233.476C38.069 232.576 47.569 226.976 49.469 227.576" stroke="#000631" stroke-width="0.8" stroke-linecap="round" stroke-linejoin="round"/>
<path d="M47.7693 227.176C47.7693 227.176 50.4693 226.476 53.7693 229.176C56.9693 231.976 58.6693 234.776 58.6693 236.376C58.6693 238.776 53.0693 242.576 49.1693 245.276C45.3693 248.076 39.2693 253.076 34.2693 256.976C29.2693 260.876 14.2693 259.676 13.5693 259.676" stroke="#000631" stroke-width="0.8" stroke-linecap="round" stroke-linejoin="round"/>
<path d="M58.069 238.076C58.069 238.076 60.269 237.576 61.369 236.976C62.469 236.376 66.969 230.276 67.469 229.776C68.069 229.176 64.7691 225.876 59.7691 223.076C54.7691 220.376 53.069 224.176 50.069 224.776C46.969 225.376 46.169 227.176 46.569 228.176" stroke="#000631" stroke-width="0.8" stroke-linecap="round" stroke-linejoin="round"/>
<path d="M53.769 229.176C53.669 229.176 49.1689 229.176 43.6689 231.476" stroke="#000631" stroke-width="0.8" stroke-linecap="round" stroke-linejoin="round"/>
<path d="M59.769 223.076C59.969 223.576 62.469 221.476 65.869 221.476C69.169 221.476 72.469 226.476 72.469 226.476" stroke="#000631" stroke-width="0.8" stroke-linecap="round" stroke-linejoin="round"/>
<path d="M26.469 145.676C26.469 145.676 22.769 144.276 21.269 145.976C19.769 147.676 21.469 151.576 22.069 152.676C22.569 153.776 24.269 154.876 25.369 155.476C26.469 155.976 27.869 157.276 28.869 157.176C29.769 157.076 30.869 155.976 30.869 155.976C30.869 155.976 31.969 159.376 33.669 160.976" stroke="#000631" stroke-width="0.8" stroke-linecap="round" stroke-linejoin="round"/>
<path d="M23.1689 146.076C23.1689 146.076 27.0689 148.776 28.1689 150.976C28.1689 150.976 26.7689 150.876 27.1689 152.076C27.5689 153.276 28.869 153.076 28.869 153.076" stroke="#000631" stroke-width="0.8" stroke-linecap="round" stroke-linejoin="round"/>
<path d="M25.4691 153.076C25.3691 153.276 27.5691 154.376 28.6691 154.376" stroke="#000631" stroke-width="0.8" stroke-linecap="round" stroke-linejoin="round"/>
<path d="M23.6691 147.176C23.6691 147.176 22.0691 149.276 23.6691 151.476C25.3691 153.776 24.2692 148.776 24.7692 148.776" stroke="#000631" stroke-width="0.8" stroke-linecap="round" stroke-linejoin="round"/>
<path d="M31.4692 131.576C31.4692 131.576 34.2693 134.376 34.2693 135.476C34.2693 136.576 31.7693 139.676 31.7693 140.776" stroke="#000631" stroke-width="0.6" stroke-linecap="round" stroke-linejoin="round"/>
<path d="M30.6689 142.476C30.6689 142.476 30.6689 147.176 31.4689 149.176" stroke="#000631" stroke-width="0.6" stroke-linecap="round" stroke-linejoin="round"/>
<path d="M17.369 135.776C16.769 135.776 20.269 144.576 21.269 145.976" stroke="#000631" stroke-width="0.8" stroke-linecap="round" stroke-linejoin="round"/>
<path d="M29.569 130.276C29.569 130.276 24.4689 129.076 21.6689 130.276" stroke="#000631" stroke-width="0.6" stroke-linecap="round" stroke-linejoin="round"/>
<path d="M17.269 133.576C17.269 133.576 15.669 132.976 15.069 133.576C15.069 133.576 14.969 132.376 17.269 131.876C17.269 131.876 16.769 130.376 15.069 131.076C15.069 131.076 16.569 129.676 18.069 130.276" stroke="#000631" stroke-width="0.6" stroke-linecap="round" stroke-linejoin="round"/>
<path d="M19.2691 129.376C19.2691 129.376 17.6691 127.776 18.0691 126.476" stroke="#000631" stroke-width="0.6" stroke-linecap="round" stroke-linejoin="round"/>
<path d="M20.669 128.576C20.669 128.576 18.169 124.376 21.469 121.676" stroke="#000631" stroke-width="0.8" stroke-linecap="round" stroke-linejoin="round"/>
<path d="M22.269 124.176C22.269 124.176 22.869 119.176 27.869 118.576" stroke="#000631" stroke-width="0.8" stroke-linecap="round" stroke-linejoin="round"/>
<path d="M29.5693 119.076C29.5693 119.076 33.9693 118.076 37.8693 118.076C41.7693 118.076 44.9693 116.376 48.8693 118.076C52.7693 119.676 54.4693 124.676 54.4693 126.376" stroke="#000631" stroke-width="0.8" stroke-linecap="round" stroke-linejoin="round"/>
<path d="M44.4692 125.276C44.4692 125.276 44.5693 120.776 48.3693 121.676C52.2693 122.476 53.3693 124.676 53.3693 124.676" stroke="#000631" stroke-width="0.8" stroke-linecap="round" stroke-linejoin="round"/>
<path d="M54.4689 122.176C54.4689 121.876 57.2689 125.276 56.1689 127.476C55.0689 129.676 53.6689 131.076 53.6689 131.076" stroke="#000631" stroke-width="0.8" stroke-linecap="round" stroke-linejoin="round"/>
<path d="M32.0693 129.376C32.0693 129.376 37.8693 125.276 44.1693 126.376" stroke="#000631" stroke-width="0.6" stroke-linecap="round" stroke-linejoin="round"/>
<path d="M30.6689 126.476C30.6689 126.476 32.9689 118.576 38.4689 117.976" stroke="#000631" stroke-width="0.6" stroke-linecap="round" stroke-linejoin="round"/>
<path d="M36.1689 122.976C36.1689 122.976 43.3689 116.176 46.6689 117.376" stroke="#000631" stroke-width="0.6" stroke-linecap="round" stroke-linejoin="round"/>
<path d="M43.9692 120.776C43.9692 120.776 47.8693 117.476 51.1693 120.276" stroke="#000631" stroke-width="0.6" stroke-linecap="round" stroke-linejoin="round"/>
<path d="M50.8691 122.476C51.1691 122.476 53.3692 126.376 52.7692 128.576" stroke="#000631" stroke-width="0.6" stroke-linecap="round" stroke-linejoin="round"/>
<path d="M50.4691 125.076C50.4691 125.076 48.1691 124.176 46.3691 125.276" stroke="#000631" stroke-width="0.6" stroke-linecap="round" stroke-linejoin="round"/>
<path d="M52.8691 137.176C52.8691 137.176 53.6691 135.476 55.8691 136.076" stroke="#000631" stroke-width="0.8" stroke-linecap="round" stroke-linejoin="round"/>
<path d="M40.3691 141.576C40.3691 141.576 43.0691 138.776 45.3691 138.776C47.5691 138.776 47.5692 138.776 47.5692 138.776" stroke="#000631" stroke-width="0.8" stroke-linecap="round" stroke-linejoin="round"/>
<path d="M47.2693 144.676C46.1693 145.176 41.9692 144.476 41.9692 144.476C41.9692 144.476 44.5693 141.276 46.7693 141.576" stroke="#000631" stroke-width="0.4" stroke-linecap="round" stroke-linejoin="round"/>
<path d="M46.269 141.576C46.269 141.576 47.469 142.676 46.769 144.776" stroke="#000631" stroke-width="0.4" stroke-linecap="round" stroke-linejoin="round"/>
<path d="M45.669 141.676C45.669 141.676 45.1691 143.776 46.2691 144.776" stroke="#000631" stroke-width="0.4" stroke-linecap="round" stroke-linejoin="round"/>
<path d="M52.8691 140.876C52.8691 140.876 53.9691 138.576 55.8691 138.776" stroke="#000631" stroke-width="0.4" stroke-linecap="round" stroke-linejoin="round"/>
<path d="M52.8691 141.676C52.8691 141.676 54.6692 142.476 56.7692 140.776" stroke="#000631" stroke-width="0.4" stroke-linecap="round" stroke-linejoin="round"/>
<path d="M55.8693 141.376C54.4693 140.876 54.8693 138.876 54.8693 138.876" stroke="#000631" stroke-width="0.4" stroke-linecap="round" stroke-linejoin="round"/>
<path d="M55.3691 138.876C55.3691 138.876 56.1691 139.076 56.1691 141.276" stroke="#000631" stroke-width="0.4" stroke-linecap="round" stroke-linejoin="round"/>
<path d="M47.9693 144.876C47.9693 144.876 47.0693 146.076 46.5693 146.776" stroke="#000631" stroke-width="0.4" stroke-linecap="round" stroke-linejoin="round"/>
<path d="M52.0693 139.876C52.0693 139.876 52.0693 141.876 52.4693 142.476C52.7693 142.976 54.9693 146.976 56.3693 147.976C57.7693 149.076 56.2693 151.276 54.7693 151.876" stroke="#000631" stroke-width="0.4" stroke-linecap="round" stroke-linejoin="round"/>
<path d="M53.6691 151.476C53.6691 151.476 53.5691 150.776 52.8691 151.076C52.2691 151.276 51.8691 152.376 50.6691 151.876C49.4691 151.276 50.0692 150.176 50.0692 150.176C50.0692 150.176 47.8691 152.976 47.8691 155.776" stroke="#000631" stroke-width="0.4" stroke-linecap="round" stroke-linejoin="round"/>
<path d="M56.769 155.076C53.069 154.476 50.769 157.876 50.769 157.876C50.769 157.876 54.969 155.776 56.369 156.076" stroke="#000631" stroke-width="0.4" stroke-linecap="round" stroke-linejoin="round"/>
<path d="M55.769 155.076L55.869 156.076" stroke="#000631" stroke-width="0.4" stroke-linecap="round" stroke-linejoin="round"/>
<path d="M42.269 166.876C42.269 166.876 45.169 167.876 46.269 167.676" stroke="#000631" stroke-width="0.4" stroke-linecap="round" stroke-linejoin="round"/>
<path d="M390.669 173.976L426.369 177.876V184.276L405.769 198.176" stroke="#000631" stroke-width="0.8" stroke-linecap="round" stroke-linejoin="round"/>
<path d="M257.569 158.476L315.169 165.076" stroke="#000631" stroke-width="0.8" stroke-linecap="round" stroke-linejoin="round"/>
<path d="M218.769 170.076L224.169 168.276" stroke="#000631" stroke-width="0.8" stroke-linecap="round" stroke-linejoin="round"/>
<path d="M176.769 186.476L178.369 185.676" stroke="#000631" stroke-width="0.8" stroke-linecap="round" stroke-linejoin="round"/>
<path d="M114.069 210.576L165.469 190.776" stroke="#000631" stroke-width="0.8" stroke-linecap="round" stroke-linejoin="round"/>
<path d="M67.5693 228.476L91.4693 219.276" stroke="#000631" stroke-width="0.8" stroke-linecap="round" stroke-linejoin="round"/>
<path d="M426.369 177.876L401.869 192.576" stroke="#000631" stroke-width="0.8" stroke-linecap="round" stroke-linejoin="round"/>
<path d="M214.469 207.076C214.469 207.076 214.969 211.976 215.569 214.276C216.169 216.476 217.269 216.476 217.769 217.576C218.369 218.676 215.769 222.576 218.969 226.976" stroke="#000631" stroke-width="0.8" stroke-linecap="round" stroke-linejoin="round"/>
<path d="M224.969 239.176C224.969 239.176 227.169 241.976 230.569 243.076" stroke="#000631" stroke-width="0.8" stroke-linecap="round" stroke-linejoin="round"/>
<path d="M220.57 272.476C217.77 265.776 227.17 261.376 223.87 258.576C220.57 255.876 220.57 252.476 223.87 249.176C227.17 245.876 231.07 244.176 230.57 241.376C229.97 238.676 225.57 239.776 221.77 238.676C217.87 237.576 215.57 234.176 217.77 230.276C219.97 226.476 220.57 225.876 222.17 220.476C223.87 215.176 220.57 211.476 216.77 208.676C212.87 205.976 211.17 202.076 211.37 198.276C211.67 194.476 212.27 194.276 211.37 190.776C210.57 187.376 213.87 183.776 217.77 182.676C221.67 181.476 225.47 181.076 225.47 181.076C225.47 181.076 227.17 175.376 233.27 174.276C239.37 173.176 246.07 174.276 253.27 178.776C260.47 183.176 267.67 184.876 268.77 194.876C269.87 204.776 269.87 213.176 274.87 217.576C279.87 221.976 284.37 222.576 284.37 226.976C284.37 231.476 278.27 236.376 281.37 239.176C284.37 241.976 289.37 242.576 289.87 245.876C290.47 249.176 288.17 252.476 290.97 254.776C293.77 256.976 292.67 260.876 292.67 260.876" stroke="#000631" stroke-width="0.8" stroke-linecap="round" stroke-linejoin="round"/>
<path d="M227.769 267.476C227.769 267.476 219.469 272.476 214.969 279.176C210.569 285.776 210.369 287.676 211.269 288.676C212.269 289.676 212.269 292.976 212.769 296.876C213.369 300.776 214.969 321.876 214.969 321.876" stroke="#000631" stroke-width="0.8" stroke-linecap="round" stroke-linejoin="round"/>
<path d="M214.969 286.376C214.969 286.376 219.269 284.076 223.469 286.376C227.769 288.576 234.469 298.576 237.169 304.076" stroke="#000631" stroke-width="0.8" stroke-linecap="round" stroke-linejoin="round"/>
<path d="M227.169 263.076C227.169 263.076 225.569 268.076 231.669 270.276C237.769 272.476 242.169 266.976 243.869 269.176C245.469 271.376 246.069 275.276 249.369 274.676C252.769 274.176 256.569 272.476 257.669 275.276" stroke="#000631" stroke-width="0.8" stroke-linecap="round" stroke-linejoin="round"/>
<path d="M225.869 185.176C225.869 185.176 221.369 188.976 221.369 193.476C221.369 197.876 220.869 201.176 229.169 204.576C237.469 207.876 240.769 211.776 237.169 216.976C233.569 222.276 230.869 230.576 235.769 233.376C240.769 236.176 246.369 236.176 244.669 243.076C243.069 249.976 235.269 253.376 241.369 257.176C247.469 261.076 253.569 259.976 251.369 265.576C249.169 271.076 248.369 273.876 252.069 274.076" stroke="#000631" stroke-width="0.6" stroke-linecap="round" stroke-linejoin="round"/>
<path d="M249.169 248.376C249.169 248.376 246.869 254.476 251.369 256.076C255.769 257.776 259.669 257.176 260.169 262.176C260.769 267.176 263.569 266.076 265.169 271.676" stroke="#000631" stroke-width="0.6" stroke-linecap="round" stroke-linejoin="round"/>
<path d="M238.769 187.776C238.769 187.776 235.269 196.176 240.269 200.076C245.269 203.976 252.969 205.676 254.669 212.876C256.369 220.076 248.569 228.376 255.769 232.776C262.969 237.276 262.969 238.876 262.469 245.576C261.869 252.276 262.469 254.476 267.469 257.776C272.369 261.076 274.669 261.676 274.069 267.776" stroke="#000631" stroke-width="0.6" stroke-linecap="round" stroke-linejoin="round"/>
<path d="M247.469 190.676C247.469 190.676 248.569 199.576 255.269 201.776C261.869 203.976 267.969 208.376 265.769 215.076C263.569 221.776 259.669 228.776 265.169 232.176C270.769 235.576 270.169 240.576 270.769 244.976C271.269 249.476 278.469 248.376 280.769 253.376C282.969 258.376 277.969 262.776 282.369 264.476" stroke="#000631" stroke-width="0.6" stroke-linecap="round" stroke-linejoin="round"/>
<path d="M227.469 181.776C227.469 181.776 245.269 182.376 248.569 187.376" stroke="#000631" stroke-width="0.6" stroke-linecap="round" stroke-linejoin="round"/>
<path d="M238.569 180.176C238.569 180.176 243.569 174.276 250.269 176.776" stroke="#000631" stroke-width="0.6" stroke-linecap="round" stroke-linejoin="round"/>
<path d="M248.569 183.376C248.569 183.376 253.969 179.276 257.369 181.076" stroke="#000631" stroke-width="0.6" stroke-linecap="round" stroke-linejoin="round"/>
<path d="M254.27 183.376C254.27 183.376 258.67 181.376 261.67 183.476" stroke="#000631" stroke-width="0.6" stroke-linecap="round" stroke-linejoin="round"/>
<path d="M310.37 312.976C310.37 312.976 309.87 278.576 311.77 267.776C313.77 256.976 305.97 258.076 302.67 258.076C299.27 258.076 252.17 276.376 249.37 279.176C246.67 281.876 243.27 308.476 243.27 328.476" stroke="#000631" stroke-width="0.8" stroke-linecap="round" stroke-linejoin="round"/>
<path d="M250.569 278.376C250.569 278.376 256.069 276.076 256.869 279.976C257.169 281.376 254.469 299.676 254.669 328.476" stroke="#000631" stroke-width="0.8" stroke-linecap="round" stroke-linejoin="round"/>
<path d="M289.869 245.876C289.869 245.876 295.969 244.776 299.269 251.376C302.669 258.076 302.669 258.076 302.669 258.076" stroke="#000631" stroke-width="0.8" stroke-linecap="round" stroke-linejoin="round"/>
<path d="M310.969 275.276C310.969 275.276 317.069 302.376 318.169 305.776" stroke="#000631" stroke-width="0.8" stroke-linecap="round" stroke-linejoin="round"/>
<path d="M337.569 180.276C337.569 180.276 336.769 179.676 336.269 179.676C335.769 179.676 330.269 184.476 327.669 183.776C324.969 182.976 319.969 183.276 319.569 180.476C319.169 177.676 316.969 163.876 316.969 161.376C316.969 158.776 315.969 157.776 315.469 155.476C314.969 153.176 315.469 142.576 315.469 142.576L316.869 141.576C316.869 141.576 316.569 145.376 318.269 146.176C319.969 147.076 322.069 148.076 322.569 149.676C323.069 151.176 324.369 153.476 324.369 153.476" stroke="#000631" stroke-width="0.8" stroke-linecap="round" stroke-linejoin="round"/>
<path d="M331.169 162.876C331.169 162.876 330.169 164.376 328.669 163.776C327.169 163.176 326.569 162.876 325.369 159.576C324.069 156.276 324.069 151.676 325.369 150.976C326.569 150.276 328.169 152.176 328.169 152.176" stroke="#000631" stroke-width="0.8" stroke-linecap="round" stroke-linejoin="round"/>
<path d="M329.069 154.976C329.069 154.976 329.969 155.976 330.069 158.476" stroke="#000631" stroke-width="0.8" stroke-linecap="round" stroke-linejoin="round"/>
<path d="M326.569 150.976C326.569 150.976 328.469 150.176 330.069 151.376C331.669 152.676 332.769 161.376 334.569 162.376C336.269 163.376 340.269 167.876 342.569 167.876C344.969 167.976 352.569 164.376 353.569 162.876" stroke="#000631" stroke-width="0.8" stroke-linecap="round" stroke-linejoin="round"/>
<path d="M336.269 184.576V181.976C336.269 181.976 350.069 168.076 360.869 165.976C360.869 165.976 366.469 168.176 368.069 169.276" stroke="#000631" stroke-width="0.8" stroke-linecap="round" stroke-linejoin="round"/>
<path d="M357.169 167.476C357.169 167.476 353.069 162.876 353.569 161.376C354.069 159.776 355.269 147.176 355.769 142.576C356.169 137.976 355.669 133.876 355.169 130.776C354.569 127.776 351.969 125.076 349.169 124.376C349.169 124.376 350.269 124.076 351.369 124.376C351.369 124.376 348.969 122.676 347.469 123.176C347.469 123.176 347.869 121.976 349.169 122.076C349.169 122.076 344.569 120.976 343.769 122.076C343.769 122.076 341.069 119.476 336.169 120.076C331.169 120.576 324.269 122.476 320.569 125.176C316.969 127.776 317.969 128.776 317.969 128.776C317.969 128.776 315.969 131.776 313.869 133.876C311.869 135.876 310.869 138.476 311.869 140.976C311.869 140.976 312.869 138.476 313.869 137.976C313.869 137.976 312.469 140.976 313.969 142.576C315.369 144.076 315.369 144.676 315.369 144.676" stroke="#000631" stroke-width="0.8" stroke-linecap="round" stroke-linejoin="round"/>
<path d="M337.569 134.476C337.569 134.476 337.269 136.376 338.869 137.376C338.869 137.376 338.269 136.476 339.369 135.876C339.369 135.876 339.169 137.976 341.269 138.776" stroke="#000631" stroke-width="0.8" stroke-linecap="round" stroke-linejoin="round"/>
<path d="M345.269 134.476C345.269 134.476 345.169 136.276 347.069 136.576" stroke="#000631" stroke-width="0.8" stroke-linecap="round" stroke-linejoin="round"/>
<path d="M325.569 129.776C325.569 129.776 323.569 132.376 323.569 133.876C323.569 133.876 324.669 132.676 326.369 132.476C326.369 132.476 325.169 134.076 326.369 135.476" stroke="#000631" stroke-width="0.8" stroke-linecap="round" stroke-linejoin="round"/>
<path d="M324.969 158.476C324.969 158.476 323.269 163.176 322.769 165.176C322.269 167.176 320.769 169.776 320.269 170.276C319.769 170.776 318.269 171.676 318.269 171.676" stroke="#000631" stroke-width="0.5" stroke-linecap="round" stroke-linejoin="round"/>
<path d="M327.469 163.276C327.469 163.276 327.369 172.776 328.369 173.776C329.369 174.876 333.969 179.976 336.269 179.676" stroke="#000631" stroke-width="0.5" stroke-linecap="round" stroke-linejoin="round"/>
<path d="M316.669 159.276C316.669 159.276 315.169 167.376 316.069 167.876C316.969 168.476 317.769 168.376 317.769 168.376" stroke="#000631" stroke-width="0.8" stroke-linecap="round" stroke-linejoin="round"/>
<path d="M315.469 155.476L316.469 153.676" stroke="#000631" stroke-width="0.8" stroke-linecap="round" stroke-linejoin="round"/>
<path d="M401.369 233.076C401.369 233.076 403.869 233.176 410.269 230.876C417.969 228.076 414.069 215.876 411.869 212.576C409.669 209.276 411.369 204.776 408.569 202.076C405.769 199.276 402.969 195.776 400.769 190.976C398.569 186.076 394.269 174.876 388.069 172.676C383.269 170.876 376.969 169.876 367.369 169.676C357.769 169.576 343.669 179.876 338.869 183.276C333.969 186.676 325.969 189.876 324.269 190.976C324.269 190.976 312.069 200.976 313.769 210.376C313.769 210.376 310.369 213.676 309.269 218.076C308.169 222.576 305.169 226.176 305.269 229.676C305.369 233.076 306.169 235.476 304.669 237.076C303.169 238.676 303.169 239.776 302.069 242.576C300.969 245.276 299.269 251.376 299.269 251.376" stroke="#000631" stroke-width="0.8" stroke-linecap="round" stroke-linejoin="round"/>
<path d="M402.569 244.976C402.569 244.976 399.069 211.576 399.969 200.876C400.869 190.176 393.469 191.976 390.169 192.276C386.969 192.576 342.669 214.476 340.269 217.476C337.769 220.376 337.169 262.776 338.969 282.176" stroke="#000631" stroke-width="0.8" stroke-linecap="round" stroke-linejoin="round"/>
<path d="M341.269 216.576C341.269 216.576 346.469 213.876 347.569 217.676C347.969 218.876 346.769 251.376 349.469 279.376" stroke="#000631" stroke-width="0.8" stroke-linecap="round" stroke-linejoin="round"/>
<path d="M390.169 183.876C390.169 183.876 391.669 190.276 392.369 191.976" stroke="#000631" stroke-width="0.8" stroke-linecap="round" stroke-linejoin="round"/>
<path d="M400.369 218.476C400.369 218.476 404.169 224.176 407.469 224.776C410.769 225.376 406.869 222.576 406.869 222.576" stroke="#000631" stroke-width="0.8" stroke-linecap="round" stroke-linejoin="round"/>
<path d="M400.769 224.876L402.569 227.576" stroke="#000631" stroke-width="0.8" stroke-linecap="round" stroke-linejoin="round"/>
<path d="M313.469 256.676C313.469 256.676 320.969 248.076 324.769 243.076C328.669 238.076 329.269 233.076 330.969 231.976" stroke="#000631" stroke-width="0.8" stroke-linecap="round" stroke-linejoin="round"/>
<path d="M324.169 230.676C324.169 230.676 322.169 246.976 319.869 249.176" stroke="#000631" stroke-width="0.8" stroke-linecap="round" stroke-linejoin="round"/>
<path d="M320.469 234.176C320.469 234.176 318.169 244.676 318.169 243.076C318.169 241.376 318.169 236.476 318.169 236.476" stroke="#000631" stroke-width="0.8" stroke-linecap="round" stroke-linejoin="round"/>
<path d="M311.769 267.776C311.769 267.776 316.069 265.276 319.369 263.076C322.569 260.876 323.669 261.976 327.569 258.576C331.469 255.276 333.169 251.876 333.169 251.876" stroke="#000631" stroke-width="0.8" stroke-linecap="round" stroke-linejoin="round"/>
<path d="M321.569 261.876C321.569 261.876 327.169 255.176 327.669 251.876C328.169 248.676 327.669 246.476 327.669 246.476" stroke="#000631" stroke-width="0.8" stroke-linecap="round" stroke-linejoin="round"/>
<path d="M304.169 244.376C304.169 244.376 310.469 237.276 312.069 234.876" stroke="#000631" stroke-width="0.8" stroke-linecap="round" stroke-linejoin="round"/>
<path d="M336.469 210.376C336.469 210.376 334.269 221.476 332.369 227.576" stroke="#000631" stroke-width="0.8" stroke-linecap="round" stroke-linejoin="round"/>
<path d="M360.069 206.276C360.069 206.276 368.969 198.676 369.669 196.476C370.269 194.276 366.369 197.576 366.369 197.576" stroke="#000631" stroke-width="0.8" stroke-linecap="round" stroke-linejoin="round"/>
<path d="M352.769 209.776L355.369 203.876" stroke="#000631" stroke-width="0.8" stroke-linecap="round" stroke-linejoin="round"/>
<path d="M328.269 237.076C328.269 237.076 333.569 249.176 334.769 254.176C335.869 259.176 332.569 275.276 332.569 275.276" stroke="#000631" stroke-width="0.8" stroke-linecap="round" stroke-linejoin="round"/>
<path d="M125.169 216.776L157.769 200.676L205.669 215.476L172.869 233.676L125.169 216.976" stroke="#000631" stroke-width="0.8" stroke-linecap="round" stroke-linejoin="round"/>
<path d="M393.569 19.9761C393.569 19.9761 395.069 17.4761 397.669 17.9761C400.169 18.4761 399.669 22.5761 399.669 23.0761C399.669 23.5761 399.169 27.1761 398.669 27.6761C398.169 28.1761 395.069 30.7762 394.069 30.2762" stroke="#000631" stroke-width="0.6" stroke-linecap="round" stroke-linejoin="round"/>
<path d="M397.669 18.9762C397.669 18.9762 395.069 19.9762 394.569 22.5762C394.069 25.1762 394.569 24.0762 395.069 25.1762C395.569 26.1762 393.669 27.0762 394.369 27.3762C395.069 27.6762 395.569 26.1762 397.069 26.1762" stroke="#000631" stroke-width="0.6" stroke-linecap="round" stroke-linejoin="round"/>
<path d="M395.869 22.2762C395.869 22.2762 398.169 24.0761 398.169 23.0761C398.169 22.0761 396.669 20.1761 396.669 20.1761" stroke="#000631" stroke-width="0.6" stroke-linecap="round" stroke-linejoin="round"/>
<path d="M397.669 17.9762C397.669 17.9762 398.669 12.1762 398.169 10.7762C397.669 9.27617 394.069 3.17616 385.869 1.57616C377.669 0.0761641 370.469 4.67617 368.469 8.27617C366.369 11.8762 365.869 16.4762 365.869 17.4762C365.869 18.4762 365.369 18.9762 365.369 18.9762C365.369 18.9762 364.869 19.9762 364.869 20.5762C364.869 21.0762 365.869 22.0762 365.869 22.0762C365.869 22.0762 366.369 24.0762 366.869 24.6762C366.869 24.6762 365.869 26.2762 365.869 27.7762C365.869 29.2762 367.469 33.3762 368.469 36.8762C369.469 40.4762 371.569 45.0762 372.069 45.5762C372.569 46.0762 377.169 46.0762 380.269 44.0762C383.269 42.0762 389.969 36.8762 391.969 34.3762" stroke="#000631" stroke-width="0.6" stroke-linecap="round" stroke-linejoin="round"/>
<path d="M396.069 29.6761C396.069 29.6761 396.569 47.1761 397.069 49.1761" stroke="#000631" stroke-width="0.6" stroke-linecap="round" stroke-linejoin="round"/>
<path d="M375.169 45.7761C375.069 45.5761 375.169 50.8761 375.169 51.8761" stroke="#000631" stroke-width="0.6" stroke-linecap="round" stroke-linejoin="round"/>
<path d="M374.569 51.2761C374.569 51.2761 379.669 57.3761 382.769 57.3761C385.869 57.3761 396.369 51.4761 397.469 48.7761" stroke="#000631" stroke-width="0.6" stroke-linecap="round" stroke-linejoin="round"/>
<path d="M375.069 49.6761C375.069 49.6761 373.569 50.7762 373.069 51.7762C372.569 52.7762 369.969 58.8762 369.469 59.9762C369.469 59.9762 376.169 66.5761 379.169 67.5761C379.169 67.5761 379.569 60.9762 382.169 57.3762" stroke="#000631" stroke-width="0.6" stroke-linecap="round" stroke-linejoin="round"/>
<path d="M383.169 57.3761C383.169 57.3761 387.369 64.5761 388.369 67.0761C388.369 67.0761 399.169 60.4761 401.169 55.8761C401.169 55.8761 399.169 53.2761 398.669 51.2761C398.169 49.1761 398.169 47.8761 397.069 48.0761" stroke="#000631" stroke-width="0.6" stroke-linecap="round" stroke-linejoin="round"/>
<path d="M379.469 64.8762C379.469 64.8762 380.069 66.6762 382.169 67.3762C384.369 68.1762 386.469 64.2761 386.469 63.1761" stroke="#000631" stroke-width="0.6" stroke-linecap="round" stroke-linejoin="round"/>
<path d="M380.669 66.4762C380.669 66.4762 377.369 88.0762 377.669 99.3762C377.969 110.676 375.869 131.476 375.869 131.476L384.169 140.876L390.569 132.276C390.569 132.276 387.569 101.076 386.469 88.1762C385.369 75.2762 384.669 66.4762 384.669 66.4762" stroke="#000631" stroke-width="0.6" stroke-linecap="round" stroke-linejoin="round"/>
<path d="M371.369 55.6761C371.369 55.6761 354.169 61.1761 351.569 62.0761C348.969 62.9761 345.969 62.9762 345.969 64.2762C345.969 65.5762 344.669 66.7761 344.469 67.6761C344.369 68.6761 327.469 89.0762 327.469 89.0762C327.469 89.0762 336.369 102.876 346.969 104.476C346.969 104.476 346.969 96.5762 350.069 92.5762C353.069 88.5762 350.069 95.7762 350.069 95.7762" stroke="#000631" stroke-width="0.6" stroke-linecap="round" stroke-linejoin="round"/>
<path d="M346.969 101.376C346.969 101.376 351.069 97.2761 352.569 95.7761" stroke="#000631" stroke-width="0.6" stroke-linecap="round" stroke-linejoin="round"/>
<path d="M351.069 86.0762C351.069 86.0762 355.169 101.876 355.169 111.076C355.169 114.776 355.069 130.776 355.069 130.776" stroke="#000631" stroke-width="0.6" stroke-linecap="round" stroke-linejoin="round"/>
<path d="M343.869 103.476C343.869 103.476 335.969 113.976 332.769 115.876" stroke="#000631" stroke-width="0.6" stroke-linecap="round" stroke-linejoin="round"/>
<path d="M328.569 91.6761C328.569 91.6761 319.769 104.976 317.969 109.076C316.269 113.176 315.269 113.176 315.269 114.676C315.269 116.276 318.669 121.676 322.369 124.476" stroke="#000631" stroke-width="0.6" stroke-linecap="round" stroke-linejoin="round"/>
<path d="M334.269 114.776L337.869 119.676" stroke="#000631" stroke-width="0.6" stroke-linecap="round" stroke-linejoin="round"/>
<path d="M355.569 140.776C356.569 140.876 379.169 147.276 387.869 146.076C396.569 144.876 412.469 138.776 413.969 137.276" stroke="#000631" stroke-width="0.6" stroke-linecap="round" stroke-linejoin="round"/>
<path d="M414.469 87.0762C414.469 87.0762 410.969 105.476 411.969 109.076C412.969 112.676 413.869 116.976 413.169 120.176C412.469 123.376 414.469 126.476 414.469 126.476" stroke="#000631" stroke-width="0.6" stroke-linecap="round" stroke-linejoin="round"/>
<path d="M358.269 118.276C358.269 118.276 364.569 130.576 372.169 134.976" stroke="#000631" stroke-width="0.6" stroke-linecap="round" stroke-linejoin="round"/>
<path d="M411.769 112.976C411.769 112.976 397.369 131.976 395.969 132.276C394.569 132.576 397.769 127.876 398.969 126.676" stroke="#000631" stroke-width="0.6" stroke-linecap="round" stroke-linejoin="round"/>
<path d="M403.669 126.576C404.269 125.976 409.869 121.376 410.969 117.276" stroke="#000631" stroke-width="0.6" stroke-linecap="round" stroke-linejoin="round"/>
<path d="M409.869 84.9762C409.869 84.9762 418.569 89.0762 422.169 91.1762C425.769 93.1762 429.869 96.2762 429.869 96.2762C429.869 96.2762 442.669 85.5762 443.669 74.2762C443.669 74.2762 427.269 65.5762 425.769 62.9762C424.269 60.4762 420.869 59.0762 419.169 58.3762C417.469 57.6762 399.469 53.4762 399.069 52.3762" stroke="#000631" stroke-width="0.6" stroke-linecap="round" stroke-linejoin="round"/>
<path d="M413.169 79.5762C413.169 79.5762 422.169 87.0762 424.769 89.0762" stroke="#000631" stroke-width="0.6" stroke-linecap="round" stroke-linejoin="round"/>
<path d="M427.369 89.0761C427.369 89.0761 410.469 68.4761 414.469 69.2761C418.569 70.1761 417.469 72.5761 420.569 75.9761" stroke="#000631" stroke-width="0.6" stroke-linecap="round" stroke-linejoin="round"/>
<path d="M432.069 94.2761L440.069 97.7761" stroke="#000631" stroke-width="0.6" stroke-linecap="round" stroke-linejoin="round"/>
<path d="M443.669 77.8762C443.669 77.8762 454.469 87.0762 458.069 90.6762C461.569 94.2762 462.669 98.8762 462.669 99.8762C462.669 100.876 458.569 103.476 454.469 109.076C450.369 114.676 434.269 129.276 434.269 129.276C434.269 129.276 432.669 134.776 432.069 135.476C431.369 136.176 424.269 139.776 424.269 140.276" stroke="#000631" stroke-width="0.6" stroke-linecap="round" stroke-linejoin="round"/>
<path d="M443.469 94.2761C443.469 94.2761 440.069 97.7761 437.069 105.476C433.969 113.176 428.869 121.476 427.369 121.976C425.769 122.376 413.169 126.076 411.769 128.276C410.469 130.576 413.869 132.176 413.169 134.176C412.469 136.176 413.969 136.676 414.469 138.276C415.069 139.776 417.169 138.976 417.669 140.876C418.069 142.876 421.469 142.176 423.169 142.276C424.769 142.376 428.869 139.776 428.869 138.776C428.869 137.776 428.869 137.776 428.869 137.776" stroke="#000631" stroke-width="0.6" stroke-linecap="round" stroke-linejoin="round"/>
<path d="M415.769 139.276C415.769 139.276 419.769 172.676 420.469 176.776" stroke="#000631" stroke-width="0.6" stroke-linecap="round" stroke-linejoin="round"/>
<path d="M421.669 187.876C421.669 187.876 422.669 198.976 423.769 202.876C424.869 206.776 421.569 210.076 423.769 215.676C426.069 221.176 425.469 228.476 426.569 232.876" stroke="#000631" stroke-width="0.6" stroke-linecap="round" stroke-linejoin="round"/>
<path d="M383.269 146.076L384.969 170.676" stroke="#000631" stroke-width="0.6" stroke-linecap="round" stroke-linejoin="round"/>
<path d="M387.869 146.076C387.869 146.076 388.069 157.076 388.169 159.176C388.369 161.276 388.069 163.576 388.069 163.576C388.069 163.576 385.969 166.276 384.069 165.976" stroke="#000631" stroke-width="0.6" stroke-linecap="round" stroke-linejoin="round"/>
<path d="M403.669 141.776C403.669 141.776 408.969 147.076 416.569 147.276" stroke="#000631" stroke-width="0.6" stroke-linecap="round" stroke-linejoin="round"/>
<path d="M393.469 159.676C393.469 159.676 405.269 154.576 410.169 154.876" stroke="#000631" stroke-width="0.6" stroke-linecap="round" stroke-linejoin="round"/>
<path d="M392.669 161.776L403.869 159.676" stroke="#000631" stroke-width="0.6" stroke-linecap="round" stroke-linejoin="round"/>
<path d="M365.769 143.876C365.769 143.876 362.069 150.976 356.669 151.276" stroke="#000631" stroke-width="0.6" stroke-linecap="round" stroke-linejoin="round"/>
<path d="M369.969 34.3761C369.969 34.3761 369.969 33.8761 370.969 33.8761C372.069 33.8761 372.069 33.8761 373.569 33.3761C375.069 32.7761 376.569 33.8761 376.569 33.8761" stroke="#000631" stroke-width="0.4" stroke-linecap="round" stroke-linejoin="round"/>
<path d="M370.469 34.8762C370.469 34.8762 373.469 35.6762 375.869 33.4762" stroke="#000631" stroke-width="0.4" stroke-linecap="round" stroke-linejoin="round"/>
<path d="M369.969 35.8762C369.969 35.8762 369.969 36.8762 371.569 37.3762" stroke="#000631" stroke-width="0.4" stroke-linecap="round" stroke-linejoin="round"/>
<path d="M372.769 37.3762C372.769 37.3762 374.569 36.8762 375.669 36.3762C376.669 35.8762 377.169 34.3762 377.169 34.3762" stroke="#000631" stroke-width="0.4" stroke-linecap="round" stroke-linejoin="round"/>
<path d="M368.969 29.2761C368.969 29.2761 368.969 28.3761 369.469 28.5761C369.969 28.6761 370.469 29.2761 371.269 29.2761" stroke="#000631" stroke-width="0.4" stroke-linecap="round" stroke-linejoin="round"/>
<path d="M372.469 28.5762C372.469 28.5762 372.069 27.8762 372.769 28.0762C373.569 28.1762 374.269 28.2762 374.269 28.2762L373.269 28.5762" stroke="#000631" stroke-width="0.4" stroke-linecap="round" stroke-linejoin="round"/>
<path d="M368.969 29.6762C368.969 29.6762 367.669 29.8762 368.069 27.9762C368.069 27.9762 367.669 26.2762 368.569 25.7762C369.469 25.1762 370.969 22.1762 371.269 20.8762L370.769 20.4762" stroke="#000631" stroke-width="0.4" stroke-linecap="round" stroke-linejoin="round"/>
<path d="M373.269 25.2761C373.269 25.2761 374.569 25.6761 375.669 26.1761C376.869 26.7761 375.669 27.9761 375.669 27.9761" stroke="#000631" stroke-width="0.4" stroke-linecap="round" stroke-linejoin="round"/>
<path d="M366.569 23.9762C367.169 23.7762 370.069 22.3762 370.069 22.3762C368.669 21.5762 365.869 22.0762 365.869 22.0762" stroke="#000631" stroke-width="0.4" stroke-linecap="round" stroke-linejoin="round"/>
<path d="M376.169 19.9762C376.169 19.9762 377.769 18.6762 381.569 20.1762" stroke="#000631" stroke-width="0.4" stroke-linecap="round" stroke-linejoin="round"/>
<path d="M376.169 21.5762C376.169 21.5762 379.669 21.5762 382.269 19.9762" stroke="#000631" stroke-width="0.4" stroke-linecap="round" stroke-linejoin="round"/>
<path d="M376.669 19.9762C376.669 19.9762 376.169 20.5762 377.169 21.5762" stroke="#000631" stroke-width="0.4" stroke-linecap="round" stroke-linejoin="round"/>
<path d="M377.669 19.4762C377.669 19.4762 378.269 20.2762 377.969 21.4762" stroke="#000631" stroke-width="0.4" stroke-linecap="round" stroke-linejoin="round"/>
<path d="M366.869 21.9762C366.869 21.9762 367.969 23.5762 366.369 24.0762" stroke="#000631" stroke-width="0.4" stroke-linecap="round" stroke-linejoin="round"/>
<path d="M365.869 21.0762C365.869 21.0762 368.369 20.6762 369.169 21.0762" stroke="#000631" stroke-width="0.4" stroke-linecap="round" stroke-linejoin="round"/>
<path d="M376.869 18.9761C376.669 18.9761 378.369 18.4761 380.269 18.9761" stroke="#000631" stroke-width="0.4" stroke-linecap="round" stroke-linejoin="round"/>
<path d="M369.569 17.2761C369.569 17.2761 368.969 18.4761 370.469 19.4761" stroke="#000631" stroke-width="0.4" stroke-linecap="round" stroke-linejoin="round"/>
<path d="M365.169 19.4761C365.169 19.4761 366.069 18.0761 369.169 18.1761" stroke="#000631" stroke-linecap="round" stroke-linejoin="round"/>
<path d="M374.769 17.0762C374.769 17.0762 376.169 17.0762 378.869 16.5762C381.469 16.1762 382.669 16.5762 382.669 16.5762" stroke="#000631" stroke-linecap="round" stroke-linejoin="round"/>
<path d="M374.269 17.5761C374.269 17.5761 373.469 16.9761 373.269 15.6761" stroke="#000631" stroke-width="0.4" stroke-linecap="round" stroke-linejoin="round"/>
<path d="M368.469 8.27618C368.469 8.27618 377.669 5.67617 384.369 6.17617C384.369 6.17617 384.869 11.2762 385.369 11.8762C385.869 12.3762 388.969 11.8762 390.469 13.8762C391.969 15.9762 391.969 21.9762 391.969 21.9762" stroke="#000631" stroke-width="0.4" stroke-linecap="round" stroke-linejoin="round"/>
<path d="M370.069 31.3762C370.069 31.3762 371.169 31.9762 371.869 31.3762" stroke="#000631" stroke-width="0.4" stroke-linecap="round" stroke-linejoin="round"/>
<path d="M373.769 30.6761C373.769 30.6761 375.369 30.9761 376.469 32.1761" stroke="#000631" stroke-width="0.4" stroke-linecap="round" stroke-linejoin="round"/>
<path d="M370.969 33.8762L371.569 34.9762" stroke="#000631" stroke-width="0.4" stroke-linecap="round" stroke-linejoin="round"/>
<path d="M339.069 99.7762C339.069 99.7762 343.169 94.7762 345.869 90.8762C348.469 87.0762 339.169 95.3762 339.169 95.3762" stroke="#000631" stroke-width="0.6" stroke-linecap="round" stroke-linejoin="round"/>
<path d="M365.369 16.6761L262.469 15.6761L263.969 116.176L317.969 120.176" stroke="#000631" stroke-width="0.8" stroke-linecap="round" stroke-linejoin="round"/>
<path d="M424.269 60.7762L423.969 17.2762L398.269 17.0762" stroke="#000631" stroke-width="0.8" stroke-linecap="round" stroke-linejoin="round"/>
<path d="M424.669 122.676L424.469 92.9762" stroke="#000631" stroke-width="0.8" stroke-linecap="round" stroke-linejoin="round"/>
<path d="M307.969 30.4762C322.569 30.5762 334.369 42.4762 334.369 57.1762C334.369 71.8762 322.469 83.7762 307.769 83.7762C293.069 83.7762 281.169 71.8762 281.169 57.1762C281.169 42.4762 293.069 30.4762 307.769 30.4762" stroke="#000631" stroke-width="0.8" stroke-linecap="round" stroke-linejoin="round"/>
<path d="M323.869 35.8762L308.369 57.1762L333.369 49.6762" stroke="#000631" stroke-width="0.5" stroke-linecap="round" stroke-linejoin="round"/>
<path d="M324.369 77.9762L308.369 57.1761L281.669 62.3762" stroke="#000631" stroke-width="0.5" stroke-linecap="round" stroke-linejoin="round"/>
<path d="M355.569 145.076C356.669 145.776 354.669 164.176 355.169 164.876" stroke="#000631" stroke-width="0.6" stroke-linecap="round" stroke-linejoin="round"/>
<path d="M378.569 164.876C378.569 164.876 369.769 160.776 367.169 160.776" stroke="#000631" stroke-width="0.6" stroke-linecap="round" stroke-linejoin="round"/>
<path d="M388.069 172.676C388.069 172.676 399.369 170.676 401.869 170.676" stroke="#000631" stroke-width="0.6" stroke-linecap="round" stroke-linejoin="round"/>
<path d="M66.3691 86.0762L81.3691 89.9762" stroke="#000631" stroke-width="1.1" stroke-linecap="round" stroke-linejoin="round"/>
<path d="M93.8691 61.7761L100.969 73.8761" stroke="#000631" stroke-width="1.1" stroke-linecap="round" stroke-linejoin="round"/>
<path d="M134.569 61.7761L130.269 73.8761" stroke="#000631" stroke-width="1.1" stroke-linecap="round" stroke-linejoin="round"/>
<path d="M182.269 82.8762C182.269 82.8762 183.569 80.2762 182.269 80.2762C180.869 80.2762 181.469 81.8762 180.069 81.6762C178.669 81.4762 182.269 79.1762 182.169 77.5762C182.069 75.8762 175.969 77.5762 175.369 79.1762C174.769 80.8762 181.069 78.4762 181.569 73.8762C182.069 69.2762 169.869 73.0762 169.869 76.4762C169.869 79.7762 178.169 73.6762 180.869 69.2762C183.669 64.7762 170.269 65.3762 163.369 69.2762C156.469 73.0762 175.369 70.8762 180.869 62.5762C186.469 54.2762 160.969 63.6762 158.169 65.8762" stroke="#000631" stroke-width="1.7" stroke-linecap="round" stroke-linejoin="round"/>
<path d="M334.569 57.2762C334.569 71.9762 322.569 83.8761 307.869 83.8761C293.169 83.8761 281.269 71.9762 281.269 57.2762C281.269 42.5762 293.169 30.6761 307.869 30.6761C322.569 30.6761 334.569 42.5762 334.569 57.2762Z" fill="#6BD4CD"/>
<path d="M308.569 57.2761L324.369 78.2761C324.369 78.2761 310.869 89.9761 293.169 79.4761C293.169 79.4761 283.069 72.3761 281.769 62.3761L308.569 57.2761Z" fill="#90F4EA"/>
<path d="M308.569 57.2761L323.769 35.9761C323.769 35.9761 331.369 40.9761 333.369 49.6761L308.569 57.2761Z" fill="#5EBCB3"/>
<path d="M308.569 57.2762L333.369 49.6761C333.369 49.6761 335.069 58.0762 333.169 65.2762C331.469 71.6762 324.369 78.2762 324.369 78.2762L308.569 57.2762Z" fill="#50A59B"/>
<path d="M121.569 155.876L123.369 157.076L125.369 171.676L125.669 179.276C125.669 179.276 126.869 178.776 127.969 178.776C129.069 178.776 133.469 179.276 133.469 179.276L130.169 165.676L127.269 155.876L127.969 152.676L125.769 148.976C125.769 148.976 123.169 149.076 123.369 149.476C123.469 149.876 121.569 155.876 121.569 155.876Z" fill="#6BD4CD"/>
<path d="M125.869 191.276L125.769 205.876L136.269 202.076L134.269 192.576L125.869 191.276Z" fill="#6BD4CD"/>
<path d="M46.569 176.976L45.769 183.276L47.769 184.276C47.769 184.276 52.569 219.176 52.269 223.676C52.269 223.676 54.769 222.276 56.169 222.076C57.569 221.976 60.269 223.376 60.269 223.376L62.469 222.076C62.469 222.076 59.269 203.876 55.569 195.776L51.469 183.076V179.076L48.069 175.976L46.569 176.976Z" fill="#344A6B"/>
<path d="M289.869 245.876C289.869 245.876 292.869 245.976 295.869 247.276C298.769 248.676 301.369 255.476 301.369 255.476L302.669 258.076L292.669 260.876C292.669 260.876 293.069 258.576 292.869 257.476C292.669 256.376 290.969 254.776 290.969 254.776C290.969 254.776 289.869 252.976 289.569 251.876C289.369 250.876 289.869 245.876 289.869 245.876Z" fill="#344A6B"/>
<path d="M227.769 267.476C227.769 267.476 220.169 272.576 217.569 275.876C214.969 279.176 212.369 283.376 212.369 283.376C212.369 283.376 210.569 286.376 210.869 287.776C211.169 289.076 211.769 288.576 211.969 290.476C212.269 292.476 214.969 321.876 214.969 321.876C214.969 321.876 220.169 326.776 226.969 328.476C233.869 330.176 243.269 328.476 243.269 328.476C243.269 328.476 244.269 306.876 244.869 300.776C245.469 294.676 248.269 279.676 249.369 279.176C250.469 278.576 252.569 277.176 253.769 276.776C254.969 276.376 257.069 275.276 257.069 275.276C257.069 275.276 258.369 274.376 254.669 273.676C254.669 273.676 248.869 275.276 247.769 274.676C246.669 274.176 244.369 268.876 243.269 268.676C242.169 268.576 236.969 271.276 234.069 270.776C231.069 270.276 228.369 268.576 227.769 267.476Z" fill="#344A6B"/>
<path d="M310.969 276.276L317.169 301.876C317.169 301.876 318.169 305.576 318.169 305.976C318.169 306.276 315.369 309.676 314.269 310.176C313.169 310.776 310.369 312.676 310.369 312.676L310.969 276.276Z" fill="#344A6B"/>
<path d="M336.269 185.276V181.976C336.269 181.976 347.369 172.076 350.269 170.676C353.069 169.276 360.269 165.976 360.869 165.976C361.469 165.976 367.969 168.476 368.569 169.776C368.569 169.776 381.069 169.976 385.669 171.876C390.269 173.776 391.769 174.276 393.469 176.776C395.269 179.276 399.469 187.876 399.469 187.876L404.169 196.876C404.169 196.876 408.669 202.076 409.969 204.576C411.369 207.076 410.769 208.676 410.769 209.776C410.769 210.876 414.469 216.676 414.569 220.176C414.669 223.676 414.669 227.176 412.469 229.576C410.269 231.976 404.969 232.476 404.969 232.476L401.369 233.076L399.869 206.876C399.869 206.876 400.769 195.576 398.269 193.576C395.769 191.476 391.969 191.476 388.869 192.576C385.869 193.676 357.169 207.776 357.169 207.776L342.769 215.676C342.769 215.676 340.069 216.876 339.969 218.076C339.769 219.276 337.769 231.776 337.969 238.276C338.169 244.776 338.169 272.076 338.469 274.476C338.669 276.876 338.669 277.876 338.669 277.876C338.669 277.876 332.069 276.876 332.569 275.276C333.169 273.576 334.569 267.576 334.369 266.976C334.269 266.376 335.169 256.676 334.969 255.676C334.769 254.776 333.869 251.376 333.869 251.376C333.869 251.376 329.269 257.476 327.569 258.576C325.969 259.676 322.269 261.176 321.569 261.876C320.969 262.476 317.869 264.276 316.669 264.776C315.369 265.276 311.769 267.776 311.769 267.776C311.769 267.776 312.669 260.676 309.069 258.776C309.069 258.776 305.769 257.976 304.169 257.976C302.669 258.076 302.669 258.076 302.669 258.076L299.369 251.376L302.669 241.076C302.669 241.076 303.569 238.276 304.169 237.576C304.869 236.976 305.669 235.676 305.569 234.876C305.369 234.176 305.069 229.176 305.569 227.576C305.969 225.876 308.169 221.676 308.169 221.676C308.169 221.676 310.669 215.176 311.069 213.876C311.469 212.576 313.669 210.376 313.669 210.376C313.669 210.376 313.269 205.576 314.569 203.476C315.969 201.476 317.669 198.276 319.369 195.776C320.969 193.176 324.269 190.976 324.269 190.976L336.269 185.276Z" fill="#FFF8E6"/>
<path d="M355.569 145.076C355.569 145.076 355.969 147.576 355.969 148.176C355.869 148.776 355.069 164.576 355.069 164.576L356.669 167.276L360.869 165.976L368.569 169.776C368.569 169.776 378.969 169.876 382.369 170.976C385.869 172.076 388.069 172.676 389.169 173.176C390.269 173.776 390.969 174.076 390.969 174.076L420.469 177.276L417.269 151.176L415.769 139.276C415.769 139.276 415.569 139.276 414.869 138.776C414.069 138.276 413.969 137.276 413.969 137.276C413.969 137.276 404.569 142.176 393.469 144.976C382.469 147.676 370.869 144.376 370.869 144.376L355.569 140.776V145.076Z" fill="#344A6B"/>
<path d="M405.369 198.476C405.269 198.676 421.669 187.476 421.669 187.476L422.569 195.676C422.569 195.676 422.869 201.076 423.469 201.576C424.069 202.076 423.969 203.976 424.069 204.676C424.069 205.376 423.169 210.176 423.069 210.576C422.969 210.876 423.069 213.376 423.269 214.076C423.569 214.776 424.869 218.276 424.769 218.776C424.669 219.276 425.969 225.876 425.869 227.576C425.769 229.176 426.569 232.876 426.569 232.876C426.569 232.876 423.569 238.676 420.769 238.676C414.669 238.676 404.669 242.576 402.469 241.976L401.369 233.076C401.369 233.076 411.369 231.076 412.469 229.576C413.569 228.076 414.969 226.676 414.769 223.776C414.669 220.876 414.969 218.876 414.269 218.476C413.569 218.076 412.769 214.476 412.069 212.976C411.369 211.476 410.769 208.676 410.769 208.676C410.769 208.676 409.769 204.576 409.969 204.176C410.269 203.676 405.369 198.476 405.369 198.476Z" fill="#344A6B"/>
<path d="M375.869 131.476L384.169 140.876L390.569 132.276L387.869 103.676L385.669 79.1761L384.669 66.4761C384.669 66.4761 386.469 63.9761 386.469 63.6761C386.369 63.3761 386.069 62.3761 386.069 62.3761L383.169 57.3761H382.169C382.169 57.3761 380.869 60.0761 380.269 61.4761C379.769 62.8761 379.469 64.8761 379.469 64.8761L380.569 67.0761L378.269 86.2761C378.269 86.2761 377.169 96.1761 377.469 101.076C378.069 109.976 375.869 131.476 375.869 131.476Z" fill="#000631"/>
<path d="M206.969 144.076L211.369 159.076C211.369 159.076 207.369 159.976 207.569 160.176C207.769 160.476 204.969 160.876 204.469 161.476C203.969 162.076 201.669 164.276 201.669 163.976C201.669 163.776 198.369 167.076 198.369 167.076L211.969 166.476V167.376L216.369 167.576L218.969 170.776C218.969 170.776 210.269 177.976 202.169 181.376C193.969 184.876 184.069 187.376 183.169 187.776C182.269 188.176 179.769 187.376 179.769 187.376L177.369 184.576C177.369 184.576 178.469 179.676 178.469 176.176C178.369 172.676 177.569 160.476 177.169 157.376L176.569 152.376L178.069 140.776C178.069 140.776 180.669 134.976 180.969 133.876C181.169 132.676 180.469 128.576 180.469 128.576L189.269 121.976C189.269 121.976 188.369 129.376 194.469 134.376C194.469 134.376 191.869 130.476 192.069 128.276C192.069 128.276 192.269 132.276 196.969 134.976C201.669 137.676 204.969 147.176 203.369 150.776C203.369 150.776 205.569 147.676 206.969 144.076Z" fill="#E58D00"/>
<path d="M214.169 156.276C214.169 156.276 211.169 160.476 211.969 167.376L227.069 168.176L251.369 169.676C251.369 169.676 256.469 169.276 257.369 167.076C257.369 167.076 257.269 163.476 257.169 163.076C257.169 162.676 257.969 157.676 257.569 157.376C257.169 157.076 254.669 152.376 254.669 152.376C254.669 152.376 253.269 150.476 253.569 149.876C253.869 149.376 253.269 147.176 252.469 145.176C251.569 143.276 243.669 126.876 243.669 126.876C243.669 126.876 242.569 123.376 241.269 122.776C239.969 122.176 234.469 120.576 234.469 120.576L228.769 118.476C228.769 118.476 228.869 124.976 229.469 126.076C229.969 127.176 229.969 131.576 229.969 131.576L228.569 139.676L228.069 155.576L214.169 156.276Z" fill="#E58D00"/>
<path d="M324.769 242.976C324.769 242.976 326.769 242.276 328.269 242.976C329.769 243.676 332.369 247.476 332.369 247.476L328.269 237.076L324.769 242.976Z" fill="#000631"/>
<path d="M246.069 288.576C246.069 288.576 244.369 291.476 243.269 293.876C242.169 296.276 240.869 328.776 240.869 328.776L243.269 328.476C243.269 328.476 244.369 299.676 246.069 288.576Z" fill="#000631"/>
<path d="M375.169 45.7762C375.169 45.7762 378.269 44.9762 379.569 44.4762C380.869 43.9762 388.169 37.7762 388.369 37.8762C388.569 37.8762 390.869 35.5762 390.869 35.5762C390.869 35.5762 384.469 44.2762 382.669 45.7762C380.869 47.2762 375.569 47.7762 375.169 47.2762V45.7762Z" fill="#000631"/>
<path d="M365.869 22.1761L366.869 21.9761C366.869 21.9761 367.469 22.3761 367.269 23.1761C366.969 24.0761 366.569 23.9761 366.569 23.9761L365.869 22.1761Z" fill="#000631"/>
<path d="M376.769 19.7761C376.769 19.7761 376.269 20.3761 376.569 20.7761C376.969 21.2761 377.169 21.5761 377.169 21.5761L377.969 21.4761C377.969 21.4761 378.369 19.4761 377.669 19.4761L376.769 19.7761Z" fill="#000631"/>
<path d="M328.869 90.9761C328.869 90.9761 333.469 97.0761 336.669 99.3761C339.769 101.676 343.769 103.676 343.769 103.676L342.669 104.976C342.669 104.976 336.469 101.676 333.169 98.8761C329.769 96.0761 327.969 92.5761 327.969 92.5761L328.869 90.9761Z" fill="#000631"/>
<path d="M432.069 94.2762C432.069 94.2762 437.069 88.9762 439.469 85.3762C441.869 81.6762 443.069 77.5762 443.069 77.5762L444.269 78.2762C444.269 78.2762 442.969 82.7762 440.769 86.6762C438.469 90.5762 433.169 94.7762 433.169 94.7762L432.069 94.2762Z" fill="#000631"/>
<path d="M156.769 182.576C156.769 182.576 160.669 173.776 163.969 171.576L163.869 173.876C163.869 173.876 159.769 177.476 157.769 183.676L156.769 182.576Z" fill="#000631"/>
<path d="M85.769 191.976C85.769 191.976 95.869 194.976 102.769 194.076V195.476C102.769 195.476 90.069 196.476 86.069 193.676L85.769 191.976Z" fill="#000631"/>
<path d="M111.169 135.276C111.169 135.276 118.569 140.376 121.569 140.676C124.669 141.076 127.769 140.076 128.669 139.476C129.569 138.776 130.269 137.976 130.269 137.976L129.669 140.976C129.669 140.976 126.869 144.276 123.469 143.476C120.169 142.676 112.769 138.876 111.169 135.276Z" fill="#000631"/>
<path d="M54.8692 138.876C54.8692 138.876 54.7692 141.076 56.1692 141.276C56.1692 141.276 56.0692 138.976 54.8692 138.876Z" fill="#000631"/>
<path d="M45.6689 141.676C45.6689 141.676 44.869 143.576 46.269 144.776H46.769C46.769 144.776 47.7689 141.776 45.6689 141.676Z" fill="#000631"/>
<path d="M44.769 165.676C44.769 165.476 48.569 168.476 49.469 168.376L49.069 166.676L44.769 165.676Z" fill="#000631"/>
<path d="M204.469 119.276C204.469 119.276 207.269 122.176 210.869 122.976C214.469 123.876 216.569 121.276 216.369 120.876C216.169 120.476 216.569 119.276 216.569 119.276C216.569 119.276 214.769 119.876 212.969 119.876C211.169 119.976 203.069 116.876 203.069 116.876L204.469 119.276Z" fill="#000631"/>
<path d="M203.269 99.1761C203.269 99.1761 203.369 99.4762 204.769 99.7762C206.169 99.9762 206.269 98.6761 206.269 98.6761L203.269 99.1761Z" fill="#000631"/>
<path d="M215.169 96.8761C215.169 96.8761 215.569 97.2761 216.669 97.4761C217.769 97.7761 218.069 96.2761 218.069 96.2761C218.069 96.2761 215.269 96.5761 215.169 96.8761Z" fill="#000631"/>
</svg>
