<svg width="63" height="63" viewBox="0 0 63 63" fill="none" xmlns="http://www.w3.org/2000/svg">
<g clip-path="url(#clip0_251_4078)">
<path d="M31.5 13.6217C37.323 13.6217 38.0126 13.6439 40.3122 13.7488C42.4384 13.8458 43.5931 14.2011 44.3616 14.4997C45.3795 14.8953 46.106 15.3679 46.8691 16.131C47.6322 16.8941 48.1048 17.6206 48.5003 18.6385C48.799 19.407 49.1543 20.5617 49.2513 22.6878C49.3562 24.9875 49.3784 25.6771 49.3784 31.5001C49.3784 37.323 49.3562 38.0127 49.2513 40.3122C49.1543 42.4384 48.799 43.5931 48.5003 44.3617C48.1048 45.3795 47.6322 46.106 46.8691 46.8691C46.106 47.6322 45.3795 48.1048 44.3616 48.5004C43.5931 48.799 42.4384 49.1543 40.3122 49.2513C38.013 49.3562 37.3233 49.3784 31.5 49.3784C25.6768 49.3784 24.9871 49.3562 22.6879 49.2513C20.5617 49.1543 19.407 48.799 18.6385 48.5004C17.6206 48.1048 16.8941 47.6322 16.131 46.8691C15.3679 46.106 14.8952 45.3795 14.4997 44.3617C14.2011 43.5931 13.8458 42.4384 13.7488 40.3123C13.6439 38.0127 13.6217 37.323 13.6217 31.5001C13.6217 25.6771 13.6439 24.9875 13.7488 22.6879C13.8458 20.5617 14.2011 19.407 14.4997 18.6385C14.8952 17.6206 15.3679 16.8941 16.131 16.131C16.8941 15.3679 17.6206 14.8953 18.6385 14.4997C19.407 14.2011 20.5617 13.8458 22.6878 13.7488C24.9874 13.6439 25.6771 13.6217 31.5 13.6217ZM31.5 9.69232C25.5774 9.69232 24.8348 9.71743 22.5088 9.82356C20.1875 9.92951 18.6023 10.2981 17.2151 10.8372C15.7811 11.3946 14.5649 12.1402 13.3526 13.3526C12.1402 14.5649 11.3945 15.7811 10.8372 17.2151C10.2981 18.6024 9.92949 20.1876 9.82353 22.5088C9.7174 24.8348 9.69238 25.5774 9.69238 31.5001C9.69238 37.4227 9.7174 38.1654 9.82353 40.4913C9.92949 42.8126 10.2981 44.3978 10.8372 45.785C11.3945 47.2189 12.1402 48.4352 13.3526 49.6475C14.5649 50.8599 15.7811 51.6056 17.2151 52.1629C18.6023 52.702 20.1875 53.0706 22.5088 53.1766C24.8348 53.2827 25.5774 53.3077 31.5 53.3077C37.4227 53.3077 38.1653 53.2827 40.4913 53.1766C42.8125 53.0706 44.3977 52.702 45.7849 52.1629C47.219 51.6056 48.4352 50.8599 49.6475 49.6475C50.8599 48.4352 51.6055 47.219 52.1629 45.785C52.702 44.3978 53.0706 42.8126 53.1765 40.4913C53.2827 38.1654 53.3078 37.4227 53.3078 31.5001C53.3078 25.5774 53.2827 24.8348 53.1765 22.5088C53.0706 20.1876 52.702 18.6024 52.1629 17.2151C51.6055 15.7811 50.8599 14.5649 49.6475 13.3526C48.4352 12.1402 47.219 11.3946 45.7849 10.8372C44.3977 10.2981 42.8125 9.92951 40.4913 9.82356C38.1653 9.71743 37.4227 9.69232 31.5 9.69232ZM31.5 20.3015C25.3153 20.3015 20.3015 25.3153 20.3015 31.5001C20.3015 37.6848 25.3153 42.6986 31.5 42.6986C37.6848 42.6986 42.6986 37.6848 42.6986 31.5001C42.6986 25.3153 37.6848 20.3015 31.5 20.3015ZM31.5 38.7693C27.4854 38.7693 24.2308 35.5147 24.2308 31.5001C24.2308 27.4854 27.4854 24.2308 31.5 24.2308C35.5147 24.2308 38.7693 27.4854 38.7693 31.5001C38.7693 35.5147 35.5147 38.7693 31.5 38.7693ZM45.7579 19.859C45.7579 21.3043 44.5864 22.476 43.1411 22.476C41.6958 22.476 40.5241 21.3043 40.5241 19.859C40.5241 18.4137 41.6958 17.2422 43.1411 17.2422C44.5864 17.2422 45.7579 18.4137 45.7579 19.859Z" fill="white"/>
</g>
<defs>
<clipPath id="clip0_251_4078">
<rect width="43.6154" height="43.6154" fill="white" transform="translate(9.69238 9.69232)"/>
</clipPath>
</defs>
</svg>
