<svg width="64" height="63" viewBox="0 0 64 63" fill="none" xmlns="http://www.w3.org/2000/svg">
<path d="M42.6841 21.0562C48.8387 21.0562 53.4426 25.127 53.4426 33.8743V50.23H44.0895V34.9647C44.0895 31.1362 42.7326 28.5193 39.2433 28.5193C38.1709 28.516 37.1249 28.8516 36.2546 29.4782C35.3843 30.1049 34.7342 30.9904 34.3972 32.0085C34.1434 32.748 34.0364 33.5299 34.0822 34.3104V50.23H24.8987V49.9877C24.8987 47.4193 24.8987 24.2547 24.8987 21.7104H34.2518V25.7327C35.0961 24.2573 36.3284 23.0414 37.8149 22.217C39.3015 21.3925 40.9855 20.9911 42.6841 21.0562ZM19.7376 21.7104V50.23H10.3845V21.7104H19.7376ZM15.1095 7.97158C15.7777 7.91794 16.4498 8.00353 17.0833 8.22294C17.7168 8.44236 18.2978 8.79081 18.7897 9.24628C19.2816 9.70174 19.6737 10.2543 19.9411 10.8691C20.2085 11.4838 20.3455 12.1473 20.3433 12.8177C20.3464 13.4948 20.2076 14.165 19.9357 14.7851C19.6639 15.4052 19.2652 15.9615 18.7652 16.4181C18.2653 16.8747 17.6752 17.2215 17.033 17.436C16.3908 17.6506 15.7108 17.7282 15.0368 17.6639C14.3705 17.714 13.701 17.6258 13.0705 17.4048C12.4399 17.1838 11.8618 16.8348 11.3726 16.3797C10.8834 15.9246 10.4935 15.3732 10.2276 14.7602C9.96162 14.1473 9.82531 13.4859 9.82719 12.8177C9.82445 12.1429 9.96268 11.4749 10.233 10.8566C10.5034 10.2383 10.8999 9.68327 11.3972 9.22706C11.8944 8.77085 12.4815 8.42352 13.1208 8.20733C13.76 7.99113 14.4374 7.91083 15.1095 7.97158Z" fill="white"/>
</svg>
