<svg width="258" height="241" viewBox="0 0 258 241" fill="none" xmlns="http://www.w3.org/2000/svg">
<g filter="url(#filter0_d_504_117)">
<path d="M252.12 81.4429L245.892 72.3084C245.478 71.7011 244.575 71.7271 244.204 72.3615C238.204 82.6189 227.945 100.288 228.5 117.5C228.991 132.714 229.963 137.812 244.185 159.746C244.57 160.341 245.443 160.368 245.849 159.788L251.57 151.613C251.825 151.25 251.807 150.762 251.536 150.41C242.378 138.526 240.684 123.011 240.996 116.573C240.999 116.522 240.997 116.475 240.992 116.425C239.867 104.766 247.72 89.3677 252.131 82.561C252.353 82.2191 252.349 81.7796 252.12 81.4429Z" fill="white"/>
<path d="M252.12 81.4429L245.892 72.3084C245.478 71.7011 244.575 71.7271 244.204 72.3615C238.204 82.6189 227.945 100.288 228.5 117.5C228.991 132.714 229.963 137.812 244.185 159.746C244.57 160.341 245.443 160.368 245.849 159.788L251.57 151.613C251.825 151.25 251.807 150.762 251.536 150.41C242.378 138.526 240.684 123.011 240.996 116.573C240.999 116.522 240.997 116.475 240.992 116.425C239.867 104.766 247.72 89.3677 252.131 82.561C252.353 82.2191 252.349 81.7796 252.12 81.4429Z" stroke="white"/>
</g>
<g filter="url(#filter1_d_504_117)">
<path d="M221.829 58.2757L227.806 71.084C227.929 71.3481 227.928 71.6608 227.808 71.9264C220.982 87.0383 219.973 89.1664 217 107C216.666 110.167 216.1 118.2 216.5 125C216.829 131.594 219.442 148.329 227.24 163.015C227.4 163.317 227.398 163.681 227.231 163.98L221.355 174.474C220.977 175.149 220.008 175.154 219.624 174.482C212.424 161.856 209.606 153.248 207.5 146.5C204.81 137.879 204.327 131.283 203.5 117.5C202.202 95.8713 213.893 69.7741 220.069 58.2106C220.454 57.4903 221.484 57.5359 221.829 58.2757Z" fill="white"/>
<path d="M221.829 58.2757L227.806 71.084C227.929 71.3481 227.928 71.6608 227.808 71.9264C220.982 87.0383 219.973 89.1664 217 107C216.666 110.167 216.1 118.2 216.5 125C216.829 131.594 219.442 148.329 227.24 163.015C227.4 163.317 227.398 163.681 227.231 163.98L221.355 174.474C220.977 175.149 220.008 175.154 219.624 174.482C212.424 161.856 209.606 153.248 207.5 146.5C204.81 137.879 204.327 131.283 203.5 117.5C202.202 95.8713 213.893 69.7741 220.069 58.2106C220.454 57.4903 221.484 57.5359 221.829 58.2757Z" stroke="white"/>
</g>
<g filter="url(#filter2_d_504_117)">
<path d="M5.86738 151.557L12.0955 160.692C12.5095 161.299 13.4123 161.273 13.7834 160.639C19.7831 150.381 30.0424 132.712 29.4873 115.5C28.9967 100.286 28.0239 95.1879 13.8025 73.2537C13.4172 72.6595 12.5448 72.6321 12.1387 73.2123L6.41721 81.3866C6.16269 81.7502 6.18013 82.2384 6.45106 82.59C15.6092 94.4741 17.3029 109.989 16.9912 116.427C16.9888 116.478 16.9901 116.525 16.9949 116.575C18.1208 128.234 10.2671 143.632 5.85621 150.439C5.63461 150.781 5.63782 151.22 5.86738 151.557Z" fill="white"/>
<path d="M5.86738 151.557L12.0955 160.692C12.5095 161.299 13.4123 161.273 13.7834 160.639C19.7831 150.381 30.0424 132.712 29.4873 115.5C28.9967 100.286 28.0239 95.1879 13.8025 73.2537C13.4172 72.6595 12.5448 72.6321 12.1387 73.2123L6.41721 81.3866C6.16269 81.7502 6.18013 82.2384 6.45106 82.59C15.6092 94.4741 17.3029 109.989 16.9912 116.427C16.9888 116.478 16.9901 116.525 16.9949 116.575C18.1208 128.234 10.2671 143.632 5.85621 150.439C5.63461 150.781 5.63782 151.22 5.86738 151.557Z" stroke="white"/>
</g>
<g filter="url(#filter3_d_504_117)">
<path d="M36.6307 174.344L30.2156 161.941C30.0719 161.663 30.0672 161.332 30.2018 161.05C35.1017 150.769 39.0162 142.756 40.9875 126C41.3208 122.833 41.8875 114.8 41.4875 108C40.9922 99.5798 38.5465 88.2156 30.2256 71.9634C30.0779 71.6749 30.0759 71.329 30.2248 71.0412L36.6705 58.5788C37.0287 57.8862 38.0187 57.8727 38.4215 58.5403C56.9195 89.2001 54.5079 95.4064 54.9997 120C55.475 143.77 44.4883 163.472 38.3921 174.378C38.0028 175.075 36.9973 175.052 36.6307 174.344Z" fill="white"/>
<path d="M36.6307 174.344L30.2156 161.941C30.0719 161.663 30.0672 161.332 30.2018 161.05C35.1017 150.769 39.0162 142.756 40.9875 126C41.3208 122.833 41.8875 114.8 41.4875 108C40.9922 99.5798 38.5465 88.2156 30.2256 71.9634C30.0779 71.6749 30.0759 71.329 30.2248 71.0412L36.6705 58.5788C37.0287 57.8862 38.0187 57.8727 38.4215 58.5403C56.9195 89.2001 54.5079 95.4064 54.9997 120C55.475 143.77 44.4883 163.472 38.3921 174.378C38.0028 175.075 36.9973 175.052 36.6307 174.344Z" stroke="white"/>
</g>
<g filter="url(#filter4_d_504_117)">
<path fill-rule="evenodd" clip-rule="evenodd" d="M89.9641 9.03585C102.214 3.34999 132.734 -3.26753 165.439 10.5444C165.998 10.7804 166.217 11.4635 165.902 11.9821C153.808 31.9052 144.988 49.213 135.721 78.7908C135.591 79.2085 135.202 79.4997 134.764 79.4997H122.275C121.819 79.4997 121.423 79.1994 121.305 78.7589C117.182 63.3518 105.983 38.1156 89.5524 10.4285C89.2557 9.92847 89.4366 9.28067 89.9641 9.03585ZM125 56.5001H131C134 48.1667 141.5 29.7001 147.5 22.5001C141.667 19.8334 126.1 15.6002 108.5 22.0002C112 27.167 120.2 41.3004 125 56.5001Z" fill="white"/>
<path d="M165.439 10.5444L165.634 10.0838L165.634 10.0838L165.439 10.5444ZM89.9641 9.03585L90.1746 9.48938L90.1746 9.48938L89.9641 9.03585ZM165.902 11.9821L165.475 11.7226L165.475 11.7226L165.902 11.9821ZM135.721 78.7908L135.244 78.6413L135.244 78.6413L135.721 78.7908ZM121.305 78.7589L121.788 78.6296L121.788 78.6296L121.305 78.7589ZM89.5524 10.4285L89.9824 10.1734L89.9824 10.1734L89.5524 10.4285ZM131 56.5001V57.0001H131.351L131.47 56.6694L131 56.5001ZM125 56.5001L124.523 56.6506L124.634 57.0001H125V56.5001ZM147.5 22.5001L147.884 22.8202L148.303 22.3174L147.708 22.0453L147.5 22.5001ZM108.5 22.0002L108.329 21.5304L107.726 21.7496L108.086 22.2807L108.5 22.0002ZM165.634 10.0838C132.779 -3.79143 102.11 2.84681 89.7535 8.58233L90.1746 9.48938C102.317 3.85317 132.69 -2.74364 165.245 11.005L165.634 10.0838ZM166.33 12.2415C166.802 11.4637 166.475 10.4392 165.634 10.0838L165.245 11.005C165.521 11.1216 165.632 11.4634 165.475 11.7226L166.33 12.2415ZM136.199 78.9403C145.451 49.4069 154.253 32.1359 166.33 12.2415L165.475 11.7226C153.363 31.6746 144.525 49.0191 135.244 78.6413L136.199 78.9403ZM134.764 79.9997C135.425 79.9997 136.004 79.5623 136.199 78.9403L135.244 78.6413C135.177 78.8547 134.979 78.9997 134.764 78.9997V79.9997ZM122.275 79.9997H134.764V78.9997H122.275V79.9997ZM120.822 78.8882C120.999 79.5499 121.595 79.9997 122.275 79.9997V78.9997C122.042 78.9997 121.847 78.849 121.788 78.6296L120.822 78.8882ZM89.1225 10.6837C105.542 38.352 116.716 63.5435 120.822 78.8882L121.788 78.6296C117.648 63.16 106.424 37.8793 89.9824 10.1734L89.1225 10.6837ZM89.7535 8.58233C88.9417 8.95915 88.6837 9.94428 89.1225 10.6837L89.9824 10.1734C89.8277 9.91266 89.9315 9.60219 90.1746 9.48938L89.7535 8.58233ZM131 56.0001H125V57.0001H131V56.0001ZM147.116 22.18C144.069 25.8368 140.67 32.3094 137.67 38.8671C134.664 45.4399 132.034 52.1531 130.53 56.3307L131.47 56.6694C132.966 52.5138 135.586 45.8269 138.58 39.2831C141.58 32.724 144.931 26.3634 147.884 22.8202L147.116 22.18ZM108.671 22.4701C126.118 16.1258 141.546 20.328 147.292 22.9548L147.708 22.0453C141.787 19.3388 126.082 15.0747 108.329 21.5304L108.671 22.4701ZM125.477 56.3495C120.659 41.0922 112.433 26.9151 108.914 21.7198L108.086 22.2807C111.567 27.4189 119.741 41.5086 124.523 56.6506L125.477 56.3495Z" fill="white"/>
</g>
<g filter="url(#filter5_d_504_117)">
<path fill-rule="evenodd" clip-rule="evenodd" d="M165.871 222.106C166.202 222.608 166.03 223.291 165.484 223.543C153.232 229.204 123.188 235.523 88.6806 224.387C88.0752 224.192 87.8002 223.49 88.1221 222.941C96.5226 208.62 111.469 182.237 120.28 154.257C120.412 153.84 120.798 153.555 121.236 153.555L132.344 153.555C132.743 153.555 133.103 153.791 133.26 154.157C134.681 157.477 136.088 161.185 137.645 165.284C143.027 179.463 150.189 198.331 165.871 222.106ZM130.723 182.253C130.589 181.837 130.203 181.554 129.767 181.554L125.203 181.554C124.781 181.554 124.407 181.815 124.262 182.211C121.262 190.43 114.5 206.944 108.807 214.532C108.411 215.059 108.591 215.823 109.203 216.069C115.622 218.643 129.779 221.891 145.786 216.48C146.403 216.271 146.646 215.531 146.292 214.984C142.552 209.216 135.244 196.239 130.723 182.253Z" fill="white"/>
<path d="M137.645 165.284L137.177 165.461L137.177 165.461L137.645 165.284ZM146.292 214.984L146.712 214.712L146.292 214.984ZM108.807 214.532L109.207 214.832L108.807 214.532ZM109.203 216.069L109.389 215.605L109.203 216.069ZM129.767 181.554L129.767 182.054L129.767 181.554ZM130.723 182.253L130.247 182.406L130.723 182.253ZM132.344 153.555L132.344 154.055L132.344 153.555ZM133.26 154.157L132.8 154.353L133.26 154.157ZM120.28 154.257L120.757 154.407L120.28 154.257ZM121.236 153.555L121.236 153.055L121.236 153.555ZM165.871 222.106L166.289 221.831L165.871 222.106ZM125.203 181.554L125.203 182.054L125.203 181.554ZM124.262 182.211L123.792 182.039L124.262 182.211ZM88.6806 224.387L88.8342 223.911L88.6806 224.387ZM88.1221 222.941L88.5534 223.194L88.1221 222.941ZM88.5271 224.863C123.159 236.039 153.332 229.708 165.694 223.997L165.275 223.089C153.132 228.699 123.218 235.007 88.8342 223.911L88.5271 224.863ZM119.803 154.107C111.01 182.029 96.0893 208.37 87.6908 222.688L88.5534 223.194C96.9559 208.869 111.927 182.445 120.757 154.407L119.803 154.107ZM132.344 153.055L121.236 153.055L121.236 154.055L132.344 154.055L132.344 153.055ZM138.112 165.107C136.557 161.01 135.146 157.292 133.719 153.96L132.8 154.353C134.216 157.663 135.62 161.36 137.177 165.461L138.112 165.107ZM166.289 221.831C150.638 198.103 143.491 179.277 138.112 165.107L137.177 165.461C142.563 179.649 149.741 198.559 165.454 222.381L166.289 221.831ZM125.203 182.054L129.767 182.054L129.767 181.054L125.203 181.054L125.203 182.054ZM109.207 214.832C112.088 210.992 115.221 204.923 118 198.815C120.783 192.697 123.228 186.502 124.732 182.382L123.792 182.039C122.296 186.139 119.86 192.31 117.089 198.401C114.314 204.502 111.219 210.484 108.407 214.232L109.207 214.832ZM145.626 216.006C129.76 221.37 115.728 218.147 109.389 215.605L109.017 216.533C115.515 219.139 129.799 222.412 145.947 216.954L145.626 216.006ZM130.247 182.406C134.786 196.447 142.117 209.463 145.872 215.256L146.712 214.712C142.988 208.968 135.703 196.032 131.199 182.099L130.247 182.406ZM145.947 216.954C146.885 216.637 147.236 215.522 146.712 214.712L145.872 215.256C146.056 215.54 145.922 215.906 145.626 216.006L145.947 216.954ZM108.407 214.232C107.832 214.998 108.073 216.154 109.017 216.533L109.389 215.605C109.11 215.493 108.99 215.12 109.207 214.832L108.407 214.232ZM129.767 182.054C129.984 182.054 130.179 182.196 130.247 182.406L131.199 182.099C130.999 181.479 130.422 181.054 129.767 181.054L129.767 182.054ZM132.344 154.055C132.544 154.055 132.723 154.173 132.8 154.353L133.719 153.96C133.483 153.408 132.941 153.055 132.344 153.055L132.344 154.055ZM120.757 154.407C120.823 154.197 121.018 154.055 121.236 154.055L121.236 153.055C120.579 153.055 120 153.482 119.803 154.107L120.757 154.407ZM165.694 223.997C166.536 223.608 166.777 222.571 166.289 221.831L165.454 222.381C165.628 222.645 165.525 222.973 165.275 223.089L165.694 223.997ZM125.203 181.054C124.573 181.054 124.009 181.444 123.792 182.039L124.732 182.382C124.804 182.185 124.99 182.054 125.203 182.054L125.203 181.054ZM88.8342 223.911C88.5269 223.812 88.3965 223.461 88.5534 223.194L87.6908 222.688C87.2038 223.518 87.6234 224.571 88.5271 224.863L88.8342 223.911Z" fill="white"/>
</g>
<g filter="url(#filter6_d_504_117)">
<path fill-rule="evenodd" clip-rule="evenodd" d="M108.5 94.5C114.833 95.6667 132.2 97.3 149 94.5C152 76 156.239 59.3644 169.5 36.5C169.856 35.8868 170.214 35.265 170.577 34.6371C173.814 29.0255 177.337 22.9203 181.5 18C188 21.5 204.1 32.1 214.5 46.5C213 50 209 58.8 205 66C201.581 72.0328 195.589 83.1156 192.5 94.5C190.469 101.986 190 111.103 190 117.5C190 127.044 191.349 134.483 193 141C195.155 149.506 198 158 207 173C209.333 176.667 214.3 184.2 215.5 185C211.333 191.333 198.9 206.2 182.5 215C175 207.5 164.5 191.5 158.5 173C156.667 167.667 152.2 153.4 149 139C137.8 135 117 137.333 108 139C107.2 146.2 101.333 164.667 98.5 173C88.5 200.2 77.3333 213 73 216C54.2 205.2 43.8333 192.833 41 188C42.6 184.4 46.3333 178.833 48 176.5C54 167.7 58.8333 155.833 60.5 151C73.3 118.2 64.5 87 58.5 75.5C48.5 58.7 42.6667 47.5 41 44C50.6 30.8 67.3333 20.1667 74.5 16.5C94 32 105.5 76.3333 108.5 94.5ZM59 46L70 36C77.5 43.1667 92.6 67.4 95 107C99.387 107 105.185 107.086 111.695 107.182C127.442 107.414 147.349 107.708 161.5 107C163.5 98.8333 167.7 81.6 168.5 78C170.833 68 177.8 45.7 187 36.5L197.5 44.5C197 46.3333 195.6 50.8 194 54C192.817 57.0763 191.326 59.6819 189.752 62.4321C188 65.4929 186.146 68.7329 184.5 73C180.635 83.0189 177.885 94.8359 177 107C176.833 111 176.6 120.2 177 125C177.5 133.833 182 159.5 198.5 188.5C195.167 190.333 188.3 194.5 187.5 196.5C183.833 193.833 176.3 185.9 171.5 169.5C170.167 165.833 167.2 156.6 166 149C165 143.833 162.4 131.8 160 125C140 121 118.5 120 97 125C95.6667 133.833 91.8 154.3 87 165.5C86 168.667 83.3 176.1 80.5 180.5C78.1667 184.833 73.4 194 73 196C70.3333 195.333 63.8 192.9 59 188.5C74.2 164.5 79 137.833 79.5 127.5C80.7 123.9 80.3333 112.333 80 107C78.4 89.8 72 73.8333 69 68C65.4 59.2 60.8333 49.6667 59 46Z" fill="white"/>
<path d="M149 94.5L149.082 94.9932L149.436 94.9342L149.494 94.58L149 94.5ZM108.5 94.5L108.007 94.5815L108.064 94.9281L108.409 94.9917L108.5 94.5ZM169.5 36.5L169.933 36.7509L169.933 36.7509L169.5 36.5ZM170.577 34.6371L170.144 34.3872L170.144 34.3872L170.577 34.6371ZM181.5 18L181.737 17.5598L181.38 17.3676L181.118 17.677L181.5 18ZM214.5 46.5L214.96 46.697L215.071 46.4368L214.905 46.2073L214.5 46.5ZM205 66L205.435 66.2465L205.437 66.2428L205 66ZM192.5 94.5L192.983 94.6309L192.983 94.6309L192.5 94.5ZM193 141L193.485 140.877L193.485 140.877L193 141ZM207 173L206.571 173.257L206.578 173.268L207 173ZM215.5 185L215.918 185.275L216.191 184.86L215.777 184.584L215.5 185ZM182.5 215L182.146 215.354L182.409 215.616L182.736 215.441L182.5 215ZM158.5 173L158.976 172.846L158.973 172.837L158.5 173ZM149 139L149.488 138.892L149.428 138.622L149.168 138.529L149 139ZM108 139L107.909 138.508L107.544 138.576L107.503 138.945L108 139ZM98.5 173L98.9694 173.173L98.9734 173.161L98.5 173ZM73 216L72.7509 216.434L73.0249 216.591L73.2846 216.411L73 216ZM41 188L40.5431 187.797L40.4389 188.031L40.5687 188.253L41 188ZM48 176.5L48.407 176.791L48.4131 176.782L48 176.5ZM60.5 151L60.0342 150.818L60.0306 150.828L60.0273 150.837L60.5 151ZM58.5 75.5L58.9433 75.2687L58.9368 75.2563L58.9296 75.2443L58.5 75.5ZM41 44L40.5956 43.7059L40.4207 43.9464L40.5486 44.215L41 44ZM74.5 16.5L74.8111 16.1086L74.559 15.9082L74.2723 16.0549L74.5 16.5ZM70 36L70.3454 35.6385L70.0085 35.3165L69.6637 35.63L70 36ZM59 46L58.6637 45.63L58.3834 45.8848L58.5528 46.2236L59 46ZM95 107L94.5009 107.03L94.5294 107.5H95V107ZM111.695 107.182L111.687 107.682L111.687 107.682L111.695 107.182ZM161.5 107L161.525 107.499L161.897 107.481L161.986 107.119L161.5 107ZM168.5 78L168.013 77.8864L168.012 77.8915L168.5 78ZM187 36.5L187.303 36.1023L186.955 35.8375L186.646 36.1464L187 36.5ZM197.5 44.5L197.982 44.6316L198.071 44.3065L197.803 44.1023L197.5 44.5ZM194 54L193.553 53.7764L193.542 53.798L193.533 53.8205L194 54ZM189.752 62.4321L189.318 62.1837L189.318 62.1837L189.752 62.4321ZM184.5 73L184.034 72.82L184.034 72.82L184.5 73ZM177 107L176.501 106.964L176.501 106.971L176.5 106.979L177 107ZM177 125L177.499 124.972L177.498 124.958L177 125ZM198.5 188.5L198.741 188.938L199.185 188.694L198.935 188.253L198.5 188.5ZM187.5 196.5L187.206 196.904L187.726 197.282L187.964 196.686L187.5 196.5ZM171.5 169.5L171.98 169.36L171.975 169.344L171.97 169.329L171.5 169.5ZM166 149L166.494 148.922L166.493 148.913L166.491 148.905L166 149ZM160 125L160.471 124.834L160.377 124.565L160.098 124.51L160 125ZM97 125L96.8867 124.513L96.5562 124.59L96.5056 124.925L97 125ZM87 165.5L86.5404 165.303L86.5307 165.326L86.5232 165.349L87 165.5ZM80.5 180.5L80.0782 180.232L80.0684 180.247L80.0598 180.263L80.5 180.5ZM73 196L72.8787 196.485L73.3875 196.612L73.4903 196.098L73 196ZM59 188.5L58.5776 188.232L58.3538 188.586L58.6621 188.869L59 188.5ZM79.5 127.5L79.0257 127.342L79.0039 127.407L79.0006 127.476L79.5 127.5ZM80 107L80.499 106.969L80.4986 106.961L80.4979 106.954L80 107ZM69 68L68.5372 68.1893L68.5454 68.2094L68.5554 68.2287L69 68ZM148.918 94.0068C132.187 96.7952 114.881 95.167 108.591 94.0083L108.409 94.9917C114.786 96.1664 132.213 97.8048 149.082 94.9932L148.918 94.0068ZM169.067 36.2491C155.769 59.179 151.514 75.8762 148.506 94.42L149.494 94.58C152.486 76.1238 156.71 59.5498 169.933 36.7509L169.067 36.2491ZM170.144 34.3872C169.781 35.0152 169.423 35.6365 169.067 36.2491L169.933 36.7509C170.289 36.1371 170.648 35.5148 171.01 34.887L170.144 34.3872ZM181.118 17.677C176.921 22.6378 173.376 28.7841 170.144 34.3872L171.01 34.887C174.252 29.267 177.753 23.2028 181.882 18.323L181.118 17.677ZM214.905 46.2073C204.444 31.7226 188.272 21.0787 181.737 17.5598L181.263 18.4402C187.728 21.9213 203.756 32.4774 214.095 46.7927L214.905 46.2073ZM205.437 66.2428C209.449 59.0222 213.456 50.2052 214.96 46.697L214.04 46.303C212.544 49.7948 208.551 58.5778 204.563 65.7572L205.437 66.2428ZM192.983 94.6309C196.054 83.3116 202.019 72.2754 205.435 66.2465L204.565 65.7535C201.144 71.7903 195.124 82.9196 192.017 94.3691L192.983 94.6309ZM190.5 117.5C190.5 111.116 190.969 102.052 192.983 94.6309L192.017 94.3691C189.969 101.92 189.5 111.09 189.5 117.5H190.5ZM193.485 140.877C191.841 134.389 190.5 126.993 190.5 117.5H189.5C189.5 127.095 190.857 134.576 192.515 141.123L193.485 140.877ZM207.429 172.743C198.454 157.785 195.627 149.336 193.485 140.877L192.515 141.123C194.682 149.676 197.546 158.215 206.571 173.257L207.429 172.743ZM215.777 184.584C215.687 184.524 215.516 184.364 215.261 184.075C215.017 183.797 214.723 183.433 214.391 182.999C213.727 182.133 212.926 181.009 212.087 179.791C210.408 177.356 208.586 174.562 207.422 172.732L206.578 173.268C207.747 175.105 209.575 177.911 211.263 180.359C212.107 181.582 212.919 182.721 213.597 183.607C213.936 184.05 214.245 184.434 214.511 184.736C214.766 185.026 215.013 185.276 215.223 185.416L215.777 184.584ZM182.736 215.441C199.231 206.59 211.721 191.654 215.918 185.275L215.082 184.725C210.946 191.013 198.569 205.81 182.264 214.559L182.736 215.441ZM158.024 173.154C164.046 191.721 174.585 207.792 182.146 215.354L182.854 214.646C175.415 207.208 164.954 191.279 158.976 172.846L158.024 173.154ZM148.512 139.108C151.717 153.531 156.189 167.816 158.027 173.163L158.973 172.837C157.144 167.517 152.683 153.269 149.488 138.892L148.512 139.108ZM108.091 139.492C112.57 138.662 119.996 137.665 127.694 137.375C135.408 137.083 143.327 137.505 148.832 139.471L149.168 138.529C143.473 136.495 135.392 136.083 127.656 136.375C119.904 136.668 112.43 137.671 107.909 138.508L108.091 139.492ZM98.9734 173.161C100.392 168.989 102.569 162.282 104.492 155.716C106.411 149.164 108.091 142.706 108.497 139.055L107.503 138.945C107.109 142.494 105.455 148.869 103.533 155.434C101.614 161.985 99.4415 168.678 98.0266 172.839L98.9734 173.161ZM73.2846 216.411C75.5278 214.858 79.4446 210.847 84.0429 203.85C88.6492 196.84 93.9574 186.805 98.9693 173.173L98.0307 172.827C93.0426 186.395 87.7675 196.36 83.2071 203.3C78.6387 210.253 74.8056 214.142 72.7154 215.589L73.2846 216.411ZM40.5687 188.253C43.4526 193.173 53.8878 205.597 72.7509 216.434L73.2491 215.566C54.5122 204.803 44.214 192.494 41.4313 187.747L40.5687 188.253ZM47.5931 176.209C45.9267 178.542 42.1659 184.146 40.5431 187.797L41.4569 188.203C43.0341 184.654 46.74 179.124 48.4069 176.791L47.5931 176.209ZM60.0273 150.837C58.3676 155.65 53.5515 167.47 47.5869 176.218L48.4131 176.782C54.4485 167.93 59.2991 156.016 60.9727 151.163L60.0273 150.837ZM58.0567 75.7313C64.0065 87.135 72.77 118.183 60.0342 150.818L60.9658 151.182C73.83 118.217 64.9935 86.865 58.9433 75.2687L58.0567 75.7313ZM40.5486 44.215C42.2243 47.734 48.066 58.9485 58.0704 75.7557L58.9296 75.2443C48.934 58.4515 43.109 47.266 41.4514 43.785L40.5486 44.215ZM74.2723 16.0549C67.0754 19.737 50.2624 30.4141 40.5956 43.7059L41.4044 44.2941C50.9376 31.1859 67.5912 20.5964 74.7277 16.9451L74.2723 16.0549ZM108.993 94.4185C107.489 85.3076 103.856 69.6511 98.1561 54.3257C92.4649 39.0241 84.6764 23.9502 74.8111 16.1086L74.1889 16.8914C83.8236 24.5498 91.5351 39.3926 97.2189 54.6743C102.894 69.9323 106.511 85.5258 108.007 94.5815L108.993 94.4185ZM69.6637 35.63L58.6637 45.63L59.3363 46.37L70.3363 36.37L69.6637 35.63ZM95.4991 106.97C93.0931 67.2707 77.9543 42.9092 70.3454 35.6385L69.6546 36.3615C77.0457 43.4242 92.1069 67.5293 94.5009 107.03L95.4991 106.97ZM111.702 106.682C105.194 106.586 99.3915 106.5 95 106.5V107.5C99.3824 107.5 105.176 107.585 111.687 107.682L111.702 106.682ZM161.475 106.501C147.344 107.207 127.455 106.914 111.702 106.682L111.687 107.682C127.428 107.914 147.355 108.208 161.525 107.499L161.475 106.501ZM168.012 77.8915C167.213 81.4847 163.015 98.7105 161.014 106.881L161.986 107.119C163.985 98.9562 168.187 81.7153 168.988 78.1085L168.012 77.8915ZM186.646 36.1464C181.97 40.823 177.898 48.7801 174.711 56.7646C171.517 64.7658 169.185 72.8652 168.013 77.8864L168.987 78.1136C170.149 73.1348 172.467 65.0842 175.639 57.1354C178.819 49.1699 182.83 41.377 187.354 36.8536L186.646 36.1464ZM197.803 44.1023L187.303 36.1023L186.697 36.8977L197.197 44.8977L197.803 44.1023ZM194.447 54.2236C196.069 50.98 197.479 46.4764 197.982 44.6316L197.018 44.3684C196.521 46.1903 195.131 50.62 193.553 53.7764L194.447 54.2236ZM190.186 62.6804C191.758 59.934 193.268 57.2967 194.467 54.1795L193.533 53.8205C192.366 56.8558 190.894 59.4298 189.318 62.1837L190.186 62.6804ZM184.966 73.18C186.598 68.9519 188.434 65.7412 190.186 62.6804L189.318 62.1837C187.566 65.2446 185.695 68.5138 184.034 72.82L184.966 73.18ZM177.499 107.036C178.38 94.9211 181.119 83.1526 184.966 73.18L184.034 72.82C180.151 82.8851 177.39 94.7506 176.501 106.964L177.499 107.036ZM177.498 124.958C177.101 120.194 177.333 111.024 177.5 107.021L176.5 106.979C176.334 110.976 176.099 120.206 176.502 125.042L177.498 124.958ZM198.935 188.253C182.474 159.322 177.995 133.73 177.499 124.972L176.501 125.028C177.005 133.936 181.526 159.678 198.065 188.747L198.935 188.253ZM187.964 196.686C188.034 196.512 188.186 196.278 188.442 195.987C188.692 195.701 189.021 195.383 189.415 195.042C190.203 194.359 191.222 193.606 192.331 192.851C194.548 191.341 197.084 189.85 198.741 188.938L198.259 188.062C196.583 188.984 194.019 190.492 191.769 192.024C190.644 192.79 189.589 193.568 188.76 194.286C188.346 194.645 187.981 194.996 187.69 195.328C187.403 195.654 187.166 195.988 187.036 196.314L187.964 196.686ZM171.02 169.64C175.847 186.132 183.439 194.164 187.206 196.904L187.794 196.096C184.228 193.502 176.753 185.668 171.98 169.36L171.02 169.64ZM165.506 149.078C166.713 156.724 169.692 165.992 171.03 169.671L171.97 169.329C170.641 165.675 167.687 156.476 166.494 148.922L165.506 149.078ZM159.529 125.166C161.915 131.928 164.509 143.928 165.509 149.095L166.491 148.905C165.491 143.739 162.885 131.672 160.471 124.834L159.529 125.166ZM97.1133 125.487C118.527 120.507 139.952 121.5 159.902 125.49L160.098 124.51C140.048 120.5 118.473 119.493 96.8867 124.513L97.1133 125.487ZM87.4596 165.697C92.2876 154.432 96.1612 133.907 97.4944 125.075L96.5056 124.925C95.1721 133.76 91.3124 154.168 86.5404 165.303L87.4596 165.697ZM80.9218 180.768C83.7592 176.31 86.4749 168.823 87.4768 165.651L86.5232 165.349C85.5251 168.51 82.8408 175.89 80.0782 180.232L80.9218 180.768ZM73.4903 196.098C73.5773 195.663 73.9245 194.767 74.469 193.548C75.0046 192.348 75.7074 190.887 76.4727 189.348C78.0029 186.271 79.7753 182.901 80.9402 180.737L80.0598 180.263C78.8914 182.433 77.1137 185.813 75.5773 188.902C74.8093 190.447 74.0996 191.922 73.556 193.14C73.0213 194.337 72.6227 195.337 72.5097 195.902L73.4903 196.098ZM58.6621 188.869C63.5434 193.343 70.1623 195.806 72.8787 196.485L73.1213 195.515C70.5043 194.861 64.0566 192.457 59.3379 188.131L58.6621 188.869ZM79.0006 127.476C78.5039 137.741 73.7223 164.32 58.5776 188.232L59.4224 188.768C74.6777 164.68 79.4961 137.926 79.9994 127.524L79.0006 127.476ZM79.501 107.031C79.6671 109.69 79.8416 113.903 79.825 117.898C79.8167 119.896 79.7606 121.832 79.6327 123.49C79.5039 125.159 79.3049 126.504 79.0257 127.342L79.9743 127.658C80.2951 126.696 80.5002 125.245 80.6298 123.567C80.7602 121.876 80.8166 119.913 80.825 117.902C80.8417 113.88 80.6662 109.644 80.499 106.969L79.501 107.031ZM68.5554 68.2287C71.5336 74.0197 77.9094 89.9244 79.5021 107.046L80.4979 106.954C78.8906 89.6756 72.4664 73.647 69.4446 67.7713L68.5554 68.2287ZM58.5528 46.2236C60.3827 49.8834 64.9435 59.4047 68.5372 68.1893L69.4628 67.8107C65.8565 58.9953 61.284 49.4499 59.4472 45.7764L58.5528 46.2236Z" fill="white"/>
</g>
<defs>
<filter id="filter0_d_504_117" x="222.979" y="70.3691" width="34.8164" height="99.3389" filterUnits="userSpaceOnUse" color-interpolation-filters="sRGB">
<feFlood flood-opacity="0" result="BackgroundImageFix"/>
<feColorMatrix in="SourceAlpha" type="matrix" values="0 0 0 0 0 0 0 0 0 0 0 0 0 0 0 0 0 0 127 0" result="hardAlpha"/>
<feOffset dy="4"/>
<feGaussianBlur stdDeviation="2.5"/>
<feComposite in2="hardAlpha" operator="out"/>
<feColorMatrix type="matrix" values="0 0 0 0 0 0 0 0 0 0 0 0 0 0 0 0 0 0 0.25 0"/>
<feBlend mode="normal" in2="BackgroundImageFix" result="effect1_dropShadow_504_117"/>
<feBlend mode="normal" in="SourceGraphic" in2="effect1_dropShadow_504_117" result="shape"/>
</filter>
<filter id="filter1_d_504_117" x="197.9" y="56.1943" width="35.498" height="128.289" filterUnits="userSpaceOnUse" color-interpolation-filters="sRGB">
<feFlood flood-opacity="0" result="BackgroundImageFix"/>
<feColorMatrix in="SourceAlpha" type="matrix" values="0 0 0 0 0 0 0 0 0 0 0 0 0 0 0 0 0 0 127 0" result="hardAlpha"/>
<feOffset dy="4"/>
<feGaussianBlur stdDeviation="2.5"/>
<feComposite in2="hardAlpha" operator="out"/>
<feColorMatrix type="matrix" values="0 0 0 0 0 0 0 0 0 0 0 0 0 0 0 0 0 0 0.25 0"/>
<feBlend mode="normal" in2="BackgroundImageFix" result="effect1_dropShadow_504_117"/>
<feBlend mode="normal" in="SourceGraphic" in2="effect1_dropShadow_504_117" result="shape"/>
</filter>
<filter id="filter2_d_504_117" x="0.192383" y="71.292" width="34.8164" height="99.3389" filterUnits="userSpaceOnUse" color-interpolation-filters="sRGB">
<feFlood flood-opacity="0" result="BackgroundImageFix"/>
<feColorMatrix in="SourceAlpha" type="matrix" values="0 0 0 0 0 0 0 0 0 0 0 0 0 0 0 0 0 0 127 0" result="hardAlpha"/>
<feOffset dy="4"/>
<feGaussianBlur stdDeviation="2.5"/>
<feComposite in2="hardAlpha" operator="out"/>
<feColorMatrix type="matrix" values="0 0 0 0 0 0 0 0 0 0 0 0 0 0 0 0 0 0 0.25 0"/>
<feBlend mode="normal" in2="BackgroundImageFix" result="effect1_dropShadow_504_117"/>
<feBlend mode="normal" in="SourceGraphic" in2="effect1_dropShadow_504_117" result="shape"/>
</filter>
<filter id="filter3_d_504_117" x="24.6045" y="56.5498" width="35.9102" height="127.839" filterUnits="userSpaceOnUse" color-interpolation-filters="sRGB">
<feFlood flood-opacity="0" result="BackgroundImageFix"/>
<feColorMatrix in="SourceAlpha" type="matrix" values="0 0 0 0 0 0 0 0 0 0 0 0 0 0 0 0 0 0 127 0" result="hardAlpha"/>
<feOffset dy="4"/>
<feGaussianBlur stdDeviation="2.5"/>
<feComposite in2="hardAlpha" operator="out"/>
<feColorMatrix type="matrix" values="0 0 0 0 0 0 0 0 0 0 0 0 0 0 0 0 0 0 0.25 0"/>
<feBlend mode="normal" in2="BackgroundImageFix" result="effect1_dropShadow_504_117"/>
<feBlend mode="normal" in="SourceGraphic" in2="effect1_dropShadow_504_117" result="shape"/>
</filter>
<filter id="filter4_d_504_117" x="83.9102" y="0.858398" width="87.6367" height="88.1416" filterUnits="userSpaceOnUse" color-interpolation-filters="sRGB">
<feFlood flood-opacity="0" result="BackgroundImageFix"/>
<feColorMatrix in="SourceAlpha" type="matrix" values="0 0 0 0 0 0 0 0 0 0 0 0 0 0 0 0 0 0 127 0" result="hardAlpha"/>
<feOffset dy="4"/>
<feGaussianBlur stdDeviation="2.5"/>
<feComposite in2="hardAlpha" operator="out"/>
<feColorMatrix type="matrix" values="0 0 0 0 0 0 0 0 0 0 0 0 0 0 0 0 0 0 0.25 0"/>
<feBlend mode="normal" in2="BackgroundImageFix" result="effect1_dropShadow_504_117"/>
<feBlend mode="normal" in="SourceGraphic" in2="effect1_dropShadow_504_117" result="shape"/>
</filter>
<filter id="filter5_d_504_117" x="82.4854" y="152.055" width="89.0537" height="87.9766" filterUnits="userSpaceOnUse" color-interpolation-filters="sRGB">
<feFlood flood-opacity="0" result="BackgroundImageFix"/>
<feColorMatrix in="SourceAlpha" type="matrix" values="0 0 0 0 0 0 0 0 0 0 0 0 0 0 0 0 0 0 127 0" result="hardAlpha"/>
<feOffset dy="4"/>
<feGaussianBlur stdDeviation="2.5"/>
<feComposite in2="hardAlpha" operator="out"/>
<feColorMatrix type="matrix" values="0 0 0 0 0 0 0 0 0 0 0 0 0 0 0 0 0 0 0.25 0"/>
<feBlend mode="normal" in2="BackgroundImageFix" result="effect1_dropShadow_504_117"/>
<feBlend mode="normal" in="SourceGraphic" in2="effect1_dropShadow_504_117" result="shape"/>
</filter>
<filter id="filter6_d_504_117" x="35.4209" y="14.9082" width="185.77" height="210.683" filterUnits="userSpaceOnUse" color-interpolation-filters="sRGB">
<feFlood flood-opacity="0" result="BackgroundImageFix"/>
<feColorMatrix in="SourceAlpha" type="matrix" values="0 0 0 0 0 0 0 0 0 0 0 0 0 0 0 0 0 0 127 0" result="hardAlpha"/>
<feOffset dy="4"/>
<feGaussianBlur stdDeviation="2.5"/>
<feComposite in2="hardAlpha" operator="out"/>
<feColorMatrix type="matrix" values="0 0 0 0 0 0 0 0 0 0 0 0 0 0 0 0 0 0 0.25 0"/>
<feBlend mode="normal" in2="BackgroundImageFix" result="effect1_dropShadow_504_117"/>
<feBlend mode="normal" in="SourceGraphic" in2="effect1_dropShadow_504_117" result="shape"/>
</filter>
</defs>
</svg>
