<svg width="56" height="56" viewBox="0 0 56 56" fill="none" xmlns="http://www.w3.org/2000/svg">
<g id="Frame">
<path id="Vector" d="M51.3333 4.6665H36.1667L31.5 16.6833C36.705 17.7398 41.0711 21.1065 43.4816 25.6665L51.3333 4.6665Z" stroke="white" stroke-width="1.375" stroke-linejoin="round"/>
<path id="Vector_2" d="M19.8337 4.6665H4.66699L12.5188 25.6665C14.9292 21.1065 19.2954 17.7398 24.5003 16.6833L19.8337 4.6665Z" stroke="white" stroke-width="1.375" stroke-linejoin="round"/>
<path id="Vector_3" d="M45.5 33.8335C45.5 43.4985 37.665 51.3335 28 51.3335C18.335 51.3335 10.5 43.4985 10.5 33.8335C10.5 30.8839 11.2297 28.1048 12.5184 25.6668C14.9289 21.1068 19.295 17.7401 24.5 16.6836C25.6308 16.454 26.8014 16.3335 28 16.3335C29.1986 16.3335 30.3691 16.454 31.5 16.6836C36.705 17.7401 41.0711 21.1068 43.4816 25.6668C44.7703 28.1048 45.5 30.8839 45.5 33.8335Z" stroke="white" stroke-width="1.375" stroke-linejoin="round"/>
<path id="Vector_4" d="M27.9997 40.8332V25.6665L24.4997 26.8332M27.9997 40.8332H32.6663M27.9997 40.8332H23.333" stroke="white" stroke-width="1.375" stroke-linejoin="round"/>
</g>
</svg>
