<svg width="56" height="56" viewBox="0 0 56 56" fill="none" xmlns="http://www.w3.org/2000/svg">
<path d="M51.3333 4.66675H36.1667L31.5 16.6835C36.705 17.7401 41.0711 21.1067 43.4816 25.6667L51.3333 4.66675Z" stroke="white" stroke-width="1.375" stroke-linejoin="round"/>
<path d="M19.8337 4.66675H4.66699L12.5188 25.6667C14.9292 21.1067 19.2954 17.7401 24.5003 16.6835L19.8337 4.66675Z" stroke="white" stroke-width="1.375" stroke-linejoin="round"/>
<path d="M45.5 33.8333C45.5 43.4983 37.665 51.3333 28 51.3333C18.335 51.3333 10.5 43.4983 10.5 33.8333C10.5 30.8837 11.2297 28.1046 12.5184 25.6666C14.9289 21.1066 19.295 17.7399 24.5 16.6834C25.6308 16.4538 26.8014 16.3333 28 16.3333C29.1986 16.3333 30.3691 16.4538 31.5 16.6834C36.705 17.7399 41.0711 21.1066 43.4816 25.6666C44.7703 28.1046 45.5 30.8837 45.5 33.8333Z" stroke="white" stroke-width="1.375" stroke-linejoin="round"/>
<path d="M27.9997 40.8334V25.6667L24.4997 26.8334M27.9997 40.8334H32.6663M27.9997 40.8334H23.333" stroke="white" stroke-width="1.375" stroke-linejoin="round"/>
</svg>
