<svg width="54" height="54" viewBox="0 0 54 54" fill="none" xmlns="http://www.w3.org/2000/svg">
<g id="Frame">
<path id="Vector" d="M15.75 38.25C18.8566 38.25 21.375 35.7316 21.375 32.625C21.375 29.5184 18.8566 27 15.75 27C12.6434 27 10.125 29.5184 10.125 32.625C10.125 35.7316 12.6434 38.25 15.75 38.25Z" stroke="white" stroke-width="1.375" stroke-linejoin="round"/>
<path id="Vector_2" d="M38.25 38.25C41.3566 38.25 43.875 35.7316 43.875 32.625C43.875 29.5184 41.3566 27 38.25 27C35.1434 27 32.625 29.5184 32.625 32.625C32.625 35.7316 35.1434 38.25 38.25 38.25Z" stroke="white" stroke-width="1.375" stroke-linejoin="round"/>
<path id="Vector_3" d="M27 15.75C30.1066 15.75 32.625 13.2316 32.625 10.125C32.625 7.0184 30.1066 4.5 27 4.5C23.8934 4.5 21.375 7.0184 21.375 10.125C21.375 13.2316 23.8934 15.75 27 15.75Z" stroke="white" stroke-width="1.375" stroke-linejoin="round"/>
<path id="Vector_4" d="M27 49.5C27 43.2869 21.9631 38.25 15.75 38.25C9.53679 38.25 4.5 43.2869 4.5 49.5" stroke="white" stroke-width="1.375" stroke-linejoin="round"/>
<path id="Vector_5" d="M49.5 49.5C49.5 43.2869 44.4631 38.25 38.25 38.25C32.0369 38.25 27 43.2869 27 49.5" stroke="white" stroke-width="1.375" stroke-linejoin="round"/>
<path id="Vector_6" d="M38.25 27C38.25 20.7869 33.2131 15.75 27 15.75C20.7869 15.75 15.75 20.7869 15.75 27" stroke="white" stroke-width="1.375" stroke-linejoin="round"/>
</g>
</svg>
