<svg width="54" height="54" viewBox="0 0 54 54" fill="none" xmlns="http://www.w3.org/2000/svg">
<g id="Frame">
<path id="Vector" d="M27 49.5C33.2131 49.5 38.8382 46.9816 42.9099 42.9099C46.9816 38.8382 49.5 33.2131 49.5 27C49.5 20.7869 46.9816 15.1618 42.9099 11.0901C38.8382 7.0184 33.2131 4.5 27 4.5C20.7869 4.5 15.1618 7.0184 11.0901 11.0901C7.0184 15.1618 4.5 20.7869 4.5 27C4.5 33.2131 7.0184 38.8382 11.0901 42.9099C15.1618 46.9816 20.7869 49.5 27 49.5Z" stroke="white" stroke-width="1.375" stroke-linejoin="round"/>
<path id="Vector_2" fill-rule="evenodd" clip-rule="evenodd" d="M27 41.625C28.5533 41.625 29.8125 40.3658 29.8125 38.8125C29.8125 37.2592 28.5533 36 27 36C25.4467 36 24.1875 37.2592 24.1875 38.8125C24.1875 40.3658 25.4467 41.625 27 41.625Z" fill="white"/>
<path id="Vector_3" d="M27 13.5V31.5" stroke="white" stroke-width="1.375" stroke-linejoin="round"/>
</g>
</svg>
