<svg width="56" height="56" viewBox="0 0 56 56" fill="none" xmlns="http://www.w3.org/2000/svg">
<path d="M37.8995 28.5663C40.433 26.0327 42 22.5327 42 18.6667C42 10.9348 35.732 4.66675 28 4.66675C20.268 4.66675 14 10.9348 14 18.6667C14 22.5327 15.5669 26.0327 18.1005 28.5663" stroke="white" stroke-width="1.375"/>
<path d="M7 51.3334L8.16667 45.5001L21 36.1667L28 43.1667L35 36.1667L47.8333 45.5001L49 51.3334" stroke="white" stroke-width="1.375" stroke-linejoin="round"/>
<path d="M15.1592 24.5083C15.174 19.7126 15.9543 16.2098 17.5002 13.9999C19.8192 10.6852 21.4517 10.9288 22.6398 11.4451C23.828 11.9614 24.5266 15.3349 26.5111 16.3073C28.4956 17.2797 33.5742 17.3998 35.3137 18.5695C37.0532 19.7393 41.0314 21.9151 40.0396 25.6298" stroke="white" stroke-width="1.375"/>
</svg>
