<svg width="56" height="56" viewBox="0 0 56 56" fill="none" xmlns="http://www.w3.org/2000/svg">
<path d="M23.333 11.6667H51.333" stroke="white" stroke-width="1.375" stroke-linejoin="round"/>
<path d="M23.333 28H51.333" stroke="white" stroke-width="1.375" stroke-linejoin="round"/>
<path d="M23.333 44.3333H51.333" stroke="white" stroke-width="1.375" stroke-linejoin="round"/>
<path d="M9.33366 32.6666C11.911 32.6666 14.0003 30.5772 14.0003 27.9999C14.0003 25.4226 11.911 23.3333 9.33366 23.3333C6.75633 23.3333 4.66699 25.4226 4.66699 27.9999C4.66699 30.5772 6.75633 32.6666 9.33366 32.6666Z" stroke="white" stroke-width="1.375" stroke-linejoin="round"/>
<path d="M9.33366 49.0001C11.911 49.0001 14.0003 46.9107 14.0003 44.3334C14.0003 41.7561 11.911 39.6667 9.33366 39.6667C6.75633 39.6667 4.66699 41.7561 4.66699 44.3334C4.66699 46.9107 6.75633 49.0001 9.33366 49.0001Z" stroke="white" stroke-width="1.375" stroke-linejoin="round"/>
<path d="M4.66699 11.6667L8.16699 15.1667L15.167 8.16675" stroke="white" stroke-width="1.375" stroke-linejoin="round"/>
</svg>
