<svg width="56" height="56" viewBox="0 0 56 56" fill="none" xmlns="http://www.w3.org/2000/svg">
<path d="M28.0003 16.3334C31.222 16.3334 33.8337 13.7217 33.8337 10.5001C33.8337 7.27842 31.222 4.66675 28.0003 4.66675C24.7787 4.66675 22.167 7.27842 22.167 10.5001C22.167 13.7217 24.7787 16.3334 28.0003 16.3334Z" stroke="white" stroke-width="1.375" stroke-linejoin="round"/>
<path d="M31.5 23.3333H24.5C23.4165 23.3333 22.8748 23.3333 22.4186 23.3782C17.9872 23.8146 14.4814 27.3205 14.0449 31.7518C14 32.2081 14 32.7498 14 33.8333H42C42 32.7498 42 32.2081 41.9551 31.7518C41.5186 27.3205 38.0128 23.8146 33.5814 23.3782C33.1252 23.3333 32.5835 23.3333 31.5 23.3333Z" stroke="white" stroke-width="1.375" stroke-linejoin="round"/>
<path d="M47.8337 31.2476C50.0523 32.6758 51.3337 34.3614 51.3337 36.1666C51.3337 41.3213 40.887 45.4999 28.0003 45.4999C15.1137 45.4999 4.66699 41.3213 4.66699 36.1666C4.66699 34.3614 5.94831 32.6758 8.16699 31.2476" stroke="white" stroke-width="1.375" stroke-linejoin="round"/>
<path d="M22.167 39.6667L28.0003 45.5001L22.167 51.3334" stroke="white" stroke-width="1.375" stroke-linejoin="round"/>
</svg>
