<svg width="326" height="254" viewBox="0 0 326 254" fill="none" xmlns="http://www.w3.org/2000/svg">
<path d="M247.365 44.5999H76.3575V132.621H247.365V44.5999ZM100.176 205.176H69.2344V202.783H99.2296L100.176 205.176Z" fill="#D2E9FE"/>
<path d="M99.8157 202.783H68.875V201.611H98.8662L99.8157 202.783Z" fill="#398CFF"/>
<path d="M85.5438 142.058H82.5161V157.545H85.5438V142.058Z" fill="#93B9FF"/>
<path d="M83.2822 142.058H81.521V148.536H83.2822V142.058ZM86.4436 142.058H84.6832V148.536H86.4436V142.058Z" fill="#D2E9FE"/>
<path d="M101.369 216.81L85.8779 141.779L87.5568 141.402L103.048 216.433L101.369 216.81ZM66.7768 218.034L82.7239 141.685L81.045 141.309L64.939 218.297L66.7768 218.034Z" fill="#D2E9FE"/>
<path d="M91.0535 140.885H77.0054V142.151H91.0535V140.885Z" fill="#398CFF"/>
<path d="M267.835 218.297H58.2466" stroke="#1E294A" stroke-width="0.945" stroke-miterlimit="10" stroke-linecap="round"/>
<path d="M98.5084 66.2432H83.6289V81.7008H98.5084V66.2432ZM116.342 66.2813H101.463V81.7389H116.342V66.2813Z" fill="#93B9FF"/>
<path d="M187.546 66.2263H123.251V81.6839H187.546V66.2263Z" fill="white"/>
<path d="M87.5366 52.9742H236.181" stroke="white" stroke-width="0.39" stroke-miterlimit="10" stroke-linecap="round"/>
<path d="M176.346 110.516L164.971 135.144H141.59V137.118H166.337L178.021 111.316C178.08 111.187 178.11 111.046 178.109 110.903C178.108 110.76 178.076 110.62 178.016 110.491C177.956 110.363 177.868 110.25 177.761 110.162C177.653 110.073 177.528 110.01 177.394 109.979C177.186 109.928 176.968 109.953 176.776 110.051C176.585 110.15 176.433 110.314 176.346 110.516Z" fill="#2C60FF"/>
<path d="M107.771 137.092H201.573C201.986 137.092 202.382 137.263 202.674 137.566C202.966 137.869 203.13 138.281 203.13 138.709V139.014C203.13 139.443 202.966 139.854 202.674 140.158C202.382 140.461 201.986 140.631 201.573 140.631H107.771V137.092ZM260.549 157.109C261.223 157.109 261.87 156.831 262.347 156.335C262.824 155.84 263.092 155.168 263.092 154.468C263.092 153.767 262.824 153.095 262.347 152.6C261.87 152.104 261.223 151.826 260.549 151.826C259.875 151.826 259.228 152.104 258.751 152.6C258.274 153.095 258.006 153.767 258.006 154.468C258.006 155.168 258.274 155.84 258.751 156.335C259.228 156.831 259.875 157.109 260.549 157.109Z" fill="#93B9FF"/>
<path d="M255.621 148.214C261.705 148.214 266.638 143.09 266.638 136.77C266.638 130.449 261.705 125.326 255.621 125.326C249.538 125.326 244.606 130.449 244.606 136.77C244.606 143.09 249.538 148.214 255.621 148.214Z" fill="#D2E9FE"/>
<g style="mix-blend-mode:multiply">
<path d="M235.761 140.403C237.722 140.403 239.311 131.461 239.311 120.432C239.311 109.402 237.722 100.461 235.761 100.461C233.801 100.461 232.211 109.402 232.211 120.432C232.211 131.461 233.801 140.403 235.761 140.403Z" fill="#3C64F5"/>
</g>
<path d="M223.67 170.866C226.394 169.944 227.354 165.214 225.813 160.304C224.272 155.392 220.815 152.159 218.091 153.082C215.367 154.004 214.407 158.732 215.948 163.644C217.488 168.554 220.945 171.788 223.67 170.866ZM116.681 96.9933H143.701C145.093 96.994 146.428 97.5687 147.413 98.5913C148.397 99.6139 148.95 101.001 148.951 102.447C148.95 103.892 148.396 105.278 147.412 106.3C146.427 107.322 145.093 107.896 143.701 107.896H114.639L111.436 114.457V102.447C111.435 101.001 111.988 99.6144 112.971 98.5918C113.955 97.5692 115.289 96.9942 116.681 96.9933Z" fill="#93B9FF"/>
<path d="M117.752 100.851H142.051M117.724 104.072H132.106" stroke="white" stroke-width="0.425" stroke-miterlimit="10" stroke-linecap="round"/>
<path d="M179.911 113.37C179.911 113.37 178.477 115.584 178.387 115.813C178.387 115.813 183.482 118.116 185.316 117.892C185.446 117.527 186.823 114.927 187.068 114.39C187.068 114.39 187.838 118.162 188.364 118.251C188.364 118.251 195.406 117.756 196.262 117.485C196.262 117.485 196.331 114.407 196.437 113.751C196.429 113.751 185.332 114.745 179.911 113.37Z" fill="#D2E9FE"/>
<path opacity="0.32" d="M191.567 81.7897C191.654 81.28 191.778 80.7771 191.938 80.2869C191.774 80.7759 191.65 81.2787 191.567 81.7897Z" fill="#AABCFF"/>
<path opacity="0.32" d="M191.567 81.7897C191.654 81.28 191.778 80.7771 191.938 80.2869C191.774 80.7759 191.65 81.2787 191.567 81.7897Z" fill="#AABCFF"/>
<path d="M106.219 192.699C106.219 192.699 103.827 197.72 101.568 198.94L99.6694 201.378L108.57 207.572L109.878 205.18C109.878 205.18 112.841 199.202 114.317 198.673L106.219 192.699Z" fill="#AABCFF"/>
<path d="M101.614 205.934C103.602 207.856 108.208 214.236 108.795 215.879C109.345 217.416 111.195 220.752 117.104 222.103C118.645 219.042 117.084 215.997 116.204 215.176C115.324 214.355 114.081 209.719 114.081 209.719C114.161 209.343 114.158 208.954 114.072 208.579C113.986 208.205 113.819 207.857 113.583 207.559C112.764 206.773 111.888 206.053 110.962 205.405C109.699 204.558 107.984 205.921 107.984 205.921C107.984 205.921 103.826 202.534 102.832 201.979C101.838 201.425 102.017 198.647 101.479 198.504C100.941 198.36 100.122 199.35 100.122 199.35L99.3071 200.472C99.6413 202.153 100.338 204.698 101.614 205.934Z" fill="#2C60FF"/>
<path d="M108.807 215.879C108.22 214.236 103.614 207.856 101.626 205.934C100.35 204.698 99.6527 202.153 99.3145 200.485L93.9795 207.763L114.532 223.716C115.976 224.185 116.978 222.357 116.978 222.357C117.027 222.272 117.072 222.187 117.112 222.103C111.195 220.752 109.345 217.416 108.807 215.879Z" fill="#1E294A"/>
<path d="M100.758 198.758C100.758 200.142 100.896 202.237 101.695 202.864C102.918 203.821 109.292 208.703 109.292 208.703C109.602 209.803 110.011 210.871 110.514 211.891C111.101 212.877 112.353 214.384 115.499 213.982" stroke="white" stroke-width="0.22" stroke-miterlimit="10"/>
<path d="M113.265 212.408C113.673 212.408 114.063 212.239 114.352 211.94C114.64 211.641 114.802 211.235 114.802 210.812C114.802 210.388 114.64 209.982 114.352 209.683C114.063 209.384 113.673 209.216 113.265 209.216C112.858 209.216 112.467 209.384 112.179 209.683C111.891 209.982 111.729 210.388 111.729 210.812C111.729 211.235 111.891 211.641 112.179 211.94C112.467 212.239 112.858 212.408 113.265 212.408Z" fill="#D2E9FE"/>
<path d="M69.6295 158.019C67.9995 158.019 66.6499 159.176 66.6499 160.602C66.6499 162.029 67.9832 163.181 69.6295 163.181H100.301V158.019H69.6295Z" fill="#AABCFF"/>
<path d="M60.3491 129.581C60.3491 129.581 63.927 136.431 66.0916 136.528C68.2554 136.626 69.8814 129.865 69.8814 129.865L60.3491 129.581Z" fill="#2C60FF"/>
<path d="M88.7837 189.6C88.7837 189.6 86.3917 194.621 84.1301 195.845L82.2344 198.288L91.1317 204.482L92.4439 202.098C92.4439 202.098 95.4023 196.116 96.8816 195.586L88.7837 189.6Z" fill="#AABCFF"/>
<path d="M84.174 202.834C86.1634 204.757 90.7722 211.142 91.359 212.784C91.905 214.317 93.7559 217.653 99.6695 219.004C100.211 217.891 100.415 216.633 100.254 215.397C100.093 214.161 99.5749 213.005 98.7682 212.081C97.8635 211.235 96.6451 206.637 96.6451 206.637C96.7253 206.261 96.7222 205.872 96.6361 205.498C96.55 205.123 96.383 204.775 96.1479 204.478C95.3271 203.691 94.4513 202.969 93.5277 202.318C92.2604 201.471 90.544 202.834 90.544 202.834C90.544 202.834 86.3916 199.448 85.3973 198.893C84.4022 198.338 84.5815 195.56 84.0395 195.421C83.4975 195.281 82.6866 196.268 82.6866 196.268L81.8716 197.39C82.2017 199.054 82.9026 201.602 84.174 202.834Z" fill="#2C60FF"/>
<path d="M91.3598 212.784C90.773 211.142 86.1634 204.74 84.1748 202.834C82.9034 201.602 82.2025 199.054 81.8643 197.386L76.5415 204.664L97.0942 220.621C98.5408 221.091 99.5392 219.258 99.5392 219.258C99.5881 219.173 99.6329 219.089 99.6737 219.004C93.7559 217.653 91.9059 214.317 91.3598 212.784Z" fill="#1E294A"/>
<path d="M83.3232 195.662C83.3232 197.047 83.4577 199.143 84.2605 199.765C85.4838 200.722 91.8579 205.604 91.8579 205.604C92.1676 206.705 92.5768 207.775 93.0804 208.796C93.6672 209.778 94.9182 211.286 98.0641 210.883" stroke="white" stroke-width="0.22" stroke-miterlimit="10"/>
<path d="M95.8293 209.312C96.0311 209.312 96.2309 209.271 96.4173 209.191C96.6037 209.111 96.7731 208.993 96.9157 208.845C97.0584 208.697 97.1717 208.521 97.2489 208.327C97.3262 208.134 97.366 207.926 97.366 207.717C97.3661 207.507 97.3264 207.299 97.2492 207.106C97.1721 206.912 97.0589 206.736 96.9163 206.588C96.7737 206.44 96.6044 206.322 96.418 206.242C96.2316 206.162 96.0319 206.12 95.8301 206.12C95.4227 206.12 95.0319 206.288 94.7437 206.587C94.4555 206.886 94.2936 207.292 94.2935 207.716C94.2933 208.139 94.4551 208.545 94.7431 208.844C95.0312 209.144 95.4219 209.312 95.8293 209.312Z" fill="#D2E9FE"/>
<path d="M67.7013 134.213C67.7013 134.213 64.8895 139.391 66.0713 144.082C67.253 148.773 71.6703 157.926 76.6874 158.676H99.0005C99.0005 158.676 84.1822 186.268 83.5954 188.664C83.5954 188.664 99.4528 197.555 102.432 197.627L103.427 195.51C103.427 195.51 118.966 202.5 121.27 202.83C121.27 202.83 122.492 153.718 121.901 152.872C121.901 152.872 124.892 147.427 120.846 143.531C116.798 139.637 67.7013 134.213 67.7013 134.213Z" fill="#398CFF"/>
<path d="M135.913 135.267C135.913 135.267 139.006 134.907 140.574 134.742C141.843 134.611 151.811 135.855 153.991 136.198C154.586 136.291 154.843 136.558 154.398 137.092C151.876 137.994 143.395 138.786 137.388 138.206L135.913 135.267Z" fill="#AABCFF"/>
<path d="M121.848 152.846C119.326 158.612 116.856 164.417 114.512 170.26C112.1 176.208 109.756 182.182 107.095 188.041C105.62 191.281 104.071 194.489 102.412 197.631C102.403 197.647 102.401 197.666 102.405 197.684C102.407 197.693 102.41 197.701 102.416 197.708C102.421 197.716 102.427 197.722 102.435 197.726C102.442 197.731 102.451 197.734 102.459 197.736C102.468 197.737 102.477 197.737 102.486 197.735C102.503 197.73 102.517 197.719 102.526 197.703C108.448 186.5 112.793 174.557 117.716 162.872C119.117 159.547 120.543 156.235 121.995 152.935C122.032 152.85 121.918 152.778 121.881 152.863L121.848 152.846Z" fill="#F4F1F0"/>
<path d="M118.775 195.875C118.653 195.7 118.498 195.553 118.319 195.441C118.052 195.271 117.742 195.188 117.429 195.203C117.116 195.217 116.814 195.329 116.562 195.522C116.225 195.781 116.001 196.167 115.937 196.598C115.874 197.028 115.977 197.466 116.224 197.818L119.363 202.258C119.98 202.503 120.615 202.695 121.262 202.834C121.262 202.834 121.294 201.598 121.343 199.511L118.775 195.875Z" fill="#D2E9FE"/>
<path d="M116.09 166.75C116.668 167.002 117.143 167.453 117.437 168.027C117.73 168.601 117.824 169.263 117.701 169.901C117.578 170.538 117.248 171.112 116.765 171.525C116.282 171.938 115.677 172.166 115.051 172.169C114.658 172.171 114.269 172.081 113.914 171.906M100.302 179.603C101.021 179.603 101.71 179.307 102.218 178.779C102.727 178.251 103.012 177.535 103.012 176.788C103.012 176.042 102.727 175.326 102.218 174.798C101.71 174.27 101.021 173.973 100.302 173.973C99.5835 173.973 98.8942 174.27 98.386 174.798C97.8778 175.326 97.5923 176.042 97.5923 176.788C97.5923 177.535 97.8778 178.251 98.386 178.779C98.8942 179.307 99.5835 179.603 100.302 179.603ZM117.761 153.21C118.48 153.21 119.17 152.914 119.678 152.386C120.186 151.857 120.472 151.141 120.472 150.394C120.472 149.647 120.186 148.931 119.678 148.403C119.17 147.875 118.48 147.578 117.761 147.578C117.042 147.578 116.353 147.875 115.844 148.403C115.336 148.931 115.05 149.647 115.05 150.394C115.05 151.141 115.336 151.857 115.844 152.386C116.353 152.914 117.042 153.21 117.761 153.21ZM80.4569 142.833C81.1757 142.833 81.8649 142.536 82.3731 142.008C82.8813 141.48 83.1668 140.764 83.1668 140.018C83.1668 139.271 82.8813 138.555 82.3731 138.027C81.8649 137.499 81.1757 137.202 80.4569 137.202C79.7382 137.202 79.049 137.499 78.5408 138.027C78.0326 138.555 77.7471 139.271 77.7471 140.018C77.7471 140.764 78.0326 141.48 78.5408 142.008C79.049 142.536 79.7382 142.833 80.4569 142.833ZM116.542 193.461C116.902 193.467 117.259 193.399 117.594 193.261C117.928 193.122 118.232 192.916 118.489 192.654C118.746 192.392 118.95 192.079 119.089 191.734C119.228 191.389 119.3 191.019 119.3 190.645C119.3 190.271 119.228 189.901 119.089 189.556C118.95 189.212 118.746 188.899 118.489 188.637C118.232 188.375 117.928 188.168 117.594 188.03C117.259 187.891 116.902 187.823 116.542 187.83C115.831 187.842 115.154 188.145 114.656 188.671C114.157 189.198 113.878 189.907 113.878 190.645C113.878 191.384 114.157 192.093 114.656 192.619C115.154 193.146 115.831 193.448 116.542 193.461Z" stroke="#D2E9FE" stroke-width="0.445" stroke-miterlimit="10"/>
<path d="M91.689 104.326C92.7429 105.783 93.3148 107.555 93.319 109.378C93.2742 112.286 92.235 116.943 92.235 118.294L89.79 107.455L91.689 104.326Z" fill="#1E294A"/>
<path d="M105.452 89.8593C105.452 89.8593 104.999 97.6494 100.801 99.9947C99.4444 100.745 96.3189 100.698 94.9733 100.745C93.6286 100.791 91.2814 104.17 91.1347 106.282C91.1347 106.282 88.6489 101.168 86.6514 100.838C86.6514 100.838 89.6351 100.512 90.446 98.5384L92.7036 89.8593H105.452Z" fill="#AABCFF"/>
<path d="M89.3062 98.0474L91.6085 98.7924C91.6085 98.7924 92.7381 97.4801 92.7829 96.117C92.8278 94.7538 91.4741 91.6119 93.6876 91.3325C94.8612 91.3325 94.4537 92.7379 94.4537 92.7379C94.4537 92.7379 96.2141 91.0446 96.6664 91.0446C97.1187 91.0446 101.997 93.4415 105.791 90.1556C109.586 86.8705 105.975 85.134 104.569 84.8038C103.163 84.4736 100.64 84.9435 98.382 84.427C96.1244 83.9106 93.3697 84.3974 92.3306 85.9392C91.2907 87.4801 90.1863 90.3757 90.3656 92.7676C90.5449 95.1602 90.0967 97.6029 89.3062 98.0474Z" fill="#1E294A"/>
<path d="M100.11 97.0068C101.104 96.4108 101.632 95.4261 101.288 94.8089C100.945 94.1908 99.861 94.1739 98.8667 94.7699C97.8724 95.366 97.3451 96.3507 97.6883 96.9679C98.0314 97.5859 99.1161 97.6029 100.11 97.0068Z" fill="#2C60FF"/>
<path d="M92.558 118.095C92.558 118.095 99.1074 129.018 109.814 129.102C120.52 129.187 123.263 129.149 125.081 129.95C126.898 130.75 129.283 131.779 130.187 133.514L97.8034 137.702L87.7251 121.418L92.558 118.095Z" fill="#1E294A"/>
<path d="M86.2774 100.347C86.2774 100.347 92.2399 102.603 92.0606 113.187C91.8772 123.954 95.6262 133.133 105.432 133.366C115.238 133.599 124.403 130.691 135.183 133.976C135.183 133.976 137.628 138.21 137.628 139.09C136.772 139.09 126.563 141.249 122.272 142.845C117.98 144.442 97.1992 150.072 88.6613 140.919C88.6613 140.919 69.2374 137.731 60.3408 129.751C60.3408 129.751 65.5813 123.607 67.5666 120.741C67.5666 120.741 79.2676 102.112 86.2692 100.33" fill="#1E294A"/>
<path d="M91.0698 106.299C91.8155 110.144 91.8848 114.064 92.0601 117.968C92.0601 118.057 92.1986 118.057 92.1945 117.968C92.0193 114.051 91.95 110.118 91.2002 106.265C91.193 106.251 91.1815 106.24 91.1676 106.234C91.1536 106.227 91.1378 106.225 91.1228 106.23C91.1076 106.233 91.094 106.242 91.0845 106.255C91.0752 106.268 91.0701 106.283 91.0698 106.299Z" fill="#2C60FF"/>
<path d="M92.1995 118.315C92.5848 121.002 93.3496 123.616 94.4693 126.071C95.5695 128.442 97.1425 130.809 99.4416 132.054C100.876 132.833 102.571 133.133 104.165 133.324C106.156 133.528 108.162 133.539 110.156 133.358C113.967 133.066 117.76 132.625 121.567 132.541C126.155 132.386 130.741 132.907 135.188 134.09C135.203 134.091 135.219 134.086 135.232 134.077C135.245 134.068 135.254 134.054 135.258 134.038C135.263 134.022 135.261 134.005 135.255 133.99C135.249 133.975 135.238 133.962 135.224 133.955C127.77 131.872 120.144 132.316 112.535 133.006C108.627 133.362 104.637 133.688 100.827 132.49C98.1938 131.643 96.3438 129.42 95.0602 126.986C93.6704 124.266 92.7466 121.317 92.3299 118.268C92.3299 118.179 92.1832 118.218 92.1995 118.306V118.315Z" fill="#F4F1F0"/>
<path d="M80.0059 149.979C80.19 149.919 80.3608 149.821 80.5083 149.691C80.6559 149.562 80.7773 149.403 80.8657 149.225C80.998 148.956 81.0498 148.652 81.0147 148.352C80.9796 148.052 80.8591 147.77 80.6687 147.542C80.4782 147.314 80.2265 147.15 79.9458 147.071C79.6651 146.993 79.3682 147.003 79.0931 147.101C76.9517 147.892 74.6777 148.224 72.4093 148.074C70.9439 147.956 69.5236 147.493 68.2561 146.72C67.5522 146.282 66.9115 145.743 66.353 145.12C66.9026 146.87 67.5938 148.57 68.419 150.2C69.5693 150.674 70.7781 150.977 72.0099 151.101C72.503 151.152 73.0042 151.177 73.5218 151.177C75.7308 151.139 77.9197 150.735 80.0059 149.979ZM113.811 163.993C113.455 163.994 113.11 163.859 112.844 163.613C112.577 163.367 112.406 163.028 112.365 162.66C112.088 160.306 110.959 158.637 109.003 157.706C108.063 157.267 107.052 157.016 106.023 156.965C105.826 156.974 105.63 156.941 105.446 156.868C105.261 156.796 105.093 156.685 104.951 156.543C104.809 156.402 104.696 156.231 104.618 156.043C104.541 155.855 104.501 155.652 104.501 155.448C104.501 155.243 104.541 155.04 104.618 154.852C104.696 154.664 104.809 154.494 104.951 154.352C105.093 154.21 105.261 154.1 105.446 154.027C105.63 153.955 105.826 153.922 106.023 153.93C107.473 153.981 108.899 154.326 110.221 154.946C112.259 155.911 114.757 157.969 115.262 162.296C115.286 162.494 115.271 162.695 115.22 162.887C115.169 163.079 115.082 163.259 114.964 163.416C114.846 163.573 114.699 163.705 114.532 163.803C114.365 163.902 114.181 163.965 113.991 163.989L113.811 163.993ZM104.919 184.422C106.111 184.613 107.27 184.99 108.354 185.539L106.989 188.223C105.989 187.735 104.915 187.434 103.815 187.334C102.725 187.213 101.623 187.35 100.592 187.736C99.5602 188.121 98.6263 188.744 97.8601 189.558C97.7271 189.713 97.5648 189.839 97.3832 189.926C97.2017 190.014 97.0047 190.062 96.8045 190.067C96.6044 190.072 96.4054 190.035 96.2198 189.957C96.0342 189.879 95.866 189.762 95.7256 189.614C95.514 189.39 95.3745 189.104 95.3264 188.794C95.2784 188.484 95.3242 188.167 95.4575 187.885C95.5455 187.699 95.6694 187.533 95.8226 187.398C96.9042 186.26 98.2201 185.391 99.6714 184.857C101.123 184.323 102.672 184.138 104.202 184.316C104.446 184.354 104.687 184.384 104.919 184.422ZM121.747 180.993C119.811 180.111 117.231 179.768 114.17 181.319C114.087 181.361 114.008 181.41 113.934 181.467C113.712 181.634 113.541 181.862 113.439 182.126C113.336 182.39 113.308 182.678 113.356 182.957C113.404 183.237 113.526 183.497 113.71 183.708C113.893 183.919 114.13 184.072 114.393 184.149C114.745 184.253 115.123 184.216 115.45 184.045C116.55 183.444 117.796 183.195 119.032 183.33C119.984 183.467 120.891 183.838 121.677 184.413C121.697 183.291 121.722 182.148 121.747 180.993ZM88.0834 157.753C88.0042 157.752 87.9252 157.745 87.847 157.731C87.6562 157.702 87.4728 157.634 87.3078 157.53C87.1428 157.426 86.9994 157.289 86.8861 157.127C86.7719 156.965 86.6898 156.782 86.6447 156.587C86.5996 156.392 86.5925 156.189 86.6237 155.992C86.8719 154.102 87.5852 152.311 88.6947 150.792C89.8042 149.273 91.2724 148.078 92.9571 147.321C94.5583 146.571 96.2809 146.14 98.0353 146.051H98.0639C98.343 146.064 98.6128 146.159 98.8413 146.326C99.0699 146.493 99.2477 146.725 99.3538 146.993C99.4599 147.262 99.4898 147.556 99.44 147.842C99.3902 148.127 99.2628 148.392 99.0728 148.605C98.8177 148.89 98.4665 149.062 98.0924 149.086C96.7069 149.176 95.3483 149.531 94.0867 150.132C92.8619 150.691 91.7971 151.57 90.9952 152.683C90.1933 153.795 89.6816 155.104 89.5096 156.483C89.4535 156.835 89.2798 157.155 89.019 157.387C88.7581 157.619 88.4269 157.749 88.0834 157.753Z" fill="#D2E9FE"/>
<path d="M144.54 136.025C144.54 136.025 151.024 136.321 153.384 136.694M136.801 138.422H140.506C141.109 138.422 145.331 138.422 148.962 138.049C150.799 137.899 152.621 137.588 154.407 137.118" stroke="#1E294A" stroke-width="0.19" stroke-miterlimit="10" stroke-linecap="round"/>
<path d="M255.622 136.77L236.98 197.614M242.54 196.679L260.545 154.539M235.974 120.101L235.126 197.67L223.266 168.951" stroke="#1E294A" stroke-width="0.52" stroke-miterlimit="10" stroke-linecap="round"/>
<path d="M245.531 199.452L249.924 191.691H226.788L231.181 199.452C231.181 199.452 225.43 200.413 225.557 208.897C225.683 217.382 230.276 217.365 233.765 217.365H242.943C246.435 217.365 251.025 217.365 251.155 208.897C251.285 200.43 245.531 199.452 245.531 199.452Z" fill="#93B9FF"/>
<path d="M92.876 93.2891C92.876 93.2891 93.1816 92.1707 94.0048 92.1707" stroke="#1E294A" stroke-width="0.125" stroke-miterlimit="10" stroke-linecap="round"/>
<path d="M93.1323 92.7084C93.2725 92.8024 93.3915 92.9268 93.4803 93.0724C93.5683 93.2189 93.6254 93.384 93.6466 93.5559" stroke="#1E294A" stroke-width="0.125" stroke-miterlimit="10" stroke-linecap="round"/>
</svg>
