<svg width="324" height="255" viewBox="0 0 324 255" fill="none" xmlns="http://www.w3.org/2000/svg">
<path d="M55.9483 195.735H269.263L291.032 232.763H33.21L55.9483 195.735Z" fill="#D2E9FE"/>
<path d="M52.6606 202.461H194.832" stroke="#398CFF" stroke-width="0.686" stroke-miterlimit="10"/>
<g style="mix-blend-mode:multiply">
<path d="M186.915 59.5306C188.789 55.8891 191.571 52.8499 194.962 50.7374C198.303 48.7382 202.21 47.9553 205.746 48.8359C206.899 49.0575 207.964 49.6335 208.806 50.4909C210.622 52.5496 210.144 56.1782 208.701 58.8124C207.257 61.4448 205.052 63.4908 203.374 65.9413C201.596 68.524 200.402 71.4977 199.883 74.6368C199.336 77.9892 199.518 81.6604 197.666 84.4764C196.125 86.8122 193.511 87.9733 191.005 88.5394C188.5 89.1055 185.93 89.216 183.477 90.0966C180.489 91.1727 177.866 93.3258 175.316 95.4397C173.695 96.7666 172.073 98.124 170.196 98.8176C168.581 99.4266 166.825 99.4905 165.174 99.0004C164.48 98.8368 163.858 98.4358 163.406 97.8605C162.729 96.8779 162.883 95.4185 163.341 94.2106C164.943 89.9564 169.365 87.8713 171.891 84.1704C173.138 82.3422 173.877 80.1859 174.024 77.9425C174.145 75.99 173.792 74.0622 173.958 72.114C174.105 70.559 174.562 69.0537 175.299 67.6963C176.037 66.3389 177.039 65.1597 178.24 64.2354C181.146 62.0534 185.164 61.4873 187.073 58.2242" fill="#D2E9FE"/>
</g>
<g style="mix-blend-mode:multiply">
<path d="M216.33 83.2176C217.209 83.4769 218.15 83.1114 218.908 82.5801C219.666 82.048 220.311 81.3544 221.073 80.8351C222.909 79.589 225.313 79.4827 227.389 80.2146C227.994 80.3968 228.549 80.7258 229.01 81.1751C229.406 81.6556 229.656 82.2491 229.728 82.8797C229.801 83.5103 229.692 84.1492 229.416 84.7145C229.132 85.2743 228.745 85.7696 228.277 86.1719C227.81 86.5742 227.271 86.8756 226.692 87.0588C225.531 87.4207 224.315 87.5536 223.108 87.4506C220.801 87.3017 218.516 86.8922 216.293 86.2292C215.458 85.9912 214.591 85.7277 213.735 85.8722C212.787 86.0337 211.98 86.6678 211.194 87.2509C210.634 87.6759 209.945 88.1017 209.305 87.8289C209.043 87.6989 208.826 87.4886 208.681 87.2258C208.536 86.963 208.471 86.6601 208.494 86.3575C208.549 85.7478 208.77 85.1676 209.13 84.6856C209.664 83.8329 210.421 83.1605 211.311 82.7493C212.933 82.082 214.728 82.643 216.374 83.2134" fill="#93B9FF"/>
</g>
<path d="M204.606 101.85C205.352 101.85 206.068 101.54 206.596 100.986C207.123 100.432 207.42 99.6813 207.42 98.8983C207.42 98.1152 207.124 97.3642 206.596 96.8105C206.069 96.2567 205.353 95.9455 204.607 95.9454C203.861 95.9453 203.145 96.2562 202.617 96.8099C202.09 97.3635 201.793 98.1144 201.793 98.8974C201.793 99.6805 202.089 100.432 202.617 100.985C203.144 101.539 203.86 101.85 204.606 101.85ZM288.527 73.0625C289.273 73.0625 289.989 72.7515 290.516 72.1979C291.044 71.6443 291.34 70.8934 291.34 70.1105C291.34 69.3276 291.044 68.5767 290.516 68.0231C289.989 67.4695 289.273 67.1584 288.527 67.1584C287.781 67.1584 287.065 67.4695 286.538 68.0231C286.01 68.5767 285.714 69.3276 285.714 70.1105C285.714 70.8934 286.01 71.6443 286.538 72.1979C287.065 72.7515 287.781 73.0625 288.527 73.0625Z" fill="#2C60FF"/>
<path d="M194.176 178.748C194.176 178.748 192.793 185.912 191.135 188.72C191.135 188.72 188.966 207.693 170.379 211.663C161.014 213.551 143.578 198.9 135.92 184.363C135.92 184.363 119.912 203.579 118.943 204.597H99.5684C99.5684 204.597 108.053 189.145 116.222 175.669C122.611 165.122 128.019 156.733 133.893 156.631C139.767 156.529 142.102 159.728 143.623 160.987C145.143 162.246 167.707 179.071 167.707 179.071L179.557 163.259L194.176 178.748Z" fill="#1E294A"/>
<path d="M118.521 199.857H102.844M118.923 200.997C118.923 200.997 130.894 166.407 134.632 167.326C138.369 168.245 156.032 201.69 164.379 201.359" stroke="white" stroke-width="0.23" stroke-miterlimit="10" stroke-linecap="round"/>
<path d="M132.531 73.1994C132.28 70.3655 131.797 67.6047 132.125 64.7504C132.404 62.1246 133.452 59.6542 135.126 57.6801C137.461 55.0298 141.182 53.6639 144.498 54.6252C146.051 55.0757 147.543 56.0889 148.184 57.6376C148.544 58.5824 148.637 59.6164 148.451 60.6152C148.094 62.7172 146.829 64.5294 145.402 66.056C143.976 67.5835 142.37 68.9239 141.065 70.5661C139.666 72.3199 138.656 74.3768 138.106 76.5892C137.7 78.2102 137.554 79.8957 137.087 81.4946C136.622 83.0943 135.774 84.6727 134.38 85.4853C133.908 85.7964 133.342 85.9087 132.794 85.7998C132.464 85.68 132.169 85.4712 131.939 85.1942C131.709 84.9172 131.553 84.5817 131.485 84.2214C131.355 83.5005 131.355 82.7603 131.485 82.0394C131.631 80.9795 132.677 75.0286 132.531 73.1994Z" fill="#398CFF"/>
<path d="M182.395 45.5217C183.611 42.7014 186.757 40.8084 189.606 41.5862C190.876 41.9347 192.124 42.9649 192.168 44.3436C192.201 45.4027 191.524 46.3343 190.807 47.0874C190.089 47.8405 189.161 48.6438 188.556 49.6102C187.746 50.8861 187.491 52.4603 187.052 53.9316C186.615 55.4038 185.873 56.91 184.539 57.5611C184.081 57.7821 183.416 57.8203 183.185 57.3435C183.115 57.1633 183.087 56.9679 183.104 56.774V54.0557C183.104 54.0557 181.203 48.3378 182.395 45.5217Z" fill="#93B9FF"/>
<g style="mix-blend-mode:multiply">
<path d="M190.815 36.958C191.824 35.1245 193.579 33.5971 195.599 33.4993C196.295 33.4755 196.99 33.5838 197.649 33.8189C198.61 34.1462 199.567 34.7199 199.997 35.6779C200.589 36.9792 200.041 38.5152 199.385 39.7834C197.532 43.3559 194.763 46.4873 193.766 50.4177C193.34 52.1628 193.255 54.0005 192.934 55.7489C192.76 56.6839 192.376 57.7524 191.5 57.9904C191.215 58.0472 190.921 58.0297 190.644 57.9393C190.367 57.8488 190.115 57.6883 189.911 57.4719C189.51 57.0334 189.185 56.5252 188.95 55.9699C188.332 54.7764 187.861 53.5054 187.547 52.1874C186.902 49.0654 189.801 38.7914 190.815 36.958Z" fill="#AABCFF"/>
</g>
<path d="M236.134 45.475C240.719 45.475 244.436 41.5736 244.436 36.7625C244.436 31.9515 240.719 28.05 236.134 28.05C231.548 28.05 227.831 31.9515 227.831 36.7625C227.831 41.5736 231.548 45.475 236.134 45.475Z" fill="#93B9FF"/>
<g style="mix-blend-mode:multiply">
<path d="M218.908 48.1678C219.741 48.1678 220.539 47.8209 221.127 47.2032C221.716 46.5856 222.047 45.7479 222.047 44.8745C222.047 44.0011 221.716 43.1634 221.127 42.5458C220.539 41.9282 219.741 41.5812 218.908 41.5812C218.076 41.5812 217.278 41.9282 216.689 42.5458C216.101 43.1634 215.77 44.0011 215.77 44.8745C215.77 45.7479 216.101 46.5856 216.689 47.2032C217.278 47.8209 218.076 48.1678 218.908 48.1678Z" fill="#D2E9FE"/>
</g>
<g style="mix-blend-mode:multiply">
<path d="M184.341 104.229C185.335 104.229 186.141 102.993 186.141 101.468C186.141 99.9431 185.335 98.7072 184.341 98.7072C183.347 98.7072 182.541 99.9431 182.541 101.468C182.541 102.993 183.347 104.229 184.341 104.229Z" fill="#AABCFF"/>
</g>
<path d="M211.668 46.6192C211.963 46.6192 212.245 46.4964 212.454 46.2778C212.662 46.0593 212.779 45.7629 212.779 45.4538C212.779 45.1447 212.662 44.8483 212.454 44.6298C212.245 44.4112 211.963 44.2885 211.668 44.2885C211.374 44.2885 211.091 44.4112 210.883 44.6298C210.675 44.8483 210.558 45.1447 210.558 45.4538C210.558 45.7629 210.675 46.0593 210.883 46.2778C211.091 46.4964 211.374 46.6192 211.668 46.6192ZM127.772 115.817C127.39 114.901 127.278 113.886 127.452 112.903C127.497 112.488 127.667 112.099 127.938 111.793C128.131 111.62 128.364 111.503 128.614 111.454C128.864 111.406 129.121 111.427 129.361 111.516C129.838 111.704 130.245 112.047 130.525 112.494C130.801 112.939 131.036 113.41 131.226 113.903C131.91 115.702 132.85 117.382 134.015 118.884C134.434 119.379 134.883 119.843 135.361 120.275C135.642 120.509 135.897 120.776 136.119 121.071C136.345 121.367 136.453 121.744 136.423 122.121C136.418 122.235 136.378 122.344 136.308 122.432C136.239 122.52 136.144 122.581 136.038 122.607C135.778 122.682 135.506 122.699 135.239 122.657C134.972 122.615 134.717 122.516 134.489 122.364C134.044 122.053 133.636 121.687 133.273 121.275C132.667 120.66 132.032 120.076 131.372 119.526C131.037 119.244 130.687 118.982 130.322 118.744C130.058 118.578 129.783 118.433 129.531 118.25C128.708 117.65 127.772 115.817 127.772 115.817Z" fill="#2C60FF"/>
<g style="mix-blend-mode:multiply">
<path d="M127.966 131.748C128.287 130.774 128.587 129.762 129.24 128.983C129.558 128.589 129.954 128.272 130.399 128.052C130.845 127.832 131.33 127.714 131.822 127.707C132.318 127.714 132.8 127.881 133.201 128.185C133.603 128.49 133.906 128.917 134.067 129.409C134.307 130.26 134.023 131.17 133.699 131.991C133.375 132.813 133.014 133.668 133.086 134.544C133.178 135.141 133.367 135.717 133.646 136.246C133.925 136.781 134.101 137.369 134.161 137.976C134.185 138.278 134.129 138.581 133.998 138.851C133.868 139.122 133.669 139.349 133.423 139.508C133.201 139.608 132.959 139.651 132.718 139.633C132.477 139.616 132.243 139.538 132.037 139.406C131.626 139.14 131.268 138.793 130.983 138.385C130.184 137.339 126.385 136.586 127.966 131.748ZM113.056 101.685C114.034 101.685 114.973 101.277 115.665 100.551C116.357 99.8252 116.745 98.8405 116.745 97.8138C116.746 96.787 116.357 95.8023 115.665 95.0762C114.973 94.3501 114.035 93.9421 113.057 93.942C112.572 93.942 112.093 94.042 111.645 94.2365C111.197 94.431 110.791 94.7162 110.448 95.0756C109.756 95.8015 109.367 96.7862 109.367 97.8129C109.367 98.8397 109.756 99.8244 110.447 100.55C111.139 101.277 112.078 101.685 113.056 101.685Z" fill="#93B9FF"/>
</g>
<g style="mix-blend-mode:multiply">
<path d="M110.243 67.1287C110.449 67.1287 110.653 67.0861 110.843 67.0034C111.034 66.9206 111.207 66.7994 111.352 66.6465C111.498 66.4936 111.613 66.3121 111.692 66.1123C111.771 65.9126 111.812 65.6985 111.812 65.4823C111.812 65.2661 111.771 65.052 111.692 64.8522C111.613 64.6524 111.498 64.4709 111.352 64.3181C111.207 64.1652 111.034 64.0439 110.843 63.9611C110.653 63.8784 110.449 63.8358 110.243 63.8358C109.827 63.8358 109.428 64.0093 109.133 64.3181C108.839 64.6268 108.674 65.0456 108.674 65.4823C108.674 65.9189 108.839 66.3377 109.133 66.6465C109.428 66.9553 109.827 67.1287 110.243 67.1287Z" fill="#D2E9FE"/>
</g>
<path d="M148.962 145.651C146.379 145.404 144.462 142.597 143.287 140.423C142.007 138.089 141.303 135.457 141.239 132.766C141.239 131.451 141.418 129.702 142.456 128.792C143.911 127.516 145.293 129.562 145.658 130.863C146.404 133.441 145.687 136.194 146.112 138.819C146.327 140.137 146.761 141.406 147.393 142.567C147.697 143.123 148.046 143.652 148.435 144.146C148.926 144.77 149.566 145.29 149.939 146.009L150.016 145.898C149.501 145.738 148.975 145.615 148.443 145.532C148.354 145.532 148.318 145.659 148.407 145.672C148.938 145.755 149.464 145.878 149.98 146.038C149.993 146.041 150.006 146.04 150.019 146.035C150.031 146.031 150.043 146.022 150.051 146.011C150.06 146 150.065 145.987 150.066 145.973C150.068 145.959 150.066 145.945 150.061 145.932C149.713 145.385 149.305 144.884 148.844 144.439C148.331 143.844 147.881 143.192 147.503 142.495C146.765 141.149 146.302 139.657 146.144 138.113C145.869 135.357 146.777 132.021 145.232 129.537C144.709 128.686 143.72 127.924 142.731 128.422C141.677 128.953 141.292 130.447 141.162 131.557C140.834 134.352 141.645 137.39 142.849 139.866C143.532 141.283 144.411 142.587 145.455 143.737C146.404 144.775 147.56 145.651 148.958 145.783C149.047 145.783 149.047 145.647 148.958 145.638L148.962 145.651Z" fill="#FF00FF"/>
<path d="M168.267 116.893C168.031 116.81 167.829 116.647 167.691 116.43C167.553 116.213 167.487 115.954 167.505 115.693C167.687 112.469 169.082 109.389 170.93 106.785C172.195 104.995 173.768 103.314 175.823 102.697C176.536 102.466 177.293 102.428 178.024 102.586C178.756 102.749 179.397 103.207 179.808 103.863C180.286 104.714 180.27 105.718 180.347 106.683C180.424 107.649 180.687 108.712 181.478 109.211C182.013 109.546 182.67 109.546 183.279 109.687C184.02 109.861 184.766 110.325 184.997 111.082C185.138 111.658 185.059 112.268 184.778 112.784C184.239 113.847 183.341 114.66 182.26 115.064C181.186 115.462 180.035 115.577 178.908 115.4C177.096 115.161 175.345 114.375 173.521 114.43C172.036 114.48 170.617 115.083 169.519 116.132C169.257 116.438 168.944 116.691 168.595 116.88C168.49 116.924 168.374 116.929 168.267 116.893Z" fill="#398CFF"/>
<path d="M272.299 202.461H225.273M287.351 227.849L37.0654 227.866" stroke="#398CFF" stroke-width="0.686" stroke-miterlimit="10"/>
<path d="M169.016 145.162C168.358 144.078 167.948 142.847 167.821 141.568C167.788 141.21 167.821 140.755 168.157 140.644C168.278 140.624 168.401 140.635 168.517 140.677C168.632 140.72 168.736 140.792 168.818 140.887C170.334 142.265 170.529 144.656 171.656 146.417C172.499 147.728 173.821 148.6 175.102 149.433L183.209 154.709L181.482 161.962L168.449 153.122L169.016 145.162Z" fill="#AABCFF"/>
<path d="M118.654 204.597L106.051 204.528L104.981 207.068H116.474L118.654 204.597ZM103.634 210.28H115.002L115.618 208.936H104.198L103.634 210.28ZM102.346 213.343L113.742 213.045L114.151 212.147H102.849L102.346 213.343Z" fill="#398CFF"/>
<path d="M104.981 207.068L104.199 208.935H115.619L116.474 207.068H104.981ZM102.849 212.147H114.151L115.002 210.28H103.636L102.849 212.147Z" fill="#F4F4F4"/>
<path d="M87.3383 222.311C88.0519 223.506 91.185 223.803 91.185 223.803H119.81V220.979H87.3099C87.276 221.423 87.2855 221.869 87.3383 222.311Z" fill="#93B9FF"/>
<path d="M102.938 211.701C102.938 211.701 101.855 212.015 100.246 212.501C101.418 213.058 103.051 214.044 103.363 215.364C103.862 217.452 100.587 217.452 99.6624 217.231C99.1068 217.095 95.9243 215.729 93.4594 214.653C92.7539 214.891 92.0614 215.13 91.4004 215.364C88.1167 216.529 87.4233 219.307 87.314 220.979H119.814V209.701C112.829 214.168 102.938 211.701 102.938 211.701Z" fill="#2C60FF"/>
<path d="M103.343 215.364C103.03 214.044 101.396 213.058 100.225 212.501C98.3767 213.062 95.8349 213.849 93.439 214.653C95.9038 215.729 99.0863 217.095 99.6411 217.231C100.582 217.452 103.857 217.452 103.343 215.364Z" fill="#F4F4F4"/>
<path d="M169.09 151.386L160.435 144.962C160.435 144.962 159.077 141.793 161.74 141.456C163.499 141.239 167.992 143.158 171.007 145.353" fill="#AABCFF"/>
<path d="M185.605 146.902C185.677 146.06 185.628 145.211 185.459 144.384C185.371 143.97 185.196 143.582 184.946 143.249C184.696 142.915 184.379 142.645 184.017 142.457C183.704 142.342 183.386 142.247 183.063 142.171C182.409 141.968 181.819 141.583 181.357 141.057C180.392 139.959 180.096 138.385 179.285 137.156C179.072 136.878 178.887 136.577 178.734 136.258C178.454 135.573 178.624 134.79 178.807 134.071C179.402 131.752 180.118 129.468 180.952 127.231L191.236 132.808L191.8 142.061C191.8 142.061 191.654 143.499 192.53 143.839L185.605 146.902Z" fill="#93B9FF"/>
<path d="M180.06 127.763C180.733 129.153 181.527 130.476 182.431 131.714C183.343 132.958 184.559 133.918 185.95 134.493C185.964 134.042 186.064 133.6 186.246 133.191C186.338 132.988 186.474 132.81 186.643 132.671C186.812 132.533 187.008 132.437 187.218 132.391C187.981 132.263 188.65 133.063 188.727 133.872C188.804 134.68 188.463 135.454 188.119 136.181C188.048 136.299 188.006 136.434 187.997 136.573C188.023 136.741 188.07 136.905 188.135 137.062C188.171 137.256 188.163 137.456 188.111 137.647C188.058 137.837 187.964 138.011 187.835 138.156C187.572 138.439 187.295 138.706 187.004 138.955C185.707 140.231 185.463 142.406 186.108 144.141L197.694 139.934C197.694 139.934 197.289 134.901 192.991 134.659C192.991 134.659 194.329 127.056 189.716 125.508C188.032 124.89 186.235 124.691 184.466 124.925C183.588 125.067 182.745 125.392 181.989 125.881C181.232 126.369 180.576 127.012 180.06 127.771V127.763Z" fill="#000631"/>
<path d="M191.398 126.448C191.729 126.454 192.057 126.391 192.365 126.263C192.672 126.134 192.951 125.943 193.187 125.7C193.423 125.456 193.611 125.166 193.739 124.847C193.866 124.527 193.932 124.183 193.932 123.836C193.932 123.489 193.866 123.146 193.739 122.826C193.611 122.506 193.423 122.216 193.187 121.972C192.951 121.729 192.672 121.538 192.365 121.41C192.057 121.281 191.729 121.218 191.398 121.224C190.746 121.237 190.124 121.517 189.667 122.006C189.21 122.494 188.954 123.151 188.954 123.836C188.954 124.521 189.21 125.178 189.667 125.666C190.124 126.155 190.746 126.435 191.398 126.448Z" fill="#000631"/>
<path d="M199.445 184.844C199.445 184.844 198.963 192.43 197.3 195.237C197.3 195.237 194.236 213.785 175.649 217.755C156.762 219.486 148.848 204.992 141.19 190.455C141.19 190.455 134.911 207.834 133.942 208.85H114.568C114.568 208.85 128.506 170.806 132.936 167.079C132.936 167.079 135.101 162.868 139.164 162.723C143.226 162.579 147.373 165.82 148.892 167.079C150.413 168.338 164.209 182.13 164.209 182.13L184.827 169.368L199.445 184.844Z" fill="#1E294A"/>
<path d="M135.953 204.536H116.287M125.141 204.597C125.141 204.597 136.163 172.499 139.902 173.418C143.639 174.337 161.302 207.787 169.649 207.451M111.22 199.857C111.22 199.857 129.917 164.973 133.654 165.883" stroke="white" stroke-width="0.23" stroke-miterlimit="10" stroke-linecap="round"/>
<path d="M135.888 149.267L162.316 140.797L175.556 153.572L149.218 164.126L135.888 149.267Z" fill="#398CFF"/>
<path d="M139.982 150.045L161.833 142.95L167.966 148.901L146.29 156.504L139.982 150.045Z" fill="#D2E9FE"/>
<path d="M154.038 155.321L163.272 152.062L165.664 154.155L156.515 157.814L154.038 155.321Z" fill="#000631"/>
<path d="M135.888 149.267V127.703L162.296 120.518V140.819L135.888 149.267Z" fill="#398CFF"/>
<path d="M137.433 147.085V129.8L160.633 123.377V140.142L137.433 147.085Z" fill="#AABCFF"/>
<path d="M197.256 145.273L195.274 147.501L194.074 145.417L197.256 145.273Z" fill="#2C60FF"/>
<path d="M196.867 150.352C196.339 148.838 195.689 147.373 194.925 145.975L184.664 148.195C182.99 149.224 181.661 150.769 180.44 152.356C174.558 160.013 170.581 169.036 167.091 178.148C167.091 178.148 161.119 170.95 159.089 170.853C157.057 170.755 152.217 175.89 152.906 177.536C153.595 179.183 166.009 196.313 171.68 194.718C177.351 193.123 183.303 175.647 183.436 174.822C183.436 174.822 184.701 180.845 187.896 183.381C195.343 169.713 196.685 153.785 196.867 150.352ZM198.205 155.027L198.327 155.878C197.812 167.39 190.312 184.449 190.312 184.449C193.341 184.827 196.393 184.956 199.441 184.836C199.441 184.836 201.306 168.436 198.205 155.027Z" fill="#398CFF"/>
<path d="M190.316 184.458C189.428 184.335 188.588 183.963 187.884 183.381C187.884 183.381 189.047 184.479 190.316 184.458Z" fill="#1E294A"/>
<path d="M198.205 155.027C197.845 153.441 197.397 151.879 196.863 150.348C196.681 153.781 195.339 169.717 187.888 183.376C188.591 183.959 189.432 184.331 190.32 184.453C190.32 184.453 197.82 167.394 198.334 155.882L198.205 155.027Z" fill="#1E294A"/>
<path d="M182.8 149.642C182.8 149.642 195.189 164.331 199.595 179.088L199.567 172.89C199.567 172.89 192.979 155.218 184.677 148.216C184.689 148.203 182.97 149.097 182.8 149.642Z" fill="#1E294A"/>
<path d="M182.863 136.076C183.595 135.363 183.838 134.389 183.407 133.902C182.975 133.415 182.033 133.599 181.302 134.312C180.569 135.025 180.326 135.998 180.758 136.485C181.189 136.972 182.132 136.79 182.863 136.076Z" fill="#2C60FF"/>
<path d="M183.866 148.744C183.769 148.744 184.596 147.042 185.147 146.651C185.147 146.651 194.418 142.491 195.205 142.444C195.205 142.444 197.142 144.622 197.28 145.251C195.201 146.428 193.054 147.466 190.85 148.361C189.767 148.769 188.625 148.979 187.474 148.982C186.267 149.004 185.06 148.925 183.866 148.744Z" fill="#1E294A"/>
<path d="M186.854 135.207C186.854 135.207 186.692 133.437 187.73 133.123" stroke="#1E294A" stroke-width="0.115" stroke-miterlimit="10" stroke-linecap="round"/>
<path d="M187.26 133.978C187.26 133.978 187.766 134.403 187.721 134.897" stroke="#1E294A" stroke-width="0.115" stroke-miterlimit="10" stroke-linecap="round"/>
<path d="M135.888 149.267L162.316 140.844" stroke="#1E294A" stroke-width="0.23" stroke-miterlimit="10"/>
<path d="M193.013 134.625C193.013 134.625 197.395 134.139 198.919 138.789M190.908 126.392C190.908 126.392 193.725 127.512 194.74 123.589" stroke="#000631" stroke-width="0.17" stroke-miterlimit="10" stroke-linecap="round"/>
<g style="mix-blend-mode:multiply">
<path d="M145.885 128.575C146.246 131.255 147.693 133.655 149.072 135.943C149.818 133.323 150.596 130.643 152.168 128.461C153.323 126.959 154.69 125.652 156.222 124.585C158.923 122.571 161.804 120.838 164.825 119.411C168.542 117.659 172.503 116.349 175.771 113.813C177.251 112.735 178.468 111.305 179.322 109.64C181.231 105.637 179.756 100.409 176.444 97.5792C173.132 94.7504 168.413 94.1758 164.31 95.3888C160.208 96.6009 156.673 99.456 153.847 102.808C153.868 102.808 144.174 115.817 145.885 128.575Z" fill="#AABCFF"/>
</g>
<g style="mix-blend-mode:multiply">
<path d="M153.025 86.6167C153.43 85.0893 153.43 83.4853 153.528 81.9026C153.589 79.4732 154.013 77.0688 154.784 74.7771C155.619 72.5144 157.026 70.4251 159 69.162C159.913 68.5295 160.998 68.2304 162.089 68.3111C162.632 68.3614 163.149 68.5793 163.574 68.9374C163.999 69.2955 164.313 69.7777 164.477 70.3231C164.596 71.1411 164.491 71.9779 164.173 72.7354C161.891 79.6952 158.652 86.9822 157.845 94.2999C157.16 100.494 159.179 107.279 158.445 113.465C157.796 118.906 153.985 122.352 151.419 127.116C151.253 127.475 151.017 127.794 150.726 128.052C149.854 128.707 148.545 127.971 148.131 126.933C147.718 125.895 147.896 124.712 148.006 123.589C148.329 120.352 148.003 117.08 147.049 113.983C146.174 111.155 144.779 108.496 144.212 105.586C143.015 99.6302 145.735 93.0487 150.633 89.8204C151.317 89.3714 151.907 88.7791 152.364 88.0804C152.656 87.6322 152.879 87.1382 153.025 86.6167Z" fill="#93B9FF"/>
</g>
<g style="mix-blend-mode:multiply">
<path d="M158.403 138.559C158.195 139.007 157.911 139.411 157.564 139.751C157.388 139.918 157.167 140.023 156.931 140.049C156.695 140.076 156.457 140.024 156.251 139.9C156.059 139.737 155.918 139.517 155.845 139.27C155.705 138.841 155.671 138.382 155.746 137.935C155.822 137.489 156.004 137.07 156.276 136.717C156.919 135.901 157.974 135.565 158.707 134.837C159.685 133.872 159.96 132.382 160.593 131.145C161.015 130.226 161.733 129.494 162.619 129.077C163.067 128.88 163.56 128.825 164.037 128.919C164.513 129.013 164.954 129.251 165.303 129.605C166.114 130.536 165.956 132.081 165.262 133.114C164.57 134.148 163.483 134.816 162.425 135.42L160.398 136.615C160.398 136.615 158.785 137.883 158.403 138.559Z" fill="#2C60FF"/>
</g>
<path d="M167.091 178.14C167.091 178.14 168.015 184.142 169.211 185.01C170.407 185.878 169.211 182.398 169.211 182.398" stroke="#2C60FF" stroke-width="0.23" stroke-miterlimit="10" stroke-linecap="round"/>
<path d="M130.411 208.85H119.06L117.954 210.897H129.446L130.411 208.85ZM116.607 214.108H127.975L128.591 212.764H117.171L116.607 214.108ZM115.318 217.172L126.714 216.874L127.123 215.976H115.821L115.318 217.172Z" fill="#398CFF"/>
<path d="M117.954 210.897L117.172 212.764H128.591L129.446 210.897H117.954ZM115.821 215.976H127.124L127.975 214.108H116.608L115.821 215.976Z" fill="#F4F4F4"/>
<path d="M96.662 226.139C97.3756 227.335 100.51 227.633 100.51 227.633H129.134V224.808H96.6337C96.5997 225.252 96.6092 225.698 96.662 226.139Z" fill="#93B9FF"/>
<path d="M112.261 215.529C112.261 215.529 111.179 215.844 109.569 216.329C110.741 216.887 112.375 217.874 112.687 219.192C113.185 221.281 109.91 221.281 108.985 221.059C108.43 220.923 105.248 219.558 102.783 218.481C102.078 218.72 101.384 218.958 100.724 219.192C97.4404 220.358 96.747 223.136 96.6377 224.808H129.138V213.53C122.153 217.997 112.261 215.529 112.261 215.529Z" fill="#2C60FF"/>
<path d="M112.667 219.192C112.355 217.874 110.721 216.887 109.549 216.329C107.701 216.891 105.159 217.677 102.763 218.481C105.228 219.558 108.411 220.923 108.966 221.059C109.907 221.281 113.182 221.281 112.667 219.192Z" fill="#F4F4F4"/>
<path d="M142.597 163.4C143.174 163.806 143.807 164.117 144.474 164.323" stroke="#1E294A" stroke-width="0.255" stroke-miterlimit="10" stroke-linecap="round"/>
<path d="M143.194 150.76C143.159 150.718 143.115 150.685 143.066 150.664C143.017 150.643 142.964 150.635 142.911 150.64C142.858 150.646 142.807 150.665 142.763 150.697C142.719 150.728 142.683 150.77 142.658 150.82C142.192 151.743 140.968 154.312 141.017 155.708C141.074 157.431 141.661 162.046 142.132 162.97C142.423 163.395 142.597 163.395 142.597 163.395C142.638 163.872 142.716 164.344 142.833 164.807C142.951 165.054 148.05 168.13 149.692 168.994C151.334 169.857 153.211 172.005 154.09 174.775C154.09 174.775 158.145 172.252 158.955 170.776C158.955 170.776 156.495 167.207 155.85 165.794C155.206 164.382 153.037 160.689 152.449 160.073C150.863 158.72 149.209 157.457 147.495 156.29C147.025 156.044 144.856 154.198 144.447 154.257C144.037 154.317 143.331 154.444 143.567 155.18C143.802 155.916 146.676 159.179 147.848 160.166C147.144 160.218 146.438 160.107 145.779 159.841C145.121 159.575 144.526 159.16 144.037 158.626C143.859 157.83 143.624 157.049 143.331 156.29C143.331 156.29 143.976 152.598 143.737 151.858C143.618 151.461 143.434 151.09 143.194 150.76Z" fill="#AABCFF"/>
<path d="M142.597 163.4C142.597 163.4 143.939 164.25 144.502 164.353" stroke="#1E294A" stroke-width="0.23" stroke-miterlimit="10" stroke-linecap="round"/>
<path d="M225.764 167.828V185.92H242.588V200.529H266.272V215.563H211.012V167.828H225.764Z" fill="#AABCFF"/>
<g style="mix-blend-mode:multiply">
<path d="M206.909 215.874H191.666L214.06 131.162H229.303L206.909 215.874Z" fill="#93B9FF"/>
</g>
</svg>
