<svg width="328" height="259" viewBox="0 0 328 259" fill="none" xmlns="http://www.w3.org/2000/svg">
<path d="M73.7842 208.768L74.2885 194.044C74.0917 193.926 63.1513 194.044 63.1513 194.044L58.2354 202.595L64.1115 208.552L73.7842 208.768Z" fill="#000631"/>
<path d="M64.275 209.735C64.275 209.735 64.48 206.956 64.3857 206.741C64.2858 206.318 64.0926 205.927 63.8219 205.598C63.5512 205.269 63.2105 205.012 62.8277 204.847C61.546 204.254 59.5641 202.128 61.61 199.331C64.9835 199.052 63.9158 193.571 63.9158 193.571C59.5173 185.299 57.446 178.55 56.5276 174.94C56.324 174.139 55.8917 173.423 55.2893 172.889C54.6869 172.355 53.9433 172.029 53.1591 171.954L51.583 213.624L64.275 209.735Z" fill="#2C60FF"/>
<path d="M51.5312 215.049L51.5829 213.624L53.1671 171.954H53.0048C52.5061 171.932 52.008 172.012 51.539 172.192C51.07 172.372 50.6394 172.648 50.2716 173.003C49.9039 173.359 49.6064 173.787 49.396 174.264C49.1857 174.74 49.0667 175.256 49.0458 175.781L47.56 214.869C47.5466 215.268 47.6837 215.657 47.9413 215.95C48.1989 216.243 48.5561 216.417 48.9351 216.434L50.0454 216.484C50.2325 216.493 50.4196 216.463 50.5957 216.396C50.7718 216.329 50.9334 216.225 51.0712 216.092C51.2097 215.959 51.3217 215.798 51.4006 215.619C51.4796 215.44 51.524 215.247 51.5312 215.049Z" fill="#D2E9FE"/>
<path d="M61.4648 199.538C61.5115 199.471 61.5583 199.398 61.6099 199.331C61.8715 199.31 62.129 199.25 62.3742 199.151L62.2971 198.899C62.1987 198.931 59.9486 199.636 58.5522 197.015C58.2619 196.476 58.0306 195.936 57.8043 195.415C57.3181 194.291 56.8564 193.225 55.956 192.394C55.054 191.562 53.9872 191.13 52.4497 190.892V191.431C55.7674 191.958 56.4808 193.598 57.3607 195.635C57.5911 196.17 57.8306 196.719 58.129 197.276C58.4544 197.918 58.9198 198.47 59.487 198.886C59.9108 199.192 60.3935 199.396 60.9006 199.483C61.0868 199.517 61.2754 199.535 61.4648 199.538ZM59.1155 211.322V211.272C59.0901 211.272 56.8736 210.549 56.0749 208.683C55.7017 207.743 55.1186 206.912 54.3752 206.26C53.6318 205.608 52.7499 205.154 51.8044 204.937L51.6724 208.377C52.0201 208.533 52.3348 208.76 52.5981 209.046C52.8614 209.332 53.068 209.67 53.2058 210.04C53.6316 211.016 54.2569 211.88 55.0368 212.572L59.1155 211.322Z" fill="#F3F1F0"/>
<path d="M59.5174 184.076C59.8215 183.961 60.1526 183.954 60.4608 184.055C60.769 184.157 61.0374 184.361 61.2255 184.638C61.8995 185.631 62.1734 186.499 61.6519 187.12C61.1312 187.74 57.9881 189.633 56.8737 189.476C56.8737 189.476 55.8323 187.394 55.6396 187.061C55.4469 186.729 60.0889 185.339 59.9102 185.051C59.8118 184.894 59.8208 184.678 59.5174 184.076ZM61.1148 187.79C61.4218 187.671 61.7575 187.661 62.0701 187.763C62.3827 187.864 62.655 188.071 62.845 188.352C63.5182 189.345 63.7912 190.213 63.2705 190.834C62.7498 191.454 59.6068 193.347 58.4916 193.189C58.4916 193.189 57.4502 191.107 57.2575 190.775C57.0656 190.442 61.7076 189.053 61.528 188.765C61.405 188.608 61.4141 188.392 61.1148 187.79Z" fill="#93B9FF"/>
<path d="M72.5126 186.287H165.18V211.916H68.6685L72.5126 186.287Z" fill="#121D3A"/>
<path d="M120.029 185.641H107.192L104.053 192.29C103.049 194.376 102.221 196.107 102.221 196.107L110.711 201.013L116.198 194.471L120.029 185.641Z" fill="#000631"/>
<path d="M117.339 194.237C117.339 194.237 114.649 194.125 114.439 194.237C114.036 194.36 113.667 194.582 113.361 194.884C113.055 195.187 112.822 195.561 112.68 195.977C112.164 197.398 110.195 199.573 107.402 197.506C106.975 193.909 101.735 195.257 101.735 195.257C93.9326 200.279 87.5021 202.784 84.0516 203.904C83.2768 204.148 82.5943 204.642 82.1001 205.316C81.6058 205.99 81.3248 206.811 81.2964 207.662H121.652L117.339 194.237Z" fill="#2C60FF"/>
<path d="M123.027 207.662H81.2974V207.837C81.2973 208.372 81.3972 208.902 81.5916 209.396C81.786 209.89 82.0709 210.34 82.4302 210.718C82.7895 211.096 83.216 211.396 83.6854 211.601C84.1549 211.806 84.658 211.911 85.1661 211.911H123.015C123.4 211.911 123.77 211.75 124.043 211.463C124.316 211.177 124.47 210.788 124.471 210.382V209.191C124.469 208.787 124.317 208.401 124.047 208.115C123.776 207.829 123.41 207.666 123.027 207.662Z" fill="#D2E9FE"/>
<path d="M100.167 207.662C100.53 204.092 102.084 203.265 104.01 202.24C104.514 201.97 105.035 201.691 105.565 201.341C106.103 201.031 106.565 200.593 106.914 200.063C107.263 199.532 107.49 198.923 107.576 198.284C107.601 198.076 107.609 197.867 107.602 197.658L107.397 197.51C107.365 197.232 107.296 196.959 107.192 196.701L106.948 196.795C107.085 197.254 107.124 197.74 107.063 198.216C106.987 198.775 106.787 199.306 106.479 199.768C106.171 200.229 105.764 200.608 105.291 200.874C104.784 201.202 104.271 201.475 103.78 201.736C102.712 202.303 101.705 202.838 100.94 203.836C100.175 204.835 99.8038 205.99 99.6587 207.649L100.167 207.662ZM119.089 199.699H119.038C119.038 199.727 118.439 202.123 116.671 203.053C115.783 203.495 115.008 204.155 114.413 204.978C113.819 205.802 113.421 206.764 113.255 207.784H116.582C116.719 207.406 116.926 207.061 117.19 206.769C117.455 206.476 117.772 206.242 118.123 206.079C119.046 205.582 119.853 204.878 120.489 204.016L119.089 199.699Z" fill="#F3F1F0"/>
<path d="M92.7502 200.375C92.6228 200.052 92.5992 199.694 92.6832 199.357C92.7672 199.019 92.954 198.719 93.2152 198.504C94.1467 197.74 94.9749 197.416 95.5981 197.96C96.2221 198.504 98.186 201.772 98.0835 202.973C98.0835 202.973 96.1147 204.173 95.8031 204.389C95.4915 204.605 93.9458 199.699 93.6678 199.915C93.5276 200.028 93.3177 200.028 92.7502 200.375ZM96.268 198.517C96.1407 198.196 96.1173 197.839 96.2014 197.501C96.2856 197.164 96.4726 196.865 96.7338 196.651C97.6694 195.887 98.4976 195.559 99.1167 196.107C99.7358 196.656 101.705 199.92 101.602 201.12C101.602 201.12 99.6333 202.32 99.3258 202.536C99.0183 202.752 97.4644 197.848 97.1905 198.041C97.0454 198.176 96.8404 198.176 96.268 198.517Z" fill="#93B9FF"/>
<path d="M183.931 187.564C183.931 187.564 189.91 204.29 192.852 205.396C195.794 206.502 210.394 206.61 210.394 206.61C210.018 205.676 209.434 204.852 208.691 204.207C207.947 203.561 207.067 203.115 206.124 202.905C202.763 202.006 197.827 200.805 197.827 200.805C197.827 200.805 208.384 198.98 210.382 199.426C212.38 199.87 220.631 202.465 221.989 202.244C223.347 202.024 223.142 201.345 222.723 200.918C222.723 200.918 224.09 201.367 224.508 200.805C224.927 200.243 225.456 199.147 224.508 198.593C223.56 198.041 212.427 194.61 210.117 194.722C207.807 194.834 201.397 194.834 199.295 195.941L195.841 188.176L183.931 187.564Z" fill="#AABCFF"/>
<path d="M229.984 64.75H61.9478V181.342H229.984V64.75Z" fill="#D2E9FE"/>
<path d="M222.006 66.8047H214.652V74.5471H222.006V66.8047Z" fill="white" stroke="black" stroke-width="0.12" stroke-miterlimit="10"/>
<path d="M214.652 66.8048L222.006 74.5471M222.056 66.7504L214.698 74.4927" stroke="black" stroke-width="0.12" stroke-miterlimit="10"/>
<path d="M61.9478 76.6605H230.069" stroke="#2C60FF" stroke-width="0.542" stroke-miterlimit="10"/>
<path d="M95.1538 108.515H73.4468V147.716H95.1538V108.515Z" fill="#93B9FF"/>
<path d="M135.709 92.0503H69.1719V93.5654H135.71V92.0503H135.709Z" fill="white"/>
<path d="M133.972 143.251H103.421V144.766H133.972V143.251ZM152.945 147.033H103.421V148.548H152.945V147.033Z" fill="#99BFFE"/>
<path d="M89.8374 111.541H68.4165V150.742H89.8374V111.541Z" fill="#398CFF"/>
<path d="M71.3975 119.867H87.116M71.3975 125.312H87.116M76.5339 130.761H87.116M76.5339 136.211H87.116M76.5339 141.66H87.116" stroke="white" stroke-width="0.385" stroke-miterlimit="10"/>
<path d="M217.488 137.272H186.002C185.032 137.238 184.113 136.808 183.438 136.073C182.764 135.339 182.387 134.357 182.388 133.335C182.387 132.313 182.764 131.332 183.439 130.597C184.113 129.863 185.032 129.433 186.002 129.399H217.488C218.457 129.434 219.376 129.864 220.05 130.598C220.725 131.332 221.102 132.314 221.102 133.335C221.103 134.357 220.726 135.338 220.051 136.073C219.377 136.808 218.458 137.237 217.488 137.272Z" fill="white"/>
<path d="M219.931 133.792H188.449C187.948 133.81 187.448 133.722 186.979 133.532C186.511 133.342 186.083 133.055 185.723 132.687C185.362 132.32 185.076 131.88 184.88 131.393C184.684 130.907 184.583 130.384 184.582 129.856C184.582 129.327 184.683 128.804 184.879 128.318C185.075 127.831 185.362 127.391 185.723 127.024C186.083 126.656 186.511 126.369 186.979 126.179C187.447 125.989 187.947 125.901 188.449 125.919H219.931C220.9 125.954 221.819 126.384 222.493 127.118C223.168 127.852 223.546 128.834 223.546 129.856C223.546 130.878 223.168 131.859 222.493 132.593C221.819 133.327 220.9 133.757 219.931 133.792Z" stroke="#2C60FF" stroke-width="0.406" stroke-miterlimit="10"/>
<path d="M130.807 115.928H105.65V138.935H130.807V115.928Z" fill="#99BFFE"/>
<path d="M128.736 111.873H104.386V137.51H128.736V111.873Z" fill="white" stroke="#1E294A" stroke-width="0.203" stroke-miterlimit="10"/>
<path d="M231.94 185.996C236.105 184.289 238.167 179.351 236.545 174.966C234.923 170.581 230.231 168.41 226.067 170.118C221.902 171.827 219.841 176.765 221.463 181.15C223.085 185.535 227.776 187.704 231.94 185.996Z" fill="#2C60FF"/>
<path d="M213.806 98.0436H211.543C211.375 98.0367 211.209 98.0843 211.067 98.1798C210.926 98.2754 210.816 98.4144 210.751 98.578C210.709 98.6862 210.687 98.8026 210.689 98.9198V118.182C210.689 118.296 210.71 118.409 210.752 118.515C210.793 118.62 210.855 118.716 210.932 118.796C211.009 118.877 211.1 118.941 211.201 118.984C211.301 119.028 211.409 119.05 211.517 119.049H229.978V98.0211L213.806 98.0436Z" fill="#398CFF"/>
<path d="M113.609 120.402V128.977C113.61 129.029 113.624 129.08 113.65 129.124C113.676 129.168 113.714 129.203 113.758 129.227C113.802 129.25 113.851 129.26 113.901 129.255C113.95 129.251 113.997 129.232 114.037 129.201L119.395 124.89C119.428 124.864 119.455 124.83 119.474 124.79C119.492 124.751 119.501 124.708 119.501 124.665C119.501 124.621 119.491 124.578 119.473 124.539C119.454 124.501 119.428 124.467 119.395 124.44L114.037 120.182C113.976 120.139 113.902 120.124 113.83 120.138C113.759 120.153 113.696 120.196 113.654 120.26C113.628 120.302 113.612 120.351 113.609 120.402Z" fill="#1E294A"/>
<path d="M259.577 88.3588H214.819C214.26 88.3588 213.807 88.8362 213.807 89.4241V114.841C213.807 115.429 214.26 115.906 214.819 115.906H259.577C260.136 115.906 260.589 115.429 260.589 114.841V89.4241C260.589 88.8362 260.136 88.3588 259.577 88.3588Z" fill="#93B9FF"/>
<path d="M224.2 99.3291H255.955M224.2 104.23H255.955" stroke="#2C60FF" stroke-width="0.463" stroke-miterlimit="10" stroke-linecap="round"/>
<path d="M268.293 115.879C263.596 115.025 262.123 107.786 262.123 107.786C262.123 107.786 260.654 115.048 255.952 115.879C260.649 116.734 262.123 123.999 262.123 123.999C262.123 123.999 263.591 116.734 268.293 115.879Z" fill="white" stroke="black" stroke-width="0.422" stroke-miterlimit="10"/>
<path d="M174.493 129.107C169.549 125.096 161.371 123.109 161.371 123.109C157.66 126.139 152.288 130.973 147.598 130.168C145.079 129.718 144.182 125.501 143.857 123.271L143.452 123.473C138.037 123.118 128.079 133.608 128.079 133.608C128.079 133.608 124.795 137.811 122.433 140.923C117.991 146.477 114.258 152.62 111.33 159.194C109.822 162.832 112.769 166.316 113.995 165.633C113.995 165.633 132.785 170.421 146.753 169.774C162.412 169.046 174.652 165.921 175.45 166.24C175.45 166.24 180.549 190.937 181.809 192.488L199.257 192.722C199.257 192.722 182.829 135.865 174.493 129.107Z" fill="#2C60FF"/>
<path d="M126.294 169.396L120.772 167.58L121.789 169.621L112.288 174.742L114.025 178.24L123.527 173.119L124.569 175.209L126.294 169.396Z" fill="#04042B"/>
<path d="M286.8 176.131H244.659C244.497 176.132 244.337 176.177 244.195 176.262C244.054 176.347 243.936 176.469 243.853 176.616L226.46 207.478H191.301V212.221H223.782L223.756 212.266H268.916L287.616 177.601C287.736 177.375 287.767 177.107 287.701 176.857C287.635 176.607 287.479 176.394 287.265 176.264C287.124 176.178 286.963 176.132 286.8 176.131Z" fill="#398CFF"/>
<path d="M210.732 195.667C210.732 195.667 220.451 199.659 221.408 200.581" stroke="#1E294A" stroke-width="0.474" stroke-miterlimit="10" stroke-linecap="round"/>
<path d="M147.598 130.168C152.295 130.973 157.66 126.122 161.37 123.109L157.237 121.037L156.353 120.587C155.96 119.948 155.661 118.478 156.02 115.16L146.159 106.456C146.159 106.456 144.792 107.517 144.361 112.971C143.93 118.424 145.442 119.634 150.045 118.195C150.227 119.055 150.227 119.947 150.045 120.807L149.832 120.848C147.776 121.469 145.775 122.28 143.854 123.271C144.165 125.501 145.079 129.731 147.598 130.168Z" fill="#AABCFF"/>
<path d="M122.532 145.963C123.277 146.086 124.016 146.25 124.744 146.457C125.098 146.56 125.457 146.678 125.808 146.799L126.35 147.002C126.509 147.047 126.661 147.116 126.802 147.204L126.648 147.037L126.679 147.082L126.619 146.853V146.902L126.679 146.673V146.7L126.939 146.489H127.191L127.392 146.763V146.741L127.281 147.19C127.321 147.148 127.352 147.098 127.374 147.043C127.396 146.988 127.407 146.93 127.407 146.87C127.408 146.811 127.397 146.752 127.375 146.697C127.354 146.642 127.322 146.592 127.283 146.55C127.243 146.507 127.195 146.474 127.143 146.451C127.091 146.428 127.035 146.416 126.979 146.416C126.923 146.416 126.867 146.427 126.814 146.45C126.762 146.472 126.715 146.506 126.675 146.547H126.653C126.597 146.604 126.557 146.676 126.538 146.755C126.518 146.835 126.519 146.918 126.542 146.996C126.579 147.129 126.664 147.242 126.779 147.309C126.894 147.376 127.03 147.393 127.157 147.356C127.229 147.331 127.295 147.288 127.348 147.23C127.402 147.173 127.442 147.103 127.465 147.027C127.489 146.95 127.494 146.869 127.482 146.79C127.47 146.71 127.441 146.635 127.396 146.57C127.247 146.332 126.939 146.259 126.7 146.161C125.426 145.658 124.107 145.297 122.762 145.081C122.694 145.06 122.622 145.058 122.552 145.074C122.483 145.09 122.418 145.124 122.364 145.172C122.31 145.221 122.269 145.284 122.244 145.354C122.219 145.424 122.211 145.499 122.22 145.574C122.23 145.663 122.265 145.748 122.322 145.815C122.378 145.883 122.453 145.931 122.536 145.953L122.532 145.963Z" fill="#1E294A"/>
<path d="M121.698 190.842L92.582 191.233C92.582 191.233 128.1 139.385 138.028 133.643C147.957 127.902 152.312 136.602 154.653 139.25C158.15 143.22 175.842 167.814 179.618 179.175C182.043 186.458 194.662 202.554 176.744 212.203C173.925 213.728 168.459 213.889 164.914 210.967C154.239 202.168 142.709 174.405 141.265 166.055C141.265 166.055 125.439 186.827 121.698 190.842Z" fill="#1E294A"/>
<path d="M256.652 201.404C257.603 201.404 258.516 201.006 259.189 200.297C259.861 199.589 260.239 198.628 260.239 197.626C260.239 196.625 259.861 195.664 259.189 194.956C258.516 194.247 257.603 193.849 256.652 193.849C255.7 193.849 254.788 194.247 254.115 194.956C253.442 195.664 253.064 196.625 253.064 197.626C253.064 198.628 253.442 199.589 254.115 200.297C254.788 201.006 255.7 201.404 256.652 201.404Z" fill="#D2E9FE"/>
<path d="M219.661 210.166C219.89 210.166 220.109 210.071 220.271 209.9C220.433 209.73 220.524 209.499 220.524 209.258C220.524 209.017 220.433 208.786 220.271 208.616C220.109 208.446 219.89 208.35 219.661 208.35C219.432 208.35 219.213 208.446 219.051 208.616C218.889 208.786 218.798 209.017 218.798 209.258C218.798 209.499 218.889 209.73 219.051 209.9C219.213 210.071 219.432 210.166 219.661 210.166Z" fill="#2C60FF"/>
<path d="M165.956 137.384C166.818 137.942 167.714 138.439 168.639 138.872C168.712 138.909 168.796 138.916 168.875 138.894C168.953 138.87 169.021 138.818 169.066 138.746C169.105 138.67 169.115 138.581 169.094 138.497C169.072 138.413 169.021 138.341 168.95 138.296C168.025 137.866 167.129 137.369 166.269 136.809C166.195 136.763 166.106 136.75 166.023 136.773C165.94 136.796 165.868 136.852 165.825 136.93C165.781 137.008 165.769 137.101 165.79 137.189C165.812 137.277 165.866 137.352 165.94 137.398L165.956 137.384ZM173.712 139.335C174.309 138.783 174.95 138.287 175.629 137.852C175.666 137.829 175.698 137.799 175.724 137.763C175.749 137.727 175.768 137.687 175.779 137.643C175.789 137.6 175.792 137.555 175.786 137.51C175.78 137.466 175.766 137.423 175.744 137.384C175.723 137.346 175.694 137.312 175.66 137.285C175.626 137.258 175.587 137.238 175.546 137.227C175.505 137.216 175.462 137.213 175.42 137.219C175.378 137.225 175.337 137.24 175.3 137.263C174.577 137.732 173.893 138.264 173.255 138.854C173.195 138.918 173.161 139.004 173.161 139.095C173.161 139.185 173.195 139.271 173.255 139.335C173.316 139.399 173.398 139.435 173.484 139.435C173.569 139.435 173.651 139.399 173.712 139.335ZM163.834 129.902L166.008 130.855C166.09 130.88 166.178 130.868 166.252 130.824C166.326 130.78 166.381 130.708 166.406 130.622C166.426 130.535 166.414 130.442 166.372 130.363C166.33 130.285 166.261 130.226 166.179 130.199L164.006 129.242C163.944 129.225 163.879 129.227 163.819 129.249C163.758 129.27 163.705 129.31 163.666 129.363C163.628 129.416 163.604 129.48 163.6 129.547C163.595 129.614 163.609 129.681 163.641 129.739C163.683 129.818 163.752 129.876 163.834 129.902ZM159.268 144.092L160.93 143.786C160.996 143.772 161.056 143.737 161.102 143.685C161.148 143.634 161.177 143.568 161.186 143.498C161.195 143.428 161.184 143.357 161.152 143.294C161.121 143.232 161.072 143.181 161.013 143.148C160.973 143.127 160.93 143.114 160.885 143.111C160.841 143.108 160.796 143.114 160.754 143.13L159.098 143.436C159.036 143.453 158.98 143.489 158.938 143.54C158.895 143.591 158.868 143.654 158.86 143.721C158.855 143.776 158.863 143.832 158.883 143.883C158.902 143.935 158.933 143.981 158.973 144.017C159.013 144.053 159.061 144.079 159.112 144.092C159.164 144.105 159.217 144.105 159.268 144.092ZM164.739 146.434L164.598 148.053C164.599 148.143 164.633 148.23 164.694 148.294C164.755 148.358 164.837 148.394 164.923 148.395C165.008 148.391 165.089 148.354 165.149 148.291C165.209 148.228 165.245 148.143 165.248 148.053L165.389 146.434C165.388 146.344 165.353 146.258 165.293 146.194C165.232 146.13 165.15 146.094 165.064 146.093C164.979 146.096 164.898 146.133 164.838 146.196C164.778 146.26 164.743 146.345 164.739 146.434ZM174.229 146.129L176.602 147.509C176.676 147.546 176.76 147.554 176.839 147.531C176.917 147.508 176.985 147.455 177.03 147.383C177.068 147.307 177.078 147.218 177.056 147.135C177.035 147.051 176.984 146.979 176.914 146.934L174.54 145.554C174.485 145.517 174.42 145.499 174.355 145.502C174.289 145.505 174.227 145.528 174.174 145.57C174.131 145.604 174.097 145.649 174.074 145.701C174.051 145.753 174.041 145.81 174.045 145.867C174.049 145.924 174.066 145.979 174.095 146.027C174.124 146.075 174.164 146.115 174.211 146.142L174.229 146.129ZM169.641 154.712L169.262 156.736C169.25 156.779 169.247 156.824 169.252 156.869C169.257 156.914 169.27 156.957 169.291 156.996C169.312 157.036 169.341 157.07 169.374 157.098C169.408 157.125 169.447 157.146 169.488 157.158C169.571 157.182 169.66 157.17 169.735 157.126C169.81 157.081 169.866 157.007 169.889 156.919L170.265 154.891C170.286 154.805 170.274 154.713 170.232 154.635C170.19 154.557 170.121 154.499 170.039 154.474C169.956 154.451 169.869 154.463 169.794 154.508C169.72 154.552 169.665 154.625 169.641 154.712ZM150.998 134.816C151.535 135.341 152.132 135.794 152.774 136.166C152.811 136.191 152.852 136.208 152.895 136.216C152.939 136.224 152.983 136.223 153.026 136.212C153.068 136.202 153.109 136.182 153.144 136.155C153.179 136.127 153.209 136.092 153.231 136.053C153.254 136.013 153.268 135.969 153.273 135.923C153.279 135.877 153.276 135.83 153.264 135.786C153.252 135.741 153.231 135.7 153.204 135.664C153.176 135.628 153.142 135.599 153.103 135.577C152.798 135.404 152.502 135.211 152.219 135.001L152.023 134.848L151.984 134.816H151.954L151.861 134.736C151.72 134.614 151.587 134.493 151.433 134.367C151.372 134.305 151.29 134.27 151.205 134.27C151.12 134.27 151.038 134.305 150.977 134.367C150.947 134.399 150.923 134.436 150.906 134.478C150.89 134.519 150.882 134.563 150.882 134.608C150.882 134.653 150.89 134.697 150.906 134.738C150.923 134.779 150.947 134.817 150.977 134.848L150.998 134.816ZM137.341 127.776L138.093 129.943C138.117 130.029 138.171 130.102 138.245 130.147C138.319 130.191 138.407 130.204 138.49 130.181C138.572 130.155 138.642 130.097 138.684 130.018C138.726 129.939 138.738 129.846 138.716 129.759L137.969 127.592C137.946 127.504 137.89 127.43 137.815 127.385C137.759 127.351 137.694 127.335 137.63 127.34C137.565 127.345 137.503 127.37 137.453 127.412C137.402 127.454 137.364 127.511 137.344 127.576C137.324 127.641 137.323 127.71 137.341 127.776ZM134.617 133.284C134.737 133.315 134.852 133.351 134.971 133.396L135.121 133.454H135.164C135.116 133.454 135.121 133.454 135.164 133.454L135.249 133.495C135.465 133.599 135.67 133.724 135.864 133.868C135.938 133.912 136.025 133.923 136.107 133.899C136.189 133.876 136.259 133.82 136.302 133.743C136.345 133.666 136.357 133.574 136.336 133.488C136.316 133.401 136.265 133.326 136.193 133.279C135.773 132.972 135.305 132.747 134.809 132.614C134.768 132.598 134.723 132.591 134.678 132.595C134.634 132.597 134.59 132.61 134.551 132.631C134.511 132.653 134.476 132.683 134.449 132.72C134.42 132.756 134.4 132.798 134.388 132.844C134.376 132.888 134.373 132.936 134.379 132.982C134.385 133.028 134.401 133.072 134.424 133.112C134.447 133.152 134.477 133.187 134.513 133.215C134.549 133.242 134.59 133.26 134.634 133.27L134.617 133.284ZM125.708 142.357C126.785 141.193 127.784 139.952 128.697 138.643C128.736 138.566 128.745 138.478 128.724 138.394C128.703 138.311 128.652 138.239 128.582 138.194C128.51 138.154 128.426 138.145 128.347 138.167C128.267 138.189 128.199 138.242 128.155 138.315C127.27 139.574 126.303 140.767 125.26 141.884C125.229 141.916 125.205 141.954 125.189 141.995C125.172 142.037 125.164 142.081 125.164 142.126C125.163 142.171 125.171 142.216 125.187 142.257C125.203 142.299 125.227 142.337 125.257 142.369C125.287 142.401 125.323 142.426 125.362 142.443C125.402 142.46 125.444 142.469 125.487 142.469C125.573 142.47 125.655 142.434 125.717 142.371L125.708 142.357ZM120.199 147.824L121.241 150.382C121.285 150.455 121.353 150.507 121.432 150.53C121.511 150.552 121.595 150.543 121.668 150.504C121.736 150.456 121.785 150.384 121.806 150.302C121.827 150.219 121.819 150.131 121.783 150.054L120.759 147.478C120.716 147.404 120.648 147.35 120.569 147.327C120.489 147.303 120.405 147.312 120.332 147.352C120.264 147.399 120.214 147.471 120.193 147.554C120.172 147.637 120.18 147.725 120.216 147.802L120.199 147.824ZM114.856 159.414L116.791 156.717C116.829 156.641 116.839 156.552 116.817 156.468C116.796 156.385 116.745 156.313 116.675 156.268C116.602 156.228 116.518 156.219 116.44 156.242C116.361 156.264 116.293 156.317 116.249 156.389L114.314 159.086C114.277 159.163 114.269 159.252 114.29 159.335C114.311 159.418 114.361 159.489 114.429 159.536C114.502 159.576 114.586 159.585 114.665 159.563C114.744 159.54 114.813 159.487 114.856 159.414ZM183.746 170.066C184.474 170.52 185.232 170.917 186.014 171.253L186.185 170.596L185.66 170.39C185.597 170.364 185.527 170.36 185.461 170.379C185.395 170.398 185.337 170.438 185.294 170.494C185.258 170.54 185.235 170.596 185.225 170.654C185.216 170.713 185.221 170.773 185.241 170.829C185.26 170.885 185.294 170.935 185.337 170.973C185.381 171.011 185.433 171.036 185.489 171.046L186.014 171.253C186.074 171.264 186.135 171.257 186.19 171.233C186.246 171.209 186.295 171.17 186.331 171.119C186.366 171.068 186.388 171.008 186.393 170.945C186.399 170.881 186.387 170.818 186.36 170.761C186.323 170.685 186.261 170.626 186.185 170.596C185.455 170.278 184.749 169.904 184.071 169.477C184.034 169.449 183.993 169.431 183.948 169.421C183.904 169.412 183.859 169.413 183.815 169.423C183.771 169.434 183.73 169.453 183.694 169.481C183.658 169.509 183.628 169.545 183.605 169.586C183.582 169.626 183.568 169.672 183.563 169.719C183.558 169.765 183.562 169.813 183.575 169.858C183.589 169.903 183.611 169.945 183.641 169.98C183.67 170.016 183.706 170.045 183.746 170.066ZM177.721 167.576C178.354 166.873 178.919 166.107 179.408 165.287C179.446 165.21 179.456 165.122 179.434 165.038C179.413 164.955 179.362 164.883 179.293 164.837C179.22 164.798 179.136 164.788 179.057 164.811C178.978 164.833 178.91 164.886 178.866 164.959C178.407 165.732 177.875 166.453 177.277 167.112C177.245 167.143 177.219 167.181 177.201 167.223C177.184 167.265 177.174 167.311 177.173 167.357C177.172 167.403 177.181 167.449 177.197 167.492C177.214 167.534 177.238 167.573 177.269 167.606C177.3 167.638 177.337 167.664 177.378 167.681C177.419 167.698 177.462 167.706 177.506 167.705C177.55 167.703 177.593 167.693 177.633 167.674C177.673 167.654 177.709 167.627 177.738 167.593L177.721 167.576ZM185.109 165.071L187.283 165.521C187.366 165.54 187.453 165.527 187.527 165.483C187.601 165.439 187.657 165.367 187.684 165.283C187.705 165.195 187.694 165.102 187.652 165.023C187.609 164.944 187.54 164.886 187.458 164.86L185.28 164.436C185.197 164.415 185.11 164.428 185.036 164.473C184.962 164.517 184.907 164.59 184.883 164.676C184.861 164.763 184.872 164.855 184.914 164.934C184.957 165.012 185.027 165.069 185.109 165.093V165.071ZM181.91 175.708L181.727 177.606C181.727 177.696 181.761 177.783 181.822 177.847C181.883 177.911 181.965 177.947 182.051 177.948C182.137 177.945 182.218 177.908 182.278 177.845C182.339 177.781 182.374 177.696 182.376 177.606L182.56 175.708C182.56 175.663 182.552 175.619 182.536 175.577C182.519 175.536 182.495 175.499 182.465 175.467C182.419 175.42 182.361 175.387 182.298 175.374C182.235 175.361 182.17 175.368 182.11 175.393C182.051 175.419 182.001 175.463 181.965 175.519C181.929 175.575 181.91 175.641 181.91 175.708ZM185.349 187.582L185.464 189.597L186.1 189.507L186.015 189.111C186.007 189.065 185.99 189.02 185.965 188.981C185.94 188.941 185.907 188.908 185.868 188.883C185.821 188.85 185.766 188.832 185.709 188.829C185.653 188.826 185.597 188.839 185.546 188.867C185.496 188.894 185.453 188.935 185.423 188.985C185.392 189.035 185.374 189.092 185.372 189.152C185.369 189.199 185.376 189.247 185.391 189.291L185.476 189.687C185.499 189.765 185.547 189.833 185.612 189.877C185.677 189.922 185.755 189.941 185.832 189.931C185.909 189.92 185.98 189.881 186.032 189.819C186.083 189.758 186.112 189.679 186.113 189.597L185.998 187.582C185.998 187.492 185.963 187.405 185.902 187.341C185.842 187.277 185.759 187.241 185.673 187.241C185.587 187.241 185.505 187.277 185.444 187.341C185.383 187.405 185.349 187.492 185.349 187.582ZM189.261 187.462L191.153 188.599C191.225 188.639 191.309 188.649 191.389 188.627C191.468 188.604 191.536 188.551 191.58 188.478C191.617 188.401 191.626 188.313 191.605 188.229C191.584 188.146 191.534 188.074 191.465 188.028L189.572 186.89C189.499 186.852 189.415 186.844 189.336 186.867C189.257 186.89 189.19 186.943 189.146 187.016C189.108 187.093 189.099 187.182 189.121 187.266C189.143 187.349 189.195 187.421 189.265 187.466L189.261 187.462Z" fill="#AABCFF"/>
<path d="M148.663 186.081C149.719 188.929 150.956 191.699 152.365 194.372C153.764 196.929 155.334 199.378 157.063 201.7C158.284 203.364 159.548 204.987 160.821 206.601C160.91 206.714 161.063 206.552 160.974 206.439C157.178 201.637 153.548 196.728 150.955 191.076C150.196 189.417 149.512 187.727 148.859 186.022C148.808 185.888 148.599 185.946 148.65 186.081H148.663Z" fill="white"/>
<path d="M169.925 146.808C171.586 151.965 172.854 157.284 174.139 162.544C174.447 163.809 174.746 165.073 175.036 166.334C175.164 166.906 175.997 166.662 175.869 166.096C174.661 160.79 173.324 155.517 171.859 150.283C171.509 149.034 171.155 147.788 170.758 146.556C170.578 146.003 169.745 146.242 169.925 146.794V146.808Z" fill="#1E294A"/>
<path d="M68.6685 212.105L277.149 212.482" stroke="#1E294A" stroke-width="0.875" stroke-miterlimit="10"/>
<path d="M191.332 207.055H226.255L243.02 178.357" stroke="#1E294A" stroke-width="0.875" stroke-miterlimit="10" stroke-linecap="round"/>
<path d="M143.858 123.28C144.144 125.465 145.015 129.718 147.599 130.168C152.296 130.973 157.66 126.122 161.371 123.109" stroke="#1E294A" stroke-width="1.109" stroke-miterlimit="10"/>
<path d="M94.7192 187.668C98.1354 182.794 102.833 176.567 106.18 172.054" stroke="white" stroke-width="0.089" stroke-miterlimit="10"/>
<path d="M147.89 119.256C145.271 120.015 144.008 118.968 143.739 118.208C143.47 117.449 142.637 116.136 143.401 110.305C143.564 109.116 143.828 107.945 144.191 106.806L149.243 103.483L155.648 109.373L156.187 115.452L147.89 119.256Z" fill="#AABCFF"/>
<path d="M151.83 108.452C151.83 108.452 151.535 111.271 152.411 110.871C153.287 110.47 153.005 109.603 153.914 109.207C155.422 108.55 157.365 113.285 153.487 113.488C153.487 113.488 154.554 115.902 156.694 115.902C156.694 115.902 156.399 112.48 156.985 110.057C157.57 107.634 158.731 104.32 157.082 102.908C155.434 101.496 153.585 101.11 151.74 101.803C151.74 101.803 150.285 99.1806 146.983 100.188C145.912 100.494 143.388 102.341 142.012 104.725C140.829 106.766 142.055 107.984 142.931 108.061C145.066 108.24 147.675 106.617 147.983 106.155C148.38 105.556 150.673 104.32 151.74 107.053C151.854 107.509 151.884 107.984 151.83 108.452Z" fill="#1E294A"/>
<path d="M147.633 114.468C148.265 113.802 148.413 112.88 147.965 112.408C147.516 111.935 146.64 112.092 146.008 112.757C145.376 113.423 145.228 114.345 145.676 114.817C146.125 115.289 147 115.133 147.633 114.468Z" fill="#2C60FF"/>
</svg>
