<svg width="318" height="247" viewBox="0 0 318 247" fill="none" xmlns="http://www.w3.org/2000/svg">
<path d="M241.383 57.1838H195.202V117.927H241.383V57.1838Z" fill="#D2E9FE"/>
<path d="M247.242 117.461H191.443V121.246H247.242V117.461Z" fill="#93B9FF"/>
<path d="M121.579 139.515H71.9938L65.0503 107.637H114.64L121.579 139.515Z" stroke="#2C60FF" stroke-width="0.722" stroke-miterlimit="10"/>
<path d="M89.6339 134.83L85.166 155.604H97.1785L101.65 134.83H89.6339ZM94.6798 146.705C94.3809 148.207 93.2925 149.335 92.2447 149.219C91.1961 149.103 90.5903 147.791 90.8892 146.288C91.1881 144.786 92.2765 143.659 93.3243 143.775C94.3729 143.89 94.9787 145.194 94.6798 146.697V146.705Z" fill="#93B9FF"/>
<path d="M129.805 144.637C130.204 146.165 128.797 148.294 127.812 148.976C126.828 149.656 125.648 149.987 124.508 150.354C121.83 151.221 119.233 152.336 116.748 153.685C116.378 153.888 115.951 154.163 115.931 154.597C115.895 155.109 116.421 155.46 116.892 155.617C118.371 156.1 119.965 155.869 121.495 155.617L127.693 154.663C127.233 154.806 126.806 155.045 126.438 155.365C126.299 155.486 126.213 155.659 126.197 155.846C126.182 156.034 126.238 156.22 126.353 156.364C126.549 156.549 127.23 156.293 127.497 156.265C129.605 156.01 131.593 155.12 133.217 153.706C133.547 153.461 133.813 153.134 133.99 152.756C134.321 151.91 133.814 150.989 133.484 150.139C132.922 148.682 134.871 147.559 135.369 146.077L129.805 144.637Z" fill="#AABCFF"/>
<path d="M197.506 150.139L194.237 151.485C191.879 152.452 189.435 153.176 186.939 153.648L182.483 154.473L179.769 148.365L197.506 150.139ZM141.722 128.593L138.199 155.741L179.972 156L157.25 125.539L144.886 111.319L141.722 128.593Z" fill="#2C60FF"/>
<path d="M152.328 79.3083C152.328 79.3083 150.798 89.2888 159.542 87.023L157.151 93.3421L146.605 94.065L146.505 89.4502C146.505 89.4502 148.056 87.2708 145.25 84.7819L152.328 79.3083Z" fill="#AABCFF"/>
<path d="M145.01 115.145C147.142 104.558 147.915 95.1707 146.525 89.4502C146.525 89.4502 135.449 95.9142 134.596 100.5C133.846 104.52 128.617 135.379 127.366 142.903C127.283 143.391 127.343 143.893 127.538 144.345C127.733 144.797 128.055 145.177 128.462 145.438L138.653 151.955C138.653 151.955 139.765 145.562 141.722 134.207" fill="#398CFF"/>
<path d="M139.531 76.9718C139.531 76.9718 143.755 88.3231 149.128 85.7478C155.345 82.7673 152.958 75.0979 149.571 68.7253L138.749 74.4212L139.531 76.9718Z" fill="#AABCFF"/>
<path d="M140.89 79.9316C141.389 80.8911 141.954 81.8126 142.58 82.689C142.832 82.5935 143.041 82.4033 143.165 82.1563C143.488 81.4877 143.054 80.5878 142.197 80.1424C141.796 79.9247 141.336 79.8506 140.89 79.9316Z" fill="#2C60FF"/>
<path d="M152.775 77.2698C152.684 77.2698 152.413 77.1537 152.413 77.1537L151.643 73.4059L152.552 72.7744C152.844 72.5978 153.191 72.5443 153.52 72.6249C153.849 72.7055 154.136 72.914 154.321 73.2075C155.418 74.8171 154.585 77.5225 152.775 77.2698Z" fill="#AABCFF"/>
<path d="M154.118 74.3141C154.118 74.3141 153.102 74.5364 153.233 75.5277M153.915 75.5359C153.947 75.4889 153.97 75.4355 153.981 75.3792C153.992 75.3228 153.992 75.2646 153.981 75.2082C153.97 75.1515 153.947 75.098 153.914 75.0511C153.882 75.0042 153.84 74.9652 153.791 74.9365" stroke="#070627" stroke-width="0.125" stroke-miterlimit="10" stroke-linecap="round"/>
<path d="M150.47 79.2764C150.9 78.3872 150.727 77.3967 150.084 77.0616C149.441 76.7281 148.57 77.1769 148.139 78.0661C147.709 78.9544 147.882 79.9449 148.526 80.2792C149.169 80.6135 150.039 80.1639 150.47 79.2764Z" fill="#2C60FF"/>
<path d="M149.08 67.8048C149.08 67.8048 149.411 66.3681 147.379 65.4518C145.346 64.5354 138.98 65.5135 137.438 71.8622C137.103 73.2537 137.642 75.0815 138.271 76.5923C139.012 78.3674 140.639 79.7086 140.886 79.9153C140.803 79.2084 140.453 78.5643 139.913 78.1237C139.913 78.1237 142.679 78.1237 144.018 76.0267C145.358 73.9296 147.661 71.7462 149.2 73.3772C150.738 75.0074 151.707 75.6759 152.607 75.7706C152.47 74.925 152.514 74.0584 152.735 73.2323C153.241 70.9294 153.078 68.0189 151.109 67.1775C149.491 66.4916 149.08 67.8048 149.08 67.8048Z" fill="#1E294A"/>
<path d="M144.719 77.9672C144.88 79.077 145.117 80.1737 145.428 81.2481C145.529 81.5907 145.684 82.004 146.051 82.1069C146.179 82.1542 146.319 82.1493 146.443 82.0933C146.567 82.0374 146.667 81.9345 146.72 81.8055C146.752 81.7109 146.604 81.6697 146.572 81.7644C146.538 81.8405 146.481 81.9026 146.408 81.9407C146.336 81.9787 146.254 81.9906 146.174 81.9743C146.084 81.9571 146 81.9188 145.927 81.8625C145.853 81.8061 145.794 81.7331 145.752 81.6491C145.58 81.2799 145.456 80.8883 145.385 80.4849C145.171 79.6413 145 78.7869 144.871 77.9252C144.871 77.8264 144.711 77.8675 144.727 77.9663L144.719 77.9672Z" fill="#1E294A"/>
<path d="M159.395 87.0766L168.068 129.356C164.572 132.898 154.815 132.555 154.815 132.555C154.815 132.555 149.403 125.241 147.199 119.483C146.254 117.006 144.297 112.949 144.297 112.949L146.545 92.3146C155.086 96.0954 156.908 87.3615 156.908 87.3615C157.743 87.3247 158.575 87.2212 159.395 87.0519" fill="#D2E9FE"/>
<path d="M151.121 124.155C151.121 124.155 148.044 124.692 149.076 125.852C150.356 127.292 151.548 126.158 151.548 126.158L151.121 124.155Z" fill="#D2E9FE"/>
<path d="M190.487 89.4255C189.773 87.0231 192.878 86.0655 194.429 85.434C196.589 84.5588 198.151 84.4559 198.78 87.2338C198.78 86.4533 199.629 81.6739 201.351 83.2588C202.129 83.9726 201.16 86.9737 200.853 87.7534C200.288 89.1448 199.702 89.4832 198.462 90.2588C196.373 91.5802 193.161 93.0614 191.742 95.1749C190.148 97.5238 190.59 102.411 191.077 105.081C189.65 104.586 186.254 104.173 185.265 103.067C184.596 102.312 185.461 98.7951 185.548 97.9075C185.82 95.1337 186.126 92.3558 186.545 89.5984C186.832 87.6957 187.035 85.5863 188.605 84.3192C190.048 83.155 192.627 82.6684 194.313 81.9167C194.771 81.7109 197.681 80.0478 196.923 82.0649C196.377 83.5313 193.041 85.1286 191.85 86.012" fill="#EF92C7"/>
<path d="M190.487 89.4255C189.773 87.0231 192.878 86.0655 194.429 85.434C196.589 84.5588 198.151 84.4559 198.78 87.2338C198.78 86.4533 199.629 81.6739 201.351 83.2588C202.129 83.9726 201.16 86.9737 200.853 87.7534C200.288 89.1448 199.702 89.4832 198.462 90.2588C196.373 91.5802 193.161 93.0614 191.742 95.1749C190.148 97.5238 190.59 102.411 191.077 105.081C189.65 104.586 186.254 104.173 185.265 103.067C184.596 102.312 185.461 98.7951 185.548 97.9075C185.82 95.1337 186.126 92.3558 186.545 89.5984C186.832 87.6957 187.035 85.5863 188.605 84.3192C190.048 83.155 192.627 82.6684 194.313 81.9167C194.771 81.7109 197.681 80.0478 196.923 82.0649C196.377 83.5313 193.041 85.1286 191.85 86.012" fill="#AABCFF"/>
<path d="M150.749 126.793C150.749 126.793 143.575 148.67 134.094 182.405C129.985 192.779 126.382 207.663 126.382 207.663H151.726C151.726 207.663 154.118 199.366 156.545 183.821C158.625 170.488 165.034 141.789 165.034 141.789L165.369 170.27C165.38 180.099 166.238 189.906 167.932 199.577L169.04 207.634H194.986C194.986 207.634 192.081 192.724 190.379 183.751C188.521 173.952 180.765 137.108 180.765 137.108L168.011 121.947L150.749 126.793Z" fill="#1E294A"/>
<path d="M150.104 127.978C149.977 127.98 149.852 127.945 149.742 127.878C149.633 127.811 149.543 127.714 149.484 127.598C149.424 127.482 149.396 127.35 149.404 127.219C149.412 127.087 149.454 126.961 149.527 126.853C149.623 126.707 149.768 126.604 149.933 126.562L164.189 122.806C164.364 122.768 164.547 122.802 164.699 122.9C164.851 122.999 164.96 123.154 165.004 123.333C165.049 123.513 165.024 123.703 164.936 123.865C164.848 124.027 164.704 124.147 164.532 124.201L150.276 127.958C150.219 127.97 150.162 127.977 150.104 127.978Z" fill="#FF3F08"/>
<path d="M153.87 125.231L153.291 125.388L153.788 127.344L154.367 127.187L153.87 125.231ZM152.578 125.544L151.999 125.702L152.496 127.658L153.075 127.501L152.578 125.544Z" fill="white"/>
<path d="M159.386 87.0601C159.386 87.0601 165.365 87.6092 167.935 88.7108C171.757 90.3625 183.631 107.174 184.328 109.185L183.85 100.673C183.849 100.639 183.856 100.605 183.871 100.574C183.886 100.544 183.909 100.518 183.937 100.499C183.964 100.481 183.996 100.47 184.029 100.468C184.062 100.466 184.095 100.473 184.125 100.488L193.208 105.193C193.381 105.283 193.53 105.414 193.642 105.577C193.755 105.739 193.827 105.928 193.854 106.126C194.28 109.428 196.106 124.225 194.52 126.653C192.734 129.385 187.067 126.814 183.726 124.721C183.726 124.721 182.878 128.341 191.442 138.974C194.595 142.887 197.505 150.118 197.505 150.118C197.505 150.118 182.328 151.972 173.049 151.852C173.049 151.852 163.734 122.905 159.347 102.522C158.501 92.8102 158.995 88.5997 159.386 87.0601Z" fill="#398CFF"/>
<path d="M161.758 98.9186L163.99 93.9284C164.047 93.802 164.07 93.6623 164.056 93.5237C164.043 93.3852 163.994 93.2528 163.915 93.1404C163.153 92.0709 160.901 88.934 159.487 87.1383C159.472 87.119 159.452 87.1043 159.43 87.0959C159.407 87.0875 159.383 87.0858 159.36 87.0909C159.337 87.0961 159.315 87.1079 159.298 87.125C159.281 87.1421 159.269 87.1638 159.263 87.1877C158.865 88.8064 158.418 93.0532 159.263 102.559C159.873 107.641 161.93 115.12 164.01 121.262C164.125 116.986 164.624 104.933 164.939 101.28C164.97 100.927 164.881 100.574 164.686 100.283C164.492 99.9913 164.204 99.7803 163.874 99.6868L161.854 99.1006C161.825 99.0962 161.798 99.0815 161.779 99.0589C161.759 99.0364 161.747 99.0074 161.746 98.9771C161.746 98.9573 161.75 98.9375 161.758 98.9186Z" fill="white"/>
<path d="M153.508 94.2956C150.188 95.8517 146.657 94.1021 146.621 94.0815L146.533 94.2668C147.789 94.8388 149.146 95.138 150.519 95.1461C151.582 95.1569 152.635 94.9318 153.607 94.4858C155.971 93.3792 157.673 90.9405 158.673 87.238L158.458 87.2709C157.458 90.8615 155.795 93.2269 153.508 94.2956ZM158.668 87.2001V87.1589L158.453 87.1919V87.2339L158.668 87.2001Z" fill="#398CFF"/>
<path d="M158.442 87.2709L158.656 87.2379V87.2001L158.442 87.2338V87.2709Z" fill="#398CFF"/>
<path d="M187.246 92.5254C187.509 91.6682 187.983 90.8969 188.622 90.2875C188.987 89.9994 189.411 89.7993 189.861 89.7022C190.399 89.5696 190.937 89.4502 191.475 89.3259C191.623 89.2888 191.559 89.0575 191.411 89.0912C190.837 89.2271 190.259 89.3465 189.689 89.5037C189.239 89.6118 188.818 89.8234 188.458 90.1229C187.789 90.7606 187.294 91.5693 187.023 92.4677C186.967 92.6118 187.195 92.6736 187.246 92.5295V92.5254Z" fill="black"/>
<path d="M184.07 90.0941L182.922 91.3324C182.896 91.3629 182.879 91.4003 182.872 91.4403C182.868 91.4703 182.87 91.5008 182.878 91.5299C182.886 91.5591 182.9 91.586 182.92 91.609C182.939 91.632 182.962 91.6506 182.989 91.6633C183.015 91.6761 183.044 91.6829 183.073 91.6832H184.783L201.571 83.6301C201.769 83.5312 201.922 83.3554 201.997 83.1407C202.071 82.926 202.061 82.6896 201.969 82.4824L201.941 82.4165C201.895 82.3139 201.829 82.2218 201.749 82.1455C201.668 82.0692 201.573 82.0102 201.47 81.9719C201.367 81.9335 201.258 81.9166 201.149 81.9222C201.04 81.9277 200.932 81.9555 200.834 82.004L184.07 90.0941Z" fill="#1E294A"/>
<path d="M146.545 89.4502L141.364 94.969C141.152 95.1931 141.025 95.4896 141.009 95.803C140.992 96.1167 141.085 96.4263 141.272 96.6733L144.405 100.843L140.694 103.629C140.456 103.807 140.271 104.05 140.16 104.332C140.049 104.614 140.018 104.922 140.069 105.222L143.237 124.622C146.095 111.987 148.271 96.6445 146.545 89.4502Z" fill="white"/>
<path d="M190.487 89.4255C189.789 86.8699 192.878 86.0655 194.428 85.434C196.588 84.5588 198.15 84.4559 198.781 87.2338C198.781 86.4533 199.629 81.673 201.351 83.2587C202.129 83.9726 201.16 86.9736 200.853 87.7533C200.287 89.1447 199.701 89.4831 198.461 90.2587C196.373 91.5802 193.161 93.0613 191.742 95.1748C190.148 97.5238 185.461 98.795 185.548 97.9075" fill="#AABCFF"/>
<path d="M132.567 74.4705H106.143C105.843 74.4705 105.555 74.594 105.342 74.8139C105.13 75.0337 105.011 75.3319 105.011 75.6429V90.0899C105.012 90.4007 105.131 90.6986 105.342 90.919C105.447 91.0281 105.572 91.1146 105.709 91.1735C105.847 91.2324 105.994 91.2626 106.143 91.2623H108.761V95.0431L112.412 91.2623H132.567C132.716 91.2623 132.863 91.232 133 91.1731C133.138 91.1142 133.262 91.0278 133.368 90.9189C133.473 90.8101 133.556 90.6808 133.613 90.5386C133.67 90.3963 133.699 90.2439 133.699 90.0899V75.6429C133.699 75.4889 133.67 75.3365 133.613 75.1942C133.556 75.052 133.473 74.9227 133.368 74.8139C133.262 74.705 133.138 74.6186 133 74.5597C132.863 74.5008 132.716 74.4705 132.567 74.4705Z" fill="#D2E9FE"/>
<path d="M115.059 85.7106C114.326 85.6762 113.634 85.3483 113.13 84.7959C112.753 84.3849 112.498 83.8692 112.398 83.3115C112.298 82.7537 112.356 82.1778 112.566 81.6536C112.776 81.1294 113.128 80.6796 113.579 80.3586C114.031 80.0376 114.563 79.8592 115.111 79.8452H115.158V77.9919H115.111C114.503 77.9884 113.901 78.1088 113.339 78.3463C112.776 78.5838 112.264 78.9337 111.833 79.376C111.401 79.8183 111.057 80.3444 110.822 80.9242C110.586 81.504 110.463 82.1262 110.46 82.7553C110.456 83.3843 110.572 84.0079 110.802 84.5904C111.031 85.173 111.369 85.703 111.796 86.1503C112.223 86.5976 112.731 86.9534 113.291 87.1973C113.851 87.4413 114.452 87.5687 115.059 87.5722H115.111V85.7189L115.059 85.7106Z" fill="#93B9FF"/>
<path d="M115.17 78.0043V79.8568C115.901 79.8761 116.597 80.1878 117.111 80.7265C117.625 81.2653 117.918 81.9893 117.928 82.7467H119.713C119.705 81.4981 119.224 80.3027 118.375 79.4164C117.526 78.53 116.375 78.0232 115.17 78.0043Z" fill="#FF3F08"/>
<path d="M122.185 83.5312H128.646M122.185 85.3846H128.646M122.185 87.2379H128.646" stroke="white" stroke-width="0.752" stroke-miterlimit="10" stroke-linecap="round"/>
<path d="M117.745 54.5952H83.6127C83.2247 54.5952 82.8527 54.7548 82.5783 55.0389C82.304 55.323 82.1499 55.7084 82.1499 56.1102V74.7801C82.1499 75.1818 82.304 75.5672 82.5783 75.8513C82.8527 76.1354 83.2247 76.295 83.6127 76.295H86.9962V81.1691L91.7114 76.2868H117.745C117.937 76.2868 118.128 76.2476 118.305 76.1714C118.482 76.0953 118.644 75.9837 118.78 75.843C118.915 75.7024 119.023 75.5354 119.097 75.3516C119.17 75.1678 119.208 74.9708 119.208 74.7718V56.111C119.208 55.7093 119.053 55.3242 118.779 55.0402C118.505 54.7562 118.133 54.5957 117.745 54.5952Z" stroke="#04042B" stroke-width="0.627" stroke-miterlimit="10"/>
<path d="M92.6399 69.1254C91.6771 69.1049 90.7609 68.6921 90.09 67.9767C89.4191 67.2612 89.0476 66.3007 89.056 65.3035C89.0643 64.3062 89.4519 63.3526 90.1347 62.6493C90.8175 61.946 91.7405 61.5498 92.7035 61.5466H92.7671L92.7909 59.1532H92.7392C91.2144 59.2296 89.7756 59.9072 88.7178 61.0472C87.6599 62.1871 87.0632 63.7029 87.05 65.2838C87.0368 66.8648 87.6081 68.3911 88.6467 69.5498C89.6853 70.7085 91.1126 71.4118 92.6359 71.5155H92.6995V69.1254H92.6399Z" fill="#1E294A"/>
<path d="M96.326 65.2698V65.3686C96.3171 66.362 95.9322 67.3121 95.2539 68.0146C94.5757 68.7171 93.6584 69.116 92.6992 69.1254V71.5156C94.2738 71.5157 95.7849 70.8724 96.9043 69.7255C98.0236 68.5786 98.6609 67.0206 98.6776 65.39V65.2698H96.326Z" fill="#D2E9FE"/>
<path d="M92.7909 59.1565L92.7671 61.5508C93.7084 61.576 94.6041 61.9763 95.2677 62.6683C95.9313 63.3602 96.3116 64.2906 96.3295 65.2656H98.6374C98.6177 63.6611 97.9971 62.1271 96.9063 60.9874C95.8156 59.8476 94.3401 59.1912 92.7909 59.1565Z" fill="#93B9FF"/>
<path d="M104.333 64.4777H112.679M104.333 66.8678H112.679M100.858 69.2612H112.847" stroke="#1E294A" stroke-width="0.567" stroke-miterlimit="10" stroke-linecap="round"/>
<path d="M69.1163 86.4244H47.8167C47.5762 86.4249 47.3456 86.5235 47.1748 86.6989C47.0041 86.8743 46.9071 87.1124 46.9048 87.3614V99.0099C46.9044 99.1342 46.9277 99.2573 46.9734 99.3721C47.0191 99.487 47.0863 99.5914 47.1712 99.6792C47.256 99.7671 47.3568 99.8367 47.4677 99.884C47.5786 99.9314 47.6975 99.9555 47.8174 99.9551H61.7991L64.394 102.633V99.9469H69.1163C69.3543 99.9448 69.5821 99.8465 69.7513 99.6731C69.9204 99.4996 70.0175 99.2646 70.0218 99.0181V87.3614C70.0193 87.1137 69.9232 86.8769 69.7541 86.7017C69.5849 86.5265 69.3555 86.427 69.1163 86.4244Z" fill="#2C60FF"/>
<path d="M60.7461 91.175H63.3688M60.7461 92.6694H65.9557M60.7461 94.1638H65.9557" stroke="white" stroke-width="0.607" stroke-miterlimit="10" stroke-linecap="round"/>
<path d="M127.789 148.976C126.793 149.656 125.625 149.987 124.485 150.354C121.807 151.221 119.21 152.336 116.725 153.685C116.355 153.888 115.928 154.163 115.908 154.597C115.872 155.109 116.398 155.46 116.868 155.617C118.347 156.1 119.942 155.868 121.472 155.617L127.67 154.663C127.21 154.806 126.782 155.045 126.414 155.365C126.276 155.487 126.191 155.66 126.175 155.847C126.159 156.034 126.215 156.219 126.33 156.364C126.526 156.549 127.207 156.293 127.474 156.265C129.582 156.01 131.57 155.12 133.194 153.706C133.524 153.461 133.79 153.134 133.967 152.756C134.298 151.91 133.792 150.989 133.461 150.139C132.899 148.699 128.781 148.294 127.789 148.976Z" fill="#AABCFF"/>
<path d="M52.4921 95.4804C53.2288 95.4804 53.9353 95.1773 54.4562 94.6378C54.9772 94.0983 55.2698 93.3666 55.2698 92.6037C55.2698 91.8407 54.9772 91.109 54.4562 90.5695C53.9353 90.03 53.2288 89.7269 52.4921 89.7269C51.7554 89.7269 51.0489 90.03 50.5279 90.5695C50.007 91.109 49.7144 91.8407 49.7144 92.6037C49.7144 93.3666 50.007 94.0983 50.5279 94.6378C51.0489 95.1773 51.7554 95.4804 52.4921 95.4804Z" fill="#FF3F08"/>
<path d="M56.0357 95.5841C56.4006 95.584 56.7618 95.5095 57.0989 95.3649C57.436 95.2202 57.7423 95.0082 58.0003 94.741C58.2582 94.4737 58.4629 94.1565 58.6024 93.8073C58.742 93.4582 58.8138 93.084 58.8138 92.7061C58.8137 92.3282 58.7418 91.9541 58.6021 91.605C58.4625 91.2559 58.2577 90.9387 57.9997 90.6715C57.7417 90.4043 57.4353 90.1924 57.0982 90.0479C56.7611 89.9033 56.3998 89.8289 56.0349 89.829C55.298 89.829 54.5912 90.1322 54.0702 90.6718C53.5491 91.2114 53.2563 91.9434 53.2563 92.7065C53.2563 93.4697 53.5491 94.2016 54.0702 94.7413C54.5912 95.2809 55.2988 95.5841 56.0357 95.5841Z" fill="#AABCFF"/>
<path d="M257.241 132.361C257.953 132.08 258.358 131.389 258.148 130.819C257.938 130.248 257.19 130.013 256.479 130.295C255.767 130.576 255.361 131.267 255.572 131.838C255.782 132.408 256.53 132.643 257.241 132.361Z" stroke="#93B9FF" stroke-width="0.632" stroke-miterlimit="10"/>
<path d="M230.235 186.727H250.403L247.976 207.613H232.663L230.235 186.727Z" fill="#398CFF"/>
<path d="M250.403 186.727H230.235L230.937 192.749L250.08 189.526L250.403 186.727Z" fill="#1E294A"/>
<path d="M240.451 183.73C240.451 183.73 244.545 161.375 248.199 157.937C248.331 157.812 247.458 156.937 247.518 156.764C253.098 140.695 262.177 123.272 275.417 122.55C288.861 121.816 273.425 139.37 260.809 149.339C260.686 149.438 263.062 148.699 262.966 148.827C253.512 161.722 243.656 173.184 240.451 183.73ZM240.384 184.419C240.384 184.419 220.132 155.171 226.434 154.317C232.735 153.462 240.384 184.419 240.384 184.419Z" fill="#93B9FF"/>
<path d="M268.797 98.4237C268.797 98.4237 237.074 148.302 240.394 183.734" stroke="#93B9FF" stroke-width="1.053" stroke-miterlimit="10" stroke-linecap="round"/>
<path d="M247.406 143.118C247.414 143.167 247.405 143.217 247.38 143.259C247.354 143.301 247.315 143.332 247.269 143.345C247.223 143.359 247.174 143.354 247.131 143.332C247.089 143.309 247.056 143.271 247.038 143.225C245.305 139.341 241.774 129.555 247.549 124.63C254.34 118.843 246.27 134.785 247.406 143.118ZM244.583 150.025C245.301 149.162 245.009 147.682 243.932 146.721C242.855 145.76 241.399 145.681 240.681 146.545C239.963 147.409 240.254 148.888 241.331 149.849C242.408 150.81 243.865 150.889 244.583 150.025ZM240.374 184.135C240.374 184.135 232.004 168.334 216.887 173.316C201.769 178.299 235.133 180.148 240.374 184.135Z" fill="#93B9FF"/>
<path d="M240.463 183.734C240.463 183.734 258.582 164.041 259.594 169.374C261.435 179.31 240.463 183.734 240.463 183.734Z" stroke="#93B9FF" stroke-width="1.053" stroke-miterlimit="10"/>
<path d="M251.977 183.334H228.753C228.578 183.334 228.411 183.406 228.288 183.534C228.165 183.661 228.095 183.834 228.095 184.015V186.05C228.095 186.427 228.389 186.731 228.753 186.731H251.977C252.34 186.731 252.634 186.427 252.634 186.05V184.015C252.634 183.834 252.565 183.661 252.442 183.534C252.319 183.406 252.151 183.334 251.977 183.334Z" fill="#398CFF"/>
<path d="M127.681 154.704C128.351 154.359 129.003 153.979 129.634 153.565M184.305 109.189C184.305 109.189 184.509 114.427 184.656 117.122" stroke="#1E294A" stroke-width="0.221" stroke-miterlimit="10" stroke-linecap="round"/>
<path d="M209.917 208.372L203.412 168.858C203.165 167.38 201.694 166.262 199.988 166.262H80.0763C78.3703 166.262 76.8884 167.38 76.6562 168.858L70.1484 208.372L61.3159 207.89L68.0917 167.36C68.5817 164.468 70.0846 161.866 72.3124 160.05C74.5276 158.245 77.2657 157.267 80.0843 157.272H200.012C202.83 157.266 205.569 158.244 207.784 160.05C210.013 161.865 211.517 164.468 212.009 167.36L218.497 207.63L209.917 208.372Z" fill="#D2E9FE"/>
<path d="M103.639 165.701L99.2509 207.89H69.3311L75.505 171.029C75.698 169.543 76.4158 168.184 77.5199 167.213C78.6239 166.243 80.036 165.73 81.4834 165.775L103.639 165.701Z" fill="#93B9FF"/>
<path d="M269.433 207.873H51.1001" stroke="#1E294A" stroke-width="0.948" stroke-miterlimit="10" stroke-linecap="round"/>
<path d="M208.347 155.604H71.9062C71.2082 155.605 70.539 155.893 70.0451 156.404C69.8009 156.657 69.6074 156.958 69.4755 157.289C69.3435 157.62 69.2759 157.975 69.2764 158.333H210.977C210.979 157.793 210.825 157.265 210.536 156.817C210.247 156.368 209.836 156.018 209.355 155.812C209.035 155.675 208.692 155.604 208.347 155.604Z" fill="#1E294A"/>
</svg>
