<svg width="605" height="454" viewBox="0 0 605 454" fill="none" xmlns="http://www.w3.org/2000/svg">
<path d="M300.231 277.545L189.667 302.818C187.398 303.272 185.281 301.91 184.827 299.791L140.208 104.42C139.755 102.15 141.116 100.031 143.233 99.5773L253.797 74.3046C256.066 73.8506 258.183 75.2126 258.637 77.3313L303.256 272.703C303.861 274.821 302.5 277.091 300.231 277.545Z" fill="white" stroke="#0C296E" stroke-width="0.5" stroke-miterlimit="10"/>
<path d="M189.819 290.56L148.83 111.23C148.225 108.96 149.738 106.539 152.006 106.085L248.655 83.9899C250.924 83.3846 253.344 84.8979 253.798 87.1679L294.938 266.649C295.543 268.919 294.03 271.341 291.761 271.795L195.113 293.889C192.693 294.343 190.273 292.981 189.819 290.56Z" fill="white" stroke="#0C296E" stroke-width="0.5" stroke-miterlimit="10"/>
<path d="M225.362 91.4053L178.475 102.15C176.206 102.604 173.937 101.242 173.483 98.972L172.122 93.2213L227.177 80.6606L228.538 86.4113C228.992 88.6813 227.631 90.9513 225.362 91.4053Z" fill="white" stroke="#0C296E" stroke-width="0.5" stroke-miterlimit="10"/>
<path d="M218.405 89.5894L189.365 96.248C188.76 96.3994 188.155 95.9454 188.003 95.34L187.701 94.2807C187.55 93.6754 188.003 93.07 188.608 92.9187L217.648 86.26C218.253 86.1087 218.858 86.5627 219.01 87.168L219.312 88.2274C219.463 88.8327 219.161 89.438 218.405 89.5894ZM183.768 97.3074C184.169 97.3074 184.554 97.1479 184.838 96.8641C185.122 96.5803 185.281 96.1954 185.281 95.794C185.281 95.3927 185.122 95.0078 184.838 94.724C184.554 94.4401 184.169 94.2807 183.768 94.2807C183.367 94.2807 182.983 94.4401 182.699 94.724C182.415 95.0078 182.256 95.3927 182.256 95.794C182.256 96.1954 182.415 96.5803 182.699 96.8641C182.983 97.1479 183.367 97.3074 183.768 97.3074Z" fill="white" stroke="#0C296E" stroke-width="0.5" stroke-miterlimit="10"/>
<path d="M179.382 148.912L186.794 147.247C186.794 147.247 186.945 148.458 187.55 149.669C188.004 150.728 188.306 148.458 188.306 148.458C188.306 148.458 188.609 148.004 189.214 148.004C189.819 148.155 191.18 149.517 189.516 150.879L188.609 151.182L184.676 156.933L194.054 154.511C194.054 154.511 191.634 140.74 182.407 142.253C173.03 143.767 175.147 158.597 175.147 158.597L184.676 156.781L179.987 153.452C179.987 153.452 178.475 154.209 177.567 153.906C176.509 153.603 176.206 151.333 178.021 151.031C178.021 151.031 178.777 152.544 178.929 152.09C179.08 151.636 179.836 151.333 179.382 148.912Z" fill="#0E1741"/>
<path d="M186.369 154.216L183.124 154.958L184.841 162.482L188.085 161.74L186.369 154.216ZM190.394 151.586C190.651 151.534 190.896 151.432 191.113 151.284C191.33 151.136 191.515 150.947 191.658 150.726C191.801 150.505 191.898 150.258 191.943 150C191.989 149.741 191.983 149.476 191.924 149.22C191.866 148.963 191.757 148.721 191.603 148.508C191.45 148.295 191.256 148.114 191.031 147.978C190.807 147.841 190.558 147.75 190.298 147.711C190.039 147.672 189.774 147.686 189.519 147.751C189.023 147.878 188.596 148.195 188.329 148.632C188.062 149.07 187.976 149.595 188.09 150.095C188.204 150.594 188.509 151.03 188.939 151.309C189.369 151.587 189.891 151.687 190.394 151.586ZM177.719 154.614C177.971 154.557 178.209 154.45 178.419 154.301C178.63 154.151 178.809 153.961 178.946 153.743C179.083 153.524 179.176 153.28 179.22 153.025C179.263 152.771 179.256 152.51 179.198 152.258C179.141 152.006 179.034 151.768 178.885 151.557C178.735 151.347 178.546 151.167 178.327 151.03C178.108 150.893 177.865 150.8 177.61 150.756C177.355 150.713 177.095 150.72 176.843 150.778C176.335 150.894 175.893 151.208 175.616 151.65C175.338 152.091 175.248 152.625 175.364 153.134C175.48 153.643 175.793 154.085 176.235 154.362C176.677 154.64 177.21 154.73 177.719 154.614Z" fill="#0E1741"/>
<path d="M183.617 156.175C185.222 156.175 186.761 155.537 187.895 154.402C189.03 153.266 189.667 151.727 189.667 150.121C189.667 148.516 189.03 146.976 187.895 145.841C186.761 144.706 185.222 144.068 183.617 144.068C182.013 144.068 180.474 144.706 179.339 145.841C178.205 146.976 177.567 148.516 177.567 150.121C177.567 151.727 178.205 153.266 179.339 154.402C180.474 155.537 182.013 156.175 183.617 156.175ZM197.532 164.348C195.415 167.375 192.087 169.645 188.306 170.553C184.373 171.461 180.592 170.855 177.265 169.039C177.567 166.769 177.87 163.137 178.172 161.775C178.475 160.565 178.928 159.505 180.29 159.203L183.466 158.446V159.203C183.617 159.657 183.768 159.808 184.071 160.111C184.525 160.413 185.281 160.413 185.886 160.262C186.642 160.111 187.096 159.808 187.247 159.354C187.398 159.051 187.55 158.597 187.398 158.295C187.398 157.992 187.247 157.841 187.096 157.689L189.97 157.084C191.331 156.781 192.238 157.538 192.995 158.446C194.356 159.505 196.322 162.532 197.532 164.348Z" fill="#0E1741"/>
<path d="M183.466 158.445C183.466 158.747 183.466 158.899 183.617 159.201C183.769 159.655 183.92 159.807 184.222 160.109C184.676 160.412 185.432 160.412 186.037 160.261C186.794 160.109 187.247 159.807 187.399 159.353C187.55 159.05 187.55 158.596 187.55 158.293C187.55 158.142 187.55 157.839 187.399 157.688M177.416 150.577C177.416 150.728 177.719 150.728 177.87 150.879C178.475 153.299 179.382 150.425 180.744 150.577C183.769 151.031 183.92 149.669 185.584 149.669C187.55 149.517 189.516 150.274 189.365 148.912C189.365 148.004 189.365 147.853 189.667 147.853C189.667 147.853 187.247 142.859 181.954 144.221C177.87 145.129 177.416 149.215 177.416 150.577Z" fill="#0E1741"/>
<path d="M200.104 151.483C201.162 156.023 200.104 160.716 197.532 164.197C195.415 167.223 192.087 169.492 188.306 170.4C184.374 171.308 180.592 170.702 177.265 168.886C173.484 166.768 170.459 163.137 169.4 158.597C167.434 150.123 172.727 141.648 181.349 139.681C189.667 137.713 198.137 143.01 200.104 151.483Z" stroke="#0C296E" stroke-width="0.5" stroke-miterlimit="10" stroke-linecap="round" stroke-linejoin="round"/>
<path d="M201.617 241.225L209.028 239.561C209.028 239.561 209.179 240.771 209.784 241.982C210.238 243.041 210.54 240.771 210.54 240.771C210.54 240.771 210.843 240.317 211.448 240.317C212.053 240.469 213.414 241.831 211.75 243.193L210.843 243.495L206.91 249.246L216.288 246.825C216.288 246.825 213.868 233.053 204.642 234.567C195.264 236.08 197.382 250.911 197.382 250.911L206.91 249.095L202.222 245.765C202.222 245.765 200.709 246.522 199.802 246.219C198.743 245.917 198.44 243.647 200.255 243.344C200.255 243.344 201.012 244.857 201.163 244.403C201.314 243.949 201.919 243.647 201.617 241.225Z" fill="#0E1741"/>
<path d="M208.894 246.448L204.765 247.392L206.482 254.917L210.611 253.972L208.894 246.448ZM212.662 244.042C212.913 243.984 213.151 243.878 213.362 243.728C213.573 243.578 213.752 243.389 213.889 243.17C214.026 242.951 214.119 242.708 214.163 242.453C214.206 242.198 214.198 241.937 214.141 241.685C214.083 241.434 213.977 241.195 213.827 240.985C213.678 240.774 213.488 240.595 213.27 240.457C213.051 240.32 212.807 240.227 212.553 240.184C212.298 240.141 212.038 240.148 211.786 240.205C211.277 240.322 210.836 240.635 210.559 241.077C210.281 241.519 210.191 242.053 210.307 242.562C210.423 243.07 210.736 243.512 211.178 243.79C211.619 244.067 212.153 244.158 212.662 244.042ZM199.952 246.922C200.21 246.87 200.454 246.767 200.671 246.62C200.888 246.472 201.074 246.282 201.217 246.062C201.359 245.841 201.456 245.594 201.502 245.335C201.548 245.077 201.541 244.811 201.483 244.555C201.424 244.299 201.315 244.057 201.162 243.844C201.009 243.63 200.814 243.45 200.59 243.313C200.366 243.176 200.117 243.086 199.857 243.047C199.597 243.008 199.332 243.022 199.078 243.087C198.581 243.214 198.154 243.53 197.887 243.968C197.62 244.406 197.535 244.93 197.649 245.43C197.763 245.93 198.067 246.366 198.498 246.644C198.928 246.923 199.45 247.022 199.952 246.922Z" fill="#0E1741"/>
<path d="M205.852 248.488C207.456 248.488 208.995 247.85 210.13 246.715C211.264 245.58 211.902 244.04 211.902 242.434C211.902 240.829 211.264 239.289 210.13 238.154C208.995 237.019 207.456 236.381 205.852 236.381C204.247 236.381 202.708 237.019 201.574 238.154C200.439 239.289 199.802 240.829 199.802 242.434C199.802 244.04 200.439 245.58 201.574 246.715C202.708 247.85 204.247 248.488 205.852 248.488ZM219.767 256.661C217.649 259.688 214.322 261.958 210.54 262.866C206.608 263.774 202.827 263.169 199.499 261.353C199.802 259.083 200.104 255.451 200.407 254.089C200.709 252.878 201.163 251.819 202.524 251.516L205.7 250.759V251.516C205.852 251.97 206.003 252.121 206.305 252.424C206.759 252.727 207.515 252.727 208.12 252.575C208.877 252.424 209.33 252.121 209.482 251.667C209.633 251.365 209.784 250.911 209.633 250.608C209.633 250.305 209.482 250.154 209.33 250.003L212.204 249.397C213.565 249.095 214.473 249.851 215.229 250.759C216.59 251.819 218.557 254.845 219.767 256.661Z" fill="#0E1741"/>
<path d="M199.65 243.343C199.65 243.494 199.953 243.494 200.104 243.645C200.709 246.218 201.617 243.191 202.978 243.494C206.003 244.099 206.154 242.586 207.818 242.586C209.784 242.435 211.75 243.343 211.599 241.829C211.599 240.921 211.599 240.77 211.75 240.77C211.75 240.77 209.179 235.322 204.037 236.684C200.104 237.441 199.802 241.981 199.65 243.343Z" fill="#0E1741"/>
<path d="M222.337 243.798C223.396 248.338 222.337 253.029 219.766 256.51C217.648 259.537 214.321 261.807 210.54 262.715C206.607 263.623 202.826 263.017 199.498 261.201C195.717 259.083 192.692 255.451 191.633 250.911C189.667 242.436 194.961 233.961 203.582 231.994C211.901 230.027 220.371 235.323 222.337 243.798Z" stroke="#0C296E" stroke-width="0.5" stroke-miterlimit="10" stroke-linecap="round" stroke-linejoin="round"/>
<path d="M245.479 146.339L216.287 152.998C213.565 153.603 210.842 151.939 210.237 149.215C209.632 146.491 211.296 143.767 214.019 143.161L243.21 136.503C245.932 135.897 248.655 137.562 249.26 140.286C249.865 143.01 248.201 145.734 245.479 146.339Z" fill="white" stroke="#0C296E" stroke-width="0.5" stroke-miterlimit="10" stroke-linecap="round" stroke-linejoin="round"/>
<path d="M216.742 150.879C217.584 150.879 218.392 150.545 218.988 149.949C219.583 149.353 219.918 148.544 219.918 147.701C219.918 146.859 219.583 146.05 218.988 145.454C218.392 144.858 217.584 144.523 216.742 144.523C215.899 144.523 215.091 144.858 214.496 145.454C213.9 146.05 213.565 146.859 213.565 147.701C213.565 148.544 213.9 149.353 214.496 149.949C215.091 150.545 215.899 150.879 216.742 150.879Z" fill="#F3BC33"/>
<path d="M256.369 193.858L227.178 200.517C224.455 201.122 221.733 199.457 221.128 196.733C220.523 194.009 222.187 191.285 224.909 190.68L254.1 184.021C256.823 183.416 259.545 185.081 260.15 187.805C260.755 190.529 258.94 193.253 256.369 193.858Z" fill="white" stroke="#0C296E" stroke-width="0.5" stroke-miterlimit="10" stroke-linecap="round" stroke-linejoin="round"/>
<path d="M226.724 198.701C227.566 198.701 228.374 198.366 228.97 197.77C229.566 197.174 229.9 196.366 229.9 195.523C229.9 194.68 229.566 193.872 228.97 193.276C228.374 192.68 227.566 192.345 226.724 192.345C225.882 192.345 225.074 192.68 224.478 193.276C223.882 193.872 223.548 194.68 223.548 195.523C223.548 196.366 223.882 197.174 224.478 197.77C225.074 198.366 225.882 198.701 226.724 198.701Z" fill="#F3BC33"/>
<path d="M267.107 241.377L237.916 248.035C235.194 248.641 232.471 246.976 231.866 244.252C231.261 241.528 232.925 238.804 235.647 238.199L264.839 231.54C267.561 230.935 270.284 232.599 270.889 235.323C271.494 238.047 269.83 240.771 267.107 241.377Z" fill="white" stroke="#0C296E" stroke-width="0.5" stroke-miterlimit="10" stroke-linecap="round" stroke-linejoin="round"/>
<path d="M237.462 246.068C237.88 246.068 238.293 245.986 238.678 245.826C239.063 245.666 239.413 245.432 239.708 245.137C240.003 244.842 240.237 244.492 240.397 244.106C240.556 243.721 240.639 243.307 240.639 242.89C240.639 242.473 240.556 242.059 240.397 241.674C240.237 241.288 240.003 240.938 239.708 240.643C239.413 240.348 239.063 240.114 238.678 239.954C238.293 239.794 237.88 239.712 237.462 239.712C236.62 239.712 235.812 240.047 235.216 240.643C234.621 241.239 234.286 242.047 234.286 242.89C234.286 243.733 234.621 244.541 235.216 245.137C235.812 245.733 236.62 246.068 237.462 246.068Z" fill="#F3BC33"/>
<path d="M197.554 201.655L193.425 202.598L195.143 210.122L199.27 209.179L197.554 201.655ZM201.285 199.094C201.537 199.037 201.775 198.93 201.985 198.781C202.196 198.631 202.375 198.441 202.512 198.223C202.65 198.004 202.743 197.76 202.786 197.505C202.829 197.251 202.822 196.99 202.764 196.738C202.707 196.486 202.6 196.248 202.451 196.037C202.301 195.827 202.112 195.647 201.893 195.51C201.675 195.372 201.431 195.279 201.176 195.236C200.922 195.193 200.661 195.2 200.409 195.258C199.901 195.374 199.459 195.688 199.182 196.13C198.905 196.571 198.814 197.105 198.93 197.614C199.046 198.123 199.36 198.565 199.801 198.842C200.243 199.12 200.777 199.21 201.285 199.094ZM188.61 202.122C188.862 202.065 189.1 201.958 189.311 201.809C189.521 201.659 189.7 201.47 189.838 201.251C189.975 201.032 190.068 200.788 190.111 200.534C190.154 200.279 190.147 200.018 190.09 199.766C190.032 199.514 189.926 199.276 189.776 199.065C189.627 198.855 189.437 198.676 189.218 198.538C189 198.401 188.756 198.308 188.502 198.264C188.247 198.221 187.986 198.229 187.735 198.286C187.226 198.402 186.785 198.716 186.507 199.158C186.23 199.6 186.139 200.134 186.255 200.642C186.372 201.151 186.685 201.593 187.127 201.87C187.568 202.148 188.102 202.239 188.61 202.122Z" fill="#0E1741"/>
<path d="M194.508 203.695C196.112 203.695 197.651 203.057 198.786 201.922C199.92 200.786 200.558 199.247 200.558 197.641C200.558 196.036 199.92 194.496 198.786 193.361C197.651 192.226 196.112 191.588 194.508 191.588C192.903 191.588 191.364 192.226 190.23 193.361C189.095 194.496 188.458 196.036 188.458 197.641C188.458 199.247 189.095 200.786 190.23 201.922C191.364 203.057 192.903 203.695 194.508 203.695ZM208.423 211.867C206.305 214.893 202.978 217.163 199.197 218.071C195.264 218.979 191.483 218.374 188.155 216.558C188.458 214.288 188.76 210.656 189.063 209.294C189.365 208.083 189.819 207.024 191.18 206.721L194.357 205.965V206.721C194.508 207.175 194.659 207.327 194.962 207.629C195.415 207.932 196.172 207.932 196.777 207.781C197.533 207.629 197.987 207.327 198.138 206.873C198.289 206.57 198.44 206.116 198.289 205.813C198.289 205.511 198.138 205.359 197.987 205.208L200.86 204.603C202.222 204.3 203.129 205.057 203.885 205.965C205.247 207.024 207.213 210.051 208.423 211.867Z" fill="#0E1741"/>
<path d="M210.993 199.003C212.052 203.543 210.993 208.235 208.422 211.715C206.305 214.742 202.977 217.012 199.196 217.92C195.263 218.828 191.482 218.223 188.155 216.407C184.373 214.288 181.348 210.656 180.29 206.116C178.323 197.641 183.617 189.167 192.238 187.199C200.86 185.232 209.027 190.529 210.993 199.003Z" stroke="#0C296E" stroke-width="0.5" stroke-miterlimit="10" stroke-linecap="round" stroke-linejoin="round"/>
<path d="M190.877 196.128C192.692 196.733 194.658 195.825 193.902 195.22C193.902 195.22 196.625 195.22 198.591 194.766C201.011 194.009 200.708 191.588 198.44 191.437C196.171 191.285 192.692 189.167 189.062 191.588C186.945 192.95 185.735 196.128 186.793 198.852C186.793 198.852 188.457 197.641 188.911 199.457C189.365 201.273 190.877 196.128 190.877 196.128Z" fill="#0E1741"/>
<path opacity="0.15" d="M315.81 169.039C331.347 169.039 343.943 156.436 343.943 140.891C343.943 125.346 331.347 112.743 315.81 112.743C300.272 112.743 287.678 125.346 287.678 140.891C287.678 156.436 300.272 169.039 315.81 169.039Z" fill="#FFFCFD"/>
<path d="M312.785 166.467C327.069 166.467 338.648 154.881 338.648 140.589C338.648 126.297 327.069 114.711 312.785 114.711C298.501 114.711 286.921 126.297 286.921 140.589C286.921 154.881 298.501 166.467 312.785 166.467Z" fill="#F3BC33"/>
<path d="M324.059 136.162L300.701 141.217L301.533 145.064L324.891 140.009L324.059 136.162Z" fill="white"/>
<path d="M312.192 128.512L308.349 129.345L313.4 152.715L317.244 151.883L312.192 128.512Z" fill="white"/>
<path d="M417.147 332.175L306.281 307.962C304.012 307.508 302.651 305.238 303.105 303.119L345.908 107.445C346.362 105.175 348.631 103.813 350.748 104.267L461.615 128.48C463.883 128.934 465.245 131.204 464.791 133.323L421.987 328.999C421.533 331.269 419.265 332.631 417.147 332.177V332.175Z" fill="white" stroke="#0C296E" stroke-width="0.5" stroke-miterlimit="10"/>
<path d="M311.575 296.916L350.9 117.132C351.354 114.862 353.774 113.349 356.042 113.803L452.994 134.989C455.262 135.443 456.775 137.865 456.321 140.135L416.996 319.919C416.542 322.189 414.122 323.702 411.854 323.248L314.902 302.061C312.482 301.607 311.121 299.186 311.575 296.916Z" fill="white" stroke="#0C296E" stroke-width="0.5" stroke-miterlimit="10"/>
<path d="M428.491 131.961L381.453 121.67C379.184 121.216 377.823 118.946 378.276 116.676L379.486 110.926L434.693 123.032L433.483 128.783C433.029 130.902 430.76 132.415 428.491 131.961Z" fill="white" stroke="#0C296E" stroke-width="0.5" stroke-miterlimit="10"/>
<path d="M423.046 127.271L394.006 120.915C393.401 120.764 392.947 120.159 393.098 119.553L393.401 118.494C393.552 117.889 394.157 117.435 394.762 117.586L423.802 123.942C424.407 124.093 424.861 124.699 424.71 125.304L424.407 126.363C424.407 126.969 423.651 127.423 423.046 127.271ZM389.166 119.552C389.567 119.552 389.952 119.392 390.235 119.109C390.519 118.825 390.678 118.44 390.678 118.038C390.678 117.637 390.519 117.252 390.235 116.968C389.952 116.685 389.567 116.525 389.166 116.525C388.765 116.525 388.38 116.685 388.096 116.968C387.813 117.252 387.653 117.637 387.653 118.038C387.653 118.44 387.813 118.825 388.096 119.109C388.38 119.392 388.765 119.552 389.166 119.552Z" fill="white" stroke="#0C296E" stroke-width="0.5" stroke-miterlimit="10"/>
<path d="M419.416 307.356L417.147 319.009C415.937 323.549 412.912 323.852 409.433 323.095L380.998 316.436L367.84 289.953C353.773 284.051 343.035 276.03 335.472 267.253C324.582 254.844 320.347 241.072 322.313 230.782C322.313 230.63 322.313 230.328 322.465 230.176C322.918 228.058 323.523 226.09 324.431 224.274C326.095 220.794 328.363 217.767 330.935 215.194C332.296 213.832 333.657 212.622 335.17 211.562C340.312 207.779 345.606 205.509 349.085 204.298C351.353 203.542 352.715 203.239 352.715 203.239C352.715 203.239 338.648 180.085 332.598 161.32C328.515 148.456 331.993 144.673 334.565 143.614C335.623 143.16 336.985 143.614 337.59 144.673L378.73 210.957L388.561 215.8C389.015 215.951 389.317 216.405 389.468 216.859L404.593 272.398L419.416 307.356Z" fill="#FFFCFD" stroke="#0C296E" stroke-width="0.5" stroke-miterlimit="10"/>
<path d="M359.823 257.719C357.857 259.384 353.925 258.93 352.715 259.535C350.143 260.595 334.262 223.821 334.262 223.821L330.935 215.195C332.296 213.833 333.657 212.622 335.17 211.563C340.312 207.779 345.606 205.509 349.085 204.299C352.261 212.017 362.243 229.723 363.756 243.494C364.663 251.969 361.638 256.055 359.823 257.719Z" fill="#FFFCFD" stroke="#0C296E" stroke-width="0.5" stroke-miterlimit="10"/>
<path d="M345.757 262.713C345.606 262.713 344.698 261.502 344.547 261.502C335.623 256.962 328.061 241.072 322.313 230.63C322.313 230.479 322.313 230.176 322.465 230.025C322.918 227.906 323.523 225.939 324.431 224.123C326.095 220.642 328.363 217.616 330.935 215.043C332.296 213.681 333.657 212.47 335.17 211.411L358.765 257.87C359.067 258.476 359.218 259.232 359.067 259.838C358.765 262.562 356.647 268.161 345.757 262.713Z" fill="#FFFCFD" stroke="#0C296E" stroke-width="0.5" stroke-miterlimit="10"/>
<path d="M335.472 267.102C324.582 254.692 320.347 240.921 322.313 230.63C322.313 230.479 322.313 230.176 322.465 230.025C322.918 227.906 323.523 225.939 324.431 224.123C325.792 226.09 343.488 253.482 346.513 260.443C346.816 261.048 346.967 261.351 346.967 261.654C347.572 265.891 344.245 270.431 335.472 267.102Z" fill="#FFFCFD" stroke="#0C296E" stroke-width="0.677" stroke-miterlimit="10"/>
<path d="M378.73 210.806L347.724 203.996C345.909 203.542 344.094 204.904 343.943 206.72C343.64 210.2 345.001 215.8 354.681 220.945C358.765 223.064 371.773 228.058 371.773 228.058C371.773 228.058 368.748 235.473 376.613 253.784" fill="#FFFCFD"/>
<path d="M378.73 210.806L347.724 203.996C345.909 203.542 344.094 204.904 343.943 206.72C343.64 210.2 345.001 215.8 354.681 220.945C358.765 223.064 371.773 228.058 371.773 228.058C371.773 228.058 368.748 235.473 376.613 253.784" stroke="#0C296E" stroke-width="0.5" stroke-miterlimit="10" stroke-linecap="round"/>
<path d="M388.561 87.4707C389.403 87.4707 390.211 87.1359 390.807 86.5399C391.403 85.9439 391.737 85.1356 391.737 84.2927C391.737 83.4499 391.403 82.6416 390.807 82.0456C390.211 81.4496 389.403 81.1147 388.561 81.1147C387.719 81.1147 386.911 81.4496 386.315 82.0456C385.719 82.6416 385.385 83.4499 385.385 84.2927C385.385 85.1356 385.719 85.9439 386.315 86.5399C386.911 87.1359 387.719 87.4707 388.561 87.4707ZM146.41 228.816C146.827 228.816 147.24 228.734 147.625 228.574C148.011 228.414 148.361 228.18 148.656 227.885C148.951 227.59 149.185 227.24 149.344 226.854C149.504 226.469 149.586 226.055 149.586 225.638C149.586 225.221 149.504 224.807 149.344 224.422C149.185 224.036 148.951 223.686 148.656 223.391C148.361 223.096 148.011 222.862 147.625 222.702C147.24 222.542 146.827 222.46 146.41 222.46C145.567 222.46 144.759 222.795 144.164 223.391C143.568 223.987 143.233 224.795 143.233 225.638C143.233 226.481 143.568 227.289 144.164 227.885C144.759 228.481 145.567 228.816 146.41 228.816ZM275.577 317.799C276.339 317.799 277.07 317.496 277.609 316.956C278.148 316.417 278.451 315.686 278.451 314.923C278.451 314.161 278.148 313.429 277.609 312.89C277.07 312.351 276.339 312.048 275.577 312.048C274.815 312.048 274.084 312.351 273.545 312.89C273.006 313.429 272.703 314.161 272.703 314.923C272.703 315.686 273.006 316.417 273.545 316.956C274.084 317.496 274.815 317.799 275.577 317.799ZM454.657 284.507C455.54 284.507 456.386 284.156 457.01 283.532C457.634 282.907 457.985 282.06 457.985 281.177C457.985 280.294 457.634 279.448 457.01 278.823C456.386 278.199 455.54 277.848 454.657 277.848C453.775 277.848 452.928 278.199 452.304 278.823C451.68 279.448 451.33 280.294 451.33 281.177C451.33 282.06 451.68 282.907 452.304 283.532C452.928 284.156 453.775 284.507 454.657 284.507Z" fill="white" stroke="#0C296E" stroke-width="0.5" stroke-miterlimit="10"/>
<path d="M205.7 321.735L204.641 318.708C204.641 318.557 204.49 318.405 204.339 318.405L201.314 317.346C200.86 317.195 200.86 316.438 201.314 316.287L204.339 315.227C204.49 315.227 204.641 315.076 204.641 314.925L205.7 311.898C205.851 311.444 206.608 311.444 206.759 311.898L207.818 314.925C207.818 315.076 207.969 315.227 208.12 315.227L211.145 316.287C211.599 316.438 211.599 317.195 211.145 317.346L208.12 318.405C207.969 318.405 207.818 318.557 207.818 318.708L206.759 321.735C206.608 322.34 205.851 322.34 205.7 321.735ZM289.644 104.42L288.585 101.393C288.585 101.242 288.434 101.091 288.283 101.091L285.258 100.031C284.804 99.8801 284.804 99.1234 285.258 98.9721L288.283 97.9127C288.434 97.9127 288.585 97.7614 288.585 97.6101L289.644 94.5834C289.795 94.1294 290.551 94.1294 290.703 94.5834L291.761 97.6101C291.761 97.7614 291.913 97.9127 292.064 97.9127L295.089 98.9721C295.543 99.1234 295.543 99.8801 295.089 100.031L292.064 101.091C291.913 101.091 291.761 101.242 291.761 101.393L290.703 104.42C290.551 104.874 289.795 104.874 289.644 104.42Z" fill="#F3BC33"/>
<path d="M187.701 312.806C188.003 311.747 188.155 310.687 188.003 309.628C187.701 305.693 184.827 302.364 181.046 301.305C179.685 301.002 178.475 301.002 177.265 301.153C176.66 297.067 173.03 294.041 168.643 294.041C164.106 294.041 160.325 297.37 160.022 301.759C159.115 301.607 158.207 301.607 157.3 301.759C153.065 302.364 149.737 305.845 149.435 310.233C149.435 310.99 149.435 311.747 149.586 312.352C149.888 314.471 151.703 315.984 153.821 315.984H183.617C185.432 315.833 187.247 314.622 187.701 312.806Z" fill="#F3BC33"/>
</svg>
